<svg width="64" height="64" viewBox="0 0 64 64" fill="none" xmlns="http://www.w3.org/2000/svg">
<g clip-path="url(#clip0_109_609)">
<g filter="url(#filter0_d_109_609)">
<path fill-rule="evenodd" clip-rule="evenodd" d="M1.93939 32C1.93939 48.602 15.398 62.0606 32 62.0606C48.602 62.0606 62.0606 48.602 62.0606 32C62.0606 15.398 48.602 1.93939 32 1.93939C15.398 1.93939 1.93939 15.398 1.93939 32ZM32 0C14.3269 0 0 14.3269 0 32C0 49.6731 14.3269 64 32 64C49.6731 64 64 49.6731 64 32C64 14.3269 49.6731 0 32 0Z" fill="url(#paint0_linear_109_609)"/>
</g>
<path fill-rule="evenodd" clip-rule="evenodd" d="M19 32.25C19 24.9322 24.9322 19 32.25 19C39.5678 19 45.5 24.9322 45.5 32.25C45.5 39.5678 39.5678 45.5 32.25 45.5C24.9322 45.5 19 39.5678 19 32.25ZM32.25 17C23.8277 17 17 23.8277 17 32.25C17 40.6723 23.8277 47.5 32.25 47.5C40.6723 47.5 47.5 40.6723 47.5 32.25C47.5 23.8277 40.6723 17 32.25 17ZM33.25 25.9166C33.25 25.3643 32.8023 24.9166 32.25 24.9166C31.6977 24.9166 31.25 25.3643 31.25 25.9166L31.25 36.1691L28.2071 33.1262C27.8166 32.7357 27.1834 32.7357 26.7929 33.1262C26.4024 33.5167 26.4024 34.1499 26.7929 34.5404L31.5429 39.2904C31.7304 39.4779 31.9848 39.5833 32.25 39.5833C32.5152 39.5833 32.7696 39.4779 32.9571 39.2904L37.7071 34.5404C38.0976 34.1499 38.0976 33.5167 37.7071 33.1262C37.3166 32.7357 36.6834 32.7357 36.2929 33.1262L33.25 36.1691V25.9166Z" fill="url(#paint1_linear_109_609)"/>
</g>
<defs>
<filter id="filter0_d_109_609" x="-44" y="-11" width="130" height="130" filterUnits="userSpaceOnUse" color-interpolation-filters="sRGB">
<feFlood flood-opacity="0" result="BackgroundImageFix"/>
<feColorMatrix in="SourceAlpha" type="matrix" values="0 0 0 0 0 0 0 0 0 0 0 0 0 0 0 0 0 0 127 0" result="hardAlpha"/>
<feOffset dx="-11" dy="22"/>
<feGaussianBlur stdDeviation="16.5"/>
<feComposite in2="hardAlpha" operator="out"/>
<feColorMatrix type="matrix" values="0 0 0 0 0.026875 0 0 0 0 0.0384375 0 0 0 0 0.05 0 0 0 0.13 0"/>
<feBlend mode="normal" in2="BackgroundImageFix" result="effect1_dropShadow_109_609"/>
<feBlend mode="normal" in="SourceGraphic" in2="effect1_dropShadow_109_609" result="shape"/>
</filter>
<linearGradient id="paint0_linear_109_609" x1="2.23192e-06" y1="-16.7956" x2="75.4987" y2="19.8672" gradientUnits="userSpaceOnUse">
<stop stop-color="#8B99DC"/>
<stop offset="1" stop-color="#EDD1FE"/>
</linearGradient>
<linearGradient id="paint1_linear_109_609" x1="17" y1="8.99585" x2="52.9798" y2="26.468" gradientUnits="userSpaceOnUse">
<stop stop-color="#8B99DC"/>
<stop offset="1" stop-color="#EDD1FE"/>
</linearGradient>
<clipPath id="clip0_109_609">
<rect width="64" height="64" fill="white"/>
</clipPath>
</defs>
</svg>
