<svg width="64" height="64" viewBox="0 0 64 64" fill="none" xmlns="http://www.w3.org/2000/svg">
<g clip-path="url(#clip0_227_129)">
<g filter="url(#filter0_d_227_129)">
<path fill-rule="evenodd" clip-rule="evenodd" d="M1.93939 32C1.93939 48.602 15.398 62.0606 32 62.0606C48.602 62.0606 62.0606 48.602 62.0606 32C62.0606 15.398 48.602 1.93939 32 1.93939C15.398 1.93939 1.93939 15.398 1.93939 32ZM32 0C14.3269 0 0 14.3269 0 32C0 49.6731 14.3269 64 32 64C49.6731 64 64 49.6731 64 32C64 14.3269 49.6731 0 32 0Z" fill="url(#paint0_linear_227_129)"/>
</g>
<path fill-rule="evenodd" clip-rule="evenodd" d="M34 26C34 23.7909 35.7909 22 38 22C40.2091 22 42 23.7909 42 26C42 28.2091 40.2091 30 38 30H36V34H38C40.2091 34 42 35.7909 42 38C42 40.2091 40.2091 42 38 42C35.7909 42 34 40.2091 34 38V36H30V38C30 40.2091 28.2091 42 26 42C23.7909 42 22 40.2091 22 38C22 35.7909 23.7909 34 26 34H28V30H26C23.7909 30 22 28.2091 22 26C22 23.7909 23.7909 22 26 22C28.2091 22 30 23.7909 30 26V28H34V26ZM38 24C36.8954 24 36 24.8954 36 26V28H38C39.1046 28 40 27.1046 40 26C40 24.8954 39.1046 24 38 24ZM30 34V30H34V34H30ZM26 36C24.8954 36 24 36.8954 24 38C24 39.1046 24.8954 40 26 40C27.1046 40 28 39.1046 28 38V36H26ZM36 36V38C36 39.1046 36.8954 40 38 40C39.1046 40 40 39.1046 40 38C40 36.8954 39.1046 36 38 36H36ZM24 26C24 24.8954 24.8954 24 26 24C27.1046 24 28 24.8954 28 26V28H26C24.8954 28 24 27.1046 24 26Z" fill="url(#paint1_linear_227_129)"/>
</g>
<defs>
<filter id="filter0_d_227_129" x="-44" y="-11" width="130" height="130" filterUnits="userSpaceOnUse" color-interpolation-filters="sRGB">
<feFlood flood-opacity="0" result="BackgroundImageFix"/>
<feColorMatrix in="SourceAlpha" type="matrix" values="0 0 0 0 0 0 0 0 0 0 0 0 0 0 0 0 0 0 127 0" result="hardAlpha"/>
<feOffset dx="-11" dy="22"/>
<feGaussianBlur stdDeviation="16.5"/>
<feComposite in2="hardAlpha" operator="out"/>
<feColorMatrix type="matrix" values="0 0 0 0 0.026875 0 0 0 0 0.0384375 0 0 0 0 0.05 0 0 0 0.13 0"/>
<feBlend mode="normal" in2="BackgroundImageFix" result="effect1_dropShadow_227_129"/>
<feBlend mode="normal" in="SourceGraphic" in2="effect1_dropShadow_227_129" result="shape"/>
</filter>
<linearGradient id="paint0_linear_227_129" x1="2.23192e-06" y1="-16.7956" x2="75.4987" y2="19.8672" gradientUnits="userSpaceOnUse">
<stop stop-color="#8B99DC"/>
<stop offset="1" stop-color="#EDD1FE"/>
</linearGradient>
<linearGradient id="paint1_linear_227_129" x1="22" y1="16.7514" x2="45.5933" y2="28.2085" gradientUnits="userSpaceOnUse">
<stop stop-color="#8B99DC"/>
<stop offset="1" stop-color="#EDD1FE"/>
</linearGradient>
<clipPath id="clip0_227_129">
<rect width="64" height="64" fill="white"/>
</clipPath>
</defs>
</svg>
