<svg width="64" height="64" viewBox="0 0 64 64" fill="none" xmlns="http://www.w3.org/2000/svg">
<g clip-path="url(#clip0_109_591)">
<g filter="url(#filter0_d_109_591)">
<path fill-rule="evenodd" clip-rule="evenodd" d="M1.93939 32C1.93939 48.602 15.398 62.0606 32 62.0606C48.602 62.0606 62.0606 48.602 62.0606 32C62.0606 15.398 48.602 1.93939 32 1.93939C15.398 1.93939 1.93939 15.398 1.93939 32ZM32 0C14.3269 0 0 14.3269 0 32C0 49.6731 14.3269 64 32 64C49.6731 64 64 49.6731 64 32C64 14.3269 49.6731 0 32 0Z" fill="url(#paint0_linear_109_591)"/>
</g>
<path fill-rule="evenodd" clip-rule="evenodd" d="M31.9553 16.1273C32.2978 15.9576 32.7022 15.9576 33.0447 16.1273L36.3677 17.7734C36.9633 18.0684 37.2023 18.7813 36.9015 19.3656C36.6006 19.9498 35.8739 20.1843 35.2782 19.8892L32.5 18.513L29.7218 19.8892C29.1261 20.1843 28.3994 19.9498 28.0985 19.3656C27.7977 18.7813 28.0367 18.0684 28.6323 17.7734L31.9553 16.1273ZM23.6098 21.5892C23.9107 22.1734 23.6717 22.8863 23.076 23.1814L21.8887 23.7695L23.076 24.3577C23.6717 24.6528 23.9107 25.3657 23.6098 25.9499C23.309 26.5342 22.5822 26.7686 21.9865 26.4736L20.4167 25.6959V27.8848C20.4167 28.5393 19.8757 29.07 19.2083 29.07C18.541 29.07 18 28.5393 18 27.8848V23.7695C18 23.3224 18.2566 22.9132 18.6636 22.7116L21.9865 21.0655C22.5822 20.7705 23.309 21.0049 23.6098 21.5892ZM41.3902 21.5892C41.691 21.0049 42.4178 20.7705 43.0135 21.0655L46.3364 22.7116C46.7434 22.9132 47 23.3224 47 23.7695V27.8848C47 28.5393 46.459 29.07 45.7917 29.07C45.1243 29.07 44.5833 28.5393 44.5833 27.8848V25.6959L43.0135 26.4736C42.4178 26.7686 41.691 26.5342 41.3902 25.9499C41.0893 25.3657 41.3283 24.6528 41.924 24.3577L43.1113 23.7695L41.924 23.1814C41.3283 22.8863 41.0893 22.1734 41.3902 21.5892ZM28.0985 28.1735C28.3994 27.5892 29.1261 27.3548 29.7218 27.6499L32.5 29.0261L35.2782 27.6499C35.8739 27.3548 36.6006 27.5892 36.9015 28.1735C37.2023 28.7578 36.9633 29.4706 36.3677 29.7657L33.7083 31.0831V34.4691C33.7083 35.1237 33.1673 35.6543 32.5 35.6543C31.8327 35.6543 31.2917 35.1237 31.2917 34.4691V31.0831L28.6323 29.7657C28.0367 29.4706 27.7977 28.7578 28.0985 28.1735ZM19.2083 34.93C19.8757 34.93 20.4167 35.4607 20.4167 36.1152V39.5013L23.076 40.8186C23.6717 41.1137 23.9107 41.8266 23.6098 42.4108C23.309 42.9951 22.5822 43.2295 21.9865 42.9345L18.6636 41.2884C18.2566 41.0868 18 40.6776 18 40.2305V36.1152C18 35.4607 18.541 34.93 19.2083 34.93ZM45.7917 34.93C46.459 34.93 47 35.4607 47 36.1152V40.2305C47 40.6776 46.7434 41.0868 46.3364 41.2884L43.0135 42.9345C42.4178 43.2295 41.691 42.9951 41.3902 42.4108C41.0893 41.8266 41.3283 41.1137 41.924 40.8186L44.5833 39.5013V36.1152C44.5833 35.4607 45.1243 34.93 45.7917 34.93ZM32.5 41.5144C33.1673 41.5144 33.7083 42.045 33.7083 42.6996V44.8885L35.2782 44.1108C35.8739 43.8157 36.6006 44.0502 36.9015 44.6344C37.2023 45.2187 36.9633 45.9316 36.3677 46.2266L33.0447 47.8727C32.7022 48.0424 32.2978 48.0424 31.9553 47.8727L28.6323 46.2266C28.0367 45.9316 27.7977 45.2187 28.0985 44.6344C28.3994 44.0502 29.1261 43.8157 29.7218 44.1108L31.2917 44.8885V42.6996C31.2917 42.045 31.8327 41.5144 32.5 41.5144Z" fill="url(#paint1_linear_109_591)"/>
</g>
<defs>
<filter id="filter0_d_109_591" x="-44" y="-11" width="130" height="130" filterUnits="userSpaceOnUse" color-interpolation-filters="sRGB">
<feFlood flood-opacity="0" result="BackgroundImageFix"/>
<feColorMatrix in="SourceAlpha" type="matrix" values="0 0 0 0 0 0 0 0 0 0 0 0 0 0 0 0 0 0 127 0" result="hardAlpha"/>
<feOffset dx="-11" dy="22"/>
<feGaussianBlur stdDeviation="16.5"/>
<feComposite in2="hardAlpha" operator="out"/>
<feColorMatrix type="matrix" values="0 0 0 0 0.026875 0 0 0 0 0.0384375 0 0 0 0 0.05 0 0 0 0.13 0"/>
<feBlend mode="normal" in2="BackgroundImageFix" result="effect1_dropShadow_109_591"/>
<feBlend mode="normal" in="SourceGraphic" in2="effect1_dropShadow_109_591" result="shape"/>
</filter>
<linearGradient id="paint0_linear_109_591" x1="2.23192e-06" y1="-16.7956" x2="75.4987" y2="19.8672" gradientUnits="userSpaceOnUse">
<stop stop-color="#8B99DC"/>
<stop offset="1" stop-color="#EDD1FE"/>
</linearGradient>
<linearGradient id="paint1_linear_109_591" x1="18" y1="7.60221" x2="53.4181" y2="23.1891" gradientUnits="userSpaceOnUse">
<stop stop-color="#8B99DC"/>
<stop offset="1" stop-color="#EDD1FE"/>
</linearGradient>
<clipPath id="clip0_109_591">
<rect width="64" height="64" fill="white"/>
</clipPath>
</defs>
</svg>
