<svg width="64" height="64" viewBox="0 0 64 64" fill="none" xmlns="http://www.w3.org/2000/svg">
<g clip-path="url(#clip0_109_608)">
<g filter="url(#filter0_d_109_608)">
<path fill-rule="evenodd" clip-rule="evenodd" d="M1.93939 32C1.93939 48.602 15.398 62.0606 32 62.0606C48.602 62.0606 62.0606 48.602 62.0606 32C62.0606 15.398 48.602 1.93939 32 1.93939C15.398 1.93939 1.93939 15.398 1.93939 32ZM32 0C14.3269 0 0 14.3269 0 32C0 49.6731 14.3269 64 32 64C49.6731 64 64 49.6731 64 32C64 14.3269 49.6731 0 32 0Z" fill="url(#paint0_linear_109_608)"/>
</g>
<path fill-rule="evenodd" clip-rule="evenodd" d="M24.9272 37.8564L29.3246 33.459C29.9366 32.847 30.9289 32.847 31.541 33.459C32.153 34.0711 32.153 35.0634 31.541 35.6754L27.1436 40.0728C28.8664 40.8279 30.4474 41.1069 31.8521 41.0146C33.7143 40.8923 35.3831 40.1112 36.7866 38.7077C39.4737 36.0207 41.2417 30.9625 41.0123 23.9877C34.0375 23.7583 28.9793 25.5263 26.2922 28.2133C24.8888 29.6168 24.1077 31.2856 23.9854 33.1479C23.8931 34.5526 24.1721 36.1336 24.9272 37.8564ZM22.7024 40.0812C21.4384 37.6361 20.874 35.228 21.0235 32.9533C21.1963 30.3227 22.3174 27.9905 24.1934 26.1145C27.8991 22.4087 34.4408 20.5527 42.5261 21.0918C43.268 21.1412 43.8588 21.732 43.9082 22.4739C44.4472 30.5592 42.5912 37.1009 38.8855 40.8066C37.0095 42.6826 34.6773 43.8037 32.0467 43.9765C29.772 44.126 27.3639 43.5616 24.9188 42.2976L22.6754 44.541C22.0634 45.153 21.0711 45.153 20.459 44.541C19.847 43.9289 19.847 42.9366 20.459 42.3246L22.7024 40.0812Z" fill="url(#paint1_linear_109_608)"/>
</g>
<defs>
<filter id="filter0_d_109_608" x="-44" y="-11" width="130" height="130" filterUnits="userSpaceOnUse" color-interpolation-filters="sRGB">
<feFlood flood-opacity="0" result="BackgroundImageFix"/>
<feColorMatrix in="SourceAlpha" type="matrix" values="0 0 0 0 0 0 0 0 0 0 0 0 0 0 0 0 0 0 127 0" result="hardAlpha"/>
<feOffset dx="-11" dy="22"/>
<feGaussianBlur stdDeviation="16.5"/>
<feComposite in2="hardAlpha" operator="out"/>
<feColorMatrix type="matrix" values="0 0 0 0 0.026875 0 0 0 0 0.0384375 0 0 0 0 0.05 0 0 0 0.13 0"/>
<feBlend mode="normal" in2="BackgroundImageFix" result="effect1_dropShadow_109_608"/>
<feBlend mode="normal" in="SourceGraphic" in2="effect1_dropShadow_109_608" result="shape"/>
</filter>
<linearGradient id="paint0_linear_109_608" x1="2.23192e-06" y1="-16.7956" x2="75.4987" y2="19.8672" gradientUnits="userSpaceOnUse">
<stop stop-color="#8B99DC"/>
<stop offset="1" stop-color="#EDD1FE"/>
</linearGradient>
<linearGradient id="paint1_linear_109_608" x1="20" y1="14.7017" x2="48.312" y2="28.4502" gradientUnits="userSpaceOnUse">
<stop stop-color="#8B99DC"/>
<stop offset="1" stop-color="#EDD1FE"/>
</linearGradient>
<clipPath id="clip0_109_608">
<rect width="64" height="64" fill="white"/>
</clipPath>
</defs>
</svg>
