<svg width="64" height="64" viewBox="0 0 64 64" fill="none" xmlns="http://www.w3.org/2000/svg">
<g clip-path="url(#clip0_109_604)">
<g filter="url(#filter0_d_109_604)">
<path fill-rule="evenodd" clip-rule="evenodd" d="M1.93939 32C1.93939 48.602 15.398 62.0606 32 62.0606C48.602 62.0606 62.0606 48.602 62.0606 32C62.0606 15.398 48.602 1.93939 32 1.93939C15.398 1.93939 1.93939 15.398 1.93939 32ZM32 0C14.3269 0 0 14.3269 0 32C0 49.6731 14.3269 64 32 64C49.6731 64 64 49.6731 64 32C64 14.3269 49.6731 0 32 0Z" fill="url(#paint0_linear_109_604)"/>
</g>
<path fill-rule="evenodd" clip-rule="evenodd" d="M45.6805 20.3358L45.8009 19.1615L44.6227 19.2359C35.7166 19.7981 30.0737 23.4962 26.6351 27.5105C25.6594 28.6496 24.8624 29.8126 24.2185 30.9337C21.271 30.684 16.4561 32.0267 13.863 38.5175L15.4991 39.5953C15.4989 39.5954 15.4999 39.5948 15.5018 39.5932C15.5311 39.5708 15.7938 39.3695 16.2997 39.0949C16.8029 38.8218 17.4681 38.5197 18.2107 38.3038C19.1448 38.0321 20.1319 37.9139 21.0674 38.1026L19.8119 39.3592L25.4868 45.0292L26.9558 43.559C27.3541 44.6616 27.2515 45.8739 26.9227 47.0083C26.7074 47.7511 26.4058 48.4165 26.1331 48.92C25.859 49.4261 25.6579 49.689 25.6355 49.7183L25.6354 49.7184C25.634 49.7203 25.6333 49.7212 25.6335 49.721L26.7127 51.3562C33.5503 48.6177 34.6689 43.4167 34.2335 40.5352C39.2745 37.4541 44.5562 31.3074 45.6805 20.3358ZM22.0588 36.291C22.2646 35.3733 22.6322 34.2057 23.2101 32.9129C21.4707 33.0027 19.071 33.8201 17.1659 36.5373C17.324 36.4832 17.4863 36.4316 17.6522 36.3833C18.9269 36.0126 20.5088 35.8167 22.0588 36.291ZM28.8436 47.5651C29.2401 46.1971 29.4352 44.4754 28.817 42.8198C29.8845 42.5669 31.0748 42.1606 32.3166 41.5724C32.3466 43.3288 31.6382 45.9807 28.69 48.0516C28.744 47.8934 28.7955 47.7311 28.8436 47.5651ZM25.7746 41.9116L22.9293 39.0688L22.6403 39.358L25.4856 42.2008L25.7746 41.9116ZM27.702 41.0101C32.4873 40.1564 41.6488 35.2772 43.5483 21.3296C35.9017 22.0949 31.1017 25.3706 28.1541 28.8116C25.3148 32.1261 24.1804 35.6104 23.9123 37.2237L27.702 41.0101Z" fill="url(#paint1_linear_109_604)"/>
</g>
<defs>
<filter id="filter0_d_109_604" x="-44" y="-11" width="130" height="130" filterUnits="userSpaceOnUse" color-interpolation-filters="sRGB">
<feFlood flood-opacity="0" result="BackgroundImageFix"/>
<feColorMatrix in="SourceAlpha" type="matrix" values="0 0 0 0 0 0 0 0 0 0 0 0 0 0 0 0 0 0 127 0" result="hardAlpha"/>
<feOffset dx="-11" dy="22"/>
<feGaussianBlur stdDeviation="16.5"/>
<feComposite in2="hardAlpha" operator="out"/>
<feColorMatrix type="matrix" values="0 0 0 0 0.026875 0 0 0 0 0.0384375 0 0 0 0 0.05 0 0 0 0.13 0"/>
<feBlend mode="normal" in2="BackgroundImageFix" result="effect1_dropShadow_109_604"/>
<feBlend mode="normal" in="SourceGraphic" in2="effect1_dropShadow_109_604" result="shape"/>
</filter>
<linearGradient id="paint0_linear_109_604" x1="2.23192e-06" y1="-16.7956" x2="75.4987" y2="19.8672" gradientUnits="userSpaceOnUse">
<stop stop-color="#8B99DC"/>
<stop offset="1" stop-color="#EDD1FE"/>
</linearGradient>
<linearGradient id="paint1_linear_109_604" x1="30.3108" y1="31.2242" x2="20.8836" y2="25.9411" gradientUnits="userSpaceOnUse">
<stop stop-color="#8B99DC"/>
<stop offset="1" stop-color="#EDD1FE"/>
</linearGradient>
<clipPath id="clip0_109_604">
<rect width="64" height="64" fill="white"/>
</clipPath>
</defs>
</svg>
