<svg width="64" height="64" viewBox="0 0 64 64" fill="none" xmlns="http://www.w3.org/2000/svg">
<g clip-path="url(#clip0_227_137)">
<g filter="url(#filter0_d_227_137)">
<path fill-rule="evenodd" clip-rule="evenodd" d="M1.93939 32C1.93939 48.602 15.398 62.0606 32 62.0606C48.602 62.0606 62.0606 48.602 62.0606 32C62.0606 15.398 48.602 1.93939 32 1.93939C15.398 1.93939 1.93939 15.398 1.93939 32ZM32 0C14.3269 0 0 14.3269 0 32C0 49.6731 14.3269 64 32 64C49.6731 64 64 49.6731 64 32C64 14.3269 49.6731 0 32 0Z" fill="url(#paint0_linear_227_137)"/>
</g>
<path fill-rule="evenodd" clip-rule="evenodd" d="M25.9553 16.1273C26.2978 15.9576 26.7022 15.9576 27.0447 16.1273L30.3677 17.7734C30.9633 18.0684 31.2023 18.7813 30.9015 19.3656C30.6006 19.9498 29.8739 20.1843 29.2782 19.8892L26.5 18.513L23.7218 19.8892C23.1261 20.1843 22.3994 19.9498 22.0985 19.3656C21.7977 18.7813 22.0367 18.0684 22.6323 17.7734L25.9553 16.1273ZM17.6098 21.5892C17.9107 22.1734 17.6717 22.8863 17.076 23.1814L15.8887 23.7695L17.076 24.3577C17.6717 24.6528 17.9107 25.3657 17.6098 25.9499C17.309 26.5342 16.5822 26.7686 15.9865 26.4736L14.4167 25.6959V27.8848C14.4167 28.5393 13.8757 29.07 13.2083 29.07C12.541 29.07 12 28.5393 12 27.8848V23.7695C12 23.3224 12.2566 22.9132 12.6636 22.7116L15.9865 21.0655C16.5822 20.7705 17.309 21.0049 17.6098 21.5892ZM22.0985 28.1735C22.3994 27.5892 23.1261 27.3548 23.7218 27.6499L26.5 29.0261L27.3767 28.5025C27.9724 28.2074 28.6992 28.4419 29 29.0261C29.3009 29.6104 29.0618 30.3233 28.4662 30.6184L27.7083 31.0831V34.4691C27.7083 35.1237 27.1673 35.6543 26.5 35.6543C25.8327 35.6543 25.2917 35.1237 25.2917 34.4691V31.0831L22.6323 29.7657C22.0367 29.4706 21.7977 28.7578 22.0985 28.1735ZM13.2083 34.93C13.8757 34.93 14.4167 35.4607 14.4167 36.1152V39.5013L17.076 40.8186C17.6717 41.1137 17.9107 41.8266 17.6098 42.4108C17.309 42.9951 16.5822 43.2295 15.9865 42.9345L12.6636 41.2884C12.2566 41.0868 12 40.6776 12 40.2305V36.1152C12 35.4607 12.541 34.93 13.2083 34.93ZM26.5 41.5144C27.1673 41.5144 27.7083 42.045 27.7083 42.6996V44.8885L29.2782 44.1108C29.8739 43.8157 30.6006 44.0502 30.9015 44.6344C31.2023 45.2187 30.9633 45.9316 30.3677 46.2266L27.0447 47.8727C26.7022 48.0424 26.2978 48.0424 25.9553 47.8727L22.6323 46.2266C22.0367 45.9316 21.7977 45.2187 22.0985 44.6344C22.3994 44.0502 23.1261 43.8157 23.7218 44.1108L25.2917 44.8885V42.6996C25.2917 42.045 25.8327 41.5144 26.5 41.5144Z" fill="url(#paint1_linear_227_137)"/>
<path fill-rule="evenodd" clip-rule="evenodd" d="M36.864 22.8371C38.6995 21.0218 41.1912 20 43.7917 20C46.3921 20 48.8839 21.0218 50.7193 22.8371C52.5544 24.652 53.5833 27.1112 53.5833 29.6731C53.5833 34.112 51.0775 38.1496 48.4365 41.1534C47.1287 42.6409 45.8182 43.84 44.8344 44.6671C44.4188 45.0165 44.0628 45.2984 43.7917 45.5064C43.5206 45.2984 43.1646 45.0165 42.749 44.6671C41.7651 43.84 40.4547 42.6409 39.1468 41.1534C36.5058 38.1496 34 34.112 34 29.6731C34 27.1112 35.0289 24.652 36.864 22.8371ZM43.2219 47.5718C43.2222 47.572 43.2225 47.5722 43.7917 46.75C44.3609 47.5722 44.3612 47.572 44.3615 47.5718C44.019 47.8088 43.5643 47.8088 43.2219 47.5718ZM43.2219 47.5718L43.7917 46.75L44.3615 47.5718L44.3648 47.5695L44.3726 47.564L44.3997 47.5449C44.4228 47.5286 44.4559 47.5051 44.4982 47.4745C44.5829 47.4134 44.7047 47.3241 44.8584 47.208C45.1656 46.9757 45.6008 46.6356 46.1214 46.198C47.161 45.324 48.5484 44.055 49.9385 42.474C52.6933 39.3408 55.5833 34.8399 55.5833 29.6731C55.5833 26.5736 54.3383 23.6033 52.1257 21.4151C49.9135 19.2272 46.9155 18 43.7917 18C40.6679 18 37.6698 19.2272 35.4576 21.4151C33.245 23.6033 32 26.5736 32 29.6731C32 34.8399 34.89 39.3408 37.6448 42.474C39.0349 44.055 40.4224 45.324 41.462 46.198C41.9825 46.6356 42.4177 46.9757 42.725 47.208C42.8786 47.3241 43.0005 47.4134 43.0851 47.4745C43.1274 47.5051 43.1605 47.5286 43.1836 47.5449L43.2107 47.564L43.2185 47.5695L43.2219 47.5718ZM41.7084 28.25C41.7084 27.0994 42.6411 26.1666 43.7917 26.1666C44.9423 26.1666 45.875 27.0994 45.875 28.25C45.875 29.4006 44.9423 30.3333 43.7917 30.3333C42.6411 30.3333 41.7084 29.4006 41.7084 28.25ZM43.7917 24.1666C41.5365 24.1666 39.7084 25.9948 39.7084 28.25C39.7084 30.5051 41.5365 32.3333 43.7917 32.3333C46.0469 32.3333 47.875 30.5051 47.875 28.25C47.875 25.9948 46.0469 24.1666 43.7917 24.1666Z" fill="url(#paint2_linear_227_137)"/>
</g>
<defs>
<filter id="filter0_d_227_137" x="-44" y="-11" width="130" height="130" filterUnits="userSpaceOnUse" color-interpolation-filters="sRGB">
<feFlood flood-opacity="0" result="BackgroundImageFix"/>
<feColorMatrix in="SourceAlpha" type="matrix" values="0 0 0 0 0 0 0 0 0 0 0 0 0 0 0 0 0 0 127 0" result="hardAlpha"/>
<feOffset dx="-11" dy="22"/>
<feGaussianBlur stdDeviation="16.5"/>
<feComposite in2="hardAlpha" operator="out"/>
<feColorMatrix type="matrix" values="0 0 0 0 0.026875 0 0 0 0 0.0384375 0 0 0 0 0.05 0 0 0 0.13 0"/>
<feBlend mode="normal" in2="BackgroundImageFix" result="effect1_dropShadow_227_137"/>
<feBlend mode="normal" in="SourceGraphic" in2="effect1_dropShadow_227_137" result="shape"/>
</filter>
<linearGradient id="paint0_linear_227_137" x1="2.23192e-06" y1="-16.7956" x2="75.4987" y2="19.8672" gradientUnits="userSpaceOnUse">
<stop stop-color="#8B99DC"/>
<stop offset="1" stop-color="#EDD1FE"/>
</linearGradient>
<linearGradient id="paint1_linear_227_137" x1="12" y1="7.60221" x2="47.4181" y2="23.1891" gradientUnits="userSpaceOnUse">
<stop stop-color="#8B99DC"/>
<stop offset="1" stop-color="#EDD1FE"/>
</linearGradient>
<linearGradient id="paint2_linear_227_137" x1="32" y1="10.1928" x2="61.9436" y2="21.7197" gradientUnits="userSpaceOnUse">
<stop stop-color="#8B99DC"/>
<stop offset="1" stop-color="#EDD1FE"/>
</linearGradient>
<clipPath id="clip0_227_137">
<rect width="64" height="64" fill="white"/>
</clipPath>
</defs>
</svg>
