<svg width="64" height="64" viewBox="0 0 64 64" fill="none" xmlns="http://www.w3.org/2000/svg">
<g clip-path="url(#clip0_109_605)">
<g filter="url(#filter0_d_109_605)">
<path fill-rule="evenodd" clip-rule="evenodd" d="M1.93939 32C1.93939 48.602 15.398 62.0606 32 62.0606C48.602 62.0606 62.0606 48.602 62.0606 32C62.0606 15.398 48.602 1.93939 32 1.93939C15.398 1.93939 1.93939 15.398 1.93939 32ZM32 0C14.3269 0 0 14.3269 0 32C0 49.6731 14.3269 64 32 64C49.6731 64 64 49.6731 64 32C64 14.3269 49.6731 0 32 0Z" fill="url(#paint0_linear_109_605)"/>
</g>
<path fill-rule="evenodd" clip-rule="evenodd" d="M23.5825 22.872L23.6244 22.9116C23.491 23.0474 23.3581 23.1805 23.2265 23.3125L23.2264 23.3126C22.9344 23.6053 22.648 23.8923 22.3729 24.1897C21.8377 24.7684 21.3648 25.4166 21.3179 25.5996H21.4814C21.6739 25.5996 21.8664 25.5994 22.0589 25.5993C22.6355 25.5988 23.2122 25.5983 23.7888 25.6023C23.8448 25.6044 23.9005 25.5935 23.9514 25.5703C24.0024 25.5471 24.0473 25.5123 24.0824 25.4687C24.4784 25.0324 24.9099 24.6297 25.3725 24.2648C27.164 22.8316 29.3548 21.9873 31.6448 21.8475C32.4128 21.7957 33.1841 21.8255 33.9458 21.9363C36.5216 22.3041 38.89 23.5543 40.6467 25.4737C40.6741 25.5124 40.7102 25.5442 40.7521 25.5665C40.7939 25.5888 40.8404 25.601 40.8878 25.6021C41.4265 25.5988 41.9652 25.5989 42.5039 25.5989C42.7704 25.599 43.0369 25.599 43.3034 25.5986C43.3467 25.5944 43.3896 25.5869 43.4317 25.576C42.8503 24.7188 42.1722 23.9314 41.4108 23.2291C41.4247 23.2163 41.4362 23.2053 41.4463 23.1957L41.4463 23.1957L41.4464 23.1956C41.4645 23.1783 41.4781 23.1654 41.4929 23.1539C42.2713 22.5478 42.8838 21.7967 43.3998 20.963C43.7663 20.3832 44.0413 19.7504 44.2152 19.0869C44.2805 18.83 44.3004 18.5637 44.274 18.3C44.2388 17.9422 44.039 17.6427 43.563 17.6972C43.4677 17.7083 43.374 17.7299 43.2835 17.7614C42.9546 17.8796 42.6502 18.0569 42.3851 18.2845C41.2494 19.2246 40.3861 20.4516 39.8848 21.8381C39.8742 21.8673 39.8599 21.8952 39.847 21.9206L39.847 21.9206L39.847 21.9206L39.847 21.9206L39.8469 21.9207L39.8468 21.921C39.8412 21.9319 39.8359 21.9424 39.8312 21.9523C39.6837 21.8685 39.5384 21.7835 39.3938 21.6989L39.3938 21.6989L39.3938 21.6988L39.3937 21.6988L39.3936 21.6987C39.0664 21.5073 38.7431 21.3182 38.4088 21.1514C37.9208 20.9059 37.4192 20.6884 36.9064 20.5002C36.3977 20.3186 35.8791 20.1663 35.353 20.044C34.9869 19.957 34.6153 19.8932 34.2411 19.8289L34.241 19.8289C34.0764 19.8006 33.9113 19.7722 33.7459 19.7418C33.8876 19.2482 33.9765 18.741 34.0112 18.2287C34.0813 17.3893 34.0269 16.5441 33.8499 15.7206C33.7722 15.3312 33.6375 14.9554 33.45 14.6053C33.3493 14.3989 33.1963 14.2225 33.0062 14.0937C32.9162 14.032 32.8094 13.9993 32.7003 14C32.5912 14.0008 32.4849 14.035 32.3958 14.098C32.3063 14.1582 32.2254 14.2304 32.1554 14.3124C31.9699 14.542 31.8288 14.8041 31.7392 15.0854C31.554 15.6193 31.4404 16.1754 31.4014 16.7393C31.313 17.6801 31.3811 18.6291 31.603 19.5477C31.6114 19.5807 31.6178 19.6142 31.625 19.6525C31.6287 19.6719 31.6326 19.6925 31.6371 19.7149C29.4617 19.8348 27.3483 20.4833 25.4801 21.6041C25.4704 21.5954 25.4628 21.589 25.4567 21.584C25.4467 21.5756 25.4409 21.5708 25.4376 21.5647C25.4265 21.5435 25.4166 21.5216 25.408 21.4993C25.0133 20.561 24.4543 19.7007 23.7572 18.9588C23.3648 18.5331 22.938 18.1449 22.4144 17.8823C22.2759 17.8105 22.1298 17.7545 21.9788 17.7154C21.5001 17.5994 21.1723 17.8469 21.1385 18.3368C21.137 18.3585 21.1364 18.3802 21.1359 18.402C21.1355 18.4163 21.1351 18.4306 21.1345 18.4449C21.1177 18.8243 21.2124 19.1837 21.3379 19.536C21.7861 20.7949 22.5281 21.86 23.4869 22.7811C23.5188 22.8118 23.551 22.8422 23.5821 22.8716L23.5822 22.8717L23.5823 22.8718L23.5825 22.872ZM41.4089 42.2095C42.0853 41.5857 42.6958 40.894 43.2307 40.1453L43.2174 40.1002H43.0249C42.8234 40.1002 42.622 40.1006 42.4206 40.101C41.8771 40.1021 41.3335 40.1032 40.79 40.0965C40.7052 40.0922 40.6204 40.1067 40.5417 40.1387C40.4631 40.1708 40.3924 40.2198 40.3346 40.2821C37.755 42.8013 34.6747 43.8869 31.0939 43.5388C29.7759 43.4031 28.4948 43.0224 27.3167 42.4161C26.2031 41.8566 25.191 41.1147 24.3223 40.221C24.2876 40.1808 24.2443 40.1488 24.1956 40.1275C24.1469 40.1061 24.094 40.0958 24.0409 40.0975C23.4837 40.1012 22.9265 40.101 22.3692 40.1007H22.365C22.1246 40.1006 21.8842 40.1005 21.6439 40.1008C21.611 40.1008 21.5782 40.1041 21.5384 40.108L21.5383 40.1081L21.5381 40.1081C21.5173 40.1101 21.4946 40.1124 21.4689 40.1145C22.0934 40.9906 22.8196 41.7895 23.6324 42.4944C23.6248 42.5118 23.6155 42.5285 23.6046 42.5442C23.5832 42.5651 23.5612 42.5855 23.5393 42.6059C23.526 42.6182 23.5128 42.6305 23.4997 42.6429C22.6371 43.45 21.9511 44.4272 21.485 45.5127C21.3277 45.8573 21.2176 46.2215 21.1576 46.5956C21.1211 46.864 21.102 47.1346 21.2096 47.3948C21.2427 47.4823 21.298 47.5598 21.3699 47.6196C21.4419 47.6794 21.5282 47.7195 21.6203 47.736C21.787 47.7641 21.9584 47.7457 22.1154 47.6827C22.4504 47.5641 22.7607 47.3848 23.0309 47.1539C24.0515 46.3051 24.8562 45.2263 25.3792 44.0062C25.3964 43.967 25.4142 43.9279 25.4334 43.8856L25.4629 43.8204C27.3288 44.9448 29.4409 45.5968 31.616 45.7197C31.6191 45.7325 31.622 45.7421 31.6243 45.7498C31.628 45.7622 31.6302 45.7694 31.6289 45.7758C31.6211 45.8169 31.6113 45.8577 31.6007 45.8982C31.4778 46.3754 31.4043 46.8639 31.3815 47.3561C31.3395 48.0283 31.3742 48.703 31.4848 49.3673C31.5707 49.854 31.691 50.3313 31.9248 50.7702C32.0055 50.9244 32.1052 51.0678 32.2217 51.1971C32.5165 51.5176 32.8777 51.5149 33.1801 51.2027C33.2498 51.1362 33.3096 51.0602 33.3579 50.9769C33.477 50.7622 33.5827 50.5402 33.6744 50.3124C33.8669 49.7619 33.9801 49.1867 34.0105 48.6042C34.0914 47.675 34.0151 46.7387 33.7847 45.8348C33.7759 45.802 33.7698 45.7684 33.7629 45.7308L33.7629 45.7308C33.7594 45.7119 33.7557 45.6921 33.7515 45.6707C34.4779 45.5896 35.197 45.4527 35.9024 45.2613C36.5967 45.0683 37.2748 44.8212 37.9304 44.5223C38.5893 44.2147 39.2247 43.8589 39.8312 43.4578L39.8546 43.518L39.8753 43.5715L39.8861 43.6004C40.3852 44.9876 41.25 46.214 42.389 47.1499C42.6053 47.3215 42.8392 47.4696 43.0868 47.5918C43.2489 47.6696 43.4224 47.7211 43.6007 47.7442C43.7328 47.7676 43.869 47.7417 43.9833 47.6713C44.0975 47.6009 44.182 47.491 44.2206 47.3625C44.2514 47.2718 44.2705 47.1775 44.2775 47.0819C44.3002 46.7089 44.2431 46.3354 44.1101 45.9861C43.6103 44.554 42.7245 43.2878 41.5504 42.3273L41.4089 42.2095ZM40.097 28.7375H40.0971C40.2404 28.7406 40.3806 28.7435 40.5194 28.731C40.747 28.7104 40.91 28.7918 41.076 28.9448C41.7977 29.6098 42.5252 30.2687 43.2526 30.9277L43.2529 30.928L43.2533 30.9282L43.2536 30.9285C43.4918 31.1444 43.7301 31.3602 43.9682 31.5762C44.0005 31.6055 44.0332 31.6343 44.0699 31.6666L44.1285 31.7183C44.1473 31.7022 44.1658 31.6866 44.1838 31.6713C44.2216 31.6393 44.2579 31.6085 44.293 31.5766C45.288 30.6708 46.2822 29.7643 47.2757 28.857C47.3169 28.8145 47.3667 28.7814 47.4218 28.7598C47.4769 28.7383 47.536 28.7288 47.5951 28.7319C47.7671 28.7389 47.9394 28.7375 48.1162 28.736C48.1909 28.7354 48.2664 28.7348 48.343 28.7348V36.7421C48.212 36.7804 46.4526 36.788 46.2426 36.7468V32.6916L46.2018 32.6723L44.1319 34.56L42.0453 32.6803L42.0054 32.6948C42.0042 32.9252 42.0044 33.1555 42.0045 33.3859L42.0046 33.7103C42.0044 34.0467 42.0044 34.383 42.0046 34.7194V36.7615H39.9202C39.8812 36.6268 39.863 29.1878 39.9028 28.7348C39.9682 28.7348 40.0328 28.7362 40.0969 28.7375L40.097 28.7375H40.097ZM22.7405 28.744H20.6687V29.4672V30.1702C20.6689 30.4105 20.6689 30.6508 20.6686 30.8911C20.6684 31.0524 20.6679 31.2136 20.6674 31.3731L20.6668 31.5808C20.4427 31.6221 18.2423 31.6142 18.0927 31.571V28.7449H16V36.7451C16.1758 36.787 17.9445 36.7825 18.101 36.7358V33.7158H20.6687L20.6685 34.1872V34.1872V34.1872C20.6682 34.5406 20.668 34.8896 20.669 35.2386C20.6694 35.4033 20.6689 35.568 20.6684 35.7328V35.7329V35.733C20.6674 36.0759 20.6663 36.4191 20.674 36.7632H22.7477C22.7905 36.5691 22.7823 28.8771 22.7405 28.744ZM25.2238 36.7602V28.7677C25.3467 28.7275 29.9008 28.7118 30.1985 28.7522V30.4555C30.1775 30.457 30.1563 30.4589 30.1349 30.4609C30.0884 30.4651 30.0411 30.4695 29.9939 30.4695C29.1829 30.4705 28.3718 30.4708 27.5608 30.4702H27.3353V31.795H29.8694V33.5574H27.3579C27.3159 33.7083 27.3043 34.7594 27.3385 35.0504C27.3585 35.0517 27.379 35.0535 27.3999 35.0553C27.4457 35.0592 27.4929 35.0633 27.5402 35.0634C28.3513 35.0643 29.1623 35.0645 29.9733 35.064H30.199V36.7602H25.2238ZM32.5803 28.7446C32.5426 28.8902 32.5349 36.5488 32.5729 36.7633L37.5455 36.7633V34.6661H37.3245C36.5074 34.6665 35.6904 34.6664 34.8733 34.6656C34.8267 34.6656 34.7801 34.6626 34.7278 34.6592C34.7017 34.6575 34.6742 34.6558 34.6445 34.6542V28.7446H32.5803Z" fill="url(#paint1_linear_109_605)"/>
</g>
<defs>
<filter id="filter0_d_109_605" x="-44" y="-11" width="130" height="130" filterUnits="userSpaceOnUse" color-interpolation-filters="sRGB">
<feFlood flood-opacity="0" result="BackgroundImageFix"/>
<feColorMatrix in="SourceAlpha" type="matrix" values="0 0 0 0 0 0 0 0 0 0 0 0 0 0 0 0 0 0 127 0" result="hardAlpha"/>
<feOffset dx="-11" dy="22"/>
<feGaussianBlur stdDeviation="16.5"/>
<feComposite in2="hardAlpha" operator="out"/>
<feColorMatrix type="matrix" values="0 0 0 0 0.026875 0 0 0 0 0.0384375 0 0 0 0 0.05 0 0 0 0.13 0"/>
<feBlend mode="normal" in2="BackgroundImageFix" result="effect1_dropShadow_109_605"/>
<feBlend mode="normal" in="SourceGraphic" in2="effect1_dropShadow_109_605" result="shape"/>
</filter>
<linearGradient id="paint0_linear_109_605" x1="2.23192e-06" y1="-16.7956" x2="75.4987" y2="19.8672" gradientUnits="userSpaceOnUse">
<stop stop-color="#8B99DC"/>
<stop offset="1" stop-color="#EDD1FE"/>
</linearGradient>
<linearGradient id="paint1_linear_109_605" x1="16" y1="4.17532" x2="56.0944" y2="20.9961" gradientUnits="userSpaceOnUse">
<stop stop-color="#8B99DC"/>
<stop offset="1" stop-color="#EDD1FE"/>
</linearGradient>
<clipPath id="clip0_109_605">
<rect width="64" height="64" fill="white"/>
</clipPath>
</defs>
</svg>
