<svg width="64" height="64" viewBox="0 0 64 64" fill="none" xmlns="http://www.w3.org/2000/svg">
<g clip-path="url(#clip0_109_592)">
<g filter="url(#filter0_d_109_592)">
<path fill-rule="evenodd" clip-rule="evenodd" d="M1.93939 32C1.93939 48.602 15.398 62.0606 32 62.0606C48.602 62.0606 62.0606 48.602 62.0606 32C62.0606 15.398 48.602 1.93939 32 1.93939C15.398 1.93939 1.93939 15.398 1.93939 32ZM32 0C14.3269 0 0 14.3269 0 32C0 49.6731 14.3269 64 32 64C49.6731 64 64 49.6731 64 32C64 14.3269 49.6731 0 32 0Z" fill="url(#paint0_linear_109_592)"/>
</g>
<path d="M49.9975 35.3719C49.9418 35.3719 49.8861 35.3719 49.8861 35.3178C49.8861 35.2637 49.7747 35.2637 49.6633 35.2637C49.4406 35.2096 49.2178 35.2096 48.995 35.2096C48.8836 35.2096 48.7722 35.2096 48.6608 35.1556H48.6051C47.9925 35.1015 47.3242 34.9933 46.7115 34.8311C46.5444 34.777 46.3774 34.6148 46.3217 34.4525C46.3774 34.4525 46.3217 34.4525 46.3217 34.4525L45.8761 34.3444C46.0989 32.7761 45.9875 31.1537 45.6533 29.5853C45.2635 28.017 44.5951 26.5028 43.704 25.1508L44.0382 24.8263V24.7722C44.0382 24.61 44.0939 24.3937 44.2053 24.2855C44.7065 23.8529 45.2078 23.5284 45.7647 23.2039C45.8761 23.1499 45.9875 23.0958 46.0989 23.0417C46.3217 22.9335 46.4888 22.8254 46.7115 22.7172C46.7672 22.6631 46.8229 22.6631 46.8786 22.6091C46.9343 22.555 46.8786 22.555 46.8786 22.5009C47.3799 22.1223 47.4913 21.4734 47.1014 20.9867C46.9343 20.7703 46.6001 20.6081 46.3217 20.6081C46.0432 20.6081 45.7647 20.7163 45.542 20.8785L45.4863 20.9326C45.4306 20.9867 45.3749 21.0407 45.3192 21.0407C45.1521 21.203 44.985 21.3652 44.8736 21.5275C44.8179 21.6356 44.7065 21.6897 44.6508 21.7438C44.261 22.1764 43.7597 22.6091 43.2585 22.9335C43.1471 22.9876 43.0357 23.0417 42.9243 23.0417C42.8686 23.0417 42.7572 23.0417 42.7015 22.9876H42.6458L42.2003 23.258C41.7547 22.8254 41.2535 22.3927 40.8079 21.9601C38.7472 20.3918 36.1853 19.4183 33.5677 19.1479L33.512 18.7153V18.7694C33.3449 18.6612 33.2892 18.499 33.2335 18.3367C33.2335 17.7419 33.2335 17.147 33.3449 16.498V16.444C33.3449 16.3358 33.4006 16.2276 33.4006 16.1195C33.4563 15.9032 33.4563 15.6868 33.512 15.4705V15.146C33.5677 14.6052 33.1221 14.0644 32.5652 14.0104C32.231 13.9563 31.8968 14.1185 31.6184 14.3889C31.3956 14.6052 31.2842 14.8756 31.2842 15.146V15.4164C31.2842 15.6328 31.3399 15.8491 31.3956 16.0654C31.4513 16.1736 31.4513 16.2817 31.4513 16.3899V16.444C31.5627 17.0388 31.5627 17.6337 31.5627 18.2827C31.507 18.4449 31.4513 18.6071 31.2842 18.7153V18.8235L31.2285 19.2561C30.6159 19.3102 30.0032 19.4183 29.3349 19.5265C26.7173 20.0673 24.3224 21.4193 22.4845 23.3121L22.1503 23.0958H22.0946C22.0389 23.0958 21.9833 23.1499 21.8719 23.1499C21.7605 23.1499 21.6491 23.0958 21.5377 23.0417C21.0365 22.6631 20.5352 22.2305 20.1453 21.7979C20.0896 21.6897 19.9783 21.6356 19.9226 21.5815C19.7555 21.4193 19.6441 21.2571 19.477 21.0948C19.4213 21.0407 19.3656 21.0407 19.3099 20.9867C19.2542 20.9326 19.2542 20.9326 19.2542 20.9326C19.0315 20.7703 18.753 20.6622 18.4745 20.6622C18.1403 20.6622 17.8619 20.7703 17.6948 21.0407C17.3606 21.5275 17.472 22.1764 17.9176 22.555C17.9733 22.555 17.9733 22.6091 17.9733 22.6091C17.9733 22.6091 18.0847 22.7172 18.1403 22.7172C18.3074 22.8254 18.5302 22.9335 18.753 23.0417C18.8644 23.0958 18.9758 23.1499 19.0871 23.2039C19.6441 23.5284 20.201 23.8529 20.6466 24.2855C20.758 24.3937 20.8694 24.61 20.8137 24.7722V24.7182L21.1478 25.0426C21.0921 25.1508 21.0365 25.2049 20.9808 25.313C19.2542 27.963 18.5302 31.0996 19.0315 34.1821L18.5859 34.2903C18.5859 34.3444 18.5302 34.3444 18.5302 34.3444C18.4745 34.5066 18.3074 34.6148 18.1403 34.7229C17.5277 34.8852 16.9151 34.9933 16.2467 35.0474C16.1353 35.0474 16.024 35.0474 15.9126 35.1015C15.6898 35.1015 15.467 35.1556 15.2442 35.1556C15.1885 35.1556 15.1329 35.2096 15.0215 35.2096C14.9658 35.2096 14.9658 35.2096 14.9101 35.2637C14.2974 35.3719 13.9076 35.9127 14.019 36.5076C14.1304 36.9943 14.6316 37.3188 15.1329 37.2647C15.2442 37.2647 15.2999 37.2647 15.4113 37.2106C15.467 37.2106 15.467 37.2106 15.467 37.1565C15.467 37.1024 15.6341 37.1565 15.6898 37.1565C15.9126 37.1024 16.1354 36.9943 16.3024 36.9402C16.4138 36.8861 16.5252 36.832 16.6366 36.832H16.6923C17.3049 36.6157 17.8619 36.4535 18.5302 36.3453H18.5859C18.753 36.3453 18.9201 36.3994 19.0315 36.5076C19.0871 36.5076 19.0871 36.5616 19.0871 36.5616L19.5884 36.5076C20.4238 38.9952 21.9833 41.2125 24.1553 42.8349C24.6566 43.2135 25.1021 43.5379 25.6591 43.8083L25.3806 44.1869C25.3806 44.241 25.4363 44.241 25.4363 44.241C25.5477 44.4032 25.5477 44.6195 25.492 44.7818C25.2692 45.3226 24.9351 45.8634 24.6009 46.3501V46.4042C24.5452 46.5123 24.4895 46.5664 24.3781 46.6746C24.2667 46.7827 24.1553 46.999 23.9882 47.2154C23.9326 47.2694 23.9326 47.3235 23.8769 47.3776C23.8769 47.3776 23.8769 47.4317 23.8212 47.4317C23.5427 47.9725 23.7655 48.6214 24.2667 48.8918C24.3781 48.9459 24.5452 49 24.6566 49C25.1021 49 25.492 48.7296 25.7148 48.351C25.7148 48.351 25.7148 48.297 25.7705 48.297C25.7705 48.2429 25.8262 48.1888 25.8819 48.1347C25.9376 47.9184 26.0489 47.7562 26.1046 47.5398L26.216 47.2154C26.3831 46.6205 26.6616 46.0797 26.94 45.5389C27.0514 45.3767 27.2185 45.2685 27.3856 45.2144C27.4413 45.2144 27.4413 45.2144 27.4413 45.1603L27.6641 44.7277C29.2235 45.3226 30.8387 45.593 32.5095 45.593C33.512 45.593 34.5145 45.4848 35.517 45.2144C36.1296 45.1063 36.7422 44.8899 37.2992 44.7277L37.522 45.1063C37.5777 45.1063 37.5777 45.1063 37.5777 45.1603C37.7447 45.2144 37.9118 45.3226 38.0232 45.4848C38.3017 46.0256 38.5802 46.5664 38.7472 47.1613V47.2154L38.8586 47.5398C38.9143 47.7562 38.97 47.9725 39.0814 48.1347C39.1371 48.1888 39.1371 48.2429 39.1928 48.297C39.1928 48.297 39.1928 48.351 39.2485 48.351C39.4713 48.7296 39.8611 49 40.3067 49C40.4738 49 40.5852 48.9459 40.7522 48.8918C40.975 48.7837 41.1978 48.5674 41.2535 48.297C41.3092 48.0266 41.3092 47.7562 41.1978 47.4858C41.1978 47.4317 41.1421 47.4317 41.1421 47.4317C41.1421 47.3776 41.0864 47.3235 41.0307 47.2694C40.9193 47.0531 40.8079 46.8909 40.6409 46.7286C40.5852 46.6205 40.5295 46.5664 40.4181 46.4582V46.3501C40.0282 45.8634 39.7497 45.3226 39.527 44.7818C39.4713 44.6195 39.4713 44.4032 39.5827 44.241C39.5827 44.1869 39.6384 44.1869 39.6384 44.1869L39.4713 43.7543C42.3117 42.0778 44.4838 39.482 45.4863 36.3994L45.9318 36.4535C45.9875 36.4535 45.9875 36.3994 45.9875 36.3994C46.0989 36.2912 46.266 36.2372 46.4331 36.2372H46.4888C47.1014 36.3453 47.714 36.5076 48.271 36.7239H48.3267C48.4381 36.778 48.5494 36.832 48.6608 36.832C48.8836 36.9402 49.0507 37.0484 49.2735 37.1024C49.3292 37.1024 49.3849 37.1565 49.4962 37.1565C49.5519 37.1565 49.5519 37.1565 49.6076 37.2106C49.719 37.2647 49.7747 37.2647 49.8861 37.2647C50.3874 37.2647 50.8329 36.9402 51 36.5076C50.9443 35.9127 50.4987 35.48 49.9975 35.3719V35.3719ZM33.9018 33.6954L32.3981 34.3985L30.8943 33.6954L30.5045 32.1271L31.5627 30.8292H33.2335L34.2917 32.1271L33.9018 33.6954V33.6954ZM42.98 30.1802C43.2585 31.3159 43.3142 32.4516 43.2028 33.5873L37.9118 32.1271C37.4106 32.0189 37.1321 31.5322 37.2435 31.0455C37.2992 30.8833 37.3549 30.7751 37.4663 30.6669L41.6433 26.9895C42.256 27.963 42.7015 29.0445 42.98 30.1802V30.1802ZM39.9725 24.9886L35.4056 28.1252C35.0157 28.3415 34.4588 28.2874 34.1803 27.9089C34.0689 27.8007 34.0132 27.6926 34.0132 27.5303L33.6791 22.0683C36.1296 22.3387 38.3017 23.3662 39.9725 24.9886V24.9886ZM29.8918 22.2305L31.0057 22.0142L30.7273 27.4222C30.7273 27.9089 30.2817 28.2874 29.7805 28.2874C29.6134 28.2874 29.502 28.2334 29.3349 28.1793L24.7123 24.9886C26.1603 23.6366 27.9425 22.6631 29.8918 22.2305ZM23.0971 26.9895L27.2185 30.5588C27.6084 30.8833 27.6641 31.4241 27.3299 31.8026C27.2185 31.9649 27.1071 32.0189 26.8844 32.073L21.482 33.5873C21.3149 31.3159 21.8719 28.9905 23.0971 26.9895V26.9895ZM22.1503 36.129L27.6641 35.2096C28.1096 35.2096 28.5552 35.48 28.6109 35.9127C28.6666 36.0749 28.6666 36.2912 28.5552 36.4535L26.4388 41.4288C24.4895 40.185 22.9301 38.2922 22.1503 36.129V36.129ZM34.7929 42.8349C34.0132 42.9971 33.2335 43.1053 32.3981 43.1053C31.2285 43.1053 30.0032 42.889 28.8894 42.5645L31.6184 37.7514C31.8968 37.4269 32.3424 37.3188 32.7323 37.5351C32.8993 37.6432 33.0107 37.7514 33.1778 37.9136L35.8511 42.6186C35.517 42.6727 35.1828 42.7267 34.7929 42.8349V42.8349ZM41.5877 38.13C40.7522 39.4279 39.5827 40.5635 38.246 41.3747L36.0739 36.2912C35.9625 35.8586 36.1853 35.426 36.5752 35.2637C36.7423 35.2096 36.9093 35.1556 37.0764 35.1556L42.6458 36.0749C42.3674 36.832 42.0332 37.5351 41.5877 38.13Z" fill="url(#paint1_linear_109_592)"/>
</g>
<defs>
<filter id="filter0_d_109_592" x="-44" y="-11" width="130" height="130" filterUnits="userSpaceOnUse" color-interpolation-filters="sRGB">
<feFlood flood-opacity="0" result="BackgroundImageFix"/>
<feColorMatrix in="SourceAlpha" type="matrix" values="0 0 0 0 0 0 0 0 0 0 0 0 0 0 0 0 0 0 127 0" result="hardAlpha"/>
<feOffset dx="-11" dy="22"/>
<feGaussianBlur stdDeviation="16.5"/>
<feComposite in2="hardAlpha" operator="out"/>
<feColorMatrix type="matrix" values="0 0 0 0 0.026875 0 0 0 0 0.0384375 0 0 0 0 0.05 0 0 0 0.13 0"/>
<feBlend mode="normal" in2="BackgroundImageFix" result="effect1_dropShadow_109_592"/>
<feBlend mode="normal" in="SourceGraphic" in2="effect1_dropShadow_109_592" result="shape"/>
</filter>
<linearGradient id="paint0_linear_109_592" x1="2.23192e-06" y1="-16.7956" x2="75.4987" y2="19.8672" gradientUnits="userSpaceOnUse">
<stop stop-color="#8B99DC"/>
<stop offset="1" stop-color="#EDD1FE"/>
</linearGradient>
<linearGradient id="paint1_linear_109_592" x1="14" y1="4.81491" x2="56.6901" y2="26.7302" gradientUnits="userSpaceOnUse">
<stop stop-color="#8B99DC"/>
<stop offset="1" stop-color="#EDD1FE"/>
</linearGradient>
<clipPath id="clip0_109_592">
<rect width="64" height="64" fill="white"/>
</clipPath>
</defs>
</svg>
