<svg width="64" height="64" viewBox="0 0 64 64" fill="none" xmlns="http://www.w3.org/2000/svg">
<g clip-path="url(#clip0_227_117)">
<g filter="url(#filter0_d_227_117)">
<path fill-rule="evenodd" clip-rule="evenodd" d="M1.93939 32C1.93939 48.602 15.398 62.0606 32 62.0606C48.602 62.0606 62.0606 48.602 62.0606 32C62.0606 15.398 48.602 1.93939 32 1.93939C15.398 1.93939 1.93939 15.398 1.93939 32ZM32 0C14.3269 0 0 14.3269 0 32C0 49.6731 14.3269 64 32 64C49.6731 64 64 49.6731 64 32C64 14.3269 49.6731 0 32 0Z" fill="url(#paint0_linear_227_117)"/>
</g>
<path fill-rule="evenodd" clip-rule="evenodd" d="M30.4984 22C30.4984 21.4477 30.0507 21 29.4984 21C28.9461 21 28.4984 21.4477 28.4984 22V23.4281H21C20.4477 23.4281 20 23.8759 20 24.4281C20 24.9804 20.4477 25.4281 21 25.4281H28.4984V26.8562C28.4984 27.4085 28.9461 27.8562 29.4984 27.8562C30.0507 27.8562 30.4984 27.4085 30.4984 26.8562V22ZM34.3546 23.4281C33.8023 23.4281 33.3546 23.8759 33.3546 24.4281C33.3546 24.9804 33.8023 25.4281 34.3546 25.4281H42.853C43.4053 25.4281 43.853 24.9804 43.853 24.4281C43.853 23.8759 43.4053 23.4281 42.853 23.4281H34.3546ZM36.7828 28.2843C37.335 28.2843 37.7828 28.7321 37.7828 29.2843V34.1406C37.7828 34.6929 37.335 35.1406 36.7828 35.1406C36.2305 35.1406 35.7828 34.6929 35.7828 34.1406V32.7125H21C20.4477 32.7125 20 32.2648 20 31.7125C20 31.1602 20.4477 30.7125 21 30.7125H35.7828V29.2843C35.7828 28.7321 36.2305 28.2843 36.7828 28.2843ZM40.639 31.7125C40.639 31.1602 41.0867 30.7125 41.639 30.7125H42.853C43.4053 30.7125 43.853 31.1602 43.853 31.7125C43.853 32.2648 43.4053 32.7125 42.853 32.7125H41.639C41.0867 32.7125 40.639 32.2648 40.639 31.7125ZM25.6422 36.5687C25.6422 36.0164 25.1945 35.5687 24.6422 35.5687C24.0899 35.5687 23.6422 36.0164 23.6422 36.5687V37.9968H21C20.4477 37.9968 20 38.4445 20 38.9968C20 39.5491 20.4477 39.9968 21 39.9968H23.6422V41.4249C23.6422 41.9772 24.0899 42.4249 24.6422 42.4249C25.1945 42.4249 25.6422 41.9772 25.6422 41.4249V38.9968V36.5687ZM28.4984 38.9968C28.4984 38.4445 28.9461 37.9968 29.4984 37.9968H42.853C43.4053 37.9968 43.853 38.4445 43.853 38.9968C43.853 39.5491 43.4053 39.9968 42.853 39.9968H29.4984C28.9461 39.9968 28.4984 39.5491 28.4984 38.9968Z" fill="url(#paint1_linear_227_117)"/>
</g>
<defs>
<filter id="filter0_d_227_117" x="-44" y="-11" width="130" height="130" filterUnits="userSpaceOnUse" color-interpolation-filters="sRGB">
<feFlood flood-opacity="0" result="BackgroundImageFix"/>
<feColorMatrix in="SourceAlpha" type="matrix" values="0 0 0 0 0 0 0 0 0 0 0 0 0 0 0 0 0 0 127 0" result="hardAlpha"/>
<feOffset dx="-11" dy="22"/>
<feGaussianBlur stdDeviation="16.5"/>
<feComposite in2="hardAlpha" operator="out"/>
<feColorMatrix type="matrix" values="0 0 0 0 0.026875 0 0 0 0 0.0384375 0 0 0 0 0.05 0 0 0 0.13 0"/>
<feBlend mode="normal" in2="BackgroundImageFix" result="effect1_dropShadow_227_117"/>
<feBlend mode="normal" in="SourceGraphic" in2="effect1_dropShadow_227_117" result="shape"/>
</filter>
<linearGradient id="paint0_linear_227_117" x1="2.23192e-06" y1="-16.7956" x2="75.4987" y2="19.8672" gradientUnits="userSpaceOnUse">
<stop stop-color="#8B99DC"/>
<stop offset="1" stop-color="#EDD1FE"/>
</linearGradient>
<linearGradient id="paint1_linear_227_117" x1="20" y1="15.3774" x2="46.9089" y2="29.9255" gradientUnits="userSpaceOnUse">
<stop stop-color="#8B99DC"/>
<stop offset="1" stop-color="#EDD1FE"/>
</linearGradient>
<clipPath id="clip0_227_117">
<rect width="64" height="64" fill="white"/>
</clipPath>
</defs>
</svg>
