<svg width="64" height="64" viewBox="0 0 64 64" fill="none" xmlns="http://www.w3.org/2000/svg">
<g clip-path="url(#clip0_109_590)">
<g filter="url(#filter0_d_109_590)">
<path fill-rule="evenodd" clip-rule="evenodd" d="M1.93939 32C1.93939 48.602 15.398 62.0606 32 62.0606C48.602 62.0606 62.0606 48.602 62.0606 32C62.0606 15.398 48.602 1.93939 32 1.93939C15.398 1.93939 1.93939 15.398 1.93939 32ZM32 0C14.3269 0 0 14.3269 0 32C0 49.6731 14.3269 64 32 64C49.6731 64 64 49.6731 64 32C64 14.3269 49.6731 0 32 0Z" fill="url(#paint0_linear_109_590)"/>
</g>
<path fill-rule="evenodd" clip-rule="evenodd" d="M26.2293 34.1911C25.9379 33.8996 25.4382 34.0974 25.4382 34.5138H25.4278V37.4077V37.543C25.4278 37.7408 25.2508 37.9385 24.9802 37.9385H23.2313C23.0231 37.9385 22.7733 37.8553 22.7733 37.5534V24.3747C22.7733 24.1978 22.9191 24 23.2209 24H24.9698C25.1675 24 25.4174 24.1145 25.4174 24.4164V30.3603C25.4174 30.7871 25.9379 30.9953 26.2293 30.683C27.0479 29.8083 28.2562 28.5067 28.7716 27.9515L28.7722 27.9508L28.7728 27.9502C28.9252 27.786 29.0167 27.6874 29.0191 27.685C29.0503 27.6434 29.1024 27.6017 29.2273 27.5601C29.2898 27.5393 29.3522 27.5393 29.4355 27.5393H31.5799C32.0171 27.5393 32.142 28.0181 31.9442 28.268L28.8422 31.7344C28.3321 32.2757 28.28 32.4839 28.7276 33.0148L28.9358 33.223L32.8499 37.2307C33.0477 37.4805 32.9227 37.9698 32.4959 37.9698H30.133C30.0393 37.9698 29.956 37.9698 29.9039 37.949C29.7983 37.9138 29.7597 37.8711 29.7314 37.8399L29.7314 37.8399C29.7286 37.8368 29.7258 37.8338 29.7232 37.8309C29.7209 37.8285 29.7188 37.8262 29.7166 37.824L29.6572 37.7614C29.3002 37.3847 27.4156 35.3962 26.2293 34.1911ZM11 32.7544C11 29.8605 13.3422 27.5183 16.2361 27.5183C19.13 27.5183 21.4721 29.8605 21.4721 32.7544C21.4721 35.6483 19.13 37.9904 16.2361 37.9904C13.3422 37.9904 11 35.6483 11 32.7544ZM13.6128 32.7544C13.6128 34.2013 14.7891 35.3776 16.2361 35.3776C17.683 35.3776 18.8593 34.2013 18.8593 32.7544C18.8593 31.3074 17.683 30.1311 16.2361 30.1311C14.7891 30.1311 13.6128 31.3074 13.6128 32.7544ZM39.7203 37.4909L39.5329 35.7421C39.5121 35.5027 39.2831 35.3361 39.0437 35.3778C38.9083 35.3986 38.773 35.409 38.6377 35.409C37.2428 35.409 36.1081 34.316 36.0248 32.9315V32.7858V30.6414C36.0248 30.3603 36.233 30.1313 36.5141 30.1313H38.8563C39.0228 30.1313 39.2727 29.9856 39.2727 29.6837V28.0285C39.2727 27.7058 39.0645 27.5393 38.8771 27.5393H36.5141C36.2435 27.5393 36.0248 27.3415 36.0144 27.0709V24.4164C36.0144 24.2498 35.8895 24 35.5668 24H33.8284C33.6098 24 33.4016 24.1353 33.4016 24.406V32.9315C33.4745 35.7629 35.7958 38.0218 38.6377 38.0218C38.8771 38.0218 39.1061 38.001 39.3351 37.9698C39.585 37.9385 39.7515 37.7304 39.7203 37.4909ZM50.6296 32.7753C50.6296 34.7636 50.8586 35.2945 52.3368 35.2945C52.5138 35.2945 52.6387 35.4715 52.6387 35.6276V37.4909C52.6387 37.9921 51.637 37.9831 51.3495 37.9805C51.3325 37.9803 51.3179 37.9802 51.3063 37.9802C50.0675 37.9698 49.2764 37.4701 48.7871 36.7206C47.8711 37.5013 46.6844 37.9802 45.3832 37.9802C42.4893 37.9802 40.1471 35.638 40.1471 32.7441C40.1471 29.8502 42.4893 27.5081 45.3832 27.5081C46.32 27.5081 47.2048 27.7579 47.9648 28.1951V27.9765C47.9648 27.7058 48.2042 27.5289 48.4228 27.5289H50.1716C50.5047 27.5289 50.6296 27.8099 50.6296 27.9765V32.7545V32.7753ZM42.7703 32.7545C42.7703 34.2015 43.9466 35.3778 45.3936 35.3778C46.8301 35.3778 48.0064 34.2015 48.0168 32.7545C48.0168 31.3076 46.8405 30.1313 45.3936 30.1313C43.9466 30.1313 42.7703 31.3076 42.7703 32.7545Z" fill="url(#paint1_linear_109_590)"/>
</g>
<defs>
<filter id="filter0_d_109_590" x="-44" y="-11" width="130" height="130" filterUnits="userSpaceOnUse" color-interpolation-filters="sRGB">
<feFlood flood-opacity="0" result="BackgroundImageFix"/>
<feColorMatrix in="SourceAlpha" type="matrix" values="0 0 0 0 0 0 0 0 0 0 0 0 0 0 0 0 0 0 127 0" result="hardAlpha"/>
<feOffset dx="-11" dy="22"/>
<feGaussianBlur stdDeviation="16.5"/>
<feComposite in2="hardAlpha" operator="out"/>
<feColorMatrix type="matrix" values="0 0 0 0 0.026875 0 0 0 0 0.0384375 0 0 0 0 0.05 0 0 0 0.13 0"/>
<feBlend mode="normal" in2="BackgroundImageFix" result="effect1_dropShadow_109_590"/>
<feBlend mode="normal" in="SourceGraphic" in2="effect1_dropShadow_109_590" result="shape"/>
</filter>
<linearGradient id="paint0_linear_109_590" x1="2.23192e-06" y1="-16.7956" x2="75.4987" y2="19.8672" gradientUnits="userSpaceOnUse">
<stop stop-color="#8B99DC"/>
<stop offset="1" stop-color="#EDD1FE"/>
</linearGradient>
<linearGradient id="paint1_linear_109_590" x1="11" y1="20.3202" x2="30.712" y2="48.7458" gradientUnits="userSpaceOnUse">
<stop stop-color="#8B99DC"/>
<stop offset="1" stop-color="#EDD1FE"/>
</linearGradient>
<clipPath id="clip0_109_590">
<rect width="64" height="64" fill="white"/>
</clipPath>
</defs>
</svg>
