<svg width="64" height="64" viewBox="0 0 64 64" fill="none" xmlns="http://www.w3.org/2000/svg">
<g clip-path="url(#clip0_109_601)">
<g filter="url(#filter0_d_109_601)">
<path fill-rule="evenodd" clip-rule="evenodd" d="M1.93939 32C1.93939 48.602 15.398 62.0606 32 62.0606C48.602 62.0606 62.0606 48.602 62.0606 32C62.0606 15.398 48.602 1.93939 32 1.93939C15.398 1.93939 1.93939 15.398 1.93939 32ZM32 0C14.3269 0 0 14.3269 0 32C0 49.6731 14.3269 64 32 64C49.6731 64 64 49.6731 64 32C64 14.3269 49.6731 0 32 0Z" fill="url(#paint0_linear_109_601)"/>
</g>
<path fill-rule="evenodd" clip-rule="evenodd" d="M42.7032 15.2572C42.293 14.9129 41.6813 14.9664 41.3371 15.3767C40.9928 15.7869 41.0464 16.3986 41.4566 16.7428L46.6564 21.106C47.0667 21.4502 47.6783 21.3967 48.0226 20.9865C48.3668 20.5762 48.3133 19.9646 47.903 19.6203L42.7032 15.2572ZM22.6699 15.3772C23.0142 15.7874 22.9607 16.3991 22.5504 16.7433L17.3506 21.1065C16.9403 21.4507 16.3287 21.3972 15.9845 20.9869C15.6402 20.5767 15.6937 19.965 16.104 19.6208L21.3038 15.2576C21.7141 14.9134 22.3257 14.9669 22.6699 15.3772ZM19.3939 32.9697C19.3939 26.0075 25.0379 20.3636 32 20.3636C38.9621 20.3636 44.6061 26.0075 44.6061 32.9697C44.6061 39.9318 38.9621 45.5757 32 45.5757C25.0379 45.5757 19.3939 39.9318 19.3939 32.9697ZM32 18.4242C23.9668 18.4242 17.4545 24.9364 17.4545 32.9697C17.4545 41.0029 23.9668 47.5151 32 47.5151C40.0332 47.5151 46.5454 41.0029 46.5454 32.9697C46.5454 24.9364 40.0332 18.4242 32 18.4242ZM32.9697 24.4848C32.9697 23.9493 32.5355 23.5151 32 23.5151C31.4644 23.5151 31.0303 23.9493 31.0303 24.4848V32.9697C31.0303 33.5052 31.4644 33.9394 32 33.9394H40.4848C41.0204 33.9394 41.4545 33.5052 41.4545 32.9697C41.4545 32.4341 41.0204 32 40.4848 32H32.9697V24.4848Z" fill="url(#paint1_linear_109_601)"/>
</g>
<defs>
<filter id="filter0_d_109_601" x="-44" y="-11" width="130" height="130" filterUnits="userSpaceOnUse" color-interpolation-filters="sRGB">
<feFlood flood-opacity="0" result="BackgroundImageFix"/>
<feColorMatrix in="SourceAlpha" type="matrix" values="0 0 0 0 0 0 0 0 0 0 0 0 0 0 0 0 0 0 127 0" result="hardAlpha"/>
<feOffset dx="-11" dy="22"/>
<feGaussianBlur stdDeviation="16.5"/>
<feComposite in2="hardAlpha" operator="out"/>
<feColorMatrix type="matrix" values="0 0 0 0 0.026875 0 0 0 0 0.0384375 0 0 0 0 0.05 0 0 0 0.13 0"/>
<feBlend mode="normal" in2="BackgroundImageFix" result="effect1_dropShadow_109_601"/>
<feBlend mode="normal" in="SourceGraphic" in2="effect1_dropShadow_109_601" result="shape"/>
</filter>
<linearGradient id="paint0_linear_109_601" x1="2.23192e-06" y1="-16.7956" x2="75.4987" y2="19.8672" gradientUnits="userSpaceOnUse">
<stop stop-color="#8B99DC"/>
<stop offset="1" stop-color="#EDD1FE"/>
</linearGradient>
<linearGradient id="paint1_linear_109_601" x1="15.7576" y1="6.50524" x2="54.084" y2="25.1209" gradientUnits="userSpaceOnUse">
<stop stop-color="#8B99DC"/>
<stop offset="1" stop-color="#EDD1FE"/>
</linearGradient>
<clipPath id="clip0_109_601">
<rect width="64" height="64" fill="white"/>
</clipPath>
</defs>
</svg>
