<svg width="64" height="64" viewBox="0 0 64 64" fill="none" xmlns="http://www.w3.org/2000/svg">
<g clip-path="url(#clip0_109_603)">
<g filter="url(#filter0_d_109_603)">
<path fill-rule="evenodd" clip-rule="evenodd" d="M1.93939 32C1.93939 48.602 15.398 62.0606 32 62.0606C48.602 62.0606 62.0606 48.602 62.0606 32C62.0606 15.398 48.602 1.93939 32 1.93939C15.398 1.93939 1.93939 15.398 1.93939 32ZM32 0C14.3269 0 0 14.3269 0 32C0 49.6731 14.3269 64 32 64C49.6731 64 64 49.6731 64 32C64 14.3269 49.6731 0 32 0Z" fill="url(#paint0_linear_109_603)"/>
</g>
<path fill-rule="evenodd" clip-rule="evenodd" d="M31.4161 20.2261C31.7469 19.9246 32.2529 19.9246 32.5837 20.2261C35.2939 22.6961 38.8679 24.1946 42.7852 24.1946C43.0497 24.1946 43.3125 24.1877 43.5735 24.1743C43.9861 24.153 44.3564 24.4259 44.4582 24.8263C44.812 26.2183 45 27.6772 45 29.1795C45 37.2492 39.5784 44.0431 32.2197 45.9717C32.0757 46.0094 31.9243 46.0094 31.7803 45.9717C24.4216 44.0431 19 37.2492 19 29.1795C19 27.6771 19.188 26.2182 19.5419 24.8261C19.6437 24.4257 20.0139 24.1528 20.4265 24.1741C20.6875 24.1876 20.9504 24.1944 21.2148 24.1944C25.1321 24.1944 28.7059 22.696 31.4161 20.2261ZM31.9999 22.0157C29.0636 24.4592 25.3078 25.9277 21.2148 25.9277C21.1652 25.9277 21.1157 25.9275 21.0661 25.9271C20.8482 26.9755 20.7333 28.0634 20.7333 29.1795C20.7333 36.38 25.515 42.4301 32 44.2356C38.485 42.4301 43.2667 36.38 43.2667 29.1795C43.2667 28.0634 43.1519 26.9756 42.9339 25.9273C42.8844 25.9277 42.8348 25.9279 42.7852 25.9279C38.6921 25.9279 34.9362 24.4593 31.9999 22.0157Z" fill="url(#paint1_linear_109_603)"/>
</g>
<defs>
<filter id="filter0_d_109_603" x="-44" y="-11" width="130" height="130" filterUnits="userSpaceOnUse" color-interpolation-filters="sRGB">
<feFlood flood-opacity="0" result="BackgroundImageFix"/>
<feColorMatrix in="SourceAlpha" type="matrix" values="0 0 0 0 0 0 0 0 0 0 0 0 0 0 0 0 0 0 127 0" result="hardAlpha"/>
<feOffset dx="-11" dy="22"/>
<feGaussianBlur stdDeviation="16.5"/>
<feComposite in2="hardAlpha" operator="out"/>
<feColorMatrix type="matrix" values="0 0 0 0 0.026875 0 0 0 0 0.0384375 0 0 0 0 0.05 0 0 0 0.13 0"/>
<feBlend mode="normal" in2="BackgroundImageFix" result="effect1_dropShadow_109_603"/>
<feBlend mode="normal" in="SourceGraphic" in2="effect1_dropShadow_109_603" result="shape"/>
</filter>
<linearGradient id="paint0_linear_109_603" x1="2.23192e-06" y1="-16.7956" x2="75.4987" y2="19.8672" gradientUnits="userSpaceOnUse">
<stop stop-color="#8B99DC"/>
<stop offset="1" stop-color="#EDD1FE"/>
</linearGradient>
<linearGradient id="paint1_linear_109_603" x1="19" y1="13.1768" x2="49.6713" y2="28.071" gradientUnits="userSpaceOnUse">
<stop stop-color="#8B99DC"/>
<stop offset="1" stop-color="#EDD1FE"/>
</linearGradient>
<clipPath id="clip0_109_603">
<rect width="64" height="64" fill="white"/>
</clipPath>
</defs>
</svg>
