<svg width="64" height="64" viewBox="0 0 64 64" fill="none" xmlns="http://www.w3.org/2000/svg">
<g clip-path="url(#clip0_109_593)">
<g filter="url(#filter0_d_109_593)">
<path fill-rule="evenodd" clip-rule="evenodd" d="M1.93939 32C1.93939 48.602 15.398 62.0606 32 62.0606C48.602 62.0606 62.0606 48.602 62.0606 32C62.0606 15.398 48.602 1.93939 32 1.93939C15.398 1.93939 1.93939 15.398 1.93939 32ZM32 0C14.3269 0 0 14.3269 0 32C0 49.6731 14.3269 64 32 64C49.6731 64 64 49.6731 64 32C64 14.3269 49.6731 0 32 0Z" fill="url(#paint0_linear_109_593)"/>
</g>
<path fill-rule="evenodd" clip-rule="evenodd" d="M31.7102 24.4069C32.5616 24.4069 33.2545 25.0815 33.2545 25.9185C33.2545 26.7518 32.5616 27.43 31.7102 27.43C30.8588 27.43 30.1659 26.7554 30.1659 25.9185C30.1696 25.0851 30.8588 24.4069 31.7102 24.4069ZM17.8262 28.9343C17.8262 28.101 17.1333 27.4264 16.2819 27.4264C15.4305 27.4264 14.7376 28.1046 14.7376 28.9343C14.7376 29.7676 15.4305 30.4422 16.2819 30.4422C17.137 30.4422 17.8262 29.7676 17.8262 28.9343ZM13.197 30.4458C14.0484 30.4458 14.7413 31.1204 14.7413 31.9574C14.7413 32.7907 14.0521 33.4689 13.197 33.4689C12.3456 33.4689 11.6527 32.7943 11.6527 31.9574C11.6527 31.1241 12.3419 30.4458 13.197 30.4458ZM10.1084 33.4653C10.9598 33.4653 11.6527 34.1399 11.6527 34.9768C11.6527 35.8102 10.9598 36.4884 10.1084 36.4884C9.25699 36.4884 8.56409 35.8138 8.56409 34.9768C8.56409 34.1435 9.25699 33.4653 10.1084 33.4653ZM16.2819 33.4653C17.1333 33.4653 17.8262 34.1399 17.8262 34.9768C17.8262 35.8102 17.137 36.4884 16.2819 36.4884C15.4305 36.4884 14.7376 35.8138 14.7376 34.9768C14.7376 34.1435 15.4305 33.4653 16.2819 33.4653ZM20.9112 31.9574C20.9112 31.1204 20.2183 30.4458 19.3669 30.4458C18.5155 30.4458 17.8263 31.1241 17.8226 31.9574C17.8226 32.7943 18.5155 33.4689 19.3669 33.4689C20.222 33.4689 20.9112 32.7907 20.9112 31.9574ZM22.4518 27.4264C23.3032 27.4264 23.9961 28.101 23.9961 28.9343C23.9961 29.7676 23.3069 30.4422 22.4518 30.4422C21.6004 30.4422 20.9075 29.7676 20.9075 28.9343C20.9112 28.1046 21.6004 27.4264 22.4518 27.4264ZM23.9961 34.9768C23.9961 34.1399 23.3032 33.4653 22.4518 33.4653C21.6004 33.4653 20.9112 34.1435 20.9075 34.9768C20.9075 35.8138 21.6004 36.4884 22.4518 36.4884C23.3069 36.4884 23.9961 35.8102 23.9961 34.9768ZM25.5404 30.4458C26.3918 30.4458 27.0847 31.1204 27.0847 31.9574C27.0847 32.7907 26.3918 33.4689 25.5404 33.4689C24.689 33.4689 23.9961 32.7943 23.9961 31.9574C23.9961 31.1241 24.689 30.4458 25.5404 30.4458ZM30.1659 28.9343C30.1659 28.101 29.4766 27.4264 28.6252 27.4264C27.7739 27.4264 27.0846 28.1046 27.0846 28.9343C27.0846 29.7676 27.7739 30.4422 28.6252 30.4422C29.4766 30.4422 30.1659 29.7676 30.1659 28.9343ZM36.4758 36.4704C35.477 36.4704 34.6735 36.2215 34.069 35.7236C33.4683 35.2258 33.166 34.5656 33.1513 33.7323H35.359C35.3701 33.992 35.4696 34.2013 35.6502 34.36C35.8345 34.5223 36.1035 34.6017 36.4647 34.6017C36.7706 34.6017 37.0286 34.5368 37.2461 34.3997C37.4636 34.2662 37.5704 34.0678 37.5704 33.808C37.5704 33.7648 37.5667 33.7323 37.5631 33.7034C37.5594 33.6746 37.5409 33.6313 37.5078 33.5736C37.4746 33.5158 37.4304 33.4653 37.3714 33.4184C37.3161 33.3715 37.224 33.3174 37.1024 33.2561C36.9807 33.1912 36.837 33.1334 36.6638 33.0793L35.606 32.7258C35.2226 32.6212 34.8873 32.4877 34.5961 32.3218C34.3049 32.1594 34.0764 31.9899 33.9105 31.8131C33.7447 31.6399 33.6083 31.4451 33.5051 31.2359C33.4019 31.0267 33.3356 30.8355 33.3024 30.6659C33.2692 30.4964 33.2545 30.3196 33.2545 30.1356C33.2545 29.3384 33.5567 28.689 34.1538 28.1876C34.7509 27.6861 35.5064 27.4372 36.4131 27.4372C37.3235 27.4372 38.0643 27.6825 38.6356 28.1731C39.2069 28.6638 39.4944 29.3384 39.4944 30.1897H37.3272C37.3272 29.9408 37.2498 29.7388 37.0987 29.5909C36.9476 29.443 36.7117 29.3672 36.3947 29.3672C36.0998 29.3672 35.8713 29.4286 35.6981 29.5584C35.5249 29.6847 35.4401 29.8578 35.4401 30.0707C35.4401 30.3918 35.7165 30.6335 36.262 30.7958L37.2977 31.1096C38.9599 31.6147 39.7892 32.5093 39.7855 33.7972C39.7855 34.1724 39.7192 34.5115 39.5865 34.8181C39.4538 35.1248 39.2769 35.3773 39.0558 35.5793C38.8383 35.7777 38.584 35.9473 38.2928 36.0844C38.0017 36.2215 37.7068 36.3189 37.4009 36.3802C37.0987 36.4415 36.7891 36.4704 36.4758 36.4704ZM41.4293 35.7236C42.0337 36.2215 42.8372 36.4704 43.836 36.4704C44.1493 36.4704 44.4589 36.4415 44.7611 36.3802C45.067 36.3189 45.3619 36.2215 45.653 36.0844C45.9442 35.9473 46.1985 35.7777 46.416 35.5793C46.6371 35.3773 46.814 35.1248 46.9467 34.8181C47.0794 34.5115 47.1457 34.1724 47.1457 33.7972C47.1494 32.5093 46.3201 31.6147 44.6579 31.1096L43.6222 30.7958C43.0768 30.6335 42.8003 30.3918 42.8003 30.0707C42.8003 29.8578 42.8851 29.6847 43.0583 29.5584C43.2316 29.4286 43.4638 29.3672 43.7549 29.3672C44.0719 29.3672 44.3078 29.443 44.4589 29.5909C44.61 29.7388 44.6874 29.9408 44.6874 30.1897H46.8546C46.8546 29.3384 46.5671 28.6638 45.9958 28.1731C45.4245 27.6825 44.6837 27.4372 43.7734 27.4372C42.8667 27.4372 42.1111 27.6861 41.514 28.1876C40.917 28.689 40.6147 29.3384 40.6147 30.1356C40.6147 30.3196 40.6295 30.4964 40.6627 30.6659C40.6958 30.8355 40.7622 31.0267 40.8654 31.2359C40.9686 31.4451 41.1049 31.6399 41.2708 31.8131C41.4366 31.9899 41.6652 32.1594 41.9563 32.3218C42.2475 32.4877 42.5829 32.6212 42.9662 32.7258L44.024 33.0793C44.1972 33.1334 44.341 33.1912 44.4626 33.2561C44.5842 33.3174 44.6763 33.3715 44.7316 33.4184C44.7906 33.4653 44.8348 33.5158 44.868 33.5736C44.9012 33.6313 44.9196 33.6746 44.9233 33.7034C44.927 33.7323 44.9307 33.7648 44.9307 33.808C44.9307 34.0678 44.8238 34.2662 44.6063 34.3997C44.3889 34.5368 44.1309 34.6017 43.825 34.6017C43.4638 34.6017 43.1947 34.5223 43.0104 34.36C42.8298 34.2013 42.7303 33.992 42.7193 33.7323H40.5115C40.5263 34.5656 40.8285 35.2258 41.4293 35.7236ZM50.0538 32.9206V36.3549H47.8719V27.5526H50.0538V31.0267H52.7923V27.5526H55V36.3549H52.7923V32.9206H50.0538Z" fill="url(#paint1_linear_109_593)"/>
</g>
<defs>
<filter id="filter0_d_109_593" x="-44" y="-11" width="130" height="130" filterUnits="userSpaceOnUse" color-interpolation-filters="sRGB">
<feFlood flood-opacity="0" result="BackgroundImageFix"/>
<feColorMatrix in="SourceAlpha" type="matrix" values="0 0 0 0 0 0 0 0 0 0 0 0 0 0 0 0 0 0 127 0" result="hardAlpha"/>
<feOffset dx="-11" dy="22"/>
<feGaussianBlur stdDeviation="16.5"/>
<feComposite in2="hardAlpha" operator="out"/>
<feColorMatrix type="matrix" values="0 0 0 0 0.026875 0 0 0 0 0.0384375 0 0 0 0 0.05 0 0 0 0.13 0"/>
<feBlend mode="normal" in2="BackgroundImageFix" result="effect1_dropShadow_109_593"/>
<feBlend mode="normal" in="SourceGraphic" in2="effect1_dropShadow_109_593" result="shape"/>
</filter>
<linearGradient id="paint0_linear_109_593" x1="2.23192e-06" y1="-16.7956" x2="75.4987" y2="19.8672" gradientUnits="userSpaceOnUse">
<stop stop-color="#8B99DC"/>
<stop offset="1" stop-color="#EDD1FE"/>
</linearGradient>
<linearGradient id="paint1_linear_109_593" x1="8.56409" y1="21.2364" x2="23.6625" y2="49.417" gradientUnits="userSpaceOnUse">
<stop stop-color="#8B99DC"/>
<stop offset="1" stop-color="#EDD1FE"/>
</linearGradient>
<clipPath id="clip0_109_593">
<rect width="64" height="64" fill="white"/>
</clipPath>
</defs>
</svg>
