<svg width="64" height="64" viewBox="0 0 64 64" fill="none" xmlns="http://www.w3.org/2000/svg">
<g clip-path="url(#clip0_273_2135)">
<g filter="url(#filter0_d_273_2135)">
<path fill-rule="evenodd" clip-rule="evenodd" d="M1.93939 32C1.93939 48.602 15.398 62.0606 32 62.0606C48.602 62.0606 62.0606 48.602 62.0606 32C62.0606 15.398 48.602 1.93939 32 1.93939C15.398 1.93939 1.93939 15.398 1.93939 32ZM32 0C14.3269 0 0 14.3269 0 32C0 49.6731 14.3269 64 32 64C49.6731 64 64 49.6731 64 32C64 14.3269 49.6731 0 32 0Z" fill="url(#paint0_linear_273_2135)"/>
</g>
<path d="M32.0335 10C19.8447 10 10 19.8447 10 32.0335C10 44.1553 19.8447 54 32.0335 54C44.1553 54 54 44.1553 54 32.0335C54 19.8447 44.1553 10 32.0335 10ZM26.0061 44.1553C23.5951 40.4049 22.5906 39.3333 21.4521 37.6591C15.8935 29.4886 21.3851 22.9254 24.3318 20.9163C28.618 17.9696 36.4536 17.2998 40.9406 23.6621C41.4094 24.3318 41.1416 25.3364 40.4718 25.8052C39.8021 26.274 38.7306 26.3409 38.1948 25.5373C35.9178 22.1218 30.3592 20.8493 26.4079 23.5282C22.4566 26.207 21.0502 31.3638 24.1309 35.516C26.7428 39.1324 27.8143 40.6058 28.8858 42.2801C30.0913 44.3562 27.4125 46.1644 26.0061 44.1553ZM34.3775 44.9589C34.0426 45.1598 32.8371 45.6956 32.0335 44.3562C31.2298 43.0167 31.2968 43.1507 30.6271 41.9452C29.9574 40.7397 30.895 39.8691 31.2298 39.6682C31.5647 39.4673 32.7032 38.8645 33.5068 40.2709C33.5068 40.2709 34.1766 41.4094 34.9132 42.6819C35.7169 43.8874 34.7793 44.758 34.3775 44.9589ZM36.9893 42.414C34.9802 38.9315 33.7747 36.6545 29.9574 31.6986C28.7519 30.1583 31.3638 28.0822 32.7032 29.8234C35.449 33.3059 38.5297 38.1948 39.8021 40.4718C40.9406 42.7489 38.0609 44.2222 36.9893 42.414ZM40.8737 38.9315C39.6682 36.9224 35.9178 30.4262 33.3059 28.0152C31.0289 25.8721 26.8097 28.7519 27.8813 31.6986C28.2161 32.6362 29.6895 34.5114 30.6271 35.7839C32.1005 37.726 29.2207 39.3333 27.8813 37.6591C26.5419 35.9848 26.207 35.382 25.2024 33.7078C24.3318 32.2344 23.6621 27.7473 27.2785 25.3364C30.895 22.8584 34.8463 24.3988 36.1857 26.0731C37.5251 27.7473 41.5434 33.105 43.6865 37.2572C44.758 38.9985 42.0122 40.8737 40.8737 38.9315ZM45.0928 32.5023C44.758 32.7702 43.6195 33.3059 42.7489 32.0335C41.8782 30.761 41.9452 30.895 41.2085 29.7565C40.4049 28.618 41.3425 27.6804 41.6773 27.4125C42.0122 27.2116 43.0837 26.5419 44.0213 27.8813C44.0213 27.8813 44.758 28.9528 45.5616 30.1583C46.3653 31.3638 45.4277 32.3014 45.0928 32.5023Z" fill="url(#paint1_linear_273_2135)"/>
</g>
<defs>
<filter id="filter0_d_273_2135" x="-44" y="-11" width="130" height="130" filterUnits="userSpaceOnUse" color-interpolation-filters="sRGB">
<feFlood flood-opacity="0" result="BackgroundImageFix"/>
<feColorMatrix in="SourceAlpha" type="matrix" values="0 0 0 0 0 0 0 0 0 0 0 0 0 0 0 0 0 0 127 0" result="hardAlpha"/>
<feOffset dx="-11" dy="22"/>
<feGaussianBlur stdDeviation="16.5"/>
<feComposite in2="hardAlpha" operator="out"/>
<feColorMatrix type="matrix" values="0 0 0 0 0.026875 0 0 0 0 0.0384375 0 0 0 0 0.05 0 0 0 0.13 0"/>
<feBlend mode="normal" in2="BackgroundImageFix" result="effect1_dropShadow_273_2135"/>
<feBlend mode="normal" in="SourceGraphic" in2="effect1_dropShadow_273_2135" result="shape"/>
</filter>
<linearGradient id="paint0_linear_273_2135" x1="2.23192e-06" y1="-16.7956" x2="75.4987" y2="19.8672" gradientUnits="userSpaceOnUse">
<stop stop-color="#8B99DC"/>
<stop offset="1" stop-color="#EDD1FE"/>
</linearGradient>
<linearGradient id="paint1_linear_273_2135" x1="10" y1="-1.54696" x2="61.9053" y2="23.6587" gradientUnits="userSpaceOnUse">
<stop stop-color="#8B99DC"/>
<stop offset="1" stop-color="#EDD1FE"/>
</linearGradient>
<clipPath id="clip0_273_2135">
<rect width="64" height="64" fill="white"/>
</clipPath>
</defs>
</svg>
