<svg width="33" height="32" viewBox="0 0 33 32" fill="none" xmlns="http://www.w3.org/2000/svg">
<path d="M16.5244 0C7.65982 0 0.5 7.15982 0.5 16.0244C0.5 24.8402 7.65982 32 16.5244 32C25.3402 32 32.5 24.8402 32.5 16.0244C32.5 7.15982 25.3402 0 16.5244 0ZM12.1408 24.8402C10.3874 22.1126 9.65677 21.3333 8.82877 20.1157C4.78615 14.1735 8.78006 9.4003 10.9231 7.93912C14.0403 5.79604 19.739 5.30898 23.0023 9.93607C23.3432 10.4231 23.1484 11.1537 22.6613 11.4947C22.1743 11.8356 21.395 11.8843 21.0053 11.2998C19.3493 8.81583 15.3067 7.89041 12.433 9.83866C9.55936 11.7869 8.53653 15.5373 10.777 18.5571C12.6766 21.1872 13.4559 22.2588 14.2352 23.4764C15.1119 24.9863 13.1636 26.3014 12.1408 24.8402ZM18.2291 25.4247C17.9855 25.5708 17.1088 25.9604 16.5244 24.9863C15.9399 24.0122 15.9886 24.1096 15.5015 23.2329C15.0145 22.3562 15.6963 21.723 15.9399 21.5769C16.1834 21.4307 17.0114 20.9924 17.5959 22.0152C17.5959 22.0152 18.083 22.8432 18.6187 23.7686C19.2032 24.6454 18.5213 25.2785 18.2291 25.4247ZM20.1286 23.5738C18.6674 21.0411 17.7907 19.3851 15.0145 15.7808C14.1377 14.6606 16.0373 13.1507 17.0114 14.417C19.0084 16.9498 21.2489 20.5053 22.1743 22.1613C23.0023 23.8174 20.9079 24.8889 20.1286 23.5738ZM22.9536 21.0411C22.0769 19.5799 19.3493 14.8554 17.4498 13.102C15.7938 11.5434 12.7253 13.6377 13.5046 15.7808C13.7481 16.4627 14.8196 17.8265 15.5015 18.7519C16.5731 20.1644 14.4787 21.3333 13.5046 20.1157C12.5304 18.898 12.2869 18.4597 11.5563 17.242C10.9231 16.1705 10.4361 12.9072 13.0662 11.1537C15.6963 9.3516 18.57 10.4718 19.5441 11.6895C20.5183 12.9072 23.4406 16.8037 24.9992 19.8234C25.7785 21.0898 23.7816 22.4536 22.9536 21.0411ZM26.0221 16.3653C25.7785 16.5601 24.9505 16.9498 24.3174 16.0244C23.6842 15.0989 23.7329 15.1963 23.1971 14.3683C22.6126 13.5403 23.2806 12.8373 23.5381 12.6636C23.7955 12.4899 24.5609 12.0304 25.2428 13.0046C25.2428 13.0046 25.7785 13.7839 26.363 14.6606C26.9475 15.5373 26.2656 16.2192 26.0221 16.3653Z" fill="#D5D8DE"/>
</svg>
