<svg width="55" height="22" viewBox="0 0 55 22" xmlns="http://www.w3.org/2000/svg">
<path d="M3.20795 0.587511C1.89195 0.587511 0.799946 1.67951 0.799946 2.96751C0.799946 4.28351 1.89195 5.37551 3.20795 5.37551C4.52395 5.37551 5.61595 4.28351 5.61595 2.96751C5.61595 1.67951 4.52395 0.587511 3.20795 0.587511ZM1.24795 7.25151V20.9995H5.19595V7.25151H1.24795ZM14.8619 6.97151C13.3219 6.97151 11.8659 7.69951 11.1099 8.87551V7.25151H7.16185V20.9995H11.1099V12.4595C11.6699 11.5075 12.7619 10.8915 13.8539 10.8915C15.4779 10.8915 16.5139 11.9835 16.5139 13.8875V20.9995H20.4619V13.2155C20.4619 9.35151 18.3339 6.97151 14.8619 6.97151ZM27.2011 6.43951C27.2011 5.17951 28.1811 4.33951 29.3291 4.33951C29.7211 4.33951 30.2811 4.45151 30.5611 4.53551L30.7571 1.06351C30.2531 0.811511 29.4691 0.64351 28.7411 0.64351C25.5211 0.64351 23.2531 2.68751 23.2531 6.24351V7.25151H20.7051V11.0035H23.2531V20.9995H27.2011V11.0035H30.5891V7.25151H27.2011V6.43951ZM39.0385 6.97151C37.8905 6.97151 36.4065 7.69951 35.7345 8.87551V7.25151H31.7865V20.9995H35.7345V12.6835C36.4065 11.3395 37.8345 10.6115 38.7305 10.6115C39.2905 10.6115 39.9625 10.7235 40.4945 10.9195L40.7185 7.22351C40.2985 7.05551 39.7385 6.97151 39.0385 6.97151ZM50.6469 7.25151V8.87551C49.9749 7.75551 48.2949 6.97151 46.5869 6.97151C43.0029 6.97151 40.1749 10.1355 40.1749 14.1115C40.1749 18.0875 43.0029 21.2795 46.5869 21.2795C48.3229 21.2795 49.9749 20.4955 50.6469 19.3755V20.9995H54.5949V7.25151H50.6469ZM47.4549 17.5275C45.5229 17.5275 44.0389 16.0715 44.0389 14.1115C44.0389 12.1515 45.5229 10.6955 47.4549 10.6955C48.8269 10.6955 50.0589 11.4515 50.6469 12.4595V15.8195C50.0589 16.7995 48.8269 17.5275 47.4549 17.5275Z"/>
</svg>
