<svg width="29" height="29" viewBox="0 0 29 29" fill="none" xmlns="http://www.w3.org/2000/svg">
<path fill-rule="evenodd" clip-rule="evenodd" d="M14.5 0C6.48875 0 0 6.48875 0 14.5C0 20.9162 4.15062 26.3356 9.91437 28.2569C10.6394 28.3838 10.9112 27.9488 10.9112 27.5681C10.9112 27.2238 10.8931 26.0819 10.8931 24.8675C7.25 25.5381 6.3075 23.9794 6.0175 23.1637C5.85437 22.7469 5.1475 21.46 4.53125 21.1156C4.02375 20.8437 3.29875 20.1731 4.51313 20.155C5.655 20.1369 6.47063 21.2062 6.7425 21.6412C8.0475 23.8344 10.1319 23.2181 10.9656 22.8375C11.0925 21.895 11.4731 21.2606 11.89 20.8981C8.66375 20.5356 5.2925 19.285 5.2925 13.7387C5.2925 12.1619 5.85438 10.8569 6.77875 9.84187C6.63375 9.47937 6.12625 7.99312 6.92375 5.99937C6.92375 5.99937 8.13813 5.61875 10.9112 7.48563C12.0712 7.15938 13.3038 6.99625 14.5363 6.99625C15.7688 6.99625 17.0013 7.15938 18.1613 7.48563C20.9344 5.60063 22.1488 5.99937 22.1488 5.99937C22.9463 7.99312 22.4388 9.47937 22.2938 9.84187C23.2181 10.8569 23.78 12.1437 23.78 13.7387C23.78 19.3031 20.3906 20.5356 17.1644 20.8981C17.69 21.3512 18.1431 22.2213 18.1431 23.5806C18.1431 25.52 18.125 27.0788 18.125 27.5681C18.125 27.9488 18.3969 28.4019 19.1219 28.2569C24.8494 26.3356 29 20.8981 29 14.5C29 6.48875 22.5113 0 14.5 0Z" fill="white"/>
</svg>
