<svg width="32" height="31" viewBox="0 0 32 31" fill="none" xmlns="http://www.w3.org/2000/svg">
<path d="M31.133 18.9294C31.0848 18.9294 31.0366 18.9294 31.0366 18.8815C31.0366 18.8336 30.9403 18.8336 30.844 18.8336C30.6513 18.7857 30.4586 18.7857 30.2659 18.7857C30.1696 18.7857 30.0733 18.7857 29.9769 18.7378H29.9288C29.3989 18.6899 28.8209 18.5941 28.2911 18.4504C28.1466 18.4025 28.002 18.2588 27.9539 18.1151C28.002 18.1151 27.9539 18.1151 27.9539 18.1151L27.5685 18.0193C27.7612 16.6302 27.6649 15.1932 27.3759 13.8042C27.0387 12.4151 26.4607 11.0739 25.69 9.87643L25.979 9.58903V9.54113C25.979 9.39743 26.0272 9.20584 26.1235 9.11004C26.557 8.72684 26.9905 8.43945 27.4722 8.15205C27.5685 8.10415 27.6649 8.05625 27.7612 8.00835C27.9539 7.91256 28.0984 7.81676 28.2911 7.72096C28.3392 7.67306 28.3874 7.67306 28.4356 7.62516C28.4837 7.57726 28.4356 7.57726 28.4356 7.52936C28.8691 7.19407 28.9654 6.61928 28.6282 6.18818C28.4837 5.99659 28.1947 5.85289 27.9539 5.85289C27.713 5.85289 27.4722 5.94869 27.2795 6.09238L27.2314 6.14028C27.1832 6.18818 27.135 6.23608 27.0869 6.23608C26.9423 6.37978 26.7978 6.52348 26.7015 6.66718C26.6533 6.76297 26.557 6.81087 26.5088 6.85877C26.1717 7.24197 25.7381 7.62516 25.3046 7.91256C25.2083 7.96046 25.112 8.00835 25.0156 8.00835C24.9675 8.00835 24.8711 8.00835 24.823 7.96045H24.7748L24.3894 8.19995C24.0041 7.81676 23.5706 7.43356 23.1852 7.05037C21.403 5.66129 19.1873 4.7991 16.9234 4.55961L16.8752 4.17641V4.22431C16.7307 4.12851 16.6826 3.98482 16.6344 3.84112C16.6344 3.31423 16.6344 2.78733 16.7307 2.21254V2.16464C16.7307 2.06885 16.7789 1.97305 16.7789 1.87725C16.8271 1.68565 16.8271 1.49405 16.8752 1.30246V1.01506C16.9234 0.53607 16.538 0.0570768 16.0564 0.00917758C15.7674 -0.0387217 15.4784 0.104976 15.2375 0.344472C15.0448 0.536069 14.9485 0.775566 14.9485 1.01506V1.25456C14.9485 1.44616 14.9967 1.63775 15.0448 1.82935C15.093 1.92515 15.093 2.02095 15.093 2.11675V2.16464C15.1893 2.69154 15.1893 3.21843 15.1893 3.79322C15.1412 3.93692 15.093 4.08061 14.9485 4.17641V4.27221L14.9003 4.65541C14.3705 4.70331 13.8406 4.7991 13.2626 4.8949C10.9987 5.37389 8.92749 6.57138 7.33795 8.24785L7.04894 8.05625H7.00077C6.9526 8.05625 6.90444 8.10415 6.8081 8.10415C6.71176 8.10415 6.61543 8.05625 6.51909 8.00835C6.08558 7.67306 5.65207 7.28987 5.31489 6.90667C5.26672 6.81087 5.17039 6.76297 5.12222 6.71507C4.97771 6.57138 4.88138 6.42768 4.73687 6.28398C4.6887 6.23608 4.64054 6.23608 4.59237 6.18818C4.5442 6.14028 4.5442 6.14028 4.5442 6.14028C4.35153 5.99659 4.11069 5.90079 3.86985 5.90079C3.58084 5.90079 3.34 5.99659 3.1955 6.23608C2.90649 6.66718 3.00282 7.24197 3.38817 7.57726C3.43634 7.57726 3.43634 7.62516 3.43634 7.62516C3.43634 7.62516 3.53267 7.72096 3.58084 7.72096C3.72534 7.81676 3.91802 7.91256 4.11069 8.00835C4.20702 8.05625 4.30336 8.10415 4.3997 8.15205C4.88138 8.43945 5.36306 8.72684 5.7484 9.11004C5.84474 9.20584 5.94107 9.39743 5.89291 9.54113V9.49323L6.18191 9.78063C6.13375 9.87643 6.08558 9.92432 6.03741 10.0201C4.5442 12.3672 3.91802 15.1453 4.35153 17.8756L3.96618 17.9714C3.96618 18.0193 3.91802 18.0193 3.91802 18.0193C3.86985 18.163 3.72534 18.2588 3.58084 18.3546C3.05099 18.4983 2.52114 18.5941 1.94313 18.642C1.84679 18.642 1.75045 18.642 1.65412 18.6899C1.46144 18.6899 1.26877 18.7378 1.0761 18.7378C1.02793 18.7378 0.979764 18.7857 0.883428 18.7857C0.83526 18.7857 0.83526 18.7857 0.787092 18.8336C0.257243 18.9294 -0.0799334 19.4084 0.0164027 19.9353C0.112739 20.3664 0.546251 20.6538 0.979764 20.6059C1.0761 20.6059 1.12427 20.6059 1.2206 20.558C1.26877 20.558 1.26877 20.558 1.26877 20.5101C1.26877 20.4622 1.41328 20.5101 1.46144 20.5101C1.65412 20.4622 1.84679 20.3664 1.99129 20.3185C2.08763 20.2706 2.18397 20.2227 2.2803 20.2227H2.32847C2.85832 20.0311 3.34 19.8874 3.91802 19.7916H3.96618C4.11069 19.7916 4.25519 19.8395 4.35153 19.9353C4.3997 19.9353 4.3997 19.9832 4.3997 19.9832L4.83321 19.9353C5.55573 22.1386 6.90444 24.1025 8.78299 25.5395C9.2165 25.8748 9.60185 26.1622 10.0835 26.4017L9.84269 26.737C9.84269 26.7849 9.89086 26.7849 9.89086 26.7849C9.98719 26.9286 9.98719 27.1202 9.93902 27.2639C9.74635 27.7428 9.45734 28.2218 9.16834 28.6529V28.7008C9.12017 28.7966 9.072 28.8445 8.97566 28.9403C8.87933 29.0361 8.78299 29.2277 8.63849 29.4193C8.59032 29.4672 8.59032 29.5151 8.54215 29.563C8.54215 29.563 8.54215 29.6109 8.49398 29.6109C8.25314 30.0899 8.44581 30.6647 8.87933 30.9042C8.97566 30.9521 9.12017 31 9.2165 31C9.60185 31 9.93902 30.7605 10.1317 30.4252C10.1317 30.4252 10.1317 30.3773 10.1799 30.3773C10.1799 30.3294 10.228 30.2815 10.2762 30.2336C10.3244 30.042 10.4207 29.8983 10.4689 29.7067L10.5652 29.4193C10.7097 28.8924 10.9506 28.4134 11.1914 27.9344C11.2877 27.7907 11.4322 27.695 11.5767 27.6471C11.6249 27.6471 11.6249 27.6471 11.6249 27.5992L11.8176 27.216C13.1663 27.7428 14.5632 27.9823 16.0082 27.9823C16.8752 27.9823 17.7422 27.8865 18.6093 27.6471C19.1391 27.5513 19.669 27.3597 20.1507 27.216L20.3433 27.5513C20.3915 27.5513 20.3915 27.5513 20.3915 27.5992C20.536 27.6471 20.6805 27.7429 20.7768 27.8865C21.0177 28.3655 21.2585 28.8445 21.403 29.3714V29.4193L21.4994 29.7067C21.5475 29.8983 21.5957 30.0899 21.692 30.2336C21.7402 30.2815 21.7402 30.3294 21.7884 30.3773C21.7884 30.3773 21.7884 30.4252 21.8365 30.4252C22.0292 30.7605 22.3664 31 22.7517 31C22.8962 31 22.9926 30.9521 23.1371 30.9042C23.3297 30.8084 23.5224 30.6168 23.5706 30.3773C23.6188 30.1378 23.6188 29.8983 23.5224 29.6588C23.5224 29.6109 23.4743 29.6109 23.4743 29.6109C23.4743 29.563 23.4261 29.5151 23.3779 29.4672C23.2816 29.2756 23.1852 29.1319 23.0407 28.9882C22.9926 28.8924 22.9444 28.8445 22.8481 28.7487V28.6529C22.5109 28.2218 22.27 27.7428 22.0774 27.2639C22.0292 27.1202 22.0292 26.9286 22.1255 26.7849C22.1255 26.737 22.1737 26.737 22.1737 26.737L22.0292 26.3538C24.4858 24.8689 26.3643 22.5697 27.2314 19.8395L27.6167 19.8874C27.6649 19.8874 27.6649 19.8395 27.6649 19.8395C27.7612 19.7437 27.9057 19.6958 28.0502 19.6958H28.0984C28.6282 19.7916 29.1581 19.9353 29.6398 20.1269H29.6879C29.7843 20.1748 29.8806 20.2227 29.9769 20.2227C30.1696 20.3185 30.3141 20.4143 30.5068 20.4622C30.555 20.4622 30.6031 20.5101 30.6995 20.5101C30.7476 20.5101 30.7476 20.5101 30.7958 20.558C30.8921 20.6059 30.9403 20.6059 31.0366 20.6059C31.4702 20.6059 31.8555 20.3185 32 19.9353C31.9518 19.4084 31.5665 19.0252 31.133 18.9294V18.9294ZM17.2124 17.4445L15.9119 18.0672L14.6113 17.4445L14.2741 16.0554L15.1893 14.9058H16.6344L17.5496 16.0554L17.2124 17.4445V17.4445ZM25.0638 14.3311C25.3046 15.3369 25.3528 16.3428 25.2565 17.3487L20.6805 16.0554C20.247 15.9596 20.0061 15.5285 20.1025 15.0974C20.1507 14.9537 20.1988 14.8579 20.2952 14.7622L23.9078 11.505C24.4376 12.3672 24.823 13.3252 25.0638 14.3311V14.3311ZM22.4627 9.73273L18.5129 12.5109C18.1758 12.7025 17.6941 12.6546 17.4532 12.3193C17.3569 12.2235 17.3087 12.1277 17.3087 11.984L17.0197 7.14617C19.1391 7.38566 21.0177 8.29575 22.4627 9.73273V9.73273ZM13.7443 7.28987L14.7077 7.09827L14.4668 11.8882C14.4668 12.3193 14.0815 12.6546 13.648 12.6546C13.5035 12.6546 13.4071 12.6067 13.2626 12.5588L9.26467 9.73273C10.517 8.53525 12.0584 7.67306 13.7443 7.28987ZM7.8678 11.505L11.4322 14.6664C11.7694 14.9537 11.8176 15.4327 11.5286 15.768C11.4322 15.9117 11.3359 15.9596 11.1432 16.0075L6.47092 17.3487C6.32642 15.3369 6.8081 13.2773 7.8678 11.505V11.505ZM7.04894 19.6L11.8176 18.7857C12.2029 18.7857 12.5883 19.0252 12.6364 19.4084C12.6846 19.5521 12.6846 19.7437 12.5883 19.8874L10.7579 24.2941C9.072 23.1924 7.72329 21.5159 7.04894 19.6V19.6ZM17.9831 25.5395C17.3087 25.6832 16.6344 25.779 15.9119 25.779C14.9003 25.779 13.8406 25.5874 12.8773 25.3L15.2375 21.037C15.4784 20.7496 15.8637 20.6538 16.2009 20.8454C16.3454 20.9412 16.4417 21.037 16.5862 21.1807L18.8983 25.3479C18.6093 25.3958 18.3203 25.4437 17.9831 25.5395V25.5395ZM23.8596 21.3722C23.1371 22.5218 22.1255 23.5277 20.9695 24.2462L19.091 19.7437C18.9946 19.3605 19.1873 18.9773 19.5245 18.8336C19.669 18.7857 19.8135 18.7378 19.958 18.7378L24.7748 19.5521C24.5339 20.2227 24.2449 20.8454 23.8596 21.3722Z" fill="white"/>
</svg>
