<svg width="39" height="15" fill="none" xmlns="http://www.w3.org/2000/svg"><path d="M3.75 2.126a1.6 1.6 0 0 1-1.598 1.608A1.6 1.6 0 0 1 .555 2.126c0-.86.713-1.579 1.597-1.579.885-.028 1.598.718 1.598 1.58Zm-.257 2.842v9.157H.87V4.968h2.624Zm10.642 3.99v5.196H11.51V9.389c0-1.263-.685-2.01-1.769-2.01-.713 0-1.455.402-1.826 1.034v5.683H5.29V4.968h2.625v1.09c.514-.774 1.455-1.262 2.483-1.262 2.339 0 3.737 1.579 3.737 4.162Zm5.022-3.99h2.254v2.497h-2.254v6.66h-2.625v-6.66h-1.683V4.968h1.683v-.66c0-2.383 1.512-3.732 3.623-3.732.485 0 .999.115 1.341.287l-.142 2.325a3.3 3.3 0 0 0-.828-.143c-.77 0-1.398.574-1.398 1.406v.517h.029Zm9.529 0-.142 2.469c-.343-.144-.799-.201-1.17-.201-.6 0-1.54.488-1.997 1.378v5.54h-2.625V4.968h2.625v1.09c.456-.774 1.427-1.262 2.197-1.262.456 0 .827.057 1.112.172Zm9.758 0v9.157h-2.625v-1.091c-.457.746-1.54 1.263-2.682 1.263-2.368 0-4.251-2.124-4.251-4.765 0-2.64 1.883-4.765 4.251-4.765 1.141 0 2.254.517 2.682 1.263V4.94h2.625v.028Zm-2.625 5.712V8.441a2.508 2.508 0 0 0-2.111-1.177c-1.284 0-2.254.976-2.254 2.268 0 1.292.97 2.268 2.254 2.268.913.028 1.712-.46 2.11-1.12Z" fill="#fff"/></svg>