<svg width="37" height="15" viewBox="0 0 37 15" fill="none" xmlns="http://www.w3.org/2000/svg">
<g opacity="0.5">
<path d="M8.42003 6.18C7.52003 5.06 6.48003 4.56 5.12003 4.56C2.62003 4.56 0.780029 6.64 0.780029 9.44C0.780029 12.24 2.58003 14.22 5.12003 14.22C6.52003 14.22 7.50003 13.68 8.42003 12.42V14H9.94003V0.660004H8.42003V6.18ZM5.44003 5.92C7.20003 5.92 8.42003 7.34 8.42003 9.42C8.42003 11.42 7.12003 12.9 5.34003 12.9C3.60003 12.9 2.38003 11.48 2.38003 9.46C2.38003 7.36 3.62003 5.92 5.44003 5.92Z" fill="white"/>
<path d="M15.7844 4.56C12.9844 4.56 11.0644 6.52 11.0644 9.38C11.0644 12.22 12.9844 14.22 15.7244 14.22C18.3644 14.22 20.4444 12.12 20.4444 9.42C20.4444 6.58 18.5044 4.56 15.7844 4.56ZM15.7844 5.96C17.6444 5.96 18.8844 7.34 18.8844 9.4C18.8844 11.4 17.5844 12.82 15.7644 12.82C13.8844 12.82 12.6244 11.44 12.6244 9.4C12.6244 7.34 13.8844 5.96 15.7844 5.96Z" fill="white"/>
<path d="M27.8014 11.82C27.0614 12.52 26.3414 12.82 25.4414 12.82C23.6414 12.82 22.3814 11.4 22.3814 9.36C22.3814 7.36 23.6414 5.96 25.4614 5.96C26.3214 5.96 27.1014 6.28 27.8014 6.92L28.7814 5.94C27.8214 5 26.7414 4.56 25.4214 4.56C22.7214 4.56 20.8214 6.56001 20.8214 9.42C20.8214 12.22 22.7014 14.22 25.3414 14.22C26.6814 14.22 27.7014 13.8 28.7414 12.86L27.8014 11.82Z" fill="white"/>
<path d="M35.9016 7.3C35.8216 5.56 34.6416 4.56 32.6816 4.56C30.7416 4.56 29.4416 5.64001 29.4416 7.24C29.4416 8.64001 30.3416 9.48 32.3416 10.02C33.9216 10.42 34.4416 10.82 34.4416 11.62C34.4416 12.44 33.7616 12.98 32.7216 12.98C31.5616 12.98 30.8816 12.42 30.7816 11.38H29.2816C29.4416 13.24 30.6216 14.22 32.7216 14.22C34.6816 14.22 36.0016 13.14 36.0016 11.54C36.0016 10.86 35.7216 10.2 35.2616 9.74C34.8216 9.3 34.2016 9 33.0216 8.68001C31.3616 8.22001 30.9616 7.92 30.9616 7.12C30.9616 6.32 31.6016 5.8 32.6216 5.8C33.6816 5.8 34.3816 6.34 34.3816 7.2V7.3H35.9016Z" fill="white"/>
</g>
</svg>
