<svg width="22" height="22" viewBox="0 0 22 22" fill="none" xmlns="http://www.w3.org/2000/svg">
<path fill-rule="evenodd" clip-rule="evenodd" d="M11 0C4.9225 0 0 5.04701 0 11.2782C0 16.2688 3.14875 20.4841 7.52125 21.9785C8.07125 22.0771 8.2775 21.7388 8.2775 21.4427C8.2775 21.1749 8.26375 20.2867 8.26375 19.3422C5.5 19.8638 4.785 18.6514 4.565 18.017C4.44125 17.6927 3.905 16.6918 3.4375 16.4239C3.0525 16.2125 2.5025 15.6908 3.42375 15.6767C4.29 15.6626 4.90875 16.4944 5.115 16.8328C6.105 18.5386 7.68625 18.0593 8.31875 17.7632C8.415 17.0301 8.70375 16.5367 9.02 16.2548C6.5725 15.9728 4.015 15 4.015 10.6861C4.015 9.45962 4.44125 8.44458 5.1425 7.6551C5.0325 7.37314 4.6475 6.21713 5.2525 4.66637C5.2525 4.66637 6.17375 4.37031 8.2775 5.82239C9.1575 5.56863 10.0925 5.44175 11.0275 5.44175C11.9625 5.44175 12.8975 5.56863 13.7775 5.82239C15.8813 4.35622 16.8025 4.66637 16.8025 4.66637C17.4075 6.21713 17.0225 7.37314 16.9125 7.6551C17.6138 8.44458 18.04 9.44552 18.04 10.6861C18.04 15.0141 15.4688 15.9728 13.0213 16.2548C13.42 16.6072 13.7638 17.2839 13.7638 18.3412C13.7638 19.8497 13.75 21.0621 13.75 21.4427C13.75 21.7388 13.9563 22.0912 14.5063 21.9785C16.69 21.2226 18.5875 19.7837 19.9318 17.8642C21.2761 15.9447 21.9994 13.6413 22 11.2782C22 5.04701 17.0775 0 11 0Z" fill="white"/>
</svg>
