<svg xmlns="http://www.w3.org/2000/svg" width="72" height="72" fill="none" xmlns:v="https://vecta.io/nano"><path d="M35.682 0c.076 0 .153.095.267.267.095.153 8.129 9.789 17.86 21.409L71.44 42.914c-.019.057-7.766 6.411-17.211 14.101l-17.841 14.54c-.63.515-.668.534-.897.305-.134-.134-8.186-6.717-17.898-14.635L0 42.685c.038-.096 8.014-9.617 17.765-21.18L35.529.229c.038-.153.095-.229.153-.229z" fill="#00bef2"/><path d="M34.366 60.545c-1.107-.401-2.442-1.546-2.996-2.614-.687-1.317-.63-3.377.134-5.018.591-1.221.591-1.259.21-1.546-.21-.153-2.748-1.565-5.61-3.11l-5.534-2.996c-.229-.134-.611 0-1.297.439-2.233 1.412-4.56 1.259-6.392-.439-1.317-1.221-1.698-2.08-1.698-3.835 0-1.698.343-2.576 1.431-3.664 1.469-1.469 3.435-1.965 5.324-1.336 1.03.343 1.05.343 1.698-.153.763-.572 6.888-6.163 9.846-8.968l2.042-1.946-.611-1.279c-1.24-2.576-.611-5.438 1.565-7.155 1.183-.935 2.061-1.221 3.759-1.221 3.969 0 6.736 4.16 5.247 7.88-.401 1.03-.401 1.05-.019 1.679.324.553 5.839 7.213 8.758 10.609.515.592 1.088 1.069 1.278 1.069s.84-.191 1.45-.42c2.843-1.126 5.839.134 7.022 2.958.763 1.813.095 4.255-1.526 5.724-1.145 1.03-1.984 1.355-3.511 1.355-1.069 0-1.469-.114-2.595-.725-.84-.458-1.488-.687-1.756-.611-.458.115-7.499 4.942-9.063 6.202-.954.782-1.03 1.069-.534 2.233.477 1.145.42 2.938-.114 4.064-.591 1.24-2.061 2.481-3.339 2.862-1.298.363-2.08.363-3.168-.038zm.324-21.028V28.641l-.611-.839c-.344-.458-.668-.84-.725-.84-.248 0-12.575 11.201-12.575 11.43 0 .057.191.63.42 1.24.229.63.401 1.526.382 2.042s-.019 1.088-.019 1.279c.019.439 4.141 3.072 10.323 6.64 1.698.992 2.29 1.24 2.5 1.069.248-.21.305-2.328.305-11.143zm5.228 9.617c8.167-5.133 9.693-6.163 9.789-6.545.057-.229.134-1.126.153-2.023l.057-1.603-4.16-4.942c-4.465-5.286-6.106-7.079-6.488-7.079-.134 0-.801.382-1.488.84l-1.259.84.057 10.857c.057 9.731.134 11.372.496 11.372.038.019 1.336-.763 2.843-1.717z" fill="#fff"/></svg>