<svg width="23" height="18" viewBox="0 0 23 18" fill="none" xmlns="http://www.w3.org/2000/svg">
<path d="M10.3 16.324C13.1604 15.8187 15.523 15.4005 15.5501 15.3948L15.5994 15.3843L12.8989 12.1721C11.4136 10.4054 10.1984 8.95307 10.1984 8.9447C10.1984 8.92885 12.9869 1.24984 13.0026 1.22252C13.0078 1.21339 14.9055 4.48968 17.6027 9.16446C20.1278 13.5411 22.2097 17.1496 22.229 17.1834L22.2642 17.2449L13.6817 17.2438L5.09919 17.2427L10.3 16.324ZM0 15.3444C0 15.3399 1.27248 13.131 2.82773 10.4357L5.65546 5.53519L8.95085 2.76969C10.7633 1.24867 12.2511 0.00233549 12.2571 6.24784e-05C12.2631 -0.00221008 12.2392 0.0577988 12.2041 0.133416C12.169 0.209034 10.5588 3.66285 8.62577 7.80856L5.11127 15.3462L2.55564 15.3494C1.15004 15.3512 0 15.3489 0 15.3444Z" fill="#0089D6"/>
</svg>
