<svg xmlns="http://www.w3.org/2000/svg" width="20" height="20" fill="none" xmlns:v="https://vecta.io/nano"><path d="M19.575 10.225c0-.658-.058-1.283-.158-1.892H10v3.758h5.392c-.242 1.233-.95 2.275-2 2.983v2.5h3.217c1.883-1.742 2.967-4.308 2.967-7.35z" fill="#4285f4"/><path d="M10 20c2.7 0 4.958-.9 6.608-2.425l-3.217-2.5c-.9.6-2.042.967-3.392.967-2.608 0-4.817-1.758-5.608-4.133H1.075v2.575C2.717 17.75 6.092 20 10 20z" fill="#34a853"/><path d="M4.392 11.908c-.208-.6-.317-1.242-.317-1.908a6.03 6.03 0 0 1 .317-1.908V5.517H1.075C.392 6.867 0 8.383 0 10s.392 3.133 1.075 4.483l3.317-2.575z" fill="#fbbc05"/><path d="M10 3.958c1.475 0 2.792.508 3.833 1.5l2.85-2.85C14.958.992 12.7 0 10 0 6.092 0 2.717 2.25 1.075 5.517l3.317 2.575c.792-2.375 3-4.133 5.608-4.133z" fill="#ea4335"/></svg>