<svg width="162" height="51" viewBox="0 0 162 51" fill="none" xmlns="http://www.w3.org/2000/svg">
<g clip-path="url(#clip0)">
<path fill-rule="evenodd" clip-rule="evenodd" d="M25.5606 0C39.677 0 51.1205 11.4439 51.1205 25.5603C51.1205 39.677 39.677 51.1205 25.5606 51.1205C11.4439 51.1205 0 39.677 0 25.5603C0 11.4439 11.4439 0 25.5606 0ZM27.3458 35.1254C26.4143 33.5635 25.0813 34.2257 24.6865 34.4612C24.2612 34.715 23.144 35.7342 23.9786 37.1337C24.8133 38.5331 24.7128 38.3645 25.6306 39.9035C26.5486 41.4425 27.9179 40.861 28.3356 40.612C28.7536 40.3627 29.8642 39.3476 28.9998 37.8973C28.208 36.5704 27.4806 35.3513 27.3625 35.1534L27.3458 35.1254ZM35.925 15.929C30.7023 8.46698 21.6438 9.29986 16.6282 12.7055C13.2281 15.0144 6.85871 22.664 13.3046 32.1623C13.4004 32.3034 13.4952 32.4408 13.5899 32.576L13.7034 32.7372C13.8738 32.9778 14.0444 33.213 14.2193 33.4512L14.3366 33.6106C15.34 34.9704 16.5111 36.4865 18.5852 39.6787C20.2516 42.0025 23.3421 39.908 21.8402 37.6154C21.8208 37.5859 21.8015 37.5564 21.7822 37.527L21.6088 37.263C21.551 37.1751 21.4932 37.0874 21.4352 36.9996L21.3187 36.8236C20.2085 35.1485 18.9714 33.3597 16.3224 29.726C12.8011 24.896 14.4139 18.8972 19.006 15.7811C23.5981 12.6646 30.0547 14.1711 32.7227 18.1024C33.3474 19.0229 34.6028 18.972 35.3927 18.4366C36.1823 17.9005 36.4687 16.7061 35.925 15.929ZM26.3048 23.0609C24.7229 21.034 21.6954 23.4052 23.1156 25.2257C27.5658 30.9319 28.9839 33.6151 31.3232 37.6386C32.5655 39.7757 35.9441 38.0503 34.5339 35.4599C33.0894 32.8068 29.4805 27.1297 26.3048 23.0609ZM30.4197 18.5821C28.8294 16.6503 24.2741 14.8606 20.0487 17.7284C15.8233 20.5955 16.6088 25.8051 17.6245 27.4816C18.8068 29.4327 19.2175 30.1447 20.7507 32.0879C22.306 34.0598 25.6493 32.2015 23.9593 29.9106C22.8971 28.4714 21.1766 26.2699 20.7773 25.1824C19.5185 21.7481 24.4555 18.4148 27.1017 20.8909C30.1347 23.7297 34.4778 31.2522 35.8565 33.5985C37.1724 35.8367 40.3703 33.6924 39.144 31.5449C36.6069 26.7862 32.01 20.5135 30.4197 18.5821ZM39.4803 20.7517C38.459 19.2466 37.1669 19.9857 36.7867 20.244C36.3766 20.5218 35.3214 21.6047 36.2364 22.9529C37.151 24.3014 37.0408 24.1386 38.0472 25.6216C39.0536 27.1041 40.3866 26.444 40.789 26.1708C41.1914 25.8976 42.2411 24.8195 41.2929 23.4221C40.3447 22.0248 39.4803 20.7517 39.4803 20.7517Z" fill="#0B0B09"/>
<path d="M67.4791 5.18555C65.0765 5.18555 63.0828 7.17925 63.0828 9.53079C63.0828 11.9335 65.0765 13.9272 67.4791 13.9272C69.8818 13.9272 71.8755 11.9335 71.8755 9.53079C71.8755 7.17925 69.8818 5.18555 67.4791 5.18555ZM63.9007 17.3522V42.4524H71.1087V17.3522H63.9007Z" fill="#0B0B09"/>
<path d="M88.756 16.841C85.9444 16.841 83.2861 18.1702 81.9059 20.3172V17.3522H74.6979V42.4524H81.9059V26.8606C82.9283 25.1225 84.922 23.9979 86.9157 23.9979C89.8807 23.9979 91.7721 25.9916 91.7721 29.4678V42.4524H98.9801V28.2409C98.9801 21.1863 95.095 16.841 88.756 16.841Z" fill="#0B0B09"/>
<path d="M111.284 15.8697C111.284 13.5693 113.073 12.0357 115.169 12.0357C115.885 12.0357 116.907 12.2402 117.419 12.3935L117.777 6.0546C116.856 5.59451 115.425 5.28779 114.096 5.28779C108.217 5.28779 104.076 9.01959 104.076 15.5119V17.3522H99.4243V24.2024H104.076V42.4524H111.284V24.2024H117.47V17.3522H111.284V15.8697Z" fill="#0B0B09"/>
<path d="M132.896 16.841C130.8 16.841 128.091 18.1702 126.864 20.3172V17.3522H119.656V42.4524H126.864V27.2696C128.091 24.8158 130.698 23.4867 132.334 23.4867C133.356 23.4867 134.583 23.6912 135.554 24.049L135.963 17.3011C135.197 16.9944 134.174 16.841 132.896 16.841Z" fill="#0B0B09"/>
<path d="M154.09 17.3522V20.3172C152.863 18.2724 149.796 16.841 146.678 16.841C140.134 16.841 134.971 22.6176 134.971 29.8768C134.971 37.1359 140.134 42.9636 146.678 42.9636C149.847 42.9636 152.863 41.5322 154.09 39.4874V42.4524H161.298V17.3522H154.09ZM148.262 36.1135C144.735 36.1135 142.026 33.4552 142.026 29.8768C142.026 26.2983 144.735 23.6401 148.262 23.6401C150.767 23.6401 153.017 25.0203 154.09 26.8606V32.9951C153.017 34.7843 150.767 36.1135 148.262 36.1135Z" fill="#0B0B09"/>
</g>
<defs>
<clipPath id="clip0">
<rect width="162" height="51" fill="white"/>
</clipPath>
</defs>
</svg>
