<svg width="547" height="278" viewBox="0 0 547 278" fill="none" xmlns="http://www.w3.org/2000/svg">
<rect width="547" height="278" rx="20" fill="#0A0E12"/>
<g filter="url(#filter0_f_266_10)">
<rect x="140" y="48" width="92" height="90" rx="30" transform="rotate(90 140 48)" fill="url(#paint0_linear_266_10)"/>
</g>
<path d="M275.808 93.5248H279.433V90.1561H275.808V93.5248ZM271.492 93.5248H275.117V90.1561H271.492V93.5248ZM267.262 93.5248H270.888V90.1561H267.262V93.5248ZM263.033 93.5248H266.572V90.1561H263.033V93.5248ZM258.717 93.5248H262.342V90.1561H258.717V93.5248ZM263.033 89.4468H266.572V86.078H263.033V89.4468ZM267.262 89.4468H270.888V86.078H267.262V89.4468ZM271.492 89.4468H275.117V86.078H271.492V89.4468ZM271.492 85.3688H275.117V82H271.492V85.3688ZM291 92.0177C291 92.0177 289.446 90.5106 286.252 91.0426C285.907 88.4716 283.231 86.9645 283.231 86.9645C283.231 86.9645 280.728 90.0674 282.541 93.5248C282.023 93.7908 281.16 94.1454 279.865 94.1454H256.127C255.695 95.8298 255.695 107 267.607 107C276.153 107 282.541 102.922 285.562 95.4752C290.05 95.8298 291 92.0177 291 92.0177Z" fill="url(#paint1_linear_266_10)"/>
<path d="M261 175.398L271.217 174.066L271.221 183.498L261.009 183.554L261 175.398ZM271.212 184.585L271.22 194.024L261.008 192.681L261.007 184.521L271.212 184.585ZM272.45 173.892L285.997 172V183.378L272.45 183.481V173.892ZM286 184.673L285.997 196L272.45 194.17L272.431 184.652L286 184.673Z" fill="url(#paint2_linear_266_10)"/>
<path d="M192.402 175.158L188.848 178.717C188.102 178.154 186.146 177.027 184.285 177.027C178.845 177.027 177.002 182.187 177.002 184.367C177.002 186.546 178.45 191.84 184.285 191.84C188.954 191.84 190.589 188.637 190.823 187.036H184.285V182.187H195.561C195.707 182.246 196 182.765 196 184.367C196 192.907 189.901 197 184.285 197C178.669 197 172 192.418 172 184.367C172 176.315 178.845 172 184.285 172C188.638 172 191.51 174.106 192.402 175.158Z" fill="url(#paint3_linear_266_10)"/>
<path fill-rule="evenodd" clip-rule="evenodd" d="M451.328 107.669L456.439 91.9384H446.217L451.328 107.669Z" fill="url(#paint4_linear_266_10)"/>
<path fill-rule="evenodd" clip-rule="evenodd" d="M451.329 107.669L446.218 91.9384H439.055L451.329 107.669Z" fill="url(#paint5_linear_266_10)"/>
<path fill-rule="evenodd" clip-rule="evenodd" d="M439.054 91.9384L437.501 96.7188C437.359 97.1548 437.515 97.6325 437.885 97.902L451.329 107.669L439.054 91.9384Z" fill="url(#paint6_linear_266_10)"/>
<path fill-rule="evenodd" clip-rule="evenodd" d="M439.055 91.9384H446.218L443.14 82.4638C442.981 81.9762 442.291 81.9763 442.133 82.4638L439.055 91.9384Z" fill="url(#paint7_linear_266_10)"/>
<path fill-rule="evenodd" clip-rule="evenodd" d="M451.328 107.669L456.439 91.9384H463.603L451.328 107.669Z" fill="url(#paint8_linear_266_10)"/>
<path fill-rule="evenodd" clip-rule="evenodd" d="M463.603 91.9384L465.156 96.7188C465.298 97.1548 465.143 97.6325 464.772 97.902L451.328 107.669L463.603 91.9384Z" fill="url(#paint9_linear_266_10)"/>
<path fill-rule="evenodd" clip-rule="evenodd" d="M463.603 91.9384H456.439L459.518 82.4638C459.676 81.9762 460.366 81.9763 460.524 82.4638L463.603 91.9384Z" fill="url(#paint10_linear_266_10)"/>
<path d="M203.889 98.425C203.827 98.425 203.766 98.425 203.766 98.3632C203.766 98.3014 203.642 98.3014 203.519 98.3014C203.272 98.2396 203.025 98.2396 202.778 98.2396C202.655 98.2396 202.531 98.2396 202.408 98.1778H202.346C201.667 98.116 200.927 97.9924 200.248 97.807C200.063 97.7452 199.878 97.5597 199.816 97.3743C199.878 97.3743 199.816 97.3743 199.816 97.3743L199.322 97.2507C199.569 95.4583 199.446 93.6042 199.075 91.8118C198.643 90.0195 197.903 88.2889 196.915 86.7438L197.286 86.3729V86.3111C197.286 86.1257 197.347 85.8785 197.471 85.7549C198.026 85.2604 198.582 84.8896 199.199 84.5188C199.322 84.457 199.446 84.3952 199.569 84.3334C199.816 84.2097 200.001 84.0861 200.248 83.9625C200.31 83.9007 200.371 83.9007 200.433 83.8389C200.495 83.7771 200.433 83.7771 200.433 83.7153C200.989 83.2827 201.112 82.541 200.68 81.9848C200.495 81.7375 200.124 81.5521 199.816 81.5521C199.507 81.5521 199.199 81.6757 198.952 81.8611L198.89 81.9229C198.828 81.9848 198.767 82.0466 198.705 82.0466C198.52 82.232 198.335 82.4174 198.211 82.6028C198.15 82.7264 198.026 82.7882 197.964 82.85C197.532 83.3445 196.977 83.8389 196.422 84.2098C196.298 84.2716 196.175 84.3334 196.051 84.3334C195.99 84.3334 195.866 84.3334 195.804 84.2716H195.743L195.249 84.5806C194.755 84.0861 194.2 83.5917 193.706 83.0972C191.423 81.3049 188.584 80.1924 185.683 79.8834L185.621 79.3889V79.4507C185.436 79.3271 185.375 79.1417 185.313 78.9563C185.313 78.2764 185.313 77.5966 185.436 76.8549V76.7931C185.436 76.6695 185.498 76.5459 185.498 76.4223C185.56 76.175 185.56 75.9278 185.621 75.6806V75.3098C185.683 74.6917 185.189 74.0736 184.572 74.0118C184.202 73.95 183.832 74.1355 183.523 74.4445C183.276 74.6917 183.153 75.0007 183.153 75.3098V75.6188C183.153 75.866 183.214 76.1132 183.276 76.3605C183.338 76.4841 183.338 76.6077 183.338 76.7313V76.7931C183.461 77.4729 183.461 78.1528 183.461 78.8945C183.4 79.0799 183.338 79.2653 183.153 79.3889V79.5125L183.091 80.007C182.412 80.0688 181.733 80.1924 180.993 80.316C178.092 80.9341 175.438 82.4792 173.402 84.6424L173.031 84.3952H172.97C172.908 84.3952 172.846 84.457 172.723 84.457C172.599 84.457 172.476 84.3952 172.353 84.3334C171.797 83.9007 171.242 83.4063 170.81 82.9118C170.748 82.7882 170.625 82.7264 170.563 82.6646C170.378 82.4792 170.254 82.2938 170.069 82.1084C170.007 82.0466 169.946 82.0466 169.884 81.9848C169.822 81.9229 169.822 81.9229 169.822 81.9229C169.575 81.7375 169.267 81.6139 168.958 81.6139C168.588 81.6139 168.279 81.7375 168.094 82.0466C167.724 82.6028 167.847 83.3445 168.341 83.7771C168.403 83.7771 168.403 83.8389 168.403 83.8389C168.403 83.8389 168.526 83.9625 168.588 83.9625C168.773 84.0861 169.02 84.2097 169.267 84.3334C169.39 84.3952 169.514 84.457 169.637 84.5188C170.254 84.8896 170.871 85.2604 171.365 85.7549C171.489 85.8785 171.612 86.1257 171.55 86.3111V86.2493L171.921 86.6202C171.859 86.7438 171.797 86.8056 171.735 86.9292C169.822 89.9577 169.02 93.5424 169.575 97.0653L169.082 97.1889C169.082 97.2507 169.02 97.2507 169.02 97.2507C168.958 97.4361 168.773 97.5597 168.588 97.6833C167.909 97.8688 167.23 97.9924 166.49 98.0542C166.366 98.0542 166.243 98.0542 166.119 98.116C165.872 98.116 165.626 98.1778 165.379 98.1778C165.317 98.1778 165.255 98.2396 165.132 98.2396C165.07 98.2396 165.07 98.2396 165.008 98.3014C164.33 98.425 163.898 99.0431 164.021 99.7229C164.144 100.279 164.7 100.65 165.255 100.588C165.379 100.588 165.44 100.588 165.564 100.526C165.626 100.526 165.626 100.526 165.626 100.465C165.626 100.403 165.811 100.465 165.872 100.465C166.119 100.403 166.366 100.279 166.551 100.217C166.675 100.156 166.798 100.094 166.922 100.094H166.983C167.662 99.8465 168.279 99.6611 169.02 99.5375H169.082C169.267 99.5375 169.452 99.5993 169.575 99.7229C169.637 99.7229 169.637 99.7847 169.637 99.7847L170.193 99.7229C171.118 102.566 172.846 105.1 175.253 106.954C175.809 107.387 176.302 107.758 176.92 108.067L176.611 108.499C176.611 108.561 176.673 108.561 176.673 108.561C176.796 108.747 176.796 108.994 176.734 109.179C176.488 109.797 176.117 110.415 175.747 110.972V111.033C175.685 111.157 175.623 111.219 175.5 111.342C175.377 111.466 175.253 111.713 175.068 111.96C175.006 112.022 175.006 112.084 174.945 112.146C174.945 112.146 174.945 112.208 174.883 112.208C174.574 112.826 174.821 113.567 175.377 113.876C175.5 113.938 175.685 114 175.809 114C176.302 114 176.734 113.691 176.981 113.258C176.981 113.258 176.981 113.197 177.043 113.197C177.043 113.135 177.105 113.073 177.166 113.011C177.228 112.764 177.352 112.578 177.413 112.331L177.537 111.96C177.722 111.281 178.03 110.663 178.339 110.044C178.462 109.859 178.648 109.735 178.833 109.674C178.894 109.674 178.894 109.674 178.894 109.612L179.141 109.117C180.869 109.797 182.659 110.106 184.511 110.106C185.621 110.106 186.732 109.983 187.843 109.674C188.522 109.55 189.201 109.303 189.818 109.117L190.065 109.55C190.127 109.55 190.127 109.55 190.127 109.612C190.312 109.674 190.497 109.797 190.62 109.983C190.929 110.601 191.237 111.219 191.423 111.899V111.96L191.546 112.331C191.608 112.578 191.669 112.826 191.793 113.011C191.855 113.073 191.855 113.135 191.916 113.197C191.916 113.197 191.916 113.258 191.978 113.258C192.225 113.691 192.657 114 193.151 114C193.336 114 193.459 113.938 193.644 113.876C193.891 113.753 194.138 113.506 194.2 113.197C194.262 112.888 194.262 112.578 194.138 112.269C194.138 112.208 194.076 112.208 194.076 112.208C194.076 112.146 194.015 112.084 193.953 112.022C193.83 111.775 193.706 111.59 193.521 111.404C193.459 111.281 193.398 111.219 193.274 111.095V110.972C192.842 110.415 192.534 109.797 192.287 109.179C192.225 108.994 192.225 108.747 192.348 108.561C192.348 108.499 192.41 108.499 192.41 108.499L192.225 108.005C195.372 106.089 197.779 103.122 198.89 99.5993L199.384 99.6611C199.446 99.6611 199.446 99.5993 199.446 99.5993C199.569 99.4757 199.754 99.4139 199.939 99.4139H200.001C200.68 99.5375 201.359 99.7229 201.976 99.9702H202.038C202.161 100.032 202.285 100.094 202.408 100.094C202.655 100.217 202.84 100.341 203.087 100.403C203.149 100.403 203.21 100.465 203.334 100.465C203.395 100.465 203.395 100.465 203.457 100.526C203.581 100.588 203.642 100.588 203.766 100.588C204.321 100.588 204.815 100.217 205 99.7229C204.938 99.0431 204.445 98.5486 203.889 98.425ZM186.053 96.509L184.387 97.3125L182.721 96.509L182.289 94.7167L183.461 93.2334H185.313L186.485 94.7167L186.053 96.509ZM196.113 92.4917C196.422 93.7896 196.483 95.0875 196.36 96.3854L190.497 94.7167C189.941 94.5931 189.633 94.0368 189.756 93.4806C189.818 93.2952 189.88 93.1715 190.003 93.0479L194.632 88.8452C195.311 89.9577 195.804 91.1938 196.113 92.4917ZM192.78 86.5584L187.72 90.1431C187.288 90.3903 186.671 90.3285 186.362 89.8959C186.239 89.7722 186.177 89.6486 186.177 89.4632L185.807 83.2209C188.522 83.5299 190.929 84.7042 192.78 86.5584ZM181.61 83.4063L182.844 83.1591L182.536 89.3396C182.536 89.8959 182.042 90.3285 181.486 90.3285C181.301 90.3285 181.178 90.2667 180.993 90.2049L175.87 86.5584C177.475 85.0132 179.45 83.9007 181.61 83.4063ZM174.081 88.8452L178.648 92.9243C179.08 93.2952 179.141 93.9132 178.771 94.3458C178.648 94.5313 178.524 94.5931 178.277 94.6549L172.291 96.3854C172.106 93.7896 172.723 91.132 174.081 88.8452ZM173.031 99.2903L179.141 98.2396C179.635 98.2396 180.129 98.5486 180.19 99.0431C180.252 99.2285 180.252 99.4757 180.129 99.6611L177.784 105.347C175.623 103.926 173.895 101.763 173.031 99.2903ZM187.041 106.954C186.177 107.14 185.313 107.263 184.387 107.263C183.091 107.263 181.733 107.016 180.499 106.645L183.523 101.144C183.832 100.774 184.325 100.65 184.757 100.897C184.943 101.021 185.066 101.144 185.251 101.33L188.213 106.707C187.843 106.769 187.473 106.831 187.041 106.954ZM194.57 101.577C193.644 103.06 192.348 104.358 190.867 105.285L188.46 99.4757C188.337 98.9813 188.584 98.4868 189.016 98.3014C189.201 98.2396 189.386 98.1778 189.571 98.1778L195.743 99.2285C195.434 100.094 195.064 100.897 194.57 101.577Z" fill="url(#paint11_linear_266_10)"/>
<path fill-rule="evenodd" clip-rule="evenodd" d="M362 79C353.16 79 346 86.1117 346 94.8921C346 101.924 350.58 107.864 356.94 109.97C357.74 110.109 358.04 109.632 358.04 109.215C358.04 108.837 358.02 107.586 358.02 106.255C354 106.99 352.96 105.281 352.64 104.388C352.46 103.931 351.68 102.52 351 102.143C350.44 101.845 349.64 101.11 350.98 101.09C352.24 101.07 353.14 102.242 353.44 102.719C354.88 105.123 357.18 104.447 358.1 104.03C358.24 102.997 358.66 102.302 359.12 101.904C355.56 101.507 351.84 100.136 351.84 94.0577C351.84 92.3295 352.46 90.8992 353.48 89.7867C353.32 89.3894 352.76 87.7605 353.64 85.5753C353.64 85.5753 354.98 85.1582 358.04 87.2043C359.32 86.8467 360.68 86.6679 362.04 86.6679C363.4 86.6679 364.76 86.8467 366.04 87.2043C369.1 85.1383 370.44 85.5753 370.44 85.5753C371.32 87.7605 370.76 89.3894 370.6 89.7867C371.62 90.8992 372.24 92.3096 372.24 94.0577C372.24 100.156 368.5 101.507 364.94 101.904C365.52 102.401 366.02 103.355 366.02 104.844C366.02 106.97 366 108.678 366 109.215C366 109.632 366.3 110.129 367.1 109.97C370.276 108.905 373.036 106.877 374.992 104.172C376.947 101.468 377.999 98.2218 378 94.8921C378 86.1117 370.84 79 362 79Z" fill="url(#paint12_linear_266_10)"/>
<path d="M87.6365 183.426C87.6365 183.847 87.682 184.188 87.7616 184.438C87.8525 184.689 87.9663 184.962 88.1255 185.257C88.1823 185.348 88.2051 185.439 88.2051 185.519C88.2051 185.633 88.1369 185.746 87.989 185.86L87.2725 186.338C87.1702 186.406 87.0678 186.44 86.9769 186.44C86.8631 186.44 86.7494 186.383 86.6357 186.281C86.4765 186.11 86.34 185.928 86.2263 185.746C86.1125 185.553 85.9988 185.337 85.8737 185.075C84.9866 186.122 83.8721 186.645 82.5302 186.645C81.5749 186.645 80.8129 186.372 80.2556 185.826C79.6984 185.28 79.4141 184.552 79.4141 183.642C79.4141 182.676 79.7552 181.891 80.449 181.3C81.1427 180.708 82.0639 180.413 83.2353 180.413C83.6219 180.413 84.02 180.447 84.4408 180.504C84.8615 180.56 85.2937 180.651 85.7486 180.754V179.924C85.7486 179.059 85.5666 178.456 85.2141 178.104C84.8502 177.751 84.2361 177.581 83.3604 177.581C82.9623 177.581 82.5529 177.626 82.1321 177.729C81.7113 177.831 81.3019 177.956 80.9039 178.115C80.7219 178.195 80.5854 178.24 80.5058 178.263C80.4262 178.286 80.3694 178.297 80.3239 178.297C80.1647 178.297 80.085 178.184 80.085 177.945V177.387C80.085 177.205 80.1078 177.069 80.1647 176.989C80.2215 176.91 80.3239 176.83 80.4831 176.751C80.8811 176.546 81.3588 176.375 81.916 176.239C82.4733 176.091 83.0647 176.023 83.6902 176.023C85.0435 176.023 86.0329 176.33 86.6698 176.944C87.2953 177.558 87.6137 178.491 87.6137 179.742V183.426H87.6365ZM83.0192 185.155C83.3945 185.155 83.7811 185.087 84.1906 184.95C84.6 184.814 84.9639 184.564 85.271 184.222C85.4529 184.006 85.5894 183.767 85.6576 183.495C85.7259 183.222 85.7714 182.892 85.7714 182.505V182.027C85.4415 181.948 85.089 181.88 84.7251 181.834C84.3612 181.789 84.0086 181.766 83.656 181.766C82.8941 181.766 82.3368 181.914 81.9615 182.221C81.5862 182.528 81.4043 182.96 81.4043 183.529C81.4043 184.063 81.5407 184.461 81.8251 184.734C82.098 185.018 82.496 185.155 83.0192 185.155ZM92.1514 186.383C91.9467 186.383 91.8102 186.349 91.7192 186.269C91.6283 186.201 91.5486 186.042 91.4804 185.826L88.8078 177.035C88.7396 176.807 88.7055 176.66 88.7055 176.58C88.7055 176.398 88.7965 176.296 88.9784 176.296H90.0929C90.309 176.296 90.4569 176.33 90.5365 176.409C90.6275 176.478 90.6957 176.637 90.7639 176.853L92.6745 184.382L94.4487 176.853C94.5055 176.625 94.5738 176.478 94.6647 176.409C94.7557 176.341 94.9149 176.296 95.1196 176.296H96.0295C96.2455 176.296 96.3934 176.33 96.4844 176.409C96.5753 176.478 96.6549 176.637 96.7004 176.853L98.4973 184.473L100.465 176.853C100.533 176.625 100.613 176.478 100.692 176.409C100.783 176.341 100.931 176.296 101.136 176.296H102.193C102.375 176.296 102.478 176.387 102.478 176.58C102.478 176.637 102.466 176.694 102.455 176.762C102.444 176.83 102.421 176.921 102.375 177.046L99.6346 185.837C99.5663 186.065 99.4867 186.213 99.3957 186.281C99.3048 186.349 99.1569 186.395 98.9636 186.395H97.9855C97.7695 186.395 97.6216 186.36 97.5306 186.281C97.4397 186.201 97.3601 186.053 97.3146 185.826L95.5518 178.491L93.8004 185.815C93.7436 186.042 93.6753 186.19 93.5843 186.269C93.4934 186.349 93.3341 186.383 93.1294 186.383H92.1514ZM106.765 186.69C106.174 186.69 105.582 186.622 105.014 186.486C104.445 186.349 104.002 186.201 103.706 186.031C103.524 185.928 103.399 185.815 103.353 185.712C103.308 185.61 103.285 185.496 103.285 185.394V184.814C103.285 184.575 103.376 184.461 103.547 184.461C103.615 184.461 103.683 184.473 103.751 184.495C103.82 184.518 103.922 184.564 104.036 184.609C104.422 184.78 104.843 184.916 105.287 185.007C105.742 185.098 106.185 185.144 106.64 185.144C107.357 185.144 107.914 185.018 108.301 184.768C108.687 184.518 108.892 184.154 108.892 183.688C108.892 183.369 108.79 183.108 108.585 182.892C108.38 182.676 107.993 182.482 107.436 182.3L105.787 181.789C104.957 181.527 104.343 181.14 103.968 180.629C103.592 180.128 103.399 179.571 103.399 178.98C103.399 178.502 103.501 178.081 103.706 177.717C103.911 177.353 104.184 177.035 104.525 176.785C104.866 176.523 105.253 176.33 105.708 176.193C106.162 176.057 106.64 176 107.14 176C107.391 176 107.652 176.011 107.902 176.045C108.164 176.08 108.403 176.125 108.642 176.171C108.869 176.227 109.085 176.284 109.29 176.353C109.495 176.421 109.654 176.489 109.768 176.557C109.927 176.648 110.041 176.739 110.109 176.842C110.177 176.933 110.211 177.058 110.211 177.217V177.751C110.211 177.99 110.12 178.115 109.95 178.115C109.859 178.115 109.711 178.07 109.517 177.979C108.869 177.683 108.141 177.535 107.334 177.535C106.686 177.535 106.174 177.638 105.821 177.854C105.469 178.07 105.287 178.4 105.287 178.866C105.287 179.184 105.4 179.457 105.628 179.673C105.855 179.889 106.276 180.106 106.879 180.299L108.494 180.811C109.313 181.072 109.904 181.436 110.257 181.902C110.609 182.369 110.78 182.903 110.78 183.495C110.78 183.984 110.677 184.427 110.484 184.814C110.279 185.2 110.006 185.542 109.654 185.815C109.301 186.099 108.881 186.304 108.391 186.451C107.88 186.611 107.345 186.69 106.765 186.69Z" fill="url(#paint13_linear_266_10)"/>
<path fill-rule="evenodd" clip-rule="evenodd" d="M108.914 192.217C105.173 194.981 99.7367 196.448 95.0626 196.448C88.5119 196.448 82.6096 194.025 78.1515 190C77.7989 189.681 78.1174 189.249 78.5382 189.499C83.3601 192.297 89.308 193.991 95.4606 193.991C99.6116 193.991 104.172 193.127 108.369 191.353C108.994 191.069 109.529 191.762 108.914 192.217Z" fill="url(#paint14_linear_266_10)"/>
<path fill-rule="evenodd" clip-rule="evenodd" d="M110.473 190.443C109.996 189.829 107.312 190.148 106.095 190.295C105.731 190.341 105.674 190.022 106.004 189.784C108.142 188.282 111.656 188.715 112.065 189.215C112.475 189.727 111.952 193.241 109.95 194.924C109.643 195.186 109.347 195.049 109.484 194.708C109.939 193.582 110.951 191.046 110.473 190.443Z" fill="url(#paint15_linear_266_10)"/>
<path fill-rule="evenodd" clip-rule="evenodd" d="M356.765 179.72L350.802 176.101C349.964 175.591 349.675 174.464 350.159 173.583C350.644 172.702 351.716 172.401 352.553 172.911L355.94 174.966V170.837C355.94 169.822 356.722 169 357.686 169C358.648 169 359.43 169.822 359.43 170.837V178.092C359.43 178.626 359.214 179.106 358.867 179.443C358.318 180.006 357.46 180.145 356.765 179.72ZM356.506 183.997C356.516 183.338 356.184 182.725 355.639 182.394L349.6 178.748C349.338 178.589 349.037 178.506 348.737 178.506C348.117 178.506 347.541 178.853 347.233 179.412C346.755 180.278 347.04 181.388 347.868 181.889L351.349 183.989L347.868 186.091C347.467 186.333 347.179 186.723 347.06 187.191C346.94 187.659 347.001 188.148 347.233 188.568C347.541 189.127 348.117 189.474 348.734 189.474C349.037 189.474 349.338 189.391 349.6 189.232L355.639 185.586C356.179 185.258 356.511 184.65 356.506 183.997ZM372.442 191.892L366.456 188.259C365.615 187.75 364.539 188.052 364.053 188.936C363.864 189.284 363.79 189.667 363.826 190.039V197.14C363.826 198.155 364.611 198.98 365.579 198.98C366.545 198.98 367.33 198.155 367.33 197.14V193.057L370.683 195.092C371.524 195.603 372.602 195.298 373.086 194.414C373.573 193.531 373.285 192.401 372.442 191.892ZM364.55 183.565C364.55 183.699 364.472 183.884 364.377 183.982L361.982 186.377C361.887 186.472 361.699 186.549 361.565 186.549H360.956C360.822 186.549 360.634 186.472 360.539 186.377L358.141 183.982C358.046 183.884 357.969 183.699 357.969 183.565V182.955C357.969 182.819 358.046 182.634 358.141 182.538L360.539 180.141C360.634 180.046 360.822 179.968 360.956 179.968H361.565C361.699 179.968 361.887 180.046 361.982 180.141L364.377 182.538C364.472 182.634 364.55 182.819 364.55 182.955V183.565ZM362.412 183.272V183.246C362.412 183.148 362.355 183.012 362.286 182.94L361.578 182.235C361.509 182.163 361.372 182.106 361.272 182.106H361.246C361.149 182.106 361.012 182.163 360.94 182.235L360.235 182.94C360.166 183.009 360.109 183.146 360.109 183.246V183.272C360.109 183.372 360.166 183.508 360.235 183.578L360.94 184.285C361.012 184.355 361.149 184.411 361.246 184.411H361.272C361.372 184.411 361.509 184.355 361.578 184.285L362.286 183.578C362.355 183.508 362.412 183.372 362.412 183.272ZM372.442 176.101L366.455 179.72C365.614 180.23 364.539 179.928 364.052 179.048C363.861 178.701 363.792 178.316 363.825 177.948V170.837C363.825 169.822 364.61 169 365.579 169C366.545 169 367.33 169.822 367.33 170.837V174.939L370.684 172.911C371.525 172.401 372.6 172.702 373.087 173.583C373.574 174.464 373.283 175.593 372.442 176.101ZM357.96 188.044C357.564 187.964 357.14 188.031 356.765 188.258L350.802 191.892C349.964 192.401 349.675 193.531 350.159 194.414C350.644 195.301 351.716 195.603 352.553 195.092L355.94 193.03V197.14C355.94 198.155 356.722 198.98 357.686 198.98C358.648 198.98 359.43 198.155 359.43 197.14V189.862C359.43 188.944 358.793 188.183 357.96 188.044ZM373.934 178.754C374.904 178.244 376.148 178.546 376.707 179.428C377.268 180.309 376.936 181.434 375.963 181.941L372.052 183.99L375.963 186.038C376.933 186.548 377.268 187.673 376.707 188.553C376.145 189.434 374.904 189.735 373.934 189.228L367.026 185.609C366.37 185.267 366.006 184.64 366.012 183.998C366 183.352 366.364 182.717 367.026 182.37L373.934 178.754Z" fill="url(#paint16_linear_266_10)"/>
<path d="M456.979 185.616C455.777 185.616 454.7 186.134 453.963 186.949L452.073 185.648C452.274 185.111 452.389 184.534 452.389 183.93C452.389 183.337 452.278 182.77 452.084 182.241L453.969 180.953C454.707 181.764 455.781 182.279 456.979 182.279C459.196 182.279 461 180.525 461 178.368C461 176.211 459.196 174.457 456.979 174.457C454.761 174.457 452.957 176.211 452.957 178.368C452.957 178.754 453.017 179.126 453.125 179.479L451.238 180.767C450.45 179.816 449.315 179.152 448.022 178.949V176.738C449.843 176.365 451.216 174.792 451.216 172.911C451.216 170.754 449.412 169 447.194 169C444.977 169 443.173 170.754 443.173 172.911C443.173 174.766 444.51 176.321 446.295 176.72V178.96C443.859 179.376 442 181.443 442 183.93C442 186.429 443.877 188.504 446.331 188.906V191.271C444.528 191.657 443.173 193.221 443.173 195.089C443.173 197.246 444.977 199 447.194 199C449.412 199 451.216 197.246 451.216 195.089C451.216 193.221 449.861 191.657 448.058 191.271V188.906C449.3 188.702 450.423 188.067 451.219 187.118L453.122 188.427C453.016 188.776 452.957 189.145 452.957 189.527C452.957 191.684 454.761 193.438 456.979 193.438C459.196 193.438 461 191.684 461 189.527C461 187.371 459.196 185.616 456.979 185.616ZM456.979 176.472C458.054 176.472 458.928 177.323 458.928 178.368C458.928 179.413 458.054 180.264 456.979 180.264C455.903 180.264 455.029 179.413 455.029 178.368C455.029 177.323 455.903 176.472 456.979 176.472ZM445.245 172.911C445.245 171.865 446.119 171.015 447.194 171.015C448.27 171.015 449.144 171.865 449.144 172.911C449.144 173.956 448.27 174.807 447.194 174.807C446.119 174.807 445.245 173.956 445.245 172.911ZM449.144 195.089C449.144 196.135 448.27 196.985 447.194 196.985C446.119 196.985 445.245 196.135 445.245 195.089C445.245 194.044 446.119 193.193 447.194 193.193C448.27 193.193 449.144 194.044 449.144 195.089ZM447.194 186.574C445.695 186.574 444.475 185.388 444.475 183.93C444.475 182.472 445.695 181.285 447.194 181.285C448.694 181.285 449.914 182.472 449.914 183.93C449.914 185.388 448.694 186.574 447.194 186.574ZM456.979 191.423C455.903 191.423 455.029 190.572 455.029 189.527C455.029 188.482 455.903 187.631 456.979 187.631C458.054 187.631 458.928 188.482 458.928 189.527C458.928 190.572 458.054 191.423 456.979 191.423Z" fill="url(#paint17_linear_266_10)"/>
<rect x="54.5" y="54.5" width="81" height="81" rx="17.5" fill="#0A0E12" stroke="url(#paint18_linear_266_10)" stroke-width="3"/>
<rect opacity="0.2" x="143" y="54" width="82" height="82" rx="18" stroke="url(#paint19_linear_266_10)" stroke-width="2"/>
<rect opacity="0.2" x="143" y="143" width="82" height="82" rx="18" stroke="url(#paint20_linear_266_10)" stroke-width="2"/>
<rect opacity="0.2" x="54" y="143" width="82" height="82" rx="18" stroke="url(#paint21_linear_266_10)" stroke-width="2"/>
<rect opacity="0.2" x="232" y="54" width="82" height="82" rx="18" stroke="url(#paint22_linear_266_10)" stroke-width="2"/>
<rect opacity="0.2" x="232" y="143" width="82" height="82" rx="18" stroke="url(#paint23_linear_266_10)" stroke-width="2"/>
<rect opacity="0.2" x="321" y="54" width="82" height="82" rx="18" stroke="url(#paint24_linear_266_10)" stroke-width="2"/>
<rect opacity="0.2" x="321" y="143" width="82" height="82" rx="18" stroke="url(#paint25_linear_266_10)" stroke-width="2"/>
<rect opacity="0.2" x="410" y="54" width="82" height="82" rx="18" stroke="url(#paint26_linear_266_10)" stroke-width="2"/>
<rect opacity="0.2" x="410" y="143" width="82" height="82" rx="18" stroke="url(#paint27_linear_266_10)" stroke-width="2"/>
<path d="M95.5251 78C86.3836 78 79 85.3836 79 94.5251C79 103.616 86.3836 111 95.5251 111C104.616 111 112 103.616 112 94.5251C112 85.3836 104.616 78 95.5251 78ZM91.0046 103.616C89.1963 100.804 88.4429 100 87.589 98.7443C83.4201 92.6164 87.5388 87.6941 89.7489 86.1872C92.9635 83.9772 98.8402 83.4749 102.205 88.2466C102.557 88.7489 102.356 89.5023 101.854 89.8539C101.352 90.2055 100.548 90.2557 100.146 89.653C98.4384 87.0913 94.2694 86.137 91.3059 88.1461C88.3425 90.1553 87.2877 94.0228 89.5982 97.137C91.5571 99.8493 92.3607 100.954 93.1644 102.21C94.0685 103.767 92.0594 105.123 91.0046 103.616ZM97.2831 104.219C97.032 104.37 96.1279 104.772 95.5251 103.767C94.9224 102.763 94.9726 102.863 94.4703 101.959C93.968 101.055 94.6712 100.402 94.9224 100.251C95.1735 100.1 96.0274 99.6484 96.6301 100.703C96.6301 100.703 97.1324 101.557 97.6849 102.511C98.2877 103.416 97.5845 104.068 97.2831 104.219ZM99.242 102.311C97.7352 99.6986 96.8311 97.9909 93.968 94.274C93.0639 93.1187 95.0228 91.5616 96.0274 92.8676C98.0868 95.4795 100.397 99.1461 101.352 100.854C102.205 102.562 100.046 103.667 99.242 102.311ZM102.155 99.6986C101.251 98.1918 98.4384 93.3196 96.4795 91.5114C94.7717 89.9041 91.6073 92.0639 92.411 94.274C92.6621 94.9772 93.7671 96.3836 94.4703 97.3379C95.5753 98.7945 93.4155 100 92.411 98.7443C91.4064 97.4886 91.1553 97.0365 90.4018 95.7808C89.7489 94.6758 89.2466 91.3105 91.9589 89.5023C94.6712 87.6438 97.6347 88.7991 98.6393 90.0548C99.6438 91.3105 102.658 95.3288 104.265 98.4429C105.068 99.7489 103.009 101.155 102.155 99.6986ZM105.32 94.8767C105.068 95.0776 104.215 95.4795 103.562 94.5251C102.909 93.5708 102.959 93.6712 102.406 92.8174C101.804 91.9635 102.507 91.2603 102.758 91.0594C103.009 90.9087 103.813 90.4064 104.516 91.411C104.516 91.411 105.068 92.2146 105.671 93.1187C106.274 94.0228 105.571 94.726 105.32 94.8767Z" fill="url(#paint28_linear_266_10)"/>
<defs>
<filter id="filter0_f_266_10" x="26" y="24" width="138" height="140" filterUnits="userSpaceOnUse" color-interpolation-filters="sRGB">
<feFlood flood-opacity="0" result="BackgroundImageFix"/>
<feBlend mode="normal" in="SourceGraphic" in2="BackgroundImageFix" result="shape"/>
<feGaussianBlur stdDeviation="12" result="effect1_foregroundBlur_266_10"/>
</filter>
<linearGradient id="paint0_linear_266_10" x1="143.573" y1="136.262" x2="181.677" y2="32.6947" gradientUnits="userSpaceOnUse">
<stop stop-color="#3C9DFE"/>
<stop offset="1" stop-color="#D632BC"/>
</linearGradient>
<linearGradient id="paint1_linear_266_10" x1="256" y1="75.4392" x2="290.896" y2="99.1633" gradientUnits="userSpaceOnUse">
<stop stop-color="#8B99DC"/>
<stop offset="1" stop-color="#EDD1FE"/>
</linearGradient>
<linearGradient id="paint2_linear_266_10" x1="261" y1="165.702" x2="290.021" y2="180.381" gradientUnits="userSpaceOnUse">
<stop stop-color="#8B99DC"/>
<stop offset="1" stop-color="#EDD1FE"/>
</linearGradient>
<linearGradient id="paint3_linear_266_10" x1="172" y1="165.439" x2="200.742" y2="178.838" gradientUnits="userSpaceOnUse">
<stop stop-color="#8B99DC"/>
<stop offset="1" stop-color="#EDD1FE"/>
</linearGradient>
<linearGradient id="paint4_linear_266_10" x1="446.217" y1="87.8101" x2="459.77" y2="92.0871" gradientUnits="userSpaceOnUse">
<stop stop-color="#8B99DC"/>
<stop offset="1" stop-color="#EDD1FE"/>
</linearGradient>
<linearGradient id="paint5_linear_266_10" x1="439.055" y1="87.8101" x2="454.703" y2="93.7393" gradientUnits="userSpaceOnUse">
<stop stop-color="#8B99DC"/>
<stop offset="1" stop-color="#EDD1FE"/>
</linearGradient>
<linearGradient id="paint6_linear_266_10" x1="437.449" y1="87.8101" x2="454.545" y2="95.1352" gradientUnits="userSpaceOnUse">
<stop stop-color="#8B99DC"/>
<stop offset="1" stop-color="#EDD1FE"/>
</linearGradient>
<linearGradient id="paint7_linear_266_10" x1="439.055" y1="79.5158" x2="448.338" y2="82.7974" gradientUnits="userSpaceOnUse">
<stop stop-color="#8B99DC"/>
<stop offset="1" stop-color="#EDD1FE"/>
</linearGradient>
<linearGradient id="paint8_linear_266_10" x1="451.328" y1="87.8101" x2="466.976" y2="93.7393" gradientUnits="userSpaceOnUse">
<stop stop-color="#8B99DC"/>
<stop offset="1" stop-color="#EDD1FE"/>
</linearGradient>
<linearGradient id="paint9_linear_266_10" x1="451.328" y1="87.8101" x2="468.424" y2="95.1352" gradientUnits="userSpaceOnUse">
<stop stop-color="#8B99DC"/>
<stop offset="1" stop-color="#EDD1FE"/>
</linearGradient>
<linearGradient id="paint10_linear_266_10" x1="456.439" y1="79.5158" x2="465.723" y2="82.7974" gradientUnits="userSpaceOnUse">
<stop stop-color="#8B99DC"/>
<stop offset="1" stop-color="#EDD1FE"/>
</linearGradient>
<linearGradient id="paint11_linear_266_10" x1="164" y1="63.5028" x2="211.904" y2="87.3467" gradientUnits="userSpaceOnUse">
<stop stop-color="#8B99DC"/>
<stop offset="1" stop-color="#EDD1FE"/>
</linearGradient>
<linearGradient id="paint12_linear_266_10" x1="346" y1="70.8646" x2="383.283" y2="89.5536" gradientUnits="userSpaceOnUse">
<stop stop-color="#8B99DC"/>
<stop offset="1" stop-color="#EDD1FE"/>
</linearGradient>
<linearGradient id="paint13_linear_266_10" x1="79.4141" y1="173.195" x2="94.5051" y2="194.696" gradientUnits="userSpaceOnUse">
<stop stop-color="#8B99DC"/>
<stop offset="1" stop-color="#EDD1FE"/>
</linearGradient>
<linearGradient id="paint14_linear_266_10" x1="78" y1="187.581" x2="86.0477" y2="204.934" gradientUnits="userSpaceOnUse">
<stop stop-color="#8B99DC"/>
<stop offset="1" stop-color="#EDD1FE"/>
</linearGradient>
<linearGradient id="paint15_linear_266_10" x1="105.786" y1="187.091" x2="113.302" y2="190.796" gradientUnits="userSpaceOnUse">
<stop stop-color="#8B99DC"/>
<stop offset="1" stop-color="#EDD1FE"/>
</linearGradient>
<linearGradient id="paint16_linear_266_10" x1="347" y1="161.132" x2="382.366" y2="178.306" gradientUnits="userSpaceOnUse">
<stop stop-color="#8B99DC"/>
<stop offset="1" stop-color="#EDD1FE"/>
</linearGradient>
<linearGradient id="paint17_linear_266_10" x1="442" y1="161.127" x2="467.306" y2="168.91" gradientUnits="userSpaceOnUse">
<stop stop-color="#8B99DC"/>
<stop offset="1" stop-color="#EDD1FE"/>
</linearGradient>
<linearGradient id="paint18_linear_266_10" x1="95" y1="53" x2="47.3728" y2="123.497" gradientUnits="userSpaceOnUse">
<stop stop-color="#8B99DC"/>
<stop offset="1" stop-color="#EDD1FE"/>
</linearGradient>
<linearGradient id="paint19_linear_266_10" x1="184" y1="53" x2="136.373" y2="123.497" gradientUnits="userSpaceOnUse">
<stop stop-color="#8B99DC"/>
<stop offset="1" stop-color="#EDD1FE"/>
</linearGradient>
<linearGradient id="paint20_linear_266_10" x1="184" y1="142" x2="136.373" y2="212.497" gradientUnits="userSpaceOnUse">
<stop stop-color="#8B99DC"/>
<stop offset="1" stop-color="#EDD1FE"/>
</linearGradient>
<linearGradient id="paint21_linear_266_10" x1="95" y1="142" x2="47.3728" y2="212.497" gradientUnits="userSpaceOnUse">
<stop stop-color="#8B99DC"/>
<stop offset="1" stop-color="#EDD1FE"/>
</linearGradient>
<linearGradient id="paint22_linear_266_10" x1="273" y1="53" x2="225.373" y2="123.497" gradientUnits="userSpaceOnUse">
<stop stop-color="#8B99DC"/>
<stop offset="1" stop-color="#EDD1FE"/>
</linearGradient>
<linearGradient id="paint23_linear_266_10" x1="273" y1="142" x2="225.373" y2="212.497" gradientUnits="userSpaceOnUse">
<stop stop-color="#8B99DC"/>
<stop offset="1" stop-color="#EDD1FE"/>
</linearGradient>
<linearGradient id="paint24_linear_266_10" x1="362" y1="53" x2="314.373" y2="123.497" gradientUnits="userSpaceOnUse">
<stop stop-color="#8B99DC"/>
<stop offset="1" stop-color="#EDD1FE"/>
</linearGradient>
<linearGradient id="paint25_linear_266_10" x1="362" y1="142" x2="314.373" y2="212.497" gradientUnits="userSpaceOnUse">
<stop stop-color="#8B99DC"/>
<stop offset="1" stop-color="#EDD1FE"/>
</linearGradient>
<linearGradient id="paint26_linear_266_10" x1="451" y1="53" x2="403.373" y2="123.497" gradientUnits="userSpaceOnUse">
<stop stop-color="#8B99DC"/>
<stop offset="1" stop-color="#EDD1FE"/>
</linearGradient>
<linearGradient id="paint27_linear_266_10" x1="451" y1="142" x2="403.373" y2="212.497" gradientUnits="userSpaceOnUse">
<stop stop-color="#8B99DC"/>
<stop offset="1" stop-color="#EDD1FE"/>
</linearGradient>
<linearGradient id="paint28_linear_266_10" x1="79" y1="69.3398" x2="117.929" y2="88.244" gradientUnits="userSpaceOnUse">
<stop stop-color="#8B99DC"/>
<stop offset="1" stop-color="#EDD1FE"/>
</linearGradient>
</defs>
</svg>
