<svg width="424" height="236" viewBox="0 0 424 236" fill="none" xmlns="http://www.w3.org/2000/svg">
<rect width="423.68" height="236" rx="20" fill="#0A0E12"/>
<mask id="path-2-outside-1_264_3" maskUnits="userSpaceOnUse" x="57.8252" y="104.745" width="308" height="27" fill="black">
<rect fill="white" x="57.8252" y="104.745" width="308" height="27"/>
<path d="M62.4488 129.848L72.0113 107.917H60.637V112.806H58.8252V106.152H74.058V107.951L64.6297 129.848H62.4488Z"/>
<path d="M98.6052 129.848V124.891H86.7947V123.092L97.6992 106.152H100.518V123.228H104.175V124.891H100.518V129.848H98.6052ZM88.6066 123.228H98.6052V107.884H98.5045L88.6066 123.228Z"/>
<path d="M123.555 129.848V120.275L115.2 106.152H117.516L124.494 118.238H124.629L131.675 106.152H133.923L125.568 120.275V129.848H123.555Z"/>
<path d="M189.056 107.917H178.454L177.716 117.864L177.917 117.898C178.521 117.061 179.214 116.438 179.997 116.031C180.803 115.601 181.832 115.386 183.084 115.386C184.113 115.386 185.053 115.556 185.903 115.895C186.775 116.212 187.513 116.687 188.117 117.321C188.721 117.932 189.191 118.69 189.526 119.596C189.862 120.478 190.029 121.485 190.029 122.617C190.029 123.771 189.851 124.824 189.493 125.774C189.157 126.702 188.654 127.505 187.983 128.184C187.334 128.841 186.54 129.35 185.601 129.712C184.661 130.074 183.61 130.255 182.447 130.255C181.53 130.255 180.691 130.153 179.93 129.95C179.192 129.769 178.521 129.508 177.917 129.169C177.336 128.807 176.81 128.388 176.34 127.913C175.87 127.438 175.457 126.928 175.099 126.385L176.642 125.231C177.291 126.249 178.051 127.053 178.924 127.641C179.818 128.207 181.004 128.49 182.48 128.49C184.225 128.49 185.567 127.992 186.506 126.996C187.468 126 187.949 124.688 187.949 123.058V122.515C187.949 120.863 187.48 119.55 186.54 118.577C185.623 117.604 184.292 117.117 182.547 117.117C181.921 117.117 181.373 117.174 180.903 117.287C180.434 117.378 180.009 117.525 179.628 117.728C179.27 117.909 178.935 118.136 178.622 118.407C178.309 118.656 178.007 118.951 177.716 119.29L175.971 119.018L176.81 106.152H189.056V107.917Z"/>
<path d="M211.591 130.255C210.316 130.255 209.175 130.085 208.168 129.746C207.184 129.406 206.345 128.943 205.652 128.354C204.981 127.766 204.466 127.064 204.108 126.249C203.773 125.412 203.605 124.507 203.605 123.534C203.605 121.881 204.041 120.557 204.914 119.562C205.808 118.543 207.005 117.864 208.504 117.525V117.287C207.229 116.925 206.211 116.257 205.45 115.284C204.712 114.311 204.343 113.112 204.343 111.686C204.343 109.875 204.981 108.438 206.256 107.374C207.531 106.288 209.309 105.745 211.591 105.745C213.872 105.745 215.65 106.288 216.925 107.374C218.2 108.438 218.838 109.875 218.838 111.686C218.838 113.112 218.458 114.311 217.697 115.284C216.959 116.257 215.952 116.925 214.677 117.287V117.525C216.176 117.864 217.362 118.543 218.234 119.562C219.129 120.557 219.576 121.881 219.576 123.534C219.576 124.507 219.397 125.412 219.039 126.249C218.704 127.064 218.189 127.766 217.496 128.354C216.825 128.943 215.986 129.406 214.979 129.746C213.995 130.085 212.866 130.255 211.591 130.255ZM211.591 128.524C213.402 128.524 214.834 128.094 215.885 127.234C216.959 126.374 217.496 125.22 217.496 123.771V122.99C217.496 121.519 216.97 120.365 215.919 119.528C214.867 118.668 213.425 118.238 211.591 118.238C209.756 118.238 208.314 118.668 207.262 119.528C206.211 120.365 205.685 121.519 205.685 122.99V123.771C205.685 125.22 206.211 126.374 207.262 127.234C208.336 128.094 209.779 128.524 211.591 128.524ZM211.591 116.574C213.223 116.574 214.498 116.201 215.415 115.454C216.333 114.684 216.791 113.643 216.791 112.331V111.72C216.791 110.407 216.321 109.377 215.382 108.63C214.465 107.861 213.201 107.476 211.591 107.476C209.98 107.476 208.705 107.861 207.766 108.63C206.848 109.377 206.39 110.407 206.39 111.72V112.331C206.39 113.643 206.848 114.684 207.766 115.454C208.683 116.201 209.958 116.574 211.591 116.574Z"/>
<path d="M239.728 116.54C241.383 116.54 242.669 116.144 243.586 115.352C244.503 114.537 244.962 113.485 244.962 112.195V111.754C244.962 110.396 244.515 109.355 243.62 108.63C242.748 107.884 241.607 107.51 240.198 107.51C238.811 107.51 237.703 107.804 236.876 108.393C236.048 108.959 235.388 109.717 234.896 110.667L233.386 109.581C233.655 109.083 233.99 108.608 234.393 108.155C234.818 107.68 235.299 107.261 235.836 106.899C236.395 106.537 237.032 106.254 237.748 106.05C238.486 105.847 239.314 105.745 240.231 105.745C241.215 105.745 242.121 105.881 242.949 106.152C243.799 106.424 244.526 106.82 245.13 107.34C245.734 107.838 246.203 108.461 246.539 109.207C246.897 109.932 247.076 110.758 247.076 111.686C247.076 112.478 246.953 113.191 246.707 113.824C246.483 114.458 246.159 115.001 245.734 115.454C245.331 115.907 244.839 116.291 244.257 116.608C243.698 116.902 243.094 117.129 242.446 117.287V117.423C243.139 117.536 243.799 117.751 244.425 118.068C245.051 118.362 245.588 118.758 246.036 119.256C246.505 119.754 246.874 120.354 247.143 121.055C247.411 121.757 247.546 122.549 247.546 123.432C247.546 124.45 247.367 125.389 247.009 126.249C246.651 127.087 246.136 127.8 245.465 128.388C244.794 128.976 243.989 129.44 243.05 129.78C242.11 130.097 241.059 130.255 239.896 130.255C238.956 130.255 238.106 130.153 237.346 129.95C236.585 129.769 235.903 129.508 235.299 129.169C234.695 128.807 234.158 128.388 233.688 127.913C233.219 127.438 232.805 126.928 232.447 126.385L233.957 125.231C234.605 126.249 235.388 127.053 236.305 127.641C237.223 128.207 238.419 128.49 239.896 128.49C241.618 128.49 242.971 128.06 243.955 127.2C244.94 126.317 245.432 125.129 245.432 123.635V123.092C245.432 121.598 244.951 120.433 243.989 119.596C243.05 118.736 241.674 118.306 239.862 118.306H236.909V116.54H239.728Z"/>
<path d="M272.663 129.848V124.891H260.853V123.092L271.757 106.152H274.576V123.228H278.233V124.891H274.576V129.848H272.663ZM262.665 123.228H272.663V107.884H272.562L262.665 123.228Z"/>
<path d="M352.545 129.848L362.108 107.917H350.734V112.806H348.922V106.152H364.155V107.951L354.726 129.848H352.545Z"/>
</mask>
<path d="M62.4488 129.848L72.0113 107.917H60.637V112.806H58.8252V106.152H74.058V107.951L64.6297 129.848H62.4488Z" fill="#CCBFF3"/>
<path d="M98.6052 129.848V124.891H86.7947V123.092L97.6992 106.152H100.518V123.228H104.175V124.891H100.518V129.848H98.6052ZM88.6066 123.228H98.6052V107.884H98.5045L88.6066 123.228Z" fill="#CCBFF3"/>
<path d="M123.555 129.848V120.275L115.2 106.152H117.516L124.494 118.238H124.629L131.675 106.152H133.923L125.568 120.275V129.848H123.555Z" fill="#CCBFF3"/>
<path d="M189.056 107.917H178.454L177.716 117.864L177.917 117.898C178.521 117.061 179.214 116.438 179.997 116.031C180.803 115.601 181.832 115.386 183.084 115.386C184.113 115.386 185.053 115.556 185.903 115.895C186.775 116.212 187.513 116.687 188.117 117.321C188.721 117.932 189.191 118.69 189.526 119.596C189.862 120.478 190.029 121.485 190.029 122.617C190.029 123.771 189.851 124.824 189.493 125.774C189.157 126.702 188.654 127.505 187.983 128.184C187.334 128.841 186.54 129.35 185.601 129.712C184.661 130.074 183.61 130.255 182.447 130.255C181.53 130.255 180.691 130.153 179.93 129.95C179.192 129.769 178.521 129.508 177.917 129.169C177.336 128.807 176.81 128.388 176.34 127.913C175.87 127.438 175.457 126.928 175.099 126.385L176.642 125.231C177.291 126.249 178.051 127.053 178.924 127.641C179.818 128.207 181.004 128.49 182.48 128.49C184.225 128.49 185.567 127.992 186.506 126.996C187.468 126 187.949 124.688 187.949 123.058V122.515C187.949 120.863 187.48 119.55 186.54 118.577C185.623 117.604 184.292 117.117 182.547 117.117C181.921 117.117 181.373 117.174 180.903 117.287C180.434 117.378 180.009 117.525 179.628 117.728C179.27 117.909 178.935 118.136 178.622 118.407C178.309 118.656 178.007 118.951 177.716 119.29L175.971 119.018L176.81 106.152H189.056V107.917Z" fill="#CCBFF3"/>
<path d="M211.591 130.255C210.316 130.255 209.175 130.085 208.168 129.746C207.184 129.406 206.345 128.943 205.652 128.354C204.981 127.766 204.466 127.064 204.108 126.249C203.773 125.412 203.605 124.507 203.605 123.534C203.605 121.881 204.041 120.557 204.914 119.562C205.808 118.543 207.005 117.864 208.504 117.525V117.287C207.229 116.925 206.211 116.257 205.45 115.284C204.712 114.311 204.343 113.112 204.343 111.686C204.343 109.875 204.981 108.438 206.256 107.374C207.531 106.288 209.309 105.745 211.591 105.745C213.872 105.745 215.65 106.288 216.925 107.374C218.2 108.438 218.838 109.875 218.838 111.686C218.838 113.112 218.458 114.311 217.697 115.284C216.959 116.257 215.952 116.925 214.677 117.287V117.525C216.176 117.864 217.362 118.543 218.234 119.562C219.129 120.557 219.576 121.881 219.576 123.534C219.576 124.507 219.397 125.412 219.039 126.249C218.704 127.064 218.189 127.766 217.496 128.354C216.825 128.943 215.986 129.406 214.979 129.746C213.995 130.085 212.866 130.255 211.591 130.255ZM211.591 128.524C213.402 128.524 214.834 128.094 215.885 127.234C216.959 126.374 217.496 125.22 217.496 123.771V122.99C217.496 121.519 216.97 120.365 215.919 119.528C214.867 118.668 213.425 118.238 211.591 118.238C209.756 118.238 208.314 118.668 207.262 119.528C206.211 120.365 205.685 121.519 205.685 122.99V123.771C205.685 125.22 206.211 126.374 207.262 127.234C208.336 128.094 209.779 128.524 211.591 128.524ZM211.591 116.574C213.223 116.574 214.498 116.201 215.415 115.454C216.333 114.684 216.791 113.643 216.791 112.331V111.72C216.791 110.407 216.321 109.377 215.382 108.63C214.465 107.861 213.201 107.476 211.591 107.476C209.98 107.476 208.705 107.861 207.766 108.63C206.848 109.377 206.39 110.407 206.39 111.72V112.331C206.39 113.643 206.848 114.684 207.766 115.454C208.683 116.201 209.958 116.574 211.591 116.574Z" fill="#CCBFF3"/>
<path d="M239.728 116.54C241.383 116.54 242.669 116.144 243.586 115.352C244.503 114.537 244.962 113.485 244.962 112.195V111.754C244.962 110.396 244.515 109.355 243.62 108.63C242.748 107.884 241.607 107.51 240.198 107.51C238.811 107.51 237.703 107.804 236.876 108.393C236.048 108.959 235.388 109.717 234.896 110.667L233.386 109.581C233.655 109.083 233.99 108.608 234.393 108.155C234.818 107.68 235.299 107.261 235.836 106.899C236.395 106.537 237.032 106.254 237.748 106.05C238.486 105.847 239.314 105.745 240.231 105.745C241.215 105.745 242.121 105.881 242.949 106.152C243.799 106.424 244.526 106.82 245.13 107.34C245.734 107.838 246.203 108.461 246.539 109.207C246.897 109.932 247.076 110.758 247.076 111.686C247.076 112.478 246.953 113.191 246.707 113.824C246.483 114.458 246.159 115.001 245.734 115.454C245.331 115.907 244.839 116.291 244.257 116.608C243.698 116.902 243.094 117.129 242.446 117.287V117.423C243.139 117.536 243.799 117.751 244.425 118.068C245.051 118.362 245.588 118.758 246.036 119.256C246.505 119.754 246.874 120.354 247.143 121.055C247.411 121.757 247.546 122.549 247.546 123.432C247.546 124.45 247.367 125.389 247.009 126.249C246.651 127.087 246.136 127.8 245.465 128.388C244.794 128.976 243.989 129.44 243.05 129.78C242.11 130.097 241.059 130.255 239.896 130.255C238.956 130.255 238.106 130.153 237.346 129.95C236.585 129.769 235.903 129.508 235.299 129.169C234.695 128.807 234.158 128.388 233.688 127.913C233.219 127.438 232.805 126.928 232.447 126.385L233.957 125.231C234.605 126.249 235.388 127.053 236.305 127.641C237.223 128.207 238.419 128.49 239.896 128.49C241.618 128.49 242.971 128.06 243.955 127.2C244.94 126.317 245.432 125.129 245.432 123.635V123.092C245.432 121.598 244.951 120.433 243.989 119.596C243.05 118.736 241.674 118.306 239.862 118.306H236.909V116.54H239.728Z" fill="#CCBFF3"/>
<path d="M272.663 129.848V124.891H260.853V123.092L271.757 106.152H274.576V123.228H278.233V124.891H274.576V129.848H272.663ZM262.665 123.228H272.663V107.884H272.562L262.665 123.228Z" fill="#CCBFF3"/>
<path d="M352.545 129.848L362.108 107.917H350.734V112.806H348.922V106.152H364.155V107.951L354.726 129.848H352.545Z" fill="#CCBFF3"/>
<path d="M62.4488 129.848L72.0113 107.917H60.637V112.806H58.8252V106.152H74.058V107.951L64.6297 129.848H62.4488Z" stroke="black" stroke-width="2" mask="url(#path-2-outside-1_264_3)"/>
<path d="M98.6052 129.848V124.891H86.7947V123.092L97.6992 106.152H100.518V123.228H104.175V124.891H100.518V129.848H98.6052ZM88.6066 123.228H98.6052V107.884H98.5045L88.6066 123.228Z" stroke="black" stroke-width="2" mask="url(#path-2-outside-1_264_3)"/>
<path d="M123.555 129.848V120.275L115.2 106.152H117.516L124.494 118.238H124.629L131.675 106.152H133.923L125.568 120.275V129.848H123.555Z" stroke="black" stroke-width="2" mask="url(#path-2-outside-1_264_3)"/>
<path d="M189.056 107.917H178.454L177.716 117.864L177.917 117.898C178.521 117.061 179.214 116.438 179.997 116.031C180.803 115.601 181.832 115.386 183.084 115.386C184.113 115.386 185.053 115.556 185.903 115.895C186.775 116.212 187.513 116.687 188.117 117.321C188.721 117.932 189.191 118.69 189.526 119.596C189.862 120.478 190.029 121.485 190.029 122.617C190.029 123.771 189.851 124.824 189.493 125.774C189.157 126.702 188.654 127.505 187.983 128.184C187.334 128.841 186.54 129.35 185.601 129.712C184.661 130.074 183.61 130.255 182.447 130.255C181.53 130.255 180.691 130.153 179.93 129.95C179.192 129.769 178.521 129.508 177.917 129.169C177.336 128.807 176.81 128.388 176.34 127.913C175.87 127.438 175.457 126.928 175.099 126.385L176.642 125.231C177.291 126.249 178.051 127.053 178.924 127.641C179.818 128.207 181.004 128.49 182.48 128.49C184.225 128.49 185.567 127.992 186.506 126.996C187.468 126 187.949 124.688 187.949 123.058V122.515C187.949 120.863 187.48 119.55 186.54 118.577C185.623 117.604 184.292 117.117 182.547 117.117C181.921 117.117 181.373 117.174 180.903 117.287C180.434 117.378 180.009 117.525 179.628 117.728C179.27 117.909 178.935 118.136 178.622 118.407C178.309 118.656 178.007 118.951 177.716 119.29L175.971 119.018L176.81 106.152H189.056V107.917Z" stroke="black" stroke-width="2" mask="url(#path-2-outside-1_264_3)"/>
<path d="M211.591 130.255C210.316 130.255 209.175 130.085 208.168 129.746C207.184 129.406 206.345 128.943 205.652 128.354C204.981 127.766 204.466 127.064 204.108 126.249C203.773 125.412 203.605 124.507 203.605 123.534C203.605 121.881 204.041 120.557 204.914 119.562C205.808 118.543 207.005 117.864 208.504 117.525V117.287C207.229 116.925 206.211 116.257 205.45 115.284C204.712 114.311 204.343 113.112 204.343 111.686C204.343 109.875 204.981 108.438 206.256 107.374C207.531 106.288 209.309 105.745 211.591 105.745C213.872 105.745 215.65 106.288 216.925 107.374C218.2 108.438 218.838 109.875 218.838 111.686C218.838 113.112 218.458 114.311 217.697 115.284C216.959 116.257 215.952 116.925 214.677 117.287V117.525C216.176 117.864 217.362 118.543 218.234 119.562C219.129 120.557 219.576 121.881 219.576 123.534C219.576 124.507 219.397 125.412 219.039 126.249C218.704 127.064 218.189 127.766 217.496 128.354C216.825 128.943 215.986 129.406 214.979 129.746C213.995 130.085 212.866 130.255 211.591 130.255ZM211.591 128.524C213.402 128.524 214.834 128.094 215.885 127.234C216.959 126.374 217.496 125.22 217.496 123.771V122.99C217.496 121.519 216.97 120.365 215.919 119.528C214.867 118.668 213.425 118.238 211.591 118.238C209.756 118.238 208.314 118.668 207.262 119.528C206.211 120.365 205.685 121.519 205.685 122.99V123.771C205.685 125.22 206.211 126.374 207.262 127.234C208.336 128.094 209.779 128.524 211.591 128.524ZM211.591 116.574C213.223 116.574 214.498 116.201 215.415 115.454C216.333 114.684 216.791 113.643 216.791 112.331V111.72C216.791 110.407 216.321 109.377 215.382 108.63C214.465 107.861 213.201 107.476 211.591 107.476C209.98 107.476 208.705 107.861 207.766 108.63C206.848 109.377 206.39 110.407 206.39 111.72V112.331C206.39 113.643 206.848 114.684 207.766 115.454C208.683 116.201 209.958 116.574 211.591 116.574Z" stroke="black" stroke-width="2" mask="url(#path-2-outside-1_264_3)"/>
<path d="M239.728 116.54C241.383 116.54 242.669 116.144 243.586 115.352C244.503 114.537 244.962 113.485 244.962 112.195V111.754C244.962 110.396 244.515 109.355 243.62 108.63C242.748 107.884 241.607 107.51 240.198 107.51C238.811 107.51 237.703 107.804 236.876 108.393C236.048 108.959 235.388 109.717 234.896 110.667L233.386 109.581C233.655 109.083 233.99 108.608 234.393 108.155C234.818 107.68 235.299 107.261 235.836 106.899C236.395 106.537 237.032 106.254 237.748 106.05C238.486 105.847 239.314 105.745 240.231 105.745C241.215 105.745 242.121 105.881 242.949 106.152C243.799 106.424 244.526 106.82 245.13 107.34C245.734 107.838 246.203 108.461 246.539 109.207C246.897 109.932 247.076 110.758 247.076 111.686C247.076 112.478 246.953 113.191 246.707 113.824C246.483 114.458 246.159 115.001 245.734 115.454C245.331 115.907 244.839 116.291 244.257 116.608C243.698 116.902 243.094 117.129 242.446 117.287V117.423C243.139 117.536 243.799 117.751 244.425 118.068C245.051 118.362 245.588 118.758 246.036 119.256C246.505 119.754 246.874 120.354 247.143 121.055C247.411 121.757 247.546 122.549 247.546 123.432C247.546 124.45 247.367 125.389 247.009 126.249C246.651 127.087 246.136 127.8 245.465 128.388C244.794 128.976 243.989 129.44 243.05 129.78C242.11 130.097 241.059 130.255 239.896 130.255C238.956 130.255 238.106 130.153 237.346 129.95C236.585 129.769 235.903 129.508 235.299 129.169C234.695 128.807 234.158 128.388 233.688 127.913C233.219 127.438 232.805 126.928 232.447 126.385L233.957 125.231C234.605 126.249 235.388 127.053 236.305 127.641C237.223 128.207 238.419 128.49 239.896 128.49C241.618 128.49 242.971 128.06 243.955 127.2C244.94 126.317 245.432 125.129 245.432 123.635V123.092C245.432 121.598 244.951 120.433 243.989 119.596C243.05 118.736 241.674 118.306 239.862 118.306H236.909V116.54H239.728Z" stroke="black" stroke-width="2" mask="url(#path-2-outside-1_264_3)"/>
<path d="M272.663 129.848V124.891H260.853V123.092L271.757 106.152H274.576V123.228H278.233V124.891H274.576V129.848H272.663ZM262.665 123.228H272.663V107.884H272.562L262.665 123.228Z" stroke="black" stroke-width="2" mask="url(#path-2-outside-1_264_3)"/>
<path d="M352.545 129.848L362.108 107.917H350.734V112.806H348.922V106.152H364.155V107.951L354.726 129.848H352.545Z" stroke="black" stroke-width="2" mask="url(#path-2-outside-1_264_3)"/>
<path d="M333.83 122.746H334.33V122.246V120.451V119.951H333.83H322.342H321.871L321.842 120.421L321.056 133.505L321.029 133.953L321.471 134.028L323.108 134.304L323.4 134.353L323.584 134.121C323.839 133.797 324.101 133.522 324.367 133.292L324.376 133.285L324.384 133.278C324.648 133.029 324.929 132.824 325.226 132.661L325.226 132.661L325.236 132.655C325.543 132.477 325.891 132.346 326.284 132.264L326.296 132.261L326.308 132.258C326.697 132.156 327.167 132.102 327.724 132.102C329.254 132.102 330.349 132.56 331.092 133.414L331.092 133.414L331.096 133.419C331.875 134.294 332.291 135.499 332.291 137.09V137.643C332.291 139.206 331.868 140.413 331.064 141.315L331.064 141.315L331.06 141.319C330.295 142.199 329.187 142.666 327.661 142.666C326.345 142.666 325.344 142.393 324.613 141.895C323.862 141.344 323.194 140.584 322.615 139.599L322.321 139.098L321.869 139.464L320.421 140.638L320.082 140.913L320.309 141.286C320.662 141.866 321.069 142.409 321.531 142.916C321.999 143.429 322.522 143.881 323.1 144.271L323.11 144.278L323.12 144.284C323.729 144.655 324.402 144.937 325.135 145.132C325.898 145.354 326.731 145.461 327.629 145.461C328.777 145.461 329.83 145.268 330.78 144.87C331.725 144.476 332.531 143.917 333.192 143.192C333.871 142.448 334.377 141.57 334.712 140.566C335.068 139.54 335.242 138.414 335.242 137.194C335.242 135.999 335.079 134.918 334.743 133.958C334.41 132.985 333.938 132.153 333.321 131.475C332.703 130.773 331.947 130.247 331.062 129.897C330.197 129.524 329.25 129.341 328.227 129.341C326.995 129.341 325.936 129.57 325.083 130.063C324.612 130.329 324.178 130.673 323.779 131.09L324.351 122.746H333.83Z" fill="#CCBFF3" stroke="black"/>
<path d="M303.182 156.249C303.501 156.135 303.802 156.008 304.085 155.867C304.014 155.963 303.941 156.057 303.864 156.15C303.398 156.704 302.813 157.238 302.107 157.75C301.399 158.25 300.56 158.733 299.586 159.196C298.605 159.663 297.493 160.131 296.248 160.6L296.425 161.568H298.957H299.041L299.12 161.541C300.204 161.166 301.255 160.712 302.273 160.18L302.273 160.18C303.319 159.632 304.259 159.008 305.09 158.308C305.929 157.601 306.606 156.814 307.113 155.943C307.656 155.039 307.93 154.057 307.93 153.008C307.93 152.252 307.748 151.552 307.38 150.918C307.03 150.267 306.502 149.73 305.817 149.303C305.15 148.861 304.325 148.536 303.358 148.314C302.401 148.078 301.3 147.963 300.061 147.963C298.928 147.963 297.886 148.066 296.936 148.276C295.992 148.473 295.165 148.759 294.464 149.143C293.782 149.516 293.232 149.984 292.834 150.554C292.428 151.124 292.224 151.77 292.224 152.475C292.224 153.155 292.416 153.781 292.798 154.338L292.798 154.338L292.802 154.343C293.179 154.88 293.708 155.324 294.367 155.684L294.367 155.684L294.373 155.687C295.028 156.032 295.786 156.294 296.644 156.479L296.646 156.48C297.53 156.666 298.495 156.757 299.541 156.757C300.961 156.757 302.178 156.594 303.177 156.25L303.177 156.25L303.182 156.249ZM303.777 150.604L303.777 150.604L303.785 150.608C304.623 151.056 304.95 151.596 304.95 152.227V152.529C304.95 153.161 304.621 153.708 303.781 154.167C302.955 154.619 301.742 154.869 300.093 154.869C298.447 154.869 297.22 154.62 296.37 154.166C295.532 153.707 295.204 153.16 295.204 152.529V152.227C295.204 151.596 295.53 151.056 296.368 150.608L296.368 150.608L296.372 150.606C297.221 150.142 298.446 149.886 300.093 149.886C301.741 149.886 302.952 150.142 303.777 150.604Z" fill="#CCBFF3" stroke="black"/>
<path d="M149.074 147.49L148.572 148.263H149.494H151.8H152.073L152.221 148.033L162.19 132.502L162.269 132.378V132.232V130.956V130.456H161.769H145.662H145.162V130.956V135.675V136.175H145.662H147.578H148.078V135.675V132.708H158.683L149.074 147.49Z" fill="#CCBFF3" stroke="black"/>
<g opacity="0.2">
<path d="M66.8019 156.866C65.5283 156.866 64.3888 156.731 63.3833 156.459C62.4002 156.188 61.5623 155.816 60.8696 155.346C60.1993 154.875 59.6854 154.314 59.3279 153.662C58.9928 152.992 58.8252 152.268 58.8252 151.489C58.8252 150.167 59.2609 149.108 60.1323 148.312C61.026 147.497 62.2214 146.954 63.7185 146.682V146.492C62.4449 146.202 61.4282 145.668 60.6685 144.89C59.9312 144.111 59.5625 143.152 59.5625 142.011C59.5625 140.562 60.1993 139.413 61.4729 138.562C62.7465 137.693 64.5228 137.258 66.8019 137.258C69.0809 137.258 70.8573 137.693 72.1309 138.562C73.4044 139.413 74.0412 140.562 74.0412 142.011C74.0412 143.152 73.6614 144.111 72.9017 144.89C72.1644 145.668 71.1589 146.202 69.8853 146.492V146.682C71.3823 146.954 72.5666 147.497 73.438 148.312C74.3317 149.108 74.7786 150.167 74.7786 151.489C74.7786 152.268 74.5998 152.992 74.2423 153.662C73.9072 154.314 73.3933 154.875 72.7006 155.346C72.0303 155.816 71.1924 156.188 70.187 156.459C69.2038 156.731 68.0755 156.866 66.8019 156.866ZM66.8019 155.481C68.6117 155.481 70.0417 155.137 71.0919 154.449C72.1644 153.761 72.7006 152.838 72.7006 151.679V151.055C72.7006 149.878 72.1755 148.954 71.1254 148.284C70.0752 147.596 68.6341 147.252 66.8019 147.252C64.9697 147.252 63.5285 147.596 62.4784 148.284C61.4282 148.954 60.9032 149.878 60.9032 151.055V151.679C60.9032 152.838 61.4282 153.761 62.4784 154.449C63.5509 155.137 64.992 155.481 66.8019 155.481ZM66.8019 145.922C68.433 145.922 69.7066 145.623 70.6227 145.025C71.5387 144.41 71.9968 143.577 71.9968 142.527V142.038C71.9968 140.988 71.5276 140.164 70.5891 139.567C69.673 138.951 68.4106 138.643 66.8019 138.643C65.1931 138.643 63.9196 138.951 62.9811 139.567C62.065 140.164 61.607 140.988 61.607 142.038V142.527C61.607 143.577 62.065 144.41 62.9811 145.025C63.8972 145.623 65.1708 145.922 66.8019 145.922Z" fill="white"/>
<path d="M91.6908 156.541L101.243 138.996H89.881V142.907H88.0711V137.584H103.287V139.023L93.8693 156.541H91.6908Z" fill="white"/>
<path d="M124.791 156.866C123.54 156.866 122.434 156.704 121.473 156.378C120.535 156.034 119.741 155.563 119.093 154.965C118.445 154.35 117.954 153.617 117.619 152.766C117.306 151.897 117.15 150.946 117.15 149.914C117.15 148.447 117.395 147.089 117.887 145.84C118.401 144.573 119.06 143.423 119.864 142.391C120.691 141.359 121.629 140.445 122.68 139.648C123.73 138.833 124.802 138.145 125.897 137.584H128.511C127.193 138.308 126.02 139.033 124.992 139.757C123.987 140.481 123.104 141.25 122.344 142.065C121.585 142.862 120.948 143.722 120.434 144.645C119.942 145.569 119.551 146.583 119.261 147.687L119.395 147.714C119.976 146.863 120.747 146.193 121.708 145.704C122.668 145.197 123.864 144.944 125.294 144.944C126.344 144.944 127.294 145.08 128.143 145.351C129.014 145.623 129.763 146.012 130.388 146.519C131.014 147.008 131.494 147.615 131.829 148.339C132.164 149.045 132.332 149.842 132.332 150.729C132.332 151.652 132.153 152.494 131.796 153.254C131.438 153.997 130.936 154.64 130.288 155.183C129.64 155.708 128.846 156.124 127.908 156.432C126.97 156.722 125.931 156.866 124.791 156.866ZM124.758 155.481C126.5 155.481 127.852 155.092 128.813 154.314C129.796 153.517 130.288 152.458 130.288 151.136V150.647C130.288 149.326 129.796 148.275 128.813 147.497C127.852 146.7 126.5 146.302 124.758 146.302C122.992 146.302 121.618 146.7 120.635 147.497C119.674 148.275 119.194 149.326 119.194 150.647V151.136C119.194 152.458 119.674 153.517 120.635 154.314C121.618 155.092 122.992 155.481 124.758 155.481Z" fill="white"/>
<path d="M185.763 156.541V152.575H173.966V151.136L184.858 137.584H187.673V151.245H191.327V152.575H187.673V156.541H185.763ZM175.775 151.245H185.763V138.969H185.663L175.775 151.245Z" fill="white"/>
<path d="M210.82 145.895C212.473 145.895 213.758 145.578 214.674 144.944C215.59 144.292 216.048 143.45 216.048 142.418V142.065C216.048 140.979 215.601 140.146 214.707 139.567C213.836 138.969 212.696 138.67 211.289 138.67C209.903 138.67 208.797 138.906 207.971 139.377C207.144 139.829 206.485 140.436 205.993 141.196L204.485 140.327C204.753 139.929 205.088 139.549 205.491 139.186C205.915 138.806 206.396 138.471 206.932 138.182C207.49 137.892 208.127 137.666 208.842 137.503C209.58 137.34 210.406 137.258 211.322 137.258C212.305 137.258 213.21 137.367 214.037 137.584C214.886 137.801 215.612 138.118 216.216 138.535C216.819 138.933 217.288 139.431 217.623 140.028C217.981 140.608 218.159 141.269 218.159 142.011C218.159 142.645 218.037 143.215 217.791 143.722C217.567 144.229 217.243 144.663 216.819 145.025C216.417 145.388 215.925 145.695 215.344 145.949C214.786 146.184 214.182 146.365 213.534 146.492V146.601C214.227 146.691 214.886 146.863 215.512 147.117C216.137 147.352 216.674 147.669 217.12 148.067C217.59 148.466 217.958 148.945 218.227 149.507C218.495 150.068 218.629 150.702 218.629 151.408C218.629 152.222 218.45 152.974 218.092 153.662C217.735 154.332 217.221 154.902 216.551 155.373C215.88 155.844 215.076 156.215 214.138 156.486C213.199 156.74 212.149 156.866 210.987 156.866C210.049 156.866 209.2 156.785 208.44 156.622C207.68 156.477 206.999 156.269 206.396 155.997C205.792 155.708 205.256 155.373 204.787 154.993C204.318 154.612 203.904 154.205 203.547 153.77L205.055 152.847C205.703 153.662 206.485 154.305 207.401 154.775C208.317 155.228 209.512 155.454 210.987 155.454C212.708 155.454 214.059 155.11 215.043 154.422C216.026 153.716 216.517 152.766 216.517 151.571V151.136C216.517 149.941 216.037 149.009 215.076 148.339C214.138 147.651 212.763 147.307 210.954 147.307H208.004V145.895H210.82Z" fill="white"/>
<path d="M248.411 156.541H233.195V154.884L241.473 148.529C242.613 147.66 243.529 146.782 244.221 145.895C244.914 144.989 245.26 144.039 245.26 143.043V142.527C245.26 141.35 244.847 140.418 244.02 139.73C243.216 139.023 242.009 138.67 240.401 138.67C238.837 138.67 237.619 138.987 236.747 139.621C235.898 140.237 235.273 141.069 234.871 142.12L233.094 141.604C233.318 141.024 233.619 140.472 233.999 139.947C234.379 139.422 234.859 138.96 235.44 138.562C236.044 138.163 236.759 137.847 237.585 137.611C238.412 137.376 239.362 137.258 240.434 137.258C241.551 137.258 242.534 137.394 243.384 137.666C244.255 137.919 244.981 138.281 245.562 138.752C246.165 139.223 246.612 139.793 246.903 140.463C247.215 141.115 247.372 141.848 247.372 142.663C247.372 144.002 246.947 145.225 246.098 146.329C245.249 147.415 244.11 148.493 242.68 149.561L235.306 155.128H248.411V156.541Z" fill="white"/>
<path d="M268.775 145.895C270.429 145.895 271.713 145.578 272.629 144.944C273.546 144.292 274.004 143.45 274.004 142.418V142.065C274.004 140.979 273.557 140.146 272.663 139.567C271.792 138.969 270.652 138.67 269.244 138.67C267.859 138.67 266.753 138.906 265.926 139.377C265.1 139.829 264.441 140.436 263.949 141.196L262.441 140.327C262.709 139.929 263.044 139.549 263.446 139.186C263.871 138.806 264.351 138.471 264.887 138.182C265.446 137.892 266.083 137.666 266.798 137.503C267.535 137.34 268.362 137.258 269.278 137.258C270.261 137.258 271.166 137.367 271.993 137.584C272.842 137.801 273.568 138.118 274.171 138.535C274.774 138.933 275.244 139.431 275.579 140.028C275.936 140.608 276.115 141.269 276.115 142.011C276.115 142.645 275.992 143.215 275.746 143.722C275.523 144.229 275.199 144.663 274.774 145.025C274.372 145.388 273.881 145.695 273.3 145.949C272.741 146.184 272.138 146.365 271.49 146.492V146.601C272.183 146.691 272.842 146.863 273.467 147.117C274.093 147.352 274.629 147.669 275.076 148.067C275.545 148.466 275.914 148.945 276.182 149.507C276.45 150.068 276.584 150.702 276.584 151.408C276.584 152.222 276.406 152.974 276.048 153.662C275.691 154.332 275.177 154.902 274.506 155.373C273.836 155.844 273.032 156.215 272.093 156.486C271.155 156.74 270.105 156.866 268.943 156.866C268.004 156.866 267.155 156.785 266.396 156.622C265.636 156.477 264.954 156.269 264.351 155.997C263.748 155.708 263.212 155.373 262.742 154.993C262.273 154.612 261.86 154.205 261.502 153.77L263.011 152.847C263.659 153.662 264.441 154.305 265.357 154.775C266.273 155.228 267.468 155.454 268.943 155.454C270.663 155.454 272.015 155.11 272.998 154.422C273.981 153.716 274.473 152.766 274.473 151.571V151.136C274.473 149.941 273.992 149.009 273.032 148.339C272.093 147.651 270.719 147.307 268.909 147.307H265.96V145.895H268.775Z" fill="white"/>
<path d="M356.614 156.866C355.362 156.866 354.256 156.704 353.296 156.378C352.357 156.034 351.564 155.563 350.916 154.965C350.268 154.35 349.776 153.617 349.441 152.766C349.128 151.897 348.972 150.946 348.972 149.914C348.972 148.447 349.218 147.089 349.709 145.84C350.223 144.573 350.882 143.423 351.687 142.391C352.514 141.359 353.452 140.445 354.502 139.648C355.552 138.833 356.625 138.145 357.72 137.584H360.334C359.016 138.308 357.842 139.033 356.815 139.757C355.809 140.481 354.927 141.25 354.167 142.065C353.407 142.862 352.77 143.722 352.257 144.645C351.765 145.569 351.374 146.583 351.084 147.687L351.218 147.714C351.799 146.863 352.569 146.193 353.53 145.704C354.491 145.197 355.686 144.944 357.116 144.944C358.166 144.944 359.116 145.08 359.965 145.351C360.837 145.623 361.585 146.012 362.211 146.519C362.836 147.008 363.317 147.615 363.652 148.339C363.987 149.045 364.155 149.842 364.155 150.729C364.155 151.652 363.976 152.494 363.618 153.254C363.261 153.997 362.758 154.64 362.11 155.183C361.462 155.708 360.669 156.124 359.731 156.432C358.792 156.722 357.753 156.866 356.614 156.866ZM356.58 155.481C358.323 155.481 359.675 155.092 360.635 154.314C361.619 153.517 362.11 152.458 362.11 151.136V150.647C362.11 149.326 361.619 148.275 360.635 147.497C359.675 146.7 358.323 146.302 356.58 146.302C354.815 146.302 353.441 146.7 352.458 147.497C351.497 148.275 351.017 149.326 351.017 150.647V151.136C351.017 152.458 351.497 153.517 352.458 154.314C353.441 155.092 354.815 155.481 356.58 155.481Z" fill="white"/>
</g>
<path opacity="0.1" d="M328.166 62.7765C329.855 62.7765 331.167 62.7086 332.103 62.5728C333.039 62.4331 333.507 62.2527 333.507 62.0316V61.9559C333.507 61.7231 333.05 61.5447 332.137 61.4205C331.247 61.2925 330.083 61.2285 328.645 61.2285C327.23 61.2285 326.1 61.2789 325.256 61.3798C324.411 61.4768 323.738 61.6067 323.236 61.7697L321.695 61.5835C321.969 61.4981 322.311 61.4166 322.722 61.339C323.156 61.2576 323.646 61.1858 324.194 61.1237C324.765 61.0616 325.415 61.0131 326.146 60.9782C326.899 60.9433 327.743 60.9258 328.679 60.9258C329.684 60.9258 330.608 60.9491 331.452 60.9957C332.32 61.0422 333.062 61.1101 333.678 61.1994C334.294 61.2847 334.773 61.3914 335.116 61.5194C335.481 61.6436 335.664 61.7852 335.664 61.9443C335.664 62.0801 335.538 62.2023 335.287 62.3109C335.059 62.4195 334.728 62.5127 334.294 62.5903C333.883 62.6679 333.381 62.7338 332.788 62.7881C332.217 62.8386 331.601 62.8774 330.939 62.9045V62.9278C331.646 62.9472 332.32 62.9841 332.959 63.0384C333.598 63.0888 334.146 63.1567 334.602 63.2421C335.082 63.3274 335.458 63.4302 335.732 63.5505C336.006 63.6708 336.143 63.8066 336.143 63.9579C336.143 64.1325 335.96 64.2935 335.595 64.4409C335.23 64.5845 334.705 64.7067 334.02 64.8075C333.335 64.9084 332.514 64.988 331.555 65.0461C330.597 65.1005 329.524 65.1276 328.337 65.1276C327.378 65.1276 326.511 65.1102 325.735 65.0752C324.959 65.0442 324.263 64.9996 323.646 64.9414C323.03 64.8793 322.482 64.8075 322.003 64.7261C321.524 64.6446 321.102 64.5573 320.736 64.4642L322.277 64.2663C322.939 64.4409 323.738 64.5786 324.674 64.6795C325.609 64.7765 326.83 64.825 328.337 64.825C330.094 64.825 331.475 64.7513 332.48 64.6039C333.484 64.4525 333.986 64.2489 333.986 63.9928V63.8997C333.986 63.6436 333.495 63.4438 332.514 63.3003C331.555 63.1528 330.151 63.0791 328.303 63.0791H325.29V62.7765H328.166Z" fill="white"/>
<path opacity="0.4" d="M333.83 153.588H323.884L323.191 158.79L323.38 158.808C323.947 158.37 324.597 158.044 325.332 157.831C326.087 157.606 327.052 157.494 328.227 157.494C329.192 157.494 330.074 157.583 330.871 157.76C331.689 157.926 332.382 158.174 332.948 158.506C333.515 158.825 333.955 159.222 334.27 159.695C334.585 160.157 334.742 160.684 334.742 161.275C334.742 161.879 334.574 162.429 334.239 162.926C333.924 163.412 333.452 163.832 332.822 164.187C332.214 164.53 331.469 164.797 330.588 164.986C329.706 165.175 328.72 165.27 327.629 165.27C326.769 165.27 325.982 165.217 325.269 165.11C324.576 165.016 323.947 164.879 323.38 164.702C322.835 164.513 322.342 164.294 321.901 164.045C321.46 163.796 321.072 163.53 320.736 163.246L322.184 162.642C322.793 163.175 323.506 163.595 324.324 163.903C325.164 164.199 326.276 164.347 327.661 164.347C329.297 164.347 330.556 164.086 331.437 163.566C332.34 163.045 332.791 162.358 332.791 161.506V161.222C332.791 160.358 332.35 159.672 331.469 159.163C330.609 158.654 329.36 158.399 327.724 158.399C327.136 158.399 326.622 158.429 326.181 158.488C325.741 158.535 325.342 158.612 324.985 158.719C324.65 158.813 324.335 158.932 324.041 159.074C323.747 159.204 323.464 159.358 323.191 159.535L321.555 159.393L322.342 152.665H333.83V153.588Z" fill="white"/>
<path opacity="0.4" d="M302.744 173.674V172.355H291.323V171.877L301.868 167.371H304.594V171.913H308.13V172.355H304.594V173.674H302.744ZM293.075 171.913H302.744V167.831H302.647L293.075 171.913Z" fill="white"/>
<path opacity="0.4" d="M159.41 156.338H148.967L148.24 161.251L148.438 161.267C149.033 160.854 149.716 160.546 150.487 160.345C151.28 160.133 152.294 160.027 153.527 160.027C154.541 160.027 155.466 160.111 156.303 160.278C157.163 160.435 157.89 160.669 158.485 160.982C159.079 161.284 159.542 161.659 159.873 162.106C160.203 162.542 160.368 163.039 160.368 163.598C160.368 164.168 160.192 164.688 159.84 165.158C159.509 165.616 159.013 166.013 158.352 166.348C157.714 166.672 156.931 166.924 156.006 167.103C155.081 167.281 154.045 167.371 152.9 167.371C151.996 167.371 151.17 167.321 150.421 167.22C149.694 167.131 149.033 167.002 148.438 166.834C147.865 166.656 147.348 166.449 146.885 166.214C146.422 165.979 146.015 165.728 145.662 165.459L147.182 164.889C147.821 165.392 148.57 165.789 149.43 166.08C150.311 166.359 151.479 166.499 152.933 166.499C154.651 166.499 155.973 166.253 156.898 165.761C157.846 165.269 158.319 164.621 158.319 163.816V163.548C158.319 162.732 157.857 162.084 156.931 161.603C156.028 161.122 154.717 160.882 152.999 160.882C152.382 160.882 151.842 160.91 151.379 160.966C150.917 161.01 150.498 161.083 150.124 161.184C149.771 161.273 149.441 161.385 149.132 161.519C148.824 161.642 148.526 161.787 148.24 161.955L146.521 161.821L147.348 155.466H159.41V156.338Z" fill="white"/>
<g opacity="0.1">
<path d="M66.8036 175.074C64.0995 175.074 62.0881 174.667 60.7695 173.852C59.4733 173.028 58.8252 171.802 58.8252 170.172C58.8252 168.543 59.4733 167.32 60.7695 166.506C62.0881 165.682 64.0995 165.27 66.8036 165.27C69.5078 165.27 71.508 165.682 72.8042 166.506C74.1228 167.32 74.7821 168.543 74.7821 170.172C74.7821 171.802 74.1228 173.028 72.8042 173.852C71.508 174.667 69.5078 175.074 66.8036 175.074ZM66.8036 174.368C68.815 174.368 70.29 174.06 71.2287 173.445C72.1673 172.82 72.6366 171.942 72.6366 170.81V169.534C72.6366 168.411 72.1673 167.538 71.2287 166.913C70.29 166.288 68.815 165.976 66.8036 165.976C64.7923 165.976 63.3173 166.288 62.3786 166.913C61.44 167.538 60.9707 168.411 60.9707 169.534V170.81C60.9707 171.942 61.44 172.82 62.3786 173.445C63.3173 174.06 64.7923 174.368 66.8036 174.368ZM66.8036 170.797C66.2226 170.797 65.8091 170.747 65.5633 170.647C65.3175 170.548 65.1945 170.426 65.1945 170.281V170.063C65.1945 169.919 65.3175 169.796 65.5633 169.697C65.8091 169.597 66.2226 169.547 66.8036 169.547C67.3847 169.547 67.7981 169.597 68.044 169.697C68.2898 169.796 68.4127 169.919 68.4127 170.063V170.281C68.4127 170.426 68.2898 170.548 68.044 170.647C67.7981 170.747 67.3847 170.797 66.8036 170.797Z" fill="white"/>
<path d="M103.431 168.746C103.431 169.48 103.174 170.163 102.66 170.797C102.168 171.421 101.509 171.992 100.682 172.508C99.8553 173.024 98.9166 173.485 97.8662 173.893C96.8382 174.291 95.7766 174.631 94.6816 174.911H92.0668C93.363 174.549 94.5251 174.187 95.5532 173.825C96.5812 173.463 97.4751 173.083 98.235 172.684C98.9948 172.277 99.6318 171.847 100.146 171.394C100.66 170.933 101.062 170.421 101.353 169.86L101.185 169.846C100.604 170.272 99.8329 170.611 98.8719 170.865C97.9109 171.109 96.7153 171.231 95.285 171.231C94.2346 171.231 93.2736 171.163 92.402 171.028C91.5528 170.892 90.8153 170.702 90.1895 170.457C89.5637 170.204 89.0832 169.901 88.748 169.547C88.4128 169.185 88.2452 168.782 88.2452 168.339C88.2452 167.877 88.424 167.461 88.7815 167.09C89.1391 166.709 89.642 166.388 90.2901 166.126C90.9605 165.854 91.7651 165.646 92.7037 165.501C93.6424 165.347 94.6816 165.27 95.8213 165.27C97.0729 165.27 98.1679 165.356 99.1066 165.528C100.068 165.691 100.861 165.926 101.487 166.234C102.135 166.533 102.615 166.9 102.928 167.334C103.263 167.76 103.431 168.23 103.431 168.746ZM95.8549 170.552C97.5981 170.552 98.9501 170.358 99.9111 169.968C100.894 169.57 101.386 169.04 101.386 168.38V168.149C101.386 167.488 100.894 166.963 99.9111 166.574C98.9501 166.175 97.5981 165.976 95.8549 165.976C94.1117 165.976 92.7484 166.175 91.7651 166.574C90.7817 166.963 90.2901 167.488 90.2901 168.149V168.38C90.2901 169.04 90.7817 169.57 91.7651 169.968C92.7484 170.358 94.1117 170.552 95.8549 170.552Z" fill="white"/>
<path d="M124.772 175.074C123.498 175.074 122.358 175.006 121.353 174.87C120.369 174.735 119.531 174.549 118.838 174.314C118.168 174.078 117.654 173.798 117.296 173.472C116.961 173.137 116.794 172.775 116.794 172.386C116.794 171.725 117.229 171.195 118.101 170.797C118.995 170.389 120.191 170.118 121.688 169.982V169.887C120.414 169.742 119.397 169.475 118.637 169.086C117.9 168.696 117.531 168.217 117.531 167.646C117.531 166.922 118.168 166.347 119.442 165.922C120.716 165.487 122.492 165.27 124.772 165.27C127.052 165.27 128.828 165.487 130.102 165.922C131.376 166.347 132.013 166.922 132.013 167.646C132.013 168.217 131.633 168.696 130.873 169.086C130.136 169.475 129.13 169.742 127.856 169.887V169.982C129.353 170.118 130.538 170.389 131.41 170.797C132.303 171.195 132.75 171.725 132.75 172.386C132.75 172.775 132.572 173.137 132.214 173.472C131.879 173.798 131.365 174.078 130.672 174.314C130.002 174.549 129.163 174.735 128.158 174.87C127.174 175.006 126.046 175.074 124.772 175.074ZM124.772 174.382C126.582 174.382 128.013 174.21 129.063 173.866C130.136 173.522 130.672 173.06 130.672 172.481V172.168C130.672 171.58 130.147 171.118 129.096 170.783C128.046 170.439 126.605 170.267 124.772 170.267C122.939 170.267 121.498 170.439 120.448 170.783C119.397 171.118 118.872 171.58 118.872 172.168V172.481C118.872 173.06 119.397 173.522 120.448 173.866C121.52 174.21 122.962 174.382 124.772 174.382ZM124.772 169.602C126.403 169.602 127.677 169.452 128.594 169.154C129.51 168.846 129.968 168.429 129.968 167.904V167.66C129.968 167.135 129.499 166.723 128.56 166.424C127.644 166.116 126.381 165.963 124.772 165.963C123.163 165.963 121.889 166.116 120.95 166.424C120.034 166.723 119.576 167.135 119.576 167.66V167.904C119.576 168.429 120.034 168.846 120.95 169.154C121.867 169.452 123.141 169.602 124.772 169.602Z" fill="white"/>
<path d="M182.774 175.074C181.522 175.074 180.416 174.993 179.455 174.83C178.516 174.658 177.723 174.422 177.075 174.124C176.427 173.816 175.935 173.449 175.6 173.024C175.287 172.589 175.131 172.114 175.131 171.598C175.131 170.865 175.377 170.186 175.868 169.561C176.382 168.927 177.041 168.352 177.846 167.836C178.673 167.32 179.612 166.863 180.662 166.465C181.712 166.058 182.785 165.714 183.88 165.433H186.495C185.176 165.795 184.003 166.157 182.975 166.519C181.969 166.881 181.087 167.266 180.327 167.674C179.567 168.072 178.93 168.502 178.416 168.964C177.924 169.425 177.533 169.932 177.243 170.484L177.377 170.498C177.958 170.073 178.729 169.738 179.69 169.493C180.651 169.24 181.846 169.113 183.277 169.113C184.327 169.113 185.277 169.181 186.126 169.317C186.998 169.452 187.746 169.647 188.372 169.901C188.998 170.145 189.478 170.448 189.814 170.81C190.149 171.163 190.317 171.562 190.317 172.005C190.317 172.467 190.138 172.888 189.78 173.268C189.423 173.639 188.92 173.961 188.272 174.232C187.624 174.495 186.83 174.703 185.892 174.857C184.953 175.002 183.914 175.074 182.774 175.074ZM182.74 174.382C184.484 174.382 185.836 174.187 186.797 173.798C187.78 173.399 188.272 172.87 188.272 172.209V171.965C188.272 171.304 187.78 170.779 186.797 170.389C185.836 169.991 184.484 169.792 182.74 169.792C180.975 169.792 179.6 169.991 178.617 170.389C177.656 170.779 177.176 171.304 177.176 171.965V172.209C177.176 172.87 177.656 173.399 178.617 173.798C179.6 174.187 180.975 174.382 182.74 174.382Z" fill="white"/>
<path d="M218.194 166.139H207.601L206.864 170.118L207.065 170.131C207.668 169.796 208.361 169.547 209.143 169.385C209.948 169.213 210.976 169.127 212.227 169.127C213.255 169.127 214.194 169.194 215.043 169.33C215.915 169.457 216.652 169.647 217.256 169.901C217.859 170.145 218.329 170.448 218.664 170.81C218.999 171.163 219.167 171.566 219.167 172.019C219.167 172.481 218.988 172.902 218.63 173.282C218.295 173.653 217.792 173.974 217.122 174.246C216.474 174.508 215.68 174.712 214.742 174.857C213.803 175.002 212.753 175.074 211.59 175.074C210.674 175.074 209.836 175.033 209.076 174.952C208.339 174.88 207.668 174.775 207.065 174.64C206.484 174.495 205.959 174.327 205.489 174.137C205.02 173.947 204.607 173.743 204.249 173.526L205.791 173.064C206.439 173.472 207.199 173.793 208.071 174.029C208.964 174.255 210.149 174.368 211.624 174.368C213.367 174.368 214.708 174.169 215.647 173.771C216.608 173.372 217.088 172.847 217.088 172.195V171.978C217.088 171.317 216.619 170.792 215.68 170.403C214.764 170.014 213.434 169.819 211.691 169.819C211.065 169.819 210.518 169.842 210.048 169.887C209.579 169.923 209.154 169.982 208.775 170.063C208.417 170.136 208.082 170.226 207.769 170.335C207.456 170.435 207.154 170.552 206.864 170.688L205.121 170.579L205.959 165.433H218.194V166.139Z" fill="white"/>
<path d="M243.759 174.911V172.929H231.959V172.209L242.854 165.433H245.67V172.263H249.324V172.929H245.67V174.911H243.759ZM233.77 172.263H243.759V166.126H243.659L233.77 172.263Z" fill="white"/>
<path d="M268.821 169.588C270.475 169.588 271.76 169.43 272.676 169.113C273.593 168.787 274.051 168.366 274.051 167.85V167.674C274.051 167.13 273.604 166.714 272.71 166.424C271.838 166.126 270.699 165.976 269.291 165.976C267.905 165.976 266.799 166.094 265.972 166.329C265.145 166.556 264.486 166.859 263.994 167.239L262.485 166.804C262.754 166.605 263.089 166.415 263.491 166.234C263.916 166.044 264.396 165.877 264.933 165.732C265.491 165.587 266.128 165.474 266.843 165.392C267.581 165.311 268.408 165.27 269.324 165.27C270.307 165.27 271.213 165.324 272.04 165.433C272.889 165.542 273.615 165.7 274.218 165.908C274.822 166.107 275.291 166.356 275.626 166.655C275.984 166.945 276.163 167.275 276.163 167.646C276.163 167.963 276.04 168.248 275.794 168.502C275.571 168.755 275.247 168.973 274.822 169.154C274.42 169.335 273.928 169.489 273.347 169.615C272.788 169.733 272.185 169.824 271.537 169.887V169.941C272.229 169.987 272.889 170.073 273.515 170.199C274.14 170.317 274.677 170.475 275.124 170.675C275.593 170.874 275.962 171.114 276.23 171.394C276.498 171.675 276.632 171.992 276.632 172.345C276.632 172.752 276.453 173.128 276.096 173.472C275.738 173.807 275.224 174.092 274.554 174.327C273.883 174.563 273.079 174.748 272.14 174.884C271.201 175.011 270.151 175.074 268.989 175.074C268.05 175.074 267.201 175.033 266.441 174.952C265.681 174.88 265 174.775 264.396 174.64C263.793 174.495 263.257 174.327 262.787 174.137C262.318 173.947 261.904 173.743 261.547 173.526L263.055 173.064C263.703 173.472 264.486 173.793 265.402 174.029C266.318 174.255 267.514 174.368 268.989 174.368C270.71 174.368 272.062 174.196 273.045 173.852C274.029 173.499 274.52 173.024 274.52 172.426V172.209C274.52 171.611 274.04 171.145 273.079 170.81C272.14 170.466 270.766 170.294 268.955 170.294H266.005V169.588H268.821Z" fill="white"/>
<path d="M352.556 174.911L362.11 166.139H350.745V168.094H348.935V165.433H364.155V166.153L354.735 174.911H352.556Z" fill="white"/>
</g>
<path opacity="0.1" d="M327.738 175.074C326.508 175.074 325.408 175.031 324.437 174.943C323.488 174.856 322.678 174.737 322.009 174.585C321.362 174.434 320.866 174.254 320.521 174.044C320.197 173.829 320.035 173.596 320.035 173.346C320.035 172.921 320.456 172.58 321.297 172.324C322.161 172.062 323.315 171.888 324.761 171.801V171.74C323.531 171.646 322.549 171.475 321.815 171.224C321.103 170.974 320.747 170.666 320.747 170.299C320.747 169.834 321.362 169.464 322.592 169.19C323.822 168.911 325.537 168.771 327.738 168.771C329.939 168.771 331.655 168.911 332.885 169.19C334.115 169.464 334.73 169.834 334.73 170.299C334.73 170.666 334.363 170.974 333.629 171.224C332.917 171.475 331.946 171.646 330.716 171.74V171.801C332.162 171.888 333.305 172.062 334.147 172.324C335.01 172.58 335.442 172.921 335.442 173.346C335.442 173.596 335.269 173.829 334.924 174.044C334.6 174.254 334.104 174.434 333.435 174.585C332.788 174.737 331.978 174.856 331.007 174.943C330.058 175.031 328.968 175.074 327.738 175.074ZM327.738 174.629C329.486 174.629 330.867 174.518 331.881 174.297C332.917 174.076 333.435 173.779 333.435 173.407V173.206C333.435 172.828 332.928 172.531 331.914 172.316C330.9 172.094 329.508 171.984 327.738 171.984C325.969 171.984 324.577 172.094 323.563 172.316C322.549 172.531 322.042 172.828 322.042 173.206V173.407C322.042 173.779 322.549 174.076 323.563 174.297C324.599 174.518 325.991 174.629 327.738 174.629ZM327.738 171.556C329.314 171.556 330.544 171.46 331.428 171.268C332.313 171.07 332.755 170.803 332.755 170.465V170.308C332.755 169.97 332.302 169.706 331.396 169.513C330.511 169.316 329.292 169.217 327.738 169.217C326.185 169.217 324.955 169.316 324.049 169.513C323.164 169.706 322.722 169.97 322.722 170.308V170.465C322.722 170.803 323.164 171.07 324.049 171.268C324.933 171.46 326.163 171.556 327.738 171.556Z" fill="white"/>
<path opacity="0.1" d="M149.494 175.074L159.605 171.834H147.578V172.556H145.662V171.573H161.769V171.839L151.8 175.074H149.494Z" fill="white"/>
<g opacity="0.2">
<path d="M75.4098 84.9337C75.4098 86.4527 75.1528 87.8685 74.6388 89.1811C74.1472 90.475 73.488 91.6564 72.6612 92.7253C71.8344 93.7941 70.8959 94.7505 69.8456 95.5944C68.8177 96.4195 67.7562 97.1227 66.6613 97.704H64.0468C65.3428 96.9539 66.5048 96.2038 67.5328 95.4537C68.5607 94.7036 69.4545 93.916 70.2143 93.0909C70.9741 92.2471 71.6109 91.3564 72.1249 90.4188C72.6389 89.4624 73.0411 88.4029 73.3316 87.2403L73.164 87.2121C72.583 88.0935 71.8121 88.7967 70.8512 89.3218C69.8903 89.8281 68.6948 90.0812 67.2646 90.0812C66.2143 90.0812 65.2535 89.9406 64.382 89.6593C63.5328 89.378 62.7954 88.9842 62.1697 88.4779C61.544 87.9528 61.0636 87.3246 60.7284 86.5933C60.3932 85.8432 60.2256 85.0088 60.2256 84.0899C60.2256 83.1335 60.4044 82.2709 60.7619 81.5021C61.1194 80.7145 61.6222 80.0488 62.2703 79.505C62.9406 78.9424 63.7451 78.5111 64.6836 78.2111C65.6222 77.8923 66.6613 77.7329 67.8009 77.7329C69.0523 77.7329 70.1473 77.9111 71.0858 78.2673C72.0467 78.6049 72.84 79.0924 73.4657 79.73C74.1137 80.3488 74.5941 81.1083 74.907 82.0084C75.2422 82.8898 75.4098 83.8649 75.4098 84.9337ZM67.8344 88.6748C69.5774 88.6748 70.9294 88.2716 71.8903 87.4653C72.8735 86.6402 73.3651 85.5432 73.3651 84.1743V83.6961C73.3651 82.3272 72.8735 81.2396 71.8903 80.4332C70.9294 79.6081 69.5774 79.1956 67.8344 79.1956C66.0914 79.1956 64.7283 79.6081 63.7451 80.4332C62.7619 81.2396 62.2703 82.3272 62.2703 83.6961V84.1743C62.2703 85.5432 62.7619 86.6402 63.7451 87.4653C64.7283 88.2716 66.0914 88.6748 67.8344 88.6748Z" fill="white"/>
<path d="M96.7484 98.0415C95.4747 98.0415 94.335 97.9009 93.3294 97.6196C92.3462 97.3383 91.5082 96.9539 90.8155 96.4663C90.1451 95.9788 89.6312 95.3975 89.2736 94.7224C88.9384 94.0285 88.7708 93.2785 88.7708 92.4721C88.7708 91.1032 89.2066 90.0062 90.0781 89.1811C90.9719 88.3373 92.1674 87.7747 93.6646 87.4934V87.2965C92.3909 86.9965 91.3742 86.4433 90.6144 85.637C89.877 84.8306 89.5083 83.8367 89.5083 82.6554C89.5083 81.1552 90.1451 79.9644 91.4189 79.0831C92.6926 78.183 94.4691 77.7329 96.7484 77.7329C99.0277 77.7329 100.804 78.183 102.078 79.0831C103.352 79.9644 103.989 81.1552 103.989 82.6554C103.989 83.8367 103.609 84.8306 102.849 85.637C102.111 86.4433 101.106 86.9965 99.8322 87.2965V87.4934C101.329 87.7747 102.514 88.3373 103.385 89.1811C104.279 90.0062 104.726 91.1032 104.726 92.4721C104.726 93.2785 104.547 94.0285 104.19 94.7224C103.854 95.3975 103.341 95.9788 102.648 96.4663C101.977 96.9539 101.139 97.3383 100.134 97.6196C99.1506 97.9009 98.0221 98.0415 96.7484 98.0415ZM96.7484 96.607C98.5584 96.607 99.9886 96.2507 101.039 95.5381C102.111 94.8255 102.648 93.8692 102.648 92.669V92.0221C102.648 90.8032 102.123 89.8468 101.072 89.153C100.022 88.4404 98.5808 88.0841 96.7484 88.0841C94.916 88.0841 93.4747 88.4404 92.4244 89.153C91.3742 89.8468 90.849 90.8032 90.849 92.0221V92.669C90.849 93.8692 91.3742 94.8255 92.4244 95.5381C93.497 96.2507 94.9384 96.607 96.7484 96.607ZM96.7484 86.7058C98.3797 86.7058 99.6534 86.3964 100.57 85.7776C101.486 85.14 101.944 84.2774 101.944 83.1898V82.6835C101.944 81.5959 101.475 80.7426 100.536 80.1238C99.6199 79.4862 98.3573 79.1675 96.7484 79.1675C95.1395 79.1675 93.8658 79.4862 92.9272 80.1238C92.011 80.7426 91.5529 81.5959 91.5529 82.6835V83.1898C91.5529 84.2774 92.011 85.14 92.9272 85.7776C93.8434 86.3964 95.1171 86.7058 96.7484 86.7058Z" fill="white"/>
<path d="M121.64 97.704L131.193 79.5331H119.83V83.5836H118.02V78.0704H133.238V79.5612L123.819 97.704H121.64Z" fill="white"/>
<path d="M190.161 79.5331H179.569L178.831 87.7747L179.032 87.8028C179.636 87.109 180.328 86.5933 181.11 86.2558C181.915 85.8995 182.943 85.7213 184.194 85.7213C185.222 85.7213 186.161 85.862 187.01 86.1433C187.881 86.4058 188.619 86.7996 189.222 87.3246C189.825 87.831 190.295 88.4592 190.63 89.2092C190.965 89.9406 191.133 90.775 191.133 91.7127C191.133 92.669 190.954 93.541 190.596 94.3286C190.261 95.0974 189.758 95.7631 189.088 96.3257C188.44 96.8695 187.647 97.2914 186.708 97.5915C185.77 97.8915 184.719 98.0415 183.557 98.0415C182.641 98.0415 181.803 97.9571 181.043 97.7884C180.306 97.6383 179.636 97.4227 179.032 97.1414C178.451 96.8414 177.926 96.4945 177.457 96.1007C176.988 95.7069 176.574 95.2849 176.217 94.8349L177.759 93.8785C178.407 94.7224 179.166 95.3881 180.038 95.8756C180.932 96.3444 182.116 96.5788 183.591 96.5788C185.334 96.5788 186.675 96.1663 187.613 95.3412C188.574 94.5161 189.054 93.4285 189.054 92.0783V91.6283C189.054 90.2594 188.585 89.1717 187.647 88.3654C186.73 87.559 185.401 87.1559 183.658 87.1559C183.032 87.1559 182.485 87.2028 182.015 87.2965C181.546 87.3715 181.122 87.4934 180.742 87.6622C180.384 87.8122 180.049 87.9997 179.736 88.2248C179.423 88.431 179.122 88.6748 178.831 88.9561L177.088 88.7311L177.926 78.0704H190.161V79.5331Z" fill="white"/>
<path d="M212.706 98.0415C211.455 98.0415 210.348 97.8727 209.388 97.5352C208.449 97.1789 207.656 96.6914 207.008 96.0725C206.36 95.435 205.868 94.6755 205.533 93.7941C205.22 92.894 205.064 91.9096 205.064 90.8407C205.064 89.3218 205.309 87.9153 205.801 86.6214C206.315 85.3088 206.974 84.118 207.779 83.0492C208.605 81.9803 209.544 81.0333 210.594 80.2082C211.644 79.3643 212.717 78.6518 213.812 78.0704H216.427C215.108 78.8205 213.935 79.5706 212.907 80.3207C211.901 81.0708 211.019 81.8678 210.259 82.7116C209.499 83.5367 208.862 84.4274 208.348 85.3838C207.857 86.3402 207.466 87.3903 207.175 88.5342L207.309 88.5623C207.89 87.6809 208.661 86.9871 209.622 86.4808C210.583 85.9557 211.779 85.6932 213.209 85.6932C214.259 85.6932 215.209 85.8339 216.058 86.1151C216.929 86.3964 217.678 86.7996 218.304 87.3246C218.929 87.831 219.41 88.4592 219.745 89.2092C220.08 89.9406 220.248 90.7657 220.248 91.6845C220.248 92.6409 220.069 93.5129 219.711 94.3005C219.354 95.0693 218.851 95.735 218.203 96.2976C217.555 96.8414 216.762 97.2727 215.823 97.5915C214.885 97.8915 213.846 98.0415 212.706 98.0415ZM212.672 96.607C214.415 96.607 215.767 96.2038 216.728 95.3975C217.711 94.5724 218.203 93.4754 218.203 92.1065V91.6001C218.203 90.2312 217.711 89.1436 216.728 88.3373C215.767 87.5122 214.415 87.0996 212.672 87.0996C210.907 87.0996 209.533 87.5122 208.55 88.3373C207.589 89.1436 207.108 90.2312 207.108 91.6001V92.1065C207.108 93.4754 207.589 94.5724 208.55 95.3975C209.533 96.2038 210.907 96.607 212.672 96.607Z" fill="white"/>
<path d="M237.564 97.704L247.117 79.5331H235.754V83.5836H233.944V78.0704H249.162V79.5612L239.743 97.704H237.564Z" fill="white"/>
<path d="M270.634 98.0415C269.361 98.0415 268.221 97.9009 267.215 97.6196C266.232 97.3383 265.394 96.9539 264.701 96.4663C264.031 95.9788 263.517 95.3975 263.16 94.7224C262.824 94.0285 262.657 93.2785 262.657 92.4721C262.657 91.1032 263.093 90.0062 263.964 89.1811C264.858 88.3373 266.053 87.7747 267.551 87.4934V87.2965C266.277 86.9965 265.26 86.4433 264.5 85.637C263.763 84.8306 263.394 83.8367 263.394 82.6554C263.394 81.1552 264.031 79.9644 265.305 79.0831C266.579 78.183 268.355 77.7329 270.634 77.7329C272.914 77.7329 274.69 78.183 275.964 79.0831C277.238 79.9644 277.875 81.1552 277.875 82.6554C277.875 83.8367 277.495 84.8306 276.735 85.637C275.997 86.4433 274.992 86.9965 273.718 87.2965V87.4934C275.215 87.7747 276.4 88.3373 277.271 89.1811C278.165 90.0062 278.612 91.1032 278.612 92.4721C278.612 93.2785 278.433 94.0285 278.076 94.7224C277.74 95.3975 277.227 95.9788 276.534 96.4663C275.863 96.9539 275.025 97.3383 274.02 97.6196C273.037 97.9009 271.908 98.0415 270.634 98.0415ZM270.634 96.607C272.444 96.607 273.875 96.2507 274.925 95.5381C275.997 94.8255 276.534 93.8692 276.534 92.669V92.0221C276.534 90.8032 276.009 89.8468 274.958 89.153C273.908 88.4404 272.467 88.0841 270.634 88.0841C268.802 88.0841 267.361 88.4404 266.31 89.153C265.26 89.8468 264.735 90.8032 264.735 92.0221V92.669C264.735 93.8692 265.26 94.8255 266.31 95.5381C267.383 96.2507 268.824 96.607 270.634 96.607ZM270.634 86.7058C272.266 86.7058 273.539 86.3964 274.456 85.7776C275.372 85.14 275.83 84.2774 275.83 83.1898V82.6835C275.83 81.5959 275.361 80.7426 274.422 80.1238C273.506 79.4862 272.243 79.1675 270.634 79.1675C269.025 79.1675 267.752 79.4862 266.813 80.1238C265.897 80.7426 265.439 81.5959 265.439 82.6835V83.1898C265.439 84.2774 265.897 85.14 266.813 85.7776C267.729 86.3964 269.003 86.7058 270.634 86.7058Z" fill="white"/>
<path d="M357.577 98.0415C356.304 98.0415 355.164 97.9009 354.158 97.6196C353.175 97.3383 352.337 96.9539 351.644 96.4663C350.974 95.9788 350.46 95.3975 350.103 94.7224C349.767 94.0285 349.6 93.2785 349.6 92.4721C349.6 91.1032 350.036 90.0062 350.907 89.1811C351.801 88.3373 352.996 87.7747 354.494 87.4934V87.2965C353.22 86.9965 352.203 86.4433 351.443 85.637C350.706 84.8306 350.337 83.8367 350.337 82.6554C350.337 81.1552 350.974 79.9644 352.248 79.0831C353.522 78.183 355.298 77.7329 357.577 77.7329C359.857 77.7329 361.633 78.183 362.907 79.0831C364.181 79.9644 364.818 81.1552 364.818 82.6554C364.818 83.8367 364.438 84.8306 363.678 85.637C362.94 86.4433 361.935 86.9965 360.661 87.2965V87.4934C362.158 87.7747 363.343 88.3373 364.214 89.1811C365.108 90.0062 365.555 91.1032 365.555 92.4721C365.555 93.2785 365.376 94.0285 365.019 94.7224C364.683 95.3975 364.17 95.9788 363.477 96.4663C362.806 96.9539 361.968 97.3383 360.963 97.6196C359.98 97.9009 358.851 98.0415 357.577 98.0415ZM357.577 96.607C359.387 96.607 360.818 96.2507 361.868 95.5381C362.94 94.8255 363.477 93.8692 363.477 92.669V92.0221C363.477 90.8032 362.952 89.8468 361.901 89.153C360.851 88.4404 359.41 88.0841 357.577 88.0841C355.745 88.0841 354.304 88.4404 353.253 89.153C352.203 89.8468 351.678 90.8032 351.678 92.0221V92.669C351.678 93.8692 352.203 94.8255 353.253 95.5381C354.326 96.2507 355.767 96.607 357.577 96.607ZM357.577 86.7058C359.209 86.7058 360.482 86.3964 361.399 85.7776C362.315 85.14 362.773 84.2774 362.773 83.1898V82.6835C362.773 81.5959 362.304 80.7426 361.365 80.1238C360.449 79.4862 359.186 79.1675 357.577 79.1675C355.968 79.1675 354.695 79.4862 353.756 80.1238C352.84 80.7426 352.382 81.5959 352.382 82.6835V83.1898C352.382 84.2774 352.84 85.14 353.756 85.7776C354.672 86.3964 355.946 86.7058 357.577 86.7058Z" fill="white"/>
</g>
<path opacity="0.3" d="M335.443 101.472C335.443 103.23 335.194 104.868 334.696 106.387C334.22 107.884 333.581 109.251 332.781 110.488C331.98 111.725 331.071 112.832 330.054 113.808C329.058 114.763 328.03 115.577 326.969 116.249H324.437C325.693 115.381 326.818 114.513 327.813 113.645C328.809 112.777 329.675 111.866 330.411 110.911C331.146 109.935 331.763 108.904 332.261 107.819C332.759 106.712 333.148 105.486 333.43 104.141L333.267 104.108C332.705 105.128 331.958 105.942 331.027 106.55C330.097 107.136 328.939 107.428 327.554 107.428C326.537 107.428 325.606 107.266 324.762 106.94C323.939 106.615 323.225 106.159 322.619 105.573C322.013 104.966 321.548 104.239 321.223 103.392C320.899 102.524 320.736 101.559 320.736 100.496C320.736 99.3889 320.909 98.3907 321.256 97.501C321.602 96.5897 322.089 95.8193 322.717 95.1901C323.366 94.5391 324.145 94.04 325.054 93.6928C325.963 93.3239 326.969 93.1395 328.073 93.1395C329.285 93.1395 330.346 93.3456 331.255 93.7579C332.185 94.1485 332.954 94.7127 333.56 95.4504C334.187 96.1665 334.653 97.0453 334.956 98.0869C335.28 99.1068 335.443 100.235 335.443 101.472ZM328.106 105.801C329.794 105.801 331.103 105.334 332.034 104.401C332.986 103.447 333.462 102.177 333.462 100.593V100.04C333.462 98.4558 332.986 97.1972 332.034 96.2642C331.103 95.3094 329.794 94.832 328.106 94.832C326.418 94.832 325.097 95.3094 324.145 96.2642C323.193 97.1972 322.717 98.4558 322.717 100.04V100.593C322.717 102.177 323.193 103.447 324.145 104.401C325.097 105.334 326.418 105.801 328.106 105.801Z" fill="white"/>
<path opacity="0.3" d="M308.13 122.033C308.13 123.844 307.869 125.532 307.348 127.097C306.849 128.64 306.18 130.048 305.341 131.322C304.502 132.597 303.55 133.737 302.485 134.743C301.442 135.727 300.365 136.565 299.254 137.258H296.601C297.916 136.364 299.095 135.47 300.138 134.575C301.181 133.681 302.088 132.742 302.859 131.758C303.63 130.752 304.276 129.69 304.797 128.572C305.319 127.432 305.727 126.169 306.022 124.783L305.851 124.749C305.262 125.8 304.48 126.639 303.505 127.265C302.53 127.868 301.317 128.17 299.866 128.17C298.8 128.17 297.825 128.002 296.941 127.667C296.079 127.332 295.331 126.862 294.696 126.259C294.061 125.633 293.574 124.884 293.234 124.012C292.894 123.117 292.724 122.123 292.724 121.027C292.724 119.887 292.905 118.858 293.268 117.942C293.631 117.003 294.141 116.209 294.798 115.561C295.478 114.89 296.295 114.376 297.247 114.018C298.199 113.638 299.254 113.448 300.41 113.448C301.68 113.448 302.791 113.66 303.743 114.085C304.718 114.488 305.523 115.069 306.158 115.829C306.815 116.567 307.303 117.472 307.62 118.545C307.96 119.596 308.13 120.759 308.13 122.033ZM300.444 126.493C302.212 126.493 303.584 126.013 304.559 125.051C305.557 124.068 306.056 122.76 306.056 121.128V120.558C306.056 118.925 305.557 117.629 304.559 116.667C303.584 115.684 302.212 115.192 300.444 115.192C298.675 115.192 297.292 115.684 296.295 116.667C295.297 117.629 294.798 118.925 294.798 120.558V121.128C294.798 122.76 295.297 124.068 296.295 125.051C297.292 126.013 298.675 126.493 300.444 126.493Z" fill="white"/>
<path opacity="0.3" d="M153.769 120.451C152.441 120.451 151.268 120.262 150.249 119.883C149.253 119.483 148.412 118.936 147.724 118.242C147.037 117.526 146.515 116.674 146.16 115.685C145.828 114.675 145.662 113.57 145.662 112.371C145.662 110.667 145.923 109.088 146.444 107.637C146.99 106.164 147.689 104.828 148.542 103.628C149.419 102.429 150.415 101.366 151.529 100.44C152.643 99.4934 153.781 98.6939 154.942 98.0416H157.716C156.317 98.8832 155.073 99.7249 153.982 100.567C152.916 101.408 151.979 102.303 151.173 103.249C150.367 104.175 149.692 105.175 149.147 106.248C148.625 107.321 148.21 108.499 147.902 109.783L148.044 109.814C148.661 108.825 149.478 108.047 150.498 107.479C151.517 106.89 152.785 106.595 154.302 106.595C155.416 106.595 156.424 106.753 157.324 107.068C158.249 107.384 159.043 107.837 159.707 108.426C160.37 108.994 160.88 109.699 161.236 110.54C161.591 111.361 161.769 112.287 161.769 113.318C161.769 114.391 161.579 115.369 161.2 116.253C160.821 117.116 160.287 117.863 159.6 118.494C158.913 119.104 158.071 119.588 157.076 119.946C156.08 120.283 154.978 120.451 153.769 120.451ZM153.733 118.841C155.582 118.841 157.016 118.389 158.036 117.484C159.079 116.558 159.6 115.327 159.6 113.791V113.223C159.6 111.687 159.079 110.467 158.036 109.562C157.016 108.636 155.582 108.173 153.733 108.173C151.861 108.173 150.403 108.636 149.36 109.562C148.341 110.467 147.831 111.687 147.831 113.223V113.791C147.831 115.327 148.341 116.558 149.36 117.484C150.403 118.389 151.861 118.841 153.733 118.841Z" fill="white"/>
<g opacity="0.1">
<path d="M66.0973 64.9356C67.7505 64.9356 69.0351 64.7885 69.9511 64.4943C70.8671 64.1916 71.3251 63.8007 71.3251 63.3216V63.1577C71.3251 62.6533 70.8783 62.2666 69.9846 61.9976C69.1133 61.7202 67.9739 61.5815 66.5664 61.5815C65.1813 61.5815 64.0754 61.6908 63.2488 61.9094C62.4221 62.1195 61.7631 62.4011 61.2716 62.7542L59.7635 62.3507C60.0316 62.1657 60.3667 61.9892 60.7689 61.8211C61.1934 61.6446 61.6737 61.4891 62.2099 61.3546C62.7684 61.2201 63.4051 61.115 64.1201 61.0393C64.8573 60.9637 65.6839 60.9258 66.5999 60.9258C67.583 60.9258 68.4878 60.9763 69.3144 61.0772C70.1634 61.178 70.8895 61.3251 71.4927 61.5185C72.0959 61.7034 72.565 61.9346 72.9002 62.212C73.2576 62.481 73.4364 62.7878 73.4364 63.1325C73.4364 63.4267 73.3135 63.6915 73.0677 63.9268C72.8443 64.1622 72.5204 64.364 72.0959 64.5321C71.6937 64.7002 71.2022 64.8431 70.6214 64.9608C70.0628 65.0701 69.4596 65.1541 68.8117 65.213V65.2634C69.5043 65.3054 70.1634 65.3853 70.7889 65.503C71.4145 65.6123 71.9507 65.7594 72.3975 65.9443C72.8667 66.1292 73.2353 66.352 73.5034 66.6126C73.7715 66.8732 73.9055 67.1674 73.9055 67.4952C73.9055 67.8735 73.7268 68.2224 73.3693 68.5418C73.0119 68.8528 72.498 69.1176 71.8278 69.3362C71.1575 69.5548 70.3533 69.7271 69.4149 69.8532C68.4766 69.9709 67.4266 70.0297 66.2648 70.0297C65.3265 70.0297 64.4775 69.9919 63.7179 69.9162C62.9583 69.849 62.2769 69.7523 61.6737 69.6262C61.0705 69.4917 60.5343 69.3362 60.0651 69.1597C59.596 68.9831 59.1827 68.794 58.8252 68.5922L60.3332 68.1635C60.9811 68.5418 61.7631 68.8402 62.6791 69.0588C63.595 69.2689 64.7903 69.374 66.2648 69.374C67.9851 69.374 69.3367 69.2143 70.3198 68.8949C71.3028 68.567 71.7943 68.1257 71.7943 67.5709V67.3692C71.7943 66.8143 71.3139 66.3814 70.3533 66.0704C69.4149 65.751 68.0409 65.5913 66.2313 65.5913H63.2823V64.9356H66.0973Z" fill="white"/>
<path d="M103.684 69.8784H88.4701V69.1092L96.7475 66.1587C97.8869 65.7552 98.8029 65.3475 99.4955 64.9356C100.188 64.5153 100.534 64.0739 100.534 63.6116V63.372C100.534 62.8256 100.121 62.3927 99.2944 62.0733C98.4901 61.7454 97.2837 61.5815 95.6751 61.5815C94.1112 61.5815 92.8936 61.7286 92.0223 62.0228C91.1734 62.3087 90.5478 62.6953 90.1457 63.1829L88.3695 62.9433C88.5929 62.6743 88.8946 62.4179 89.2744 62.1742C89.6542 61.9304 90.1345 61.716 90.7154 61.5311C91.3186 61.3461 92.0335 61.199 92.8601 61.0898C93.6867 60.9805 94.6362 60.9258 95.7086 60.9258C96.8257 60.9258 97.8087 60.9889 98.6577 61.115C99.529 61.2327 100.255 61.4008 100.836 61.6193C101.439 61.8379 101.886 62.1027 102.176 62.4137C102.489 62.7164 102.646 63.0568 102.646 63.4351C102.646 64.0571 102.221 64.6245 101.372 65.1373C100.523 65.6417 99.3838 66.1419 97.9539 66.6378L90.5813 69.2227H103.684V69.8784Z" fill="white"/>
<path d="M124.047 64.9356C125.7 64.9356 126.984 64.7885 127.9 64.4943C128.816 64.1916 129.274 63.8007 129.274 63.3216V63.1577C129.274 62.6533 128.828 62.2666 127.934 61.9976C127.063 61.7202 125.923 61.5815 124.516 61.5815C123.131 61.5815 122.025 61.6908 121.198 61.9094C120.371 62.1195 119.712 62.4011 119.221 62.7542L117.713 62.3507C117.981 62.1657 118.316 61.9892 118.718 61.8211C119.143 61.6446 119.623 61.4891 120.159 61.3546C120.718 61.2201 121.354 61.115 122.069 61.0393C122.807 60.9637 123.633 60.9258 124.549 60.9258C125.532 60.9258 126.437 60.9763 127.264 61.0772C128.113 61.178 128.839 61.3251 129.442 61.5185C130.045 61.7034 130.514 61.9346 130.849 62.212C131.207 62.481 131.386 62.7878 131.386 63.1325C131.386 63.4267 131.263 63.6915 131.017 63.9268C130.794 64.1622 130.47 64.364 130.045 64.5321C129.643 64.7002 129.152 64.8431 128.571 64.9608C128.012 65.0701 127.409 65.1541 126.761 65.213V65.2634C127.454 65.3054 128.113 65.3853 128.738 65.503C129.364 65.6123 129.9 65.7594 130.347 65.9443C130.816 66.1292 131.185 66.352 131.453 66.6126C131.721 66.8732 131.855 67.1674 131.855 67.4952C131.855 67.8735 131.676 68.2224 131.319 68.5418C130.961 68.8528 130.447 69.1176 129.777 69.3362C129.107 69.5548 128.303 69.7271 127.364 69.8532C126.426 69.9709 125.376 70.0297 124.214 70.0297C123.276 70.0297 122.427 69.9919 121.667 69.9162C120.908 69.849 120.226 69.7523 119.623 69.6262C119.02 69.4917 118.484 69.3362 118.014 69.1597C117.545 68.9831 117.132 68.794 116.774 68.5922L118.283 68.1635C118.93 68.5418 119.712 68.8402 120.628 69.0588C121.544 69.2689 122.74 69.374 124.214 69.374C125.934 69.374 127.286 69.2143 128.269 68.8949C129.252 68.567 129.744 68.1257 129.744 67.5709V67.3692C129.744 66.8143 129.263 66.3814 128.303 66.0704C127.364 65.751 125.99 65.5913 124.181 65.5913H121.232V64.9356H124.047Z" fill="white"/>
<path d="M178.779 69.8784L188.33 61.7328H176.969V63.5486H175.159V61.0772H190.374V61.7454L180.957 69.8784H178.779Z" fill="white"/>
<path d="M218.31 61.7328H207.72L206.983 65.4273L207.184 65.4399C207.787 65.1289 208.479 64.8977 209.261 64.7464C210.066 64.5867 211.093 64.5069 212.344 64.5069C213.372 64.5069 214.31 64.5699 215.159 64.696C216.031 64.8137 216.768 64.9902 217.371 65.2256C217.974 65.4526 218.444 65.7342 218.779 66.0704C219.114 66.3982 219.281 66.7723 219.281 67.1926C219.281 67.6213 219.103 68.0122 218.745 68.3653C218.41 68.7099 217.907 69.0084 217.237 69.2605C216.589 69.5043 215.796 69.6935 214.858 69.828C213.919 69.9625 212.869 70.0297 211.708 70.0297C210.792 70.0297 209.954 69.9919 209.194 69.9162C208.457 69.849 207.787 69.7523 207.184 69.6262C206.603 69.4917 206.078 69.3362 205.609 69.1597C205.139 68.9831 204.726 68.794 204.369 68.5922L205.91 68.1635C206.558 68.5418 207.318 68.8402 208.189 69.0588C209.083 69.2689 210.267 69.374 211.741 69.374C213.484 69.374 214.824 69.1891 215.763 68.8192C216.723 68.4493 217.204 67.9618 217.204 67.3565V67.1548C217.204 66.5411 216.734 66.0536 215.796 65.6921C214.88 65.3307 213.551 65.1499 211.808 65.1499C211.183 65.1499 210.635 65.1709 210.166 65.213C209.697 65.2466 209.273 65.3012 208.893 65.3769C208.535 65.4441 208.2 65.5282 207.887 65.6291C207.575 65.7215 207.273 65.8308 206.983 65.9569L205.24 65.856L206.078 61.0772H218.31V61.7328Z" fill="white"/>
<path d="M240.816 70.0297C238.113 70.0297 236.102 69.6514 234.784 68.8949C233.488 68.1299 232.841 66.9909 232.841 65.4778C232.841 63.9647 233.488 62.8298 234.784 62.0733C236.102 61.3083 238.113 60.9258 240.816 60.9258C243.52 60.9258 245.519 61.3083 246.815 62.0733C248.133 62.8298 248.792 63.9647 248.792 65.4778C248.792 66.9909 248.133 68.1299 246.815 68.8949C245.519 69.6514 243.52 70.0297 240.816 70.0297ZM240.816 69.374C242.827 69.374 244.302 69.0882 245.24 68.5166C246.178 67.9366 246.647 67.1212 246.647 66.0704V64.8851C246.647 63.8428 246.178 63.0316 245.24 62.4516C244.302 61.8715 242.827 61.5815 240.816 61.5815C238.806 61.5815 237.331 61.8715 236.393 62.4516C235.455 63.0316 234.985 63.8428 234.985 64.8851V66.0704C234.985 67.1212 235.455 67.9366 236.393 68.5166C237.331 69.0882 238.806 69.374 240.816 69.374ZM240.816 66.0578C240.236 66.0578 239.822 66.0116 239.576 65.9191C239.331 65.8266 239.208 65.7131 239.208 65.5786V65.3769C239.208 65.2424 239.331 65.1289 239.576 65.0364C239.822 64.944 240.236 64.8977 240.816 64.8977C241.397 64.8977 241.811 64.944 242.056 65.0364C242.302 65.1289 242.425 65.2424 242.425 65.3769V65.5786C242.425 65.7131 242.302 65.8266 242.056 65.9191C241.811 66.0116 241.397 66.0578 240.816 66.0578Z" fill="white"/>
<path d="M277.432 64.1538C277.432 64.8347 277.175 65.4694 276.661 66.0578C276.169 66.6378 275.51 67.1674 274.684 67.6466C273.857 68.1257 272.919 68.5544 271.869 68.9327C270.841 69.3026 269.78 69.6178 268.685 69.8784H266.071C267.367 69.5421 268.529 69.2059 269.556 68.8697C270.584 68.5334 271.478 68.1803 272.237 67.8105C272.997 67.4322 273.634 67.0329 274.148 66.6126C274.661 66.1839 275.064 65.7089 275.354 65.1878L275.186 65.1751C274.606 65.5702 273.835 65.8855 272.874 66.1208C271.913 66.3478 270.718 66.4613 269.288 66.4613C268.238 66.4613 267.278 66.3982 266.406 66.2722C265.557 66.1461 264.82 65.9695 264.195 65.7426C263.569 65.5072 263.089 65.2256 262.754 64.8977C262.418 64.5615 262.251 64.1874 262.251 63.7755C262.251 63.3468 262.43 62.9601 262.787 62.6155C263.145 62.2624 263.647 61.964 264.295 61.7202C264.965 61.468 265.77 61.2747 266.708 61.1402C267.646 60.9973 268.685 60.9258 269.825 60.9258C271.076 60.9258 272.17 61.0057 273.109 61.1654C274.069 61.3167 274.862 61.5353 275.488 61.8211C276.136 62.0985 276.616 62.4389 276.929 62.8424C277.264 63.2375 277.432 63.6747 277.432 64.1538ZM269.858 65.8308C271.601 65.8308 272.952 65.6501 273.913 65.2886C274.896 64.9188 275.388 64.427 275.388 63.8134V63.599C275.388 62.9853 274.896 62.4978 273.913 62.1363C272.952 61.7665 271.601 61.5815 269.858 61.5815C268.115 61.5815 266.753 61.7665 265.77 62.1363C264.787 62.4978 264.295 62.9853 264.295 63.599V63.8134C264.295 64.427 264.787 64.9188 265.77 65.2886C266.753 65.6501 268.115 65.8308 269.858 65.8308Z" fill="white"/>
<path d="M363.183 61.7328H352.593L351.856 65.4273L352.057 65.4399C352.66 65.1289 353.353 64.8977 354.135 64.7464C354.939 64.5867 355.967 64.5069 357.218 64.5069C358.245 64.5069 359.184 64.5699 360.033 64.696C360.904 64.8137 361.641 64.9902 362.244 65.2256C362.848 65.4526 363.317 65.7342 363.652 66.0704C363.987 66.3982 364.155 66.7723 364.155 67.1926C364.155 67.6213 363.976 68.0122 363.618 68.3653C363.283 68.7099 362.781 69.0084 362.11 69.2605C361.462 69.5043 360.669 69.6935 359.731 69.828C358.793 69.9625 357.743 70.0297 356.581 70.0297C355.665 70.0297 354.827 69.9919 354.068 69.9162C353.33 69.849 352.66 69.7523 352.057 69.6262C351.476 69.4917 350.951 69.3362 350.482 69.1597C350.013 68.9831 349.599 68.794 349.242 68.5922L350.783 68.1635C351.431 68.5418 352.191 68.8402 353.062 69.0588C353.956 69.2689 355.14 69.374 356.614 69.374C358.357 69.374 359.698 69.1891 360.636 68.8192C361.597 68.4493 362.077 67.9618 362.077 67.3565V67.1548C362.077 66.5411 361.608 66.0536 360.669 65.6921C359.753 65.3307 358.424 65.1499 356.681 65.1499C356.056 65.1499 355.509 65.1709 355.039 65.213C354.57 65.2466 354.146 65.3012 353.766 65.3769C353.408 65.4441 353.073 65.5282 352.761 65.6291C352.448 65.7215 352.146 65.8308 351.856 65.9569L350.113 65.856L350.951 61.0772H363.183V61.7328Z" fill="white"/>
</g>
<path opacity="0.1" d="M330.756 86.8368V83.6143H319.335V82.4444L329.88 71.4303H332.605V82.5327H336.142V83.6143H332.605V86.8368H330.756ZM321.087 82.5327H330.756V72.556H330.659L321.087 82.5327Z" fill="white"/>
<path opacity="0.1" d="M296.389 77.7329L306.06 66.7148H294.556V69.1708H292.724V65.8279H308.13V66.7318L298.594 77.7329H296.389Z" fill="white"/>
<path opacity="0.1" d="M299.727 105.745C298.385 105.745 297.185 105.575 296.125 105.236C295.09 104.896 294.207 104.432 293.477 103.844C292.771 103.255 292.23 102.554 291.853 101.739C291.5 100.902 291.323 99.9963 291.323 99.0231C291.323 97.371 291.782 96.047 292.7 95.0512C293.642 94.0328 294.901 93.3538 296.478 93.0144V92.7767C295.137 92.4146 294.066 91.747 293.265 90.7738C292.488 89.8006 292.1 88.6011 292.1 87.1753C292.1 85.3648 292.771 83.9276 294.113 82.8639C295.454 81.7776 297.326 81.2344 299.727 81.2344C302.128 81.2344 303.999 81.7776 305.341 82.8639C306.683 83.9276 307.354 85.3648 307.354 87.1753C307.354 88.6011 306.953 89.8006 306.153 90.7738C305.376 91.747 304.317 92.4146 302.975 92.7767V93.0144C304.552 93.3538 305.8 94.0328 306.718 95.0512C307.66 96.047 308.13 97.371 308.13 99.0231C308.13 99.9963 307.942 100.902 307.565 101.739C307.212 102.554 306.671 103.255 305.941 103.844C305.235 104.432 304.352 104.896 303.293 105.236C302.257 105.575 301.069 105.745 299.727 105.745ZM299.727 104.013C301.633 104.013 303.14 103.583 304.246 102.723C305.376 101.863 305.941 100.709 305.941 99.2608V98.48C305.941 97.0089 305.388 95.8547 304.282 95.0173C303.175 94.1573 301.657 93.7273 299.727 93.7273C297.797 93.7273 296.278 94.1573 295.172 95.0173C294.066 95.8547 293.512 97.0089 293.512 98.48V99.2608C293.512 100.709 294.066 101.863 295.172 102.723C296.302 103.583 297.82 104.013 299.727 104.013ZM299.727 92.0638C301.445 92.0638 302.787 91.6904 303.752 90.9435C304.717 90.1741 305.2 89.133 305.2 87.8203V87.2093C305.2 85.8966 304.705 84.8669 303.717 84.12C302.752 83.3505 301.422 82.9658 299.727 82.9658C298.032 82.9658 296.69 83.3505 295.702 84.12C294.736 84.8669 294.254 85.8966 294.254 87.2093V87.8203C294.254 89.133 294.736 90.1741 295.702 90.9435C296.667 91.6904 298.008 92.0638 299.727 92.0638Z" fill="white"/>
<path opacity="0.1" d="M153.716 66.5282C150.986 66.5282 148.956 66.2954 147.625 65.8299C146.316 65.3591 145.662 64.6582 145.662 63.727C145.662 62.7959 146.316 62.0975 147.625 61.632C148.956 61.1612 150.986 60.9258 153.716 60.9258C156.445 60.9258 158.464 61.1612 159.773 61.632C161.103 62.0975 161.769 62.7959 161.769 63.727C161.769 64.6582 161.103 65.3591 159.773 65.8299C158.464 66.2954 156.445 66.5282 153.716 66.5282ZM153.716 66.1247C155.746 66.1247 157.235 65.9488 158.182 65.5971C159.13 65.2401 159.603 64.7384 159.603 64.0917V63.3623C159.603 62.7209 159.13 62.2217 158.182 61.8647C157.235 61.5078 155.746 61.3293 153.716 61.3293C151.685 61.3293 150.196 61.5078 149.249 61.8647C148.301 62.2217 147.828 62.7209 147.828 63.3623V64.0917C147.828 64.7384 148.301 65.2401 149.249 65.5971C150.196 65.9488 151.685 66.1247 153.716 66.1247ZM153.716 64.084C153.129 64.084 152.712 64.0555 152.464 63.9986C152.215 63.9417 152.091 63.8719 152.091 63.7891V63.665C152.091 63.5822 152.215 63.5123 152.464 63.4554C152.712 63.3985 153.129 63.3701 153.716 63.3701C154.302 63.3701 154.719 63.3985 154.968 63.4554C155.216 63.5123 155.34 63.5822 155.34 63.665V63.7891C155.34 63.8719 155.216 63.9417 154.968 63.9986C154.719 64.0555 154.302 64.084 153.716 64.084Z" fill="white"/>
<path opacity="0.1" d="M156.607 91.0386V87.0836H145.662V85.6479L155.768 72.1306H158.38V85.7562H161.769V87.0836H158.38V91.0386H156.607ZM147.341 85.7562H156.607V73.5121H156.514L147.341 85.7562Z" fill="white"/>
</svg>
