<svg width="720" height="337" viewBox="0 0 720 337" fill="none" xmlns="http://www.w3.org/2000/svg">
<circle cx="216" cy="134" r="13" fill="#015DF5"/>
<path d="M216.948 128.814V139H215.116V130.612H215.055L212.683 132.137V130.441L215.205 128.814H216.948Z" fill="white"/>
<rect x="0.5" y="0.5" width="719" height="336" rx="11.5" stroke="#EAEBEC"/>
<path d="M549.626 201.749C549.34 200.834 548.654 200.091 547.796 199.634L530.357 191.286C529.9 191.057 529.385 191 528.928 191C528.47 191 527.956 191 527.498 191.114L510.059 199.519C509.202 199.92 508.573 200.663 508.344 201.635L504.056 220.446C503.884 221.418 504.113 222.39 504.685 223.191L516.749 238.114C517.435 238.8 518.407 239.258 519.379 239.315H538.591C539.62 239.429 540.592 238.972 541.221 238.114L553.285 223.191C553.857 222.39 554.086 221.418 553.971 220.446L549.626 201.749V201.749Z" fill="#015DF5"/>
<path d="M546.94 219.702C546.883 219.702 546.826 219.702 546.826 219.645C546.826 219.588 546.712 219.588 546.597 219.588C546.369 219.531 546.14 219.531 545.911 219.531C545.797 219.531 545.682 219.531 545.568 219.474H545.511C544.882 219.417 544.196 219.302 543.567 219.131C543.395 219.073 543.224 218.902 543.167 218.73C543.224 218.73 543.167 218.73 543.167 218.73L542.709 218.616C542.938 216.958 542.824 215.243 542.48 213.584C542.08 211.926 541.394 210.325 540.479 208.896L540.822 208.553V208.496C540.822 208.324 540.88 208.095 540.994 207.981C541.508 207.524 542.023 207.181 542.595 206.838C542.709 206.78 542.824 206.723 542.938 206.666C543.167 206.552 543.338 206.437 543.567 206.323C543.624 206.266 543.681 206.266 543.738 206.209C543.796 206.151 543.738 206.151 543.738 206.094C544.253 205.694 544.367 205.008 543.967 204.493C543.796 204.265 543.453 204.093 543.167 204.093C542.881 204.093 542.595 204.207 542.366 204.379L542.309 204.436C542.252 204.493 542.195 204.55 542.137 204.55C541.966 204.722 541.794 204.894 541.68 205.065C541.623 205.179 541.508 205.237 541.451 205.294C541.051 205.751 540.536 206.209 540.022 206.552C539.908 206.609 539.793 206.666 539.679 206.666C539.622 206.666 539.507 206.666 539.45 206.609H539.393L538.936 206.895C538.478 206.437 537.963 205.98 537.506 205.522C535.391 203.864 532.76 202.835 530.073 202.549L530.016 202.092V202.149C529.844 202.035 529.787 201.863 529.73 201.692C529.73 201.063 529.73 200.434 529.844 199.748V199.69C529.844 199.576 529.902 199.462 529.902 199.347C529.959 199.119 529.959 198.89 530.016 198.661V198.318C530.073 197.746 529.616 197.175 529.044 197.117C528.701 197.06 528.358 197.232 528.072 197.518C527.843 197.746 527.729 198.032 527.729 198.318V198.604C527.729 198.833 527.786 199.061 527.843 199.29C527.9 199.404 527.9 199.519 527.9 199.633V199.69C528.015 200.319 528.015 200.948 528.015 201.634C527.957 201.806 527.9 201.977 527.729 202.092V202.206L527.672 202.664C527.043 202.721 526.414 202.835 525.728 202.949C523.04 203.521 520.582 204.951 518.695 206.952L518.352 206.723H518.295C518.237 206.723 518.18 206.78 518.066 206.78C517.951 206.78 517.837 206.723 517.723 206.666C517.208 206.266 516.694 205.808 516.293 205.351C516.236 205.237 516.122 205.179 516.065 205.122C515.893 204.951 515.779 204.779 515.607 204.608C515.55 204.55 515.493 204.55 515.436 204.493C515.379 204.436 515.379 204.436 515.379 204.436C515.15 204.265 514.864 204.15 514.578 204.15C514.235 204.15 513.949 204.265 513.778 204.55C513.434 205.065 513.549 205.751 514.006 206.151C514.063 206.151 514.063 206.209 514.063 206.209C514.063 206.209 514.178 206.323 514.235 206.323C514.406 206.437 514.635 206.552 514.864 206.666C514.978 206.723 515.093 206.78 515.207 206.838C515.779 207.181 516.351 207.524 516.808 207.981C516.922 208.095 517.037 208.324 516.979 208.496V208.438L517.323 208.782C517.265 208.896 517.208 208.953 517.151 209.067C515.379 211.869 514.635 215.185 515.15 218.444L514.692 218.559C514.692 218.616 514.635 218.616 514.635 218.616C514.578 218.788 514.406 218.902 514.235 219.016C513.606 219.188 512.977 219.302 512.291 219.359C512.177 219.359 512.062 219.359 511.948 219.417C511.719 219.417 511.49 219.474 511.262 219.474C511.205 219.474 511.147 219.531 511.033 219.531C510.976 219.531 510.976 219.531 510.919 219.588C510.29 219.702 509.889 220.274 510.004 220.903C510.118 221.418 510.633 221.761 511.147 221.704C511.262 221.704 511.319 221.704 511.433 221.646C511.49 221.646 511.49 221.646 511.49 221.589C511.49 221.532 511.662 221.589 511.719 221.589C511.948 221.532 512.177 221.418 512.348 221.361C512.462 221.303 512.577 221.246 512.691 221.246H512.748C513.377 221.017 513.949 220.846 514.635 220.732H514.692C514.864 220.732 515.035 220.789 515.15 220.903C515.207 220.903 515.207 220.96 515.207 220.96L515.722 220.903C516.579 223.533 518.18 225.878 520.41 227.593C520.925 227.993 521.382 228.336 521.954 228.622L521.668 229.022C521.668 229.079 521.725 229.079 521.725 229.079C521.84 229.251 521.84 229.48 521.782 229.651C521.554 230.223 521.211 230.795 520.868 231.309V231.367C520.81 231.481 520.753 231.538 520.639 231.652C520.524 231.767 520.41 231.995 520.239 232.224C520.181 232.281 520.181 232.339 520.124 232.396C520.124 232.396 520.124 232.453 520.067 232.453C519.781 233.025 520.01 233.711 520.524 233.997C520.639 234.054 520.81 234.111 520.925 234.111C521.382 234.111 521.782 233.825 522.011 233.425C522.011 233.425 522.011 233.368 522.068 233.368C522.068 233.311 522.125 233.253 522.183 233.196C522.24 232.968 522.354 232.796 522.411 232.567L522.526 232.224C522.697 231.595 522.983 231.023 523.269 230.452C523.383 230.28 523.555 230.166 523.726 230.109C523.784 230.109 523.784 230.109 523.784 230.051L524.012 229.594C525.613 230.223 527.271 230.509 528.987 230.509C530.016 230.509 531.045 230.395 532.074 230.109C532.703 229.994 533.332 229.766 533.904 229.594L534.133 229.994C534.19 229.994 534.19 229.994 534.19 230.051C534.361 230.109 534.533 230.223 534.647 230.395C534.933 230.966 535.219 231.538 535.391 232.167V232.224L535.505 232.567C535.562 232.796 535.619 233.025 535.734 233.196C535.791 233.253 535.791 233.311 535.848 233.368C535.848 233.368 535.848 233.425 535.905 233.425C536.134 233.825 536.534 234.111 536.991 234.111C537.163 234.111 537.277 234.054 537.449 233.997C537.678 233.882 537.906 233.654 537.963 233.368C538.021 233.082 538.021 232.796 537.906 232.51C537.906 232.453 537.849 232.453 537.849 232.453C537.849 232.396 537.792 232.339 537.735 232.281C537.62 232.053 537.506 231.881 537.335 231.71C537.277 231.595 537.22 231.538 537.106 231.424V231.309C536.706 230.795 536.42 230.223 536.191 229.651C536.134 229.48 536.134 229.251 536.248 229.079C536.248 229.022 536.305 229.022 536.305 229.022L536.134 228.565C539.05 226.792 541.28 224.048 542.309 220.789L542.766 220.846C542.824 220.846 542.824 220.789 542.824 220.789C542.938 220.674 543.109 220.617 543.281 220.617H543.338C543.967 220.732 544.596 220.903 545.168 221.132H545.225C545.339 221.189 545.454 221.246 545.568 221.246C545.797 221.361 545.968 221.475 546.197 221.532C546.254 221.532 546.311 221.589 546.426 221.589C546.483 221.589 546.483 221.589 546.54 221.646C546.654 221.704 546.712 221.704 546.826 221.704C547.341 221.704 547.798 221.361 547.97 220.903C547.912 220.274 547.455 219.817 546.94 219.702V219.702ZM530.416 217.93L528.872 218.673L527.329 217.93L526.928 216.272L528.015 214.9H529.73L530.816 216.272L530.416 217.93V217.93ZM539.736 214.213C540.022 215.414 540.079 216.615 539.965 217.816L534.533 216.272C534.018 216.157 533.732 215.643 533.847 215.128C533.904 214.957 533.961 214.842 534.075 214.728L538.364 210.84C538.993 211.869 539.45 213.013 539.736 214.213V214.213ZM536.648 208.724L531.96 212.041C531.56 212.269 530.988 212.212 530.702 211.812C530.588 211.698 530.53 211.583 530.53 211.412L530.187 205.637C532.703 205.923 534.933 207.009 536.648 208.724V208.724ZM526.299 205.808L527.443 205.58L527.157 211.297C527.157 211.812 526.7 212.212 526.185 212.212C526.013 212.212 525.899 212.155 525.728 212.098L520.982 208.724C522.468 207.295 524.298 206.266 526.299 205.808ZM519.324 210.84L523.555 214.614C523.955 214.957 524.012 215.528 523.669 215.929C523.555 216.1 523.44 216.157 523.212 216.215L517.666 217.816C517.494 215.414 518.066 212.955 519.324 210.84V210.84ZM518.352 220.503L524.012 219.531C524.47 219.531 524.927 219.817 524.984 220.274C525.041 220.446 525.041 220.674 524.927 220.846L522.754 226.106C520.753 224.791 519.152 222.79 518.352 220.503V220.503ZM531.331 227.593C530.53 227.764 529.73 227.879 528.872 227.879C527.672 227.879 526.414 227.65 525.27 227.307L528.072 222.218C528.358 221.875 528.815 221.761 529.215 221.989C529.387 222.104 529.501 222.218 529.673 222.39L532.417 227.364C532.074 227.421 531.731 227.478 531.331 227.593V227.593ZM538.307 222.618C537.449 223.991 536.248 225.191 534.876 226.049L532.646 220.674C532.532 220.217 532.76 219.76 533.161 219.588C533.332 219.531 533.504 219.474 533.675 219.474L539.393 220.446C539.107 221.246 538.764 221.989 538.307 222.618Z" fill="white"/>
<path d="M160.056 44.9962C160.056 46.1068 159.139 47.0243 158.028 47.0243C156.918 47.0243 156 46.1068 156 44.9962C156 43.9177 156.918 43.0002 158.028 43.0002C159.139 42.9841 160.056 43.9016 160.056 44.9962ZM159.702 48.5857V60.1269H156.386V48.5857H159.702Z" fill="black"/>
<path d="M173.226 53.5909V60.1261H169.91V54.1543C169.91 52.5607 169.041 51.6432 167.672 51.6432C166.755 51.6432 165.837 52.1583 165.371 52.9632V60.1422H162.055V48.5849H165.371V49.9531C165.998 48.9712 167.222 48.3595 168.525 48.3595C171.439 48.3435 173.226 50.3555 173.226 53.5909Z" fill="black"/>
<path d="M179.566 48.5855H182.415V51.7404H179.566V60.1267H176.25V51.7404H174.109V48.5855H176.25V47.7324C176.25 44.7385 178.15 43.0322 180.854 43.0322C181.465 43.0322 182.125 43.1771 182.544 43.3863L182.383 46.2998C182.142 46.2354 181.675 46.1388 181.353 46.1388C180.387 46.1388 179.566 46.8471 179.566 47.9095V48.5855Z" fill="black"/>
<path d="M191.618 48.5697L191.425 51.6763C190.974 51.5153 190.411 51.4188 189.944 51.4188C189.188 51.4188 187.996 52.0304 187.433 53.1572V60.1431H184.117V48.5858H187.433V49.954C187.996 48.9721 189.236 48.3604 190.202 48.3604C190.797 48.3443 191.264 48.4248 191.618 48.5697Z" fill="black"/>
<path d="M204.003 48.5852V60.1264H200.688V58.7582C200.124 59.6918 198.74 60.3517 197.275 60.3517C194.265 60.3517 191.883 57.6636 191.883 54.3316C191.883 50.9997 194.265 48.3438 197.275 48.3438C198.708 48.3438 200.124 49.0037 200.688 49.9373V48.5691H204.003V48.5852ZM200.688 55.7803V52.9634C200.189 52.1103 199.158 51.4826 197.999 51.4826C196.374 51.4826 195.134 52.7059 195.134 54.3477C195.134 55.9896 196.374 57.2129 197.999 57.2129C199.158 57.2129 200.189 56.6013 200.688 55.7803Z" fill="black"/>
<path d="M178.293 184.707C178.683 185.098 179.317 185.098 179.707 184.707L186.071 178.343C186.462 177.953 186.462 177.319 186.071 176.929C185.681 176.538 185.047 176.538 184.657 176.929L179 182.586L173.343 176.929C172.953 176.538 172.319 176.538 171.929 176.929C171.538 177.319 171.538 177.953 171.929 178.343L178.293 184.707ZM179.707 80.2929C179.317 79.9024 178.683 79.9024 178.293 80.2929L171.929 86.6569C171.538 87.0474 171.538 87.6805 171.929 88.0711C172.319 88.4616 172.953 88.4616 173.343 88.0711L179 82.4142L184.657 88.0711C185.047 88.4616 185.681 88.4616 186.071 88.0711C186.462 87.6805 186.462 87.0474 186.071 86.6569L179.707 80.2929ZM180 184L180 81L178 81L178 184L180 184Z" fill="#015DF5"/>
<path d="M463.707 220.707C464.098 220.317 464.098 219.683 463.707 219.293L457.343 212.929C456.953 212.538 456.319 212.538 455.929 212.929C455.538 213.319 455.538 213.953 455.929 214.343L461.586 220L455.929 225.657C455.538 226.047 455.538 226.681 455.929 227.071C456.319 227.462 456.953 227.462 457.343 227.071L463.707 220.707ZM224 221L463 221L463 219L224 219L224 221Z" fill="#015DF5"/>
<path d="M243.998 133V122.814H245.844V131.455H250.335V133H243.998ZM254.902 133.15C254.159 133.15 253.512 132.986 252.96 132.658C252.413 132.33 251.99 131.87 251.689 131.277C251.393 130.685 251.244 129.997 251.244 129.213C251.244 128.424 251.393 127.734 251.689 127.142C251.99 126.545 252.413 126.082 252.96 125.754C253.512 125.426 254.159 125.262 254.902 125.262C255.649 125.262 256.296 125.426 256.843 125.754C257.39 126.082 257.814 126.545 258.115 127.142C258.415 127.734 258.566 128.424 258.566 129.213C258.566 129.997 258.415 130.685 258.115 131.277C257.814 131.87 257.39 132.33 256.843 132.658C256.296 132.986 255.649 133.15 254.902 133.15ZM254.908 131.701C255.319 131.701 255.658 131.592 255.927 131.373C256.2 131.15 256.403 130.849 256.535 130.471C256.672 130.092 256.741 129.673 256.741 129.213C256.741 128.743 256.672 128.32 256.535 127.941C256.403 127.563 256.2 127.265 255.927 127.046C255.658 126.823 255.319 126.711 254.908 126.711C254.498 126.711 254.157 126.823 253.883 127.046C253.614 127.265 253.411 127.563 253.275 127.941C253.138 128.32 253.07 128.743 253.07 129.213C253.07 129.673 253.138 130.092 253.275 130.471C253.411 130.849 253.614 131.15 253.883 131.373C254.157 131.592 254.498 131.701 254.908 131.701ZM263.119 136.021C262.476 136.021 261.922 135.935 261.458 135.762C260.997 135.589 260.626 135.356 260.343 135.064C260.061 134.773 259.865 134.449 259.755 134.094L261.369 133.697C261.442 133.848 261.549 133.996 261.69 134.142C261.831 134.292 262.02 134.415 262.257 134.511C262.494 134.611 262.793 134.661 263.153 134.661C263.663 134.661 264.085 134.536 264.418 134.285C264.755 134.039 264.923 133.636 264.923 133.075V131.633H264.828C264.741 131.815 264.609 132.004 264.431 132.2C264.253 132.392 264.019 132.556 263.727 132.692C263.435 132.825 263.071 132.891 262.633 132.891C262.045 132.891 261.515 132.752 261.041 132.474C260.567 132.196 260.188 131.781 259.906 131.229C259.623 130.678 259.482 129.988 259.482 129.158C259.482 128.32 259.623 127.611 259.906 127.032C260.188 126.453 260.567 126.014 261.041 125.713C261.519 125.412 262.052 125.262 262.64 125.262C263.091 125.262 263.463 125.337 263.754 125.487C264.046 125.638 264.279 125.82 264.452 126.034C264.625 126.244 264.757 126.44 264.848 126.622H264.944V125.357H266.708V133.123C266.708 133.775 266.55 134.315 266.236 134.743C265.926 135.172 265.5 135.491 264.958 135.7C264.42 135.914 263.807 136.021 263.119 136.021ZM263.132 131.476C263.707 131.476 264.149 131.271 264.459 130.86C264.773 130.446 264.93 129.874 264.93 129.145C264.93 128.661 264.862 128.24 264.725 127.88C264.588 127.52 264.386 127.24 264.117 127.039C263.852 126.839 263.524 126.738 263.132 126.738C262.736 126.738 262.403 126.843 262.134 127.053C261.865 127.262 261.663 127.549 261.526 127.914C261.389 128.274 261.321 128.684 261.321 129.145C261.321 129.609 261.389 130.017 261.526 130.368C261.663 130.719 261.865 130.993 262.134 131.188C262.408 131.38 262.74 131.476 263.132 131.476ZM271.493 133V125.357H273.284V133H271.493ZM272.389 124.284C272.102 124.284 271.856 124.188 271.651 123.997C271.45 123.806 271.35 123.576 271.35 123.307C271.35 123.033 271.45 122.801 271.651 122.609C271.856 122.418 272.102 122.322 272.389 122.322C272.676 122.322 272.92 122.418 273.12 122.609C273.325 122.801 273.428 123.031 273.428 123.3C273.428 123.573 273.325 123.806 273.12 123.997C272.92 124.188 272.676 124.284 272.389 124.284ZM276.655 128.529V133H274.864V125.357H276.621V126.663H276.709C276.883 126.235 277.156 125.895 277.53 125.645C277.903 125.389 278.377 125.262 278.952 125.262C279.476 125.262 279.934 125.373 280.326 125.597C280.718 125.82 281.021 126.148 281.235 126.581C281.454 127.009 281.563 127.529 281.563 128.14V133H279.772V128.42C279.772 127.91 279.637 127.511 279.369 127.224C279.104 126.932 278.74 126.786 278.275 126.786C277.965 126.786 277.687 126.854 277.441 126.991C277.195 127.128 277.001 127.326 276.86 127.586C276.723 127.841 276.655 128.156 276.655 128.529Z" fill="black"/>
<path d="M246.497 142.776C246.98 142.776 247.329 142.443 247.329 141.981C247.329 141.514 246.98 141.181 246.497 141.181C246.019 141.181 245.664 141.514 245.664 141.981C245.664 142.443 246.019 142.776 246.497 142.776ZM248.967 150V149.13H247.077V144.146H244.096V145.016H246.024V149.13H244.053V150H248.967ZM250.52 150H251.594V146.568C251.594 145.623 252.196 144.994 253.093 144.994C253.957 144.994 254.36 145.467 254.36 146.471V150H255.44V146.203C255.44 144.795 254.752 144.033 253.479 144.033C252.604 144.033 251.943 144.441 251.637 145.166H251.562V144.146H250.52V150ZM258.657 150H259.731V145.064H262.234V144.178H259.715V143.592C259.715 143.05 260.102 142.765 260.838 142.765C261.106 142.765 262.019 142.787 262.234 142.808V141.976C262.073 141.949 261.096 141.927 260.816 141.927C259.334 141.927 258.657 142.448 258.657 143.63V144.178H257.089V145.064H258.657V150ZM265.946 147.39C265.946 145.956 266.682 145.134 268.003 145.134C268.325 145.134 268.707 145.204 268.97 145.3V144.119C268.777 144.038 268.46 143.995 268.127 143.995C267.004 143.995 266.322 144.538 266.091 145.639H265.941V144.146H263.626V144.973H264.899V149.173H263.738V150H267.724V149.173H265.946V147.39ZM272.069 150.097C272.896 150.097 273.525 149.753 273.804 149.151H273.906V150.005H274.932V146.004C274.932 144.774 274.126 144.065 272.714 144.065C271.457 144.065 270.538 144.72 270.431 145.687H271.484C271.623 145.225 272.069 144.957 272.692 144.957C273.444 144.957 273.863 145.333 273.863 146.004V146.52L272.327 146.6C270.963 146.681 270.211 147.293 270.211 148.335C270.211 149.393 270.952 150.097 272.069 150.097ZM272.402 149.2C271.715 149.2 271.285 148.851 271.285 148.287C271.285 147.717 271.693 147.395 272.472 147.352L273.863 147.282V147.9C273.863 148.646 273.24 149.2 272.402 149.2ZM288.446 150V149.13H286.566V141.863H283.575V142.738H285.492V149.13H283.532V150H288.446ZM292.459 150.113C294.038 150.113 295.042 149.103 295.042 147.519V146.632C295.042 145.042 294.038 144.038 292.459 144.038C290.879 144.038 289.875 145.042 289.875 146.632V147.519C289.875 149.103 290.879 150.113 292.459 150.113ZM292.459 144.951C293.393 144.951 293.979 145.623 293.979 146.708V147.443C293.979 148.528 293.393 149.2 292.459 149.2C291.524 149.2 290.939 148.528 290.939 147.443V146.708C290.939 145.623 291.524 144.951 292.459 144.951ZM298.872 152.197C300.494 152.197 301.466 151.37 301.466 149.995V144.146H300.403V145.075H300.301C300.064 144.436 299.42 144.049 298.571 144.049C297.191 144.049 296.315 145.01 296.315 146.541V147.54C296.315 149.065 297.185 150.032 298.533 150.032C299.393 150.032 300.053 149.64 300.284 149.012H300.386V149.989C300.386 150.87 299.855 151.354 298.888 151.354C298.147 151.354 297.594 151.058 297.481 150.602H296.417C296.53 151.59 297.465 152.197 298.872 152.197ZM297.411 147.438V146.627C297.411 145.628 297.991 144.983 298.899 144.983C299.801 144.983 300.386 145.623 300.386 146.627V147.438C300.386 148.437 299.801 149.082 298.899 149.082C297.991 149.082 297.411 148.437 297.411 147.438ZM305.715 142.776C306.198 142.776 306.547 142.443 306.547 141.981C306.547 141.514 306.198 141.181 305.715 141.181C305.237 141.181 304.882 141.514 304.882 141.981C304.882 142.443 305.237 142.776 305.715 142.776ZM308.186 150V149.13H306.295V144.146H303.314V145.016H305.242V149.13H303.271V150H308.186ZM309.738 150H310.812V146.568C310.812 145.623 311.414 144.994 312.311 144.994C313.175 144.994 313.578 145.467 313.578 146.471V150H314.658V146.203C314.658 144.795 313.97 144.033 312.697 144.033C311.822 144.033 311.161 144.441 310.855 145.166H310.78V144.146H309.738V150Z" fill="#676D76"/>
<circle cx="265" cy="259" r="13" fill="#015DF5"/>
<path d="M261.048 264V262.674L264.582 259.201C264.919 258.859 265.2 258.556 265.423 258.292C265.646 258.028 265.815 257.772 265.929 257.526C266.047 257.276 266.106 257.009 266.106 256.727C266.106 256.408 266.031 256.132 265.881 255.899C265.735 255.667 265.535 255.489 265.279 255.366C265.029 255.243 264.742 255.182 264.418 255.182C264.081 255.182 263.787 255.25 263.536 255.387C263.285 255.523 263.092 255.717 262.955 255.968C262.818 256.218 262.75 256.517 262.75 256.863H260.993C260.993 256.221 261.139 255.662 261.431 255.188C261.727 254.71 262.135 254.339 262.654 254.074C263.178 253.81 263.775 253.678 264.445 253.678C265.129 253.678 265.728 253.805 266.243 254.061C266.758 254.316 267.159 254.667 267.446 255.113C267.733 255.555 267.877 256.061 267.877 256.631C267.877 257.014 267.804 257.39 267.658 257.759C267.512 258.123 267.257 258.531 266.893 258.982C266.528 259.429 266.015 259.969 265.354 260.603L263.598 262.387V262.462H268.027V264H261.048Z" fill="white"/>
<circle cx="421" cy="136" r="13" fill="#015DF5"/>
<path d="M419.993 141.137C419.278 141.137 418.642 141.016 418.086 140.774C417.53 140.528 417.09 140.187 416.767 139.749C416.448 139.312 416.281 138.806 416.268 138.231H418.12C418.138 138.509 418.229 138.751 418.394 138.956C418.562 139.157 418.783 139.314 419.057 139.428C419.335 139.537 419.645 139.592 419.986 139.592C420.351 139.592 420.672 139.528 420.95 139.4C421.233 139.268 421.454 139.09 421.613 138.867C421.773 138.639 421.853 138.377 421.853 138.081C421.853 137.771 421.771 137.498 421.606 137.261C421.447 137.024 421.215 136.839 420.909 136.707C420.604 136.575 420.237 136.509 419.809 136.509H418.899V135.087H419.809C420.16 135.087 420.467 135.025 420.731 134.902C421 134.779 421.21 134.608 421.36 134.39C421.511 134.166 421.586 133.907 421.586 133.61C421.586 133.323 421.52 133.073 421.388 132.858C421.26 132.644 421.078 132.478 420.841 132.359C420.608 132.241 420.333 132.182 420.014 132.182C419.699 132.182 419.41 132.239 419.146 132.353C418.881 132.462 418.667 132.619 418.503 132.824C418.339 133.029 418.255 133.275 418.25 133.562H416.473C416.482 132.993 416.644 132.492 416.958 132.059C417.277 131.626 417.703 131.288 418.236 131.047C418.77 130.801 419.367 130.678 420.027 130.678C420.706 130.678 421.297 130.805 421.798 131.061C422.299 131.311 422.687 131.651 422.96 132.079C423.238 132.507 423.377 132.979 423.377 133.494C423.377 134.068 423.208 134.549 422.871 134.937C422.534 135.324 422.09 135.579 421.538 135.702V135.777C422.017 135.846 422.418 135.989 422.741 136.208C423.069 136.422 423.318 136.698 423.486 137.035C423.66 137.368 423.746 137.746 423.746 138.17C423.746 138.74 423.584 139.25 423.261 139.701C422.937 140.148 422.493 140.499 421.928 140.754C421.363 141.009 420.718 141.137 419.993 141.137Z" fill="white"/>
<path d="M294.311 259H292.342L295.931 248.814H298.207L301.789 259H299.827L297.106 250.906H297.024L294.311 259ZM294.379 255.008H299.745V256.484H294.379V255.008ZM305.87 259.15C305.114 259.15 304.462 258.984 303.915 258.651C303.368 258.314 302.947 257.849 302.651 257.257C302.359 256.664 302.213 255.983 302.213 255.213C302.213 254.434 302.361 253.748 302.658 253.155C302.958 252.563 303.38 252.1 303.922 251.768C304.469 251.43 305.116 251.262 305.864 251.262C306.488 251.262 307.037 251.376 307.511 251.604C307.99 251.831 308.37 252.153 308.653 252.567C308.94 252.978 309.104 253.458 309.145 254.01H307.422C307.377 253.764 307.288 253.543 307.156 253.347C307.028 253.151 306.857 252.996 306.643 252.882C306.429 252.768 306.176 252.711 305.884 252.711C305.515 252.711 305.191 252.811 304.913 253.012C304.64 253.208 304.426 253.49 304.271 253.859C304.116 254.229 304.038 254.671 304.038 255.186C304.038 255.705 304.114 256.154 304.264 256.532C304.419 256.906 304.635 257.195 304.913 257.4C305.191 257.601 305.515 257.701 305.884 257.701C306.281 257.701 306.618 257.585 306.896 257.353C307.174 257.12 307.349 256.799 307.422 256.389H309.145C309.104 256.931 308.944 257.41 308.666 257.824C308.393 258.239 308.019 258.565 307.545 258.802C307.071 259.034 306.513 259.15 305.87 259.15ZM313.698 259.15C312.941 259.15 312.29 258.984 311.743 258.651C311.196 258.314 310.774 257.849 310.478 257.257C310.186 256.664 310.041 255.983 310.041 255.213C310.041 254.434 310.189 253.748 310.485 253.155C310.786 252.563 311.207 252.1 311.75 251.768C312.296 251.43 312.944 251.262 313.691 251.262C314.315 251.262 314.864 251.376 315.338 251.604C315.817 251.831 316.197 252.153 316.48 252.567C316.767 252.978 316.931 253.458 316.972 254.01H315.25C315.204 253.764 315.115 253.543 314.983 253.347C314.855 253.151 314.684 252.996 314.47 252.882C314.256 252.768 314.003 252.711 313.711 252.711C313.342 252.711 313.019 252.811 312.741 253.012C312.467 253.208 312.253 253.49 312.098 253.859C311.943 254.229 311.866 254.671 311.866 255.186C311.866 255.705 311.941 256.154 312.091 256.532C312.246 256.906 312.463 257.195 312.741 257.4C313.019 257.601 313.342 257.701 313.711 257.701C314.108 257.701 314.445 257.585 314.723 257.353C315.001 257.12 315.177 256.799 315.25 256.389H316.972C316.931 256.931 316.772 257.41 316.494 257.824C316.22 258.239 315.847 258.565 315.373 258.802C314.899 259.034 314.34 259.15 313.698 259.15ZM321.587 259.15C320.821 259.15 320.158 258.991 319.597 258.672C319.042 258.348 318.613 257.893 318.312 257.305C318.016 256.717 317.868 256.024 317.868 255.227C317.868 254.438 318.016 253.748 318.312 253.155C318.609 252.558 319.026 252.093 319.563 251.761C320.106 251.428 320.741 251.262 321.471 251.262C321.94 251.262 322.384 251.337 322.804 251.487C323.227 251.638 323.601 251.87 323.925 252.185C324.253 252.499 324.508 252.9 324.69 253.388C324.877 253.871 324.971 254.447 324.971 255.117V255.678H318.709V254.468H324.075L323.241 254.823C323.241 254.39 323.175 254.014 323.043 253.695C322.911 253.372 322.712 253.119 322.448 252.937C322.188 252.754 321.865 252.663 321.477 252.663C321.09 252.663 320.76 252.754 320.486 252.937C320.217 253.119 320.01 253.365 319.864 253.675C319.723 253.98 319.652 254.322 319.652 254.7V255.541C319.652 256.006 319.734 256.405 319.898 256.737C320.062 257.065 320.29 257.316 320.582 257.489C320.878 257.662 321.22 257.749 321.607 257.749C321.867 257.749 322.102 257.713 322.311 257.64C322.521 257.567 322.703 257.457 322.858 257.312C323.013 257.161 323.129 256.977 323.207 256.758L324.889 256.956C324.784 257.398 324.583 257.785 324.287 258.118C323.991 258.446 323.615 258.701 323.159 258.884C322.703 259.062 322.179 259.15 321.587 259.15ZM332.224 253.388L330.583 253.559C330.515 253.308 330.367 253.087 330.139 252.896C329.911 252.7 329.59 252.602 329.175 252.602C328.801 252.602 328.489 252.684 328.238 252.848C327.988 253.012 327.862 253.221 327.862 253.477C327.862 253.7 327.944 253.884 328.109 254.03C328.277 254.172 328.553 254.285 328.936 254.372L330.241 254.646C330.961 254.796 331.499 255.042 331.855 255.384C332.21 255.726 332.388 256.168 332.388 256.71C332.388 257.188 332.249 257.612 331.971 257.981C331.693 258.351 331.308 258.638 330.816 258.843C330.328 259.048 329.765 259.15 329.127 259.15C328.503 259.15 327.958 259.062 327.493 258.884C327.033 258.706 326.662 258.451 326.379 258.118C326.101 257.785 325.926 257.384 325.853 256.915L327.603 256.751C327.68 257.093 327.849 257.353 328.109 257.53C328.373 257.703 328.71 257.79 329.12 257.79C329.549 257.79 329.893 257.703 330.152 257.53C330.417 257.353 330.549 257.136 330.549 256.881C330.549 256.662 330.465 256.482 330.296 256.341C330.127 256.195 329.868 256.083 329.517 256.006L328.211 255.732C327.482 255.573 326.94 255.315 326.584 254.96C326.233 254.6 326.058 254.142 326.058 253.586C326.058 253.112 326.188 252.702 326.447 252.355C326.712 252.009 327.076 251.74 327.541 251.549C328.006 251.357 328.544 251.262 329.154 251.262C329.751 251.262 330.262 251.351 330.686 251.528C331.114 251.701 331.456 251.948 331.711 252.267C331.971 252.581 332.142 252.955 332.224 253.388ZM339.627 253.388L337.987 253.559C337.918 253.308 337.77 253.087 337.542 252.896C337.315 252.7 336.993 252.602 336.579 252.602C336.205 252.602 335.893 252.684 335.642 252.848C335.391 253.012 335.266 253.221 335.266 253.477C335.266 253.7 335.348 253.884 335.512 254.03C335.681 254.172 335.956 254.285 336.339 254.372L337.645 254.646C338.365 254.796 338.903 255.042 339.258 255.384C339.614 255.726 339.791 256.168 339.791 256.71C339.791 257.188 339.652 257.612 339.374 257.981C339.096 258.351 338.711 258.638 338.219 258.843C337.732 259.048 337.169 259.15 336.531 259.15C335.906 259.15 335.362 259.062 334.897 258.884C334.437 258.706 334.065 258.451 333.783 258.118C333.505 257.785 333.329 257.384 333.256 256.915L335.006 256.751C335.084 257.093 335.252 257.353 335.512 257.53C335.776 257.703 336.114 257.79 336.524 257.79C336.952 257.79 337.296 257.703 337.556 257.53C337.82 257.353 337.953 257.136 337.953 256.881C337.953 256.662 337.868 256.482 337.7 256.341C337.531 256.195 337.271 256.083 336.92 256.006L335.615 255.732C334.885 255.573 334.343 255.315 333.988 254.96C333.637 254.6 333.461 254.142 333.461 253.586C333.461 253.112 333.591 252.702 333.851 252.355C334.115 252.009 334.48 251.74 334.945 251.549C335.41 251.357 335.947 251.262 336.558 251.262C337.155 251.262 337.665 251.351 338.089 251.528C338.518 251.701 338.859 251.948 339.115 252.267C339.374 252.581 339.545 252.955 339.627 253.388ZM344.208 259V251.357H345.999V259H344.208ZM345.103 250.284C344.816 250.284 344.57 250.188 344.365 249.997C344.165 249.806 344.064 249.576 344.064 249.307C344.064 249.033 344.165 248.801 344.365 248.609C344.57 248.418 344.816 248.322 345.103 248.322C345.391 248.322 345.634 248.418 345.835 248.609C346.04 248.801 346.143 249.031 346.143 249.3C346.143 249.573 346.04 249.806 345.835 249.997C345.634 250.188 345.391 250.284 345.103 250.284ZM349.369 254.529V259H347.578V251.357H349.335V252.663H349.424C349.597 252.235 349.871 251.895 350.244 251.645C350.618 251.389 351.092 251.262 351.666 251.262C352.19 251.262 352.648 251.373 353.04 251.597C353.432 251.82 353.735 252.148 353.949 252.581C354.168 253.009 354.278 253.529 354.278 254.14V259H352.487V254.42C352.487 253.91 352.352 253.511 352.083 253.224C351.819 252.932 351.454 252.786 350.989 252.786C350.68 252.786 350.402 252.854 350.156 252.991C349.909 253.128 349.716 253.326 349.574 253.586C349.438 253.841 349.369 254.156 349.369 254.529ZM359.74 251.357V252.752H355.228V251.357H359.74ZM356.356 259V250.64C356.356 250.125 356.463 249.696 356.677 249.354C356.891 249.013 357.179 248.757 357.539 248.589C357.899 248.42 358.297 248.336 358.735 248.336C359.049 248.336 359.327 248.361 359.569 248.411C359.815 248.461 359.995 248.507 360.109 248.548L359.747 249.942C359.669 249.915 359.573 249.89 359.459 249.867C359.346 249.84 359.216 249.826 359.07 249.826C358.737 249.826 358.5 249.908 358.359 250.072C358.218 250.236 358.147 250.469 358.147 250.77V259H356.356ZM361.1 259V251.357H362.837V252.643H362.919C363.06 252.196 363.299 251.854 363.637 251.617C363.978 251.376 364.368 251.255 364.805 251.255C364.906 251.255 365.017 251.259 365.14 251.269C365.263 251.278 365.368 251.289 365.455 251.303V252.957C365.373 252.93 365.25 252.907 365.086 252.889C364.922 252.87 364.764 252.861 364.614 252.861C364.286 252.861 363.99 252.932 363.725 253.073C363.466 253.215 363.261 253.408 363.11 253.654C362.964 253.9 362.891 254.188 362.891 254.516V259H361.1ZM368.429 259.157C367.946 259.157 367.508 259.071 367.116 258.897C366.729 258.72 366.424 258.46 366.2 258.118C365.977 257.776 365.865 257.355 365.865 256.854C365.865 256.425 365.945 256.07 366.105 255.787C366.269 255.505 366.487 255.279 366.761 255.11C367.039 254.942 367.349 254.814 367.691 254.728C368.037 254.636 368.397 254.573 368.771 254.536C369.222 254.486 369.586 254.443 369.864 254.406C370.142 254.37 370.345 254.311 370.473 254.229C370.6 254.146 370.664 254.019 370.664 253.846V253.812C370.664 253.561 370.614 253.349 370.514 253.176C370.413 253.003 370.265 252.87 370.069 252.779C369.873 252.688 369.632 252.643 369.345 252.643C369.049 252.643 368.793 252.686 368.579 252.772C368.37 252.859 368.194 252.975 368.053 253.121C367.916 253.267 367.816 253.426 367.752 253.6L366.084 253.265C366.234 252.813 366.467 252.44 366.781 252.144C367.096 251.847 367.469 251.626 367.902 251.48C368.34 251.335 368.818 251.262 369.338 251.262C369.703 251.262 370.067 251.305 370.432 251.392C370.801 251.474 371.138 251.615 371.443 251.815C371.749 252.016 371.995 252.285 372.182 252.622C372.369 252.959 372.462 253.381 372.462 253.887V259H370.746V257.947H370.671C370.562 258.157 370.407 258.355 370.206 258.542C370.01 258.724 369.764 258.872 369.468 258.986C369.176 259.1 368.83 259.157 368.429 259.157ZM368.894 257.831C369.254 257.831 369.566 257.76 369.83 257.619C370.099 257.473 370.306 257.282 370.452 257.045C370.603 256.803 370.678 256.541 370.678 256.259V255.363C370.619 255.409 370.521 255.452 370.384 255.493C370.252 255.53 370.101 255.564 369.933 255.596C369.764 255.628 369.598 255.655 369.434 255.678C369.274 255.701 369.135 255.719 369.017 255.732C368.748 255.769 368.506 255.83 368.292 255.917C368.082 255.999 367.916 256.113 367.793 256.259C367.67 256.405 367.608 256.594 367.608 256.826C367.608 257.159 367.729 257.41 367.971 257.578C368.212 257.747 368.52 257.831 368.894 257.831ZM380.064 253.388L378.423 253.559C378.355 253.308 378.207 253.087 377.979 252.896C377.751 252.7 377.43 252.602 377.015 252.602C376.641 252.602 376.329 252.684 376.078 252.848C375.828 253.012 375.702 253.221 375.702 253.477C375.702 253.7 375.785 253.884 375.949 254.03C376.117 254.172 376.393 254.285 376.776 254.372L378.081 254.646C378.801 254.796 379.339 255.042 379.695 255.384C380.05 255.726 380.228 256.168 380.228 256.71C380.228 257.188 380.089 257.612 379.811 257.981C379.533 258.351 379.148 258.638 378.656 258.843C378.168 259.048 377.605 259.15 376.967 259.15C376.343 259.15 375.798 259.062 375.333 258.884C374.873 258.706 374.502 258.451 374.219 258.118C373.941 257.785 373.766 257.384 373.693 256.915L375.443 256.751C375.52 257.093 375.689 257.353 375.949 257.53C376.213 257.703 376.55 257.79 376.96 257.79C377.389 257.79 377.733 257.703 377.993 257.53C378.257 257.353 378.389 257.136 378.389 256.881C378.389 256.662 378.305 256.482 378.136 256.341C377.967 256.195 377.708 256.083 377.357 256.006L376.051 255.732C375.322 255.573 374.78 255.315 374.424 254.96C374.073 254.6 373.898 254.142 373.898 253.586C373.898 253.112 374.028 252.702 374.287 252.355C374.552 252.009 374.916 251.74 375.381 251.549C375.846 251.357 376.384 251.262 376.994 251.262C377.591 251.262 378.102 251.351 378.526 251.528C378.954 251.701 379.296 251.948 379.551 252.267C379.811 252.581 379.982 252.955 380.064 253.388ZM385.239 251.357V252.752H380.857V251.357H385.239ZM381.937 249.539H383.735V256.703C383.735 257.004 383.799 257.227 383.926 257.373C384.059 257.514 384.268 257.585 384.555 257.585C384.633 257.585 384.719 257.578 384.815 257.564C384.911 257.551 385 257.535 385.082 257.517L385.389 258.925C385.198 258.984 385.002 259.027 384.801 259.055C384.605 259.087 384.412 259.103 384.22 259.103C383.509 259.103 382.951 258.916 382.546 258.542C382.14 258.164 381.937 257.649 381.937 256.997V249.539ZM386.668 259V251.357H388.404V252.643H388.486C388.628 252.196 388.867 251.854 389.204 251.617C389.546 251.376 389.935 251.255 390.373 251.255C390.473 251.255 390.585 251.259 390.708 251.269C390.831 251.278 390.936 251.289 391.022 251.303V252.957C390.94 252.93 390.817 252.907 390.653 252.889C390.489 252.87 390.332 252.861 390.182 252.861C389.853 252.861 389.557 252.932 389.293 253.073C389.033 253.215 388.828 253.408 388.678 253.654C388.532 253.9 388.459 254.188 388.459 254.516V259H386.668ZM396.806 255.794V251.357H398.597V259H396.861V257.64H396.779C396.601 258.068 396.316 258.419 395.924 258.692C395.537 258.966 395.056 259.1 394.482 259.096C393.98 259.096 393.538 258.986 393.155 258.768C392.773 258.544 392.474 258.218 392.26 257.79C392.046 257.357 391.939 256.835 391.939 256.225V251.357H393.73V255.951C393.73 256.43 393.862 256.812 394.126 257.1C394.395 257.387 394.746 257.528 395.179 257.523C395.443 257.523 395.698 257.46 395.945 257.332C396.195 257.204 396.4 257.013 396.56 256.758C396.724 256.503 396.806 256.181 396.806 255.794ZM403.499 259.15C402.742 259.15 402.09 258.984 401.543 258.651C400.997 258.314 400.575 257.849 400.279 257.257C399.987 256.664 399.841 255.983 399.841 255.213C399.841 254.434 399.989 253.748 400.286 253.155C400.586 252.563 401.008 252.1 401.55 251.768C402.097 251.43 402.744 251.262 403.492 251.262C404.116 251.262 404.665 251.376 405.139 251.604C405.618 251.831 405.998 252.153 406.281 252.567C406.568 252.978 406.732 253.458 406.773 254.01H405.05C405.005 253.764 404.916 253.543 404.784 253.347C404.656 253.151 404.485 252.996 404.271 252.882C404.057 252.768 403.804 252.711 403.512 252.711C403.143 252.711 402.819 252.811 402.541 253.012C402.268 253.208 402.054 253.49 401.899 253.859C401.744 254.229 401.666 254.671 401.666 255.186C401.666 255.705 401.742 256.154 401.892 256.532C402.047 256.906 402.263 257.195 402.541 257.4C402.819 257.601 403.143 257.701 403.512 257.701C403.909 257.701 404.246 257.585 404.524 257.353C404.802 257.12 404.977 256.799 405.05 256.389H406.773C406.732 256.931 406.572 257.41 406.294 257.824C406.021 258.239 405.647 258.565 405.173 258.802C404.699 259.034 404.141 259.15 403.499 259.15ZM411.804 251.357V252.752H407.423V251.357H411.804ZM408.503 249.539H410.301V256.703C410.301 257.004 410.364 257.227 410.492 257.373C410.624 257.514 410.834 257.585 411.121 257.585C411.198 257.585 411.285 257.578 411.381 257.564C411.476 257.551 411.565 257.535 411.647 257.517L411.955 258.925C411.763 258.984 411.567 259.027 411.367 259.055C411.171 259.087 410.977 259.103 410.786 259.103C410.075 259.103 409.517 258.916 409.111 258.542C408.705 258.164 408.503 257.649 408.503 256.997V249.539ZM417.909 255.794V251.357H419.7V259H417.964V257.64H417.882C417.704 258.068 417.419 258.419 417.027 258.692C416.64 258.966 416.159 259.1 415.585 259.096C415.084 259.096 414.642 258.986 414.259 258.768C413.876 258.544 413.578 258.218 413.363 257.79C413.149 257.357 413.042 256.835 413.042 256.225V251.357H414.833V255.951C414.833 256.43 414.965 256.812 415.23 257.1C415.498 257.387 415.849 257.528 416.282 257.523C416.547 257.523 416.802 257.46 417.048 257.332C417.299 257.204 417.504 257.013 417.663 256.758C417.827 256.503 417.909 256.181 417.909 255.794ZM421.28 259V251.357H423.016V252.643H423.098C423.239 252.196 423.478 251.854 423.816 251.617C424.158 251.376 424.547 251.255 424.985 251.255C425.085 251.255 425.197 251.259 425.32 251.269C425.443 251.278 425.548 251.289 425.634 251.303V252.957C425.552 252.93 425.429 252.907 425.265 252.889C425.101 252.87 424.944 252.861 424.793 252.861C424.465 252.861 424.169 252.932 423.905 253.073C423.645 253.215 423.44 253.408 423.289 253.654C423.144 253.9 423.071 254.188 423.071 254.516V259H421.28ZM429.62 259.15C428.854 259.15 428.191 258.991 427.63 258.672C427.074 258.348 426.646 257.893 426.345 257.305C426.049 256.717 425.901 256.024 425.901 255.227C425.901 254.438 426.049 253.748 426.345 253.155C426.642 252.558 427.059 252.093 427.596 251.761C428.139 251.428 428.774 251.262 429.504 251.262C429.973 251.262 430.417 251.337 430.837 251.487C431.26 251.638 431.634 251.87 431.958 252.185C432.286 252.499 432.541 252.9 432.723 253.388C432.91 253.871 433.004 254.447 433.004 255.117V255.678H426.742V254.468H432.108L431.274 254.823C431.274 254.39 431.208 254.014 431.076 253.695C430.944 253.372 430.745 253.119 430.481 252.937C430.221 252.754 429.898 252.663 429.51 252.663C429.123 252.663 428.793 252.754 428.519 252.937C428.25 253.119 428.043 253.365 427.897 253.675C427.756 253.98 427.685 254.322 427.685 254.7V255.541C427.685 256.006 427.767 256.405 427.931 256.737C428.095 257.065 428.323 257.316 428.615 257.489C428.911 257.662 429.253 257.749 429.64 257.749C429.9 257.749 430.135 257.713 430.344 257.64C430.554 257.567 430.736 257.457 430.891 257.312C431.046 257.161 431.162 256.977 431.24 256.758L432.921 256.956C432.817 257.398 432.616 257.785 432.32 258.118C432.024 258.446 431.648 258.701 431.192 258.884C430.736 259.062 430.212 259.15 429.62 259.15Z" fill="black"/>
<path d="M294.492 272.697H294.412V267.863H293.337V276H294.412V273.921L295.147 273.202L297.054 276H298.322L295.926 272.498L298.166 270.146H296.888L294.492 272.697ZM304.44 270.146H303.365V273.578C303.365 274.523 302.764 275.151 301.867 275.151C301.002 275.151 300.599 274.679 300.599 273.68V270.146H299.52V273.943C299.52 275.35 300.207 276.113 301.48 276.113C302.356 276.113 303.016 275.705 303.322 274.985H303.398V276H304.44V270.146ZM309.011 276.097C310.359 276.097 311.218 275.135 311.218 273.604V272.541C311.218 271.01 310.359 270.049 309.011 270.049C308.167 270.049 307.555 270.419 307.319 271.075H307.211V267.863H306.105V276H307.19V275.076H307.292C307.566 275.737 308.167 276.097 309.011 276.097ZM308.656 275.141C307.759 275.141 307.185 274.507 307.185 273.502V272.627C307.185 271.617 307.759 270.983 308.656 270.983C309.559 270.983 310.128 271.623 310.128 272.627V273.502C310.128 274.507 309.559 275.141 308.656 275.141ZM316.627 274.453C316.482 274.931 315.961 275.227 315.268 275.227C314.344 275.227 313.748 274.593 313.748 273.604V273.341H317.674V272.708C317.674 271.042 316.745 270.033 315.215 270.033C313.694 270.033 312.69 271.048 312.69 272.589V273.481C312.69 275.146 313.63 276.113 315.274 276.113C316.536 276.113 317.503 275.436 317.658 274.453H316.627ZM315.204 270.914C316.09 270.914 316.616 271.542 316.616 272.584H313.748C313.748 271.537 314.296 270.914 315.204 270.914ZM324.222 272.031C324.077 270.763 323.191 270.027 321.827 270.027C320.199 270.027 319.259 271 319.259 272.708V273.427C319.259 275.135 320.199 276.113 321.827 276.113C323.191 276.113 324.077 275.377 324.222 274.131H323.159C323.051 274.792 322.536 275.184 321.816 275.184C320.865 275.184 320.339 274.518 320.339 273.314V272.82C320.339 271.617 320.865 270.951 321.816 270.951C322.53 270.951 323.057 271.354 323.159 272.031H324.222ZM327.235 268.545V270.178H325.689V271.064H327.235V274.228C327.235 275.484 327.891 276.021 329.389 276.021C329.615 276.021 330.463 276 330.582 275.979V275.098C330.453 275.114 329.738 275.125 329.464 275.125C328.718 275.125 328.315 274.808 328.315 274.228V271.064H330.614V270.178H328.299V268.545H327.235ZM337.446 276V275.13H335.566V267.863H332.575V268.738H334.492V275.13H332.532V276H337.446ZM347.872 278.197C349.494 278.197 350.466 277.37 350.466 275.995V270.146H349.403V271.075H349.301C349.064 270.436 348.42 270.049 347.571 270.049C346.191 270.049 345.315 271.01 345.315 272.541V273.54C345.315 275.065 346.185 276.032 347.533 276.032C348.393 276.032 349.053 275.64 349.284 275.012H349.386V275.989C349.386 276.87 348.855 277.354 347.888 277.354C347.147 277.354 346.594 277.058 346.481 276.602H345.417C345.53 277.59 346.465 278.197 347.872 278.197ZM346.411 273.438V272.627C346.411 271.628 346.991 270.983 347.899 270.983C348.801 270.983 349.386 271.623 349.386 272.627V273.438C349.386 274.437 348.801 275.082 347.899 275.082C346.991 275.082 346.411 274.437 346.411 273.438ZM356.106 274.453C355.961 274.931 355.44 275.227 354.747 275.227C353.823 275.227 353.227 274.593 353.227 273.604V273.341H357.153V272.708C357.153 271.042 356.224 270.033 354.693 270.033C353.173 270.033 352.169 271.048 352.169 272.589V273.481C352.169 275.146 353.109 276.113 354.752 276.113C356.015 276.113 356.981 275.436 357.137 274.453H356.106ZM354.683 270.914C355.569 270.914 356.095 271.542 356.095 272.584H353.227C353.227 271.537 353.775 270.914 354.683 270.914ZM360.134 268.545V270.178H358.588V271.064H360.134V274.228C360.134 275.484 360.79 276.021 362.288 276.021C362.514 276.021 363.363 276 363.481 275.979V275.098C363.352 275.114 362.637 275.125 362.363 275.125C361.617 275.125 361.214 274.808 361.214 274.228V271.064H363.513V270.178H361.198V268.545H360.134ZM374.814 270.054C373.965 270.054 373.364 270.409 373.09 271.075H372.988V270.146H371.908V277.966H373.015V275.071H373.117C373.353 275.726 373.965 276.097 374.814 276.097C376.162 276.097 377.022 275.135 377.022 273.61V272.541C377.022 271.016 376.162 270.054 374.814 270.054ZM374.454 271.01C375.357 271.01 375.931 271.644 375.931 272.648V273.524C375.931 274.528 375.357 275.167 374.454 275.167C373.557 275.167 372.988 274.534 372.988 273.524V272.648C372.988 271.644 373.557 271.01 374.454 271.01ZM380.937 276.113C382.516 276.113 383.521 275.103 383.521 273.519V272.632C383.521 271.042 382.516 270.038 380.937 270.038C379.358 270.038 378.354 271.042 378.354 272.632V273.519C378.354 275.103 379.358 276.113 380.937 276.113ZM380.937 270.951C381.872 270.951 382.457 271.623 382.457 272.708V273.443C382.457 274.528 381.872 275.2 380.937 275.2C380.003 275.2 379.417 274.528 379.417 273.443V272.708C379.417 271.623 380.003 270.951 380.937 270.951ZM387.066 276.097C387.909 276.097 388.511 275.737 388.79 275.076H388.892V276H389.972V267.863H388.865V271.075H388.763C388.527 270.419 387.909 270.049 387.066 270.049C385.718 270.049 384.858 271.01 384.858 272.541V273.604C384.858 275.135 385.718 276.097 387.066 276.097ZM387.42 275.141C386.518 275.141 385.949 274.507 385.949 273.502V272.627C385.949 271.623 386.518 270.983 387.42 270.983C388.323 270.983 388.892 271.617 388.892 272.627V273.502C388.892 274.507 388.323 275.141 387.42 275.141ZM391.895 271.762C391.895 272.616 392.427 273.153 393.495 273.395L394.371 273.594C395.08 273.755 395.343 273.975 395.343 274.405C395.343 274.915 394.87 275.243 394.135 275.243C393.426 275.243 392.942 274.958 392.824 274.458H391.739C391.836 275.49 392.727 276.107 394.108 276.107C395.536 276.107 396.455 275.398 396.455 274.287C396.455 273.427 395.934 272.933 394.779 272.675L393.93 272.487C393.248 272.337 392.964 272.106 392.964 271.687C392.964 271.204 393.409 270.881 394.097 270.881C394.742 270.881 395.198 271.177 395.295 271.655H396.326C396.229 270.64 395.391 270.027 394.113 270.027C392.77 270.027 391.895 270.715 391.895 271.762Z" fill="#676D76"/>
<path d="M186.193 233.464C187.812 233.932 189.489 234.168 191.174 234.167C193.884 234.171 196.559 233.555 198.993 232.368C199.065 230.675 198.581 229.005 197.613 227.611C196.646 226.217 195.248 225.174 193.632 224.642C192.016 224.11 190.27 224.116 188.658 224.661C187.046 225.205 185.657 226.258 184.7 227.659M186.193 233.464V233.458C186.193 231.356 185.653 229.378 184.702 227.659M186.193 233.464V233.664C182.542 235.854 178.358 237.007 174.096 237C169.673 237 165.535 235.782 162.002 233.664L162 233.458C161.999 230.785 162.891 228.186 164.537 226.073C166.182 223.96 168.488 222.453 171.089 221.788C173.691 221.123 176.441 221.34 178.905 222.403C181.369 223.466 183.408 225.315 184.7 227.659M180.501 209.375C180.501 211.066 179.827 212.687 178.626 213.883C177.425 215.078 175.796 215.75 174.098 215.75C172.399 215.75 170.77 215.078 169.57 213.883C168.369 212.687 167.694 211.066 167.694 209.375C167.694 207.684 168.369 206.063 169.57 204.867C170.77 203.672 172.399 203 174.098 203C175.796 203 177.425 203.672 178.626 204.867C179.827 206.063 180.501 207.684 180.501 209.375V209.375ZM196.155 213.625C196.155 214.94 195.63 216.201 194.696 217.131C193.762 218.061 192.495 218.583 191.174 218.583C189.853 218.583 188.586 218.061 187.652 217.131C186.718 216.201 186.193 214.94 186.193 213.625C186.193 212.31 186.718 211.049 187.652 210.119C188.586 209.189 189.853 208.667 191.174 208.667C192.495 208.667 193.762 209.189 194.696 210.119C195.63 211.049 196.155 212.31 196.155 213.625V213.625Z" stroke="black" stroke-width="2" stroke-linecap="round" stroke-linejoin="round"/>
<path d="M452.594 133.157C451.801 133.157 451.113 133.034 450.529 132.788C449.946 132.542 449.49 132.184 449.162 131.715C448.839 131.241 448.663 130.667 448.636 129.992H450.447C450.475 130.348 450.584 130.644 450.775 130.881C450.967 131.113 451.217 131.289 451.527 131.407C451.842 131.526 452.193 131.585 452.58 131.585C452.977 131.585 453.327 131.523 453.633 131.4C453.943 131.277 454.182 131.106 454.351 130.888C454.524 130.669 454.61 130.414 454.61 130.122C454.61 129.858 454.533 129.641 454.378 129.473C454.228 129.299 454.013 129.154 453.735 129.035C453.462 128.917 453.143 128.812 452.778 128.721L451.623 128.42C450.785 128.206 450.121 127.88 449.634 127.442C449.151 127 448.909 126.412 448.909 125.679C448.909 125.077 449.071 124.553 449.395 124.106C449.723 123.655 450.167 123.304 450.728 123.054C451.293 122.803 451.931 122.678 452.642 122.678C453.366 122.678 454 122.803 454.542 123.054C455.089 123.304 455.517 123.651 455.827 124.093C456.142 124.535 456.303 125.043 456.312 125.617H454.535C454.49 125.18 454.296 124.842 453.954 124.605C453.612 124.364 453.166 124.243 452.614 124.243C452.236 124.243 451.908 124.3 451.63 124.414C451.356 124.528 451.145 124.685 450.994 124.886C450.848 125.086 450.775 125.314 450.775 125.569C450.775 125.852 450.862 126.084 451.035 126.267C451.208 126.444 451.427 126.588 451.691 126.697C451.956 126.807 452.227 126.898 452.505 126.971L453.455 127.21C453.838 127.301 454.207 127.424 454.562 127.579C454.923 127.729 455.244 127.921 455.526 128.153C455.813 128.381 456.039 128.659 456.203 128.987C456.367 129.315 456.449 129.701 456.449 130.143C456.449 130.735 456.297 131.259 455.991 131.715C455.69 132.166 455.253 132.519 454.679 132.774C454.104 133.03 453.41 133.157 452.594 133.157ZM459.533 128.529V133H457.741V122.814H459.491V126.663H459.587C459.765 126.23 460.041 125.888 460.414 125.638C460.793 125.387 461.273 125.262 461.857 125.262C462.385 125.262 462.846 125.373 463.238 125.597C463.634 125.82 463.942 126.146 464.16 126.574C464.384 127.003 464.495 127.524 464.495 128.14V133H462.698V128.42C462.698 127.9 462.565 127.499 462.301 127.217C462.041 126.93 461.67 126.786 461.187 126.786C460.868 126.786 460.583 126.854 460.332 126.991C460.086 127.128 459.89 127.326 459.744 127.586C459.603 127.841 459.533 128.156 459.533 128.529ZM469.397 133.15C468.654 133.15 468.007 132.986 467.456 132.658C466.909 132.33 466.485 131.87 466.184 131.277C465.888 130.685 465.74 129.997 465.74 129.213C465.74 128.424 465.888 127.734 466.184 127.142C466.485 126.545 466.909 126.082 467.456 125.754C468.007 125.426 468.654 125.262 469.397 125.262C470.144 125.262 470.792 125.426 471.338 125.754C471.885 126.082 472.309 126.545 472.61 127.142C472.911 127.734 473.061 128.424 473.061 129.213C473.061 129.997 472.911 130.685 472.61 131.277C472.309 131.87 471.885 132.33 471.338 132.658C470.792 132.986 470.144 133.15 469.397 133.15ZM469.404 131.701C469.814 131.701 470.154 131.592 470.422 131.373C470.696 131.15 470.899 130.849 471.031 130.471C471.168 130.092 471.236 129.673 471.236 129.213C471.236 128.743 471.168 128.32 471.031 127.941C470.899 127.563 470.696 127.265 470.422 127.046C470.154 126.823 469.814 126.711 469.404 126.711C468.994 126.711 468.652 126.823 468.378 127.046C468.11 127.265 467.907 127.563 467.77 127.941C467.633 128.32 467.565 128.743 467.565 129.213C467.565 129.673 467.633 130.092 467.77 130.471C467.907 130.849 468.11 131.15 468.378 131.373C468.652 131.592 468.994 131.701 469.404 131.701ZM474.312 133V125.357H476.049V126.643H476.131C476.272 126.196 476.511 125.854 476.848 125.617C477.19 125.376 477.58 125.255 478.017 125.255C478.118 125.255 478.229 125.259 478.352 125.269C478.475 125.278 478.58 125.289 478.667 125.303V126.957C478.585 126.93 478.462 126.907 478.298 126.889C478.134 126.87 477.976 126.861 477.826 126.861C477.498 126.861 477.202 126.932 476.937 127.073C476.678 127.215 476.472 127.408 476.322 127.654C476.176 127.9 476.103 128.188 476.103 128.516V133H474.312ZM483.644 125.357V126.752H479.262V125.357H483.644ZM480.342 123.539H482.14V130.703C482.14 131.004 482.204 131.227 482.331 131.373C482.463 131.514 482.673 131.585 482.96 131.585C483.038 131.585 483.124 131.578 483.22 131.564C483.316 131.551 483.404 131.535 483.486 131.517L483.794 132.925C483.603 132.984 483.407 133.027 483.206 133.055C483.01 133.087 482.817 133.103 482.625 133.103C481.914 133.103 481.356 132.916 480.95 132.542C480.545 132.164 480.342 131.649 480.342 130.997V123.539ZM489.256 128.023V129.5H484.669V128.023H489.256ZM492.668 122.814V133H490.877V122.814H492.668ZM494.862 133V125.357H496.653V133H494.862ZM495.758 124.284C495.471 124.284 495.225 124.188 495.019 123.997C494.819 123.806 494.719 123.576 494.719 123.307C494.719 123.033 494.819 122.801 495.019 122.609C495.225 122.418 495.471 122.322 495.758 122.322C496.045 122.322 496.289 122.418 496.489 122.609C496.694 122.801 496.797 123.031 496.797 123.3C496.797 123.573 496.694 123.806 496.489 123.997C496.289 124.188 496.045 124.284 495.758 124.284ZM505.048 125.357L502.334 133H500.338L497.624 125.357H499.538L501.309 131.038H501.391L503.148 125.357H505.048ZM509.143 133.15C508.377 133.15 507.714 132.991 507.154 132.672C506.598 132.348 506.169 131.893 505.869 131.305C505.572 130.717 505.424 130.024 505.424 129.227C505.424 128.438 505.572 127.748 505.869 127.155C506.165 126.558 506.582 126.093 507.12 125.761C507.662 125.428 508.298 125.262 509.027 125.262C509.496 125.262 509.941 125.337 510.36 125.487C510.784 125.638 511.157 125.87 511.481 126.185C511.809 126.499 512.064 126.9 512.247 127.388C512.433 127.871 512.527 128.447 512.527 129.117V129.678H506.265V128.468H511.631L510.797 128.823C510.797 128.39 510.731 128.014 510.599 127.695C510.467 127.372 510.269 127.119 510.004 126.937C509.745 126.754 509.421 126.663 509.034 126.663C508.646 126.663 508.316 126.754 508.042 126.937C507.774 127.119 507.566 127.365 507.42 127.675C507.279 127.98 507.209 128.322 507.209 128.7V129.541C507.209 130.006 507.291 130.405 507.455 130.737C507.619 131.065 507.847 131.316 508.138 131.489C508.434 131.662 508.776 131.749 509.164 131.749C509.423 131.749 509.658 131.713 509.868 131.64C510.077 131.567 510.26 131.457 510.415 131.312C510.57 131.161 510.686 130.977 510.763 130.758L512.445 130.956C512.34 131.398 512.14 131.785 511.843 132.118C511.547 132.446 511.171 132.701 510.715 132.884C510.26 133.062 509.736 133.15 509.143 133.15ZM516.567 133.137C515.966 133.137 515.426 132.984 514.947 132.679C514.473 132.369 514.099 131.92 513.826 131.332C513.553 130.744 513.416 130.031 513.416 129.192C513.416 128.34 513.555 127.622 513.833 127.039C514.115 126.456 514.494 126.014 514.968 125.713C515.446 125.412 515.977 125.262 516.56 125.262C517.012 125.262 517.381 125.337 517.668 125.487C517.959 125.638 518.19 125.82 518.358 126.034C518.527 126.244 518.657 126.44 518.748 126.622H518.823V122.814H520.621V133H518.857V131.79H518.748C518.657 131.977 518.522 132.175 518.345 132.385C518.171 132.59 517.941 132.768 517.654 132.918C517.367 133.064 517.005 133.137 516.567 133.137ZM517.059 131.66C517.442 131.66 517.768 131.558 518.037 131.353C518.306 131.143 518.509 130.854 518.645 130.484C518.787 130.111 518.857 129.678 518.857 129.186C518.857 128.689 518.789 128.258 518.652 127.894C518.515 127.524 518.313 127.24 518.044 127.039C517.775 126.839 517.447 126.738 517.059 126.738C516.663 126.738 516.33 126.843 516.061 127.053C515.797 127.262 515.596 127.552 515.46 127.921C515.323 128.29 515.255 128.712 515.255 129.186C515.255 129.66 515.323 130.083 515.46 130.457C515.596 130.831 515.799 131.125 516.068 131.339C516.337 131.553 516.667 131.66 517.059 131.66ZM528.722 133.15C527.966 133.15 527.314 132.984 526.767 132.651C526.22 132.314 525.799 131.849 525.502 131.257C525.211 130.664 525.065 129.983 525.065 129.213C525.065 128.434 525.213 127.748 525.509 127.155C525.81 126.563 526.231 126.1 526.774 125.768C527.321 125.43 527.968 125.262 528.715 125.262C529.34 125.262 529.889 125.376 530.363 125.604C530.841 125.831 531.222 126.153 531.504 126.567C531.791 126.978 531.955 127.458 531.996 128.01H530.274C530.228 127.764 530.139 127.543 530.007 127.347C529.88 127.151 529.709 126.996 529.494 126.882C529.28 126.768 529.027 126.711 528.736 126.711C528.367 126.711 528.043 126.811 527.765 127.012C527.492 127.208 527.277 127.49 527.122 127.859C526.967 128.229 526.89 128.671 526.89 129.186C526.89 129.705 526.965 130.154 527.116 130.532C527.271 130.906 527.487 131.195 527.765 131.4C528.043 131.601 528.367 131.701 528.736 131.701C529.132 131.701 529.469 131.585 529.747 131.353C530.025 131.12 530.201 130.799 530.274 130.389H531.996C531.955 130.931 531.796 131.41 531.518 131.824C531.244 132.239 530.871 132.565 530.397 132.802C529.923 133.034 529.365 133.15 528.722 133.15ZM533.227 133V125.357H534.964V126.643H535.046C535.187 126.196 535.426 125.854 535.763 125.617C536.105 125.376 536.495 125.255 536.932 125.255C537.033 125.255 537.144 125.259 537.267 125.269C537.39 125.278 537.495 125.289 537.582 125.303V126.957C537.5 126.93 537.377 126.907 537.213 126.889C537.048 126.87 536.891 126.861 536.741 126.861C536.413 126.861 536.117 126.932 535.852 127.073C535.592 127.215 535.387 127.408 535.237 127.654C535.091 127.9 535.018 128.188 535.018 128.516V133H533.227ZM541.567 133.15C540.802 133.15 540.139 132.991 539.578 132.672C539.022 132.348 538.594 131.893 538.293 131.305C537.997 130.717 537.849 130.024 537.849 129.227C537.849 128.438 537.997 127.748 538.293 127.155C538.589 126.558 539.006 126.093 539.544 125.761C540.086 125.428 540.722 125.262 541.451 125.262C541.92 125.262 542.365 125.337 542.784 125.487C543.208 125.638 543.582 125.87 543.905 126.185C544.233 126.499 544.489 126.9 544.671 127.388C544.858 127.871 544.951 128.447 544.951 129.117V129.678H538.689V128.468H544.056L543.222 128.823C543.222 128.39 543.156 128.014 543.023 127.695C542.891 127.372 542.693 127.119 542.429 126.937C542.169 126.754 541.845 126.663 541.458 126.663C541.071 126.663 540.74 126.754 540.467 126.937C540.198 127.119 539.99 127.365 539.845 127.675C539.703 127.98 539.633 128.322 539.633 128.7V129.541C539.633 130.006 539.715 130.405 539.879 130.737C540.043 131.065 540.271 131.316 540.562 131.489C540.859 131.662 541.2 131.749 541.588 131.749C541.848 131.749 542.082 131.713 542.292 131.64C542.502 131.567 542.684 131.457 542.839 131.312C542.994 131.161 543.11 130.977 543.187 130.758L544.869 130.956C544.764 131.398 544.564 131.785 544.268 132.118C543.971 132.446 543.595 132.701 543.14 132.884C542.684 133.062 542.16 133.15 541.567 133.15ZM548.991 133.137C548.39 133.137 547.85 132.984 547.371 132.679C546.897 132.369 546.524 131.92 546.25 131.332C545.977 130.744 545.84 130.031 545.84 129.192C545.84 128.34 545.979 127.622 546.257 127.039C546.54 126.456 546.918 126.014 547.392 125.713C547.87 125.412 548.401 125.262 548.985 125.262C549.436 125.262 549.805 125.337 550.092 125.487C550.384 125.638 550.614 125.82 550.782 126.034C550.951 126.244 551.081 126.44 551.172 126.622H551.247V122.814H553.045V133H551.281V131.79H551.172C551.081 131.977 550.946 132.175 550.769 132.385C550.596 132.59 550.365 132.768 550.078 132.918C549.791 133.064 549.429 133.137 548.991 133.137ZM549.484 131.66C549.866 131.66 550.192 131.558 550.461 131.353C550.73 131.143 550.933 130.854 551.07 130.484C551.211 130.111 551.281 129.678 551.281 129.186C551.281 128.689 551.213 128.258 551.076 127.894C550.94 127.524 550.737 127.24 550.468 127.039C550.199 126.839 549.871 126.738 549.484 126.738C549.087 126.738 548.754 126.843 548.486 127.053C548.221 127.262 548.021 127.552 547.884 127.921C547.747 128.29 547.679 128.712 547.679 129.186C547.679 129.66 547.747 130.083 547.884 130.457C548.021 130.831 548.224 131.125 548.492 131.339C548.761 131.553 549.092 131.66 549.484 131.66ZM558.029 133.15C557.263 133.15 556.6 132.991 556.04 132.672C555.484 132.348 555.055 131.893 554.754 131.305C554.458 130.717 554.31 130.024 554.31 129.227C554.31 128.438 554.458 127.748 554.754 127.155C555.051 126.558 555.468 126.093 556.005 125.761C556.548 125.428 557.183 125.262 557.913 125.262C558.382 125.262 558.826 125.337 559.246 125.487C559.669 125.638 560.043 125.87 560.367 126.185C560.695 126.499 560.95 126.9 561.132 127.388C561.319 127.871 561.413 128.447 561.413 129.117V129.678H555.151V128.468H560.517L559.683 128.823C559.683 128.39 559.617 128.014 559.485 127.695C559.353 127.372 559.154 127.119 558.89 126.937C558.63 126.754 558.307 126.663 557.919 126.663C557.532 126.663 557.202 126.754 556.928 126.937C556.659 127.119 556.452 127.365 556.306 127.675C556.165 127.98 556.094 128.322 556.094 128.7V129.541C556.094 130.006 556.176 130.405 556.34 130.737C556.504 131.065 556.732 131.316 557.024 131.489C557.32 131.662 557.662 131.749 558.049 131.749C558.309 131.749 558.544 131.713 558.753 131.64C558.963 131.567 559.145 131.457 559.3 131.312C559.455 131.161 559.571 130.977 559.649 130.758L561.331 130.956C561.226 131.398 561.025 131.785 560.729 132.118C560.433 132.446 560.057 132.701 559.601 132.884C559.145 133.062 558.621 133.15 558.029 133.15ZM564.427 128.529V133H562.636V125.357H564.393V126.663H564.482C564.655 126.235 564.929 125.895 565.302 125.645C565.676 125.389 566.15 125.262 566.724 125.262C567.248 125.262 567.706 125.373 568.098 125.597C568.49 125.82 568.793 126.148 569.008 126.581C569.226 127.009 569.336 127.529 569.336 128.14V133H567.545V128.42C567.545 127.91 567.41 127.511 567.141 127.224C566.877 126.932 566.512 126.786 566.048 126.786C565.738 126.786 565.46 126.854 565.214 126.991C564.968 127.128 564.774 127.326 564.633 127.586C564.496 127.841 564.427 128.156 564.427 128.529ZM574.716 125.357V126.752H570.334V125.357H574.716ZM571.414 123.539H573.212V130.703C573.212 131.004 573.276 131.227 573.403 131.373C573.536 131.514 573.745 131.585 574.032 131.585C574.11 131.585 574.196 131.578 574.292 131.564C574.388 131.551 574.477 131.535 574.559 131.517L574.866 132.925C574.675 132.984 574.479 133.027 574.278 133.055C574.082 133.087 573.889 133.103 573.697 133.103C572.986 133.103 572.428 132.916 572.022 132.542C571.617 132.164 571.414 131.649 571.414 130.997V123.539ZM576.172 133V125.357H577.963V133H576.172ZM577.068 124.284C576.781 124.284 576.534 124.188 576.329 123.997C576.129 123.806 576.029 123.576 576.029 123.307C576.029 123.033 576.129 122.801 576.329 122.609C576.534 122.418 576.781 122.322 577.068 122.322C577.355 122.322 577.599 122.418 577.799 122.609C578.004 122.801 578.107 123.031 578.107 123.3C578.107 123.573 578.004 123.806 577.799 123.997C577.599 124.188 577.355 124.284 577.068 124.284ZM581.737 133.157C581.254 133.157 580.816 133.071 580.424 132.897C580.037 132.72 579.732 132.46 579.508 132.118C579.285 131.776 579.173 131.355 579.173 130.854C579.173 130.425 579.253 130.07 579.413 129.787C579.577 129.505 579.796 129.279 580.069 129.11C580.347 128.942 580.657 128.814 580.999 128.728C581.345 128.636 581.705 128.573 582.079 128.536C582.53 128.486 582.894 128.443 583.172 128.406C583.45 128.37 583.653 128.311 583.781 128.229C583.908 128.146 583.972 128.019 583.972 127.846V127.812C583.972 127.561 583.922 127.349 583.822 127.176C583.722 127.003 583.573 126.87 583.378 126.779C583.182 126.688 582.94 126.643 582.653 126.643C582.357 126.643 582.101 126.686 581.887 126.772C581.678 126.859 581.502 126.975 581.361 127.121C581.224 127.267 581.124 127.426 581.06 127.6L579.392 127.265C579.543 126.813 579.775 126.44 580.089 126.144C580.404 125.847 580.778 125.626 581.211 125.48C581.648 125.335 582.127 125.262 582.646 125.262C583.011 125.262 583.375 125.305 583.74 125.392C584.109 125.474 584.446 125.615 584.752 125.815C585.057 126.016 585.303 126.285 585.49 126.622C585.677 126.959 585.77 127.381 585.77 127.887V133H584.054V131.947H583.979C583.87 132.157 583.715 132.355 583.514 132.542C583.318 132.724 583.072 132.872 582.776 132.986C582.484 133.1 582.138 133.157 581.737 133.157ZM582.202 131.831C582.562 131.831 582.874 131.76 583.138 131.619C583.407 131.473 583.615 131.282 583.76 131.045C583.911 130.803 583.986 130.541 583.986 130.259V129.363C583.927 129.409 583.829 129.452 583.692 129.493C583.56 129.53 583.409 129.564 583.241 129.596C583.072 129.628 582.906 129.655 582.742 129.678C582.582 129.701 582.443 129.719 582.325 129.732C582.056 129.769 581.814 129.83 581.6 129.917C581.391 129.999 581.224 130.113 581.101 130.259C580.978 130.405 580.917 130.594 580.917 130.826C580.917 131.159 581.037 131.41 581.279 131.578C581.52 131.747 581.828 131.831 582.202 131.831ZM589.134 122.814V133H587.343V122.814H589.134ZM596.742 127.388L595.102 127.559C595.033 127.308 594.885 127.087 594.657 126.896C594.43 126.7 594.108 126.602 593.694 126.602C593.32 126.602 593.008 126.684 592.757 126.848C592.506 127.012 592.381 127.221 592.381 127.477C592.381 127.7 592.463 127.884 592.627 128.03C592.796 128.172 593.071 128.285 593.454 128.372L594.76 128.646C595.48 128.796 596.018 129.042 596.373 129.384C596.729 129.726 596.906 130.168 596.906 130.71C596.906 131.188 596.767 131.612 596.489 131.981C596.211 132.351 595.826 132.638 595.334 132.843C594.847 133.048 594.284 133.15 593.646 133.15C593.021 133.15 592.477 133.062 592.012 132.884C591.552 132.706 591.18 132.451 590.898 132.118C590.62 131.785 590.444 131.384 590.371 130.915L592.121 130.751C592.199 131.093 592.367 131.353 592.627 131.53C592.891 131.703 593.229 131.79 593.639 131.79C594.067 131.79 594.411 131.703 594.671 131.53C594.935 131.353 595.068 131.136 595.068 130.881C595.068 130.662 594.983 130.482 594.815 130.341C594.646 130.195 594.386 130.083 594.035 130.006L592.73 129.732C592 129.573 591.458 129.315 591.103 128.96C590.752 128.6 590.576 128.142 590.576 127.586C590.576 127.112 590.706 126.702 590.966 126.355C591.23 126.009 591.595 125.74 592.06 125.549C592.525 125.357 593.062 125.262 593.673 125.262C594.27 125.262 594.78 125.351 595.204 125.528C595.633 125.701 595.974 125.948 596.23 126.267C596.489 126.581 596.66 126.955 596.742 127.388ZM603.517 133.157C603.034 133.157 602.597 133.071 602.205 132.897C601.817 132.72 601.512 132.46 601.289 132.118C601.065 131.776 600.954 131.355 600.954 130.854C600.954 130.425 601.034 130.07 601.193 129.787C601.357 129.505 601.576 129.279 601.849 129.11C602.127 128.942 602.437 128.814 602.779 128.728C603.125 128.636 603.485 128.573 603.859 128.536C604.31 128.486 604.675 128.443 604.953 128.406C605.231 128.37 605.434 128.311 605.561 128.229C605.689 128.146 605.753 128.019 605.753 127.846V127.812C605.753 127.561 605.703 127.349 605.602 127.176C605.502 127.003 605.354 126.87 605.158 126.779C604.962 126.688 604.72 126.643 604.433 126.643C604.137 126.643 603.882 126.686 603.668 126.772C603.458 126.859 603.283 126.975 603.141 127.121C603.005 127.267 602.904 127.426 602.841 127.6L601.173 127.265C601.323 126.813 601.555 126.44 601.87 126.144C602.184 125.847 602.558 125.626 602.991 125.48C603.428 125.335 603.907 125.262 604.426 125.262C604.791 125.262 605.156 125.305 605.52 125.392C605.889 125.474 606.227 125.615 606.532 125.815C606.837 126.016 607.083 126.285 607.27 126.622C607.457 126.959 607.551 127.381 607.551 127.887V133H605.835V131.947H605.759C605.65 132.157 605.495 132.355 605.295 132.542C605.099 132.724 604.853 132.872 604.556 132.986C604.265 133.1 603.918 133.157 603.517 133.157ZM603.982 131.831C604.342 131.831 604.654 131.76 604.919 131.619C605.188 131.473 605.395 131.282 605.541 131.045C605.691 130.803 605.766 130.541 605.766 130.259V129.363C605.707 129.409 605.609 129.452 605.472 129.493C605.34 129.53 605.19 129.564 605.021 129.596C604.853 129.628 604.686 129.655 604.522 129.678C604.363 129.701 604.224 129.719 604.105 129.732C603.836 129.769 603.595 129.83 603.381 129.917C603.171 129.999 603.005 130.113 602.882 130.259C602.759 130.405 602.697 130.594 602.697 130.826C602.697 131.159 602.818 131.41 603.059 131.578C603.301 131.747 603.608 131.831 603.982 131.831ZM609.123 133V125.357H610.859V126.643H610.941C611.083 126.196 611.322 125.854 611.659 125.617C612.001 125.376 612.391 125.255 612.828 125.255C612.928 125.255 613.04 125.259 613.163 125.269C613.286 125.278 613.391 125.289 613.478 125.303V126.957C613.396 126.93 613.272 126.907 613.108 126.889C612.944 126.87 612.787 126.861 612.637 126.861C612.309 126.861 612.012 126.932 611.748 127.073C611.488 127.215 611.283 127.408 611.133 127.654C610.987 127.9 610.914 128.188 610.914 128.516V133H609.123ZM617.463 133.15C616.698 133.15 616.034 132.991 615.474 132.672C614.918 132.348 614.49 131.893 614.189 131.305C613.893 130.717 613.744 130.024 613.744 129.227C613.744 128.438 613.893 127.748 614.189 127.155C614.485 126.558 614.902 126.093 615.44 125.761C615.982 125.428 616.618 125.262 617.347 125.262C617.816 125.262 618.261 125.337 618.68 125.487C619.104 125.638 619.477 125.87 619.801 126.185C620.129 126.499 620.384 126.9 620.567 127.388C620.754 127.871 620.847 128.447 620.847 129.117V129.678H614.585V128.468H619.951L619.117 128.823C619.117 128.39 619.051 128.014 618.919 127.695C618.787 127.372 618.589 127.119 618.324 126.937C618.065 126.754 617.741 126.663 617.354 126.663C616.966 126.663 616.636 126.754 616.363 126.937C616.094 127.119 615.886 127.365 615.741 127.675C615.599 127.98 615.529 128.322 615.529 128.7V129.541C615.529 130.006 615.611 130.405 615.775 130.737C615.939 131.065 616.167 131.316 616.458 131.489C616.755 131.662 617.096 131.749 617.484 131.749C617.743 131.749 617.978 131.713 618.188 131.64C618.397 131.567 618.58 131.457 618.735 131.312C618.89 131.161 619.006 130.977 619.083 130.758L620.765 130.956C620.66 131.398 620.46 131.785 620.163 132.118C619.867 132.446 619.491 132.701 619.035 132.884C618.58 133.062 618.056 133.15 617.463 133.15ZM452.231 153.021C451.589 153.021 451.035 152.935 450.57 152.762C450.11 152.589 449.739 152.356 449.456 152.064C449.174 151.773 448.978 151.449 448.868 151.094L450.481 150.697C450.554 150.848 450.661 150.996 450.803 151.142C450.944 151.292 451.133 151.415 451.37 151.511C451.607 151.611 451.906 151.661 452.266 151.661C452.776 151.661 453.198 151.536 453.53 151.285C453.868 151.039 454.036 150.636 454.036 150.075V148.633H453.94C453.854 148.815 453.722 149.004 453.544 149.2C453.366 149.392 453.132 149.556 452.84 149.692C452.548 149.825 452.184 149.891 451.746 149.891C451.158 149.891 450.627 149.752 450.153 149.474C449.679 149.196 449.301 148.781 449.019 148.229C448.736 147.678 448.595 146.988 448.595 146.158C448.595 145.32 448.736 144.611 449.019 144.032C449.301 143.453 449.679 143.014 450.153 142.713C450.632 142.412 451.165 142.262 451.753 142.262C452.204 142.262 452.576 142.337 452.867 142.487C453.159 142.638 453.391 142.82 453.564 143.034C453.738 143.244 453.87 143.44 453.961 143.622H454.057V142.357H455.82V150.123C455.82 150.775 455.663 151.315 455.349 151.743C455.039 152.172 454.613 152.491 454.07 152.7C453.533 152.914 452.92 153.021 452.231 153.021ZM452.245 148.476C452.819 148.476 453.261 148.271 453.571 147.86C453.886 147.446 454.043 146.874 454.043 146.145C454.043 145.661 453.975 145.24 453.838 144.88C453.701 144.52 453.498 144.24 453.229 144.039C452.965 143.839 452.637 143.738 452.245 143.738C451.849 143.738 451.516 143.843 451.247 144.053C450.978 144.262 450.775 144.549 450.639 144.914C450.502 145.274 450.434 145.684 450.434 146.145C450.434 146.609 450.502 147.017 450.639 147.368C450.775 147.719 450.978 147.993 451.247 148.188C451.521 148.38 451.853 148.476 452.245 148.476ZM460.783 150.15C460.018 150.15 459.355 149.991 458.794 149.672C458.238 149.348 457.81 148.893 457.509 148.305C457.213 147.717 457.065 147.024 457.065 146.227C457.065 145.438 457.213 144.748 457.509 144.155C457.805 143.558 458.222 143.093 458.76 142.761C459.302 142.428 459.938 142.262 460.667 142.262C461.137 142.262 461.581 142.337 462 142.487C462.424 142.638 462.798 142.87 463.121 143.185C463.449 143.499 463.705 143.9 463.887 144.388C464.074 144.871 464.167 145.447 464.167 146.117V146.678H457.906V145.468H463.272L462.438 145.823C462.438 145.39 462.372 145.014 462.24 144.695C462.107 144.372 461.909 144.119 461.645 143.937C461.385 143.754 461.061 143.663 460.674 143.663C460.287 143.663 459.956 143.754 459.683 143.937C459.414 144.119 459.207 144.365 459.061 144.675C458.92 144.98 458.849 145.322 458.849 145.7V146.541C458.849 147.006 458.931 147.405 459.095 147.737C459.259 148.065 459.487 148.316 459.779 148.489C460.075 148.662 460.417 148.749 460.804 148.749C461.064 148.749 461.298 148.713 461.508 148.64C461.718 148.567 461.9 148.457 462.055 148.312C462.21 148.161 462.326 147.977 462.404 147.758L464.085 147.956C463.98 148.398 463.78 148.785 463.484 149.118C463.187 149.446 462.811 149.701 462.356 149.884C461.9 150.062 461.376 150.15 460.783 150.15ZM467.182 145.529V150H465.391V142.357H467.148V143.663H467.237C467.41 143.235 467.683 142.895 468.057 142.645C468.431 142.389 468.905 142.262 469.479 142.262C470.003 142.262 470.461 142.373 470.853 142.597C471.245 142.82 471.548 143.148 471.762 143.581C471.981 144.009 472.09 144.529 472.09 145.14V150H470.299V145.42C470.299 144.91 470.165 144.511 469.896 144.224C469.632 143.932 469.267 143.786 468.802 143.786C468.492 143.786 468.214 143.854 467.968 143.991C467.722 144.128 467.529 144.326 467.387 144.586C467.251 144.841 467.182 145.156 467.182 145.529ZM477.054 150.15C476.288 150.15 475.625 149.991 475.064 149.672C474.508 149.348 474.08 148.893 473.779 148.305C473.483 147.717 473.335 147.024 473.335 146.227C473.335 145.438 473.483 144.748 473.779 144.155C474.075 143.558 474.492 143.093 475.03 142.761C475.572 142.428 476.208 142.262 476.937 142.262C477.407 142.262 477.851 142.337 478.27 142.487C478.694 142.638 479.068 142.87 479.391 143.185C479.72 143.499 479.975 143.9 480.157 144.388C480.344 144.871 480.437 145.447 480.437 146.117V146.678H474.176V145.468H479.542L478.708 145.823C478.708 145.39 478.642 145.014 478.51 144.695C478.377 144.372 478.179 144.119 477.915 143.937C477.655 143.754 477.332 143.663 476.944 143.663C476.557 143.663 476.226 143.754 475.953 143.937C475.684 144.119 475.477 144.365 475.331 144.675C475.19 144.98 475.119 145.322 475.119 145.7V146.541C475.119 147.006 475.201 147.405 475.365 147.737C475.529 148.065 475.757 148.316 476.049 148.489C476.345 148.662 476.687 148.749 477.074 148.749C477.334 148.749 477.569 148.713 477.778 148.64C477.988 148.567 478.17 148.457 478.325 148.312C478.48 148.161 478.596 147.977 478.674 147.758L480.355 147.956C480.25 148.398 480.05 148.785 479.754 149.118C479.458 149.446 479.082 149.701 478.626 149.884C478.17 150.062 477.646 150.15 477.054 150.15ZM481.661 150V142.357H483.398V143.643H483.48C483.621 143.196 483.86 142.854 484.197 142.617C484.539 142.376 484.929 142.255 485.366 142.255C485.467 142.255 485.578 142.259 485.701 142.269C485.824 142.278 485.929 142.289 486.016 142.303V143.957C485.934 143.93 485.811 143.907 485.647 143.889C485.483 143.87 485.325 143.861 485.175 143.861C484.847 143.861 484.551 143.932 484.286 144.073C484.026 144.215 483.821 144.408 483.671 144.654C483.525 144.9 483.452 145.188 483.452 145.516V150H481.661ZM488.99 150.157C488.507 150.157 488.069 150.071 487.677 149.897C487.29 149.72 486.984 149.46 486.761 149.118C486.538 148.776 486.426 148.355 486.426 147.854C486.426 147.425 486.506 147.07 486.665 146.787C486.829 146.505 487.048 146.279 487.322 146.11C487.6 145.942 487.91 145.814 488.251 145.728C488.598 145.636 488.958 145.573 489.331 145.536C489.783 145.486 490.147 145.443 490.425 145.406C490.703 145.37 490.906 145.311 491.034 145.229C491.161 145.146 491.225 145.019 491.225 144.846V144.812C491.225 144.561 491.175 144.349 491.075 144.176C490.974 144.003 490.826 143.87 490.63 143.779C490.434 143.688 490.193 143.643 489.906 143.643C489.609 143.643 489.354 143.686 489.14 143.772C488.93 143.859 488.755 143.975 488.614 144.121C488.477 144.267 488.377 144.426 488.313 144.6L486.645 144.265C486.795 143.813 487.028 143.44 487.342 143.144C487.657 142.847 488.03 142.626 488.463 142.48C488.901 142.335 489.379 142.262 489.899 142.262C490.263 142.262 490.628 142.305 490.993 142.392C491.362 142.474 491.699 142.615 492.004 142.815C492.31 143.016 492.556 143.285 492.743 143.622C492.929 143.959 493.023 144.381 493.023 144.887V150H491.307V148.947H491.232C491.122 149.157 490.968 149.355 490.767 149.542C490.571 149.724 490.325 149.872 490.029 149.986C489.737 150.1 489.391 150.157 488.99 150.157ZM489.454 148.831C489.815 148.831 490.127 148.76 490.391 148.619C490.66 148.473 490.867 148.282 491.013 148.045C491.163 147.803 491.239 147.541 491.239 147.259V146.363C491.179 146.409 491.081 146.452 490.945 146.493C490.813 146.53 490.662 146.564 490.494 146.596C490.325 146.628 490.159 146.655 489.995 146.678C489.835 146.701 489.696 146.719 489.578 146.732C489.309 146.769 489.067 146.83 488.853 146.917C488.643 146.999 488.477 147.113 488.354 147.259C488.231 147.405 488.169 147.594 488.169 147.826C488.169 148.159 488.29 148.41 488.532 148.578C488.773 148.747 489.081 148.831 489.454 148.831ZM498.396 142.357V143.752H494.014V142.357H498.396ZM495.094 140.539H496.892V147.703C496.892 148.004 496.956 148.227 497.084 148.373C497.216 148.514 497.425 148.585 497.713 148.585C497.79 148.585 497.877 148.578 497.972 148.564C498.068 148.551 498.157 148.535 498.239 148.517L498.547 149.925C498.355 149.984 498.159 150.027 497.959 150.055C497.763 150.087 497.569 150.103 497.378 150.103C496.667 150.103 496.108 149.916 495.703 149.542C495.297 149.164 495.094 148.649 495.094 147.997V140.539ZM502.936 150.15C502.17 150.15 501.507 149.991 500.946 149.672C500.39 149.348 499.962 148.893 499.661 148.305C499.365 147.717 499.217 147.024 499.217 146.227C499.217 145.438 499.365 144.748 499.661 144.155C499.957 143.558 500.374 143.093 500.912 142.761C501.454 142.428 502.09 142.262 502.819 142.262C503.289 142.262 503.733 142.337 504.152 142.487C504.576 142.638 504.95 142.87 505.273 143.185C505.602 143.499 505.857 143.9 506.039 144.388C506.226 144.871 506.319 145.447 506.319 146.117V146.678H500.058V145.468H505.424L504.59 145.823C504.59 145.39 504.524 145.014 504.392 144.695C504.259 144.372 504.061 144.119 503.797 143.937C503.537 143.754 503.214 143.663 502.826 143.663C502.439 143.663 502.108 143.754 501.835 143.937C501.566 144.119 501.359 144.365 501.213 144.675C501.072 144.98 501.001 145.322 501.001 145.7V146.541C501.001 147.006 501.083 147.405 501.247 147.737C501.411 148.065 501.639 148.316 501.931 148.489C502.227 148.662 502.569 148.749 502.956 148.749C503.216 148.749 503.45 148.713 503.66 148.64C503.87 148.567 504.052 148.457 504.207 148.312C504.362 148.161 504.478 147.977 504.556 147.758L506.237 147.956C506.132 148.398 505.932 148.785 505.636 149.118C505.339 149.446 504.964 149.701 504.508 149.884C504.052 150.062 503.528 150.15 502.936 150.15ZM510.36 150.137C509.758 150.137 509.218 149.984 508.739 149.679C508.266 149.369 507.892 148.92 507.618 148.332C507.345 147.744 507.208 147.031 507.208 146.192C507.208 145.34 507.347 144.622 507.625 144.039C507.908 143.456 508.286 143.014 508.76 142.713C509.239 142.412 509.769 142.262 510.353 142.262C510.804 142.262 511.173 142.337 511.46 142.487C511.752 142.638 511.982 142.82 512.151 143.034C512.319 143.244 512.449 143.44 512.54 143.622H512.615V139.814H514.413V150H512.65V148.79H512.54C512.449 148.977 512.315 149.175 512.137 149.385C511.964 149.59 511.734 149.768 511.447 149.918C511.159 150.064 510.797 150.137 510.36 150.137ZM510.852 148.66C511.235 148.66 511.56 148.558 511.829 148.353C512.098 148.143 512.301 147.854 512.438 147.484C512.579 147.111 512.65 146.678 512.65 146.186C512.65 145.689 512.581 145.258 512.445 144.894C512.308 144.524 512.105 144.24 511.836 144.039C511.567 143.839 511.239 143.738 510.852 143.738C510.455 143.738 510.123 143.843 509.854 144.053C509.589 144.262 509.389 144.552 509.252 144.921C509.115 145.29 509.047 145.712 509.047 146.186C509.047 146.66 509.115 147.083 509.252 147.457C509.389 147.831 509.592 148.125 509.861 148.339C510.129 148.553 510.46 148.66 510.852 148.66ZM521.387 150.157C520.903 150.157 520.466 150.071 520.074 149.897C519.687 149.72 519.381 149.46 519.158 149.118C518.935 148.776 518.823 148.355 518.823 147.854C518.823 147.425 518.903 147.07 519.062 146.787C519.226 146.505 519.445 146.279 519.719 146.11C519.997 145.942 520.306 145.814 520.648 145.728C520.995 145.636 521.355 145.573 521.728 145.536C522.179 145.486 522.544 145.443 522.822 145.406C523.1 145.37 523.303 145.311 523.43 145.229C523.558 145.146 523.622 145.019 523.622 144.846V144.812C523.622 144.561 523.572 144.349 523.471 144.176C523.371 144.003 523.223 143.87 523.027 143.779C522.831 143.688 522.59 143.643 522.303 143.643C522.006 143.643 521.751 143.686 521.537 143.772C521.327 143.859 521.152 143.975 521.011 144.121C520.874 144.267 520.774 144.426 520.71 144.6L519.042 144.265C519.192 143.813 519.425 143.44 519.739 143.144C520.054 142.847 520.427 142.626 520.86 142.48C521.298 142.335 521.776 142.262 522.296 142.262C522.66 142.262 523.025 142.305 523.389 142.392C523.759 142.474 524.096 142.615 524.401 142.815C524.707 143.016 524.953 143.285 525.139 143.622C525.326 143.959 525.42 144.381 525.42 144.887V150H523.704V148.947H523.629C523.519 149.157 523.364 149.355 523.164 149.542C522.968 149.724 522.722 149.872 522.426 149.986C522.134 150.1 521.788 150.157 521.387 150.157ZM521.851 148.831C522.211 148.831 522.524 148.76 522.788 148.619C523.057 148.473 523.264 148.282 523.41 148.045C523.56 147.803 523.636 147.541 523.636 147.259V146.363C523.576 146.409 523.478 146.452 523.342 146.493C523.209 146.53 523.059 146.564 522.89 146.596C522.722 146.628 522.555 146.655 522.391 146.678C522.232 146.701 522.093 146.719 521.974 146.732C521.706 146.769 521.464 146.83 521.25 146.917C521.04 146.999 520.874 147.113 520.751 147.259C520.628 147.405 520.566 147.594 520.566 147.826C520.566 148.159 520.687 148.41 520.929 148.578C521.17 148.747 521.478 148.831 521.851 148.831ZM533.022 144.388L531.381 144.559C531.313 144.308 531.164 144.087 530.937 143.896C530.709 143.7 530.387 143.602 529.973 143.602C529.599 143.602 529.287 143.684 529.036 143.848C528.786 144.012 528.66 144.221 528.66 144.477C528.66 144.7 528.742 144.884 528.906 145.03C529.075 145.172 529.351 145.285 529.733 145.372L531.039 145.646C531.759 145.796 532.297 146.042 532.652 146.384C533.008 146.726 533.186 147.168 533.186 147.71C533.186 148.188 533.047 148.612 532.769 148.981C532.491 149.351 532.106 149.638 531.613 149.843C531.126 150.048 530.563 150.15 529.925 150.15C529.301 150.15 528.756 150.062 528.291 149.884C527.831 149.706 527.459 149.451 527.177 149.118C526.899 148.785 526.723 148.384 526.65 147.915L528.4 147.751C528.478 148.093 528.647 148.353 528.906 148.53C529.171 148.703 529.508 148.79 529.918 148.79C530.346 148.79 530.691 148.703 530.95 148.53C531.215 148.353 531.347 148.136 531.347 147.881C531.347 147.662 531.262 147.482 531.094 147.341C530.925 147.195 530.665 147.083 530.315 147.006L529.009 146.732C528.28 146.573 527.737 146.315 527.382 145.96C527.031 145.6 526.856 145.142 526.856 144.586C526.856 144.112 526.985 143.702 527.245 143.355C527.51 143.009 527.874 142.74 528.339 142.549C528.804 142.357 529.342 142.262 529.952 142.262C530.549 142.262 531.06 142.351 531.483 142.528C531.912 142.701 532.254 142.948 532.509 143.267C532.769 143.581 532.94 143.955 533.022 144.388ZM539.393 145.529V150H537.602V142.357H539.359V143.663H539.448C539.621 143.235 539.895 142.895 540.268 142.645C540.642 142.389 541.116 142.262 541.69 142.262C542.214 142.262 542.672 142.373 543.064 142.597C543.456 142.82 543.759 143.148 543.973 143.581C544.192 144.009 544.301 144.529 544.301 145.14V150H542.51V145.42C542.51 144.91 542.376 144.511 542.107 144.224C541.843 143.932 541.478 143.786 541.013 143.786C540.703 143.786 540.425 143.854 540.179 143.991C539.933 144.128 539.74 144.326 539.598 144.586C539.462 144.841 539.393 145.156 539.393 145.529ZM549.265 150.15C548.499 150.15 547.836 149.991 547.275 149.672C546.719 149.348 546.291 148.893 545.99 148.305C545.694 147.717 545.546 147.024 545.546 146.227C545.546 145.438 545.694 144.748 545.99 144.155C546.286 143.558 546.703 143.093 547.241 142.761C547.783 142.428 548.419 142.262 549.148 142.262C549.618 142.262 550.062 142.337 550.481 142.487C550.905 142.638 551.279 142.87 551.602 143.185C551.931 143.499 552.186 143.9 552.368 144.388C552.555 144.871 552.648 145.447 552.648 146.117V146.678H546.387V145.468H551.753L550.919 145.823C550.919 145.39 550.853 145.014 550.721 144.695C550.588 144.372 550.39 144.119 550.126 143.937C549.866 143.754 549.543 143.663 549.155 143.663C548.768 143.663 548.437 143.754 548.164 143.937C547.895 144.119 547.688 144.365 547.542 144.675C547.401 144.98 547.33 145.322 547.33 145.7V146.541C547.33 147.006 547.412 147.405 547.576 147.737C547.74 148.065 547.968 148.316 548.26 148.489C548.556 148.662 548.898 148.749 549.285 148.749C549.545 148.749 549.78 148.713 549.989 148.64C550.199 148.567 550.381 148.457 550.536 148.312C550.691 148.161 550.807 147.977 550.885 147.758L552.566 147.956C552.462 148.398 552.261 148.785 551.965 149.118C551.669 149.446 551.293 149.701 550.837 149.884C550.381 150.062 549.857 150.15 549.265 150.15ZM557.256 150.15C556.49 150.15 555.827 149.991 555.267 149.672C554.711 149.348 554.282 148.893 553.982 148.305C553.685 147.717 553.537 147.024 553.537 146.227C553.537 145.438 553.685 144.748 553.982 144.155C554.278 143.558 554.695 143.093 555.233 142.761C555.775 142.428 556.411 142.262 557.14 142.262C557.609 142.262 558.054 142.337 558.473 142.487C558.897 142.638 559.27 142.87 559.594 143.185C559.922 143.499 560.177 143.9 560.36 144.388C560.546 144.871 560.64 145.447 560.64 146.117V146.678H554.378V145.468H559.744L558.91 145.823C558.91 145.39 558.844 145.014 558.712 144.695C558.58 144.372 558.382 144.119 558.117 143.937C557.858 143.754 557.534 143.663 557.147 143.663C556.759 143.663 556.429 143.754 556.155 143.937C555.887 144.119 555.679 144.365 555.533 144.675C555.392 144.98 555.321 145.322 555.321 145.7V146.541C555.321 147.006 555.404 147.405 555.568 147.737C555.732 148.065 555.96 148.316 556.251 148.489C556.547 148.662 556.889 148.749 557.277 148.749C557.536 148.749 557.771 148.713 557.981 148.64C558.19 148.567 558.373 148.457 558.528 148.312C558.682 148.161 558.799 147.977 558.876 147.758L560.558 147.956C560.453 148.398 560.252 148.785 559.956 149.118C559.66 149.446 559.284 149.701 558.828 149.884C558.373 150.062 557.849 150.15 557.256 150.15ZM564.68 150.137C564.079 150.137 563.539 149.984 563.06 149.679C562.586 149.369 562.212 148.92 561.939 148.332C561.666 147.744 561.529 147.031 561.529 146.192C561.529 145.34 561.668 144.622 561.946 144.039C562.228 143.456 562.607 143.014 563.081 142.713C563.559 142.412 564.09 142.262 564.673 142.262C565.124 142.262 565.494 142.337 565.781 142.487C566.072 142.638 566.303 142.82 566.471 143.034C566.64 143.244 566.77 143.44 566.861 143.622H566.936V139.814H568.734V150H566.97V148.79H566.861C566.77 148.977 566.635 149.175 566.457 149.385C566.284 149.59 566.054 149.768 565.767 149.918C565.48 150.064 565.118 150.137 564.68 150.137ZM565.172 148.66C565.555 148.66 565.881 148.558 566.15 148.353C566.419 148.143 566.622 147.854 566.758 147.484C566.9 147.111 566.97 146.678 566.97 146.186C566.97 145.689 566.902 145.258 566.765 144.894C566.628 144.524 566.426 144.24 566.157 144.039C565.888 143.839 565.56 143.738 565.172 143.738C564.776 143.738 564.443 143.843 564.174 144.053C563.91 144.262 563.709 144.552 563.573 144.921C563.436 145.29 563.368 145.712 563.368 146.186C563.368 146.66 563.436 147.083 563.573 147.457C563.709 147.831 563.912 148.125 564.181 148.339C564.45 148.553 564.78 148.66 565.172 148.66ZM573.718 150.15C572.952 150.15 572.289 149.991 571.728 149.672C571.172 149.348 570.744 148.893 570.443 148.305C570.147 147.717 569.999 147.024 569.999 146.227C569.999 145.438 570.147 144.748 570.443 144.155C570.739 143.558 571.156 143.093 571.694 142.761C572.236 142.428 572.872 142.262 573.601 142.262C574.071 142.262 574.515 142.337 574.934 142.487C575.358 142.638 575.732 142.87 576.055 143.185C576.384 143.499 576.639 143.9 576.821 144.388C577.008 144.871 577.101 145.447 577.101 146.117V146.678H570.84V145.468H576.206L575.372 145.823C575.372 145.39 575.306 145.014 575.174 144.695C575.041 144.372 574.843 144.119 574.579 143.937C574.319 143.754 573.996 143.663 573.608 143.663C573.221 143.663 572.89 143.754 572.617 143.937C572.348 144.119 572.141 144.365 571.995 144.675C571.854 144.98 571.783 145.322 571.783 145.7V146.541C571.783 147.006 571.865 147.405 572.029 147.737C572.193 148.065 572.421 148.316 572.713 148.489C573.009 148.662 573.351 148.749 573.738 148.749C573.998 148.749 574.233 148.713 574.442 148.64C574.652 148.567 574.834 148.457 574.989 148.312C575.144 148.161 575.26 147.977 575.338 147.758L577.019 147.956C576.914 148.398 576.714 148.785 576.418 149.118C576.122 149.446 575.746 149.701 575.29 149.884C574.834 150.062 574.31 150.15 573.718 150.15ZM581.142 150.137C580.54 150.137 580 149.984 579.522 149.679C579.048 149.369 578.674 148.92 578.4 148.332C578.127 147.744 577.99 147.031 577.99 146.192C577.99 145.34 578.129 144.622 578.407 144.039C578.69 143.456 579.068 143.014 579.542 142.713C580.021 142.412 580.551 142.262 581.135 142.262C581.586 142.262 581.955 142.337 582.242 142.487C582.534 142.638 582.764 142.82 582.933 143.034C583.101 143.244 583.231 143.44 583.322 143.622H583.398V139.814H585.195V150H583.432V148.79H583.322C583.231 148.977 583.097 149.175 582.919 149.385C582.746 149.59 582.516 149.768 582.229 149.918C581.941 150.064 581.579 150.137 581.142 150.137ZM581.634 148.66C582.017 148.66 582.342 148.558 582.611 148.353C582.88 148.143 583.083 147.854 583.22 147.484C583.361 147.111 583.432 146.678 583.432 146.186C583.432 145.689 583.363 145.258 583.227 144.894C583.09 144.524 582.887 144.24 582.618 144.039C582.349 143.839 582.021 143.738 581.634 143.738C581.237 143.738 580.905 143.843 580.636 144.053C580.371 144.262 580.171 144.552 580.034 144.921C579.898 145.29 579.829 145.712 579.829 146.186C579.829 146.66 579.898 147.083 580.034 147.457C580.171 147.831 580.374 148.125 580.643 148.339C580.912 148.553 581.242 148.66 581.634 148.66Z" fill="black"/>
</svg>
