<svg width="800" height="300" viewBox="0 0 800 300" fill="none" xmlns="http://www.w3.org/2000/svg">
<rect width="800" height="300" rx="20" fill="#0A0E12"/>
<path d="M555.805 157.922L578.493 146.997L601.182 157.922L606.786 182.469L591.084 202.155H565.902L550.201 182.469L555.805 157.922Z" stroke="white"/>
<path opacity="0.2" d="M563.608 164.144L578.493 156.977L593.378 164.144L597.054 180.249L586.754 193.164H570.232L559.932 180.249L563.608 164.144Z" stroke="white"/>
<path opacity="0.1" d="M571.412 170.366L578.493 166.956L585.574 170.366L587.324 178.028L582.424 184.172H574.562L569.662 178.028L571.412 170.366Z" stroke="white"/>
<path d="M74.098 71.6809H75.856V81.2919C75.856 82.2842 75.6221 83.1702 75.1542 83.9497C74.6911 84.7248 74.0367 85.3367 73.1906 85.7855C72.3447 86.2297 71.3523 86.4518 70.2135 86.4518C69.0745 86.4518 68.0821 86.2297 67.2362 85.7855C66.3902 85.3367 65.7333 84.7248 65.2655 83.9497C64.8024 83.1702 64.5708 82.2842 64.5708 81.2919V71.6809H66.3288V81.1502C66.3288 81.8589 66.4848 82.4897 66.7967 83.0426C67.1086 83.5906 67.5528 84.0231 68.1293 84.3396C68.7107 84.6515 69.4054 84.8075 70.2135 84.8075C71.0216 84.8075 71.7163 84.6515 72.2975 84.3396C72.8787 84.0231 73.323 83.5906 73.6301 83.0426C73.942 82.4897 74.098 81.8589 74.098 81.1502V71.6809ZM86.8525 77.748L85.3495 78.1733C85.255 77.9229 85.1156 77.6795 84.9313 77.4432C84.7518 77.2023 84.506 77.0038 84.1941 76.8479C83.8822 76.6919 83.4829 76.614 82.9962 76.614C82.3298 76.614 81.7745 76.7675 81.3302 77.0747C80.8907 77.3771 80.671 77.7622 80.671 78.23C80.671 78.6458 80.8223 78.9742 81.1248 79.2152C81.4272 79.4562 81.8998 79.657 82.5424 79.8176L84.1586 80.2146C85.1323 80.4508 85.8575 80.8123 86.335 81.299C86.8122 81.781 87.0509 82.4023 87.0509 83.163C87.0509 83.7867 86.8713 84.3444 86.5121 84.8358C86.1576 85.3273 85.6614 85.7146 85.0235 85.9982C84.3855 86.2816 83.6436 86.4235 82.7977 86.4235C81.687 86.4235 80.7679 86.1825 80.0402 85.7005C79.3124 85.2185 78.8516 84.5144 78.6578 83.5883L80.2458 83.1915C80.397 83.7774 80.6828 84.2169 81.1035 84.5098C81.5288 84.8027 82.0841 84.9492 82.7693 84.9492C83.5491 84.9492 84.1681 84.7839 84.6266 84.453C85.0897 84.1176 85.3212 83.7159 85.3212 83.2482C85.3212 82.8701 85.189 82.5535 84.9243 82.2984C84.6597 82.0385 84.2533 81.8447 83.705 81.7172L81.8903 81.2919C80.8932 81.0556 80.1606 80.6894 79.6928 80.1933C79.2297 79.6924 78.9982 79.0663 78.9982 78.315C78.9982 77.7008 79.1707 77.1574 79.5155 76.6848C79.8653 76.2123 80.3403 75.8414 80.9405 75.5721C81.5453 75.3027 82.2305 75.1681 82.9962 75.1681C84.0736 75.1681 84.9195 75.4043 85.5338 75.8768C86.153 76.3494 86.5925 76.9731 86.8525 77.748ZM94.1342 86.4235C93.0852 86.4235 92.1801 86.192 91.4192 85.7288C90.6632 85.2611 90.0795 84.6091 89.6684 83.7726C89.262 82.9315 89.0588 81.9534 89.0588 80.8383C89.0588 79.7231 89.262 78.7403 89.6684 77.8898C90.0795 77.0345 90.6514 76.3683 91.3838 75.891C92.1211 75.409 92.9813 75.1681 93.9642 75.1681C94.5313 75.1681 95.0912 75.2626 95.6442 75.4516C96.1971 75.6406 96.7003 75.9477 97.1541 76.373C97.6077 76.7935 97.9692 77.3511 98.2387 78.0457C98.508 78.7403 98.6428 79.5956 98.6428 80.6115V81.3203H90.2496V79.8743H96.9413C96.9413 79.2601 96.8186 78.712 96.5727 78.23C96.3318 77.748 95.9868 77.3676 95.5379 77.0889C95.0935 76.8101 94.569 76.6707 93.9642 76.6707C93.2978 76.6707 92.7212 76.8361 92.2345 77.1668C91.7524 77.4928 91.3815 77.9181 91.1216 78.4426C90.8616 78.9671 90.7317 79.5294 90.7317 80.1295V81.0935C90.7317 81.9156 90.8735 82.6126 91.1571 83.1843C91.4454 83.7513 91.8446 84.1838 92.3549 84.4813C92.8655 84.7744 93.4585 84.9209 94.1342 84.9209C94.5737 84.9209 94.9708 84.8594 95.3251 84.7366C95.6844 84.6091 95.9938 84.4199 96.2538 84.1695C96.5137 83.9143 96.7146 83.5978 96.8563 83.2197L98.4726 83.6735C98.3024 84.2215 98.0165 84.7035 97.6149 85.1194C97.2132 85.5303 96.7169 85.8517 96.1262 86.0832C95.5355 86.3101 94.8715 86.4235 94.1342 86.4235ZM101.188 86.1966V75.3098H102.804V76.9542H102.917C103.116 76.4155 103.475 75.9784 103.995 75.6429C104.515 75.3074 105.101 75.1397 105.753 75.1397C105.876 75.1397 106.029 75.1421 106.213 75.1468C106.398 75.1515 106.537 75.1586 106.632 75.1681V76.8691C106.575 76.855 106.445 76.8337 106.242 76.8053C106.043 76.7723 105.833 76.7557 105.611 76.7557C105.082 76.7557 104.609 76.8668 104.193 77.0889C103.782 77.3062 103.456 77.6086 103.215 77.9961C102.979 78.3788 102.861 78.8159 102.861 79.3073V86.1966H101.188ZM137.11 76.2171C136.954 75.7398 136.748 75.3122 136.493 74.9342C136.242 74.5514 135.942 74.2254 135.593 73.956C135.248 73.6867 134.855 73.4812 134.416 73.3394C133.976 73.1977 133.494 73.1268 132.97 73.1268C132.11 73.1268 131.328 73.3489 130.623 73.793C129.919 74.2372 129.359 74.8916 128.943 75.7563C128.528 76.621 128.32 77.6819 128.32 78.9388C128.32 80.1957 128.53 81.2565 128.95 82.1212C129.371 82.9859 129.941 83.6404 130.659 84.0845C131.377 84.5287 132.185 84.7508 133.083 84.7508C133.915 84.7508 134.647 84.5735 135.281 84.2192C135.919 83.8601 136.415 83.3545 136.769 82.7024C137.128 82.0456 137.308 81.273 137.308 80.3847L137.847 80.4981H133.48V78.9388H139.009V80.4981C139.009 81.6935 138.754 82.7331 138.244 83.6168C137.738 84.5003 137.039 85.1854 136.146 85.6722C135.257 86.1541 134.236 86.3951 133.083 86.3951C131.798 86.3951 130.668 86.0927 129.695 85.4879C128.726 84.883 127.97 84.0231 127.426 82.9079C126.888 81.7928 126.618 80.4697 126.618 78.9388C126.618 77.7905 126.772 76.7581 127.079 75.8414C127.391 74.92 127.83 74.1356 128.398 73.4883C128.965 72.8409 129.636 72.3448 130.411 71.9998C131.186 71.6549 132.039 71.4824 132.97 71.4824C133.735 71.4824 134.449 71.5982 135.11 71.8297C135.777 72.0565 136.37 72.3802 136.89 72.8007C137.414 73.2166 137.852 73.7151 138.201 74.2963C138.551 74.8727 138.792 75.513 138.924 76.2171H137.11ZM141.793 86.1966V75.3098H143.41V76.9542H143.523C143.722 76.4155 144.081 75.9784 144.601 75.6429C145.12 75.3074 145.706 75.1397 146.359 75.1397C146.481 75.1397 146.635 75.1421 146.819 75.1468C147.004 75.1515 147.143 75.1586 147.238 75.1681V76.8691C147.181 76.855 147.051 76.8337 146.848 76.8053C146.649 76.7723 146.439 76.7557 146.217 76.7557C145.688 76.7557 145.215 76.8668 144.799 77.0888C144.388 77.3062 144.062 77.6086 143.821 77.9961C143.585 78.3788 143.466 78.8159 143.466 79.3073V86.1966H141.793ZM153.313 86.4235C152.33 86.4235 151.467 86.1895 150.725 85.7218C149.988 85.2539 149.411 84.5996 148.996 83.7585C148.584 82.9174 148.379 81.9345 148.379 80.8099C148.379 79.6759 148.584 78.686 148.996 77.8402C149.411 76.9943 149.988 76.3375 150.725 75.8697C151.467 75.402 152.33 75.1681 153.313 75.1681C154.296 75.1681 155.156 75.402 155.893 75.8697C156.635 76.3375 157.211 76.9943 157.623 77.8402C158.038 78.686 158.246 79.6759 158.246 80.8099C158.246 81.9345 158.038 82.9174 157.623 83.7585C157.211 84.5996 156.635 85.2539 155.893 85.7218C155.156 86.1895 154.296 86.4235 153.313 86.4235ZM153.313 84.9208C154.059 84.9208 154.674 84.7295 155.156 84.3468C155.638 83.964 155.995 83.4607 156.226 82.837C156.458 82.2133 156.573 81.5376 156.573 80.8099C156.573 80.0823 156.458 79.4042 156.226 78.7757C155.995 78.1473 155.638 77.6393 155.156 77.2519C154.674 76.8644 154.059 76.6707 153.313 76.6707C152.566 76.6707 151.952 76.8644 151.47 77.2519C150.987 77.6393 150.631 78.1473 150.399 78.7757C150.168 79.4042 150.052 80.0823 150.052 80.8099C150.052 81.5376 150.168 82.2133 150.399 82.837C150.631 83.4607 150.987 83.964 151.47 84.3468C151.952 84.7295 152.566 84.9208 153.313 84.9208ZM167.662 81.7455V75.3098H169.335V86.1966H167.662V84.3537H167.548C167.293 84.9066 166.896 85.3768 166.358 85.7644C165.819 86.1471 165.138 86.3384 164.316 86.3384C163.636 86.3384 163.031 86.1895 162.501 85.8919C161.972 85.5894 161.556 85.1358 161.254 84.5311C160.951 83.9215 160.8 83.1535 160.8 82.2275V75.3098H162.473V82.1141C162.473 82.9079 162.695 83.5411 163.139 84.0136C163.588 84.4861 164.16 84.7223 164.855 84.7223C165.271 84.7223 165.694 84.616 166.124 84.4035C166.559 84.1907 166.922 83.8648 167.215 83.4253C167.513 82.9859 167.662 82.4259 167.662 81.7455ZM172.399 90.2791V75.3098H174.015V77.0392H174.214C174.337 76.8502 174.507 76.6092 174.724 76.3163C174.946 76.0186 175.263 75.754 175.674 75.5224C176.09 75.2862 176.652 75.1681 177.361 75.1681C178.278 75.1681 179.086 75.3972 179.785 75.8556C180.485 76.3139 181.031 76.9636 181.423 77.8047C181.815 78.6458 182.011 79.6381 182.011 80.7816C182.011 81.9345 181.815 82.9338 181.423 83.7798C181.031 84.6209 180.487 85.2729 179.793 85.7359C179.098 86.1943 178.297 86.4235 177.389 86.4235C176.69 86.4235 176.13 86.3078 175.709 86.0762C175.289 85.8399 174.965 85.5729 174.738 85.2752C174.511 84.9728 174.337 84.7223 174.214 84.5239H174.072V90.2791H172.399ZM174.044 80.7532C174.044 81.5754 174.164 82.3007 174.405 82.9292C174.646 83.5529 174.998 84.0419 175.461 84.3963C175.924 84.7459 176.491 84.9208 177.163 84.9208C177.862 84.9208 178.446 84.7366 178.914 84.3681C179.386 83.9947 179.74 83.4938 179.977 82.8654C180.218 82.2322 180.338 81.5282 180.338 80.7532C180.338 79.9877 180.22 79.2979 179.984 78.6836C179.752 78.0646 179.4 77.5755 178.928 77.2164C178.46 76.8526 177.872 76.6707 177.163 76.6707C176.482 76.6707 175.91 76.8431 175.447 77.1881C174.984 77.5283 174.634 78.0055 174.398 78.6198C174.162 79.2293 174.044 79.9405 174.044 80.7532Z" fill="white"/>
<path d="M119.361 71L114.683 88.3792H113.151L117.83 71H119.361Z" fill="white" fill-opacity="0.25"/>
<path d="M339.046 86.1964V71.6807H343.951C345.086 71.6807 346.016 71.8744 346.744 72.2619C347.471 72.6446 348.01 73.1714 348.36 73.8424C348.709 74.5134 348.885 75.2765 348.885 76.1318C348.885 76.987 348.709 77.7454 348.36 78.407C348.01 79.0685 347.475 79.5883 346.751 79.9663C346.028 80.3396 345.104 80.5262 343.98 80.5262H340.009V78.9385H343.923C344.698 78.9385 345.322 78.8251 345.795 78.5983C346.272 78.3715 346.616 78.0502 346.829 77.6344C347.046 77.2138 347.155 76.713 347.155 76.1318C347.155 75.5506 347.046 75.0426 346.829 74.6079C346.611 74.1732 346.264 73.8377 345.786 73.6015C345.309 73.3605 344.678 73.24 343.895 73.24H340.804V86.1964H339.046ZM345.879 79.6757L349.451 86.1964H347.41L343.895 79.6757H345.879ZM355.894 86.4233C354.911 86.4233 354.049 86.1893 353.307 85.7216C352.568 85.2537 351.993 84.5994 351.577 83.7582C351.166 82.9171 350.96 81.9343 350.96 80.8097C350.96 79.6757 351.166 78.6857 351.577 77.8399C351.993 76.9941 352.568 76.3373 353.307 75.8695C354.049 75.4017 354.911 75.1678 355.894 75.1678C356.877 75.1678 357.737 75.4017 358.474 75.8695C359.216 76.3373 359.793 76.9941 360.204 77.8399C360.62 78.6857 360.828 79.6757 360.828 80.8097C360.828 81.9343 360.62 82.9171 360.204 83.7582C359.793 84.5994 359.216 85.2537 358.474 85.7216C357.737 86.1893 356.877 86.4233 355.894 86.4233ZM355.894 84.9207C356.641 84.9207 357.254 84.7293 357.737 84.3465C358.219 83.9638 358.575 83.4605 358.806 82.8368C359.039 82.2131 359.154 81.5374 359.154 80.8097C359.154 80.082 359.039 79.404 358.806 78.7755C358.575 78.1471 358.219 77.6391 357.737 77.2517C357.254 76.8642 356.641 76.6705 355.894 76.6705C355.147 76.6705 354.533 76.8642 354.051 77.2517C353.568 77.6391 353.212 78.1471 352.981 78.7755C352.748 79.404 352.633 80.082 352.633 80.8097C352.633 81.5374 352.748 82.2131 352.981 82.8368C353.212 83.4605 353.568 83.9638 354.051 84.3465C354.533 84.7293 355.147 84.9207 355.894 84.9207ZM365.054 71.6807V86.1964H363.381V71.6807H365.054ZM372.683 86.4233C371.634 86.4233 370.729 86.1918 369.968 85.7287C369.212 85.2608 368.629 84.6088 368.217 83.7724C367.811 82.9313 367.608 81.9532 367.608 80.8381C367.608 79.7229 367.811 78.7401 368.217 77.8896C368.629 77.0343 369.2 76.368 369.933 75.8908C370.67 75.4088 371.53 75.1678 372.514 75.1678C373.081 75.1678 373.64 75.2624 374.194 75.4514C374.746 75.6404 375.25 75.9475 375.702 76.3728C376.157 76.7933 376.518 77.3509 376.787 78.0455C377.056 78.7401 377.191 79.5953 377.191 80.6113V81.32H368.799V79.8741H375.491C375.491 79.2599 375.368 78.7117 375.122 78.2298C374.881 77.7478 374.536 77.3674 374.087 77.0886C373.643 76.8098 373.117 76.6705 372.514 76.6705C371.846 76.6705 371.271 76.8358 370.784 77.1666C370.301 77.4926 369.93 77.9179 369.671 78.4424C369.411 78.9669 369.281 79.5292 369.281 80.1293V81.0932C369.281 81.9154 369.423 82.6124 369.706 83.1841C369.995 83.7511 370.394 84.1835 370.903 84.4813C371.414 84.7742 372.008 84.9207 372.683 84.9207C373.122 84.9207 373.52 84.8592 373.874 84.7364C374.234 84.6088 374.543 84.4197 374.802 84.1692C375.062 83.9141 375.263 83.5976 375.405 83.2195L377.022 83.6733C376.852 84.2213 376.566 84.7033 376.163 85.1191C375.762 85.5301 375.267 85.8515 374.674 86.083C374.084 86.3099 373.42 86.4233 372.683 86.4233Z" fill="white"/>
<path d="M538.154 86.1964H533.674V71.6807H538.352C539.76 71.6807 540.965 71.9713 541.968 72.5525C542.969 73.1289 543.738 73.9582 544.272 75.0403C544.806 76.1176 545.072 77.4076 545.072 78.9102C545.072 80.4223 544.803 81.7241 544.264 82.8156C543.725 83.9023 542.941 84.7388 541.911 85.3247C540.88 85.9059 539.627 86.1964 538.154 86.1964ZM535.432 84.6371H538.04C539.24 84.6371 540.235 84.4056 541.025 83.9425C541.813 83.4795 542.402 82.8203 542.79 81.965C543.177 81.1098 543.37 80.0915 543.37 78.9102C543.37 77.7384 543.179 76.7295 542.796 75.8837C542.414 75.0332 541.842 74.3811 541.081 73.9275C540.321 73.4691 539.373 73.24 538.238 73.24H535.432V84.6371ZM552.36 86.4233C551.31 86.4233 550.405 86.1918 549.645 85.7287C548.888 85.2609 548.304 84.6089 547.893 83.7724C547.487 82.9313 547.284 81.9532 547.284 80.8381C547.284 79.7229 547.487 78.7401 547.893 77.8896C548.304 77.0343 548.876 76.3681 549.608 75.8908C550.347 75.4088 551.207 75.1679 552.19 75.1679C552.756 75.1679 553.316 75.2624 553.869 75.4514C554.422 75.6404 554.925 75.9475 555.379 76.3728C555.833 76.7933 556.194 77.3509 556.464 78.0455C556.733 78.7401 556.868 79.5954 556.868 80.6113V81.32H548.475V79.8741H555.166C555.166 79.2599 555.043 78.7117 554.798 78.2298C554.557 77.7478 554.211 77.3674 553.764 77.0886C553.318 76.8099 552.794 76.6705 552.19 76.6705C551.523 76.6705 550.946 76.8358 550.46 77.1666C549.978 77.4927 549.607 77.9179 549.347 78.4424C549.086 78.9669 548.956 79.5292 548.956 80.1293V81.0932C548.956 81.9154 549.099 82.6124 549.382 83.1841C549.67 83.7511 550.069 84.1836 550.58 84.4813C551.091 84.7742 551.684 84.9207 552.36 84.9207C552.799 84.9207 553.196 84.8592 553.551 84.7364C553.91 84.6089 554.22 84.4197 554.479 84.1693C554.739 83.9141 554.94 83.5976 555.081 83.2195L556.698 83.6733C556.527 84.2213 556.242 84.7033 555.84 85.1191C555.439 85.5301 554.941 85.8515 554.351 86.083C553.76 86.3099 553.097 86.4233 552.36 86.4233ZM567.125 77.7478L565.623 78.1731C565.528 77.9226 565.388 77.6793 565.203 77.443C565.024 77.202 564.779 77.0036 564.467 76.8477C564.155 76.6917 563.756 76.6138 563.269 76.6138C562.602 76.6138 562.048 76.7673 561.604 77.0745C561.163 77.3769 560.943 77.762 560.943 78.2298C560.943 78.6456 561.095 78.974 561.397 79.215C561.7 79.456 562.173 79.6568 562.815 79.8174L564.432 80.2144C565.405 80.4506 566.13 80.8121 566.608 81.2988C567.085 81.7808 567.324 82.4021 567.324 83.1628C567.324 83.7865 567.145 84.3442 566.785 84.8356C566.431 85.327 565.934 85.7144 565.297 85.998C564.658 86.2814 563.916 86.4233 563.071 86.4233C561.96 86.4233 561.041 86.1823 560.313 85.7003C559.586 85.2183 559.125 84.5142 558.93 83.5881L560.519 83.1913C560.671 83.7772 560.955 84.2167 561.376 84.5096C561.802 84.8025 562.357 84.949 563.043 84.949C563.821 84.949 564.442 84.7837 564.899 84.4528C565.363 84.1174 565.594 83.7157 565.594 83.248C565.594 82.8699 565.461 82.5533 565.197 82.2982C564.932 82.0383 564.526 81.8445 563.977 81.717L562.163 81.2917C561.166 81.0554 560.433 80.6892 559.965 80.1931C559.503 79.6922 559.272 79.0661 559.272 78.3148C559.272 77.7006 559.443 77.1572 559.789 76.6846C560.138 76.2121 560.612 75.8412 561.213 75.5719C561.818 75.3025 562.504 75.1679 563.269 75.1679C564.347 75.1679 565.192 75.4041 565.807 75.8766C566.426 76.3492 566.865 76.9729 567.125 77.7478ZM574.577 75.3096V76.7272H568.935V75.3096H574.577ZM570.58 72.7013H572.252V83.0778C572.252 83.5503 572.32 83.9048 572.458 84.141C572.599 84.3725 572.779 84.5285 572.997 84.6089C573.218 84.6844 573.453 84.7221 573.699 84.7221C573.882 84.7221 574.033 84.7128 574.151 84.6938C574.27 84.6702 574.364 84.6513 574.436 84.6371L574.775 86.1397C574.662 86.1823 574.504 86.2247 574.301 86.2673C574.098 86.3145 573.84 86.3381 573.528 86.3381C573.055 86.3381 572.593 86.2365 572.139 86.0334C571.689 85.8302 571.317 85.5208 571.019 85.105C570.726 84.6892 570.58 84.1646 570.58 83.5314V72.7013ZM577.094 86.1964V75.3096H578.766V86.1964H577.094ZM577.944 73.4951C577.618 73.4951 577.337 73.3841 577.101 73.162C576.87 72.9399 576.753 72.673 576.753 72.3611C576.753 72.0492 576.87 71.7823 577.101 71.5602C577.337 71.3381 577.618 71.2271 577.944 71.2271C578.27 71.2271 578.55 71.3381 578.781 71.5602C579.017 71.7823 579.135 72.0492 579.135 72.3611C579.135 72.673 579.017 72.9399 578.781 73.162C578.55 73.3841 578.27 73.4951 577.944 73.4951ZM583.503 79.6473V86.1964H581.83V75.3096H583.447V77.0107H583.588C583.844 76.4578 584.232 76.0137 584.751 75.6782C585.272 75.338 585.942 75.1679 586.764 75.1679C587.501 75.1679 588.146 75.3191 588.7 75.6215C589.252 75.9192 589.683 76.3728 589.989 76.9823C590.297 77.5871 590.45 78.3526 590.45 79.2788V86.1964H588.778V79.3922C588.778 78.5369 588.556 77.8707 588.111 77.3934C587.667 76.9114 587.057 76.6705 586.283 76.6705C585.749 76.6705 585.272 76.7862 584.851 77.0178C584.435 77.2493 584.106 77.5871 583.864 78.0313C583.625 78.4755 583.503 79.0142 583.503 79.6473ZM596.712 86.4516C596.021 86.4516 595.396 86.3217 594.833 86.0617C594.271 85.7971 593.824 85.4167 593.493 84.9207C593.163 84.4197 592.997 83.815 592.997 83.1061C592.997 82.4825 593.12 81.9769 593.366 81.5894C593.611 81.1972 593.94 80.8901 594.351 80.668C594.762 80.4459 595.216 80.2805 595.712 80.1718C596.213 80.0584 596.717 79.9686 597.222 79.9025C597.884 79.8174 598.42 79.7536 598.831 79.7111C599.247 79.6639 599.549 79.5859 599.739 79.4772C599.932 79.3686 600.029 79.1795 600.029 78.9102V78.8535C600.029 78.1542 599.837 77.6108 599.455 77.2233C599.077 76.8358 598.503 76.6421 597.733 76.6421C596.934 76.6421 596.307 76.817 595.853 77.1666C595.401 77.5163 595.081 77.8896 594.897 78.2865L593.31 77.7195C593.593 77.0579 593.97 76.5429 594.443 76.1743C594.92 75.801 595.441 75.5411 596.003 75.3947C596.57 75.2435 597.127 75.1679 597.676 75.1679C598.026 75.1679 598.427 75.2104 598.881 75.2954C599.34 75.3758 599.781 75.5435 600.207 75.7987C600.636 76.0538 600.993 76.4389 601.276 76.954C601.561 77.469 601.702 78.1589 601.702 79.0236V86.1964H600.029V84.7221H599.944C599.831 84.9585 599.641 85.2113 599.376 85.4806C599.112 85.7499 598.761 85.979 598.32 86.1682C597.881 86.3571 597.345 86.4516 596.712 86.4516ZM596.966 84.949C597.628 84.949 598.185 84.8191 598.64 84.5591C599.099 84.2993 599.443 83.9638 599.674 83.5527C599.91 83.1417 600.029 82.7093 600.029 82.2556V80.7247C599.959 80.8097 599.802 80.8877 599.561 80.9586C599.325 81.0247 599.05 81.0838 598.739 81.1358C598.432 81.183 598.132 81.2255 597.839 81.2633C597.55 81.2964 597.317 81.3248 597.137 81.3484C596.702 81.4051 596.296 81.4972 595.918 81.6248C595.544 81.7477 595.243 81.9343 595.01 82.1848C594.784 82.4305 594.67 82.766 594.67 83.1913C594.67 83.7724 594.885 84.2118 595.316 84.5096C595.75 84.8025 596.301 84.949 596.966 84.949ZM609.49 75.3096V76.7272H603.848V75.3096H609.49ZM605.493 72.7013H607.167V83.0778C607.167 83.5503 607.235 83.9048 607.371 84.141C607.513 84.3725 607.692 84.5285 607.91 84.6089C608.131 84.6844 608.366 84.7221 608.612 84.7221C608.797 84.7221 608.948 84.7128 609.066 84.6938C609.184 84.6702 609.278 84.6513 609.349 84.6371L609.69 86.1397C609.575 86.1823 609.417 86.2247 609.214 86.2673C609.011 86.3145 608.754 86.3381 608.442 86.3381C607.968 86.3381 607.506 86.2365 607.052 86.0334C606.603 85.8302 606.23 85.5208 605.932 85.105C605.639 84.6892 605.493 84.1646 605.493 83.5314V72.7013ZM612.007 86.1964V75.3096H613.681V86.1964H612.007ZM612.857 73.4951C612.531 73.4951 612.25 73.3841 612.014 73.162C611.783 72.9399 611.666 72.673 611.666 72.3611C611.666 72.0492 611.783 71.7823 612.014 71.5602C612.25 71.3381 612.531 71.2271 612.857 71.2271C613.183 71.2271 613.463 71.3381 613.694 71.5602C613.93 71.7823 614.048 72.0492 614.048 72.3611C614.048 72.673 613.93 72.9399 613.694 73.162C613.463 73.3841 613.183 73.4951 612.857 73.4951ZM621.168 86.4233C620.185 86.4233 619.322 86.1893 618.58 85.7216C617.843 85.2537 617.267 84.5994 616.851 83.7583C616.439 82.9171 616.234 81.9343 616.234 80.8097C616.234 79.6757 616.439 78.6857 616.851 77.8399C617.267 76.9941 617.843 76.3373 618.58 75.8695C619.322 75.4017 620.185 75.1679 621.168 75.1679C622.151 75.1679 623.011 75.4017 623.748 75.8695C624.49 76.3373 625.067 76.9941 625.478 77.8399C625.894 78.6857 626.102 79.6757 626.102 80.8097C626.102 81.9343 625.894 82.9171 625.478 83.7583C625.067 84.5994 624.49 85.2537 623.748 85.7216C623.011 86.1893 622.151 86.4233 621.168 86.4233ZM621.168 84.9207C621.915 84.9207 622.529 84.7293 623.011 84.3466C623.492 83.9638 623.85 83.4605 624.081 82.8368C624.312 82.2131 624.429 81.5374 624.429 80.8097C624.429 80.082 624.312 79.404 624.081 78.7755C623.85 78.1471 623.492 77.6391 623.011 77.2517C622.529 76.8642 621.915 76.6705 621.168 76.6705C620.421 76.6705 619.807 76.8642 619.325 77.2517C618.843 77.6391 618.487 78.1471 618.254 78.7755C618.022 79.404 617.908 80.082 617.908 80.8097C617.908 81.5374 618.022 82.2131 618.254 82.8368C618.487 83.4605 618.843 83.9638 619.325 84.3466C619.807 84.7293 620.421 84.9207 621.168 84.9207ZM630.329 79.6473V86.1964H628.655V75.3096H630.271V77.0107H630.414C630.668 76.4578 631.056 76.0137 631.577 75.6782C632.096 75.338 632.766 75.1679 633.589 75.1679C634.326 75.1679 634.972 75.3191 635.524 75.6215C636.076 75.9192 636.507 76.3728 636.815 76.9823C637.121 77.5871 637.276 78.3526 637.276 79.2788V86.1964H635.602V79.3922C635.602 78.5369 635.379 77.8707 634.935 77.3934C634.491 76.9114 633.882 76.6705 633.107 76.6705C632.573 76.6705 632.096 76.7862 631.675 77.0178C631.259 77.2493 630.931 77.5871 630.69 78.0313C630.449 78.4755 630.329 79.0142 630.329 79.6473ZM646.174 86.1964V71.6807H651.079C652.212 71.6807 653.144 71.8744 653.872 72.2619C654.599 72.6446 655.138 73.1715 655.487 73.8424C655.837 74.5134 656.011 75.2765 656.011 76.1318C656.011 76.9871 655.837 77.7454 655.487 78.407C655.138 79.0685 654.601 79.5883 653.879 79.9663C653.155 80.3396 652.232 80.5262 651.108 80.5262H647.137V78.9385H651.051C651.824 78.9385 652.448 78.8251 652.922 78.5983C653.398 78.3715 653.744 78.0502 653.957 77.6344C654.173 77.2139 654.283 76.713 654.283 76.1318C654.283 75.5506 654.173 75.0426 653.957 74.6079C653.739 74.1732 653.391 73.8377 652.914 73.6015C652.437 73.3605 651.806 73.24 651.021 73.24H647.932V86.1964H646.174ZM653.007 79.6757L656.579 86.1964H654.538L651.021 79.6757H653.007ZM663.163 86.4233C662.113 86.4233 661.208 86.1918 660.448 85.7287C659.691 85.2609 659.109 84.6089 658.696 83.7724C658.29 82.9313 658.087 81.9532 658.087 80.8381C658.087 79.7229 658.29 78.7401 658.696 77.8896C659.109 77.0343 659.679 76.3681 660.413 75.8908C661.15 75.4088 662.01 75.1679 662.993 75.1679C663.56 75.1679 664.119 75.2624 664.673 75.4514C665.226 75.6404 665.73 75.9475 666.182 76.3728C666.636 76.7933 666.999 77.3509 667.267 78.0455C667.536 78.7401 667.671 79.5954 667.671 80.6113V81.32H659.279V79.8741H665.971C665.971 79.2599 665.848 78.7117 665.601 78.2298C665.36 77.7478 665.016 77.3674 664.567 77.0886C664.123 76.8099 663.599 76.6705 662.993 76.6705C662.326 76.6705 661.75 76.8358 661.263 77.1666C660.781 77.4927 660.41 77.9179 660.15 78.4424C659.891 78.9669 659.761 79.5292 659.761 80.1293V81.0932C659.761 81.9154 659.902 82.6124 660.185 83.1841C660.475 83.7511 660.874 84.1836 661.384 84.4813C661.894 84.7742 662.487 84.9207 663.163 84.9207C663.602 84.9207 663.999 84.8592 664.354 84.7364C664.713 84.6089 665.023 84.4197 665.282 84.1693C665.543 83.9141 665.743 83.5976 665.886 83.2195L667.501 83.6733C667.331 84.2213 667.045 84.7033 666.643 85.1191C666.242 85.5301 665.746 85.8515 665.156 86.083C664.563 86.3099 663.9 86.4233 663.163 86.4233ZM677.93 77.7478L676.426 78.1731C676.331 77.9226 676.193 77.6793 676.008 77.443C675.829 77.202 675.582 77.0036 675.271 76.8477C674.959 76.6917 674.559 76.6138 674.072 76.6138C673.407 76.6138 672.851 76.7673 672.407 77.0745C671.968 77.3769 671.748 77.762 671.748 78.2298C671.748 78.6456 671.899 78.974 672.201 79.215C672.503 79.456 672.976 79.6568 673.619 79.8174L675.235 80.2144C676.208 80.4506 676.935 80.8121 677.411 81.2988C677.888 81.7808 678.127 82.4021 678.127 83.1628C678.127 83.7865 677.948 84.3442 677.589 84.8356C677.234 85.327 676.738 85.7144 676.1 85.998C675.463 86.2814 674.721 86.4233 673.874 86.4233C672.763 86.4233 671.844 86.1823 671.116 85.7003C670.389 85.2183 669.928 84.5142 669.734 83.5881L671.322 83.1913C671.474 83.7772 671.76 84.2167 672.181 84.5096C672.605 84.8025 673.16 84.949 673.846 84.949C674.626 84.949 675.245 84.7837 675.704 84.4528C676.166 84.1174 676.397 83.7157 676.397 83.248C676.397 82.8699 676.266 82.5533 676 82.2982C675.735 82.0383 675.33 81.8445 674.782 81.717L672.967 81.2917C671.969 81.0554 671.237 80.6892 670.77 80.1931C670.306 79.6922 670.075 79.0661 670.075 78.3148C670.075 77.7006 670.248 77.1572 670.592 76.6846C670.941 76.2121 671.417 75.8412 672.017 75.5719C672.621 75.3025 673.307 75.1679 674.072 75.1679C675.15 75.1679 675.997 75.4041 676.61 75.8766C677.229 76.3492 677.668 76.9729 677.93 77.7478ZM685.069 86.4233C684.086 86.4233 683.223 86.1893 682.481 85.7216C681.744 85.2537 681.168 84.5994 680.752 83.7583C680.34 82.9171 680.135 81.9343 680.135 80.8097C680.135 79.6757 680.34 78.6857 680.752 77.8399C681.168 76.9941 681.744 76.3373 682.481 75.8695C683.223 75.4017 684.086 75.1679 685.069 75.1679C686.052 75.1679 686.912 75.4017 687.649 75.8695C688.391 76.3373 688.968 76.9941 689.379 77.8399C689.795 78.6857 690.003 79.6757 690.003 80.8097C690.003 81.9343 689.795 82.9171 689.379 83.7583C688.968 84.5994 688.391 85.2537 687.649 85.7216C686.912 86.1893 686.052 86.4233 685.069 86.4233ZM685.069 84.9207C685.816 84.9207 686.43 84.7293 686.912 84.3466C687.395 83.9638 687.751 83.4605 687.982 82.8368C688.213 82.2131 688.33 81.5374 688.33 80.8097C688.33 80.082 688.213 79.404 687.982 78.7755C687.751 78.1471 687.395 77.6391 686.912 77.2517C686.43 76.8642 685.816 76.6705 685.069 76.6705C684.322 76.6705 683.708 76.8642 683.226 77.2517C682.744 77.6391 682.388 78.1471 682.155 78.7755C681.924 79.404 681.809 80.082 681.809 80.8097C681.809 81.5374 681.924 82.2131 682.155 82.8368C682.388 83.4605 682.744 83.9638 683.226 84.3466C683.708 84.7293 684.322 84.9207 685.069 84.9207ZM699.418 81.7453V75.3096H701.092V86.1964H699.418V84.3535H699.305C699.049 84.9064 698.653 85.3766 698.114 85.7642C697.575 86.1469 696.895 86.3381 696.073 86.3381C695.391 86.3381 694.787 86.1893 694.258 85.8917C693.728 85.5892 693.312 85.1356 693.011 84.5308C692.708 83.9213 692.557 83.1535 692.557 82.2273V75.3096H694.23V82.1139C694.23 82.9077 694.451 83.5409 694.895 84.0134C695.345 84.4859 695.917 84.7221 696.61 84.7221C697.026 84.7221 697.451 84.6158 697.88 84.4033C698.316 84.1905 698.678 83.8645 698.971 83.4251C699.269 82.9857 699.418 82.4257 699.418 81.7453ZM704.156 86.1964V75.3096H705.771V76.954H705.884C706.084 76.4153 706.443 75.9782 706.962 75.6427C707.483 75.3072 708.069 75.1395 708.721 75.1395C708.844 75.1395 708.997 75.1419 709.181 75.1466C709.366 75.1513 709.504 75.1584 709.599 75.1679V76.8689C709.542 76.8547 709.413 76.8335 709.21 76.8051C709.012 76.7721 708.8 76.7555 708.579 76.7555C708.049 76.7555 707.576 76.8666 707.16 77.0886C706.749 77.306 706.423 77.6084 706.182 77.9959C705.946 78.3786 705.828 78.8157 705.828 79.3071V86.1964H704.156ZM715.674 86.4233C714.654 86.4233 713.774 86.1823 713.037 85.7003C712.3 85.2183 711.733 84.5545 711.336 83.7087C710.94 82.8628 710.74 81.8965 710.74 80.8097C710.74 79.704 710.945 78.7283 711.351 77.8825C711.761 77.0319 712.334 76.3681 713.066 75.8908C713.803 75.4088 714.663 75.1679 715.646 75.1679C716.411 75.1679 717.101 75.3096 717.717 75.5931C718.331 75.8766 718.833 76.2735 719.226 76.7839C719.618 77.2942 719.861 77.8896 719.956 78.57H718.282C718.156 78.0738 717.871 77.6344 717.432 77.2517C716.998 76.8642 716.411 76.6705 715.674 76.6705C715.022 76.6705 714.45 76.8406 713.959 77.1808C713.472 77.5163 713.092 77.9912 712.818 78.6054C712.548 79.215 712.414 79.9308 712.414 80.753C712.414 81.5941 712.547 82.3265 712.811 82.9502C713.081 83.574 713.458 84.0583 713.944 84.4033C714.436 84.7482 715.014 84.9207 715.674 84.9207C716.11 84.9207 716.504 84.845 716.858 84.6938C717.213 84.5427 717.512 84.3253 717.758 84.0417C718.005 83.7583 718.179 83.418 718.282 83.0211H719.956C719.861 83.6638 719.628 84.2426 719.254 84.7575C718.886 85.268 718.397 85.6743 717.787 85.9767C717.183 86.2744 716.477 86.4233 715.674 86.4233ZM726.967 86.4233C725.918 86.4233 725.013 86.1918 724.253 85.7287C723.496 85.2609 722.912 84.6089 722.501 83.7724C722.095 82.9313 721.89 81.9532 721.89 80.8381C721.89 79.7229 722.095 78.7401 722.501 77.8896C722.912 77.0343 723.484 76.3681 724.216 75.8908C724.953 75.4088 725.813 75.1679 726.796 75.1679C727.363 75.1679 727.924 75.2624 728.476 75.4514C729.03 75.6404 729.533 75.9475 729.987 76.3728C730.441 76.7933 730.802 77.3509 731.071 78.0455C731.341 78.7401 731.475 79.5954 731.475 80.6113V81.32H723.082V79.8741H729.774C729.774 79.2599 729.651 78.7117 729.406 78.2298C729.165 77.7478 728.819 77.3674 728.37 77.0886C727.926 76.8099 727.402 76.6705 726.796 76.6705C726.131 76.6705 725.553 76.8358 725.068 77.1666C724.585 77.4927 724.214 77.9179 723.955 78.4424C723.694 78.9669 723.564 79.5292 723.564 80.1293V81.0932C723.564 81.9154 723.705 82.6124 723.99 83.1841C724.278 83.7511 724.677 84.1836 725.187 84.4813C725.698 84.7742 726.29 84.9207 726.967 84.9207C727.407 84.9207 727.802 84.8592 728.158 84.7364C728.516 84.6089 728.827 84.4197 729.087 84.1693C729.346 83.9141 729.547 83.5976 729.689 83.2195L731.306 83.6733C731.134 84.2213 730.848 84.7033 730.447 85.1191C730.045 85.5301 729.549 85.8515 728.959 86.083C728.368 86.3099 727.704 86.4233 726.967 86.4233ZM741.733 77.7478L740.23 78.1731C740.136 77.9226 739.996 77.6793 739.811 77.443C739.632 77.202 739.387 77.0036 739.074 76.8477C738.763 76.6917 738.362 76.6138 737.877 76.6138C737.209 76.6138 736.654 76.7673 736.21 77.0745C735.771 77.3769 735.551 77.762 735.551 78.2298C735.551 78.6456 735.702 78.974 736.005 79.215C736.308 79.456 736.78 79.6568 737.422 79.8174L739.039 80.2144C740.012 80.4506 740.738 80.8121 741.215 81.2988C741.693 81.7808 741.93 82.4021 741.93 83.1628C741.93 83.7865 741.751 84.3442 741.391 84.8356C741.037 85.327 740.541 85.7144 739.904 85.998C739.266 86.2814 738.524 86.4233 737.679 86.4233C736.567 86.4233 735.647 86.1823 734.921 85.7003C734.192 85.2183 733.731 84.5142 733.538 83.5881L735.125 83.1913C735.276 83.7772 735.563 84.2167 735.983 84.5096C736.409 84.8025 736.965 84.949 737.649 84.949C738.429 84.949 739.048 84.7837 739.507 84.4528C739.969 84.1174 740.202 83.7157 740.202 83.248C740.202 82.8699 740.069 82.5533 739.804 82.2982C739.54 82.0383 739.134 81.8445 738.585 81.717L736.77 81.2917C735.774 81.0554 735.04 80.6892 734.573 80.1931C734.11 79.6922 733.878 79.0661 733.878 78.3148C733.878 77.7006 734.051 77.1572 734.397 76.6846C734.746 76.2121 735.22 75.8412 735.82 75.5719C736.426 75.3025 737.111 75.1679 737.877 75.1679C738.954 75.1679 739.8 75.4041 740.413 75.8766C741.034 76.3492 741.473 76.9729 741.733 77.7478Z" fill="white"/>
<path opacity="0.3" d="M190.901 125.283H56.1587C53.8619 125.283 52 127.145 52 129.441V222.584C52 224.881 53.8619 226.742 56.1587 226.742H190.901C193.198 226.742 195.06 224.881 195.06 222.584V129.441C195.06 127.145 193.198 125.283 190.901 125.283Z" stroke="white"/>
<path d="M81.1113 145.242H167.309C170.525 145.242 173.132 147.849 173.132 151.064V193.356C173.132 196.572 170.525 199.178 167.309 199.178H81.1113C77.8957 199.178 75.2891 196.572 75.2891 193.356V151.064C75.2891 147.849 77.8957 145.242 81.1113 145.242Z" stroke="white"/>
<path opacity="0.2" d="M173.131 155.75V193.356C173.131 196.571 170.525 199.178 167.309 199.178H100.004C94.0041 199.178 91.9263 191.201 97.1639 188.275L164.469 150.668C168.35 148.5 173.131 151.305 173.131 155.75Z" stroke="white"/>
<path opacity="0.2" d="M143.233 151.826H115.43C113.465 151.826 111.872 153.419 111.872 155.384C111.872 157.349 113.465 158.942 115.43 158.942H143.233C145.199 158.942 146.792 157.349 146.792 155.384C146.792 153.419 145.199 151.826 143.233 151.826Z" stroke="white"/>
<path opacity="0.2" d="M143.233 162.068H115.43C113.465 162.068 111.872 163.661 111.872 165.626C111.872 167.591 113.465 169.184 115.43 169.184H143.233C145.199 169.184 146.792 167.591 146.792 165.626C146.792 163.661 145.199 162.068 143.233 162.068Z" stroke="white"/>
<path opacity="0.2" d="M163.72 174.405H82.5053C81.6971 174.405 81.042 175.06 81.042 175.868C81.042 176.676 81.6971 177.331 82.5053 177.331H163.72C164.528 177.331 165.183 176.676 165.183 175.868C165.183 175.06 164.528 174.405 163.72 174.405Z" fill="#C4C4C4"/>
<path d="M141.038 182.452H82.5053C81.6971 182.452 81.042 183.107 81.042 183.915C81.042 184.723 81.6971 185.378 82.5053 185.378H141.038C141.846 185.378 142.502 184.723 142.502 183.915C142.502 183.107 141.846 182.452 141.038 182.452Z" fill="#C4C4C4"/>
<path opacity="0.2" d="M119.088 190.499H82.5053C81.6971 190.499 81.042 191.154 81.042 191.962V191.962C81.042 192.77 81.6971 193.425 82.5053 193.425H119.088C119.897 193.425 120.552 192.77 120.552 191.962C120.552 191.154 119.897 190.499 119.088 190.499Z" fill="#C4C4C4"/>
<path d="M94.2119 161.237C95.8281 161.237 97.1385 159.927 97.1385 158.311C97.1385 156.695 95.8281 155.385 94.2119 155.385C92.5955 155.385 91.2852 156.695 91.2852 158.311C91.2852 159.927 92.5955 161.237 94.2119 161.237Z" stroke="white" stroke-linecap="round" stroke-linejoin="round"/>
<path d="M105.268 151.726H83.156C82.3927 151.726 81.7739 152.163 81.7739 152.701V168.308C81.7739 168.847 82.3927 169.284 83.156 169.284H105.268C106.032 169.284 106.651 168.847 106.651 168.308V152.701C106.651 152.163 106.032 151.726 105.268 151.726Z" stroke="white" stroke-linecap="round" stroke-linejoin="round"/>
<path d="M89.0908 169.284C89.0908 166.456 91.3838 164.163 94.2124 164.163C97.0409 164.163 99.3341 166.456 99.3341 169.284" stroke="white" stroke-linecap="round" stroke-linejoin="round"/>
<path opacity="0.5" d="M294.037 171.023L285.72 166.222V175.825L294.037 171.023ZM179.257 171.855H180.945V170.192H179.257V171.855ZM184.321 171.855H187.697V170.192H184.321V171.855ZM191.072 171.855H194.448V170.192H191.072V171.855ZM197.824 171.855H201.2V170.192H197.824V171.855ZM204.576 171.855H207.952V170.192H204.576V171.855ZM211.328 171.855H214.704V170.192H211.328V171.855ZM218.079 171.855H221.456V170.192H218.079V171.855ZM224.831 171.855H228.207V170.192H224.831V171.855ZM231.583 171.855H234.959V170.192H231.583V171.855ZM238.335 171.855H241.711V170.192H238.335V171.855ZM245.088 171.855H248.463V170.192H245.088V171.855ZM251.838 171.855H255.215V170.192H251.838V171.855ZM258.59 171.855H261.967V170.192H258.59V171.855ZM265.342 171.855H268.717V170.192H265.342V171.855ZM272.094 171.855H275.469V170.192H272.094V171.855ZM278.846 171.855H282.222V170.192H278.846V171.855ZM285.597 171.855H288.974V170.192H285.597V171.855Z" fill="url(#paint0_linear_150_982)"/>
<path opacity="0.5" d="M511.954 171.023L503.636 166.222V175.825L511.954 171.023ZM413.808 171.855H415.443V170.192H413.808V171.855ZM418.715 171.855H421.987V170.192H418.715V171.855ZM425.258 171.855H428.53V170.192H425.258V171.855ZM431.802 171.855H435.072V170.192H431.802V171.855ZM438.345 171.855H441.617V170.192H438.345V171.855ZM444.887 171.855H448.159V170.192H444.887V171.855ZM451.431 171.855H454.702V170.192H451.431V171.855ZM457.974 171.855H461.246V170.192H457.974V171.855ZM464.516 171.855H467.788V170.192H464.516V171.855ZM471.06 171.855H474.331V170.192H471.06V171.855ZM477.603 171.855H480.875V170.192H477.603V171.855ZM484.145 171.855H487.417V170.192H484.145V171.855ZM490.689 171.855H493.96V170.192H490.689V171.855ZM497.232 171.855H500.504V170.192H497.232V171.855ZM503.774 171.855H507.046V170.192H503.774V171.855Z" fill="url(#paint1_linear_150_982)"/>
<path d="M357.527 228.129C386.161 228.129 409.373 204.92 409.373 176.29C409.373 147.661 386.161 124.452 357.527 124.452C328.894 124.452 305.682 147.661 305.682 176.29C305.682 204.92 328.894 228.129 357.527 228.129Z" fill="#0A0E12"/>
<path d="M357.527 227.297C385.701 227.297 408.541 204.46 408.541 176.29C408.541 148.12 385.701 125.283 357.527 125.283C329.353 125.283 306.514 148.12 306.514 176.29C306.514 204.46 329.353 227.297 357.527 227.297Z" stroke="white" stroke-opacity="0.31"/>
<path d="M349.348 192.645V188.695H353.299H353.643L353.888 188.452L358.938 183.401C360.191 183.735 361.508 183.913 362.864 183.913C371.248 183.913 378.043 177.118 378.043 168.736C378.043 160.354 371.248 153.559 362.864 153.559C354.48 153.559 347.685 160.354 347.685 168.736C347.685 170.092 347.863 171.408 348.197 172.661L338.362 182.493L338.12 182.737V183.082V192.645V193.477H338.951H348.516H349.348V192.645ZM361.305 161.563C361.305 160.702 362.002 160.004 362.864 160.004C367.686 160.004 371.597 163.913 371.597 168.736C371.597 169.597 370.899 170.295 370.039 170.295C369.177 170.295 368.478 169.597 368.478 168.736C368.478 165.636 365.965 163.122 362.864 163.122C362.002 163.122 361.305 162.424 361.305 161.563Z" stroke="white"/>
<path opacity="0.3" d="M698.264 125.283H578.493C551.391 125.283 529.42 147.251 529.42 174.35V177.676C529.42 204.775 551.391 226.742 578.493 226.742H698.264C725.366 226.742 747.337 204.775 747.337 177.676V174.35C747.337 147.251 725.366 125.283 698.264 125.283Z" stroke="white"/>
<path opacity="0.7" d="M640.882 169.36H639.125C639.021 168.854 638.839 168.41 638.578 168.027C638.324 167.644 638.011 167.323 637.643 167.063C637.279 166.799 636.875 166.6 636.431 166.468C635.986 166.335 635.524 166.269 635.042 166.269C634.163 166.269 633.366 166.492 632.653 166.936C631.944 167.38 631.379 168.034 630.958 168.899C630.542 169.764 630.334 170.824 630.334 172.081C630.334 173.338 630.542 174.399 630.958 175.264C631.379 176.128 631.944 176.783 632.653 177.227C633.366 177.671 634.163 177.893 635.042 177.893C635.524 177.893 635.986 177.827 636.431 177.695C636.875 177.563 637.279 177.366 637.643 177.107C638.011 176.842 638.324 176.518 638.578 176.136C638.839 175.748 639.021 175.304 639.125 174.803H640.882C640.751 175.545 640.509 176.209 640.16 176.795C639.809 177.381 639.375 177.879 638.856 178.29C638.335 178.697 637.751 179.006 637.104 179.219C636.462 179.431 635.773 179.538 635.042 179.538C633.804 179.538 632.703 179.235 631.738 178.631C630.775 178.026 630.016 177.166 629.462 176.05C628.91 174.935 628.634 173.612 628.634 172.081C628.634 170.55 628.91 169.227 629.462 168.112C630.016 166.997 630.775 166.137 631.738 165.532C632.703 164.927 633.804 164.625 635.042 164.625C635.773 164.625 636.462 164.731 637.104 164.944C637.751 165.157 638.335 165.468 638.856 165.88C639.375 166.286 639.809 166.782 640.16 167.368C640.509 167.949 640.751 168.613 640.882 169.36ZM643.723 179.339V164.823H645.482V177.78H652.23V179.339H643.723ZM664.479 164.823H666.237V174.434C666.237 175.427 666.004 176.313 665.535 177.092C665.072 177.867 664.417 178.479 663.572 178.928C662.725 179.372 661.734 179.594 660.594 179.594C659.455 179.594 658.463 179.372 657.617 178.928C656.772 178.479 656.115 177.867 655.647 177.092C655.183 176.313 654.952 175.427 654.952 174.434V164.823H656.71V174.293C656.71 175.001 656.866 175.632 657.178 176.185C657.49 176.733 657.934 177.166 658.51 177.482C659.092 177.794 659.786 177.95 660.594 177.95C661.403 177.95 662.098 177.794 662.679 177.482C663.259 177.166 663.703 176.733 664.011 176.185C664.324 175.632 664.479 175.001 664.479 174.293V164.823ZM677.687 168.452C677.602 167.734 677.257 167.177 676.652 166.78C676.048 166.383 675.306 166.184 674.426 166.184C673.784 166.184 673.222 166.288 672.739 166.496C672.262 166.704 671.889 166.99 671.62 167.354C671.355 167.718 671.222 168.131 671.222 168.594C671.222 168.982 671.314 169.315 671.498 169.594C671.688 169.868 671.929 170.097 672.222 170.281C672.515 170.461 672.823 170.609 673.144 170.728C673.465 170.841 673.761 170.933 674.029 171.004L675.504 171.401C675.882 171.5 676.303 171.637 676.765 171.812C677.234 171.987 677.68 172.225 678.106 172.528C678.535 172.826 678.889 173.208 679.169 173.676C679.448 174.144 679.586 174.718 679.586 175.398C679.586 176.183 679.382 176.892 678.971 177.525C678.563 178.158 677.968 178.661 677.184 179.035C676.404 179.408 675.456 179.594 674.341 179.594C673.302 179.594 672.402 179.427 671.64 179.091C670.885 178.756 670.289 178.288 669.855 177.688C669.424 177.088 669.181 176.391 669.125 175.597H670.94C670.986 176.145 671.171 176.599 671.492 176.958C671.818 177.312 672.229 177.577 672.724 177.752C673.227 177.922 673.764 178.007 674.341 178.007C675.012 178.007 675.616 177.898 676.15 177.681C676.684 177.459 677.106 177.152 677.417 176.759C677.73 176.362 677.886 175.899 677.886 175.37C677.886 174.888 677.751 174.496 677.482 174.193C677.213 173.891 676.858 173.645 676.419 173.456C675.978 173.267 675.504 173.102 674.993 172.96L673.207 172.45C672.072 172.124 671.176 171.658 670.514 171.054C669.852 170.449 669.521 169.657 669.521 168.679C669.521 167.867 669.74 167.158 670.181 166.553C670.625 165.943 671.221 165.471 671.966 165.135C672.718 164.795 673.556 164.625 674.483 164.625C675.419 164.625 676.251 164.793 676.978 165.128C677.707 165.459 678.282 165.913 678.708 166.489C679.137 167.066 679.365 167.72 679.388 168.452H677.687ZM681.684 166.383V164.823H692.571V166.383H688.007V179.339H686.249V166.383H681.684ZM695.285 179.339V164.823H704.046V166.383H697.043V171.288H703.592V172.847H697.043V177.78H704.159V179.339H695.285ZM707.215 179.339V164.823H712.121C713.255 164.823 714.185 165.017 714.914 165.405C715.641 165.787 716.18 166.314 716.529 166.985C716.88 167.656 717.055 168.419 717.055 169.275C717.055 170.13 716.88 170.888 716.529 171.55C716.18 172.211 715.644 172.731 714.92 173.109C714.197 173.482 713.274 173.669 712.149 173.669H708.18V172.081H712.092C712.868 172.081 713.491 171.968 713.964 171.741C714.441 171.514 714.786 171.193 714.999 170.777C715.216 170.357 715.325 169.856 715.325 169.275C715.325 168.693 715.216 168.185 714.999 167.751C714.781 167.316 714.435 166.981 713.957 166.744C713.48 166.503 712.848 166.383 712.064 166.383H708.973V179.339H707.215ZM714.049 172.818L717.622 179.339H715.579L712.064 172.818H714.049Z" fill="white"/>
<defs>
<linearGradient id="paint0_linear_150_982" x1="294.037" y1="172.687" x2="164.381" y2="172.137" gradientUnits="userSpaceOnUse">
<stop stop-color="white"/>
<stop offset="1" stop-color="white" stop-opacity="0"/>
</linearGradient>
<linearGradient id="paint1_linear_150_982" x1="511.954" y1="172.687" x2="401.087" y2="172.285" gradientUnits="userSpaceOnUse">
<stop stop-color="white"/>
<stop offset="1" stop-color="white" stop-opacity="0"/>
</linearGradient>
</defs>
</svg>
