<svg width="820" height="384" viewBox="0 0 820 384" fill="none" xmlns="http://www.w3.org/2000/svg">
<rect x="53.5" y="38.5" width="719" height="299" rx="11.5" stroke="#EAEBEC"/>
<path d="M342.632 91H339.292L345.562 73.5391H349.359L355.617 91H352.183L347.449 76.8672H347.402L342.632 91ZM342.96 84.0391H351.937V86.582H342.96V84.0391ZM361.699 91.2812C360.488 91.2812 359.426 91.0078 358.512 90.4609C357.597 89.9141 356.887 89.1562 356.379 88.1875C355.871 87.2188 355.617 86.0977 355.617 84.8242C355.617 83.5508 355.871 82.4258 356.379 81.4492C356.887 80.4727 357.597 79.7109 358.512 79.1641C359.426 78.6172 360.488 78.3438 361.699 78.3438C362.746 78.3438 363.68 78.5469 364.5 78.9531C365.32 79.3594 365.98 79.9219 366.48 80.6406C366.988 81.3516 367.281 82.1719 367.359 83.1016H364.359C364.297 82.6641 364.152 82.2773 363.926 81.9414C363.699 81.6055 363.402 81.3438 363.035 81.1562C362.668 80.9688 362.234 80.875 361.734 80.875C361.109 80.875 360.57 81.0391 360.117 81.3672C359.664 81.6875 359.316 82.1445 359.074 82.7383C358.832 83.3242 358.711 84.0195 358.711 84.8242C358.711 85.6211 358.832 86.3164 359.074 86.9102C359.316 87.4961 359.664 87.9492 360.117 88.2695C360.57 88.5898 361.109 88.75 361.734 88.75C362.492 88.75 363.082 88.5469 363.504 88.1406C363.926 87.7344 364.203 87.1914 364.336 86.5117H367.359C367.297 87.4258 367.015 88.2422 366.515 88.9609C366.015 89.6797 365.351 90.2461 364.523 90.6602C363.695 91.0742 362.754 91.2812 361.699 91.2812ZM374.344 91.2812C373.133 91.2812 372.071 91.0078 371.157 90.4609C370.243 89.9141 369.532 89.1562 369.024 88.1875C368.516 87.2188 368.262 86.0977 368.262 84.8242C368.262 83.5508 368.516 82.4258 369.024 81.4492C369.532 80.4727 370.243 79.7109 371.157 79.1641C372.071 78.6172 373.133 78.3438 374.344 78.3438C375.391 78.3438 376.325 78.5469 377.145 78.9531C377.965 79.3594 378.625 79.9219 379.125 80.6406C379.633 81.3516 379.926 82.1719 380.004 83.1016H377.004C376.942 82.6641 376.797 82.2773 376.571 81.9414C376.344 81.6055 376.047 81.3438 375.68 81.1562C375.313 80.9688 374.879 80.875 374.379 80.875C373.754 80.875 373.215 81.0391 372.762 81.3672C372.309 81.6875 371.961 82.1445 371.719 82.7383C371.477 83.3242 371.356 84.0195 371.356 84.8242C371.356 85.6211 371.477 86.3164 371.719 86.9102C371.961 87.4961 372.309 87.9492 372.762 88.2695C373.215 88.5898 373.754 88.75 374.379 88.75C375.137 88.75 375.727 88.5469 376.149 88.1406C376.571 87.7344 376.848 87.1914 376.981 86.5117H380.004C379.942 87.4258 379.66 88.2422 379.16 88.9609C378.66 89.6797 377.996 90.2461 377.168 90.6602C376.34 91.0742 375.399 91.2812 374.344 91.2812ZM386.977 91.2812C385.735 91.2812 384.657 91.0039 383.743 90.4492C382.837 89.8945 382.138 89.1328 381.645 88.1641C381.153 87.1875 380.907 86.0742 380.907 84.8242C380.907 83.5664 381.161 82.4492 381.669 81.4727C382.177 80.4961 382.876 79.7305 383.766 79.1758C384.665 78.6211 385.696 78.3438 386.86 78.3438C387.751 78.3438 388.559 78.5 389.286 78.8125C390.02 79.125 390.649 79.5664 391.173 80.1367C391.704 80.707 392.11 81.3867 392.391 82.1758C392.68 82.957 392.825 83.8242 392.825 84.7773V85.5977H382.091V83.5352H391.302L389.93 84.0742C389.93 83.3945 389.805 82.8086 389.555 82.3164C389.313 81.8164 388.966 81.4336 388.513 81.168C388.059 80.8945 387.524 80.7578 386.907 80.7578C386.298 80.7578 385.766 80.8945 385.313 81.168C384.868 81.4336 384.52 81.8164 384.27 82.3164C384.028 82.8086 383.907 83.3945 383.907 84.0742V85.4102C383.907 86.0977 384.028 86.707 384.27 87.2383C384.52 87.7617 384.88 88.168 385.348 88.457C385.817 88.7461 386.384 88.8906 387.048 88.8906C387.54 88.8906 387.973 88.8203 388.348 88.6797C388.723 88.5312 389.036 88.3281 389.286 88.0703C389.536 87.8125 389.716 87.5078 389.825 87.1562H392.673C392.524 87.9688 392.18 88.6836 391.641 89.3008C391.11 89.918 390.442 90.4023 389.638 90.7539C388.841 91.1055 387.954 91.2812 386.977 91.2812ZM404.216 82.4922H401.345C401.337 81.9531 401.126 81.5078 400.712 81.1562C400.306 80.7969 399.775 80.6172 399.118 80.6172C398.486 80.6172 397.982 80.7578 397.607 81.0391C397.24 81.3203 397.056 81.668 397.056 82.082C397.056 82.4414 397.197 82.7344 397.478 82.9609C397.767 83.1875 398.165 83.3555 398.673 83.4648L400.923 83.9219C402.158 84.1797 403.064 84.5859 403.642 85.1406C404.228 85.6875 404.521 86.4141 404.521 87.3203C404.521 88.1328 404.294 88.8359 403.841 89.4297C403.388 90.0234 402.763 90.4844 401.966 90.8125C401.169 91.1328 400.255 91.293 399.224 91.293C398.2 91.293 397.286 91.1367 396.482 90.8242C395.677 90.5039 395.033 90.0352 394.548 89.418C394.064 88.8008 393.786 88.0469 393.716 87.1562H396.74C396.81 87.75 397.052 88.2109 397.466 88.5391C397.88 88.8594 398.447 89.0195 399.165 89.0195C399.868 89.0195 400.419 88.8828 400.818 88.6094C401.216 88.3359 401.415 87.9883 401.415 87.5664C401.415 87.1992 401.267 86.9062 400.97 86.6875C400.673 86.4688 400.263 86.3047 399.74 86.1953L397.618 85.7617C396.431 85.5195 395.529 85.0977 394.911 84.4961C394.302 83.8945 393.997 83.125 393.997 82.1875C393.997 81.4219 394.204 80.7539 394.618 80.1836C395.033 79.6055 395.618 79.1562 396.376 78.8359C397.134 78.5156 398.025 78.3555 399.048 78.3555C400.064 78.3555 400.954 78.5234 401.72 78.8594C402.486 79.1953 403.087 79.6719 403.525 80.2891C403.962 80.9062 404.193 81.6406 404.216 82.4922ZM415.947 82.4922H413.076C413.068 81.9531 412.857 81.5078 412.443 81.1562C412.037 80.7969 411.506 80.6172 410.849 80.6172C410.217 80.6172 409.713 80.7578 409.338 81.0391C408.97 81.3203 408.787 81.668 408.787 82.082C408.787 82.4414 408.927 82.7344 409.209 82.9609C409.498 83.1875 409.896 83.3555 410.404 83.4648L412.654 83.9219C413.888 84.1797 414.795 84.5859 415.373 85.1406C415.959 85.6875 416.252 86.4141 416.252 87.3203C416.252 88.1328 416.025 88.8359 415.572 89.4297C415.119 90.0234 414.494 90.4844 413.697 90.8125C412.9 91.1328 411.986 91.293 410.955 91.293C409.931 91.293 409.017 91.1367 408.213 90.8242C407.408 90.5039 406.763 90.0352 406.279 89.418C405.795 88.8008 405.517 88.0469 405.447 87.1562H408.47C408.541 87.75 408.783 88.2109 409.197 88.5391C409.611 88.8594 410.177 89.0195 410.896 89.0195C411.599 89.0195 412.15 88.8828 412.549 88.6094C412.947 88.3359 413.146 87.9883 413.146 87.5664C413.146 87.1992 412.998 86.9062 412.701 86.6875C412.404 86.4688 411.994 86.3047 411.47 86.1953L409.349 85.7617C408.162 85.5195 407.26 85.0977 406.642 84.4961C406.033 83.8945 405.728 83.125 405.728 82.1875C405.728 81.4219 405.935 80.7539 406.349 80.1836C406.763 79.6055 407.349 79.1562 408.107 78.8359C408.865 78.5156 409.756 78.3555 410.779 78.3555C411.795 78.3555 412.685 78.5234 413.451 78.8594C414.217 79.1953 414.818 79.6719 415.256 80.2891C415.693 80.9062 415.924 81.6406 415.947 82.4922ZM430.397 91.2812C428.78 91.2812 427.354 90.9062 426.12 90.1562C424.885 89.3984 423.921 88.3438 423.225 86.9922C422.53 85.6328 422.182 84.0625 422.182 82.2812C422.182 80.4453 422.538 78.8516 423.249 77.5C423.96 76.1484 424.932 75.1055 426.167 74.3711C427.401 73.6289 428.8 73.2578 430.362 73.2578C431.346 73.2578 432.268 73.4062 433.128 73.7031C433.995 73.9922 434.764 74.4062 435.436 74.9453C436.108 75.4844 436.663 76.125 437.1 76.8672C437.538 77.6094 437.815 78.4336 437.932 79.3398H434.663C434.561 78.8555 434.385 78.418 434.135 78.0273C433.893 77.6289 433.589 77.2891 433.221 77.0078C432.854 76.7266 432.436 76.5117 431.967 76.3633C431.507 76.207 430.999 76.1289 430.444 76.1289C429.421 76.1289 428.53 76.3828 427.772 76.8906C427.022 77.3984 426.44 78.1133 426.026 79.0352C425.62 79.9492 425.417 81.0312 425.417 82.2812C425.417 83.5234 425.62 84.6055 426.026 85.5273C426.44 86.4414 427.026 87.1523 427.784 87.6602C428.542 88.1602 429.436 88.4102 430.467 88.4102C431.327 88.4102 432.089 88.2383 432.753 87.8945C433.417 87.5508 433.94 87.0742 434.323 86.4648C434.706 85.8477 434.897 85.1328 434.897 84.3203L435.706 84.3789H430.889V81.8594H438.05V84.0039C438.05 85.4258 437.717 86.6836 437.053 87.7773C436.397 88.8711 435.495 89.7305 434.346 90.3555C433.198 90.9727 431.882 91.2812 430.397 91.2812ZM439.796 91V78.625H442.749V80.6875H442.796C443.023 79.9688 443.378 79.4258 443.863 79.0586C444.347 78.6914 444.991 78.5078 445.796 78.5078C445.991 78.5078 446.171 78.5156 446.335 78.5312C446.507 78.5391 446.652 78.5469 446.769 78.5547V81.25C446.659 81.2344 446.468 81.2188 446.195 81.2031C445.929 81.1797 445.648 81.168 445.351 81.168C444.89 81.168 444.468 81.2773 444.085 81.4961C443.71 81.707 443.413 82.0273 443.195 82.457C442.976 82.8789 442.866 83.4141 442.866 84.0625V91H439.796ZM451.34 91.1992C450.519 91.1992 449.789 91.0625 449.148 90.7891C448.507 90.5156 448 90.1055 447.625 89.5586C447.257 89.0039 447.074 88.3164 447.074 87.4961C447.074 86.793 447.203 86.2109 447.461 85.75C447.726 85.2891 448.086 84.9219 448.539 84.6484C448.992 84.3672 449.511 84.1562 450.097 84.0156C450.683 83.875 451.293 83.7695 451.925 83.6992C452.691 83.6133 453.297 83.5391 453.742 83.4766C454.195 83.4141 454.515 83.3164 454.703 83.1836C454.898 83.0508 454.996 82.8438 454.996 82.5625V82.4805C454.996 82.1367 454.906 81.8359 454.726 81.5781C454.554 81.3125 454.304 81.1055 453.976 80.957C453.648 80.8086 453.254 80.7344 452.793 80.7344C452.324 80.7344 451.914 80.8086 451.562 80.957C451.211 81.1055 450.929 81.3125 450.718 81.5781C450.515 81.8359 450.398 82.1406 450.367 82.4922H447.425C447.472 81.7188 447.715 81.0234 448.152 80.4062C448.59 79.7891 449.203 79.2969 449.992 78.9297C450.781 78.5547 451.726 78.3672 452.828 78.3672C453.632 78.3672 454.355 78.4688 454.996 78.6719C455.636 78.875 456.183 79.1641 456.636 79.5391C457.09 79.9062 457.433 80.3398 457.668 80.8398C457.91 81.3398 458.031 81.8906 458.031 82.4922V91H455.019V89.2539H454.972C454.777 89.6289 454.523 89.9648 454.211 90.2617C453.898 90.5508 453.507 90.7812 453.039 90.9531C452.57 91.1172 452.004 91.1992 451.34 91.1992ZM452.125 88.9609C452.742 88.9609 453.265 88.8477 453.695 88.6211C454.132 88.3945 454.461 88.0938 454.679 87.7188C454.906 87.3359 455.019 86.9062 455.019 86.4297V85.1172C454.925 85.1719 454.789 85.2266 454.609 85.2812C454.437 85.3359 454.23 85.3867 453.988 85.4336C453.746 85.4805 453.484 85.5273 453.203 85.5742C452.922 85.6211 452.632 85.668 452.336 85.7148C451.922 85.7695 451.539 85.8672 451.187 86.0078C450.843 86.1406 450.566 86.3242 450.355 86.5586C450.152 86.7852 450.05 87.082 450.05 87.4492C450.05 87.9258 450.238 88.2969 450.613 88.5625C450.988 88.8281 451.492 88.9609 452.125 88.9609ZM463.211 83.9219V91H460.141V78.625H463.176V80.793L463.211 80.7578C463.492 80.0703 463.949 79.5 464.582 79.0469C465.215 78.5938 466.016 78.3672 466.985 78.3672C467.852 78.3672 468.637 78.5625 469.34 78.9531C470.043 79.3359 470.602 79.8906 471.016 80.6172C471.43 81.3438 471.637 82.2266 471.637 83.2656V91H468.567V83.7344C468.567 82.8359 468.328 82.1523 467.852 81.6836C467.383 81.2148 466.75 80.9805 465.953 80.9805C465.445 80.9805 464.985 81.0859 464.57 81.2969C464.156 81.5078 463.824 81.832 463.574 82.2695C463.332 82.6992 463.211 83.25 463.211 83.9219ZM480.239 78.625V81.0742H472.798V78.625H480.239ZM474.637 75.25H477.708V87.168C477.708 87.668 477.813 88.0234 478.024 88.2344C478.235 88.4453 478.59 88.5508 479.09 88.5508C479.278 88.5508 479.477 88.5508 479.688 88.5508C479.899 88.5508 480.083 88.5508 480.239 88.5508V91C480.028 91 479.762 91 479.442 91C479.122 91 478.794 91 478.458 91C477.208 91 476.258 90.7188 475.61 90.1562C474.962 89.5859 474.637 88.7578 474.637 87.6719V75.25Z" fill="black"/>
<path d="M158.012 240.904H159.989V249.5C159.989 250.414 159.772 251.226 159.339 251.935C158.911 252.638 158.307 253.191 157.528 253.596C156.749 254 155.838 254.202 154.795 254.202C153.746 254.202 152.832 254 152.053 253.596C151.273 253.191 150.667 252.638 150.233 251.935C149.8 251.226 149.583 250.414 149.583 249.5V240.904H151.56V249.342C151.56 249.934 151.689 250.461 151.947 250.924C152.211 251.387 152.586 251.75 153.072 252.014C153.558 252.271 154.133 252.4 154.795 252.4C155.457 252.4 156.028 252.271 156.509 252.014C156.989 251.75 157.358 251.387 157.616 250.924C157.88 250.461 158.012 249.934 158.012 249.342V240.904ZM169.701 246.582L167.97 246.881C167.864 246.553 167.659 246.251 167.355 245.976C167.05 245.7 166.599 245.562 166.001 245.562C165.462 245.562 165.011 245.686 164.648 245.932C164.29 246.172 164.112 246.479 164.112 246.854C164.112 247.183 164.232 247.449 164.472 247.654C164.718 247.859 165.111 248.023 165.65 248.146L167.214 248.498C168.111 248.703 168.781 249.025 169.227 249.465C169.672 249.904 169.895 250.467 169.895 251.152C169.895 251.744 169.725 252.271 169.385 252.734C169.045 253.191 168.573 253.552 167.97 253.815C167.366 254.073 166.669 254.202 165.878 254.202C165.146 254.202 164.501 254.097 163.945 253.886C163.394 253.675 162.943 253.367 162.591 252.963C162.245 252.553 162.02 252.061 161.914 251.486L163.751 251.205C163.868 251.686 164.106 252.049 164.463 252.295C164.826 252.541 165.295 252.664 165.869 252.664C166.496 252.664 166.997 252.532 167.372 252.269C167.747 252.005 167.935 251.686 167.935 251.311C167.935 250.994 167.821 250.733 167.592 250.528C167.363 250.323 167.015 250.165 166.546 250.054L164.894 249.685C163.968 249.474 163.285 249.143 162.846 248.691C162.412 248.234 162.196 247.66 162.196 246.969C162.196 246.389 162.357 245.879 162.679 245.439C163.007 245 163.455 244.66 164.024 244.42C164.598 244.174 165.251 244.051 165.984 244.051C166.693 244.051 167.299 244.156 167.803 244.367C168.313 244.578 168.723 244.874 169.033 245.255C169.35 245.63 169.572 246.072 169.701 246.582ZM175.872 254.202C174.911 254.202 174.079 253.994 173.376 253.578C172.672 253.162 172.133 252.576 171.758 251.82C171.383 251.059 171.196 250.171 171.196 249.157C171.196 248.149 171.38 247.262 171.75 246.494C172.125 245.727 172.649 245.129 173.323 244.701C173.997 244.268 174.791 244.051 175.705 244.051C176.261 244.051 176.8 244.142 177.322 244.323C177.843 244.505 178.312 244.792 178.728 245.185C179.144 245.577 179.472 246.087 179.712 246.714C179.959 247.341 180.082 248.097 180.082 248.981V249.667H172.268V248.234H179.097L178.21 248.709C178.21 248.105 178.116 247.572 177.928 247.109C177.741 246.646 177.462 246.286 177.093 246.028C176.724 245.765 176.264 245.633 175.713 245.633C175.163 245.633 174.691 245.765 174.298 246.028C173.906 246.292 173.607 246.641 173.402 247.074C173.197 247.508 173.094 247.982 173.094 248.498V249.474C173.094 250.147 173.211 250.719 173.446 251.188C173.68 251.656 174.005 252.014 174.421 252.26C174.843 252.506 175.333 252.629 175.889 252.629C176.253 252.629 176.581 252.576 176.874 252.471C177.172 252.365 177.43 252.207 177.647 251.996C177.864 251.785 178.028 251.524 178.139 251.214L179.95 251.557C179.803 252.084 179.545 252.547 179.176 252.945C178.807 253.344 178.341 253.654 177.779 253.877C177.222 254.094 176.586 254.202 175.872 254.202ZM181.831 254V244.174H183.668V245.747H183.773C183.955 245.22 184.271 244.804 184.723 244.499C185.18 244.188 185.695 244.033 186.269 244.033C186.387 244.033 186.527 244.039 186.691 244.051C186.855 244.057 186.984 244.065 187.078 244.077V245.905C187.002 245.882 186.864 245.858 186.665 245.835C186.472 245.812 186.275 245.8 186.076 245.8C185.625 245.8 185.221 245.896 184.863 246.09C184.512 246.277 184.233 246.538 184.028 246.872C183.829 247.2 183.729 247.581 183.729 248.015V254H181.831ZM196.923 254.202C196.003 254.202 195.2 253.991 194.514 253.569C193.829 253.147 193.296 252.556 192.915 251.794C192.54 251.032 192.352 250.147 192.352 249.14C192.352 248.12 192.54 247.229 192.915 246.468C193.296 245.7 193.829 245.105 194.514 244.684C195.2 244.262 196.003 244.051 196.923 244.051C197.848 244.051 198.654 244.262 199.339 244.684C200.025 245.105 200.558 245.7 200.939 246.468C201.32 247.229 201.51 248.12 201.51 249.14C201.51 250.147 201.32 251.032 200.939 251.794C200.558 252.556 200.025 253.147 199.339 253.569C198.654 253.991 197.848 254.202 196.923 254.202ZM196.923 252.594C197.532 252.594 198.03 252.436 198.417 252.119C198.809 251.803 199.099 251.384 199.287 250.862C199.48 250.335 199.577 249.761 199.577 249.14C199.577 248.507 199.48 247.927 199.287 247.399C199.099 246.872 198.809 246.45 198.417 246.134C198.03 245.817 197.532 245.659 196.923 245.659C196.325 245.659 195.83 245.817 195.437 246.134C195.05 246.45 194.76 246.872 194.567 247.399C194.374 247.927 194.277 248.507 194.277 249.14C194.277 249.761 194.374 250.335 194.567 250.862C194.76 251.384 195.05 251.803 195.437 252.119C195.83 252.436 196.325 252.594 196.923 252.594ZM203.286 254V244.174H205.123V245.747H205.229C205.41 245.22 205.727 244.804 206.178 244.499C206.635 244.188 207.15 244.033 207.725 244.033C207.842 244.033 207.982 244.039 208.146 244.051C208.311 244.057 208.439 244.065 208.533 244.077V245.905C208.457 245.882 208.319 245.858 208.12 245.835C207.927 245.812 207.73 245.8 207.531 245.8C207.08 245.8 206.676 245.896 206.318 246.09C205.967 246.277 205.688 246.538 205.483 246.872C205.284 247.2 205.185 247.581 205.185 248.015V254H203.286ZM218.36 257.885C217.581 257.885 216.91 257.782 216.347 257.577C215.791 257.378 215.334 257.108 214.976 256.769C214.625 256.429 214.364 256.06 214.194 255.661L215.829 254.984C215.94 255.172 216.092 255.371 216.286 255.582C216.485 255.793 216.752 255.972 217.086 256.118C217.42 256.265 217.85 256.338 218.378 256.338C219.104 256.338 219.705 256.162 220.179 255.811C220.654 255.465 220.891 254.908 220.891 254.141V252.216H220.751C220.645 252.421 220.484 252.652 220.267 252.91C220.051 253.162 219.755 253.382 219.38 253.569C219.005 253.757 218.515 253.851 217.912 253.851C217.138 253.851 216.441 253.669 215.82 253.306C215.205 252.937 214.716 252.397 214.352 251.688C213.989 250.974 213.807 250.095 213.807 249.052C213.807 248.009 213.986 247.115 214.343 246.371C214.701 245.621 215.19 245.047 215.811 244.648C216.438 244.25 217.147 244.051 217.938 244.051C218.542 244.051 219.031 244.153 219.406 244.358C219.787 244.558 220.083 244.792 220.294 245.062C220.505 245.331 220.669 245.568 220.786 245.773H220.926V244.174H222.781V254.22C222.781 255.063 222.585 255.755 222.192 256.294C221.805 256.833 221.278 257.231 220.61 257.489C219.942 257.753 219.192 257.885 218.36 257.885ZM218.342 252.26C219.163 252.26 219.793 251.976 220.232 251.407C220.677 250.833 220.9 250.039 220.9 249.025C220.9 248.363 220.803 247.783 220.61 247.285C220.417 246.781 220.13 246.389 219.749 246.107C219.368 245.82 218.899 245.677 218.342 245.677C217.762 245.677 217.279 245.826 216.892 246.125C216.511 246.418 216.224 246.819 216.031 247.329C215.838 247.833 215.741 248.398 215.741 249.025C215.741 249.664 215.838 250.229 216.031 250.722C216.23 251.208 216.523 251.586 216.91 251.855C217.297 252.125 217.774 252.26 218.342 252.26ZM225.005 254V244.174H226.842V245.747H226.947C227.129 245.22 227.445 244.804 227.897 244.499C228.354 244.188 228.869 244.033 229.443 244.033C229.561 244.033 229.701 244.039 229.865 244.051C230.029 244.057 230.158 244.065 230.252 244.077V245.905C230.176 245.882 230.038 245.858 229.839 245.835C229.646 245.812 229.449 245.8 229.25 245.8C228.799 245.8 228.395 245.896 228.037 246.09C227.686 246.277 227.407 246.538 227.202 246.872C227.003 247.2 226.903 247.581 226.903 248.015V254H225.005ZM235.341 254.202C234.421 254.202 233.619 253.991 232.933 253.569C232.247 253.147 231.714 252.556 231.333 251.794C230.958 251.032 230.771 250.147 230.771 249.14C230.771 248.12 230.958 247.229 231.333 246.468C231.714 245.7 232.247 245.105 232.933 244.684C233.619 244.262 234.421 244.051 235.341 244.051C236.267 244.051 237.073 244.262 237.758 244.684C238.444 245.105 238.977 245.7 239.358 246.468C239.739 247.229 239.929 248.12 239.929 249.14C239.929 250.147 239.739 251.032 239.358 251.794C238.977 252.556 238.444 253.147 237.758 253.569C237.073 253.991 236.267 254.202 235.341 254.202ZM235.341 252.594C235.951 252.594 236.449 252.436 236.835 252.119C237.228 251.803 237.518 251.384 237.706 250.862C237.899 250.335 237.996 249.761 237.996 249.14C237.996 248.507 237.899 247.927 237.706 247.399C237.518 246.872 237.228 246.45 236.835 246.134C236.449 245.817 235.951 245.659 235.341 245.659C234.744 245.659 234.248 245.817 233.856 246.134C233.469 246.45 233.179 246.872 232.986 247.399C232.792 247.927 232.696 248.507 232.696 249.14C232.696 249.761 232.792 250.335 232.986 250.862C233.179 251.384 233.469 251.803 233.856 252.119C234.248 252.436 234.744 252.594 235.341 252.594ZM247.928 249.939V244.174H249.826V254H247.963V252.295H247.857C247.629 252.816 247.265 253.253 246.767 253.604C246.275 253.956 245.66 254.129 244.922 254.123C244.289 254.123 243.732 253.985 243.252 253.71C242.771 253.435 242.393 253.021 242.118 252.471C241.843 251.92 241.705 251.237 241.705 250.423V244.174H243.603V250.203C243.603 250.865 243.791 251.396 244.166 251.794C244.541 252.192 245.024 252.389 245.616 252.383C245.973 252.383 246.328 252.295 246.679 252.119C247.037 251.943 247.333 251.674 247.567 251.311C247.807 250.947 247.928 250.49 247.928 249.939ZM252.05 257.674V244.174H253.904V245.773H254.063C254.174 245.568 254.332 245.331 254.537 245.062C254.748 244.792 255.041 244.558 255.416 244.358C255.791 244.153 256.283 244.051 256.893 244.051C257.684 244.051 258.387 244.25 259.002 244.648C259.623 245.047 260.112 245.624 260.47 246.38C260.827 247.136 261.006 248.047 261.006 249.113C261.006 250.168 260.83 251.076 260.479 251.838C260.127 252.594 259.641 253.177 259.02 253.587C258.399 253.991 257.69 254.193 256.893 254.193C256.301 254.193 255.818 254.094 255.443 253.895C255.068 253.689 254.772 253.452 254.555 253.183C254.338 252.913 254.174 252.676 254.063 252.471H253.948V257.674H252.05ZM256.48 252.567C257.048 252.567 257.523 252.415 257.903 252.11C258.29 251.806 258.58 251.393 258.774 250.871C258.967 250.344 259.064 249.752 259.064 249.096C259.064 248.445 258.967 247.862 258.774 247.347C258.58 246.831 258.293 246.424 257.912 246.125C257.537 245.826 257.06 245.677 256.48 245.677C255.923 245.677 255.454 245.82 255.073 246.107C254.698 246.389 254.411 246.787 254.212 247.303C254.019 247.812 253.922 248.41 253.922 249.096C253.922 249.781 254.019 250.385 254.212 250.906C254.411 251.428 254.701 251.835 255.082 252.128C255.469 252.421 255.935 252.567 256.48 252.567Z" fill="black"/>
<path d="M160.655 281.734H155.381V277.859H160.366V276.648H155.381V272.992H160.655V271.727H153.998V283H160.655V281.734ZM163.249 283H164.577V278.008C164.577 276.562 165.514 275.586 166.913 275.586C168.233 275.586 168.858 276.305 168.858 277.836V283H170.186V277.5C170.186 275.469 169.186 274.367 167.342 274.367C166.053 274.367 165.085 274.961 164.632 276.016H164.522V274.523H163.249V283ZM176.038 286.18C178.335 286.18 179.694 284.992 179.694 283V274.523H178.382V275.836H178.233C177.866 274.922 176.937 274.383 175.71 274.383C173.726 274.383 172.429 275.789 172.429 277.969V279.492C172.429 281.664 173.718 283.078 175.679 283.078C176.913 283.078 177.851 282.539 178.226 281.648H178.366V282.969C178.366 284.328 177.546 285.078 176.062 285.078C174.929 285.078 174.077 284.617 173.905 283.914H172.593C172.765 285.32 174.077 286.18 176.038 286.18ZM173.765 279.305V278.141C173.765 276.586 174.671 275.578 176.077 275.578C177.476 275.578 178.374 276.578 178.374 278.141V279.305C178.374 280.867 177.476 281.875 176.077 281.875C174.671 281.875 173.765 280.859 173.765 279.305ZM186.007 272.445C186.632 272.445 187.109 271.977 187.109 271.352C187.109 270.734 186.632 270.266 186.007 270.266C185.382 270.266 184.906 270.734 184.906 271.352C184.906 271.977 185.382 272.445 186.007 272.445ZM189.562 283V281.898H186.757V274.523H182.562V275.625H185.445V281.898H182.538V283H189.562ZM191.961 283H193.289V278.008C193.289 276.562 194.226 275.586 195.625 275.586C196.945 275.586 197.57 276.305 197.57 277.836V283H198.898V277.5C198.898 275.469 197.898 274.367 196.054 274.367C194.765 274.367 193.797 274.961 193.343 276.016H193.234V274.523H191.961V283ZM207.289 280.812C207.055 281.555 206.266 282.008 205.195 282.008C203.75 282.008 202.828 281.008 202.828 279.453V279.109H208.602V278.281C208.602 275.828 207.305 274.367 205.102 274.367C202.945 274.367 201.516 275.836 201.516 278.07V279.344C201.516 281.758 202.867 283.156 205.195 283.156C206.977 283.156 208.32 282.211 208.578 280.812H207.289ZM205.094 275.508C206.461 275.508 207.289 276.484 207.289 278.102H202.828C202.828 276.477 203.68 275.508 205.094 275.508ZM216.86 280.812C216.625 281.555 215.836 282.008 214.766 282.008C213.321 282.008 212.399 281.008 212.399 279.453V279.109H218.172V278.281C218.172 275.828 216.875 274.367 214.672 274.367C212.516 274.367 211.086 275.836 211.086 278.07V279.344C211.086 281.758 212.438 283.156 214.766 283.156C216.547 283.156 217.891 282.211 218.149 280.812H216.86ZM214.664 275.508C216.032 275.508 216.86 276.484 216.86 278.102H212.399C212.399 276.477 213.25 275.508 214.664 275.508ZM223.805 279.203C223.805 277.047 224.915 275.75 226.79 275.75C227.251 275.75 227.798 275.844 228.188 275.984V274.492C227.907 274.375 227.446 274.305 226.962 274.305C225.329 274.305 224.274 275.117 223.962 276.688H223.79V274.523H220.626V275.586H222.508V281.938H220.798V283H226.43V281.938H223.805V279.203ZM233.86 272.445C234.485 272.445 234.962 271.977 234.962 271.352C234.962 270.734 234.485 270.266 233.86 270.266C233.235 270.266 232.759 270.734 232.759 271.352C232.759 271.977 233.235 272.445 233.86 272.445ZM237.415 283V281.898H234.61V274.523H230.415V275.625H233.298V281.898H230.392V283H237.415ZM239.814 283H241.142V278.008C241.142 276.562 242.079 275.586 243.478 275.586C244.798 275.586 245.423 276.305 245.423 277.836V283H246.751V277.5C246.751 275.469 245.751 274.367 243.908 274.367C242.618 274.367 241.65 274.961 241.197 276.016H241.087V274.523H239.814V283ZM252.603 286.18C254.9 286.18 256.259 284.992 256.259 283V274.523H254.947V275.836H254.798C254.431 274.922 253.502 274.383 252.275 274.383C250.291 274.383 248.994 275.789 248.994 277.969V279.492C248.994 281.664 250.283 283.078 252.244 283.078C253.478 283.078 254.416 282.539 254.791 281.648H254.931V282.969C254.931 284.328 254.111 285.078 252.627 285.078C251.494 285.078 250.642 284.617 250.47 283.914H249.158C249.33 285.32 250.642 286.18 252.603 286.18ZM250.33 279.305V278.141C250.33 276.586 251.236 275.578 252.642 275.578C254.041 275.578 254.939 276.578 254.939 278.141V279.305C254.939 280.867 254.041 281.875 252.642 281.875C251.236 281.875 250.33 280.859 250.33 279.305Z" fill="#656F81"/>
<path d="M392.499 283.148C393.734 283.148 394.656 282.641 395.062 281.734H395.195V283.008H396.46V277.203C396.46 275.438 395.32 274.422 393.327 274.422C391.593 274.422 390.281 275.352 390.124 276.711H391.429C391.648 275.984 392.335 275.57 393.312 275.57C394.492 275.57 395.14 276.156 395.14 277.219V277.984L392.812 278.102C390.882 278.203 389.804 279.094 389.804 280.594C389.804 282.133 390.882 283.148 392.499 283.148ZM392.882 281.984C391.812 281.984 391.148 281.438 391.148 280.547C391.148 279.664 391.773 279.156 392.96 279.102L395.14 279V280C395.14 281.133 394.163 281.984 392.882 281.984ZM402.398 283.141C403.609 283.141 404.5 282.641 404.937 281.703H405.086V283H406.39V271.195H405.039V275.836H404.898C404.531 274.906 403.625 274.383 402.398 274.383C400.437 274.383 399.156 275.797 399.156 277.969V279.547C399.156 281.727 400.437 283.141 402.398 283.141ZM402.789 281.93C401.39 281.93 400.492 280.922 400.492 279.359V278.141C400.492 276.578 401.39 275.578 402.789 275.578C404.179 275.578 405.078 276.578 405.078 278.141V279.359C405.078 280.93 404.179 281.93 402.789 281.93ZM416.586 276.758C416.586 275.188 415.969 274.367 414.789 274.367C413.938 274.367 413.258 274.883 413.039 275.695H412.898C412.719 274.859 412.156 274.367 411.359 274.367C410.562 274.367 409.953 274.867 409.742 275.719H409.602V274.523H408.414V283H409.609V277.281C409.609 276.227 410.078 275.578 410.828 275.578C411.547 275.578 411.922 276.117 411.922 277.141V283H413.109V277.281C413.109 276.227 413.562 275.578 414.305 275.578C415.016 275.578 415.391 276.117 415.391 277.148V283H416.586V276.758ZM422.219 272.445C422.844 272.445 423.321 271.977 423.321 271.352C423.321 270.734 422.844 270.266 422.219 270.266C421.594 270.266 421.118 270.734 421.118 271.352C421.118 271.977 421.594 272.445 422.219 272.445ZM425.774 283V281.898H422.969V274.523H418.774V275.625H421.657V281.898H418.75V283H425.774ZM428.173 283H429.501V278.008C429.501 276.562 430.438 275.586 431.837 275.586C433.157 275.586 433.782 276.305 433.782 277.836V283H435.11V277.5C435.11 275.469 434.11 274.367 432.266 274.367C430.977 274.367 430.008 274.961 429.555 276.016H429.446V274.523H428.173V283Z" fill="#656F81"/>
<path d="M563.616 283.141C564.827 283.141 565.717 282.641 566.155 281.703H566.303V283H567.608V271.195H566.256V275.836H566.116C565.748 274.906 564.842 274.383 563.616 274.383C561.655 274.383 560.373 275.797 560.373 277.969V279.547C560.373 281.727 561.655 283.141 563.616 283.141ZM564.006 281.93C562.608 281.93 561.709 280.922 561.709 279.359V278.141C561.709 276.578 562.608 275.578 564.006 275.578C565.397 275.578 566.295 276.578 566.295 278.141V279.359C566.295 280.93 565.397 281.93 564.006 281.93ZM576.007 280.812C575.772 281.555 574.983 282.008 573.913 282.008C572.467 282.008 571.546 281.008 571.546 279.453V279.109H577.319V278.281C577.319 275.828 576.022 274.367 573.819 274.367C571.663 274.367 570.233 275.836 570.233 278.07V279.344C570.233 281.758 571.585 283.156 573.913 283.156C575.694 283.156 577.038 282.211 577.296 280.812H576.007ZM573.811 275.508C575.178 275.508 576.007 276.484 576.007 278.102H571.546C571.546 276.477 572.397 275.508 573.811 275.508ZM579.46 274.523L582.562 283H584.022L587.116 274.523H585.702L583.351 281.578H583.249L580.882 274.523H579.46ZM596.992 278.617V277.383H588.726V278.617H596.992ZM605.961 277.164C605.742 275.422 604.461 274.359 602.586 274.359C600.281 274.359 598.937 275.773 598.937 278.203V279.312C598.937 281.742 600.281 283.156 602.586 283.156C604.461 283.156 605.75 282.102 605.961 280.375H604.648C604.484 281.344 603.656 281.961 602.562 281.961C601.086 281.961 600.265 280.961 600.265 279.141V278.375C600.265 276.555 601.086 275.547 602.562 275.547C603.656 275.547 604.484 276.172 604.648 277.164H605.961ZM615.703 283V281.898H612.906V271.195H608.703V272.297H611.578V281.898H608.68V283H615.703ZM625.039 274.523H623.711V279.516C623.711 280.961 622.774 281.938 621.375 281.938C620.055 281.938 619.43 281.219 619.43 279.688V274.523H618.102V280.023C618.102 282.055 619.102 283.156 620.946 283.156C622.235 283.156 623.203 282.562 623.657 281.508H623.766V283H625.039V274.523ZM628.055 276.812C628.055 278.016 628.813 278.789 630.344 279.141L631.602 279.43C632.68 279.672 633.094 280.031 633.094 280.703C633.094 281.516 632.36 282.039 631.204 282.039C630.11 282.039 629.36 281.586 629.165 280.805H627.813C627.962 282.258 629.235 283.156 631.157 283.156C633.165 283.156 634.469 282.141 634.469 280.578C634.469 279.352 633.719 278.633 632.071 278.258L630.876 277.984C629.813 277.75 629.376 277.383 629.376 276.734C629.376 275.961 630.071 275.461 631.149 275.461C632.141 275.461 632.852 275.914 633.008 276.656H634.29C634.133 275.242 632.938 274.359 631.173 274.359C629.305 274.359 628.055 275.344 628.055 276.812ZM639.267 272.25V274.547H637.009V275.68H639.267V280.477C639.267 282.242 640.243 283.039 642.345 283.039C642.751 283.039 643.782 283 643.993 282.961V281.836C643.767 281.859 642.915 281.883 642.438 281.883C641.243 281.883 640.595 281.383 640.595 280.461V275.68H644.017V274.547H640.579V272.25H639.267ZM652.572 280.812C652.337 281.555 651.548 282.008 650.478 282.008C649.033 282.008 648.111 281.008 648.111 279.453V279.109H653.884V278.281C653.884 275.828 652.587 274.367 650.384 274.367C648.228 274.367 646.798 275.836 646.798 278.07V279.344C646.798 281.758 648.15 283.156 650.478 283.156C652.259 283.156 653.603 282.211 653.861 280.812H652.572ZM650.376 275.508C651.743 275.508 652.572 276.484 652.572 278.102H648.111C648.111 276.477 648.962 275.508 650.376 275.508ZM659.517 279.203C659.517 277.047 660.627 275.75 662.502 275.75C662.963 275.75 663.509 275.844 663.9 275.984V274.492C663.619 274.375 663.158 274.305 662.673 274.305C661.041 274.305 659.986 275.117 659.673 276.688H659.502V274.523H656.338V275.586H658.22V281.938H656.509V283H662.142V281.938H659.517V279.203Z" fill="#656F81"/>
<path d="M394.778 254V240.904H399.454C400.468 240.904 401.309 241.08 401.977 241.432C402.644 241.777 403.145 242.261 403.479 242.882C403.813 243.497 403.98 244.209 403.98 245.018C403.98 245.814 403.813 246.518 403.479 247.127C403.145 247.736 402.642 248.208 401.968 248.542C401.3 248.876 400.459 249.043 399.445 249.043H395.912V247.355H399.252C399.902 247.355 400.427 247.262 400.825 247.074C401.229 246.887 401.525 246.62 401.713 246.274C401.9 245.929 401.994 245.51 401.994 245.018C401.994 244.52 401.897 244.092 401.704 243.734C401.517 243.371 401.221 243.093 400.816 242.899C400.418 242.7 399.894 242.601 399.243 242.601H396.756V254H394.778ZM402.231 254L399.059 248.085H401.247L404.481 254H402.231ZM409.896 254.202C408.976 254.202 408.173 253.991 407.488 253.569C406.802 253.147 406.269 252.556 405.888 251.794C405.513 251.032 405.326 250.147 405.326 249.14C405.326 248.12 405.513 247.229 405.888 246.468C406.269 245.7 406.802 245.105 407.488 244.684C408.173 244.262 408.976 244.051 409.896 244.051C410.822 244.051 411.627 244.262 412.313 244.684C412.998 245.105 413.532 245.7 413.912 246.468C414.293 247.229 414.484 248.12 414.484 249.14C414.484 250.147 414.293 251.032 413.912 251.794C413.532 252.556 412.998 253.147 412.313 253.569C411.627 253.991 410.822 254.202 409.896 254.202ZM409.896 252.594C410.505 252.594 411.003 252.436 411.39 252.119C411.783 251.803 412.073 251.384 412.26 250.862C412.453 250.335 412.55 249.761 412.55 249.14C412.55 248.507 412.453 247.927 412.26 247.399C412.073 246.872 411.783 246.45 411.39 246.134C411.003 245.817 410.505 245.659 409.896 245.659C409.298 245.659 408.803 245.817 408.41 246.134C408.024 246.45 407.734 246.872 407.54 247.399C407.347 247.927 407.25 248.507 407.25 249.14C407.25 249.761 407.347 250.335 407.54 250.862C407.734 251.384 408.024 251.803 408.41 252.119C408.803 252.436 409.298 252.594 409.896 252.594ZM418.158 240.904V254H416.259V240.904H418.158ZM424.627 254.202C423.666 254.202 422.834 253.994 422.131 253.578C421.428 253.162 420.889 252.576 420.514 251.82C420.139 251.059 419.951 250.171 419.951 249.157C419.951 248.149 420.136 247.262 420.505 246.494C420.88 245.727 421.404 245.129 422.078 244.701C422.752 244.268 423.546 244.051 424.46 244.051C425.017 244.051 425.556 244.142 426.077 244.323C426.599 244.505 427.067 244.792 427.483 245.185C427.899 245.577 428.228 246.087 428.468 246.714C428.714 247.341 428.837 248.097 428.837 248.981V249.667H421.023V248.234H427.853L426.965 248.709C426.965 248.105 426.871 247.572 426.684 247.109C426.496 246.646 426.218 246.286 425.849 246.028C425.48 245.765 425.02 245.633 424.469 245.633C423.918 245.633 423.446 245.765 423.054 246.028C422.661 246.292 422.362 246.641 422.157 247.074C421.952 247.508 421.85 247.982 421.85 248.498V249.474C421.85 250.147 421.967 250.719 422.201 251.188C422.436 251.656 422.761 252.014 423.177 252.26C423.599 252.506 424.088 252.629 424.645 252.629C425.008 252.629 425.336 252.576 425.629 252.471C425.928 252.365 426.186 252.207 426.402 251.996C426.619 251.785 426.783 251.524 426.895 251.214L428.705 251.557C428.559 252.084 428.301 252.547 427.932 252.945C427.563 253.344 427.097 253.654 426.534 253.877C425.978 254.094 425.342 254.202 424.627 254.202Z" fill="black"/>
<path d="M575.322 254V240.904H579.998C581.011 240.904 581.852 241.08 582.52 241.432C583.188 241.777 583.689 242.261 584.023 242.882C584.357 243.497 584.524 244.209 584.524 245.018C584.524 245.814 584.357 246.518 584.023 247.127C583.689 247.736 583.185 248.208 582.511 248.542C581.843 248.876 581.002 249.043 579.989 249.043H576.456V247.355H579.795C580.446 247.355 580.97 247.262 581.369 247.074C581.773 246.887 582.069 246.62 582.256 246.274C582.444 245.929 582.538 245.51 582.538 245.018C582.538 244.52 582.441 244.092 582.248 243.734C582.06 243.371 581.764 243.093 581.36 242.899C580.961 242.7 580.437 242.601 579.787 242.601H577.299V254H575.322ZM582.775 254L579.602 248.085H581.791L585.025 254H582.775ZM590.545 254.202C589.584 254.202 588.752 253.994 588.049 253.578C587.346 253.162 586.806 252.576 586.431 251.82C586.056 251.059 585.869 250.171 585.869 249.157C585.869 248.149 586.054 247.262 586.423 246.494C586.798 245.727 587.322 245.129 587.996 244.701C588.67 244.268 589.464 244.051 590.378 244.051C590.934 244.051 591.473 244.142 591.995 244.323C592.516 244.505 592.985 244.792 593.401 245.185C593.817 245.577 594.145 246.087 594.386 246.714C594.632 247.341 594.755 248.097 594.755 248.981V249.667H586.941V248.234H593.77L592.883 248.709C592.883 248.105 592.789 247.572 592.601 247.109C592.414 246.646 592.136 246.286 591.766 246.028C591.397 245.765 590.937 245.633 590.387 245.633C589.836 245.633 589.364 245.765 588.972 246.028C588.579 246.292 588.28 246.641 588.075 247.074C587.87 247.508 587.767 247.982 587.767 248.498V249.474C587.767 250.147 587.885 250.719 588.119 251.188C588.353 251.656 588.679 252.014 589.095 252.26C589.516 252.506 590.006 252.629 590.562 252.629C590.926 252.629 591.254 252.576 591.547 252.471C591.846 252.365 592.103 252.207 592.32 251.996C592.537 251.785 592.701 251.524 592.812 251.214L594.623 251.557C594.476 252.084 594.219 252.547 593.849 252.945C593.48 253.344 593.014 253.654 592.452 253.877C591.895 254.094 591.26 254.202 590.545 254.202ZM603.852 246.582L602.12 246.881C602.015 246.553 601.81 246.251 601.505 245.976C601.2 245.7 600.749 245.562 600.152 245.562C599.612 245.562 599.161 245.686 598.798 245.932C598.441 246.172 598.262 246.479 598.262 246.854C598.262 247.183 598.382 247.449 598.622 247.654C598.868 247.859 599.261 248.023 599.8 248.146L601.364 248.498C602.261 248.703 602.932 249.025 603.377 249.465C603.822 249.904 604.045 250.467 604.045 251.152C604.045 251.744 603.875 252.271 603.535 252.734C603.196 253.191 602.724 253.552 602.12 253.815C601.517 254.073 600.82 254.202 600.029 254.202C599.296 254.202 598.652 254.097 598.095 253.886C597.544 253.675 597.093 253.367 596.741 252.963C596.396 252.553 596.17 252.061 596.065 251.486L597.902 251.205C598.019 251.686 598.256 252.049 598.613 252.295C598.977 252.541 599.446 252.664 600.02 252.664C600.647 252.664 601.148 252.532 601.523 252.269C601.898 252.005 602.085 251.686 602.085 251.311C602.085 250.994 601.971 250.733 601.742 250.528C601.514 250.323 601.165 250.165 600.696 250.054L599.044 249.685C598.118 249.474 597.436 249.143 596.996 248.691C596.563 248.234 596.346 247.66 596.346 246.969C596.346 246.389 596.507 245.879 596.829 245.439C597.157 245 597.606 244.66 598.174 244.42C598.748 244.174 599.402 244.051 600.134 244.051C600.843 244.051 601.449 244.156 601.953 244.367C602.463 244.578 602.873 244.874 603.184 245.255C603.5 245.63 603.723 246.072 603.852 246.582ZM609.917 254.202C608.997 254.202 608.194 253.991 607.508 253.569C606.823 253.147 606.29 252.556 605.909 251.794C605.534 251.032 605.346 250.147 605.346 249.14C605.346 248.12 605.534 247.229 605.909 246.468C606.29 245.7 606.823 245.105 607.508 244.684C608.194 244.262 608.997 244.051 609.917 244.051C610.842 244.051 611.648 244.262 612.334 244.684C613.019 245.105 613.552 245.7 613.933 246.468C614.314 247.229 614.504 248.12 614.504 249.14C614.504 250.147 614.314 251.032 613.933 251.794C613.552 252.556 613.019 253.147 612.334 253.569C611.648 253.991 610.842 254.202 609.917 254.202ZM609.917 252.594C610.526 252.594 611.024 252.436 611.411 252.119C611.803 251.803 612.093 251.384 612.281 250.862C612.474 250.335 612.571 249.761 612.571 249.14C612.571 248.507 612.474 247.927 612.281 247.399C612.093 246.872 611.803 246.45 611.411 246.134C611.024 245.817 610.526 245.659 609.917 245.659C609.319 245.659 608.824 245.817 608.431 246.134C608.044 246.45 607.754 246.872 607.561 247.399C607.368 247.927 607.271 248.507 607.271 249.14C607.271 249.761 607.368 250.335 607.561 250.862C607.754 251.384 608.044 251.803 608.431 252.119C608.824 252.436 609.319 252.594 609.917 252.594ZM622.503 249.939V244.174H624.401V254H622.538V252.295H622.433C622.204 252.816 621.841 253.253 621.343 253.604C620.851 253.956 620.235 254.129 619.497 254.123C618.864 254.123 618.308 253.985 617.827 253.71C617.347 253.435 616.969 253.021 616.693 252.471C616.418 251.92 616.28 251.237 616.28 250.423V244.174H618.179V250.203C618.179 250.865 618.366 251.396 618.741 251.794C619.116 252.192 619.6 252.389 620.191 252.383C620.549 252.383 620.903 252.295 621.255 252.119C621.612 251.943 621.908 251.674 622.142 251.311C622.383 250.947 622.503 250.49 622.503 249.939ZM626.625 254V244.174H628.462V245.747H628.568C628.749 245.22 629.066 244.804 629.517 244.499C629.974 244.188 630.49 244.033 631.064 244.033C631.181 244.033 631.322 244.039 631.486 244.051C631.65 244.057 631.779 244.065 631.872 244.077V245.905C631.796 245.882 631.658 245.858 631.459 245.835C631.266 245.812 631.07 245.8 630.87 245.8C630.419 245.8 630.015 245.896 629.657 246.09C629.306 246.277 629.028 246.538 628.823 246.872C628.623 247.2 628.524 247.581 628.524 248.015V254H626.625ZM636.962 254.202C636.018 254.202 635.204 253.985 634.518 253.552C633.833 253.118 633.305 252.521 632.936 251.759C632.573 250.997 632.391 250.124 632.391 249.14C632.391 248.138 632.579 247.256 632.954 246.494C633.329 245.727 633.856 245.129 634.536 244.701C635.221 244.268 636.024 244.051 636.944 244.051C637.694 244.051 638.359 244.188 638.939 244.464C639.525 244.733 639.997 245.117 640.354 245.615C640.717 246.113 640.934 246.693 641.005 247.355H639.141C639.071 247.045 638.942 246.761 638.755 246.503C638.573 246.245 638.333 246.04 638.034 245.888C637.735 245.735 637.381 245.659 636.97 245.659C636.443 245.659 635.98 245.8 635.582 246.081C635.183 246.356 634.873 246.752 634.65 247.268C634.427 247.783 634.316 248.393 634.316 249.096C634.316 249.805 634.424 250.423 634.641 250.95C634.858 251.478 635.166 251.885 635.564 252.172C635.968 252.453 636.437 252.594 636.97 252.594C637.521 252.594 637.99 252.441 638.377 252.137C638.769 251.832 639.024 251.416 639.141 250.889H641.005C640.934 251.527 640.726 252.096 640.381 252.594C640.035 253.092 639.572 253.484 638.992 253.771C638.412 254.059 637.735 254.202 636.962 254.202ZM646.973 254.202C646.012 254.202 645.18 253.994 644.477 253.578C643.773 253.162 643.234 252.576 642.859 251.82C642.484 251.059 642.297 250.171 642.297 249.157C642.297 248.149 642.481 247.262 642.851 246.494C643.226 245.727 643.75 245.129 644.424 244.701C645.098 244.268 645.892 244.051 646.806 244.051C647.362 244.051 647.901 244.142 648.423 244.323C648.944 244.505 649.413 244.792 649.829 245.185C650.245 245.577 650.573 246.087 650.813 246.714C651.06 247.341 651.183 248.097 651.183 248.981V249.667H643.369V248.234H650.198L649.311 248.709C649.311 248.105 649.217 247.572 649.029 247.109C648.842 246.646 648.563 246.286 648.194 246.028C647.825 245.765 647.365 245.633 646.814 245.633C646.264 245.633 645.792 245.765 645.399 246.028C645.007 246.292 644.708 246.641 644.503 247.074C644.298 247.508 644.195 247.982 644.195 248.498V249.474C644.195 250.147 644.312 250.719 644.547 251.188C644.781 251.656 645.106 252.014 645.522 252.26C645.944 252.506 646.434 252.629 646.99 252.629C647.354 252.629 647.682 252.576 647.975 252.471C648.273 252.365 648.531 252.207 648.748 251.996C648.965 251.785 649.129 251.524 649.24 251.214L651.051 251.557C650.904 252.084 650.646 252.547 650.277 252.945C649.908 253.344 649.442 253.654 648.88 253.877C648.323 254.094 647.688 254.202 646.973 254.202Z" fill="black"/>
<path d="M213.04 196.32C215.183 196.939 217.404 197.252 219.636 197.25C223.225 197.255 226.767 196.441 229.991 194.87C230.086 192.629 229.445 190.419 228.163 188.573C226.882 186.728 225.032 185.348 222.892 184.644C220.751 183.939 218.439 183.948 216.304 184.668C214.17 185.389 212.329 186.783 211.062 188.637M213.04 196.32V196.312C213.04 193.53 212.324 190.912 211.065 188.637M213.04 196.32V196.585C208.204 199.483 202.664 201.009 197.019 201C191.161 201 185.681 199.387 181.003 196.585L181 196.312C180.998 192.774 182.18 189.335 184.359 186.538C186.539 183.741 189.592 181.746 193.037 180.866C196.482 179.987 200.124 180.273 203.388 181.68C206.651 183.087 209.351 185.535 211.062 188.637M205.502 164.437C205.502 166.675 204.608 168.821 203.018 170.404C201.427 171.986 199.27 172.875 197.021 172.875C194.772 172.875 192.615 171.986 191.025 170.404C189.434 168.821 188.541 166.675 188.541 164.437C188.541 162.2 189.434 160.054 191.025 158.471C192.615 156.889 194.772 156 197.021 156C199.27 156 201.427 156.889 203.018 158.471C204.608 160.054 205.502 162.2 205.502 164.437V164.437ZM226.232 170.062C226.232 171.803 225.537 173.472 224.3 174.703C223.063 175.934 221.385 176.625 219.636 176.625C217.886 176.625 216.209 175.934 214.972 174.703C213.735 173.472 213.04 171.803 213.04 170.062C213.04 168.322 213.735 166.653 214.972 165.422C216.209 164.191 217.886 163.5 219.636 163.5C221.385 163.5 223.063 164.191 224.3 165.422C225.537 166.653 226.232 168.322 226.232 170.062V170.062Z" stroke="#015DF5" stroke-width="3" stroke-linecap="round" stroke-linejoin="round"/>
<path d="M404.667 178.083C407.107 180.524 410.917 184.333 410.917 184.333L416.125 177.042L421.333 169.75M438 176C438 179.283 437.353 182.534 436.097 185.567C434.841 188.6 432.999 191.356 430.678 193.678C428.356 195.999 425.6 197.841 422.567 199.097C419.534 200.353 416.283 201 413 201C409.717 201 406.466 200.353 403.433 199.097C400.4 197.841 397.644 195.999 395.322 193.678C393.001 191.356 391.159 188.6 389.903 185.567C388.647 182.534 388 179.283 388 176C388 169.37 390.634 163.011 395.322 158.322C400.011 153.634 406.37 151 413 151C419.63 151 425.989 153.634 430.678 158.322C435.366 163.011 438 169.37 438 176Z" stroke="#015DF5" stroke-width="3" stroke-linecap="round" stroke-linejoin="round"/>
<path d="M641 192.273V191.609C640.999 190.601 640.882 189.595 640.649 188.613L634.02 160.569C633.51 158.415 632.285 156.496 630.542 155.122C628.799 153.748 626.641 153 624.417 153H600.583C598.359 153 596.201 153.748 594.458 155.122C592.715 156.496 591.49 158.415 590.98 160.569L584.351 188.613C584.118 189.595 584.001 190.601 584 191.609V192.273M641 192.273C641 194.587 640.076 196.807 638.432 198.444C636.787 200.081 634.557 201 632.231 201H592.769C590.443 201 588.213 200.081 586.568 198.444C584.924 196.807 584 194.587 584 192.273M641 192.273C641 189.958 640.076 187.738 638.432 186.102C636.787 184.465 634.557 183.545 632.231 183.545H592.769C590.443 183.545 588.213 184.465 586.568 186.102C584.924 187.738 584 189.958 584 192.273M632.231 192.273H632.254V192.296H632.231V192.273ZM623.462 192.273H623.485V192.296H623.462V192.273Z" stroke="#015DF5" stroke-width="3" stroke-linecap="round" stroke-linejoin="round"/>
<line x1="266" y1="173.5" x2="363" y2="173.5" stroke="#015DF5" stroke-width="3"/>
<line x1="462" y1="173.5" x2="560" y2="173.5" stroke="#015DF5" stroke-width="3"/>
</svg>
