<svg width="838" height="240" viewBox="0 0 838 240" fill="none" xmlns="http://www.w3.org/2000/svg">
<rect width="838" height="240" fill="white"/>
<path d="M410.951 106.45C409.447 106.45 408.199 107.698 408.199 109.17C408.199 110.674 409.447 111.922 410.951 111.922C412.455 111.922 413.703 110.674 413.703 109.17C413.703 107.698 412.455 106.45 410.951 106.45ZM408.711 114.066V129.778H413.223V114.066H408.711Z" fill="#0B0B09"/>
<path d="M424.27 113.746C422.51 113.746 420.846 114.578 419.982 115.922V114.066H415.47V129.778H419.982V120.018C420.622 118.93 421.87 118.226 423.118 118.226C424.974 118.226 426.158 119.474 426.158 121.65V129.778H430.67V120.882C430.67 116.466 428.238 113.746 424.27 113.746Z" fill="#0B0B09"/>
<path d="M438.372 113.138C438.372 111.698 439.492 110.738 440.804 110.738C441.252 110.738 441.892 110.866 442.212 110.962L442.436 106.994C441.86 106.706 440.964 106.514 440.132 106.514C436.452 106.514 433.86 108.85 433.86 112.914V114.066H430.948V118.354H433.86V129.778H438.372V118.354H442.244V114.066H438.372V113.138Z" fill="#0B0B09"/>
<path d="M451.9 113.746C450.588 113.746 448.892 114.578 448.124 115.922V114.066H443.612V129.778H448.124V120.274C448.892 118.738 450.524 117.906 451.548 117.906C452.188 117.906 452.956 118.034 453.564 118.258L453.82 114.034C453.34 113.842 452.7 113.746 451.9 113.746Z" fill="#0B0B09"/>
<path d="M465.167 114.066V115.922C464.399 114.642 462.479 113.746 460.527 113.746C456.431 113.746 453.199 117.362 453.199 121.906C453.199 126.45 456.431 130.098 460.527 130.098C462.511 130.098 464.399 129.202 465.167 127.922V129.778H469.679V114.066H465.167ZM461.519 125.81C459.311 125.81 457.615 124.146 457.615 121.906C457.615 119.666 459.311 118.002 461.519 118.002C463.087 118.002 464.495 118.866 465.167 120.018V123.858C464.495 124.978 463.087 125.81 461.519 125.81Z" fill="#0B0B09"/>
<path fill-rule="evenodd" clip-rule="evenodd" d="M384.999 104C393.836 104 401 111.163 401 120C401 128.837 393.836 136 384.999 136C376.164 136 369 128.837 369 120C369 111.163 376.164 104 384.999 104ZM385.826 126.717C385.511 126.248 384.909 126.053 384.414 126.339C383.918 126.62 383.741 127.262 384.036 127.75C384.321 128.222 384.518 128.509 384.705 128.777L384.826 128.948C384.866 129.006 384.906 129.064 384.948 129.124C385.268 129.586 385.837 129.825 386.343 129.56C386.359 129.552 386.375 129.543 386.391 129.533C386.86 129.256 387.035 128.654 386.779 128.166C386.4 127.445 386.314 127.445 385.826 126.717ZM384.54 110.718C384.021 110.717 383.5 110.759 382.991 110.847C382.473 110.934 381.962 111.07 381.471 111.251C380.966 111.434 380.477 111.665 380.017 111.938C379.971 111.965 379.925 111.992 379.879 112.021C379.835 112.05 379.79 112.078 379.744 112.107L379.611 112.194C379.566 112.222 379.522 112.253 379.481 112.283C379.436 112.315 379.393 112.345 379.351 112.375C379.308 112.407 379.263 112.438 379.222 112.47C379.178 112.502 379.135 112.535 379.095 112.565C379.052 112.599 379.011 112.632 378.968 112.667C378.503 113.041 378.075 113.463 377.699 113.92C377.329 114.368 377.004 114.853 376.731 115.363C376.463 115.863 376.242 116.393 376.074 116.939C375.909 117.476 375.793 118.035 375.733 118.595C375.671 119.159 375.663 119.727 375.71 120.288C375.756 120.856 375.858 121.42 376.013 121.967C376.171 122.523 376.385 123.065 376.648 123.579C376.918 124.106 377.243 124.609 377.615 125.071C377.626 125.084 377.673 125.146 377.754 125.254C377.849 125.379 377.984 125.563 378.154 125.799C378.327 126.039 378.533 126.333 378.765 126.678C379.024 127.061 378.979 126.943 379.236 127.35C379.541 127.831 379.601 127.918 379.893 128.413C380.184 128.905 380.815 129.068 381.309 128.779C381.309 128.779 381.309 128.779 381.31 128.778C381.801 128.487 381.964 127.856 381.674 127.366C381.372 126.85 381.299 126.744 380.982 126.244C380.714 125.82 380.747 125.92 380.477 125.522C380.231 125.158 380.015 124.849 379.835 124.597C379.654 124.343 379.508 124.146 379.406 124.011C379.295 123.863 379.232 123.786 379.228 123.779C378.943 123.424 378.692 123.04 378.486 122.635C378.284 122.243 378.121 121.829 378.002 121.404C377.883 120.987 377.805 120.553 377.77 120.119C377.734 119.687 377.74 119.251 377.786 118.819C377.834 118.389 377.921 117.96 378.049 117.545C378.176 117.127 378.346 116.721 378.552 116.339C378.762 115.948 379.009 115.579 379.292 115.236C379.581 114.885 379.908 114.563 380.265 114.276C380.295 114.25 380.326 114.225 380.361 114.198C380.393 114.173 380.425 114.149 380.458 114.125C380.49 114.1 380.523 114.076 380.558 114.052C380.591 114.028 380.623 114.004 380.66 113.979C380.693 113.957 380.726 113.935 380.758 113.912L381.069 113.717C381.421 113.508 381.794 113.332 382.178 113.192C382.554 113.054 382.945 112.951 383.341 112.883C383.73 112.816 384.13 112.783 384.528 112.784C384.924 112.787 385.322 112.824 385.712 112.894C386.103 112.964 386.488 113.068 386.859 113.205C387.234 113.341 387.597 113.511 387.938 113.709C388.286 113.912 388.616 114.146 388.921 114.404C389.233 114.671 389.521 114.966 389.778 115.285C389.803 115.314 389.879 115.412 390.005 115.572C390.354 116.025 391.004 116.105 391.455 115.758C391.906 115.409 391.988 114.76 391.639 114.309C391.499 114.128 391.412 114.019 391.385 113.985C391.049 113.57 390.669 113.181 390.262 112.833C389.863 112.494 389.432 112.188 388.978 111.923C388.53 111.664 388.056 111.442 387.569 111.264C387.086 111.088 386.585 110.951 386.079 110.859C385.573 110.769 385.054 110.721 384.54 110.718ZM385.333 118.92C384.992 118.463 384.343 118.369 383.887 118.712C383.43 119.054 383.338 119.702 383.681 120.159C384.295 120.981 384.903 121.838 385.484 122.706C386.01 123.496 386.529 124.312 387.023 125.134C387.478 125.89 388.292 127.349 388.699 128.095C388.972 128.596 389.6 128.782 390.1 128.509C390.111 128.502 390.122 128.496 390.133 128.49C390.609 128.207 390.781 127.598 390.512 127.106C390.085 126.322 389.27 124.861 388.794 124.069C388.283 123.22 387.746 122.374 387.201 121.557C386.599 120.657 385.971 119.77 385.333 118.92ZM385.037 114.637C384.722 114.605 384.404 114.602 384.092 114.629C383.775 114.656 383.459 114.713 383.155 114.802C382.844 114.891 382.541 115.012 382.253 115.159C381.958 115.312 381.677 115.496 381.417 115.705C381.157 115.913 380.919 116.149 380.708 116.405C380.501 116.656 380.319 116.927 380.165 117.213C380.016 117.492 379.894 117.789 379.8 118.092C379.706 118.393 379.643 118.704 379.608 119.018C379.575 119.333 379.572 119.65 379.599 119.964C379.624 120.28 379.683 120.597 379.768 120.902C379.857 121.213 379.978 121.518 380.125 121.805C380.278 122.1 380.46 122.381 380.668 122.64C380.674 122.647 380.735 122.724 380.841 122.863C380.955 123.014 381.119 123.233 381.322 123.517C381.56 123.847 381.806 124.203 382.052 124.568C382.371 125.04 383.015 125.167 383.486 124.847C383.959 124.528 384.085 123.887 383.766 123.412C383.507 123.03 383.25 122.659 383.001 122.313C382.783 122.01 382.609 121.775 382.487 121.614C382.36 121.446 382.287 121.357 382.28 121.348C382.158 121.196 382.05 121.03 381.963 120.859C381.877 120.692 381.807 120.516 381.757 120.335C381.706 120.159 381.673 119.975 381.657 119.791C381.642 119.609 381.644 119.421 381.663 119.241C381.684 119.056 381.72 118.876 381.774 118.699C381.828 118.522 381.901 118.35 381.987 118.188C382.076 118.023 382.18 117.866 382.301 117.722C382.423 117.573 382.563 117.435 382.714 117.314C382.866 117.19 383.031 117.084 383.202 116.995C383.369 116.909 383.543 116.84 383.724 116.787C383.9 116.737 384.085 116.703 384.269 116.687C384.451 116.671 384.637 116.673 384.819 116.694C385.002 116.711 385.183 116.749 385.357 116.802C385.535 116.857 385.706 116.929 385.868 117.014C386.033 117.101 386.19 117.208 386.335 117.327C386.484 117.449 386.622 117.589 386.742 117.738C386.768 117.768 386.85 117.871 386.984 118.046C387.12 118.223 387.309 118.474 387.541 118.791C387.809 119.161 388.085 119.552 388.359 119.953C388.704 120.458 389.048 120.98 389.383 121.505C389.78 122.129 390.175 122.774 390.554 123.42C390.987 124.157 391.179 124.401 391.586 125.158C391.855 125.661 392.48 125.851 392.983 125.582C392.996 125.574 393.01 125.566 393.023 125.559C393.496 125.278 393.669 124.672 393.407 124.184C392.99 123.401 392.782 123.135 392.336 122.375C391.943 121.705 391.536 121.04 391.125 120.396C390.779 119.851 390.422 119.31 390.065 118.788C389.78 118.369 389.492 117.962 389.212 117.576C388.967 117.24 388.766 116.973 388.621 116.786C388.472 116.591 388.379 116.475 388.35 116.44C388.14 116.18 387.904 115.942 387.649 115.732C387.399 115.526 387.128 115.345 386.841 115.191C386.562 115.042 386.265 114.92 385.962 114.826C385.66 114.734 385.349 114.67 385.037 114.637ZM393.136 117.186C392.942 117.186 392.744 117.241 392.567 117.356C392.087 117.667 391.954 118.308 392.267 118.785C392.641 119.36 392.749 119.561 393.116 120.164C393.311 120.487 393.656 120.664 394.008 120.661L394.061 120.659C394.22 120.65 394.379 120.603 394.525 120.517C394.528 120.515 394.531 120.513 394.536 120.51C395.023 120.215 395.179 119.579 394.882 119.092C394.503 118.468 394.384 118.249 393.996 117.656C393.809 117.369 393.506 117.205 393.189 117.188L393.136 117.186Z" fill="#0B0B09"/>
</svg>
