<svg width="838" height="191" viewBox="0 0 838 191" fill="none" xmlns="http://www.w3.org/2000/svg">
    <style>
        path {
            fill: #000;
        }
        @media (prefers-color-scheme: dark) {
            path { fill: #fff; }
        }
    </style>
    <path d="M410.32 80.5559C408.628 80.5559 407.224 81.9599 407.224 83.6159C407.224 85.3079 408.628 86.7119 410.32 86.7119C412.012 86.7119 413.416 85.3079 413.416 83.6159C413.416 81.9599 412.012 80.5559 410.32 80.5559ZM407.8 89.1239V106.8H412.876V89.1239H407.8Z"/>
    <path d="M425.304 88.7639C423.324 88.7639 421.452 89.6999 420.48 91.2119V89.1239H415.404V106.8H420.48V95.8199C421.2 94.5959 422.604 93.8039 424.008 93.8039C426.096 93.8039 427.428 95.2079 427.428 97.6559V106.8H432.504V96.7919C432.504 91.8239 429.768 88.7639 425.304 88.7639Z"/>
    <path d="M441.168 88.0799C441.168 86.4599 442.428 85.3799 443.904 85.3799C444.408 85.3799 445.128 85.5239 445.488 85.6319L445.74 81.1679C445.092 80.8439 444.084 80.6279 443.148 80.6279C439.008 80.6279 436.092 83.2559 436.092 87.8279V89.1239H432.816V93.9479H436.092V106.8H441.168V93.9479H445.524V89.1239H441.168V88.0799Z"/>
    <path d="M456.388 88.7639C454.912 88.7639 453.004 89.6999 452.14 91.2119V89.1239H447.064V106.8H452.14V96.1079C453.004 94.3799 454.84 93.4439 455.992 93.4439C456.712 93.4439 457.576 93.5879 458.26 93.8399L458.548 89.0879C458.008 88.8719 457.288 88.7639 456.388 88.7639Z"/>
    <path d="M471.313 89.1239V91.2119C470.449 89.7719 468.289 88.7639 466.093 88.7639C461.485 88.7639 457.849 92.8319 457.849 97.9439C457.849 103.056 461.485 107.16 466.093 107.16C468.325 107.16 470.449 106.152 471.313 104.712V106.8H476.389V89.1239H471.313ZM467.209 102.336C464.725 102.336 462.817 100.464 462.817 97.9439C462.817 95.4239 464.725 93.5519 467.209 93.5519C468.973 93.5519 470.557 94.5239 471.313 95.8199V100.14C470.557 101.4 468.973 102.336 467.209 102.336Z"/>
    <path fill-rule="evenodd" clip-rule="evenodd" d="M379 78C388.941 78 397 86.059 397 96C397 105.941 388.941 114 379 114C369.059 114 361 105.941 361 96C361 86.059 369.059 78 379 78ZM380.257 102.736C379.601 101.636 378.663 102.102 378.385 102.268C378.085 102.447 377.298 103.165 377.886 104.15C378.474 105.136 378.403 105.017 379.05 106.101C379.696 107.185 380.66 106.775 380.954 106.6C381.249 106.424 382.031 105.709 381.422 104.688C380.865 103.754 380.352 102.895 380.269 102.756L380.257 102.736ZM386.299 89.2175C382.621 83.9626 376.242 84.5491 372.71 86.9474C370.315 88.5734 365.83 93.9604 370.369 100.649C370.437 100.749 370.504 100.845 370.57 100.941L370.65 101.054C370.77 101.224 370.89 101.389 371.013 101.557L371.096 101.669C371.803 102.627 372.627 103.694 374.088 105.942C375.262 107.579 377.438 106.104 376.38 104.489C376.367 104.469 376.353 104.448 376.339 104.427L376.217 104.241C376.177 104.179 376.136 104.118 376.095 104.056L376.013 103.932C375.231 102.752 374.36 101.492 372.495 98.9336C370.015 95.5322 371.151 91.3078 374.384 89.1133C377.618 86.9187 382.165 87.9795 384.044 90.7481C384.484 91.3963 385.368 91.3604 385.924 90.9834C386.48 90.6059 386.682 89.7647 386.299 89.2175ZM379.524 94.2399C378.41 92.8125 376.278 94.4823 377.278 95.7644C380.412 99.7828 381.411 101.672 383.058 104.506C383.933 106.011 386.312 104.796 385.319 102.972C384.302 101.103 381.761 97.1053 379.524 94.2399ZM382.422 91.0858C381.302 89.7255 378.094 88.4651 375.119 90.4847C372.143 92.5037 372.696 96.1724 373.412 97.353C374.244 98.7271 374.533 99.2285 375.613 100.597C376.708 101.986 379.063 100.677 377.873 99.0636C377.125 98.05 375.913 96.4997 375.632 95.7339C374.745 93.3154 378.222 90.968 380.086 92.7118C382.221 94.7109 385.28 100.008 386.251 101.661C387.178 103.237 389.429 101.727 388.566 100.214C386.779 96.8633 383.542 92.4459 382.422 91.0858ZM388.803 92.6137C388.084 91.5538 387.174 92.0743 386.906 92.2562C386.617 92.4518 385.874 93.2144 386.518 94.1638C387.162 95.1135 387.085 94.9989 387.794 96.0432C388.502 97.0872 389.441 96.6224 389.724 96.43C390.008 96.2375 390.747 95.4783 390.079 94.4943C389.411 93.5102 388.803 92.6137 388.803 92.6137Z"/>
</svg>
