<svg width="838" height="240" viewBox="0 0 838 240" fill="none" xmlns="http://www.w3.org/2000/svg">
<rect width="838" height="240" fill="white"/>
<path d="M409.406 104.756C407.714 104.756 406.31 106.16 406.31 107.816C406.31 109.508 407.714 110.912 409.406 110.912C411.098 110.912 412.502 109.508 412.502 107.816C412.502 106.16 411.098 104.756 409.406 104.756ZM406.886 113.324V131H411.962V113.324H406.886Z" fill="#0B0B09"/>
<path d="M424.749 112.964C422.769 112.964 420.897 113.9 419.925 115.412V113.324H414.849V131H419.925V120.02C420.645 118.796 422.049 118.004 423.453 118.004C425.541 118.004 426.873 119.408 426.873 121.856V131H431.949V120.992C431.949 116.024 429.213 112.964 424.749 112.964Z" fill="#0B0B09"/>
<path d="M440.974 112.28C440.974 110.66 442.234 109.58 443.71 109.58C444.214 109.58 444.934 109.724 445.294 109.832L445.546 105.368C444.898 105.044 443.89 104.828 442.954 104.828C438.814 104.828 435.898 107.456 435.898 112.028V113.324H432.622V118.148H435.898V131H440.974V118.148H445.33V113.324H440.974V112.28Z" fill="#0B0B09"/>
<path d="M456.553 112.964C455.077 112.964 453.169 113.9 452.305 115.412V113.324H447.229V131H452.305V120.308C453.169 118.58 455.005 117.644 456.157 117.644C456.877 117.644 457.741 117.788 458.425 118.04L458.713 113.288C458.173 113.072 457.453 112.964 456.553 112.964Z" fill="#0B0B09"/>
<path d="M471.839 113.324V115.412C470.975 113.972 468.815 112.964 466.619 112.964C462.011 112.964 458.375 117.032 458.375 122.144C458.375 127.256 462.011 131.36 466.619 131.36C468.851 131.36 470.975 130.352 471.839 128.912V131H476.915V113.324H471.839ZM467.735 126.536C465.251 126.536 463.343 124.664 463.343 122.144C463.343 119.624 465.251 117.752 467.735 117.752C469.499 117.752 471.083 118.724 471.839 120.02V124.34C471.083 125.6 469.499 126.536 467.735 126.536Z" fill="#0B0B09"/>
<path fill-rule="evenodd" clip-rule="evenodd" d="M379.086 102C389.027 102 397.086 110.059 397.086 120C397.086 129.941 389.027 138 379.086 138C369.145 138 361.086 129.941 361.086 120C361.086 110.059 369.145 102 379.086 102ZM380.343 126.736C379.687 125.636 378.748 126.102 378.47 126.268C378.171 126.447 377.384 127.165 377.972 128.15C378.559 129.136 378.489 129.017 379.135 130.101C379.782 131.185 380.746 130.775 381.04 130.6C381.334 130.424 382.116 129.709 381.508 128.688C380.95 127.754 380.438 126.895 380.355 126.756L380.343 126.736ZM386.385 113.217C382.707 107.963 376.327 108.549 372.795 110.947C370.401 112.573 365.916 117.96 370.455 124.649C370.522 124.749 370.589 124.845 370.656 124.941L370.736 125.054C370.856 125.224 370.976 125.389 371.099 125.557L371.182 125.669C371.888 126.627 372.713 127.694 374.174 129.942C375.347 131.579 377.523 130.104 376.466 128.489C376.452 128.469 376.439 128.448 376.425 128.427L376.303 128.241C376.262 128.179 376.221 128.118 376.181 128.056L376.099 127.932C375.317 126.752 374.446 125.492 372.58 122.934C370.1 119.532 371.236 115.308 374.47 113.113C377.704 110.919 382.251 111.98 384.129 114.748C384.569 115.396 385.453 115.36 386.01 114.983C386.566 114.606 386.767 113.765 386.385 113.217ZM379.61 118.24C378.496 116.812 376.364 118.482 377.364 119.764C380.498 123.783 381.497 125.672 383.144 128.506C384.019 130.011 386.398 128.796 385.405 126.972C384.388 125.103 381.846 121.105 379.61 118.24ZM382.508 115.086C381.388 113.725 378.18 112.465 375.204 114.485C372.229 116.504 372.782 120.172 373.497 121.353C374.33 122.727 374.619 123.228 375.699 124.597C376.794 125.986 379.148 124.677 377.958 123.064C377.21 122.05 375.998 120.5 375.717 119.734C374.831 117.315 378.308 114.968 380.171 116.712C382.307 118.711 385.365 124.008 386.336 125.661C387.263 127.237 389.515 125.727 388.651 124.214C386.865 120.863 383.628 116.446 382.508 115.086ZM388.888 116.614C388.169 115.554 387.259 116.074 386.991 116.256C386.703 116.452 385.959 117.214 386.604 118.164C387.248 119.113 387.17 118.999 387.879 120.043C388.588 121.087 389.526 120.622 389.81 120.43C390.093 120.238 390.832 119.478 390.165 118.494C389.497 117.51 388.888 116.614 388.888 116.614Z" fill="#0B0B09"/>
</svg>
