<svg width="838" height="240" viewBox="0 0 838 240" fill="none" xmlns="http://www.w3.org/2000/svg">
<rect width="838" height="240" fill="url(#paint0_linear)"/>
<path fill-rule="evenodd" clip-rule="evenodd" d="M379 102C388.941 102 397 110.059 397 120C397 129.941 388.941 138 379 138C369.059 138 361 129.941 361 120C361 110.059 369.059 102 379 102ZM380.257 126.736C379.601 125.636 378.663 126.102 378.385 126.268C378.085 126.447 377.298 127.165 377.886 128.15C378.474 129.136 378.403 129.017 379.05 130.101C379.696 131.185 380.66 130.775 380.954 130.6C381.249 130.424 382.031 129.709 381.422 128.688C380.865 127.754 380.352 126.895 380.269 126.756L380.257 126.736ZM386.299 113.217C382.621 107.963 376.242 108.549 372.71 110.947C370.315 112.573 365.83 117.96 370.369 124.649C370.437 124.749 370.504 124.845 370.57 124.941L370.65 125.054C370.77 125.224 370.89 125.389 371.013 125.557L371.096 125.669C371.803 126.627 372.627 127.694 374.088 129.942C375.262 131.579 377.438 130.104 376.38 128.489C376.367 128.469 376.353 128.448 376.339 128.427L376.217 128.241C376.177 128.179 376.136 128.118 376.095 128.056L376.013 127.932C375.231 126.752 374.36 125.492 372.495 122.934C370.015 119.532 371.151 115.308 374.384 113.113C377.618 110.919 382.165 111.98 384.044 114.748C384.484 115.396 385.368 115.36 385.924 114.983C386.48 114.606 386.682 113.765 386.299 113.217ZM379.524 118.24C378.41 116.812 376.278 118.482 377.278 119.764C380.412 123.783 381.411 125.672 383.058 128.506C383.933 130.011 386.312 128.796 385.319 126.972C384.302 125.103 381.761 121.105 379.524 118.24ZM382.422 115.086C381.302 113.725 378.094 112.465 375.119 114.485C372.143 116.504 372.696 120.172 373.412 121.353C374.244 122.727 374.533 123.228 375.613 124.597C376.708 125.986 379.063 124.677 377.873 123.064C377.125 122.05 375.913 120.5 375.632 119.734C374.745 117.315 378.222 114.968 380.086 116.712C382.221 118.711 385.28 124.008 386.251 125.661C387.178 127.237 389.429 125.727 388.566 124.214C386.779 120.863 383.542 116.446 382.422 115.086ZM388.803 116.614C388.084 115.554 387.174 116.074 386.906 116.256C386.617 116.452 385.874 117.214 386.518 118.164C387.162 119.113 387.085 118.999 387.794 120.043C388.502 121.087 389.441 120.622 389.724 120.43C390.008 120.238 390.747 119.478 390.079 118.494C389.411 117.51 388.803 116.614 388.803 116.614Z" fill="white"/>
<path d="M409.32 104.756C407.628 104.756 406.224 106.16 406.224 107.816C406.224 109.508 407.628 110.912 409.32 110.912C411.012 110.912 412.416 109.508 412.416 107.816C412.416 106.16 411.012 104.756 409.32 104.756ZM406.8 113.324V131H411.876V113.324H406.8ZM424.304 112.964C422.324 112.964 420.452 113.9 419.48 115.412V113.324H414.404V131H419.48V120.02C420.2 118.796 421.604 118.004 423.008 118.004C425.096 118.004 426.428 119.408 426.428 121.856V131H431.504V120.992C431.504 116.024 428.768 112.964 424.304 112.964ZM440.168 112.28C440.168 110.66 441.428 109.58 442.904 109.58C443.408 109.58 444.128 109.724 444.488 109.832L444.74 105.368C444.092 105.044 443.084 104.828 442.148 104.828C438.008 104.828 435.092 107.456 435.092 112.028V113.324H431.816V118.148H435.092V131H440.168V118.148H444.524V113.324H440.168V112.28ZM455.388 112.964C453.912 112.964 452.004 113.9 451.14 115.412V113.324H446.064V131H451.14V120.308C452.004 118.58 453.84 117.644 454.992 117.644C455.712 117.644 456.576 117.788 457.26 118.04L457.548 113.288C457.008 113.072 456.288 112.964 455.388 112.964ZM470.313 113.324V115.412C469.449 113.972 467.289 112.964 465.093 112.964C460.485 112.964 456.849 117.032 456.849 122.144C456.849 127.256 460.485 131.36 465.093 131.36C467.325 131.36 469.449 130.352 470.313 128.912V131H475.389V113.324H470.313ZM466.209 126.536C463.725 126.536 461.817 124.664 461.817 122.144C461.817 119.624 463.725 117.752 466.209 117.752C467.973 117.752 469.557 118.724 470.313 120.02V124.34C469.557 125.6 467.973 126.536 466.209 126.536Z" fill="white"/>
<defs>
<linearGradient id="paint0_linear" x1="419" y1="0" x2="419" y2="240" gradientUnits="userSpaceOnUse">
<stop stop-color="#2A2F34"/>
<stop offset="1" stop-color="#101419"/>
</linearGradient>
</defs>
</svg>
