<svg width="851" height="229" viewBox="0 0 851 229" fill="none" xmlns="http://www.w3.org/2000/svg">
<g filter="url(#filter0_f_137:40)">
<rect x="39" y="34" width="779" height="160" rx="9" fill="#0E1116"/>
<rect x="39.5" y="34.5" width="778" height="159" rx="8.5" stroke="white" stroke-opacity="0.27"/>
</g>
<rect width="851" height="194" rx="9" fill="#0E1116"/>
<rect x="0.5" y="0.5" width="850" height="193" rx="8.5" stroke="white" stroke-opacity="0.27"/>
<mask id="mask0_137:40" style="mask-type:alpha" maskUnits="userSpaceOnUse" x="0" y="0" width="851" height="194">
<rect width="851" height="194" rx="9" fill="#0E1116"/>
</mask>
<g mask="url(#mask0_137:40)">
<g opacity="0.4" filter="url(#filter1_f_137:40)">
<path d="M542 -30C542 67.2021 450.89 146 338.5 146C226.11 146 135 67.2021 135 -30C135 -127.202 226.11 -206 338.5 -206C450.89 -206 542 -127.202 542 -30Z" fill="url(#paint0_linear_137:40)"/>
</g>
<path fill-rule="evenodd" clip-rule="evenodd" d="M814.86 -49.0587H368.282C362.57 -49.0587 357.94 -44.423 357.94 -38.7045V166.496C357.94 172.215 362.57 176.85 368.282 176.85H814.86C820.572 176.85 825.202 172.215 825.202 166.496V-38.7045C825.202 -44.423 820.572 -49.0587 814.86 -49.0587ZM368.282 -50C362.051 -50 357 -44.9429 357 -38.7045V166.496C357 172.735 362.051 177.792 368.282 177.792H814.86C821.091 177.792 826.142 172.735 826.142 166.496V-38.7045C826.142 -44.9429 821.091 -50 814.86 -50H368.282Z" fill="url(#paint1_linear_137:40)"/>
<path opacity="0.4" fill-rule="evenodd" clip-rule="evenodd" d="M811.418 -42.2829H369.012C365.893 -42.2829 363.365 -39.7649 363.365 -36.6588V165.807C363.365 168.913 365.893 171.431 369.012 171.431H811.418C814.537 171.431 817.065 168.913 817.065 165.807V-36.6588C817.065 -39.7649 814.537 -42.2829 811.418 -42.2829ZM369.012 -43.2202C365.373 -43.2202 362.423 -40.2826 362.423 -36.6588V165.807C362.423 169.431 365.373 172.368 369.012 172.368H811.418C815.057 172.368 818.007 169.431 818.007 165.807V-36.6588C818.007 -40.2826 815.057 -43.2202 811.418 -43.2202H369.012Z" fill="url(#paint2_linear_137:40)" fill-opacity="0.18"/>
<path opacity="0.1" d="M389.617 17C380.978 17 374 23.9776 374 32.6166C374 41.2081 380.978 48.1858 389.617 48.1858C398.208 48.1858 405.186 41.2081 405.186 32.6166C405.186 23.9776 398.208 17 389.617 17ZM385.345 41.2081C383.636 38.55 382.924 37.7905 382.117 36.6038C378.177 30.8129 382.069 26.1611 384.158 24.7371C387.196 22.6486 392.749 22.1739 395.93 26.6833C396.262 27.1579 396.072 27.8699 395.597 28.2022C395.123 28.5345 394.363 28.5819 393.984 28.0123C392.37 25.5915 388.43 24.6896 385.629 26.5883C382.829 28.487 381.832 32.1419 384.016 35.0849C385.867 37.6481 386.626 38.6924 387.386 39.8791C388.24 41.3505 386.341 42.6321 385.345 41.2081ZM391.278 41.7777C391.041 41.9201 390.186 42.2999 389.617 41.3505C389.047 40.4012 389.094 40.4961 388.62 39.6417C388.145 38.7873 388.81 38.1702 389.047 38.0278C389.284 37.8854 390.091 37.4582 390.661 38.4551C390.661 38.4551 391.136 39.262 391.658 40.1639C392.227 41.0183 391.563 41.6353 391.278 41.7777ZM393.129 39.974C391.705 37.5057 390.851 35.8918 388.145 32.3793C387.291 31.2875 389.142 29.8161 390.091 31.0502C392.037 33.5185 394.221 36.9836 395.123 38.5975C395.93 40.2113 393.889 41.2556 393.129 39.974ZM395.882 37.5057C395.028 36.0817 392.37 31.4774 390.518 29.7686C388.905 28.2497 385.914 30.2907 386.674 32.3793C386.911 33.0438 387.955 34.3729 388.62 35.2748C389.664 36.6513 387.623 37.7905 386.674 36.6038C385.724 35.4172 385.487 34.99 384.775 33.8033C384.158 32.759 383.683 29.5787 386.246 27.8699C388.81 26.1136 391.61 27.2054 392.56 28.3921C393.509 29.5787 396.357 33.3761 397.876 36.319C398.635 37.5532 396.689 38.8823 395.882 37.5057ZM398.873 32.9489C398.635 33.1388 397.828 33.5185 397.211 32.6166C396.594 31.7147 396.642 31.8097 396.12 31.0027C395.55 30.1958 396.215 29.5313 396.452 29.3414C396.689 29.199 397.449 28.7243 398.113 29.6737C398.113 29.6737 398.635 30.4331 399.205 31.2875C399.775 32.1419 399.11 32.8065 398.873 32.9489Z" fill="white"/>
<path d="M428.473 113.395H427.524V121.248H428.473V113.395Z" fill="white"/>
<path d="M431.295 115.244L435.348 121.248H436.183V113.395H435.235V119.305L431.216 113.395H430.347V121.248H431.295V115.244Z" fill="white"/>
<path d="M439.001 114.243H441.936V113.395H438.053V121.248H439.001V117.716H441.936V116.868H439.001V114.243Z" fill="white"/>
<path d="M444.15 117.951L447.074 121.248H448.281L445.358 117.987C446.046 117.94 446.385 117.857 446.746 117.657C447.446 117.269 447.83 116.562 447.83 115.679C447.83 114.255 446.859 113.395 445.256 113.395H443.201V121.248H444.15V117.951ZM444.15 117.28V114.243H445.256C446.295 114.243 446.859 114.773 446.859 115.75C446.859 116.739 446.238 117.28 445.098 117.28H444.15Z" fill="white"/>
<path d="M453.971 119.435L454.592 121.248H455.653L452.887 113.395H451.758L448.925 121.248H449.907L450.595 119.435H453.971ZM453.677 118.587H450.878L452.3 114.643L453.677 118.587Z" fill="white"/>
<path d="M459.528 119.141V119.305C459.528 119.682 459.607 120.012 459.788 120.33C460.183 121.036 460.837 121.389 461.797 121.389C463.208 121.389 464.168 120.471 464.168 119.117C464.168 118.587 463.987 118.093 463.66 117.728C463.355 117.386 462.971 117.174 462.17 116.88C461.402 116.598 461.199 116.503 460.962 116.327C460.691 116.127 460.533 115.797 460.533 115.42C460.533 114.667 461.063 114.137 461.808 114.137C462.294 114.137 462.711 114.349 462.926 114.69C463.05 114.914 463.095 115.102 463.107 115.503H464.055C464.021 114.137 463.152 113.254 461.82 113.254C460.487 113.254 459.573 114.16 459.573 115.491C459.573 116.091 459.776 116.609 460.16 116.974C460.499 117.292 460.792 117.445 461.684 117.763C462.869 118.175 463.208 118.493 463.208 119.176C463.208 119.965 462.61 120.506 461.763 120.506C460.939 120.506 460.476 120.035 460.431 119.141H459.528Z" fill="white"/>
<path d="M467.978 117.787L470.541 113.395H469.412L467.493 116.762L465.551 113.395H464.433L467.03 117.787V121.248H467.978V117.787Z" fill="white"/>
<path d="M470.828 119.141V119.305C470.828 119.682 470.907 120.012 471.088 120.33C471.483 121.036 472.138 121.389 473.097 121.389C474.508 121.389 475.468 120.471 475.468 119.117C475.468 118.587 475.287 118.093 474.96 117.728C474.655 117.386 474.271 117.174 473.47 116.88C472.702 116.598 472.499 116.503 472.262 116.327C471.991 116.127 471.833 115.797 471.833 115.42C471.833 114.667 472.363 114.137 473.108 114.137C473.594 114.137 474.012 114.349 474.226 114.69C474.35 114.914 474.395 115.102 474.407 115.503H475.355C475.321 114.137 474.452 113.254 473.12 113.254C471.788 113.254 470.873 114.16 470.873 115.491C470.873 116.091 471.076 116.609 471.46 116.974C471.799 117.292 472.092 117.445 472.984 117.763C474.17 118.175 474.508 118.493 474.508 119.176C474.508 119.965 473.91 120.506 473.063 120.506C472.239 120.506 471.776 120.035 471.731 119.141H470.828Z" fill="white"/>
<path d="M478.914 114.243H480.822V113.395H476.046V114.243H477.965V121.248H478.914V114.243Z" fill="white"/>
<path d="M482.745 114.243H485.714V113.395H481.796V121.248H485.714V120.4H482.745V117.716H485.714V116.868H482.745V114.243Z" fill="white"/>
<path d="M488.171 115.491L490.948 121.33L493.748 115.503V121.248H494.696V113.395H493.77L490.948 119.282L488.159 113.395H487.222V121.248H488.171V115.491Z" fill="white"/>
<path d="M504.122 119.435L504.742 121.248H505.804L503.038 113.395H501.909L499.075 121.248H500.057L500.746 119.435H504.122ZM503.828 118.587H501.028L502.451 114.643L503.828 118.587Z" fill="white"/>
<path d="M506.802 121.248H508.631C509.726 121.248 510.595 120.954 511.25 120.341C512.018 119.623 512.435 118.528 512.435 117.198C512.435 114.832 511.069 113.395 508.8 113.395H506.802V121.248ZM507.75 114.231H508.766C510.494 114.231 511.465 115.314 511.465 117.21C511.465 118.375 511.126 119.247 510.448 119.812C509.907 120.259 509.365 120.4 508.089 120.4H507.75V114.231Z" fill="white"/>
<path d="M514.817 115.491L517.594 121.33L520.394 115.503V121.248H521.342V113.395H520.417L517.594 119.282L514.806 113.395H513.869V121.248H514.817V115.491Z" fill="white"/>
<path d="M524.166 113.395H523.218V121.248H524.166V113.395Z" fill="white"/>
<path d="M526.988 115.244L531.041 121.248H531.876V113.395H530.928V119.305L526.909 113.395H526.04V121.248H526.988V115.244Z" fill="white"/>
<path d="M534.694 113.395H533.746V121.248H534.694V113.395Z" fill="white"/>
<path d="M536.06 119.141V119.305C536.06 119.682 536.139 120.012 536.32 120.33C536.715 121.036 537.37 121.389 538.33 121.389C539.741 121.389 540.7 120.471 540.7 119.117C540.7 118.587 540.52 118.093 540.192 117.728C539.887 117.386 539.504 117.174 538.702 116.88C537.934 116.598 537.731 116.503 537.494 116.327C537.223 116.127 537.065 115.797 537.065 115.42C537.065 114.667 537.596 114.137 538.341 114.137C538.826 114.137 539.244 114.349 539.458 114.69C539.583 114.914 539.628 115.102 539.639 115.503H540.587C540.553 114.137 539.684 113.254 538.352 113.254C537.02 113.254 536.106 114.16 536.106 115.491C536.106 116.091 536.309 116.609 536.693 116.974C537.031 117.292 537.325 117.445 538.217 117.763C539.402 118.175 539.741 118.493 539.741 119.176C539.741 119.965 539.142 120.506 538.296 120.506C537.472 120.506 537.009 120.035 536.964 119.141H536.06Z" fill="white"/>
<path d="M544.146 114.243H546.054V113.395H541.279V114.243H543.198V121.248H544.146V114.243Z" fill="white"/>
<path d="M548.023 117.951L550.947 121.248H552.155L549.231 117.987C549.92 117.94 550.258 117.857 550.62 117.657C551.32 117.269 551.703 116.562 551.703 115.679C551.703 114.255 550.733 113.395 549.129 113.395H547.075V121.248H548.023V117.951ZM548.023 117.28V114.243H549.129C550.168 114.243 550.733 114.773 550.733 115.75C550.733 116.739 550.112 117.28 548.971 117.28H548.023Z" fill="white"/>
<path d="M557.844 119.435L558.465 121.248H559.526L556.761 113.395H555.632L552.798 121.248H553.78L554.469 119.435H557.844ZM557.551 118.587H554.751L556.173 114.643L557.551 118.587Z" fill="white"/>
<path d="M562.017 114.243H563.925V113.395H559.149V114.243H561.069V121.248H562.017V114.243Z" fill="white"/>
<path d="M567.856 113.254C565.722 113.254 564.131 115.02 564.131 117.363C564.131 118.352 564.401 119.235 564.921 119.918C565.621 120.836 566.716 121.389 567.833 121.389C568.703 121.389 569.561 121.06 570.238 120.447C571.062 119.718 571.514 118.623 571.514 117.398C571.514 116.221 571.243 115.35 570.633 114.608C569.911 113.748 568.906 113.254 567.856 113.254ZM567.833 114.172C568.499 114.172 569.188 114.478 569.685 114.985C570.272 115.573 570.543 116.339 570.543 117.386C570.543 118.187 570.261 119.035 569.82 119.541C569.312 120.141 568.567 120.483 567.811 120.483C566.253 120.483 565.101 119.152 565.101 117.328C565.101 115.514 566.264 114.172 567.833 114.172Z" fill="white"/>
<path d="M573.898 117.951L576.822 121.248H578.03L575.106 117.987C575.794 117.94 576.133 117.857 576.494 117.657C577.194 117.269 577.578 116.562 577.578 115.679C577.578 114.255 576.607 113.395 575.004 113.395H572.95V121.248H573.898V117.951ZM573.898 117.28V114.243H575.004C576.043 114.243 576.607 114.773 576.607 115.75C576.607 116.739 575.986 117.28 574.846 117.28H573.898Z" fill="white"/>
<g opacity="0.2">
<path d="M378.006 95.6265H377.356V103.762H378.006V95.6265Z" fill="white"/>
<path d="M380.061 103.762H381.702C384.119 103.762 385.544 102.201 385.544 99.5295C385.544 97.1389 384.187 95.6265 382.01 95.6265H380.061V103.762ZM380.711 96.2485H381.976C383.857 96.2485 384.882 97.4072 384.882 99.5295C384.882 100.908 384.518 101.896 383.765 102.518C383.173 103.006 382.591 103.14 381.064 103.14H380.711V96.2485Z" fill="white"/>
<path d="M387.734 96.2485H390.903V95.6265H387.085V103.762H390.903V103.14H387.734V99.9564H390.903V99.3344H387.734V96.2485Z" fill="white"/>
<path d="M393.178 96.9925L397.726 103.762H398.216V95.6265H397.566V102.298L393.064 95.6265H392.528V103.762H393.178V96.9925Z" fill="white"/>
<path d="M401.987 96.2485H403.981V95.6265H399.342V96.2485H401.337V103.762H401.987V96.2485Z" fill="white"/>
<path d="M405.756 95.6265H405.106V103.762H405.756V95.6265Z" fill="white"/>
<path d="M409.534 96.2485H411.528V95.6265H406.889V96.2485H408.884V103.762H409.534V96.2485Z" fill="white"/>
<path d="M415.411 100.188L418.033 95.6265H417.269L415.069 99.4563L412.858 95.6265H412.094L414.762 100.188V103.762H415.411V100.188Z" fill="white"/>
</g>
<g opacity="0.2">
<path d="M381.192 83.9338L381.942 85.9941H382.669L379.738 78.1413H379.023L376 85.9941H376.658L377.477 83.9338H381.192ZM380.961 83.3216H377.719L379.358 79.0361L380.961 83.3216Z" fill="white"/>
<path d="M388.915 84.2988C388.246 85.1582 387.565 85.5232 386.654 85.5232C384.946 85.5232 383.689 84.0751 383.689 82.0854C383.689 80.0839 384.935 78.6122 386.619 78.6122C387.162 78.6122 387.727 78.7888 388.165 79.0949C388.396 79.2598 388.569 79.4128 388.915 79.8013L389.4 79.401C388.65 78.4474 387.75 78 386.619 78C384.542 78 383.008 79.7307 383.008 82.0736C383.008 83.1685 383.389 84.2517 384.023 84.9934C384.669 85.7351 385.581 86.1354 386.631 86.1354C387.277 86.1354 387.923 85.9706 388.442 85.6527C388.835 85.4172 389.054 85.2171 389.4 84.7344L388.915 84.2988Z" fill="white"/>
<path d="M395.957 84.2988C395.288 85.1582 394.608 85.5232 393.696 85.5232C391.988 85.5232 390.731 84.0751 390.731 82.0854C390.731 80.0839 391.977 78.6122 393.661 78.6122C394.204 78.6122 394.769 78.7888 395.207 79.0949C395.438 79.2598 395.611 79.4128 395.957 79.8013L396.442 79.401C395.692 78.4474 394.792 78 393.661 78C391.585 78 390.05 79.7307 390.05 82.0736C390.05 83.1685 390.431 84.2517 391.065 84.9934C391.712 85.7351 392.623 86.1354 393.673 86.1354C394.319 86.1354 394.965 85.9706 395.484 85.6527C395.877 85.4172 396.096 85.2171 396.442 84.7344L395.957 84.2988Z" fill="white"/>
<path d="M398.449 78.7417H401.656V78.1413H397.791V85.9941H401.656V85.3937H398.449V82.3208H401.656V81.7204H398.449V78.7417Z" fill="white"/>
<path d="M402.589 83.9927V84.181C402.589 84.652 402.774 85.1347 403.097 85.4997C403.466 85.9353 404.02 86.1354 404.77 86.1354C406.12 86.1354 407.066 85.2289 407.066 83.9338C407.066 83.4275 406.893 82.9448 406.593 82.5916C406.293 82.2502 405.924 82.05 405.116 81.7557C404.227 81.4378 403.951 81.3201 403.708 81.1199C403.431 80.8963 403.281 80.5313 403.281 80.1192C403.281 79.2362 403.916 78.6004 404.781 78.6004C405.347 78.6004 405.831 78.8477 406.074 79.248C406.224 79.4952 406.27 79.7071 406.281 80.1663H406.916C406.916 78.8477 406.085 78 404.793 78C403.512 78 402.624 78.883 402.624 80.1545C402.624 80.7432 402.831 81.2495 403.212 81.6027C403.535 81.9088 403.778 82.0265 404.712 82.3444C406.016 82.7682 406.431 83.1567 406.431 83.9338C406.431 84.8874 405.739 85.535 404.712 85.535C404.124 85.535 403.651 85.2877 403.42 84.8874C403.281 84.6402 403.224 84.4165 403.201 83.9927H402.589Z" fill="white"/>
<path d="M408.133 83.9927V84.181C408.133 84.652 408.317 85.1347 408.64 85.4997C409.01 85.9353 409.563 86.1354 410.313 86.1354C411.663 86.1354 412.609 85.2289 412.609 83.9338C412.609 83.4275 412.436 82.9448 412.136 82.5916C411.836 82.2502 411.467 82.05 410.659 81.7557C409.771 81.4378 409.494 81.3201 409.252 81.1199C408.975 80.8963 408.825 80.5313 408.825 80.1192C408.825 79.2362 409.46 78.6004 410.325 78.6004C410.89 78.6004 411.375 78.8477 411.617 79.248C411.767 79.4952 411.813 79.7071 411.825 80.1663H412.459C412.459 78.8477 411.629 78 410.336 78C409.056 78 408.167 78.883 408.167 80.1545C408.167 80.7432 408.375 81.2495 408.756 81.6027C409.079 81.9088 409.321 82.0265 410.256 82.3444C411.559 82.7682 411.975 83.1567 411.975 83.9338C411.975 84.8874 411.283 85.535 410.256 85.535C409.667 85.535 409.194 85.2877 408.963 84.8874C408.825 84.6402 408.767 84.4165 408.744 83.9927H408.133Z" fill="white"/>
</g>
<g opacity="0.2">
<path d="M378.01 117.857L381.431 121.248H382.327L378.894 117.857C379.009 117.869 379.112 117.869 379.158 117.869C379.732 117.869 380.146 117.81 380.456 117.681C381.282 117.328 381.764 116.562 381.764 115.609C381.764 114.255 380.811 113.395 379.319 113.395H377.356V121.248H378.01V117.857ZM378.01 117.339V113.996H379.273C380.479 113.996 381.098 114.549 381.098 115.644C381.098 116.751 380.398 117.339 379.112 117.339H378.01Z" fill="white"/>
<path d="M386.579 113.254C385.649 113.254 384.719 113.654 384.03 114.349C383.284 115.102 382.905 116.115 382.905 117.363C382.905 118.352 383.169 119.247 383.64 119.882C384.329 120.812 385.442 121.389 386.556 121.389C387.394 121.389 388.243 121.06 388.932 120.471C389.759 119.765 390.206 118.681 390.206 117.422C390.206 116.233 389.931 115.326 389.357 114.631C388.634 113.76 387.612 113.254 386.579 113.254ZM386.567 113.866C387.29 113.866 388.071 114.208 388.622 114.761C389.254 115.397 389.541 116.221 389.541 117.375C389.541 118.269 389.219 119.211 388.748 119.765C388.186 120.4 387.371 120.777 386.544 120.777C384.811 120.777 383.571 119.329 383.571 117.316C383.571 115.326 384.845 113.866 386.567 113.866Z" fill="white"/>
<path d="M392.45 120.577V113.395H391.796V121.248H395.217V120.577H392.45Z" fill="white"/>
<path d="M397.215 113.996H400.406V113.395H396.56V121.248H400.406V120.648H397.215V117.575H400.406V116.974H397.215V113.996Z" fill="white"/>
</g>
<g opacity="0.2">
<path d="M378.685 134.209H380.711V133.709H376V134.209H378.026V140.253H378.685V134.209Z" fill="white"/>
<path d="M384.574 133.591C383.636 133.591 382.699 133.925 382.004 134.504C381.252 135.132 380.87 135.975 380.87 137.015C380.87 137.84 381.136 138.585 381.611 139.115C382.305 139.89 383.428 140.371 384.551 140.371C385.396 140.371 386.252 140.096 386.947 139.606C387.78 139.017 388.232 138.114 388.232 137.064C388.232 136.074 387.954 135.318 387.375 134.739C386.646 134.013 385.616 133.591 384.574 133.591ZM384.562 134.101C385.292 134.101 386.079 134.386 386.634 134.847C387.271 135.377 387.56 136.064 387.56 137.025C387.56 137.771 387.236 138.556 386.762 139.017C386.195 139.547 385.373 139.861 384.539 139.861C382.791 139.861 381.541 138.654 381.541 136.976C381.541 135.318 382.826 134.101 384.562 134.101Z" fill="white"/>
<path d="M390.494 137.182L393.816 140.253H394.731L391.142 136.996L394.731 133.709H393.92L390.494 136.809V133.709H389.834V140.253H390.494V137.182Z" fill="white"/>
<path d="M396.542 134.209H399.76V133.709H395.882V140.253H399.76V139.753H396.542V137.192H399.76V136.692H396.542V134.209Z" fill="white"/>
<path d="M402.069 134.808L406.688 140.253H407.186V133.709H406.526V139.076L401.954 133.709H401.41V140.253H402.069V134.808Z" fill="white"/>
</g>
<g opacity="0.2">
<path d="M432.641 139.401C432.651 139.297 432.651 139.175 432.651 139.119C432.651 137.847 431.709 136.896 430.446 136.896C429.174 136.896 428.26 137.847 428.26 139.184C428.26 140.503 429.184 141.444 430.474 141.444C431.303 141.444 432.048 141.002 432.406 140.277L431.775 140.041C431.52 140.493 431.011 140.785 430.474 140.785C430.003 140.785 429.589 140.578 429.306 140.192C429.127 139.957 429.061 139.768 429.024 139.401H432.641ZM429.033 138.874C429.089 138.525 429.146 138.346 429.278 138.139C429.532 137.763 429.966 137.537 430.446 137.537C430.927 137.537 431.369 137.763 431.643 138.13C431.793 138.346 431.859 138.535 431.888 138.874H429.033Z" fill="white"/>
<path d="M434.84 140.22L433.672 137H432.909L434.454 141.209L433.549 143.431H434.331L436.922 137H436.14L434.84 140.22Z" fill="white"/>
<path d="M439.838 135.06H437.228V135.738H439.046V138.958C439.046 139.778 438.952 140.135 438.651 140.399C438.415 140.597 438.076 140.7 437.614 140.7C437.511 140.7 437.416 140.7 437.228 140.682V141.369C437.36 141.378 437.473 141.378 437.539 141.378C438.095 141.378 438.538 141.312 438.839 141.171C439.508 140.87 439.838 140.286 439.838 139.401V135.06Z" fill="white"/>
<path d="M441.939 135.06H441.223V141.341H441.939V138.798C441.939 138.384 442.005 138.168 442.222 137.923C442.448 137.668 442.74 137.537 443.07 137.537C443.588 137.537 443.88 137.866 443.88 138.459V141.341H444.596V138.422C444.596 137.866 444.492 137.527 444.257 137.292C444.021 137.047 443.625 136.896 443.249 136.896C442.73 136.896 442.335 137.113 441.939 137.603V135.06Z" fill="white"/>
<path d="M446.723 140.597C447.147 141.19 447.618 141.444 448.287 141.444C449.474 141.444 450.313 140.512 450.313 139.184C450.313 137.838 449.465 136.896 448.25 136.896C447.618 136.896 447.157 137.151 446.723 137.744V135.06H446.007V141.341H446.723V140.597ZM448.155 137.537C448.975 137.537 449.559 138.233 449.559 139.203C449.559 140.173 448.984 140.823 448.127 140.823C447.279 140.823 446.714 140.164 446.714 139.175C446.714 138.224 447.326 137.537 448.155 137.537Z" fill="white"/>
<path d="M454.216 137.942V138.62H456.401C456.335 139.166 456.241 139.476 455.996 139.806C455.61 140.361 454.884 140.729 454.187 140.729C452.906 140.729 451.917 139.627 451.917 138.205C451.917 136.765 452.906 135.672 454.206 135.672C454.658 135.672 455.101 135.814 455.45 136.068C455.619 136.181 455.732 136.294 455.977 136.567L456.571 136.087C455.977 135.343 455.158 134.947 454.206 134.947C452.407 134.947 451.107 136.313 451.107 138.215C451.107 140.088 452.416 141.454 454.206 141.454C455.158 141.454 455.968 141.058 456.571 140.305C457.033 139.721 457.221 139.137 457.221 138.299C457.221 138.243 457.221 138.073 457.212 137.942H454.216Z" fill="white"/>
<path d="M461.248 140.314C460.899 140.644 460.56 140.785 460.136 140.785C459.288 140.785 458.695 140.117 458.695 139.156C458.695 138.215 459.288 137.555 460.146 137.555C460.551 137.555 460.918 137.706 461.248 138.007L461.71 137.546C461.257 137.104 460.749 136.896 460.127 136.896C458.855 136.896 457.96 137.838 457.96 139.184C457.96 140.503 458.845 141.444 460.089 141.444C460.72 141.444 461.201 141.247 461.691 140.804L461.248 140.314Z" fill="white"/>
<path d="M463.33 137H462.614V141.341H463.33V137ZM462.982 135.314C462.718 135.314 462.52 135.512 462.52 135.776C462.52 136.04 462.718 136.237 462.972 136.237C463.227 136.237 463.434 136.04 463.434 135.785C463.434 135.522 463.236 135.314 462.982 135.314Z" fill="white"/>
<path d="M467.575 134.947C465.794 134.947 464.466 136.36 464.466 138.233C464.466 139.024 464.692 139.731 465.125 140.277C465.709 141.011 466.623 141.454 467.556 141.454C468.281 141.454 468.997 141.19 469.563 140.7C470.25 140.117 470.627 139.241 470.627 138.262C470.627 137.32 470.401 136.623 469.892 136.03C469.29 135.343 468.451 134.947 467.575 134.947ZM467.556 135.682C468.112 135.682 468.687 135.927 469.101 136.331C469.591 136.802 469.817 137.414 469.817 138.252C469.817 138.893 469.582 139.571 469.214 139.975C468.79 140.456 468.168 140.729 467.537 140.729C466.237 140.729 465.276 139.665 465.276 138.205C465.276 136.755 466.246 135.682 467.556 135.682Z" fill="white"/>
<path d="M472.476 137H471.76V141.341H472.476V137ZM472.127 135.314C471.863 135.314 471.665 135.512 471.665 135.776C471.665 136.04 471.863 136.237 472.118 136.237C472.372 136.237 472.579 136.04 472.579 135.785C472.579 135.522 472.381 135.314 472.127 135.314Z" fill="white"/>
<path d="M476.051 135.06H473.442V135.738H475.26V138.958C475.26 139.778 475.166 140.135 474.864 140.399C474.629 140.597 474.289 140.7 473.828 140.7C473.724 140.7 473.63 140.7 473.442 140.682V141.369C473.573 141.378 473.687 141.378 473.752 141.378C474.308 141.378 474.751 141.312 475.053 141.171C475.722 140.87 476.051 140.286 476.051 139.401V135.06Z" fill="white"/>
<path d="M478.294 135.06H477.502V141.341H478.294V135.06Z" fill="white"/>
<path d="M480.536 135.06H479.745V138.78C479.745 139.759 479.867 140.22 480.253 140.663C480.677 141.171 481.346 141.454 482.081 141.454C482.797 141.454 483.428 141.19 483.852 140.71C484.258 140.258 484.408 139.721 484.408 138.78V135.06H483.598V138.78C483.598 139.618 483.513 139.938 483.174 140.267C482.901 140.55 482.458 140.729 482.062 140.729C481.667 140.729 481.214 140.559 480.951 140.305C480.649 140.004 480.536 139.599 480.536 138.798V135.06Z" fill="white"/>
<path d="M486.322 140.71L488.555 137H485.361V137.631H487.377L485.116 141.341H488.319V140.71H486.322Z" fill="white"/>
<path d="M490.264 135.06H489.472V141.341H490.264V135.06Z" fill="white"/>
<path d="M493.476 136.2V141.341H494.221V135.013L492.091 136.407V137.122L493.476 136.2Z" fill="white"/>
<path d="M497.33 136.539L500.712 141.341H501.409V135.06H500.618V139.787L497.264 135.06H496.538V141.341H497.33V136.539Z" fill="white"/>
<path d="M503.62 137H502.904V141.341H503.62V137ZM503.271 135.314C503.007 135.314 502.809 135.512 502.809 135.776C502.809 136.04 503.007 136.237 503.262 136.237C503.516 136.237 503.723 136.04 503.723 135.785C503.723 135.522 503.525 135.314 503.271 135.314Z" fill="white"/>
<path d="M505.914 135.06H505.123V141.341H505.914V135.06Z" fill="white"/>
<path d="M510.135 138.186C510.097 137.367 509.541 136.896 508.618 136.896C507.704 136.896 507.092 137.405 507.092 138.158C507.092 138.817 507.516 139.213 508.458 139.467C509.202 139.655 509.447 139.844 509.447 140.22C509.447 140.606 509.127 140.861 508.637 140.861C508.09 140.861 507.77 140.597 507.723 140.107H507.016C507.092 140.983 507.647 141.444 508.637 141.444C509.56 141.444 510.182 140.936 510.182 140.183C510.182 139.862 510.05 139.552 509.833 139.335C509.626 139.128 509.334 138.987 508.778 138.836C507.996 138.62 507.808 138.478 507.808 138.102C507.808 137.725 508.109 137.48 508.59 137.48C509.089 137.48 509.419 137.734 509.419 138.139V138.186H510.135Z" fill="white"/>
<path d="M512.143 135.06H511.351V141.341H512.143V135.06Z" fill="white"/>
<path d="M513.641 137V141.341H514.357V138.695C514.357 138.337 514.432 138.13 514.639 137.904C514.856 137.659 515.148 137.537 515.468 137.537C515.761 137.537 516.015 137.65 516.147 137.829C516.26 137.979 516.307 138.186 516.307 138.572V141.341H517.023V138.412C517.023 137.819 516.929 137.518 516.656 137.254C516.401 137.028 516.043 136.896 515.647 136.896C515.11 136.896 514.734 137.104 514.357 137.612V137H513.641Z" fill="white"/>
<path d="M519.292 138.704L521.732 141.341H522.74L520.3 138.732C520.874 138.695 521.157 138.629 521.458 138.469C522.043 138.158 522.363 137.593 522.363 136.887C522.363 135.748 521.553 135.06 520.215 135.06H518.5V141.341H519.292V138.704ZM519.292 138.168V135.738H520.215C521.082 135.738 521.553 136.162 521.553 136.943C521.553 137.734 521.035 138.168 520.083 138.168H519.292Z" fill="white"/>
<path d="M526.476 135.06H523.744V138.61C524.149 138.196 524.648 137.97 525.138 137.97C525.967 137.97 526.533 138.507 526.533 139.307C526.533 140.079 525.958 140.663 525.204 140.663C524.856 140.663 524.507 140.54 524.309 140.343C524.205 140.248 524.14 140.135 523.989 139.862L523.31 140.117C523.631 140.945 524.3 141.407 525.185 141.407C526.42 141.407 527.305 140.531 527.305 139.326C527.305 138.149 526.476 137.282 525.374 137.282C525.053 137.282 524.771 137.339 524.45 137.461V135.776H526.476V135.06Z" fill="white"/>
<path d="M531.356 140.314C531.008 140.644 530.669 140.785 530.245 140.785C529.397 140.785 528.803 140.117 528.803 139.156C528.803 138.215 529.397 137.555 530.254 137.555C530.659 137.555 531.027 137.706 531.356 138.007L531.818 137.546C531.366 137.104 530.857 136.896 530.235 136.896C528.963 136.896 528.068 137.838 528.068 139.184C528.068 140.503 528.954 141.444 530.198 141.444C530.829 141.444 531.309 141.247 531.799 140.804L531.356 140.314Z" fill="white"/>
<path d="M537.188 139.862C536.699 140.456 536.171 140.729 535.483 140.729C534.183 140.729 533.231 139.665 533.231 138.205C533.231 136.736 534.164 135.672 535.446 135.672C536.114 135.672 536.576 135.898 537.188 136.529L537.735 136.021C537.424 135.682 537.254 135.531 537 135.371C536.548 135.098 535.992 134.947 535.427 134.947C533.693 134.947 532.421 136.322 532.421 138.205C532.421 139.081 532.732 139.938 533.26 140.531C533.797 141.134 534.541 141.454 535.417 141.454C536.388 141.454 537.085 141.134 537.716 140.39L537.188 139.862Z" fill="white"/>
<path d="M539.514 135.06H538.723V141.341H539.514V135.06Z" fill="white"/>
<path d="M543.801 135.154H542.925L541.126 138.045C540.767 138.62 540.645 138.968 540.645 139.429C540.645 140.569 541.512 141.454 542.633 141.454C543.745 141.454 544.659 140.54 544.659 139.429C544.659 138.365 543.848 137.546 542.803 137.546C542.576 137.546 542.454 137.574 542.19 137.668L543.801 135.154ZM542.671 138.186C543.368 138.186 543.924 138.751 543.924 139.458C543.924 140.173 543.358 140.748 542.652 140.748C541.945 140.748 541.389 140.164 541.389 139.429C541.389 138.732 541.955 138.186 542.671 138.186Z" fill="white"/>
<path d="M546.58 135.06H545.789V141.341H546.58V135.06Z" fill="white"/>
<path d="M548.795 139.401L550.528 141.341H551.423L549.492 139.119L551.433 137H550.528L548.795 138.902V135.06H548.079V141.341H548.795V139.401Z" fill="white"/>
<path d="M552.219 137V143.375H552.935V140.663C553.17 140.973 553.302 141.086 553.566 141.218C553.868 141.369 554.178 141.444 554.518 141.444C555.724 141.444 556.562 140.503 556.562 139.137C556.562 137.819 555.724 136.896 554.518 136.896C553.792 136.896 553.349 137.151 552.935 137.791V137H552.219ZM554.395 137.537C554.781 137.537 555.168 137.706 555.422 137.989C555.676 138.271 555.799 138.657 555.799 139.166C555.799 140.154 555.224 140.823 554.367 140.823C553.509 140.823 552.935 140.192 552.935 139.241C552.935 138.224 553.528 137.537 554.395 137.537Z" fill="white"/>
<path d="M559.55 138.836L561.161 141.341H562.075L560.002 138.139L562.019 135.06H561.095L559.55 137.443L558.015 135.06H557.063L559.089 138.139L556.988 141.341H557.949L559.55 138.836Z" fill="white"/>
<path d="M564.692 140.051L563.006 135.06H562.177L564.296 141.341H565.069L567.255 135.06H566.416L564.692 140.051Z" fill="white"/>
<path d="M572.316 139.862C571.826 140.456 571.299 140.729 570.611 140.729C569.311 140.729 568.359 139.665 568.359 138.205C568.359 136.736 569.292 135.672 570.573 135.672C571.242 135.672 571.704 135.898 572.316 136.529L572.863 136.021C572.552 135.682 572.382 135.531 572.128 135.371C571.676 135.098 571.12 134.947 570.554 134.947C568.821 134.947 567.549 136.322 567.549 138.205C567.549 139.081 567.86 139.938 568.388 140.531C568.925 141.134 569.669 141.454 570.545 141.454C571.515 141.454 572.213 141.134 572.844 140.39L572.316 139.862Z" fill="white"/>
<path d="M575.979 135.06H573.369V135.738H575.187V138.958C575.187 139.778 575.093 140.135 574.792 140.399C574.556 140.597 574.217 140.7 573.755 140.7C573.652 140.7 573.557 140.7 573.369 140.682V141.369C573.501 141.378 573.614 141.378 573.68 141.378C574.236 141.378 574.679 141.312 574.98 141.171C575.649 140.87 575.979 140.286 575.979 139.401V135.06Z" fill="white"/>
<path d="M577.892 141.341H578.768L580.577 138.384C580.888 137.866 581.01 137.499 581.01 137.019C581.01 135.898 580.162 135.041 579.032 135.041C577.892 135.041 576.997 135.927 576.997 137.047C576.997 138.12 577.816 138.949 578.871 138.949C579.088 138.949 579.211 138.921 579.474 138.827L577.892 141.341ZM579.032 135.738C579.719 135.738 580.266 136.303 580.266 137.028C580.266 137.744 579.719 138.29 578.994 138.29C578.287 138.29 577.741 137.725 577.741 137.019C577.741 136.303 578.316 135.738 579.032 135.738Z" fill="white"/>
<path d="M582.442 140.437C582.159 140.437 581.952 140.644 581.952 140.926C581.952 141.209 582.159 141.416 582.442 141.416C582.715 141.416 582.932 141.209 582.932 140.936C582.932 140.644 582.725 140.437 582.442 140.437Z" fill="white"/>
<path d="M588.288 139.401C588.297 139.297 588.297 139.175 588.297 139.119C588.297 137.847 587.355 136.896 586.092 136.896C584.82 136.896 583.907 137.847 583.907 139.184C583.907 140.503 584.83 141.444 586.121 141.444C586.95 141.444 587.694 141.002 588.052 140.277L587.421 140.041C587.166 140.493 586.658 140.785 586.121 140.785C585.65 140.785 585.235 140.578 584.952 140.192C584.773 139.957 584.707 139.768 584.67 139.401H588.288ZM584.679 138.874C584.736 138.525 584.792 138.346 584.924 138.139C585.178 137.763 585.612 137.537 586.092 137.537C586.573 137.537 587.016 137.763 587.289 138.13C587.44 138.346 587.506 138.535 587.534 138.874H584.679Z" fill="white"/>
<path d="M590.486 140.22L589.318 137H588.555L590.1 141.209L589.195 143.431H589.977L592.568 137H591.786L590.486 140.22Z" fill="white"/>
<path d="M595.484 135.06H592.874V135.738H594.693V138.958C594.693 139.778 594.598 140.135 594.297 140.399C594.061 140.597 593.722 140.7 593.261 140.7C593.157 140.7 593.063 140.7 592.874 140.682V141.369C593.006 141.378 593.119 141.378 593.185 141.378C593.741 141.378 594.184 141.312 594.485 141.171C595.154 140.87 595.484 140.286 595.484 139.401V135.06Z" fill="white"/>
<path d="M597.566 140.71L599.799 137H596.605V137.631H598.622L596.36 141.341H599.564V140.71H597.566Z" fill="white"/>
<path d="M603.901 137.659C603.477 137.132 602.987 136.896 602.346 136.896C601.169 136.896 600.302 137.876 600.302 139.194C600.302 140.512 601.15 141.444 602.346 141.444C603.006 141.444 603.468 141.19 603.901 140.597V141.341H604.617V135.06H603.901V137.659ZM602.497 137.537C603.326 137.537 603.901 138.205 603.901 139.184C603.901 140.126 603.289 140.823 602.45 140.823C601.63 140.823 601.056 140.154 601.056 139.203C601.056 138.215 601.64 137.537 602.497 137.537Z" fill="white"/>
<path d="M611.148 139.891L609.801 135.06H609.057L607.662 139.872L606.23 135.06H605.392L607.314 141.341H608.011L609.405 136.407L610.79 141.341H611.487L613.409 135.06H612.59L611.148 139.891Z" fill="white"/>
<path d="M615.033 135.06H614.241V141.341H615.033V135.06Z" fill="white"/>
<path d="M617.247 137H616.531V141.341H617.247V137ZM616.898 135.314C616.634 135.314 616.437 135.512 616.437 135.776C616.437 136.04 616.634 136.237 616.889 136.237C617.143 136.237 617.35 136.04 617.35 135.785C617.35 135.522 617.153 135.314 616.898 135.314Z" fill="white"/>
<path d="M621.491 134.947C619.711 134.947 618.382 136.36 618.382 138.233C618.382 139.024 618.608 139.731 619.042 140.277C619.626 141.011 620.54 141.454 621.472 141.454C622.198 141.454 622.914 141.19 623.479 140.7C624.167 140.117 624.544 139.241 624.544 138.262C624.544 137.32 624.318 136.623 623.809 136.03C623.206 135.343 622.368 134.947 621.491 134.947ZM621.472 135.682C622.028 135.682 622.603 135.927 623.018 136.331C623.508 136.802 623.734 137.414 623.734 138.252C623.734 138.893 623.498 139.571 623.131 139.975C622.707 140.456 622.085 140.729 621.454 140.729C620.153 140.729 619.193 139.665 619.193 138.205C619.193 136.755 620.163 135.682 621.472 135.682Z" fill="white"/>
<path d="M626.392 137H625.676V141.341H626.392V137ZM626.044 135.314C625.78 135.314 625.582 135.512 625.582 135.776C625.582 136.04 625.78 136.237 626.034 136.237C626.289 136.237 626.496 136.04 626.496 135.785C626.496 135.522 626.298 135.314 626.044 135.314Z" fill="white"/>
<path d="M628.686 135.06H627.895V141.341H628.686V135.06Z" fill="white"/>
<path d="M631.569 139.768L632.681 141.341H633.557L631.993 139.184L633.633 137H632.757L631.569 138.591L630.411 137H629.506L631.136 139.184L629.534 141.341H630.411L631.569 139.768Z" fill="white"/>
<path d="M635.246 136.736L637.564 141.407L639.901 136.746V141.341H640.692V135.06H639.92L637.564 139.768L635.237 135.06H634.455V141.341H635.246V136.736Z" fill="white"/>
<path d="M642.907 137H642.191V141.793C642.182 142.405 641.871 142.781 641.362 142.8H641.259V143.478H641.447C641.89 143.478 642.276 143.318 642.54 143.026C642.804 142.744 642.907 142.386 642.907 141.793V137ZM642.559 135.314C642.295 135.314 642.097 135.512 642.097 135.776C642.097 136.04 642.295 136.237 642.549 136.237C642.804 136.237 643.011 136.04 643.011 135.785C643.011 135.522 642.813 135.314 642.559 135.314Z" fill="white"/>
<path d="M645.202 136.736L647.519 141.407L649.856 136.746V141.341H650.647V135.06H649.875L647.519 139.768L645.192 135.06H644.41V141.341H645.202V136.736Z" fill="white"/>
<path d="M655.651 136.953C655.651 136.218 655.519 135.842 655.161 135.512C654.813 135.201 654.341 135.041 653.767 135.041C653.126 135.041 652.608 135.249 652.297 135.625C652.014 135.964 651.92 136.35 651.92 137.169V139.241C651.92 140.192 652.005 140.55 652.335 140.898C652.664 141.256 653.173 141.444 653.786 141.444C654.379 141.444 654.878 141.265 655.208 140.917C655.519 140.587 655.651 140.154 655.651 139.448V136.953ZM652.664 137.188C652.664 136.642 652.702 136.426 652.862 136.2C653.041 135.908 653.39 135.748 653.795 135.748C654.106 135.748 654.389 135.851 654.596 136.04C654.831 136.266 654.916 136.51 654.916 137V139.401C654.916 139.862 654.86 140.126 654.718 140.333C654.539 140.587 654.181 140.748 653.795 140.748C653.437 140.748 653.098 140.606 652.9 140.38C652.693 140.145 652.664 140.013 652.664 139.288V137.188Z" fill="white"/>
<path d="M657.714 136.539L661.097 141.341H661.794V135.06H661.002V139.787L657.648 135.06H656.923V141.341H657.714V136.539Z" fill="white"/>
<path d="M665.032 135.738H666.624V135.06H662.639V135.738H664.24V141.341H665.032V135.738Z" fill="white"/>
<path d="M670.001 138.572L672.139 135.06H671.197L669.595 137.753L667.975 135.06H667.042L669.209 138.572V141.341H670.001V138.572Z" fill="white"/>
<path d="M674.959 135.832L673.141 138.111L673.452 138.384C673.725 138.224 673.913 138.168 674.205 138.168C675.025 138.168 675.59 138.695 675.59 139.448C675.59 140.183 674.987 140.757 674.224 140.757C673.64 140.757 673.197 140.418 673.028 139.815L672.349 139.938C672.566 140.889 673.273 141.444 674.262 141.444C675.458 141.444 676.344 140.569 676.344 139.392C676.344 138.281 675.571 137.499 674.479 137.499L676.325 135.154H672.764V135.832H674.959Z" fill="white"/>
<path d="M680.32 134.947C678.539 134.947 677.211 136.36 677.211 138.233C677.211 139.024 677.437 139.731 677.87 140.277C678.454 141.011 679.368 141.454 680.301 141.454C681.026 141.454 681.742 141.19 682.308 140.7C682.996 140.117 683.372 139.241 683.372 138.262C683.372 137.32 683.146 136.623 682.638 136.03C682.035 135.343 681.196 134.947 680.32 134.947ZM680.301 135.682C680.857 135.682 681.432 135.927 681.846 136.331C682.336 136.802 682.562 137.414 682.562 138.252C682.562 138.893 682.327 139.571 681.959 139.975C681.535 140.456 680.913 140.729 680.282 140.729C678.982 140.729 678.021 139.665 678.021 138.205C678.021 136.755 678.991 135.682 680.301 135.682Z" fill="white"/>
<path d="M684.571 141.341H686.097C687.011 141.341 687.736 141.105 688.283 140.616C688.923 140.041 689.272 139.166 689.272 138.102C689.272 136.209 688.132 135.06 686.238 135.06H684.571V141.341ZM685.362 135.729H686.21C687.651 135.729 688.462 136.595 688.462 138.111C688.462 139.043 688.179 139.74 687.614 140.192C687.162 140.55 686.709 140.663 685.645 140.663H685.362V135.729Z" fill="white"/>
<path d="M691.118 139.401L692.852 141.341H693.747L691.815 139.119L693.756 137H692.852L691.118 138.902V135.06H690.402V141.341H691.118V139.401Z" fill="white"/>
<path d="M699.868 137L698.728 140.192L697.748 137H697.041L696.042 140.192L694.931 137H694.196L695.684 141.341H696.363L697.409 138.045L698.407 141.341H699.057L700.602 137H699.868Z" fill="white"/>
<path d="M702.236 135.06H701.445V141.341H702.236V135.06Z" fill="white"/>
<path d="M704.45 137H703.734V141.341H704.45V137ZM704.101 135.314C703.838 135.314 703.64 135.512 703.64 135.776C703.64 136.04 703.838 136.237 704.092 136.237C704.346 136.237 704.554 136.04 704.554 135.785C704.554 135.522 704.356 135.314 704.101 135.314Z" fill="white"/>
<path d="M433.621 148.299L432.481 151.491L431.501 148.299H430.795L429.796 151.491L428.684 148.299H427.949L429.438 152.64H430.116L431.162 149.344L432.161 152.64H432.811L434.356 148.299H433.621Z" fill="white"/>
<path d="M435.83 148.299H435.114V152.64H435.83V148.299ZM435.481 146.614C435.217 146.614 435.02 146.811 435.02 147.075C435.02 147.339 435.217 147.536 435.472 147.536C435.726 147.536 435.933 147.339 435.933 147.084C435.933 146.821 435.736 146.614 435.481 146.614Z" fill="white"/>
<path d="M437.983 151.896C438.407 152.489 438.878 152.743 439.547 152.743C440.734 152.743 441.572 151.811 441.572 150.484C441.572 149.137 440.724 148.196 439.509 148.196C438.878 148.196 438.416 148.45 437.983 149.043V146.359H437.267V152.64H437.983V151.896ZM439.415 148.836C440.234 148.836 440.819 149.533 440.819 150.502C440.819 151.472 440.244 152.122 439.387 152.122C438.539 152.122 437.973 151.463 437.973 150.474C437.973 149.523 438.586 148.836 439.415 148.836Z" fill="white"/>
<path d="M442.667 148.299V152.64H443.383V150.041C443.383 149.288 443.76 148.836 444.392 148.836C444.712 148.836 444.976 148.968 445.098 149.212C445.202 149.401 445.239 149.617 445.239 150.041V152.64H445.956V150.032C445.956 149.26 446.304 148.836 446.935 148.836C447.275 148.836 447.557 148.977 447.689 149.203C447.793 149.382 447.812 149.504 447.812 150.032V152.64H448.528V149.862C448.528 149.175 448.471 148.93 448.264 148.657C448.038 148.356 447.661 148.196 447.161 148.196C446.511 148.196 446.106 148.431 445.786 148.987C445.588 148.45 445.211 148.196 444.618 148.196C444.081 148.196 443.713 148.403 443.383 148.902V148.299H442.667Z" fill="white"/>
<path d="M450.802 147.037H453.252V146.359H450.011V152.64H450.802V149.815H453.252V149.137H450.802V147.037Z" fill="white"/>
<path d="M455.005 148.93H455.664V148.299H455.005V146.934H454.289V148.299H453.686V148.93H454.289V151.962C454.289 152.442 454.487 152.63 454.995 152.64H455.664V152.018H455.335C455.071 152.018 455.014 151.971 455.005 151.755V148.93Z" fill="white"/>
<path d="M457.396 151.962L460.948 146.359H456.482V147.037H459.638L456.086 152.64H460.58V151.962H457.396Z" fill="white"/>
<path d="M461.401 150.954V151.086C461.401 151.388 461.467 151.651 461.617 151.905C461.947 152.47 462.494 152.753 463.294 152.753C464.472 152.753 465.273 152.018 465.273 150.936C465.273 150.512 465.122 150.116 464.849 149.825C464.594 149.551 464.274 149.382 463.605 149.147C462.965 148.921 462.795 148.845 462.597 148.704C462.371 148.544 462.239 148.28 462.239 147.979C462.239 147.376 462.682 146.953 463.304 146.953C463.709 146.953 464.057 147.122 464.236 147.395C464.34 147.574 464.378 147.725 464.387 148.045H465.179C465.15 146.953 464.425 146.246 463.313 146.246C462.201 146.246 461.438 146.971 461.438 148.035C461.438 148.516 461.608 148.93 461.928 149.222C462.211 149.476 462.456 149.599 463.2 149.853C464.189 150.182 464.472 150.437 464.472 150.983C464.472 151.614 463.973 152.047 463.266 152.047C462.578 152.047 462.192 151.67 462.154 150.954H461.401Z" fill="white"/>
<path d="M467.235 146.359H466.443V152.64H467.235V146.359Z" fill="white"/>
<path d="M471.521 146.454H470.645L468.846 149.344C468.488 149.919 468.365 150.267 468.365 150.728C468.365 151.868 469.232 152.753 470.353 152.753C471.465 152.753 472.379 151.84 472.379 150.728C472.379 149.664 471.569 148.845 470.523 148.845C470.297 148.845 470.174 148.874 469.91 148.968L471.521 146.454ZM470.391 149.486C471.088 149.486 471.644 150.051 471.644 150.757C471.644 151.472 471.079 152.047 470.372 152.047C469.665 152.047 469.11 151.463 469.11 150.728C469.11 150.032 469.675 149.486 470.391 149.486Z" fill="white"/>
<path d="M474.301 146.359H473.509V152.64H474.301V146.359Z" fill="white"/>
<path d="M476.515 150.7L478.248 152.64H479.143L477.212 150.418L479.153 148.299H478.248L476.515 150.201V146.359H475.799V152.64H476.515V150.7Z" fill="white"/>
<path d="M480.655 152.64V146.359H479.939V152.64H480.655Z" fill="white"/>
<path d="M484.617 148.299V151.077C484.617 151.425 484.57 151.604 484.428 151.774C484.249 151.981 483.957 152.103 483.656 152.103C483.081 152.103 482.685 151.67 482.685 151.058V148.299H481.969V151.077C481.969 151.604 482.111 152 482.403 152.282C482.714 152.574 483.166 152.743 483.656 152.743C484.146 152.743 484.589 152.583 484.909 152.292C485.229 152 485.342 151.67 485.342 151.077V148.299H484.617Z" fill="white"/>
<path d="M487.381 151.962L490.933 146.359H486.467V147.037H489.623L486.071 152.64H490.565V151.962H487.381Z" fill="white"/>
<path d="M491.743 148.299V152.64H492.459V149.994C492.459 149.636 492.535 149.429 492.742 149.203C492.959 148.958 493.251 148.836 493.571 148.836C493.863 148.836 494.118 148.949 494.249 149.128C494.362 149.278 494.41 149.486 494.41 149.872V152.64H495.126V149.712C495.126 149.118 495.031 148.817 494.758 148.553C494.504 148.327 494.146 148.196 493.75 148.196C493.213 148.196 492.836 148.403 492.459 148.911V148.299H491.743Z" fill="white"/>
<path d="M498.383 151.35L496.697 146.359H495.868L497.988 152.64H498.76L500.946 146.359H500.108L498.383 151.35Z" fill="white"/>
<path d="M502.979 151.519L501.811 148.299H501.048L502.593 152.508L501.689 154.73H502.471L505.062 148.299H504.28L502.979 151.519Z" fill="white"/>
<path d="M508.64 151.614C508.292 151.943 507.952 152.084 507.528 152.084C506.68 152.084 506.087 151.416 506.087 150.455C506.087 149.514 506.68 148.855 507.538 148.855C507.943 148.855 508.31 149.005 508.64 149.307L509.102 148.845C508.65 148.403 508.141 148.196 507.519 148.196C506.247 148.196 505.352 149.137 505.352 150.484C505.352 151.802 506.238 152.743 507.481 152.743C508.113 152.743 508.593 152.546 509.083 152.103L508.64 151.614Z" fill="white"/>
<path d="M510.007 148.299V152.64H510.723V150.041C510.723 149.288 511.099 148.836 511.731 148.836C512.051 148.836 512.315 148.968 512.437 149.212C512.541 149.401 512.579 149.617 512.579 150.041V152.64H513.295V150.032C513.295 149.26 513.643 148.836 514.274 148.836C514.614 148.836 514.896 148.977 515.028 149.203C515.132 149.382 515.151 149.504 515.151 150.032V152.64H515.867V149.862C515.867 149.175 515.81 148.93 515.603 148.657C515.377 148.356 515 148.196 514.501 148.196C513.85 148.196 513.445 148.431 513.125 148.987C512.927 148.45 512.55 148.196 511.957 148.196C511.42 148.196 511.052 148.403 510.723 148.902V148.299H510.007Z" fill="white"/>
<path d="M518.066 147.037H520.544V146.359H517.275V152.64H520.544V151.962H518.066V149.815H520.544V149.137H518.066V147.037Z" fill="white"/>
<path d="M522.389 148.299H521.673V152.64H522.389V148.299ZM522.04 146.614C521.776 146.614 521.579 146.811 521.579 147.075C521.579 147.339 521.776 147.536 522.031 147.536C522.285 147.536 522.492 147.339 522.492 147.084C522.492 146.821 522.295 146.614 522.04 146.614Z" fill="white"/>
<path d="M524.683 151.924V146.359H523.892V152.64H526.897V151.924H524.683Z" fill="white"/>
<path d="M531.917 151.162C531.427 151.755 530.899 152.028 530.211 152.028C528.911 152.028 527.96 150.964 527.96 149.504C527.96 148.035 528.892 146.971 530.174 146.971C530.843 146.971 531.304 147.197 531.917 147.828L532.463 147.32C532.152 146.981 531.982 146.83 531.728 146.67C531.276 146.397 530.72 146.246 530.155 146.246C528.421 146.246 527.149 147.621 527.149 149.504C527.149 150.38 527.46 151.237 527.988 151.83C528.525 152.433 529.269 152.753 530.145 152.753C531.116 152.753 531.813 152.433 532.444 151.689L531.917 151.162Z" fill="white"/>
<path d="M535.579 146.359H532.969V147.037H534.788V150.258C534.788 151.077 534.693 151.435 534.392 151.698C534.156 151.896 533.817 152 533.356 152C533.252 152 533.158 152 532.969 151.981V152.668C533.101 152.678 533.214 152.678 533.28 152.678C533.836 152.678 534.279 152.612 534.58 152.47C535.249 152.169 535.579 151.585 535.579 150.7V146.359Z" fill="white"/>
<path d="M536.964 148.299V154.674H537.68V151.962C537.916 152.273 538.048 152.386 538.311 152.518C538.613 152.668 538.924 152.743 539.263 152.743C540.469 152.743 541.307 151.802 541.307 150.437C541.307 149.118 540.469 148.196 539.263 148.196C538.538 148.196 538.095 148.45 537.68 149.09V148.299H536.964ZM539.141 148.836C539.527 148.836 539.913 149.005 540.167 149.288C540.422 149.57 540.544 149.956 540.544 150.465C540.544 151.453 539.97 152.122 539.112 152.122C538.255 152.122 537.68 151.491 537.68 150.54C537.68 149.523 538.274 148.836 539.141 148.836Z" fill="white"/>
<path d="M544.578 149.872L546.717 146.359H545.775L544.173 149.052L542.553 146.359H541.62L543.787 149.872V152.64H544.578V149.872Z" fill="white"/>
<path d="M549.641 150.135L551.252 152.64H552.166L550.093 149.438L552.11 146.359H551.186L549.641 148.742L548.106 146.359H547.154L549.18 149.438L547.079 152.64H548.04L549.641 150.135Z" fill="white"/>
<path d="M558.641 152.329L557.944 151.576C558.415 150.945 558.622 150.314 558.622 149.476C558.622 147.631 557.303 146.246 555.551 146.246C553.77 146.246 552.451 147.649 552.451 149.533C552.451 150.408 552.706 151.143 553.205 151.698C553.799 152.357 554.665 152.753 555.523 152.753C556.239 152.753 556.813 152.546 557.426 152.075L558.095 152.828L558.641 152.329ZM556.964 150.512L556.427 150.983L556.889 151.501C556.446 151.877 556.06 152.018 555.513 152.018C554.213 152.018 553.262 150.964 553.262 149.495C553.262 148.855 553.441 148.28 553.761 147.866C554.185 147.31 554.854 146.981 555.542 146.981C556.842 146.981 557.803 148.054 557.803 149.514C557.803 150.088 557.69 150.502 557.416 151.002L556.964 150.512Z" fill="white"/>
<path d="M560.488 148.299H559.772V152.64H560.488V148.299ZM560.14 146.614C559.876 146.614 559.678 146.811 559.678 147.075C559.678 147.339 559.876 147.536 560.13 147.536C560.385 147.536 560.592 147.339 560.592 147.084C560.592 146.821 560.394 146.614 560.14 146.614Z" fill="white"/>
<path d="M564.733 146.246C562.952 146.246 561.624 147.659 561.624 149.533C561.624 150.324 561.85 151.03 562.283 151.576C562.868 152.31 563.781 152.753 564.714 152.753C565.44 152.753 566.156 152.489 566.721 152C567.409 151.416 567.785 150.54 567.785 149.561C567.785 148.619 567.559 147.923 567.051 147.329C566.448 146.642 565.609 146.246 564.733 146.246ZM564.714 146.981C565.27 146.981 565.845 147.226 566.259 147.631C566.749 148.101 566.975 148.713 566.975 149.551C566.975 150.192 566.74 150.87 566.372 151.275C565.948 151.755 565.326 152.028 564.695 152.028C563.395 152.028 562.434 150.964 562.434 149.504C562.434 148.054 563.405 146.981 564.714 146.981Z" fill="white"/>
<path d="M569.634 148.299H568.918V153.092C568.908 153.704 568.597 154.081 568.089 154.099H567.985V154.777H568.174C568.616 154.777 569.003 154.617 569.266 154.325C569.53 154.043 569.634 153.685 569.634 153.092V148.299ZM569.285 146.614C569.021 146.614 568.824 146.811 568.824 147.075C568.824 147.339 569.021 147.536 569.276 147.536C569.53 147.536 569.737 147.339 569.737 147.084C569.737 146.821 569.54 146.614 569.285 146.614Z" fill="white"/>
<path d="M571.853 147.037H574.331V146.359H571.061V152.64H574.331V151.962H571.853V149.815H574.331V149.137H571.853V147.037Z" fill="white"/>
<path d="M577.239 147.499V152.64H577.983V146.312L575.854 147.706V148.422L577.239 147.499Z" fill="white"/>
<path d="M581.092 148.035L583.41 152.706L585.746 148.045V152.64H586.537V146.359H585.765L583.41 151.067L581.082 146.359H580.3V152.64H581.092V148.035Z" fill="white"/>
<path d="M589.78 147.037H591.372V146.359H587.387V147.037H588.989V152.64H589.78V147.037Z" fill="white"/>
<path d="M594.749 149.872L596.888 146.359H595.946L594.344 149.052L592.723 146.359H591.791L593.958 149.872V152.64H594.749V149.872Z" fill="white"/>
<path d="M598.822 151.519L597.654 148.299H596.891L598.436 152.508L597.531 154.73H598.313L600.904 148.299H600.122L598.822 151.519Z" fill="white"/>
<path d="M602.538 148.035L604.856 152.706L607.193 148.045V152.64H607.984V146.359H607.211L604.856 151.067L602.529 146.359H601.747V152.64H602.538V148.035Z" fill="white"/>
<path d="M610.18 152.009L612.413 148.299H609.219V148.93H611.236L608.974 152.64H612.178V152.009H610.18Z" fill="white"/>
<path d="M613.981 150.7L615.714 152.64H616.609L614.678 150.418L616.619 148.299H615.714L613.981 150.201V146.359H613.265V152.64H613.981V150.7Z" fill="white"/>
<path d="M622.73 148.299L621.59 151.491L620.61 148.299H619.903L618.905 151.491L617.793 148.299H617.058L618.547 152.64H619.225L620.271 149.344L621.27 152.64H621.92L623.465 148.299H622.73Z" fill="white"/>
<path d="M625.098 148.035L627.416 152.706L629.752 148.045V152.64H630.544V146.359H629.771L627.416 151.067L625.089 146.359H624.307V152.64H625.098V148.035Z" fill="white"/>
<path d="M632.759 148.299H632.043V153.092C632.034 153.704 631.723 154.081 631.214 154.099H631.11V154.777H631.299C631.742 154.777 632.128 154.617 632.392 154.325C632.655 154.043 632.759 153.685 632.759 153.092V148.299ZM632.41 146.614C632.147 146.614 631.949 146.811 631.949 147.075C631.949 147.339 632.147 147.536 632.401 147.536C632.655 147.536 632.863 147.339 632.863 147.084C632.863 146.821 632.665 146.614 632.41 146.614Z" fill="white"/>
<path d="M636.335 146.359H633.725V147.037H635.543V150.258C635.543 151.077 635.449 151.435 635.147 151.698C634.912 151.896 634.573 152 634.111 152C634.008 152 633.913 152 633.725 151.981V152.668C633.857 152.678 633.97 152.678 634.036 152.678C634.592 152.678 635.034 152.612 635.336 152.47C636.005 152.169 636.335 151.585 636.335 150.7V146.359Z" fill="white"/>
<path d="M638.247 152.64H639.124L640.932 149.683C641.243 149.165 641.366 148.798 641.366 148.318C641.366 147.197 640.518 146.341 639.387 146.341C638.247 146.341 637.352 147.226 637.352 148.346C637.352 149.42 638.172 150.248 639.227 150.248C639.444 150.248 639.566 150.22 639.83 150.126L638.247 152.64ZM639.387 147.037C640.075 147.037 640.622 147.602 640.622 148.327C640.622 149.043 640.075 149.589 639.35 149.589C638.643 149.589 638.097 149.024 638.097 148.318C638.097 147.602 638.671 147.037 639.387 147.037Z" fill="white"/>
<path d="M642.798 151.736C642.515 151.736 642.308 151.943 642.308 152.226C642.308 152.508 642.515 152.715 642.798 152.715C643.071 152.715 643.288 152.508 643.288 152.235C643.288 151.943 643.081 151.736 642.798 151.736Z" fill="white"/>
<path d="M645.61 151.953L647.296 149.608C647.824 148.874 648.012 148.412 648.012 147.885C648.012 146.971 647.296 146.331 646.269 146.331C645.148 146.331 644.517 146.99 644.479 148.186H645.186C645.195 147.857 645.223 147.715 645.299 147.536C645.44 147.207 645.789 147.009 646.213 147.009C646.825 147.009 647.258 147.395 647.258 147.941C647.258 148.318 647.117 148.6 646.486 149.514L644.3 152.64H647.824V151.953H645.61Z" fill="white"/>
<path d="M653.787 151.162C653.298 151.755 652.77 152.028 652.082 152.028C650.782 152.028 649.83 150.964 649.83 149.504C649.83 148.035 650.763 146.971 652.044 146.971C652.713 146.971 653.175 147.197 653.787 147.828L654.334 147.32C654.023 146.981 653.853 146.83 653.599 146.67C653.147 146.397 652.591 146.246 652.026 146.246C650.292 146.246 649.02 147.621 649.02 149.504C649.02 150.38 649.331 151.237 649.859 151.83C650.396 152.433 651.14 152.753 652.016 152.753C652.987 152.753 653.684 152.433 654.315 151.689L653.787 151.162Z" fill="white"/>
<path d="M658.9 151.19L659.418 152.64H660.303L657.995 146.359H657.053L654.688 152.64H655.508L656.083 151.19H658.9ZM658.655 150.512H656.318L657.505 147.358L658.655 150.512Z" fill="white"/>
<path d="M663.86 146.454H662.983L661.184 149.344C660.826 149.919 660.703 150.267 660.703 150.728C660.703 151.868 661.57 152.753 662.691 152.753C663.803 152.753 664.717 151.84 664.717 150.728C664.717 149.664 663.907 148.845 662.861 148.845C662.635 148.845 662.512 148.874 662.248 148.968L663.86 146.454ZM662.729 149.486C663.426 149.486 663.982 150.051 663.982 150.757C663.982 151.472 663.417 152.047 662.71 152.047C662.004 152.047 661.448 151.463 661.448 150.728C661.448 150.032 662.013 149.486 662.729 149.486Z" fill="white"/>
<path d="M668.721 151.614C668.372 151.943 668.033 152.084 667.609 152.084C666.761 152.084 666.168 151.416 666.168 150.455C666.168 149.514 666.761 148.855 667.619 148.855C668.024 148.855 668.391 149.005 668.721 149.307L669.183 148.845C668.73 148.403 668.222 148.196 667.6 148.196C666.328 148.196 665.433 149.137 665.433 150.484C665.433 151.802 666.319 152.743 667.562 152.743C668.193 152.743 668.674 152.546 669.164 152.103L668.721 151.614Z" fill="white"/>
<path d="M672.48 149.231C672.801 149.118 672.933 149.034 673.102 148.845C673.328 148.582 673.451 148.243 673.451 147.885C673.451 146.99 672.735 146.341 671.746 146.341C670.747 146.341 670.012 147 670.012 147.894C670.012 148.243 670.125 148.563 670.332 148.817C670.502 149.024 670.643 149.118 670.973 149.231C670.596 149.354 670.436 149.448 670.238 149.655C669.937 149.966 669.767 150.418 669.767 150.917C669.767 151.99 670.568 152.753 671.708 152.753C672.857 152.753 673.677 151.962 673.677 150.851C673.677 150.361 673.517 149.947 673.206 149.636C673.008 149.429 672.838 149.344 672.48 149.231ZM671.746 147C672.283 147 672.744 147.423 672.744 147.913C672.744 148.422 672.264 148.864 671.727 148.864C671.171 148.864 670.728 148.44 670.728 147.904C670.728 147.376 671.143 147 671.746 147ZM671.736 149.627C672.386 149.627 672.923 150.182 672.923 150.841C672.923 151.51 672.386 152.056 671.717 152.056C671.048 152.056 670.511 151.51 670.511 150.841C670.511 150.164 671.058 149.627 671.736 149.627Z" fill="white"/>
<path d="M675.495 152.009L677.728 148.299H674.534V148.93H676.55L674.289 152.64H677.493V152.009H675.495Z" fill="white"/>
<path d="M680.718 146.359H678.108V147.037H679.927V150.258C679.927 151.077 679.833 151.435 679.531 151.698C679.296 151.896 678.956 152 678.495 152C678.391 152 678.297 152 678.108 151.981V152.668C678.24 152.678 678.353 152.678 678.419 152.678C678.975 152.678 679.418 152.612 679.72 152.47C680.388 152.169 680.718 151.585 680.718 150.7V146.359Z" fill="white"/>
<path d="M682.819 150.7L684.553 152.64H685.448L683.517 150.418L685.457 148.299H684.553L682.819 150.201V146.359H682.103V152.64H682.819V150.7Z" fill="white"/>
<path d="M686.96 151.896C687.384 152.489 687.855 152.743 688.524 152.743C689.711 152.743 690.549 151.811 690.549 150.484C690.549 149.137 689.701 148.196 688.486 148.196C687.855 148.196 687.393 148.45 686.96 149.043V146.359H686.244V152.64H686.96V151.896ZM688.392 148.836C689.211 148.836 689.795 149.533 689.795 150.502C689.795 151.472 689.221 152.122 688.363 152.122C687.516 152.122 686.95 151.463 686.95 150.474C686.95 149.523 687.563 148.836 688.392 148.836Z" fill="white"/>
<path d="M693.416 147.037H695.008V146.359H691.023V147.037H692.624V152.64H693.416V147.037Z" fill="white"/>
<path d="M698.309 147.15L696.085 152.64H696.895L699.383 146.454H695.897V147.15H698.309Z" fill="white"/>
<path d="M701.389 146.359H700.598V152.64H701.389V146.359Z" fill="white"/>
<path d="M703.603 148.299H702.887V152.64H703.603V148.299ZM703.255 146.614C702.991 146.614 702.793 146.811 702.793 147.075C702.793 147.339 702.991 147.536 703.245 147.536C703.5 147.536 703.707 147.339 703.707 147.084C703.707 146.821 703.509 146.614 703.255 146.614Z" fill="white"/>
<path d="M428.609 159.598V165.973H429.325V163.261C429.561 163.572 429.692 163.685 429.956 163.817C430.258 163.967 430.569 164.043 430.908 164.043C432.114 164.043 432.952 163.101 432.952 161.736C432.952 160.418 432.114 159.495 430.908 159.495C430.182 159.495 429.74 159.749 429.325 160.389V159.598H428.609ZM430.785 160.135C431.172 160.135 431.558 160.305 431.812 160.587C432.067 160.869 432.189 161.256 432.189 161.764C432.189 162.753 431.614 163.421 430.757 163.421C429.9 163.421 429.325 162.79 429.325 161.839C429.325 160.822 429.919 160.135 430.785 160.135Z" fill="white"/>
<path d="M434.895 161.303L437.335 163.939H438.343L435.903 161.331C436.477 161.293 436.76 161.227 437.062 161.067C437.646 160.756 437.966 160.192 437.966 159.485C437.966 158.346 437.156 157.659 435.818 157.659H434.103V163.939H434.895V161.303ZM434.895 160.766V158.337H435.818C436.685 158.337 437.156 158.76 437.156 159.542C437.156 160.333 436.638 160.766 435.686 160.766H434.895Z" fill="white"/>
<path d="M440.025 163.939V157.659H439.309V163.939H440.025Z" fill="white"/>
<path d="M442.067 163.308L444.3 159.598H441.106V160.229H443.123L440.861 163.939H444.065V163.308H442.067Z" fill="white"/>
<path d="M447.545 160.531C447.865 160.418 447.997 160.333 448.166 160.144C448.393 159.881 448.515 159.542 448.515 159.184C448.515 158.29 447.799 157.64 446.81 157.64C445.811 157.64 445.076 158.299 445.076 159.193C445.076 159.542 445.189 159.862 445.397 160.116C445.566 160.323 445.707 160.418 446.037 160.531C445.66 160.653 445.5 160.747 445.302 160.954C445.001 161.265 444.831 161.717 444.831 162.216C444.831 163.289 445.632 164.052 446.772 164.052C447.921 164.052 448.741 163.261 448.741 162.15C448.741 161.66 448.581 161.246 448.27 160.935C448.072 160.728 447.903 160.644 447.545 160.531ZM446.81 158.299C447.347 158.299 447.808 158.723 447.808 159.212C447.808 159.721 447.328 160.163 446.791 160.163C446.235 160.163 445.792 159.74 445.792 159.203C445.792 158.676 446.207 158.299 446.81 158.299ZM446.8 160.926C447.45 160.926 447.987 161.482 447.987 162.141C447.987 162.809 447.45 163.355 446.782 163.355C446.113 163.355 445.576 162.809 445.576 162.141C445.576 161.463 446.122 160.926 446.8 160.926Z" fill="white"/>
<path d="M453.075 160.342C452.632 159.74 452.189 159.495 451.53 159.495C450.974 159.495 450.503 159.664 450.154 160.003C449.721 160.418 449.467 161.086 449.467 161.783C449.467 163.073 450.324 164.043 451.473 164.043C452.152 164.043 452.651 163.751 453.075 163.11V164.024C453.075 164.476 452.962 164.824 452.745 165.06C452.5 165.323 452.067 165.483 451.615 165.483C451.247 165.483 450.842 165.38 450.597 165.229C450.475 165.144 450.38 165.06 450.183 164.852L449.693 165.342C450.164 165.869 450.804 166.133 451.615 166.133C452.274 166.133 452.83 165.935 453.216 165.559C453.612 165.182 453.791 164.692 453.791 163.967V159.598H453.075V160.342ZM451.662 160.154C452.048 160.154 452.453 160.342 452.717 160.634C452.971 160.917 453.056 161.218 453.056 161.783C453.056 162.216 452.934 162.64 452.745 162.856C452.463 163.186 452.057 163.384 451.643 163.384C450.823 163.384 450.22 162.687 450.22 161.755C450.22 160.813 450.814 160.154 451.662 160.154Z" fill="white"/>
<path d="M458.005 157.659H455.273V161.208C455.678 160.794 456.178 160.568 456.667 160.568C457.497 160.568 458.062 161.105 458.062 161.905C458.062 162.677 457.487 163.261 456.733 163.261C456.385 163.261 456.036 163.139 455.838 162.941C455.735 162.847 455.669 162.734 455.518 162.461L454.84 162.715C455.16 163.544 455.829 164.005 456.715 164.005C457.949 164.005 458.834 163.129 458.834 161.924C458.834 160.747 458.005 159.881 456.903 159.881C456.583 159.881 456.3 159.937 455.98 160.06V158.374H458.005V157.659Z" fill="white"/>
<path d="M460.803 157.659H460.012V163.939H460.803V157.659Z" fill="white"/>
<path d="M462.367 157.659V163.939H464.139C464.93 163.939 465.335 163.854 465.703 163.619C466.127 163.346 466.381 162.837 466.381 162.254C466.381 161.745 466.202 161.321 465.863 161.048C465.665 160.898 465.495 160.832 465.147 160.756C465.486 160.625 465.637 160.531 465.787 160.352C466.023 160.088 466.145 159.73 466.145 159.325C466.145 158.261 465.42 157.659 464.139 157.659H462.367ZM463.159 158.308H463.809C464.384 158.308 464.647 158.346 464.874 158.459C465.175 158.6 465.373 158.958 465.373 159.363C465.373 159.711 465.232 160.031 464.987 160.229C464.76 160.408 464.459 160.474 463.96 160.474L463.159 160.483V158.308ZM463.159 161.124H464.148C465.147 161.124 465.59 161.453 465.59 162.207C465.59 162.621 465.439 162.922 465.137 163.092C464.864 163.252 464.61 163.299 463.95 163.299H463.159V161.124Z" fill="white"/>
<path d="M467.557 163.939H469.083C469.997 163.939 470.722 163.704 471.269 163.214C471.909 162.64 472.258 161.764 472.258 160.7C472.258 158.807 471.118 157.659 469.224 157.659H467.557V163.939ZM468.348 158.327H469.196C470.637 158.327 471.448 159.193 471.448 160.709C471.448 161.642 471.165 162.338 470.6 162.79C470.147 163.148 469.695 163.261 468.631 163.261H468.348V158.327Z" fill="white"/>
<path d="M476.177 157.753H475.301L473.501 160.644C473.143 161.218 473.021 161.566 473.021 162.028C473.021 163.167 473.888 164.052 475.009 164.052C476.12 164.052 477.034 163.139 477.034 162.028C477.034 160.964 476.224 160.144 475.178 160.144C474.952 160.144 474.83 160.173 474.566 160.267L476.177 157.753ZM475.046 160.785C475.744 160.785 476.299 161.35 476.299 162.056C476.299 162.772 475.734 163.346 475.028 163.346C474.321 163.346 473.765 162.762 473.765 162.028C473.765 161.331 474.33 160.785 475.046 160.785Z" fill="white"/>
<path d="M481.641 162.489L482.16 163.939H483.045L480.737 157.659H479.795L477.43 163.939H478.25L478.824 162.489H481.641ZM481.396 161.811H479.06L480.247 158.657L481.396 161.811Z" fill="white"/>
<path d="M486.454 160.54V161.218H488.64C488.574 161.764 488.48 162.075 488.235 162.404C487.849 162.96 487.123 163.327 486.426 163.327C485.145 163.327 484.156 162.225 484.156 160.804C484.156 159.363 485.145 158.271 486.445 158.271C486.897 158.271 487.34 158.412 487.689 158.666C487.858 158.779 487.971 158.892 488.216 159.165L488.81 158.685C488.216 157.941 487.397 157.546 486.445 157.546C484.645 157.546 483.345 158.911 483.345 160.813C483.345 162.687 484.655 164.052 486.445 164.052C487.397 164.052 488.207 163.657 488.81 162.903C489.271 162.32 489.46 161.736 489.46 160.898C489.46 160.841 489.46 160.672 489.45 160.54H486.454Z" fill="white"/>
<path d="M491.546 163.252L493.232 160.907C493.76 160.173 493.948 159.711 493.948 159.184C493.948 158.271 493.232 157.63 492.205 157.63C491.084 157.63 490.453 158.29 490.415 159.485H491.122C491.131 159.156 491.16 159.015 491.235 158.836C491.376 158.506 491.725 158.308 492.149 158.308C492.761 158.308 493.195 158.694 493.195 159.241C493.195 159.617 493.053 159.9 492.422 160.813L490.236 163.939H493.76V163.252H491.546Z" fill="white"/>
<path d="M496.115 158.337H498.565V157.659H495.324V163.939H496.115V161.114H498.565V160.436H496.115V158.337Z" fill="white"/>
<path d="M500.169 163.939V157.659H499.453V163.939H500.169Z" fill="white"/>
<path d="M502.464 159.137L505.846 163.939H506.543V157.659H505.752V162.385L502.398 157.659H501.672V163.939H502.464V159.137Z" fill="white"/>
<path d="M510.195 158.431L508.377 160.709L508.688 160.982C508.961 160.822 509.149 160.766 509.441 160.766C510.261 160.766 510.826 161.293 510.826 162.046C510.826 162.781 510.223 163.355 509.46 163.355C508.876 163.355 508.433 163.016 508.264 162.414L507.585 162.536C507.802 163.487 508.509 164.043 509.498 164.043C510.694 164.043 511.58 163.167 511.58 161.99C511.58 160.879 510.807 160.097 509.715 160.097L511.561 157.753H508V158.431H510.195Z" fill="white"/>
<path d="M513.464 159.598H512.748V163.939H513.464V159.598ZM513.116 157.913C512.852 157.913 512.654 158.111 512.654 158.374C512.654 158.638 512.852 158.836 513.106 158.836C513.361 158.836 513.568 158.638 513.568 158.384C513.568 158.12 513.37 157.913 513.116 157.913Z" fill="white"/>
<path d="M517.841 162.913C517.492 163.242 517.153 163.384 516.729 163.384C515.881 163.384 515.287 162.715 515.287 161.755C515.287 160.813 515.881 160.154 516.738 160.154C517.143 160.154 517.511 160.305 517.841 160.606L518.302 160.144C517.85 159.702 517.341 159.495 516.72 159.495C515.448 159.495 514.553 160.436 514.553 161.783C514.553 163.101 515.438 164.043 516.682 164.043C517.313 164.043 517.794 163.845 518.283 163.402L517.841 162.913Z" fill="white"/>
<path d="M520.064 159.335L522.382 164.005L524.719 159.344V163.939H525.51V157.659H524.737L522.382 162.367L520.055 157.659H519.273V163.939H520.064V159.335Z" fill="white"/>
<path d="M529.817 157.546C528.036 157.546 526.708 158.958 526.708 160.832C526.708 161.623 526.934 162.329 527.367 162.875C527.951 163.61 528.865 164.052 529.798 164.052C530.523 164.052 531.239 163.788 531.805 163.299C532.492 162.715 532.869 161.839 532.869 160.86C532.869 159.918 532.643 159.222 532.134 158.628C531.531 157.941 530.693 157.546 529.817 157.546ZM529.798 158.28C530.354 158.28 530.928 158.525 531.343 158.93C531.833 159.401 532.059 160.013 532.059 160.851C532.059 161.491 531.824 162.169 531.456 162.574C531.032 163.054 530.41 163.327 529.779 163.327C528.479 163.327 527.518 162.263 527.518 160.804C527.518 159.354 528.488 158.28 529.798 158.28Z" fill="white"/>
<path d="M535.716 158.798V163.939H536.461V157.612L534.331 159.005V159.721L535.716 158.798Z" fill="white"/>
<path d="M539.57 161.039L541.953 163.939H542.961L540.342 160.766L542.961 157.659H542.01L539.57 160.549V157.659H538.778V163.939H539.57V161.039Z" fill="white"/>
<path d="M544.554 157.659H543.762V161.378C543.762 162.357 543.885 162.819 544.271 163.261C544.695 163.77 545.364 164.052 546.099 164.052C546.815 164.052 547.446 163.788 547.87 163.308C548.275 162.856 548.426 162.32 548.426 161.378V157.659H547.616V161.378C547.616 162.216 547.531 162.536 547.192 162.866C546.918 163.148 546.476 163.327 546.08 163.327C545.684 163.327 545.232 163.158 544.968 162.903C544.667 162.602 544.554 162.197 544.554 161.397V157.659Z" fill="white"/>
<path d="M553.012 160.342C552.569 159.74 552.126 159.495 551.467 159.495C550.911 159.495 550.44 159.664 550.091 160.003C549.658 160.418 549.403 161.086 549.403 161.783C549.403 163.073 550.261 164.043 551.41 164.043C552.088 164.043 552.588 163.751 553.012 163.11V164.024C553.012 164.476 552.899 164.824 552.682 165.06C552.437 165.323 552.004 165.483 551.551 165.483C551.184 165.483 550.779 165.38 550.534 165.229C550.411 165.144 550.317 165.06 550.119 164.852L549.629 165.342C550.1 165.869 550.741 166.133 551.551 166.133C552.211 166.133 552.767 165.935 553.153 165.559C553.549 165.182 553.728 164.692 553.728 163.967V159.598H553.012V160.342ZM551.598 160.154C551.985 160.154 552.39 160.342 552.654 160.634C552.908 160.917 552.993 161.218 552.993 161.783C552.993 162.216 552.87 162.64 552.682 162.856C552.399 163.186 551.994 163.384 551.58 163.384C550.76 163.384 550.157 162.687 550.157 161.755C550.157 160.813 550.751 160.154 551.598 160.154Z" fill="white"/>
<path d="M554.456 164.598V165.107H559.167V164.598H554.456Z" fill="white"/>
<path d="M559.883 159.598V163.939H560.599V161.293C560.599 160.935 560.674 160.728 560.882 160.502C561.098 160.257 561.39 160.135 561.711 160.135C562.003 160.135 562.257 160.248 562.389 160.427C562.502 160.578 562.549 160.785 562.549 161.171V163.939H563.265V161.011C563.265 160.418 563.171 160.116 562.898 159.853C562.643 159.627 562.285 159.495 561.89 159.495C561.353 159.495 560.976 159.702 560.599 160.21V159.598H559.883Z" fill="white"/>
<path d="M565.421 157.659H564.629V161.378C564.629 162.357 564.752 162.819 565.138 163.261C565.562 163.77 566.231 164.052 566.966 164.052C567.682 164.052 568.313 163.788 568.737 163.308C569.142 162.856 569.293 162.32 569.293 161.378V157.659H568.483V161.378C568.483 162.216 568.398 162.536 568.059 162.866C567.785 163.148 567.343 163.327 566.947 163.327C566.551 163.327 566.099 163.158 565.835 162.903C565.534 162.602 565.421 162.197 565.421 161.397V157.659Z" fill="white"/>
</g>
<path fill-rule="evenodd" clip-rule="evenodd" d="M783.057 146.605H806.856C808.374 146.603 809.83 145.984 810.904 144.885C811.977 143.785 812.581 142.295 812.583 140.74V125.351C812.581 123.797 811.977 122.306 810.903 121.207C809.83 120.108 808.374 119.49 806.856 119.487H783.057C781.539 119.49 780.083 120.108 779.009 121.207C777.936 122.306 777.332 123.797 777.33 125.351V140.741C777.332 142.296 777.936 143.786 779.009 144.885C780.083 145.985 781.539 146.603 783.057 146.605ZM779.507 121.717C780.449 120.753 781.725 120.211 783.057 120.209H788.398L794.604 126.009V128.026C794.604 128.107 794.589 128.188 794.558 128.262C794.528 128.337 794.483 128.405 794.427 128.462C794.371 128.52 794.305 128.565 794.232 128.596C794.158 128.627 794.08 128.642 794.001 128.642H778.034V125.351C778.036 123.988 778.565 122.681 779.507 121.717ZM789.446 120.209H800.466L794.956 125.358L789.446 120.209ZM801.515 120.209H806.856C808.187 120.211 809.464 120.753 810.405 121.717C811.347 122.681 811.877 123.988 811.878 125.351V128.644H800.3C799.953 128.644 799.621 128.786 799.375 129.037C799.13 129.288 798.992 129.628 798.992 129.983V136.724H790.917V129.366H794.001C794.348 129.366 794.681 129.225 794.927 128.974C795.172 128.723 795.311 128.382 795.311 128.026V126.005L801.515 120.209ZM799.342 137.448C799.344 137.448 799.345 137.448 799.347 137.448C799.348 137.448 799.349 137.448 799.35 137.448H811.878V140.74C811.877 142.103 811.347 143.41 810.405 144.374C809.464 145.338 808.187 145.88 806.856 145.882H801.514L795.307 140.082V137.448H799.342ZM799.7 136.724V129.983C799.7 129.82 799.763 129.663 799.876 129.548C799.989 129.432 800.142 129.367 800.301 129.367H811.878V136.724H799.7ZM790.21 129.366V136.724H778.034V129.366H790.21ZM800.466 145.882H789.444L794.955 140.733L800.466 145.882ZM788.396 145.882H783.057C781.725 145.88 780.449 145.338 779.507 144.374C778.565 143.41 778.036 142.103 778.034 140.74V137.448H794.601V140.083L788.396 145.882Z" fill="url(#paint3_linear_137:40)"/>
<path d="M812.583 133.046H826.143V134.402H812.583V133.046Z" fill="white"/>
<path d="M824.787 63.896H826.143V134.403H824.787V63.896Z" fill="url(#paint4_linear_137:40)"/>
<path d="M807.16 86.9458H826.142V88.3017H807.16V86.9458Z" fill="#242424"/>
<path opacity="0.5" d="M808.516 77.4546H824.786V78.8105H808.516V77.4546Z" fill="white"/>
<path opacity="0.5" d="M812.583 73.3867H824.787V74.7426H812.583V73.3867Z" fill="white"/>
<path d="M35.337 62.31V63.222C35.337 65.502 36.249 67.839 37.845 69.606C39.669 71.715 42.405 72.684 46.11 72.684C52.779 72.684 57.453 68.295 57.453 62.025C57.453 59.574 56.598 57.237 55.116 55.527C53.634 53.874 51.81 52.905 47.82 51.48C43.431 49.941 42.063 49.371 40.866 48.402C39.498 47.319 38.757 45.552 38.757 43.557C38.757 39.282 41.892 36.204 46.167 36.204C48.96 36.204 51.354 37.401 52.551 39.339C53.292 40.536 53.52 41.562 53.577 43.785H56.712C56.712 37.401 52.608 33.297 46.224 33.297C39.897 33.297 35.508 37.572 35.508 43.728C35.508 46.578 36.534 49.029 38.415 50.739C40.011 52.221 41.208 52.791 45.825 54.33C52.266 56.382 54.318 58.263 54.318 62.025C54.318 66.642 50.898 69.777 45.825 69.777C42.918 69.777 40.581 68.58 39.441 66.642C38.757 65.445 38.472 64.362 38.358 62.31H35.337ZM84.3931 60.087C84.4501 59.289 84.5071 58.605 84.5071 58.263C84.5071 50.967 78.9211 45.324 71.6251 45.324C64.1011 45.324 58.7431 51.024 58.7431 59.004C58.7431 66.87 64.1011 72.456 71.6251 72.456C76.3561 72.456 80.8021 69.834 82.7401 65.901L80.4031 64.647C78.6361 67.725 75.1591 69.777 71.5681 69.777C68.3761 69.777 65.5261 68.238 63.6451 65.559C62.5051 63.906 62.0491 62.595 61.8211 60.087H84.3931ZM61.9351 57.408C62.2201 55.014 62.6191 53.817 63.4741 52.449C65.1271 49.656 68.2051 48.003 71.5681 48.003C74.9311 48.003 78.0091 49.656 79.8331 52.335C80.8021 53.874 81.2011 55.128 81.3721 57.408H61.9351ZM105.269 66.528C103.103 68.751 100.709 69.777 97.7453 69.777C92.1023 69.777 88.2833 65.331 88.2833 58.776C88.2833 52.392 92.2163 48.003 97.9733 48.003C100.652 48.003 103.103 48.972 105.269 50.967L107.036 49.029C104.528 46.521 101.621 45.324 97.9733 45.324C90.5633 45.324 85.3193 50.91 85.3193 58.89C85.3193 66.87 90.3923 72.456 97.6883 72.456C101.45 72.456 104.243 71.316 107.036 68.58L105.269 66.528ZM124.61 45.78V62.709C124.61 65.217 124.211 66.471 123.185 67.611C121.988 68.922 119.936 69.777 117.941 69.777C113.951 69.777 111.272 66.927 111.272 62.709V45.78H108.422V62.709C108.422 68.58 112.241 72.456 117.998 72.456C120.677 72.456 123.185 71.487 125.009 69.663C126.833 67.896 127.46 66.129 127.46 62.709V45.78H124.61ZM132.347 45.78V72H135.197V58.32C134.912 52.392 138.275 48.117 143.12 48.117H144.089V45.324H142.949C141.011 45.324 139.016 45.951 137.648 47.034C136.622 47.889 136.052 48.63 135.197 50.511V45.78H132.347ZM168.098 60.087C168.155 59.289 168.212 58.605 168.212 58.263C168.212 50.967 162.626 45.324 155.33 45.324C147.806 45.324 142.448 51.024 142.448 59.004C142.448 66.87 147.806 72.456 155.33 72.456C160.061 72.456 164.507 69.834 166.445 65.901L164.108 64.647C162.341 67.725 158.864 69.777 155.273 69.777C152.081 69.777 149.231 68.238 147.35 65.559C146.21 63.906 145.754 62.595 145.526 60.087H168.098ZM145.64 57.408C145.925 55.014 146.324 53.817 147.179 52.449C148.832 49.656 151.91 48.003 155.273 48.003C158.636 48.003 161.714 49.656 163.538 52.335C164.507 53.874 164.906 55.128 165.077 57.408H145.64ZM41.379 77.981H38.13V116H41.379V77.981ZM47.5524 89.78V116H50.4024V99.926C50.4024 97.418 50.9154 96.05 52.5114 94.397C54.0504 92.801 55.9884 92.003 58.2114 92.003C60.1494 92.003 61.8024 92.687 62.6574 93.77C63.4554 94.796 63.7404 96.278 63.7404 99.014V116H66.5904V97.76C66.5904 94.568 66.0204 92.858 64.3674 91.376C62.9424 90.065 60.8904 89.324 58.5534 89.324C55.3614 89.324 52.9104 90.635 50.4024 93.713V89.78H47.5524ZM75.4294 92.459H79.8754V89.78H75.4294V85.163C75.5434 81.686 76.3984 80.774 79.8754 80.375V77.981C79.4194 77.924 79.0774 77.924 78.8494 77.924C77.0824 77.924 75.3724 78.665 74.2324 79.862C73.0924 81.116 72.5794 82.769 72.5794 85.163V89.78H68.6464V92.459H72.5794V116H75.4294V92.459ZM82.4471 89.78V116H85.2971V102.32C85.0121 96.392 88.3751 92.117 93.2201 92.117H94.1891V89.324H93.0491C91.1111 89.324 89.1161 89.951 87.7481 91.034C86.7221 91.889 86.1521 92.63 85.2971 94.511V89.78H82.4471ZM114.55 94.625C112.042 91.034 108.85 89.324 104.689 89.324C97.6206 89.324 92.6046 94.967 92.6046 102.89C92.6046 110.813 97.6776 116.456 104.746 116.456C108.793 116.456 111.928 114.461 114.55 110.186V116H117.4V89.78H114.55V94.625ZM104.917 92.003C110.674 92.003 114.607 96.278 114.607 102.491C114.607 108.704 110.218 113.777 104.746 113.777C99.5016 113.777 95.5686 109.217 95.5686 103.061C95.5686 100.211 96.4236 97.418 97.9056 95.366C99.6156 93.029 101.782 92.003 104.917 92.003ZM138.525 96.677C138.297 92.06 135.048 89.324 129.747 89.324C124.56 89.324 120.969 92.231 120.969 96.506C120.969 98.387 121.824 100.268 123.192 101.465C124.503 102.662 126.156 103.403 129.234 104.144C134.022 105.284 135.789 106.709 135.789 109.331C135.789 112.067 133.452 113.891 129.918 113.891C125.985 113.891 123.534 111.953 123.306 108.704H120.399C120.969 113.891 124.104 116.456 129.804 116.456C135.219 116.456 138.753 113.606 138.753 109.331C138.753 107.507 137.955 105.626 136.701 104.372C135.39 103.004 133.68 102.206 130.146 101.351C125.301 100.154 123.933 99.071 123.933 96.335C123.933 93.656 126.156 91.946 129.69 91.946C133.395 91.946 135.561 93.656 135.561 96.677H138.525ZM145.493 92.459H149.768V89.78H145.493V80.945H142.643V89.78H138.653V92.459H142.643V112.409C142.7 114.974 143.783 116 146.69 116H149.768V113.435H147.374C145.835 113.435 145.55 113.207 145.493 111.896V92.459ZM152.125 89.78V116H154.975V102.32C154.69 96.392 158.053 92.117 162.898 92.117H163.867V89.324H162.727C160.789 89.324 158.794 89.951 157.426 91.034C156.4 91.889 155.83 92.63 154.975 94.511V89.78H152.125ZM181.232 89.78V106.709C181.232 109.217 180.833 110.471 179.807 111.611C178.61 112.922 176.558 113.777 174.563 113.777C170.573 113.777 167.894 110.927 167.894 106.709V89.78H165.044V106.709C165.044 112.58 168.863 116.456 174.62 116.456C177.299 116.456 179.807 115.487 181.631 113.663C183.455 111.896 184.082 110.129 184.082 106.709V89.78H181.232ZM206.638 110.528C204.472 112.751 202.078 113.777 199.114 113.777C193.471 113.777 189.652 109.331 189.652 102.776C189.652 96.392 193.585 92.003 199.342 92.003C202.021 92.003 204.472 92.972 206.638 94.967L208.405 93.029C205.897 90.521 202.99 89.324 199.342 89.324C191.932 89.324 186.688 94.91 186.688 102.89C186.688 110.87 191.761 116.456 199.057 116.456C202.819 116.456 205.612 115.316 208.405 112.58L206.638 110.528ZM215.115 92.459H219.39V89.78H215.115V80.945H212.265V89.78H208.275V92.459H212.265V112.409C212.322 114.974 213.405 116 216.312 116H219.39V113.435H216.996C215.457 113.435 215.172 113.207 215.115 111.896V92.459ZM237.247 89.78V106.709C237.247 109.217 236.848 110.471 235.822 111.611C234.625 112.922 232.573 113.777 230.578 113.777C226.588 113.777 223.909 110.927 223.909 106.709V89.78H221.059V106.709C221.059 112.58 224.878 116.456 230.635 116.456C233.314 116.456 235.822 115.487 237.646 113.663C239.47 111.896 240.097 110.129 240.097 106.709V89.78H237.247ZM244.984 89.78V116H247.834V102.32C247.549 96.392 250.912 92.117 255.757 92.117H256.726V89.324H255.586C253.648 89.324 251.653 89.951 250.285 91.034C249.259 91.889 248.689 92.63 247.834 94.511V89.78H244.984ZM280.736 104.087C280.793 103.289 280.85 102.605 280.85 102.263C280.85 94.967 275.264 89.324 267.968 89.324C260.444 89.324 255.086 95.024 255.086 103.004C255.086 110.87 260.444 116.456 267.968 116.456C272.699 116.456 277.145 113.834 279.083 109.901L276.746 108.647C274.979 111.725 271.502 113.777 267.911 113.777C264.719 113.777 261.869 112.238 259.988 109.559C258.848 107.906 258.392 106.595 258.164 104.087H280.736ZM258.278 101.408C258.563 99.014 258.962 97.817 259.817 96.449C261.47 93.656 264.548 92.003 267.911 92.003C271.274 92.003 274.352 93.656 276.176 96.335C277.145 97.874 277.544 99.128 277.715 101.408H258.278ZM59.049 150.025L62.754 160H66.345L51.867 121.981H48.333L33.399 160H36.648L40.695 150.025H59.049ZM57.909 147.061H41.892L49.986 126.313L57.909 147.061ZM85.1501 154.528C82.9841 156.751 80.5901 157.777 77.6261 157.777C71.9831 157.777 68.1641 153.331 68.1641 146.776C68.1641 140.392 72.0971 136.003 77.8541 136.003C80.5331 136.003 82.9841 136.972 85.1501 138.967L86.9171 137.029C84.4091 134.521 81.5021 133.324 77.8541 133.324C70.4441 133.324 65.2001 138.91 65.2001 146.89C65.2001 154.87 70.2731 160.456 77.5691 160.456C81.3311 160.456 84.1241 159.316 86.9171 156.58L85.1501 154.528ZM106.216 154.528C104.05 156.751 101.656 157.777 98.6916 157.777C93.0486 157.777 89.2296 153.331 89.2296 146.776C89.2296 140.392 93.1626 136.003 98.9196 136.003C101.599 136.003 104.05 136.972 106.216 138.967L107.983 137.029C105.475 134.521 102.568 133.324 98.9196 133.324C91.5096 133.324 86.2656 138.91 86.2656 146.89C86.2656 154.87 91.3386 160.456 98.6346 160.456C102.397 160.456 105.19 159.316 107.983 156.58L106.216 154.528ZM132.925 148.087C132.982 147.289 133.039 146.605 133.039 146.263C133.039 138.967 127.453 133.324 120.157 133.324C112.633 133.324 107.275 139.024 107.275 147.004C107.275 154.87 112.633 160.456 120.157 160.456C124.888 160.456 129.334 157.834 131.272 153.901L128.935 152.647C127.168 155.725 123.691 157.777 120.1 157.777C116.908 157.777 114.058 156.238 112.177 153.559C111.037 151.906 110.581 150.595 110.353 148.087H132.925ZM110.467 145.408C110.752 143.014 111.151 141.817 112.006 140.449C113.659 137.656 116.737 136.003 120.1 136.003C123.463 136.003 126.541 137.656 128.365 140.335C129.334 141.874 129.733 143.128 129.904 145.408H110.467ZM151.414 140.677C151.186 136.06 147.937 133.324 142.636 133.324C137.449 133.324 133.858 136.231 133.858 140.506C133.858 142.387 134.713 144.268 136.081 145.465C137.392 146.662 139.045 147.403 142.123 148.144C146.911 149.284 148.678 150.709 148.678 153.331C148.678 156.067 146.341 157.891 142.807 157.891C138.874 157.891 136.423 155.953 136.195 152.704H133.288C133.858 157.891 136.993 160.456 142.693 160.456C148.108 160.456 151.642 157.606 151.642 153.331C151.642 151.507 150.844 149.626 149.59 148.372C148.279 147.004 146.569 146.206 143.035 145.351C138.19 144.154 136.822 143.071 136.822 140.335C136.822 137.656 139.045 135.946 142.579 135.946C146.284 135.946 148.45 137.656 148.45 140.677H151.414ZM170.866 140.677C170.638 136.06 167.389 133.324 162.088 133.324C156.901 133.324 153.31 136.231 153.31 140.506C153.31 142.387 154.165 144.268 155.533 145.465C156.844 146.662 158.497 147.403 161.575 148.144C166.363 149.284 168.13 150.709 168.13 153.331C168.13 156.067 165.793 157.891 162.259 157.891C158.326 157.891 155.875 155.953 155.647 152.704H152.74C153.31 157.891 156.445 160.456 162.145 160.456C167.56 160.456 171.094 157.606 171.094 153.331C171.094 151.507 170.296 149.626 169.042 148.372C167.731 147.004 166.021 146.206 162.487 145.351C157.642 144.154 156.274 143.071 156.274 140.335C156.274 137.656 158.497 135.946 162.031 135.946C165.736 135.946 167.902 137.656 167.902 140.677H170.866Z" fill="white"/>
<path d="M431.299 97.808L432.091 98.853L432.498 98.523L431.706 97.489L432.993 97.071L432.817 96.554L431.563 96.95V95.685H431.035V96.95L429.803 96.587L429.638 97.093L430.87 97.489L430.089 98.523L430.529 98.853L431.299 97.808ZM435.235 97.808L436.027 98.853L436.434 98.523L435.642 97.489L436.929 97.071L436.753 96.554L435.499 96.95V95.685H434.971V96.95L433.739 96.587L433.574 97.093L434.806 97.489L434.025 98.523L434.465 98.853L435.235 97.808ZM439.172 97.808L439.964 98.853L440.371 98.523L439.579 97.489L440.866 97.071L440.69 96.554L439.436 96.95V95.685H438.908V96.95L437.676 96.587L437.511 97.093L438.743 97.489L437.962 98.523L438.402 98.853L439.172 97.808ZM447.299 101.691C447.299 102.153 447.618 102.362 448.344 102.362C449.774 102.362 450.632 101.394 450.632 99.755C450.632 97.258 448.674 95.388 446.056 95.388C444.846 95.388 443.669 95.817 442.811 96.587C441.854 97.423 441.381 98.545 441.381 99.942C441.381 101.086 441.689 102.01 442.316 102.758C443.196 103.792 444.56 104.419 445.957 104.419C446.364 104.419 446.518 104.397 447.255 104.265V103.396C446.573 103.572 446.452 103.594 446.056 103.594C443.79 103.594 442.239 102.098 442.239 99.909C442.239 97.775 443.867 96.213 446.1 96.213C448.234 96.213 449.807 97.72 449.807 99.755C449.807 100.954 449.29 101.647 448.377 101.647C448.124 101.647 448.08 101.603 448.08 101.295V97.929H447.299V98.545C446.903 98.061 446.419 97.83 445.814 97.83C444.626 97.83 443.768 98.787 443.768 100.107C443.768 101.405 444.615 102.34 445.803 102.34C446.408 102.34 446.859 102.098 447.299 101.526V101.691ZM445.913 98.534C446.716 98.534 447.31 99.15 447.31 99.986C447.31 100.921 446.694 101.647 445.913 101.647C445.154 101.647 444.593 100.998 444.593 100.107C444.593 99.183 445.132 98.534 445.913 98.534ZM452.792 97.808L453.584 98.853L453.991 98.523L453.199 97.489L454.486 97.071L454.31 96.554L453.056 96.95V95.685H452.528V96.95L451.296 96.587L451.131 97.093L452.363 97.489L451.582 98.523L452.022 98.853L452.792 97.808ZM456.728 97.808L457.52 98.853L457.927 98.523L457.135 97.489L458.422 97.071L458.246 96.554L456.992 96.95V95.685H456.464V96.95L455.232 96.587L455.067 97.093L456.299 97.489L455.518 98.523L455.958 98.853L456.728 97.808ZM460.664 97.808L461.456 98.853L461.863 98.523L461.071 97.489L462.358 97.071L462.182 96.554L460.928 96.95V95.685H460.4V96.95L459.168 96.587L459.003 97.093L460.235 97.489L459.454 98.523L459.894 98.853L460.664 97.808ZM463.158 101.944C462.828 101.944 462.586 102.186 462.586 102.516C462.586 102.846 462.828 103.088 463.158 103.088C463.477 103.088 463.73 102.846 463.73 102.527C463.73 102.186 463.488 101.944 463.158 101.944ZM467.992 101.801C467.585 102.186 467.189 102.351 466.694 102.351C465.704 102.351 465.011 101.57 465.011 100.448C465.011 99.348 465.704 98.578 466.705 98.578C467.178 98.578 467.607 98.754 467.992 99.106L468.531 98.567C468.003 98.05 467.409 97.808 466.683 97.808C465.198 97.808 464.153 98.908 464.153 100.481C464.153 102.021 465.187 103.121 466.639 103.121C467.376 103.121 467.937 102.89 468.509 102.373L467.992 101.801ZM470.879 97.808C469.339 97.808 468.283 98.886 468.283 100.459C468.283 102.021 469.339 103.121 470.846 103.121C472.298 103.121 473.442 101.966 473.442 100.481C473.442 98.919 472.375 97.808 470.879 97.808ZM470.879 98.578C471.902 98.578 472.584 99.337 472.584 100.47C472.584 101.57 471.869 102.351 470.868 102.351C469.834 102.351 469.141 101.592 469.141 100.47C469.141 99.337 469.834 98.578 470.879 98.578ZM474.001 97.929V103H474.837V99.964C474.837 99.084 475.277 98.556 476.014 98.556C476.388 98.556 476.696 98.71 476.839 98.996C476.96 99.216 477.004 99.469 477.004 99.964V103H477.84V99.953C477.84 99.051 478.247 98.556 478.984 98.556C479.38 98.556 479.71 98.721 479.864 98.985C479.985 99.194 480.007 99.337 480.007 99.953V103H480.843V99.755C480.843 98.952 480.777 98.666 480.535 98.347C480.271 97.995 479.831 97.808 479.248 97.808C478.489 97.808 478.016 98.083 477.642 98.732C477.411 98.105 476.971 97.808 476.278 97.808C475.651 97.808 475.222 98.05 474.837 98.633V97.929H474.001Z" fill="white"/>
<path d="M432.05 84.273C431.478 84.966 430.862 85.285 430.059 85.285C428.541 85.285 427.43 84.042 427.43 82.337C427.43 80.621 428.519 79.378 430.015 79.378C430.796 79.378 431.335 79.642 432.05 80.379L432.688 79.785C432.325 79.389 432.127 79.213 431.83 79.026C431.302 78.707 430.653 78.531 429.993 78.531C427.969 78.531 426.484 80.137 426.484 82.337C426.484 83.36 426.847 84.361 427.463 85.054C428.09 85.758 428.959 86.132 429.982 86.132C431.115 86.132 431.929 85.758 432.666 84.889L432.05 84.273ZM436.882 78.531C434.803 78.531 433.252 80.181 433.252 82.37C433.252 83.294 433.516 84.119 434.022 84.757C434.704 85.615 435.771 86.132 436.86 86.132C437.707 86.132 438.543 85.824 439.203 85.252C440.006 84.57 440.446 83.547 440.446 82.403C440.446 81.303 440.182 80.489 439.588 79.796C438.884 78.993 437.905 78.531 436.882 78.531ZM436.86 79.389C437.509 79.389 438.18 79.675 438.664 80.148C439.236 80.698 439.5 81.413 439.5 82.392C439.5 83.14 439.225 83.932 438.796 84.405C438.301 84.966 437.575 85.285 436.838 85.285C435.32 85.285 434.198 84.042 434.198 82.337C434.198 80.643 435.331 79.389 436.86 79.389ZM442.769 80.39L446.718 86H447.532V78.663H446.608V84.185L442.692 78.663H441.845V86H442.769V80.39ZM450.277 79.455H453.137V78.663H449.353V86H450.277V82.7H453.137V81.908H450.277V79.455ZM455.294 78.663H454.37V86H455.294V78.663ZM457.12 86H458.902C459.969 86 460.816 85.725 461.454 85.153C462.202 84.482 462.609 83.459 462.609 82.216C462.609 80.005 461.278 78.663 459.067 78.663H457.12V86ZM458.044 79.444H459.034C460.717 79.444 461.663 80.456 461.663 82.227C461.663 83.316 461.333 84.13 460.673 84.658C460.145 85.076 459.617 85.208 458.374 85.208H458.044V79.444ZM464.928 79.455H467.821V78.663H464.004V86H467.821V85.208H464.928V82.7H467.821V81.908H464.928V79.455ZM470.215 80.39L474.164 86H474.978V78.663H474.054V84.185L470.138 78.663H469.291V86H470.215V80.39ZM478.758 79.455H480.617V78.663H475.964V79.455H477.834V86H478.758V79.455ZM482.536 78.663H481.612V86H482.536V78.663ZM488.421 84.306L489.026 86H490.06L487.365 78.663H486.265L483.504 86H484.461L485.132 84.306H488.421ZM488.135 83.514H485.407L486.793 79.829L488.135 83.514ZM491.957 85.164V78.663H491.033V86H494.542V85.164H491.957Z" fill="white"/>
</g>
<defs>
<filter id="filter0_f_137:40" x="12" y="7" width="833" height="214" filterUnits="userSpaceOnUse" color-interpolation-filters="sRGB">
<feFlood flood-opacity="0" result="BackgroundImageFix"/>
<feBlend mode="normal" in="SourceGraphic" in2="BackgroundImageFix" result="shape"/>
<feGaussianBlur stdDeviation="13.5" result="effect1_foregroundBlur_137:40"/>
</filter>
<filter id="filter1_f_137:40" x="-39" y="-380" width="755" height="700" filterUnits="userSpaceOnUse" color-interpolation-filters="sRGB">
<feFlood flood-opacity="0" result="BackgroundImageFix"/>
<feBlend mode="normal" in="SourceGraphic" in2="BackgroundImageFix" result="shape"/>
<feGaussianBlur stdDeviation="87" result="effect1_foregroundBlur_137:40"/>
</filter>
<linearGradient id="paint0_linear_137:40" x1="459.235" y1="-61.3077" x2="262.421" y2="82.4077" gradientUnits="userSpaceOnUse">
<stop stop-color="#88007A"/>
<stop offset="1" stop-color="#004352"/>
</linearGradient>
<linearGradient id="paint1_linear_137:40" x1="374.164" y1="177.792" x2="474.882" y2="-68.5888" gradientUnits="userSpaceOnUse">
<stop stop-color="white"/>
<stop offset="0.491944" stop-color="#3B3131"/>
<stop offset="1"/>
</linearGradient>
<linearGradient id="paint2_linear_137:40" x1="392.442" y1="-33.3391" x2="535.376" y2="168.276" gradientUnits="userSpaceOnUse">
<stop stop-color="white"/>
<stop offset="1" stop-color="white" stop-opacity="0"/>
</linearGradient>
<linearGradient id="paint3_linear_137:40" x1="804.645" y1="125.547" x2="781.318" y2="173.55" gradientUnits="userSpaceOnUse">
<stop stop-color="white"/>
<stop offset="1" stop-color="white" stop-opacity="0"/>
</linearGradient>
<linearGradient id="paint4_linear_137:40" x1="831.566" y1="141.454" x2="831.892" y2="80.3457" gradientUnits="userSpaceOnUse">
<stop stop-color="white"/>
<stop offset="1" stop-color="white" stop-opacity="0"/>
</linearGradient>
</defs>
</svg>
