<svg width="851" height="229" viewBox="0 0 851 229" fill="none" xmlns="http://www.w3.org/2000/svg">
<g filter="url(#filter0_f_137:40)">
<rect x="39" y="34" width="779" height="160" rx="9" fill="#0E1116"/>
<rect x="39.5" y="34.5" width="778" height="159" rx="8.5" stroke="white" stroke-opacity="0.27"/>
</g>
<rect width="851" height="194" rx="9" fill="#0E1116"/>
<rect x="0.5" y="0.5" width="850" height="193" rx="8.5" stroke="white" stroke-opacity="0.27"/>
<mask id="mask0_137:40" style="mask-type:alpha" maskUnits="userSpaceOnUse" x="0" y="0" width="851" height="194">
<rect width="851" height="194" rx="9" fill="#0E1116"/>
</mask>
<g mask="url(#mask0_137:40)">
<g opacity="0.9" filter="url(#filter1_f_137:40)">
<path d="M542 -30C542 67.2021 450.89 146 338.5 146C226.11 146 135 67.2021 135 -30C135 -127.202 226.11 -206 338.5 -206C450.89 -206 542 -127.202 542 -30Z" fill="url(#paint0_linear_137:40)"/>
</g>
<path fill-rule="evenodd" clip-rule="evenodd" d="M795.04 6.7314H479.96C475.93 6.7314 472.663 10.3335 472.663 14.7769V174.223C472.663 178.667 475.93 182.269 479.96 182.269H795.04C799.07 182.269 802.337 178.667 802.337 174.223V14.7769C802.337 10.3335 799.07 6.7314 795.04 6.7314ZM479.96 6C475.564 6 472 9.92953 472 14.7769V174.223C472 179.07 475.564 183 479.96 183H795.04C799.436 183 803 179.07 803 174.223V14.7769C803 9.92953 799.436 6 795.04 6H479.96Z" fill="url(#paint1_linear_137:40)"/>
<path fill-rule="evenodd" clip-rule="evenodd" d="M794.329 11.7261H480.671C478.46 11.7261 476.667 13.6766 476.667 16.0826V172.917C476.667 175.323 478.46 177.274 480.671 177.274H794.329C796.54 177.274 798.333 175.323 798.333 172.917V16.0826C798.333 13.6766 796.54 11.7261 794.329 11.7261ZM480.671 11C478.091 11 476 13.2756 476 16.0826V172.917C476 175.724 478.092 178 480.671 178H794.329C796.909 178 799 175.724 799 172.917V16.0826C799 13.2756 796.909 11 794.329 11H480.671Z" fill="url(#paint2_linear_137:40)" fill-opacity="0.18"/>
<path d="M527.737 128.104H527V133.896H527.737V128.104Z" fill="white"/>
<path d="M529.931 129.467L533.082 133.896H533.731V128.104H532.994V132.463L529.87 128.104H529.194V133.896H529.931V129.467Z" fill="white"/>
<path d="M535.922 128.729H538.204V128.104H535.185V133.896H535.922V131.291H538.204V130.666H535.922V128.729Z" fill="white"/>
<path d="M539.924 131.465L542.197 133.896H543.136L540.863 131.491C541.399 131.456 541.662 131.395 541.943 131.247C542.487 130.961 542.785 130.44 542.785 129.789C542.785 128.738 542.03 128.104 540.784 128.104H539.187V133.896H539.924V131.465ZM539.924 130.97V128.729H540.784C541.592 128.729 542.03 129.12 542.03 129.841C542.03 130.57 541.548 130.97 540.661 130.97H539.924Z" fill="white"/>
<path d="M547.559 132.559L548.042 133.896H548.867L546.716 128.104H545.839L543.636 133.896H544.4L544.935 132.559H547.559ZM547.331 131.933H545.154L546.26 129.025L547.331 131.933Z" fill="white"/>
<path d="M551.879 132.342V132.463C551.879 132.741 551.94 132.984 552.081 133.219C552.388 133.74 552.897 134 553.643 134C554.74 134 555.486 133.323 555.486 132.324C555.486 131.933 555.345 131.569 555.091 131.3C554.854 131.048 554.556 130.891 553.932 130.674C553.336 130.466 553.178 130.397 552.993 130.266C552.783 130.119 552.66 129.876 552.66 129.598C552.66 129.042 553.072 128.651 553.652 128.651C554.029 128.651 554.354 128.808 554.52 129.059C554.617 129.224 554.652 129.363 554.661 129.658H555.398C555.372 128.651 554.696 128 553.66 128C552.625 128 551.914 128.669 551.914 129.65C551.914 130.093 552.072 130.475 552.37 130.744C552.634 130.978 552.862 131.091 553.555 131.326C554.477 131.63 554.74 131.864 554.74 132.368C554.74 132.949 554.275 133.349 553.617 133.349C552.976 133.349 552.616 133.001 552.581 132.342H551.879Z" fill="white"/>
<path d="M558.448 131.343L560.44 128.104H559.562L558.07 130.588L556.561 128.104H555.692L557.711 131.343V133.896H558.448V131.343Z" fill="white"/>
<path d="M560.663 132.342V132.463C560.663 132.741 560.725 132.984 560.865 133.219C561.172 133.74 561.681 134 562.427 134C563.524 134 564.27 133.323 564.27 132.324C564.27 131.933 564.13 131.569 563.875 131.3C563.639 131.048 563.34 130.891 562.717 130.674C562.12 130.466 561.962 130.397 561.778 130.266C561.567 130.119 561.445 129.876 561.445 129.598C561.445 129.042 561.857 128.651 562.436 128.651C562.814 128.651 563.138 128.808 563.305 129.059C563.402 129.224 563.437 129.363 563.445 129.658H564.183C564.156 128.651 563.481 128 562.445 128C561.409 128 560.699 128.669 560.699 129.65C560.699 130.093 560.857 130.475 561.155 130.744C561.418 130.978 561.646 131.091 562.34 131.326C563.261 131.63 563.524 131.864 563.524 132.368C563.524 132.949 563.059 133.349 562.401 133.349C561.76 133.349 561.401 133.001 561.366 132.342H560.663Z" fill="white"/>
<path d="M566.949 128.729H568.432V128.104H564.72V128.729H566.212V133.896H566.949V128.729Z" fill="white"/>
<path d="M569.927 128.729H572.235V128.104H569.19V133.896H572.235V133.271H569.927V131.291H572.235V130.666H569.927V128.729Z" fill="white"/>
<path d="M574.145 129.65L576.304 133.957L578.481 129.658V133.896H579.218V128.104H578.498L576.304 132.446L574.137 128.104H573.408V133.896H574.145V129.65Z" fill="white"/>
<path d="M586.545 132.559L587.028 133.896H587.853L585.703 128.104H584.825L582.622 133.896H583.386L583.921 132.559H586.545ZM586.317 131.933H584.141L585.246 129.025L586.317 131.933Z" fill="white"/>
<path d="M588.629 133.896H590.051C590.902 133.896 591.578 133.679 592.087 133.227C592.684 132.698 593.008 131.89 593.008 130.909C593.008 129.164 591.946 128.104 590.182 128.104H588.629V133.896ZM589.366 128.721H590.156C591.499 128.721 592.254 129.52 592.254 130.918C592.254 131.777 591.99 132.42 591.464 132.836C591.042 133.166 590.621 133.271 589.629 133.271H589.366V128.721Z" fill="white"/>
<path d="M594.86 129.65L597.019 133.957L599.195 129.658V133.896H599.932V128.104H599.213L597.019 132.446L594.851 128.104H594.123V133.896H594.86V129.65Z" fill="white"/>
<path d="M602.127 128.104H601.39V133.896H602.127V128.104Z" fill="white"/>
<path d="M604.321 129.467L607.472 133.896H608.121V128.104H607.384V132.463L604.26 128.104H603.584V133.896H604.321V129.467Z" fill="white"/>
<path d="M610.312 128.104H609.575V133.896H610.312V128.104Z" fill="white"/>
<path d="M611.374 132.342V132.463C611.374 132.741 611.435 132.984 611.576 133.219C611.883 133.74 612.392 134 613.138 134C614.235 134 614.981 133.323 614.981 132.324C614.981 131.933 614.84 131.569 614.586 131.3C614.349 131.048 614.051 130.891 613.427 130.674C612.831 130.466 612.673 130.397 612.488 130.266C612.278 130.119 612.155 129.876 612.155 129.598C612.155 129.042 612.567 128.651 613.147 128.651C613.524 128.651 613.849 128.808 614.015 129.059C614.112 129.224 614.147 129.363 614.156 129.658H614.893C614.867 128.651 614.191 128 613.155 128C612.12 128 611.409 128.669 611.409 129.65C611.409 130.093 611.567 130.475 611.865 130.744C612.129 130.978 612.357 131.091 613.05 131.326C613.972 131.63 614.235 131.864 614.235 132.368C614.235 132.949 613.77 133.349 613.112 133.349C612.471 133.349 612.111 133.001 612.076 132.342H611.374Z" fill="white"/>
<path d="M617.66 128.729H619.143V128.104H615.43V128.729H616.922V133.896H617.66V128.729Z" fill="white"/>
<path d="M620.674 131.465L622.946 133.896H623.886L621.613 131.491C622.148 131.456 622.411 131.395 622.692 131.247C623.236 130.961 623.534 130.44 623.534 129.789C623.534 128.738 622.78 128.104 621.534 128.104H619.936V133.896H620.674V131.465ZM620.674 130.97V128.729H621.534C622.341 128.729 622.78 129.12 622.78 129.841C622.78 130.57 622.297 130.97 621.411 130.97H620.674Z" fill="white"/>
<path d="M628.308 132.559L628.791 133.896H629.616L627.466 128.104H626.588L624.385 133.896H625.149L625.684 132.559H628.308ZM628.08 131.933H625.904L627.009 129.025L628.08 131.933Z" fill="white"/>
<path d="M631.552 128.729H633.035V128.104H629.323V128.729H630.815V133.896H631.552V128.729Z" fill="white"/>
<path d="M636.091 128C634.433 128 633.195 129.302 633.195 131.03C633.195 131.76 633.406 132.411 633.809 132.915C634.354 133.592 635.205 134 636.074 134C636.749 134 637.416 133.757 637.943 133.305C638.584 132.767 638.935 131.959 638.935 131.056C638.935 130.188 638.724 129.546 638.25 128.999C637.688 128.365 636.907 128 636.091 128ZM636.074 128.677C636.591 128.677 637.127 128.903 637.513 129.276C637.969 129.711 638.18 130.275 638.18 131.048C638.18 131.638 637.96 132.263 637.618 132.637C637.223 133.08 636.644 133.331 636.056 133.331C634.845 133.331 633.95 132.35 633.95 131.004C633.95 129.667 634.854 128.677 636.074 128.677Z" fill="white"/>
<path d="M640.788 131.465L643.061 133.896H644L641.727 131.491C642.262 131.456 642.526 131.395 642.806 131.247C643.351 130.961 643.649 130.44 643.649 129.789C643.649 128.738 642.894 128.104 641.648 128.104H640.051V133.896H640.788V131.465ZM640.788 130.97V128.729H641.648C642.455 128.729 642.894 129.12 642.894 129.841C642.894 130.57 642.412 130.97 641.525 130.97H640.788Z" fill="white"/>
<g opacity="0.2">
<path d="M487.511 114H487V120H487.511V114Z" fill="white"/>
<path d="M489.128 120H490.419C492.32 120 493.441 118.849 493.441 116.879C493.441 115.115 492.374 114 490.661 114H489.128V120ZM489.639 114.459H490.634C492.114 114.459 492.921 115.313 492.921 116.879C492.921 117.895 492.634 118.624 492.042 119.082C491.576 119.442 491.119 119.541 489.917 119.541H489.639V114.459Z" fill="white"/>
<path d="M495.165 114.459H497.657V114H494.654V120H497.657V119.541H495.165V117.193H497.657V116.735H495.165V114.459Z" fill="white"/>
<path d="M499.447 115.007L503.025 120H503.41V114H502.899V118.921L499.357 114H498.936V120H499.447V115.007Z" fill="white"/>
<path d="M506.377 114.459H507.946V114H504.296V114.459H505.865V120H506.377V114.459Z" fill="white"/>
<path d="M509.342 114H508.831V120H509.342V114Z" fill="white"/>
<path d="M512.314 114.459H513.883V114H510.233V114.459H511.803V120H512.314V114.459Z" fill="white"/>
<path d="M516.938 117.364L519 114H518.399L516.669 116.825L514.929 114H514.328L516.426 117.364V120H516.938V117.364Z" fill="white"/>
</g>
<g opacity="0.2">
<path d="M490.113 105.106L490.707 106.878H491.283L488.961 100.122H488.395L486 106.878H486.521L487.17 105.106H490.113ZM489.93 104.579H487.362L488.66 100.891L489.93 104.579Z" fill="white"/>
<path d="M496.231 105.42C495.701 106.159 495.161 106.473 494.439 106.473C493.087 106.473 492.091 105.227 492.091 103.515C492.091 101.793 493.078 100.527 494.412 100.527C494.842 100.527 495.289 100.679 495.637 100.942C495.82 101.084 495.957 101.216 496.231 101.55L496.615 101.205C496.021 100.385 495.308 100 494.412 100C492.767 100 491.551 101.489 491.551 103.505C491.551 104.447 491.853 105.379 492.356 106.017C492.867 106.656 493.589 107 494.421 107C494.933 107 495.445 106.858 495.856 106.585C496.167 106.382 496.34 106.21 496.615 105.795L496.231 105.42Z" fill="white"/>
<path d="M501.809 105.42C501.279 106.159 500.74 106.473 500.018 106.473C498.665 106.473 497.669 105.227 497.669 103.515C497.669 101.793 498.656 100.527 499.99 100.527C500.42 100.527 500.868 100.679 501.215 100.942C501.398 101.084 501.535 101.216 501.809 101.55L502.193 101.205C501.599 100.385 500.886 100 499.99 100C498.345 100 497.13 101.489 497.13 103.505C497.13 104.447 497.431 105.379 497.934 106.017C498.446 106.656 499.168 107 500 107C500.511 107 501.023 106.858 501.434 106.585C501.745 106.382 501.919 106.21 502.193 105.795L501.809 105.42Z" fill="white"/>
<path d="M503.783 100.638H506.324V100.122H503.262V106.878H506.324V106.362H503.783V103.718H506.324V103.201H503.783V100.638Z" fill="white"/>
<path d="M507.062 105.156V105.318C507.062 105.724 507.209 106.139 507.465 106.453C507.757 106.828 508.196 107 508.79 107C509.859 107 510.609 106.22 510.609 105.106C510.609 104.67 510.472 104.255 510.234 103.951C509.996 103.657 509.704 103.485 509.064 103.232C508.36 102.958 508.141 102.857 507.949 102.685C507.73 102.492 507.611 102.178 507.611 101.823C507.611 101.064 508.114 100.517 508.799 100.517C509.247 100.517 509.631 100.729 509.823 101.074C509.941 101.287 509.978 101.469 509.987 101.864H510.49C510.49 100.729 509.832 100 508.808 100C507.794 100 507.09 100.76 507.09 101.854C507.09 102.36 507.254 102.796 507.556 103.1C507.812 103.363 508.004 103.465 508.744 103.738C509.777 104.103 510.106 104.437 510.106 105.106C510.106 105.926 509.558 106.483 508.744 106.483C508.278 106.483 507.903 106.271 507.721 105.926C507.611 105.713 507.565 105.521 507.547 105.156H507.062Z" fill="white"/>
<path d="M511.454 105.156V105.318C511.454 105.724 511.6 106.139 511.856 106.453C512.148 106.828 512.587 107 513.181 107C514.251 107 515 106.22 515 105.106C515 104.67 514.863 104.255 514.625 103.951C514.388 103.657 514.095 103.485 513.455 103.232C512.752 102.958 512.532 102.857 512.34 102.685C512.121 102.492 512.002 102.178 512.002 101.823C512.002 101.064 512.505 100.517 513.19 100.517C513.638 100.517 514.022 100.729 514.214 101.074C514.333 101.287 514.369 101.469 514.379 101.864H514.881C514.881 100.729 514.223 100 513.199 100C512.185 100 511.481 100.76 511.481 101.854C511.481 102.36 511.646 102.796 511.947 103.1C512.203 103.363 512.395 103.465 513.136 103.738C514.168 104.103 514.497 104.437 514.497 105.106C514.497 105.926 513.949 106.483 513.136 106.483C512.669 106.483 512.295 106.271 512.112 105.926C512.002 105.713 511.956 105.521 511.938 105.156H511.454Z" fill="white"/>
</g>
<g opacity="0.2">
<path d="M487.539 131.395L490.359 133.896H491.097L488.268 131.395C488.363 131.404 488.448 131.404 488.486 131.404C488.959 131.404 489.299 131.36 489.555 131.265C490.236 131.004 490.634 130.44 490.634 129.737C490.634 128.738 489.848 128.104 488.618 128.104H487V133.896H487.539V131.395ZM487.539 131.013V128.547H488.58C489.574 128.547 490.085 128.955 490.085 129.763C490.085 130.579 489.508 131.013 488.448 131.013H487.539Z" fill="white"/>
<path d="M494.602 128C493.836 128 493.069 128.295 492.501 128.808C491.886 129.363 491.574 130.11 491.574 131.03C491.574 131.76 491.792 132.42 492.18 132.889C492.747 133.575 493.665 134 494.583 134C495.274 134 495.974 133.757 496.542 133.323C497.223 132.802 497.592 132.003 497.592 131.074C497.592 130.197 497.365 129.528 496.892 129.016C496.296 128.373 495.454 128 494.602 128ZM494.593 128.452C495.189 128.452 495.832 128.703 496.287 129.111C496.807 129.58 497.044 130.188 497.044 131.039C497.044 131.699 496.779 132.394 496.391 132.802C495.927 133.271 495.255 133.548 494.574 133.548C493.145 133.548 492.123 132.48 492.123 130.996C492.123 129.528 493.173 128.452 494.593 128.452Z" fill="white"/>
<path d="M499.442 133.401V128.104H498.902V133.896H501.722V133.401H499.442Z" fill="white"/>
<path d="M503.369 128.547H506V128.104H502.83V133.896H506V133.453H503.369V131.187H506V130.744H503.369V128.547Z" fill="white"/>
</g>
<g opacity="0.2">
<path d="M488.153 143.547H489.777V143.104H486V143.547H487.624V148.896H488.153V143.547Z" fill="white"/>
<path d="M492.873 143C492.122 143 491.37 143.295 490.813 143.808C490.21 144.363 489.904 145.11 489.904 146.03C489.904 146.76 490.117 147.42 490.498 147.889C491.055 148.575 491.955 149 492.855 149C493.532 149 494.219 148.757 494.776 148.323C495.444 147.802 495.806 147.003 495.806 146.074C495.806 145.197 495.583 144.528 495.119 144.016C494.534 143.373 493.709 143 492.873 143ZM492.864 143.452C493.449 143.452 494.08 143.703 494.525 144.111C495.035 144.58 495.267 145.188 495.267 146.039C495.267 146.699 495.008 147.394 494.627 147.802C494.172 148.271 493.514 148.548 492.846 148.548C491.444 148.548 490.442 147.48 490.442 145.996C490.442 144.528 491.472 143.452 492.864 143.452Z" fill="white"/>
<path d="M497.619 146.178L500.282 148.896H501.015L498.139 146.013L501.015 143.104H500.366L497.619 145.848V143.104H497.09V148.896H497.619V146.178Z" fill="white"/>
<path d="M502.467 143.547H505.047V143.104H501.938V148.896H505.047V148.453H502.467V146.187H505.047V145.744H502.467V143.547Z" fill="white"/>
<path d="M506.899 144.077L510.601 148.896H511V143.104H510.471V147.854L506.806 143.104H506.37V148.896H506.899V144.077Z" fill="white"/>
</g>
<g opacity="0.2">
<path d="M530.647 147.428C530.654 147.348 530.654 147.254 530.654 147.21C530.654 146.232 529.922 145.5 528.941 145.5C527.952 145.5 527.242 146.232 527.242 147.261C527.242 148.275 527.959 149 528.963 149C529.607 149 530.186 148.659 530.464 148.101L529.973 147.92C529.775 148.268 529.38 148.493 528.963 148.493C528.596 148.493 528.274 148.333 528.055 148.036C527.915 147.855 527.864 147.71 527.835 147.428H530.647ZM527.842 147.022C527.886 146.754 527.93 146.616 528.033 146.457C528.23 146.167 528.567 145.993 528.941 145.993C529.314 145.993 529.658 146.167 529.871 146.449C529.988 146.616 530.039 146.761 530.061 147.022H527.842Z" fill="white"/>
<path d="M532.356 148.058L531.448 145.58H530.855L532.056 148.819L531.353 150.529H531.96L533.974 145.58H533.366L532.356 148.058Z" fill="white"/>
<path d="M536.241 144.087H534.212V144.609H535.625V147.087C535.625 147.717 535.552 147.993 535.318 148.196C535.135 148.348 534.871 148.428 534.512 148.428C534.432 148.428 534.359 148.428 534.212 148.413V148.942C534.315 148.949 534.403 148.949 534.454 148.949C534.886 148.949 535.23 148.899 535.464 148.79C535.984 148.558 536.241 148.109 536.241 147.428V144.087Z" fill="white"/>
<path d="M537.874 144.087H537.317V148.92H537.874V146.964C537.874 146.645 537.925 146.478 538.094 146.29C538.269 146.094 538.496 145.993 538.753 145.993C539.155 145.993 539.382 146.246 539.382 146.703V148.92H539.939V146.674C539.939 146.246 539.858 145.986 539.675 145.804C539.492 145.616 539.185 145.5 538.892 145.5C538.489 145.5 538.181 145.667 537.874 146.043V144.087Z" fill="white"/>
<path d="M541.593 148.348C541.922 148.804 542.288 149 542.808 149C543.731 149 544.383 148.283 544.383 147.261C544.383 146.225 543.724 145.5 542.779 145.5C542.288 145.5 541.929 145.696 541.593 146.152V144.087H541.036V148.92H541.593V148.348ZM542.706 145.993C543.343 145.993 543.797 146.529 543.797 147.275C543.797 148.022 543.35 148.522 542.684 148.522C542.025 148.522 541.585 148.014 541.585 147.254C541.585 146.522 542.061 145.993 542.706 145.993Z" fill="white"/>
<path d="M547.416 146.304V146.826H549.115C549.064 147.246 548.991 147.486 548.8 147.739C548.5 148.167 547.936 148.449 547.394 148.449C546.398 148.449 545.629 147.601 545.629 146.507C545.629 145.399 546.398 144.558 547.409 144.558C547.76 144.558 548.105 144.667 548.376 144.862C548.507 144.949 548.595 145.036 548.786 145.246L549.247 144.877C548.786 144.304 548.149 144 547.409 144C546.01 144 545 145.051 545 146.514C545 147.957 546.018 149.007 547.409 149.007C548.149 149.007 548.778 148.703 549.247 148.123C549.606 147.674 549.752 147.225 549.752 146.58C549.752 146.536 549.752 146.406 549.745 146.304H547.416Z" fill="white"/>
<path d="M552.882 148.13C552.611 148.384 552.348 148.493 552.018 148.493C551.359 148.493 550.898 147.978 550.898 147.239C550.898 146.514 551.359 146.007 552.026 146.007C552.34 146.007 552.626 146.123 552.882 146.355L553.241 146C552.89 145.659 552.494 145.5 552.011 145.5C551.022 145.5 550.327 146.225 550.327 147.261C550.327 148.275 551.015 149 551.982 149C552.472 149 552.846 148.848 553.227 148.507L552.882 148.13Z" fill="white"/>
<path d="M554.501 145.58H553.944V148.92H554.501V145.58ZM554.23 144.283C554.025 144.283 553.871 144.435 553.871 144.638C553.871 144.841 554.025 144.993 554.223 144.993C554.42 144.993 554.582 144.841 554.582 144.645C554.582 144.442 554.428 144.283 554.23 144.283Z" fill="white"/>
<path d="M557.8 144C556.416 144 555.384 145.087 555.384 146.529C555.384 147.138 555.559 147.681 555.896 148.101C556.35 148.667 557.061 149.007 557.786 149.007C558.349 149.007 558.906 148.804 559.345 148.428C559.88 147.978 560.173 147.304 560.173 146.551C560.173 145.826 559.997 145.29 559.602 144.833C559.133 144.304 558.481 144 557.8 144ZM557.786 144.565C558.218 144.565 558.664 144.754 558.987 145.065C559.367 145.428 559.543 145.899 559.543 146.543C559.543 147.036 559.36 147.558 559.074 147.87C558.745 148.239 558.262 148.449 557.771 148.449C556.76 148.449 556.013 147.63 556.013 146.507C556.013 145.391 556.768 144.565 557.786 144.565Z" fill="white"/>
<path d="M561.61 145.58H561.053V148.92H561.61V145.58ZM561.339 144.283C561.134 144.283 560.98 144.435 560.98 144.638C560.98 144.841 561.134 144.993 561.331 144.993C561.529 144.993 561.69 144.841 561.69 144.645C561.69 144.442 561.536 144.283 561.339 144.283Z" fill="white"/>
<path d="M564.389 144.087H562.36V144.609H563.774V147.087C563.774 147.717 563.7 147.993 563.466 148.196C563.283 148.348 563.019 148.428 562.661 148.428C562.58 148.428 562.507 148.428 562.36 148.413V148.942C562.463 148.949 562.551 148.949 562.602 148.949C563.034 148.949 563.378 148.899 563.613 148.79C564.132 148.558 564.389 148.109 564.389 147.428V144.087Z" fill="white"/>
<path d="M566.132 144.087H565.517V148.92H566.132V144.087Z" fill="white"/>
<path d="M567.875 144.087H567.26V146.949C567.26 147.703 567.355 148.058 567.655 148.399C567.985 148.79 568.505 149.007 569.076 149.007C569.632 149.007 570.123 148.804 570.452 148.435C570.767 148.087 570.885 147.674 570.885 146.949V144.087H570.255V146.949C570.255 147.594 570.189 147.841 569.925 148.094C569.713 148.312 569.369 148.449 569.061 148.449C568.754 148.449 568.402 148.319 568.197 148.123C567.963 147.891 567.875 147.58 567.875 146.964V144.087Z" fill="white"/>
<path d="M572.372 148.435L574.108 145.58H571.625V146.065H573.192L571.435 148.92H573.925V148.435H572.372Z" fill="white"/>
<path d="M575.436 144.087H574.821V148.92H575.436V144.087Z" fill="white"/>
<path d="M577.933 144.964V148.92H578.512V144.051L576.857 145.123V145.674L577.933 144.964Z" fill="white"/>
<path d="M580.928 145.225L583.557 148.92H584.099V144.087H583.484V147.725L580.877 144.087H580.313V148.92H580.928V145.225Z" fill="white"/>
<path d="M585.817 145.58H585.261V148.92H585.817V145.58ZM585.546 144.283C585.341 144.283 585.187 144.435 585.187 144.638C585.187 144.841 585.341 144.993 585.539 144.993C585.737 144.993 585.898 144.841 585.898 144.645C585.898 144.442 585.744 144.283 585.546 144.283Z" fill="white"/>
<path d="M587.601 144.087H586.985V148.92H587.601V144.087Z" fill="white"/>
<path d="M590.881 146.493C590.852 145.862 590.42 145.5 589.702 145.5C588.992 145.5 588.516 145.891 588.516 146.471C588.516 146.978 588.845 147.283 589.578 147.478C590.156 147.623 590.347 147.768 590.347 148.058C590.347 148.355 590.098 148.551 589.717 148.551C589.292 148.551 589.043 148.348 589.007 147.971H588.457C588.516 148.645 588.948 149 589.717 149C590.435 149 590.918 148.609 590.918 148.029C590.918 147.783 590.815 147.543 590.647 147.377C590.486 147.217 590.259 147.109 589.827 146.993C589.219 146.826 589.072 146.717 589.072 146.428C589.072 146.138 589.307 145.949 589.68 145.949C590.068 145.949 590.325 146.145 590.325 146.457V146.493H590.881Z" fill="white"/>
<path d="M592.442 144.087H591.827V148.92H592.442V144.087Z" fill="white"/>
<path d="M593.606 145.58V148.92H594.163V146.884C594.163 146.609 594.222 146.449 594.383 146.275C594.551 146.087 594.778 145.993 595.027 145.993C595.254 145.993 595.452 146.08 595.554 146.217C595.642 146.333 595.679 146.493 595.679 146.79V148.92H596.235V146.667C596.235 146.21 596.162 145.978 595.95 145.775C595.752 145.601 595.474 145.5 595.166 145.5C594.749 145.5 594.456 145.659 594.163 146.051V145.58H593.606Z" fill="white"/>
<path d="M597.999 146.891L599.895 148.92H600.679L598.782 146.913C599.229 146.884 599.449 146.833 599.683 146.71C600.137 146.471 600.386 146.036 600.386 145.493C600.386 144.616 599.756 144.087 598.716 144.087H597.384V148.92H597.999V146.891ZM597.999 146.478V144.609H598.716C599.39 144.609 599.756 144.935 599.756 145.536C599.756 146.145 599.354 146.478 598.614 146.478H597.999Z" fill="white"/>
<path d="M603.583 144.087H601.459V146.819C601.774 146.5 602.162 146.326 602.543 146.326C603.188 146.326 603.627 146.739 603.627 147.355C603.627 147.949 603.18 148.399 602.595 148.399C602.324 148.399 602.053 148.304 601.899 148.152C601.818 148.08 601.767 147.993 601.65 147.783L601.123 147.978C601.372 148.616 601.892 148.971 602.58 148.971C603.539 148.971 604.228 148.297 604.228 147.37C604.228 146.464 603.583 145.797 602.726 145.797C602.477 145.797 602.258 145.841 602.009 145.935V144.638H603.583V144.087Z" fill="white"/>
<path d="M607.377 148.13C607.106 148.384 606.842 148.493 606.512 148.493C605.853 148.493 605.392 147.978 605.392 147.239C605.392 146.514 605.853 146.007 606.52 146.007C606.835 146.007 607.12 146.123 607.377 146.355L607.735 146C607.384 145.659 606.988 145.5 606.505 145.5C605.516 145.5 604.821 146.225 604.821 147.261C604.821 148.275 605.509 149 606.476 149C606.966 149 607.34 148.848 607.721 148.507L607.377 148.13Z" fill="white"/>
<path d="M611.91 147.783C611.529 148.239 611.119 148.449 610.584 148.449C609.574 148.449 608.834 147.63 608.834 146.507C608.834 145.377 609.559 144.558 610.555 144.558C611.075 144.558 611.434 144.732 611.91 145.217L612.334 144.826C612.093 144.565 611.961 144.449 611.763 144.326C611.412 144.116 610.98 144 610.54 144C609.193 144 608.204 145.058 608.204 146.507C608.204 147.181 608.446 147.841 608.856 148.297C609.273 148.761 609.852 149.007 610.533 149.007C611.287 149.007 611.829 148.761 612.32 148.188L611.91 147.783Z" fill="white"/>
<path d="M613.718 144.087H613.103V148.92H613.718V144.087Z" fill="white"/>
<path d="M617.05 144.159H616.369L614.97 146.384C614.692 146.826 614.596 147.094 614.596 147.449C614.596 148.326 615.27 149.007 616.142 149.007C617.006 149.007 617.716 148.304 617.716 147.449C617.716 146.63 617.086 146 616.273 146C616.098 146 616.003 146.022 615.797 146.094L617.05 144.159ZM616.171 146.493C616.713 146.493 617.145 146.928 617.145 147.471C617.145 148.022 616.706 148.464 616.156 148.464C615.607 148.464 615.175 148.014 615.175 147.449C615.175 146.913 615.614 146.493 616.171 146.493Z" fill="white"/>
<path d="M619.21 144.087H618.595V148.92H619.21V144.087Z" fill="white"/>
<path d="M620.931 147.428L622.278 148.92H622.974L621.473 147.21L622.981 145.58H622.278L620.931 147.043V144.087H620.374V148.92H620.931V147.428Z" fill="white"/>
<path d="M623.593 145.58V150.486H624.149V148.399C624.332 148.638 624.435 148.725 624.64 148.826C624.874 148.942 625.116 149 625.379 149C626.317 149 626.969 148.275 626.969 147.225C626.969 146.21 626.317 145.5 625.379 145.5C624.816 145.5 624.471 145.696 624.149 146.188V145.58H623.593ZM625.284 145.993C625.584 145.993 625.885 146.123 626.082 146.341C626.28 146.558 626.375 146.855 626.375 147.246C626.375 148.007 625.929 148.522 625.262 148.522C624.596 148.522 624.149 148.036 624.149 147.304C624.149 146.522 624.61 145.993 625.284 145.993Z" fill="white"/>
<path d="M629.291 146.993L630.543 148.92H631.254L629.643 146.457L631.21 144.087H630.492L629.291 145.92L628.098 144.087H627.358L628.932 146.457L627.299 148.92H628.046L629.291 146.993Z" fill="white"/>
<path d="M633.288 147.928L631.977 144.087H631.333L632.98 148.92H633.581L635.28 144.087H634.628L633.288 147.928Z" fill="white"/>
<path d="M639.214 147.783C638.833 148.239 638.423 148.449 637.889 148.449C636.878 148.449 636.138 147.63 636.138 146.507C636.138 145.377 636.863 144.558 637.859 144.558C638.379 144.558 638.738 144.732 639.214 145.217L639.639 144.826C639.397 144.565 639.265 144.449 639.068 144.326C638.716 144.116 638.284 144 637.845 144C636.497 144 635.509 145.058 635.509 146.507C635.509 147.181 635.75 147.841 636.16 148.297C636.578 148.761 637.156 149.007 637.837 149.007C638.592 149.007 639.133 148.761 639.624 148.188L639.214 147.783Z" fill="white"/>
<path d="M642.061 144.087H640.032V144.609H641.446V147.087C641.446 147.717 641.372 147.993 641.138 148.196C640.955 148.348 640.691 148.428 640.333 148.428C640.252 148.428 640.179 148.428 640.032 148.413V148.942C640.135 148.949 640.223 148.949 640.274 148.949C640.706 148.949 641.05 148.899 641.285 148.79C641.805 148.558 642.061 148.109 642.061 147.428V144.087Z" fill="white"/>
<path d="M643.548 148.92H644.229L645.635 146.645C645.876 146.246 645.972 145.964 645.972 145.594C645.972 144.732 645.312 144.072 644.434 144.072C643.548 144.072 642.852 144.754 642.852 145.616C642.852 146.442 643.489 147.08 644.309 147.08C644.478 147.08 644.573 147.058 644.778 146.986L643.548 148.92ZM644.434 144.609C644.968 144.609 645.393 145.043 645.393 145.601C645.393 146.152 644.968 146.572 644.404 146.572C643.855 146.572 643.43 146.138 643.43 145.594C643.43 145.043 643.877 144.609 644.434 144.609Z" fill="white"/>
<path d="M647.085 148.225C646.865 148.225 646.704 148.384 646.704 148.601C646.704 148.819 646.865 148.978 647.085 148.978C647.297 148.978 647.465 148.819 647.465 148.609C647.465 148.384 647.304 148.225 647.085 148.225Z" fill="white"/>
<path d="M651.628 147.428C651.636 147.348 651.636 147.254 651.636 147.21C651.636 146.232 650.903 145.5 649.922 145.5C648.933 145.5 648.223 146.232 648.223 147.261C648.223 148.275 648.941 149 649.944 149C650.588 149 651.167 148.659 651.445 148.101L650.955 147.92C650.757 148.268 650.361 148.493 649.944 148.493C649.578 148.493 649.256 148.333 649.036 148.036C648.897 147.855 648.845 147.71 648.816 147.428H651.628ZM648.824 147.022C648.867 146.754 648.911 146.616 649.014 146.457C649.212 146.167 649.548 145.993 649.922 145.993C650.295 145.993 650.64 146.167 650.852 146.449C650.969 146.616 651.02 146.761 651.042 147.022H648.824Z" fill="white"/>
<path d="M653.337 148.058L652.429 145.58H651.836L653.037 148.819L652.334 150.529H652.942L654.956 145.58H654.348L653.337 148.058Z" fill="white"/>
<path d="M657.222 144.087H655.193V144.609H656.607V147.087C656.607 147.717 656.534 147.993 656.299 148.196C656.116 148.348 655.853 148.428 655.494 148.428C655.413 148.428 655.34 148.428 655.193 148.413V148.942C655.296 148.949 655.384 148.949 655.435 148.949C655.867 148.949 656.211 148.899 656.446 148.79C656.966 148.558 657.222 148.109 657.222 147.428V144.087Z" fill="white"/>
<path d="M658.841 148.435L660.576 145.58H658.094V146.065H659.661L657.903 148.92H660.393V148.435H658.841Z" fill="white"/>
<path d="M663.764 146.087C663.435 145.681 663.054 145.5 662.556 145.5C661.641 145.5 660.967 146.254 660.967 147.268C660.967 148.283 661.626 149 662.556 149C663.069 149 663.427 148.804 663.764 148.348V148.92H664.321V144.087H663.764V146.087ZM662.673 145.993C663.318 145.993 663.764 146.507 663.764 147.261C663.764 147.986 663.288 148.522 662.637 148.522C661.999 148.522 661.553 148.007 661.553 147.275C661.553 146.514 662.007 145.993 662.673 145.993Z" fill="white"/>
<path d="M669.397 147.804L668.35 144.087H667.772L666.688 147.79L665.575 144.087H664.923L666.417 148.92H666.959L668.043 145.123L669.119 148.92H669.661L671.155 144.087H670.518L669.397 147.804Z" fill="white"/>
<path d="M672.417 144.087H671.802V148.92H672.417V144.087Z" fill="white"/>
<path d="M674.138 145.58H673.581V148.92H674.138V145.58ZM673.867 144.283C673.662 144.283 673.508 144.435 673.508 144.638C673.508 144.841 673.662 144.993 673.86 144.993C674.057 144.993 674.218 144.841 674.218 144.645C674.218 144.442 674.065 144.283 673.867 144.283Z" fill="white"/>
<path d="M677.437 144C676.053 144 675.02 145.087 675.02 146.529C675.02 147.138 675.196 147.681 675.533 148.101C675.987 148.667 676.697 149.007 677.422 149.007C677.986 149.007 678.543 148.804 678.982 148.428C679.517 147.978 679.81 147.304 679.81 146.551C679.81 145.826 679.634 145.29 679.239 144.833C678.77 144.304 678.118 144 677.437 144ZM677.422 144.565C677.854 144.565 678.301 144.754 678.623 145.065C679.004 145.428 679.18 145.899 679.18 146.543C679.18 147.036 678.997 147.558 678.711 147.87C678.382 148.239 677.898 148.449 677.408 148.449C676.397 148.449 675.65 147.63 675.65 146.507C675.65 145.391 676.404 144.565 677.422 144.565Z" fill="white"/>
<path d="M681.246 145.58H680.69V148.92H681.246V145.58ZM680.975 144.283C680.77 144.283 680.617 144.435 680.617 144.638C680.617 144.841 680.77 144.993 680.968 144.993C681.166 144.993 681.327 144.841 681.327 144.645C681.327 144.442 681.173 144.283 680.975 144.283Z" fill="white"/>
<path d="M683.03 144.087H682.415V148.92H683.03V144.087Z" fill="white"/>
<path d="M685.271 147.71L686.135 148.92H686.816L685.6 147.261L686.874 145.58H686.193L685.271 146.804L684.37 145.58H683.667L684.934 147.261L683.689 148.92H684.37L685.271 147.71Z" fill="white"/>
<path d="M688.129 145.377L689.93 148.971L691.746 145.384V148.92H692.361V144.087H691.761L689.93 147.71L688.121 144.087H687.514V148.92H688.129V145.377Z" fill="white"/>
<path d="M694.083 145.58H693.527V149.268C693.519 149.739 693.278 150.029 692.882 150.043H692.802V150.565H692.948C693.292 150.565 693.593 150.442 693.798 150.217C694.003 150 694.083 149.725 694.083 149.268V145.58ZM693.812 144.283C693.607 144.283 693.454 144.435 693.454 144.638C693.454 144.841 693.607 144.993 693.805 144.993C694.003 144.993 694.164 144.841 694.164 144.645C694.164 144.442 694.01 144.283 693.812 144.283Z" fill="white"/>
<path d="M695.867 145.377L697.668 148.971L699.484 145.384V148.92H700.099V144.087H699.499L697.668 147.71L695.859 144.087H695.251V148.92H695.867V145.377Z" fill="white"/>
<path d="M703.989 145.543C703.989 144.978 703.886 144.688 703.608 144.435C703.337 144.196 702.971 144.072 702.524 144.072C702.026 144.072 701.623 144.232 701.382 144.522C701.162 144.783 701.089 145.08 701.089 145.71V147.304C701.089 148.036 701.155 148.312 701.411 148.58C701.667 148.855 702.063 149 702.539 149C703 149 703.388 148.862 703.645 148.594C703.886 148.341 703.989 148.007 703.989 147.464V145.543ZM701.667 145.725C701.667 145.304 701.697 145.138 701.821 144.964C701.96 144.739 702.231 144.616 702.546 144.616C702.788 144.616 703.008 144.696 703.169 144.841C703.352 145.014 703.418 145.203 703.418 145.58V147.428C703.418 147.783 703.374 147.986 703.264 148.145C703.125 148.341 702.846 148.464 702.546 148.464C702.268 148.464 702.004 148.355 701.85 148.181C701.689 148 701.667 147.899 701.667 147.341V145.725Z" fill="white"/>
<path d="M705.593 145.225L708.222 148.92H708.763V144.087H708.148V147.725L705.541 144.087H704.977V148.92H705.593V145.225Z" fill="white"/>
<path d="M711.28 144.609H712.518V144.087H709.42V144.609H710.665V148.92H711.28V144.609Z" fill="white"/>
<path d="M715.143 146.79L716.805 144.087H716.073L714.828 146.159L713.568 144.087H712.843L714.527 146.79V148.92H715.143V146.79Z" fill="white"/>
<path d="M718.997 144.681L717.583 146.435L717.825 146.645C718.037 146.522 718.184 146.478 718.411 146.478C719.048 146.478 719.487 146.884 719.487 147.464C719.487 148.029 719.019 148.471 718.425 148.471C717.971 148.471 717.627 148.21 717.495 147.746L716.968 147.841C717.137 148.572 717.686 149 718.455 149C719.385 149 720.073 148.326 720.073 147.42C720.073 146.565 719.473 145.964 718.623 145.964L720.059 144.159H717.29V144.681H718.997Z" fill="white"/>
<path d="M723.163 144C721.779 144 720.747 145.087 720.747 146.529C720.747 147.138 720.923 147.681 721.26 148.101C721.714 148.667 722.424 149.007 723.149 149.007C723.713 149.007 724.269 148.804 724.709 148.428C725.243 147.978 725.536 147.304 725.536 146.551C725.536 145.826 725.36 145.29 724.965 144.833C724.496 144.304 723.845 144 723.163 144ZM723.149 144.565C723.581 144.565 724.028 144.754 724.35 145.065C724.731 145.428 724.906 145.899 724.906 146.543C724.906 147.036 724.723 147.558 724.438 147.87C724.108 148.239 723.625 148.449 723.134 148.449C722.124 148.449 721.377 147.63 721.377 146.507C721.377 145.391 722.131 144.565 723.149 144.565Z" fill="white"/>
<path d="M726.468 148.92H727.654C728.364 148.92 728.928 148.739 729.353 148.362C729.851 147.92 730.122 147.246 730.122 146.428C730.122 144.971 729.236 144.087 727.764 144.087H726.468V148.92ZM727.083 144.601H727.742C728.862 144.601 729.492 145.268 729.492 146.435C729.492 147.152 729.272 147.688 728.833 148.036C728.481 148.312 728.13 148.399 727.302 148.399H727.083V144.601Z" fill="white"/>
<path d="M731.557 147.428L732.904 148.92H733.6L732.099 147.21L733.607 145.58H732.904L731.557 147.043V144.087H731V148.92H731.557V147.428Z" fill="white"/>
<path d="M738.358 145.58L737.472 148.036L736.71 145.58H736.161L735.384 148.036L734.52 145.58H733.949L735.106 148.92H735.633L736.446 146.384L737.223 148.92H737.728L738.929 145.58H738.358Z" fill="white"/>
<path d="M740.199 144.087H739.583V148.92H740.199V144.087Z" fill="white"/>
<path d="M741.919 145.58H741.363V148.92H741.919V145.58ZM741.648 144.283C741.443 144.283 741.29 144.435 741.29 144.638C741.29 144.841 741.443 144.993 741.641 144.993C741.839 144.993 742 144.841 742 144.645C742 144.442 741.846 144.283 741.648 144.283Z" fill="white"/>
<path d="M531.409 154.275L530.522 156.732L529.761 154.275H529.212L528.435 156.732L527.571 154.275H527L528.157 157.616H528.684L529.497 155.08L530.273 157.616H530.779L531.98 154.275H531.409Z" fill="white"/>
<path d="M533.125 154.275H532.569V157.616H533.125V154.275ZM532.854 152.978C532.649 152.978 532.495 153.13 532.495 153.333C532.495 153.536 532.649 153.688 532.847 153.688C533.045 153.688 533.206 153.536 533.206 153.341C533.206 153.138 533.052 152.978 532.854 152.978Z" fill="white"/>
<path d="M534.799 157.043C535.128 157.5 535.494 157.696 536.014 157.696C536.937 157.696 537.589 156.978 537.589 155.957C537.589 154.92 536.93 154.196 535.985 154.196C535.494 154.196 535.136 154.391 534.799 154.848V152.783H534.242V157.616H534.799V157.043ZM535.912 154.688C536.549 154.688 537.003 155.225 537.003 155.971C537.003 156.717 536.556 157.217 535.89 157.217C535.231 157.217 534.791 156.71 534.791 155.949C534.791 155.217 535.267 154.688 535.912 154.688Z" fill="white"/>
<path d="M538.44 154.275V157.616H538.997V155.616C538.997 155.036 539.29 154.688 539.78 154.688C540.029 154.688 540.234 154.79 540.329 154.978C540.41 155.123 540.439 155.29 540.439 155.616V157.616H540.996V155.609C540.996 155.014 541.267 154.688 541.757 154.688C542.021 154.688 542.241 154.797 542.343 154.971C542.424 155.109 542.438 155.203 542.438 155.609V157.616H542.995V155.478C542.995 154.949 542.951 154.761 542.79 154.551C542.614 154.319 542.321 154.196 541.933 154.196C541.428 154.196 541.113 154.377 540.864 154.804C540.71 154.391 540.417 154.196 539.956 154.196C539.539 154.196 539.253 154.355 538.997 154.739V154.275H538.44Z" fill="white"/>
<path d="M544.763 153.304H546.667V152.783H544.148V157.616H544.763V155.442H546.667V154.92H544.763V153.304Z" fill="white"/>
<path d="M548.03 154.761H548.542V154.275H548.03V153.225H547.473V154.275H547.005V154.761H547.473V157.094C547.473 157.464 547.627 157.609 548.022 157.616H548.542V157.138H548.286C548.081 157.138 548.037 157.101 548.03 156.935V154.761Z" fill="white"/>
<path d="M549.888 157.094L552.649 152.783H549.178V153.304H551.631L548.87 157.616H552.364V157.094H549.888Z" fill="white"/>
<path d="M553.001 156.319V156.42C553.001 156.652 553.052 156.855 553.169 157.051C553.426 157.486 553.851 157.703 554.473 157.703C555.388 157.703 556.011 157.138 556.011 156.304C556.011 155.978 555.894 155.674 555.681 155.449C555.484 155.239 555.235 155.109 554.715 154.928C554.217 154.754 554.085 154.696 553.931 154.587C553.755 154.464 553.653 154.261 553.653 154.029C553.653 153.565 553.997 153.239 554.48 153.239C554.795 153.239 555.066 153.37 555.205 153.58C555.286 153.717 555.315 153.833 555.322 154.08H555.938C555.916 153.239 555.352 152.696 554.488 152.696C553.624 152.696 553.03 153.254 553.03 154.072C553.03 154.442 553.162 154.761 553.411 154.986C553.631 155.181 553.821 155.275 554.4 155.471C555.169 155.725 555.388 155.92 555.388 156.341C555.388 156.826 555 157.159 554.451 157.159C553.916 157.159 553.616 156.87 553.587 156.319H553.001Z" fill="white"/>
<path d="M557.536 152.783H556.921V157.616H557.536V152.783Z" fill="white"/>
<path d="M560.868 152.855H560.187L558.788 155.08C558.51 155.522 558.415 155.79 558.415 156.145C558.415 157.022 559.088 157.703 559.96 157.703C560.824 157.703 561.534 157 561.534 156.145C561.534 155.326 560.904 154.696 560.092 154.696C559.916 154.696 559.821 154.717 559.616 154.79L560.868 152.855ZM559.989 155.188C560.531 155.188 560.963 155.623 560.963 156.167C560.963 156.717 560.524 157.159 559.974 157.159C559.425 157.159 558.993 156.71 558.993 156.145C558.993 155.609 559.432 155.188 559.989 155.188Z" fill="white"/>
<path d="M563.028 152.783H562.413V157.616H563.028V152.783Z" fill="white"/>
<path d="M564.749 156.123L566.096 157.616H566.792L565.291 155.906L566.8 154.275H566.096L564.749 155.739V152.783H564.192V157.616H564.749V156.123Z" fill="white"/>
<path d="M567.967 157.616V152.783H567.411V157.616H567.967Z" fill="white"/>
<path d="M571.047 154.275V156.413C571.047 156.681 571.01 156.819 570.9 156.949C570.761 157.109 570.534 157.203 570.3 157.203C569.853 157.203 569.545 156.87 569.545 156.399V154.275H568.989V156.413C568.989 156.819 569.099 157.123 569.326 157.341C569.567 157.565 569.919 157.696 570.3 157.696C570.681 157.696 571.025 157.572 571.274 157.348C571.523 157.123 571.611 156.87 571.611 156.413V154.275H571.047Z" fill="white"/>
<path d="M573.195 157.094L575.956 152.783H572.485V153.304H574.938L572.177 157.616H575.67V157.094H573.195Z" fill="white"/>
<path d="M576.586 154.275V157.616H577.143V155.58C577.143 155.304 577.201 155.145 577.362 154.971C577.531 154.783 577.758 154.688 578.007 154.688C578.234 154.688 578.431 154.775 578.534 154.913C578.622 155.029 578.658 155.188 578.658 155.486V157.616H579.215V155.362C579.215 154.906 579.142 154.674 578.929 154.471C578.732 154.297 578.453 154.196 578.146 154.196C577.728 154.196 577.435 154.355 577.143 154.746V154.275H576.586Z" fill="white"/>
<path d="M581.747 156.623L580.436 152.783H579.792L581.44 157.616H582.04L583.739 152.783H583.087L581.747 156.623Z" fill="white"/>
<path d="M585.32 156.754L584.412 154.275H583.818L585.019 157.514L584.316 159.225H584.924L586.938 154.275H586.33L585.32 156.754Z" fill="white"/>
<path d="M589.72 156.826C589.449 157.08 589.185 157.188 588.855 157.188C588.196 157.188 587.735 156.674 587.735 155.935C587.735 155.21 588.196 154.703 588.863 154.703C589.178 154.703 589.463 154.819 589.72 155.051L590.078 154.696C589.727 154.355 589.331 154.196 588.848 154.196C587.859 154.196 587.164 154.92 587.164 155.957C587.164 156.971 587.852 157.696 588.819 157.696C589.309 157.696 589.683 157.543 590.064 157.203L589.72 156.826Z" fill="white"/>
<path d="M590.782 154.275V157.616H591.338V155.616C591.338 155.036 591.631 154.688 592.122 154.688C592.371 154.688 592.576 154.79 592.671 154.978C592.752 155.123 592.781 155.29 592.781 155.616V157.616H593.337V155.609C593.337 155.014 593.608 154.688 594.099 154.688C594.363 154.688 594.582 154.797 594.685 154.971C594.765 155.109 594.78 155.203 594.78 155.609V157.616H595.337V155.478C595.337 154.949 595.293 154.761 595.132 154.551C594.956 154.319 594.663 154.196 594.275 154.196C593.769 154.196 593.455 154.377 593.206 154.804C593.052 154.391 592.759 154.196 592.298 154.196C591.88 154.196 591.594 154.355 591.338 154.739V154.275H590.782Z" fill="white"/>
<path d="M597.046 153.304H598.972V152.783H596.431V157.616H598.972V157.094H597.046V155.442H598.972V154.92H597.046V153.304Z" fill="white"/>
<path d="M600.406 154.275H599.85V157.616H600.406V154.275ZM600.135 152.978C599.93 152.978 599.776 153.13 599.776 153.333C599.776 153.536 599.93 153.688 600.128 153.688C600.326 153.688 600.487 153.536 600.487 153.341C600.487 153.138 600.333 152.978 600.135 152.978Z" fill="white"/>
<path d="M602.19 157.065V152.783H601.574V157.616H603.91V157.065H602.19Z" fill="white"/>
<path d="M607.812 156.478C607.431 156.935 607.021 157.145 606.486 157.145C605.476 157.145 604.736 156.326 604.736 155.203C604.736 154.072 605.461 153.254 606.457 153.254C606.977 153.254 607.336 153.428 607.812 153.913L608.237 153.522C607.995 153.261 607.863 153.145 607.666 153.022C607.314 152.812 606.882 152.696 606.443 152.696C605.095 152.696 604.106 153.754 604.106 155.203C604.106 155.877 604.348 156.536 604.758 156.993C605.176 157.457 605.754 157.703 606.435 157.703C607.189 157.703 607.731 157.457 608.222 156.884L607.812 156.478Z" fill="white"/>
<path d="M610.659 152.783H608.63V153.304H610.044V155.783C610.044 156.413 609.97 156.688 609.736 156.891C609.553 157.043 609.289 157.123 608.931 157.123C608.85 157.123 608.777 157.123 608.63 157.109V157.638C608.733 157.645 608.821 157.645 608.872 157.645C609.304 157.645 609.648 157.594 609.883 157.486C610.402 157.254 610.659 156.804 610.659 156.123V152.783Z" fill="white"/>
<path d="M611.735 154.275V159.181H612.292V157.094C612.475 157.333 612.578 157.42 612.783 157.522C613.017 157.638 613.259 157.696 613.522 157.696C614.46 157.696 615.111 156.971 615.111 155.92C615.111 154.906 614.46 154.196 613.522 154.196C612.958 154.196 612.614 154.391 612.292 154.884V154.275H611.735ZM613.427 154.688C613.727 154.688 614.028 154.819 614.225 155.036C614.423 155.254 614.518 155.551 614.518 155.942C614.518 156.703 614.071 157.217 613.405 157.217C612.739 157.217 612.292 156.732 612.292 156C612.292 155.217 612.753 154.688 613.427 154.688Z" fill="white"/>
<path d="M617.654 155.486L619.316 152.783H618.584L617.339 154.855L616.079 152.783H615.354L617.039 155.486V157.616H617.654V155.486Z" fill="white"/>
<path d="M621.589 155.688L622.841 157.616H623.552L621.941 155.152L623.508 152.783H622.79L621.589 154.616L620.395 152.783H619.656L621.23 155.152L619.597 157.616H620.344L621.589 155.688Z" fill="white"/>
<path d="M628.585 157.377L628.043 156.797C628.409 156.312 628.57 155.826 628.57 155.181C628.57 153.761 627.545 152.696 626.183 152.696C624.799 152.696 623.773 153.775 623.773 155.225C623.773 155.899 623.971 156.464 624.359 156.891C624.821 157.399 625.494 157.703 626.161 157.703C626.717 157.703 627.164 157.543 627.64 157.181L628.16 157.761L628.585 157.377ZM627.281 155.978L626.864 156.341L627.223 156.739C626.878 157.029 626.578 157.138 626.153 157.138C625.143 157.138 624.403 156.326 624.403 155.196C624.403 154.703 624.542 154.261 624.791 153.942C625.121 153.514 625.641 153.261 626.175 153.261C627.186 153.261 627.933 154.087 627.933 155.21C627.933 155.652 627.845 155.971 627.633 156.355L627.281 155.978Z" fill="white"/>
<path d="M630.02 154.275H629.464V157.616H630.02V154.275ZM629.75 152.978C629.544 152.978 629.391 153.13 629.391 153.333C629.391 153.536 629.544 153.688 629.742 153.688C629.94 153.688 630.101 153.536 630.101 153.341C630.101 153.138 629.947 152.978 629.75 152.978Z" fill="white"/>
<path d="M633.32 152.696C631.936 152.696 630.903 153.783 630.903 155.225C630.903 155.833 631.079 156.377 631.416 156.797C631.87 157.362 632.58 157.703 633.305 157.703C633.869 157.703 634.425 157.5 634.865 157.123C635.399 156.674 635.692 156 635.692 155.246C635.692 154.522 635.517 153.986 635.121 153.529C634.652 153 634.001 152.696 633.32 152.696ZM633.305 153.261C633.737 153.261 634.184 153.449 634.506 153.761C634.887 154.123 635.063 154.594 635.063 155.239C635.063 155.732 634.879 156.254 634.594 156.565C634.264 156.935 633.781 157.145 633.29 157.145C632.28 157.145 631.533 156.326 631.533 155.203C631.533 154.087 632.287 153.261 633.305 153.261Z" fill="white"/>
<path d="M637.129 154.275H636.572V157.964C636.565 158.435 636.323 158.725 635.928 158.739H635.847V159.261H635.994C636.338 159.261 636.638 159.138 636.843 158.913C637.048 158.696 637.129 158.42 637.129 157.964V154.275ZM636.858 152.978C636.653 152.978 636.499 153.13 636.499 153.333C636.499 153.536 636.653 153.688 636.851 153.688C637.048 153.688 637.21 153.536 637.21 153.341C637.21 153.138 637.056 152.978 636.858 152.978Z" fill="white"/>
<path d="M638.854 153.304H640.78V152.783H638.239V157.616H640.78V157.094H638.854V155.442H640.78V154.92H638.854V153.304Z" fill="white"/>
<path d="M643.04 153.659V157.616H643.619V152.746L641.964 153.819V154.37L643.04 153.659Z" fill="white"/>
<path d="M646.035 154.072L647.837 157.667L649.653 154.08V157.616H650.268V152.783H649.667L647.837 156.406L646.028 152.783H645.42V157.616H646.035V154.072Z" fill="white"/>
<path d="M652.788 153.304H654.026V152.783H650.928V153.304H652.173V157.616H652.788V153.304Z" fill="white"/>
<path d="M656.651 155.486L658.313 152.783H657.581L656.336 154.855L655.076 152.783H654.351L656.036 155.486V157.616H656.651V155.486Z" fill="white"/>
<path d="M659.816 156.754L658.908 154.275H658.315L659.516 157.514L658.813 159.225H659.421L661.435 154.275H660.827L659.816 156.754Z" fill="white"/>
<path d="M662.705 154.072L664.507 157.667L666.323 154.08V157.616H666.938V152.783H666.337L664.507 156.406L662.698 152.783H662.09V157.616H662.705V154.072Z" fill="white"/>
<path d="M668.645 157.13L670.381 154.275H667.898V154.761H669.465L667.708 157.616H670.198V157.13H668.645Z" fill="white"/>
<path d="M671.599 156.123L672.947 157.616H673.642L672.141 155.906L673.65 154.275H672.947L671.599 155.739V152.783H671.043V157.616H671.599V156.123Z" fill="white"/>
<path d="M678.4 154.275L677.514 156.732L676.752 154.275H676.203L675.427 156.732L674.562 154.275H673.991L675.148 157.616H675.676L676.488 155.08L677.265 157.616H677.77L678.971 154.275H678.4Z" fill="white"/>
<path d="M680.241 154.072L682.042 157.667L683.858 154.08V157.616H684.473V152.783H683.873L682.042 156.406L680.233 152.783H679.625V157.616H680.241V154.072Z" fill="white"/>
<path d="M686.195 154.275H685.639V157.964C685.631 158.435 685.39 158.725 684.994 158.739H684.914V159.261H685.06C685.404 159.261 685.705 159.138 685.91 158.913C686.115 158.696 686.195 158.42 686.195 157.964V154.275ZM685.924 152.978C685.719 152.978 685.565 153.13 685.565 153.333C685.565 153.536 685.719 153.688 685.917 153.688C686.115 153.688 686.276 153.536 686.276 153.341C686.276 153.138 686.122 152.978 685.924 152.978Z" fill="white"/>
<path d="M688.974 152.783H686.946V153.304H688.359V155.783C688.359 156.413 688.286 156.688 688.052 156.891C687.869 157.043 687.605 157.123 687.246 157.123C687.166 157.123 687.092 157.123 686.946 157.109V157.638C687.048 157.645 687.136 157.645 687.188 157.645C687.62 157.645 687.964 157.594 688.198 157.486C688.718 157.254 688.974 156.804 688.974 156.123V152.783Z" fill="white"/>
<path d="M690.461 157.616H691.142L692.548 155.341C692.79 154.942 692.885 154.659 692.885 154.29C692.885 153.428 692.226 152.768 691.347 152.768C690.461 152.768 689.766 153.449 689.766 154.312C689.766 155.138 690.403 155.775 691.223 155.775C691.391 155.775 691.486 155.754 691.691 155.681L690.461 157.616ZM691.347 153.304C691.882 153.304 692.307 153.739 692.307 154.297C692.307 154.848 691.882 155.268 691.318 155.268C690.769 155.268 690.344 154.833 690.344 154.29C690.344 153.739 690.791 153.304 691.347 153.304Z" fill="white"/>
<path d="M693.998 156.92C693.779 156.92 693.617 157.08 693.617 157.297C693.617 157.514 693.779 157.674 693.998 157.674C694.211 157.674 694.379 157.514 694.379 157.304C694.379 157.08 694.218 156.92 693.998 156.92Z" fill="white"/>
<path d="M696.184 157.087L697.495 155.283C697.905 154.717 698.051 154.362 698.051 153.957C698.051 153.254 697.495 152.761 696.696 152.761C695.825 152.761 695.334 153.268 695.305 154.188H695.854C695.862 153.935 695.884 153.826 695.942 153.688C696.052 153.435 696.323 153.283 696.653 153.283C697.129 153.283 697.465 153.58 697.465 154C697.465 154.29 697.356 154.507 696.865 155.21L695.166 157.616H697.905V157.087H696.184Z" fill="white"/>
<path d="M702.54 156.478C702.159 156.935 701.749 157.145 701.215 157.145C700.204 157.145 699.465 156.326 699.465 155.203C699.465 154.072 700.19 153.254 701.185 153.254C701.705 153.254 702.064 153.428 702.54 153.913L702.965 153.522C702.723 153.261 702.592 153.145 702.394 153.022C702.042 152.812 701.61 152.696 701.171 152.696C699.823 152.696 698.835 153.754 698.835 155.203C698.835 155.877 699.076 156.536 699.487 156.993C699.904 157.457 700.482 157.703 701.164 157.703C701.918 157.703 702.46 157.457 702.95 156.884L702.54 156.478Z" fill="white"/>
<path d="M706.514 156.5L706.917 157.616H707.605L705.811 152.783H705.079L703.241 157.616H703.878L704.324 156.5H706.514ZM706.324 155.978H704.507L705.43 153.551L706.324 155.978Z" fill="white"/>
<path d="M710.369 152.855H709.688L708.289 155.08C708.011 155.522 707.916 155.79 707.916 156.145C707.916 157.022 708.59 157.703 709.461 157.703C710.325 157.703 711.036 157 711.036 156.145C711.036 155.326 710.406 154.696 709.593 154.696C709.417 154.696 709.322 154.717 709.117 154.79L710.369 152.855ZM709.49 155.188C710.032 155.188 710.464 155.623 710.464 156.167C710.464 156.717 710.025 157.159 709.476 157.159C708.927 157.159 708.494 156.71 708.494 156.145C708.494 155.609 708.934 155.188 709.49 155.188Z" fill="white"/>
<path d="M714.148 156.826C713.877 157.08 713.613 157.188 713.284 157.188C712.625 157.188 712.163 156.674 712.163 155.935C712.163 155.21 712.625 154.703 713.291 154.703C713.606 154.703 713.892 154.819 714.148 155.051L714.507 154.696C714.155 154.355 713.76 154.196 713.276 154.196C712.288 154.196 711.592 154.92 711.592 155.957C711.592 156.971 712.281 157.696 713.247 157.696C713.738 157.696 714.111 157.543 714.492 157.203L714.148 156.826Z" fill="white"/>
<path d="M717.07 154.993C717.319 154.906 717.422 154.841 717.553 154.696C717.729 154.493 717.824 154.232 717.824 153.957C717.824 153.268 717.268 152.768 716.499 152.768C715.723 152.768 715.151 153.275 715.151 153.964C715.151 154.232 715.239 154.478 715.4 154.674C715.532 154.833 715.642 154.906 715.898 154.993C715.605 155.087 715.481 155.159 715.327 155.319C715.093 155.558 714.961 155.906 714.961 156.29C714.961 157.116 715.583 157.703 716.47 157.703C717.363 157.703 718 157.094 718 156.239C718 155.862 717.876 155.543 717.634 155.304C717.48 155.145 717.348 155.08 717.07 154.993ZM716.499 153.275C716.916 153.275 717.275 153.601 717.275 153.978C717.275 154.37 716.902 154.71 716.484 154.71C716.052 154.71 715.708 154.384 715.708 153.971C715.708 153.565 716.03 153.275 716.499 153.275ZM716.492 155.297C716.997 155.297 717.414 155.725 717.414 156.232C717.414 156.746 716.997 157.167 716.477 157.167C715.957 157.167 715.54 156.746 715.54 156.232C715.54 155.71 715.964 155.297 716.492 155.297Z" fill="white"/>
<path d="M719.413 157.13L721.149 154.275H718.666V154.761H720.234L718.476 157.616H720.966V157.13H719.413Z" fill="white"/>
<path d="M723.473 152.783H721.445V153.304H722.858V155.783C722.858 156.413 722.785 156.688 722.55 156.891C722.367 157.043 722.104 157.123 721.745 157.123C721.664 157.123 721.591 157.123 721.445 157.109V157.638C721.547 157.645 721.635 157.645 721.686 157.645C722.118 157.645 722.463 157.594 722.697 157.486C723.217 157.254 723.473 156.804 723.473 156.123V152.783Z" fill="white"/>
<path d="M725.106 156.123L726.454 157.616H727.149L725.648 155.906L727.157 154.275H726.454L725.106 155.739V152.783H724.55V157.616H725.106V156.123Z" fill="white"/>
<path d="M728.325 157.043C728.654 157.5 729.02 157.696 729.54 157.696C730.463 157.696 731.115 156.978 731.115 155.957C731.115 154.92 730.456 154.196 729.511 154.196C729.02 154.196 728.661 154.391 728.325 154.848V152.783H727.768V157.616H728.325V157.043ZM729.438 154.688C730.075 154.688 730.529 155.225 730.529 155.971C730.529 156.717 730.082 157.217 729.416 157.217C728.757 157.217 728.317 156.71 728.317 155.949C728.317 155.217 728.793 154.688 729.438 154.688Z" fill="white"/>
<path d="M733.343 153.304H734.58V152.783H731.483V153.304H732.727V157.616H733.343V153.304Z" fill="white"/>
<path d="M737.146 153.391L735.418 157.616H736.047L737.981 152.855H735.271V153.391H737.146Z" fill="white"/>
<path d="M739.541 152.783H738.925V157.616H739.541V152.783Z" fill="white"/>
<path d="M741.262 154.275H740.705V157.616H741.262V154.275ZM740.991 152.978C740.786 152.978 740.632 153.13 740.632 153.333C740.632 153.536 740.786 153.688 740.983 153.688C741.181 153.688 741.342 153.536 741.342 153.341C741.342 153.138 741.188 152.978 740.991 152.978Z" fill="white"/>
<path d="M527.513 162.971V167.877H528.069V165.79C528.252 166.029 528.355 166.116 528.56 166.217C528.794 166.333 529.036 166.391 529.299 166.391C530.237 166.391 530.889 165.667 530.889 164.616C530.889 163.601 530.237 162.891 529.299 162.891C528.736 162.891 528.391 163.087 528.069 163.58V162.971H527.513ZM529.204 163.384C529.505 163.384 529.805 163.514 530.002 163.732C530.2 163.949 530.295 164.246 530.295 164.638C530.295 165.399 529.849 165.913 529.182 165.913C528.516 165.913 528.069 165.428 528.069 164.696C528.069 163.913 528.531 163.384 529.204 163.384Z" fill="white"/>
<path d="M532.398 164.283L534.295 166.312H535.079L533.182 164.304C533.629 164.275 533.848 164.225 534.083 164.101C534.537 163.862 534.786 163.428 534.786 162.884C534.786 162.007 534.156 161.478 533.116 161.478H531.783V166.312H532.398V164.283ZM532.398 163.87V162H533.116C533.79 162 534.156 162.326 534.156 162.928C534.156 163.536 533.753 163.87 533.014 163.87H532.398Z" fill="white"/>
<path d="M536.386 166.312V161.478H535.83V166.312H536.386Z" fill="white"/>
<path d="M537.974 165.826L539.709 162.971H537.227V163.457H538.794L537.036 166.312H539.526V165.826H537.974Z" fill="white"/>
<path d="M542.231 163.688C542.48 163.601 542.583 163.536 542.714 163.391C542.89 163.188 542.985 162.928 542.985 162.652C542.985 161.964 542.429 161.464 541.66 161.464C540.884 161.464 540.312 161.971 540.312 162.659C540.312 162.928 540.4 163.174 540.561 163.37C540.693 163.529 540.803 163.601 541.059 163.688C540.766 163.783 540.642 163.855 540.488 164.014C540.254 164.254 540.122 164.601 540.122 164.986C540.122 165.812 540.744 166.399 541.631 166.399C542.524 166.399 543.161 165.79 543.161 164.935C543.161 164.558 543.037 164.239 542.795 164C542.641 163.841 542.509 163.775 542.231 163.688ZM541.66 161.971C542.077 161.971 542.436 162.297 542.436 162.674C542.436 163.065 542.063 163.406 541.645 163.406C541.213 163.406 540.869 163.08 540.869 162.667C540.869 162.261 541.191 161.971 541.66 161.971ZM541.652 163.993C542.158 163.993 542.575 164.42 542.575 164.928C542.575 165.442 542.158 165.862 541.638 165.862C541.118 165.862 540.7 165.442 540.7 164.928C540.7 164.406 541.125 163.993 541.652 163.993Z" fill="white"/>
<path d="M546.53 163.543C546.185 163.08 545.841 162.891 545.329 162.891C544.897 162.891 544.53 163.022 544.26 163.283C543.923 163.601 543.725 164.116 543.725 164.652C543.725 165.645 544.391 166.391 545.285 166.391C545.812 166.391 546.2 166.167 546.53 165.674V166.377C546.53 166.725 546.442 166.993 546.273 167.174C546.083 167.377 545.746 167.5 545.395 167.5C545.109 167.5 544.794 167.42 544.604 167.304C544.509 167.239 544.435 167.174 544.281 167.014L543.901 167.391C544.267 167.797 544.765 168 545.395 168C545.907 168 546.339 167.848 546.64 167.558C546.947 167.268 547.086 166.891 547.086 166.333V162.971H546.53V163.543ZM545.431 163.399C545.731 163.399 546.046 163.543 546.251 163.768C546.449 163.986 546.515 164.217 546.515 164.652C546.515 164.986 546.42 165.312 546.273 165.478C546.054 165.732 545.739 165.884 545.417 165.884C544.779 165.884 544.311 165.348 544.311 164.63C544.311 163.906 544.772 163.399 545.431 163.399Z" fill="white"/>
<path d="M550.362 161.478H548.238V164.21C548.553 163.891 548.941 163.717 549.322 163.717C549.967 163.717 550.406 164.13 550.406 164.746C550.406 165.341 549.959 165.79 549.373 165.79C549.102 165.79 548.831 165.696 548.678 165.543C548.597 165.471 548.546 165.384 548.429 165.174L547.901 165.37C548.15 166.007 548.67 166.362 549.359 166.362C550.318 166.362 551.006 165.688 551.006 164.761C551.006 163.855 550.362 163.188 549.505 163.188C549.256 163.188 549.036 163.232 548.787 163.326V162.029H550.362V161.478Z" fill="white"/>
<path d="M552.537 161.478H551.922V166.312H552.537V161.478Z" fill="white"/>
<path d="M553.753 161.478V166.312H555.129C555.744 166.312 556.059 166.246 556.345 166.065C556.674 165.855 556.872 165.464 556.872 165.014C556.872 164.623 556.733 164.297 556.469 164.087C556.316 163.971 556.184 163.92 555.913 163.862C556.176 163.761 556.294 163.688 556.411 163.551C556.594 163.348 556.689 163.072 556.689 162.761C556.689 161.942 556.125 161.478 555.129 161.478H553.753ZM554.368 161.978H554.873C555.32 161.978 555.525 162.007 555.7 162.094C555.935 162.203 556.089 162.478 556.089 162.79C556.089 163.058 555.979 163.304 555.788 163.457C555.613 163.594 555.378 163.645 554.99 163.645L554.368 163.652V161.978ZM554.368 164.145H555.137C555.913 164.145 556.257 164.399 556.257 164.978C556.257 165.297 556.14 165.529 555.906 165.659C555.693 165.783 555.495 165.819 554.983 165.819H554.368V164.145Z" fill="white"/>
<path d="M557.786 166.312H558.972C559.683 166.312 560.247 166.13 560.671 165.754C561.169 165.312 561.44 164.638 561.44 163.819C561.44 162.362 560.554 161.478 559.082 161.478H557.786V166.312ZM558.401 161.993H559.06C560.181 161.993 560.81 162.659 560.81 163.826C560.81 164.543 560.591 165.08 560.151 165.428C559.8 165.703 559.448 165.79 558.621 165.79H558.401V161.993Z" fill="white"/>
<path d="M564.486 161.551H563.805L562.407 163.775C562.128 164.217 562.033 164.486 562.033 164.841C562.033 165.717 562.707 166.399 563.578 166.399C564.442 166.399 565.153 165.696 565.153 164.841C565.153 164.022 564.523 163.391 563.71 163.391C563.534 163.391 563.439 163.413 563.234 163.486L564.486 161.551ZM563.608 163.884C564.15 163.884 564.582 164.319 564.582 164.862C564.582 165.413 564.142 165.855 563.593 165.855C563.044 165.855 562.612 165.406 562.612 164.841C562.612 164.304 563.051 163.884 563.608 163.884Z" fill="white"/>
<path d="M568.734 165.196L569.137 166.312H569.825L568.031 161.478H567.299L565.46 166.312H566.098L566.544 165.196H568.734ZM568.543 164.674H566.727L567.65 162.246L568.543 164.674Z" fill="white"/>
<path d="M572.475 163.696V164.217H574.174C574.123 164.638 574.049 164.877 573.859 165.13C573.559 165.558 572.995 165.841 572.453 165.841C571.457 165.841 570.688 164.993 570.688 163.899C570.688 162.79 571.457 161.949 572.468 161.949C572.819 161.949 573.163 162.058 573.434 162.254C573.566 162.341 573.654 162.428 573.844 162.638L574.306 162.268C573.844 161.696 573.207 161.391 572.468 161.391C571.069 161.391 570.058 162.442 570.058 163.906C570.058 165.348 571.076 166.399 572.468 166.399C573.207 166.399 573.837 166.094 574.306 165.514C574.665 165.065 574.811 164.616 574.811 163.971C574.811 163.928 574.811 163.797 574.804 163.696H572.475Z" fill="white"/>
<path d="M576.433 165.783L577.743 163.978C578.153 163.413 578.3 163.058 578.3 162.652C578.3 161.949 577.743 161.457 576.945 161.457C576.074 161.457 575.583 161.964 575.554 162.884H576.103C576.11 162.63 576.132 162.522 576.191 162.384C576.301 162.13 576.572 161.978 576.901 161.978C577.377 161.978 577.714 162.275 577.714 162.696C577.714 162.986 577.604 163.203 577.114 163.906L575.415 166.312H578.153V165.783H576.433Z" fill="white"/>
<path d="M579.984 162H581.888V161.478H579.369V166.312H579.984V164.138H581.888V163.616H579.984V162Z" fill="white"/>
<path d="M583.135 166.312V161.478H582.579V166.312H583.135Z" fill="white"/>
<path d="M584.919 162.616L587.548 166.312H588.09V161.478H587.475V165.116L584.867 161.478H584.304V166.312H584.919V162.616Z" fill="white"/>
<path d="M590.928 162.072L589.515 163.826L589.757 164.036C589.969 163.913 590.115 163.87 590.342 163.87C590.979 163.87 591.419 164.275 591.419 164.855C591.419 165.42 590.95 165.862 590.357 165.862C589.903 165.862 589.559 165.601 589.427 165.138L588.9 165.232C589.068 165.964 589.617 166.391 590.386 166.391C591.316 166.391 592.005 165.717 592.005 164.812C592.005 163.957 591.404 163.355 590.555 163.355L591.99 161.551H589.222V162.072H590.928Z" fill="white"/>
<path d="M593.469 162.971H592.913V166.312H593.469V162.971ZM593.198 161.674C592.993 161.674 592.84 161.826 592.84 162.029C592.84 162.232 592.993 162.384 593.191 162.384C593.389 162.384 593.55 162.232 593.55 162.036C593.55 161.833 593.396 161.674 593.198 161.674Z" fill="white"/>
<path d="M596.871 165.522C596.6 165.775 596.336 165.884 596.007 165.884C595.348 165.884 594.886 165.37 594.886 164.63C594.886 163.906 595.348 163.399 596.014 163.399C596.329 163.399 596.615 163.514 596.871 163.746L597.23 163.391C596.878 163.051 596.483 162.891 596 162.891C595.011 162.891 594.315 163.616 594.315 164.652C594.315 165.667 595.004 166.391 595.97 166.391C596.461 166.391 596.834 166.239 597.215 165.899L596.871 165.522Z" fill="white"/>
<path d="M598.599 162.768L600.401 166.362L602.217 162.775V166.312H602.832V161.478H602.232L600.401 165.101L598.592 161.478H597.984V166.312H598.599V162.768Z" fill="white"/>
<path d="M606.18 161.391C604.796 161.391 603.763 162.478 603.763 163.92C603.763 164.529 603.939 165.072 604.276 165.493C604.73 166.058 605.44 166.399 606.165 166.399C606.729 166.399 607.286 166.196 607.725 165.819C608.26 165.37 608.553 164.696 608.553 163.942C608.553 163.217 608.377 162.681 607.981 162.225C607.513 161.696 606.861 161.391 606.18 161.391ZM606.165 161.957C606.597 161.957 607.044 162.145 607.366 162.457C607.747 162.819 607.923 163.29 607.923 163.935C607.923 164.428 607.74 164.949 607.454 165.261C607.125 165.63 606.641 165.841 606.151 165.841C605.14 165.841 604.393 165.022 604.393 163.899C604.393 162.783 605.147 161.957 606.165 161.957Z" fill="white"/>
<path d="M610.765 162.355V166.312H611.344V161.442L609.689 162.514V163.065L610.765 162.355Z" fill="white"/>
<path d="M613.761 164.08L615.613 166.312H616.397L614.361 163.87L616.397 161.478H615.657L613.761 163.703V161.478H613.145V166.312H613.761V164.08Z" fill="white"/>
<path d="M617.635 161.478H617.02V164.341C617.02 165.094 617.115 165.449 617.415 165.79C617.744 166.181 618.264 166.399 618.836 166.399C619.392 166.399 619.883 166.196 620.212 165.826C620.527 165.478 620.644 165.065 620.644 164.341V161.478H620.015V164.341C620.015 164.986 619.949 165.232 619.685 165.486C619.473 165.703 619.129 165.841 618.821 165.841C618.513 165.841 618.162 165.71 617.957 165.514C617.723 165.283 617.635 164.971 617.635 164.355V161.478Z" fill="white"/>
<path d="M624.209 163.543C623.865 163.08 623.521 162.891 623.008 162.891C622.576 162.891 622.21 163.022 621.939 163.283C621.602 163.601 621.404 164.116 621.404 164.652C621.404 165.645 622.071 166.391 622.964 166.391C623.491 166.391 623.879 166.167 624.209 165.674V166.377C624.209 166.725 624.121 166.993 623.953 167.174C623.762 167.377 623.425 167.5 623.074 167.5C622.788 167.5 622.473 167.42 622.283 167.304C622.188 167.239 622.114 167.174 621.961 167.014L621.58 167.391C621.946 167.797 622.444 168 623.074 168C623.586 168 624.019 167.848 624.319 167.558C624.626 167.268 624.765 166.891 624.765 166.333V162.971H624.209V163.543ZM623.11 163.399C623.411 163.399 623.726 163.543 623.931 163.768C624.128 163.986 624.194 164.217 624.194 164.652C624.194 164.986 624.099 165.312 623.953 165.478C623.733 165.732 623.418 165.884 623.096 165.884C622.459 165.884 621.99 165.348 621.99 164.63C621.99 163.906 622.451 163.399 623.11 163.399Z" fill="white"/>
<path d="M625.332 166.819V167.21H628.993V166.819H625.332Z" fill="white"/>
<path d="M629.55 162.971V166.312H630.106V164.275C630.106 164 630.165 163.841 630.326 163.667C630.494 163.478 630.721 163.384 630.97 163.384C631.197 163.384 631.395 163.471 631.498 163.609C631.586 163.725 631.622 163.884 631.622 164.181V166.312H632.179V164.058C632.179 163.601 632.105 163.37 631.893 163.167C631.695 162.993 631.417 162.891 631.11 162.891C630.692 162.891 630.399 163.051 630.106 163.442V162.971H629.55Z" fill="white"/>
<path d="M633.854 161.478H633.239V164.341C633.239 165.094 633.334 165.449 633.634 165.79C633.964 166.181 634.484 166.399 635.055 166.399C635.612 166.399 636.102 166.196 636.432 165.826C636.747 165.478 636.864 165.065 636.864 164.341V161.478H636.234V164.341C636.234 164.986 636.168 165.232 635.905 165.486C635.692 165.703 635.348 165.841 635.041 165.841C634.733 165.841 634.381 165.71 634.176 165.514C633.942 165.283 633.854 164.971 633.854 164.355V161.478Z" fill="white"/>
</g>
<path fill-rule="evenodd" clip-rule="evenodd" d="M736.361 115H758.639C760.06 114.998 761.423 114.405 762.428 113.35C763.433 112.296 763.998 110.867 764 109.376V94.6222C763.998 93.1318 763.433 91.7029 762.428 90.649C761.422 89.5951 760.06 89.0021 758.639 89H736.361C734.94 89.0021 733.578 89.5951 732.573 90.649C731.568 91.7029 731.002 93.1318 731 94.6222V109.378C731.002 110.868 731.568 112.297 732.573 113.351C733.578 114.405 734.94 114.998 736.361 115ZM733.038 91.1377C733.92 90.2134 735.115 89.6935 736.361 89.6921H741.361L747.171 95.2529V97.187C747.171 97.2647 747.156 97.3416 747.127 97.4133C747.099 97.485 747.057 97.5502 747.005 97.605C746.952 97.6599 746.89 97.7033 746.822 97.7329C746.753 97.7626 746.68 97.7777 746.606 97.7776H731.659V94.6222C731.661 93.3151 732.157 92.0619 733.038 91.1377ZM742.342 89.6921H752.658L747.5 94.6282L742.342 89.6921ZM753.639 89.6921H758.639C759.885 89.6935 761.08 90.2134 761.962 91.1377C762.843 92.0619 763.339 93.3151 763.34 94.6222V97.7791H752.502C752.177 97.7795 751.866 97.9149 751.637 98.1557C751.407 98.3964 751.278 98.7228 751.277 99.0633V105.526H743.719V98.4712H746.606C746.931 98.4713 747.242 98.3361 747.472 98.0953C747.702 97.8545 747.832 97.5278 747.832 97.187V95.2492L753.639 89.6921ZM751.606 106.22C751.607 106.22 751.608 106.22 751.61 106.22C751.611 106.22 751.611 106.22 751.612 106.22H763.34V109.376C763.339 110.683 762.843 111.937 761.962 112.861C761.08 113.785 759.885 114.305 758.639 114.306H753.638L747.829 108.746V106.22H751.606ZM751.94 105.526V99.0633C751.94 98.9067 752 98.7565 752.105 98.6458C752.211 98.5351 752.354 98.4728 752.503 98.4727H763.34V105.526H751.94ZM743.057 98.4712V105.526H731.659V98.4712H743.057ZM752.658 114.306H742.34L747.499 109.369L752.658 114.306ZM741.359 114.306H736.361C735.115 114.305 733.92 113.785 733.038 112.861C732.157 111.937 731.661 110.683 731.659 109.376V106.22H747.167V108.747L741.359 114.306Z" fill="url(#paint3_linear_137:40)"/>
<path d="M35.337 62.31V63.222C35.337 65.502 36.249 67.839 37.845 69.606C39.669 71.715 42.405 72.684 46.11 72.684C52.779 72.684 57.453 68.295 57.453 62.025C57.453 59.574 56.598 57.237 55.116 55.527C53.634 53.874 51.81 52.905 47.82 51.48C43.431 49.941 42.063 49.371 40.866 48.402C39.498 47.319 38.757 45.552 38.757 43.557C38.757 39.282 41.892 36.204 46.167 36.204C48.96 36.204 51.354 37.401 52.551 39.339C53.292 40.536 53.52 41.562 53.577 43.785H56.712C56.712 37.401 52.608 33.297 46.224 33.297C39.897 33.297 35.508 37.572 35.508 43.728C35.508 46.578 36.534 49.029 38.415 50.739C40.011 52.221 41.208 52.791 45.825 54.33C52.266 56.382 54.318 58.263 54.318 62.025C54.318 66.642 50.898 69.777 45.825 69.777C42.918 69.777 40.581 68.58 39.441 66.642C38.757 65.445 38.472 64.362 38.358 62.31H35.337ZM84.3931 60.087C84.4501 59.289 84.5071 58.605 84.5071 58.263C84.5071 50.967 78.9211 45.324 71.6251 45.324C64.1011 45.324 58.7431 51.024 58.7431 59.004C58.7431 66.87 64.1011 72.456 71.6251 72.456C76.3561 72.456 80.8021 69.834 82.7401 65.901L80.4031 64.647C78.6361 67.725 75.1591 69.777 71.5681 69.777C68.3761 69.777 65.5261 68.238 63.6451 65.559C62.5051 63.906 62.0491 62.595 61.8211 60.087H84.3931ZM61.9351 57.408C62.2201 55.014 62.6191 53.817 63.4741 52.449C65.1271 49.656 68.2051 48.003 71.5681 48.003C74.9311 48.003 78.0091 49.656 79.8331 52.335C80.8021 53.874 81.2011 55.128 81.3721 57.408H61.9351ZM105.269 66.528C103.103 68.751 100.709 69.777 97.7453 69.777C92.1023 69.777 88.2833 65.331 88.2833 58.776C88.2833 52.392 92.2163 48.003 97.9733 48.003C100.652 48.003 103.103 48.972 105.269 50.967L107.036 49.029C104.528 46.521 101.621 45.324 97.9733 45.324C90.5633 45.324 85.3193 50.91 85.3193 58.89C85.3193 66.87 90.3923 72.456 97.6883 72.456C101.45 72.456 104.243 71.316 107.036 68.58L105.269 66.528ZM124.61 45.78V62.709C124.61 65.217 124.211 66.471 123.185 67.611C121.988 68.922 119.936 69.777 117.941 69.777C113.951 69.777 111.272 66.927 111.272 62.709V45.78H108.422V62.709C108.422 68.58 112.241 72.456 117.998 72.456C120.677 72.456 123.185 71.487 125.009 69.663C126.833 67.896 127.46 66.129 127.46 62.709V45.78H124.61ZM132.347 45.78V72H135.197V58.32C134.912 52.392 138.275 48.117 143.12 48.117H144.089V45.324H142.949C141.011 45.324 139.016 45.951 137.648 47.034C136.622 47.889 136.052 48.63 135.197 50.511V45.78H132.347ZM168.098 60.087C168.155 59.289 168.212 58.605 168.212 58.263C168.212 50.967 162.626 45.324 155.33 45.324C147.806 45.324 142.448 51.024 142.448 59.004C142.448 66.87 147.806 72.456 155.33 72.456C160.061 72.456 164.507 69.834 166.445 65.901L164.108 64.647C162.341 67.725 158.864 69.777 155.273 69.777C152.081 69.777 149.231 68.238 147.35 65.559C146.21 63.906 145.754 62.595 145.526 60.087H168.098ZM145.64 57.408C145.925 55.014 146.324 53.817 147.179 52.449C148.832 49.656 151.91 48.003 155.273 48.003C158.636 48.003 161.714 49.656 163.538 52.335C164.507 53.874 164.906 55.128 165.077 57.408H145.64ZM41.379 77.981H38.13V116H41.379V77.981ZM47.5524 89.78V116H50.4024V99.926C50.4024 97.418 50.9154 96.05 52.5114 94.397C54.0504 92.801 55.9884 92.003 58.2114 92.003C60.1494 92.003 61.8024 92.687 62.6574 93.77C63.4554 94.796 63.7404 96.278 63.7404 99.014V116H66.5904V97.76C66.5904 94.568 66.0204 92.858 64.3674 91.376C62.9424 90.065 60.8904 89.324 58.5534 89.324C55.3614 89.324 52.9104 90.635 50.4024 93.713V89.78H47.5524ZM75.4294 92.459H79.8754V89.78H75.4294V85.163C75.5434 81.686 76.3984 80.774 79.8754 80.375V77.981C79.4194 77.924 79.0774 77.924 78.8494 77.924C77.0824 77.924 75.3724 78.665 74.2324 79.862C73.0924 81.116 72.5794 82.769 72.5794 85.163V89.78H68.6464V92.459H72.5794V116H75.4294V92.459ZM82.4471 89.78V116H85.2971V102.32C85.0121 96.392 88.3751 92.117 93.2201 92.117H94.1891V89.324H93.0491C91.1111 89.324 89.1161 89.951 87.7481 91.034C86.7221 91.889 86.1521 92.63 85.2971 94.511V89.78H82.4471ZM114.55 94.625C112.042 91.034 108.85 89.324 104.689 89.324C97.6206 89.324 92.6046 94.967 92.6046 102.89C92.6046 110.813 97.6776 116.456 104.746 116.456C108.793 116.456 111.928 114.461 114.55 110.186V116H117.4V89.78H114.55V94.625ZM104.917 92.003C110.674 92.003 114.607 96.278 114.607 102.491C114.607 108.704 110.218 113.777 104.746 113.777C99.5016 113.777 95.5686 109.217 95.5686 103.061C95.5686 100.211 96.4236 97.418 97.9056 95.366C99.6156 93.029 101.782 92.003 104.917 92.003ZM138.525 96.677C138.297 92.06 135.048 89.324 129.747 89.324C124.56 89.324 120.969 92.231 120.969 96.506C120.969 98.387 121.824 100.268 123.192 101.465C124.503 102.662 126.156 103.403 129.234 104.144C134.022 105.284 135.789 106.709 135.789 109.331C135.789 112.067 133.452 113.891 129.918 113.891C125.985 113.891 123.534 111.953 123.306 108.704H120.399C120.969 113.891 124.104 116.456 129.804 116.456C135.219 116.456 138.753 113.606 138.753 109.331C138.753 107.507 137.955 105.626 136.701 104.372C135.39 103.004 133.68 102.206 130.146 101.351C125.301 100.154 123.933 99.071 123.933 96.335C123.933 93.656 126.156 91.946 129.69 91.946C133.395 91.946 135.561 93.656 135.561 96.677H138.525ZM145.493 92.459H149.768V89.78H145.493V80.945H142.643V89.78H138.653V92.459H142.643V112.409C142.7 114.974 143.783 116 146.69 116H149.768V113.435H147.374C145.835 113.435 145.55 113.207 145.493 111.896V92.459ZM152.125 89.78V116H154.975V102.32C154.69 96.392 158.053 92.117 162.898 92.117H163.867V89.324H162.727C160.789 89.324 158.794 89.951 157.426 91.034C156.4 91.889 155.83 92.63 154.975 94.511V89.78H152.125ZM181.232 89.78V106.709C181.232 109.217 180.833 110.471 179.807 111.611C178.61 112.922 176.558 113.777 174.563 113.777C170.573 113.777 167.894 110.927 167.894 106.709V89.78H165.044V106.709C165.044 112.58 168.863 116.456 174.62 116.456C177.299 116.456 179.807 115.487 181.631 113.663C183.455 111.896 184.082 110.129 184.082 106.709V89.78H181.232ZM206.638 110.528C204.472 112.751 202.078 113.777 199.114 113.777C193.471 113.777 189.652 109.331 189.652 102.776C189.652 96.392 193.585 92.003 199.342 92.003C202.021 92.003 204.472 92.972 206.638 94.967L208.405 93.029C205.897 90.521 202.99 89.324 199.342 89.324C191.932 89.324 186.688 94.91 186.688 102.89C186.688 110.87 191.761 116.456 199.057 116.456C202.819 116.456 205.612 115.316 208.405 112.58L206.638 110.528ZM215.115 92.459H219.39V89.78H215.115V80.945H212.265V89.78H208.275V92.459H212.265V112.409C212.322 114.974 213.405 116 216.312 116H219.39V113.435H216.996C215.457 113.435 215.172 113.207 215.115 111.896V92.459ZM237.247 89.78V106.709C237.247 109.217 236.848 110.471 235.822 111.611C234.625 112.922 232.573 113.777 230.578 113.777C226.588 113.777 223.909 110.927 223.909 106.709V89.78H221.059V106.709C221.059 112.58 224.878 116.456 230.635 116.456C233.314 116.456 235.822 115.487 237.646 113.663C239.47 111.896 240.097 110.129 240.097 106.709V89.78H237.247ZM244.984 89.78V116H247.834V102.32C247.549 96.392 250.912 92.117 255.757 92.117H256.726V89.324H255.586C253.648 89.324 251.653 89.951 250.285 91.034C249.259 91.889 248.689 92.63 247.834 94.511V89.78H244.984ZM280.736 104.087C280.793 103.289 280.85 102.605 280.85 102.263C280.85 94.967 275.264 89.324 267.968 89.324C260.444 89.324 255.086 95.024 255.086 103.004C255.086 110.87 260.444 116.456 267.968 116.456C272.699 116.456 277.145 113.834 279.083 109.901L276.746 108.647C274.979 111.725 271.502 113.777 267.911 113.777C264.719 113.777 261.869 112.238 259.988 109.559C258.848 107.906 258.392 106.595 258.164 104.087H280.736ZM258.278 101.408C258.563 99.014 258.962 97.817 259.817 96.449C261.47 93.656 264.548 92.003 267.911 92.003C271.274 92.003 274.352 93.656 276.176 96.335C277.145 97.874 277.544 99.128 277.715 101.408H258.278ZM59.049 150.025L62.754 160H66.345L51.867 121.981H48.333L33.399 160H36.648L40.695 150.025H59.049ZM57.909 147.061H41.892L49.986 126.313L57.909 147.061ZM85.1501 154.528C82.9841 156.751 80.5901 157.777 77.6261 157.777C71.9831 157.777 68.1641 153.331 68.1641 146.776C68.1641 140.392 72.0971 136.003 77.8541 136.003C80.5331 136.003 82.9841 136.972 85.1501 138.967L86.9171 137.029C84.4091 134.521 81.5021 133.324 77.8541 133.324C70.4441 133.324 65.2001 138.91 65.2001 146.89C65.2001 154.87 70.2731 160.456 77.5691 160.456C81.3311 160.456 84.1241 159.316 86.9171 156.58L85.1501 154.528ZM106.216 154.528C104.05 156.751 101.656 157.777 98.6916 157.777C93.0486 157.777 89.2296 153.331 89.2296 146.776C89.2296 140.392 93.1626 136.003 98.9196 136.003C101.599 136.003 104.05 136.972 106.216 138.967L107.983 137.029C105.475 134.521 102.568 133.324 98.9196 133.324C91.5096 133.324 86.2656 138.91 86.2656 146.89C86.2656 154.87 91.3386 160.456 98.6346 160.456C102.397 160.456 105.19 159.316 107.983 156.58L106.216 154.528ZM132.925 148.087C132.982 147.289 133.039 146.605 133.039 146.263C133.039 138.967 127.453 133.324 120.157 133.324C112.633 133.324 107.275 139.024 107.275 147.004C107.275 154.87 112.633 160.456 120.157 160.456C124.888 160.456 129.334 157.834 131.272 153.901L128.935 152.647C127.168 155.725 123.691 157.777 120.1 157.777C116.908 157.777 114.058 156.238 112.177 153.559C111.037 151.906 110.581 150.595 110.353 148.087H132.925ZM110.467 145.408C110.752 143.014 111.151 141.817 112.006 140.449C113.659 137.656 116.737 136.003 120.1 136.003C123.463 136.003 126.541 137.656 128.365 140.335C129.334 141.874 129.733 143.128 129.904 145.408H110.467ZM151.414 140.677C151.186 136.06 147.937 133.324 142.636 133.324C137.449 133.324 133.858 136.231 133.858 140.506C133.858 142.387 134.713 144.268 136.081 145.465C137.392 146.662 139.045 147.403 142.123 148.144C146.911 149.284 148.678 150.709 148.678 153.331C148.678 156.067 146.341 157.891 142.807 157.891C138.874 157.891 136.423 155.953 136.195 152.704H133.288C133.858 157.891 136.993 160.456 142.693 160.456C148.108 160.456 151.642 157.606 151.642 153.331C151.642 151.507 150.844 149.626 149.59 148.372C148.279 147.004 146.569 146.206 143.035 145.351C138.19 144.154 136.822 143.071 136.822 140.335C136.822 137.656 139.045 135.946 142.579 135.946C146.284 135.946 148.45 137.656 148.45 140.677H151.414ZM170.866 140.677C170.638 136.06 167.389 133.324 162.088 133.324C156.901 133.324 153.31 136.231 153.31 140.506C153.31 142.387 154.165 144.268 155.533 145.465C156.844 146.662 158.497 147.403 161.575 148.144C166.363 149.284 168.13 150.709 168.13 153.331C168.13 156.067 165.793 157.891 162.259 157.891C158.326 157.891 155.875 155.953 155.647 152.704H152.74C153.31 157.891 156.445 160.456 162.145 160.456C167.56 160.456 171.094 157.606 171.094 153.331C171.094 151.507 170.296 149.626 169.042 148.372C167.731 147.004 166.021 146.206 162.487 145.351C157.642 144.154 156.274 143.071 156.274 140.335C156.274 137.656 158.497 135.946 162.031 135.946C165.736 135.946 167.902 137.656 167.902 140.677H170.866Z" fill="white"/>
<path d="M530.265 114.876L530.868 115.686L531.178 115.43L530.575 114.629L531.555 114.305L531.421 113.904L530.466 114.211V113.23H530.064V114.211L529.126 113.929L529 114.322L529.938 114.629L529.343 115.43L529.679 115.686L530.265 114.876Z" fill="white"/>
<path d="M533.263 114.876L533.866 115.686L534.176 115.43L533.573 114.629L534.553 114.305L534.419 113.904L533.464 114.211V113.23H533.062V114.211L532.124 113.929L531.998 114.322L532.936 114.629L532.342 115.43L532.677 115.686L533.263 114.876Z" fill="white"/>
<path d="M536.261 114.876L536.864 115.686L537.174 115.43L536.571 114.629L537.551 114.305L537.417 113.904L536.462 114.211V113.23H536.06V114.211L535.122 113.929L534.996 114.322L535.935 114.629L535.34 115.43L535.675 115.686L536.261 114.876Z" fill="white"/>
<path d="M542.451 117.886C542.451 118.244 542.694 118.406 543.247 118.406C544.336 118.406 544.99 117.655 544.99 116.385C544.99 114.449 543.499 113 541.505 113C540.583 113 539.687 113.333 539.033 113.929C538.304 114.577 537.944 115.447 537.944 116.53C537.944 117.417 538.179 118.133 538.656 118.713C539.326 119.514 540.365 120 541.429 120C541.739 120 541.857 119.983 542.418 119.881V119.207C541.898 119.343 541.806 119.361 541.505 119.361C539.779 119.361 538.597 118.201 538.597 116.504C538.597 114.85 539.837 113.639 541.538 113.639C543.163 113.639 544.362 114.808 544.362 116.385C544.362 117.314 543.968 117.851 543.272 117.851C543.08 117.851 543.046 117.817 543.046 117.579V114.97H542.451V115.447C542.15 115.072 541.781 114.893 541.32 114.893C540.416 114.893 539.762 115.635 539.762 116.658C539.762 117.664 540.407 118.389 541.312 118.389C541.773 118.389 542.116 118.201 542.451 117.758V117.886ZM541.396 115.438C542.007 115.438 542.46 115.916 542.46 116.564C542.46 117.289 541.991 117.851 541.396 117.851C540.818 117.851 540.39 117.348 540.39 116.658C540.39 115.942 540.801 115.438 541.396 115.438Z" fill="white"/>
<path d="M546.635 114.876L547.238 115.686L547.548 115.43L546.945 114.629L547.925 114.305L547.791 113.904L546.836 114.211V113.23H546.434V114.211L545.495 113.929L545.37 114.322L546.308 114.629L545.713 115.43L546.048 115.686L546.635 114.876Z" fill="white"/>
<path d="M549.633 114.876L550.236 115.686L550.546 115.43L549.943 114.629L550.923 114.305L550.789 113.904L549.834 114.211V113.23H549.432V114.211L548.493 113.929L548.368 114.322L549.306 114.629L548.711 115.43L549.046 115.686L549.633 114.876Z" fill="white"/>
<path d="M552.631 114.876L553.234 115.686L553.544 115.43L552.941 114.629L553.921 114.305L553.787 113.904L552.832 114.211V113.23H552.43V114.211L551.491 113.929L551.366 114.322L552.304 114.629L551.709 115.43L552.044 115.686L552.631 114.876Z" fill="white"/>
<path d="M554.53 118.082C554.279 118.082 554.095 118.269 554.095 118.525C554.095 118.781 554.279 118.968 554.53 118.968C554.773 118.968 554.966 118.781 554.966 118.533C554.966 118.269 554.782 118.082 554.53 118.082Z" fill="white"/>
<path d="M558.212 117.971C557.902 118.269 557.601 118.397 557.224 118.397C556.469 118.397 555.942 117.792 555.942 116.922C555.942 116.069 556.469 115.473 557.232 115.473C557.592 115.473 557.919 115.609 558.212 115.882L558.623 115.464C558.22 115.063 557.768 114.876 557.215 114.876C556.084 114.876 555.288 115.728 555.288 116.948C555.288 118.141 556.076 118.994 557.182 118.994C557.743 118.994 558.17 118.815 558.606 118.414L558.212 117.971Z" fill="white"/>
<path d="M560.411 114.876C559.238 114.876 558.434 115.711 558.434 116.931C558.434 118.141 559.238 118.994 560.386 118.994C561.492 118.994 562.363 118.099 562.363 116.948C562.363 115.737 561.55 114.876 560.411 114.876ZM560.411 115.473C561.19 115.473 561.709 116.061 561.709 116.939C561.709 117.792 561.165 118.397 560.402 118.397C559.615 118.397 559.087 117.809 559.087 116.939C559.087 116.061 559.615 115.473 560.411 115.473Z" fill="white"/>
<path d="M562.789 114.97V118.9H563.426V116.547C563.426 115.865 563.761 115.456 564.322 115.456C564.607 115.456 564.841 115.575 564.95 115.797C565.043 115.967 565.076 116.163 565.076 116.547V118.9H565.713V116.538C565.713 115.839 566.023 115.456 566.584 115.456C566.886 115.456 567.137 115.583 567.254 115.788C567.347 115.95 567.363 116.061 567.363 116.538V118.9H568V116.385C568 115.762 567.95 115.541 567.765 115.294C567.564 115.021 567.229 114.876 566.785 114.876C566.207 114.876 565.847 115.089 565.562 115.592C565.386 115.106 565.051 114.876 564.523 114.876C564.046 114.876 563.719 115.063 563.426 115.515V114.97H562.789Z" fill="white"/>
<path d="M530.335 105.533C529.889 106.08 529.409 106.331 528.784 106.331C527.602 106.331 526.737 105.35 526.737 104.004C526.737 102.65 527.585 101.669 528.75 101.669C529.358 101.669 529.778 101.877 530.335 102.459L530.831 101.99C530.549 101.677 530.394 101.538 530.163 101.391C529.752 101.139 529.247 101 528.733 101C527.156 101 526 102.268 526 104.004C526 104.812 526.283 105.602 526.762 106.149C527.251 106.705 527.927 107 528.724 107C529.606 107 530.24 106.705 530.814 106.019L530.335 105.533Z" fill="white"/>
<path d="M534.097 101C532.478 101 531.27 102.302 531.27 104.03C531.27 104.76 531.476 105.411 531.87 105.915C532.401 106.592 533.232 107 534.08 107C534.74 107 535.391 106.757 535.905 106.305C536.53 105.767 536.873 104.959 536.873 104.056C536.873 103.188 536.667 102.546 536.204 101.999C535.656 101.365 534.894 101 534.097 101ZM534.08 101.677C534.585 101.677 535.108 101.903 535.485 102.276C535.93 102.711 536.136 103.275 536.136 104.048C536.136 104.638 535.922 105.263 535.588 105.637C535.202 106.08 534.637 106.331 534.063 106.331C532.881 106.331 532.007 105.35 532.007 104.004C532.007 102.667 532.889 101.677 534.08 101.677Z" fill="white"/>
<path d="M538.682 102.467L541.757 106.896H542.391V101.104H541.671V105.463L538.622 101.104H537.962V106.896H538.682V102.467Z" fill="white"/>
<path d="M544.529 101.729H546.756V101.104H543.809V106.896H544.529V104.291H546.756V103.666H544.529V101.729Z" fill="white"/>
<path d="M548.436 101.104H547.716V106.896H548.436V101.104Z" fill="white"/>
<path d="M549.858 106.896H551.245C552.076 106.896 552.736 106.679 553.233 106.227C553.815 105.698 554.132 104.89 554.132 103.909C554.132 102.164 553.096 101.104 551.374 101.104H549.858V106.896ZM550.577 101.721H551.348C552.659 101.721 553.396 102.52 553.396 103.918C553.396 104.777 553.139 105.42 552.625 105.836C552.213 106.166 551.802 106.271 550.834 106.271H550.577V101.721Z" fill="white"/>
<path d="M555.938 101.729H558.191V101.104H555.218V106.896H558.191V106.271H555.938V104.291H558.191V103.666H555.938V101.729Z" fill="white"/>
<path d="M560.055 102.467L563.131 106.896H563.764V101.104H563.045V105.463L559.995 101.104H559.336V106.896H560.055V102.467Z" fill="white"/>
<path d="M566.709 101.729H568.156V101.104H564.533V101.729H565.989V106.896H566.709V101.729Z" fill="white"/>
<path d="M569.65 101.104H568.931V106.896H569.65V101.104Z" fill="white"/>
<path d="M574.233 105.559L574.705 106.896H575.51L573.411 101.104H572.554L570.404 106.896H571.15L571.672 105.559H574.233ZM574.011 104.933H571.886L572.966 102.025L574.011 104.933Z" fill="white"/>
<path d="M576.987 106.236V101.104H576.267V106.896H579V106.236H576.987Z" fill="white"/>
</g>
<defs>
<filter id="filter0_f_137:40" x="12" y="7" width="833" height="214" filterUnits="userSpaceOnUse" color-interpolation-filters="sRGB">
<feFlood flood-opacity="0" result="BackgroundImageFix"/>
<feBlend mode="normal" in="SourceGraphic" in2="BackgroundImageFix" result="shape"/>
<feGaussianBlur stdDeviation="13.5" result="effect1_foregroundBlur_137:40"/>
</filter>
<filter id="filter1_f_137:40" x="-39" y="-380" width="755" height="700" filterUnits="userSpaceOnUse" color-interpolation-filters="sRGB">
<feFlood flood-opacity="0" result="BackgroundImageFix"/>
<feBlend mode="normal" in="SourceGraphic" in2="BackgroundImageFix" result="shape"/>
<feGaussianBlur stdDeviation="87" result="effect1_foregroundBlur_137:40"/>
</filter>
<linearGradient id="paint0_linear_137:40" x1="459.235" y1="-61.3077" x2="262.421" y2="82.4077" gradientUnits="userSpaceOnUse">
<stop stop-color="#88007A"/>
<stop offset="1" stop-color="#004352"/>
</linearGradient>
<linearGradient id="paint1_linear_137:40" x1="484.11" y1="183" x2="567.75" y2="-2.78075" gradientUnits="userSpaceOnUse">
<stop stop-color="white"/>
<stop offset="0.491944" stop-color="#3B3131" stop-opacity="0"/>
<stop offset="1" stop-opacity="0"/>
</linearGradient>
<linearGradient id="paint2_linear_137:40" x1="500" y1="164" x2="625.363" y2="64.8355" gradientUnits="userSpaceOnUse">
<stop stop-color="white"/>
<stop offset="1" stop-color="white" stop-opacity="0"/>
</linearGradient>
<linearGradient id="paint3_linear_137:40" x1="756.569" y1="94.8103" x2="733.875" y2="140.406" gradientUnits="userSpaceOnUse">
<stop stop-color="white"/>
<stop offset="1" stop-color="white" stop-opacity="0"/>
</linearGradient>
</defs>
</svg>
