<svg width="877" height="267" viewBox="0 0 877 267" fill="none" xmlns="http://www.w3.org/2000/svg">
<g filter="url(#filter0_f_128:61)">
<rect x="49" y="49" width="779" height="160" rx="9" fill="#0E1116"/>
<rect x="49.5" y="49.5" width="778" height="159" rx="8.5" stroke="white" stroke-opacity="0.27"/>
</g>
<rect x="10" y="15" width="851" height="194" rx="9" fill="#0E1116"/>
<rect x="10.5" y="15.5" width="850" height="193" rx="8.5" stroke="white" stroke-opacity="0.27"/>
<mask id="mask0_128:61" style="mask-type:alpha" maskUnits="userSpaceOnUse" x="10" y="15" width="851" height="194">
<rect x="10" y="15" width="851" height="194" rx="9" fill="#0E1116"/>
</mask>
<g mask="url(#mask0_128:61)">
<g opacity="0.4" filter="url(#filter1_f_128:61)">
<path d="M552 -15C552 82.2021 460.89 161 348.5 161C236.11 161 145 82.2021 145 -15C145 -112.202 236.11 -191 348.5 -191C460.89 -191 552 -112.202 552 -15Z" fill="url(#paint0_linear_128:61)"/>
</g>
<path fill-rule="evenodd" clip-rule="evenodd" d="M824.86 -34.0587H378.282C372.57 -34.0587 367.94 -29.423 367.94 -23.7045V181.496C367.94 187.215 372.57 191.85 378.282 191.85H824.86C830.572 191.85 835.202 187.215 835.202 181.496V-23.7045C835.202 -29.423 830.572 -34.0587 824.86 -34.0587ZM378.282 -35C372.051 -35 367 -29.9429 367 -23.7045V181.496C367 187.735 372.051 192.792 378.282 192.792H824.86C831.091 192.792 836.142 187.735 836.142 181.496V-23.7045C836.142 -29.9429 831.091 -35 824.86 -35H378.282Z" fill="url(#paint1_linear_128:61)"/>
<path opacity="0.4" fill-rule="evenodd" clip-rule="evenodd" d="M821.418 -27.2829H379.012C375.893 -27.2829 373.365 -24.7649 373.365 -21.6588V180.807C373.365 183.913 375.893 186.431 379.012 186.431H821.418C824.537 186.431 827.065 183.913 827.065 180.807V-21.6588C827.065 -24.7649 824.537 -27.2829 821.418 -27.2829ZM379.012 -28.2202C375.373 -28.2202 372.423 -25.2826 372.423 -21.6588V180.807C372.423 184.431 375.373 187.368 379.012 187.368H821.418C825.057 187.368 828.007 184.431 828.007 180.807V-21.6588C828.007 -25.2826 825.057 -28.2202 821.418 -28.2202H379.012Z" fill="url(#paint2_linear_128:61)" fill-opacity="0.18"/>
<path opacity="0.1" d="M401.599 -11.9497C392.96 -11.9497 385.983 -4.97207 385.983 3.66691C385.983 12.2584 392.96 19.2361 401.599 19.2361C410.191 19.2361 417.168 12.2584 417.168 3.66691C417.168 -4.97207 410.191 -11.9497 401.599 -11.9497ZM397.327 12.2584C395.618 9.60028 394.906 8.84081 394.1 7.65413C390.16 1.86317 394.052 -2.78859 396.141 -4.2126C399.178 -6.30114 404.732 -6.77581 407.912 -2.26645C408.245 -1.79179 408.055 -1.07978 407.58 -0.747512C407.105 -0.415244 406.346 -0.367777 405.966 -0.93738C404.352 -3.35819 400.413 -4.26006 397.612 -2.36139C394.812 -0.462711 393.815 3.19224 395.998 6.13519C397.849 8.69841 398.609 9.74268 399.368 10.9294C400.223 12.4008 398.324 13.6824 397.327 12.2584ZM403.261 12.828C403.023 12.9704 402.169 13.3502 401.599 12.4008C401.03 11.4515 401.077 11.5464 400.602 10.692C400.128 9.83761 400.792 9.22054 401.03 9.07814C401.267 8.93574 402.074 8.50854 402.644 9.50534C402.644 9.50534 403.118 10.3123 403.64 11.2142C404.21 12.0686 403.545 12.6856 403.261 12.828ZM405.112 11.0243C403.688 8.55601 402.833 6.94213 400.128 3.42958C399.273 2.33784 401.125 0.866363 402.074 2.1005C404.02 4.56878 406.204 8.03387 407.105 9.64774C407.912 11.2616 405.871 12.3059 405.112 11.0243ZM407.865 8.55601C407.011 7.132 404.352 2.5277 402.501 0.818895C400.887 -0.700046 397.897 1.34103 398.656 3.42958C398.894 4.09411 399.938 5.42319 400.602 6.32506C401.647 7.7016 399.606 8.84081 398.656 7.65413C397.707 6.46746 397.47 6.04026 396.758 4.85359C396.141 3.80931 395.666 0.629028 398.229 -1.07978C400.792 -2.83606 403.593 -1.74432 404.542 -0.557644C405.492 0.629029 408.34 4.42638 409.859 7.36933C410.618 8.60347 408.672 9.93255 407.865 8.55601ZM410.855 3.99918C410.618 4.18905 409.811 4.56878 409.194 3.66691C408.577 2.76504 408.624 2.85997 408.102 2.05304C407.533 1.2461 408.197 0.581562 408.435 0.391694C408.672 0.249293 409.431 -0.225377 410.096 0.723962C410.096 0.723962 410.618 1.48343 411.188 2.33784C411.757 3.19224 411.093 3.85678 410.855 3.99918Z" fill="white"/>
<path d="M442.523 114.291H441.575V122.144H442.523V114.291Z" fill="white"/>
<path d="M445.346 116.14L449.398 122.144H450.234V114.291H449.285V120.201L445.267 114.291H444.397V122.144H445.346V116.14Z" fill="white"/>
<path d="M453.052 115.139H455.987V114.291H452.103V122.144H453.052V118.612H455.987V117.764H453.052V115.139Z" fill="white"/>
<path d="M458.2 118.847L461.124 122.144H462.332L459.408 118.883C460.097 118.836 460.435 118.753 460.797 118.553C461.497 118.165 461.88 117.458 461.88 116.575C461.88 115.151 460.91 114.291 459.307 114.291H457.252V122.144H458.2V118.847ZM458.2 118.176V115.139H459.307C460.345 115.139 460.91 115.669 460.91 116.646C460.91 117.635 460.289 118.176 459.148 118.176H458.2Z" fill="white"/>
<path d="M468.021 120.331L468.642 122.144H469.703L466.938 114.291H465.809L462.975 122.144H463.957L464.646 120.331H468.021ZM467.728 119.483H464.928L466.351 115.539L467.728 119.483Z" fill="white"/>
<path d="M473.578 120.037V120.201C473.578 120.578 473.657 120.908 473.838 121.226C474.233 121.932 474.888 122.285 475.848 122.285C477.259 122.285 478.218 121.367 478.218 120.013C478.218 119.483 478.038 118.989 477.71 118.624C477.405 118.282 477.022 118.07 476.22 117.776C475.452 117.494 475.249 117.399 475.012 117.223C474.741 117.023 474.583 116.693 474.583 116.316C474.583 115.563 475.114 115.033 475.859 115.033C476.344 115.033 476.762 115.245 476.976 115.586C477.101 115.81 477.146 115.998 477.157 116.399H478.105C478.071 115.033 477.202 114.15 475.87 114.15C474.538 114.15 473.624 115.056 473.624 116.387C473.624 116.987 473.827 117.505 474.211 117.87C474.549 118.188 474.843 118.341 475.735 118.659C476.92 119.071 477.259 119.389 477.259 120.072C477.259 120.861 476.66 121.402 475.814 121.402C474.99 121.402 474.527 120.931 474.482 120.037H473.578Z" fill="white"/>
<path d="M482.029 118.683L484.591 114.291H483.462L481.543 117.658L479.601 114.291H478.484L481.08 118.683V122.144H482.029V118.683Z" fill="white"/>
<path d="M484.879 120.037V120.201C484.879 120.578 484.958 120.908 485.138 121.226C485.533 121.932 486.188 122.285 487.148 122.285C488.559 122.285 489.518 121.367 489.518 120.013C489.518 119.483 489.338 118.989 489.01 118.624C488.706 118.282 488.322 118.07 487.52 117.776C486.753 117.494 486.549 117.399 486.312 117.223C486.041 117.023 485.883 116.693 485.883 116.316C485.883 115.563 486.414 115.033 487.159 115.033C487.644 115.033 488.062 115.245 488.277 115.586C488.401 115.81 488.446 115.998 488.457 116.399H489.406C489.372 115.033 488.502 114.15 487.17 114.15C485.838 114.15 484.924 115.056 484.924 116.387C484.924 116.987 485.127 117.505 485.511 117.87C485.849 118.188 486.143 118.341 487.035 118.659C488.22 119.071 488.559 119.389 488.559 120.072C488.559 120.861 487.961 121.402 487.114 121.402C486.29 121.402 485.827 120.931 485.782 120.037H484.879Z" fill="white"/>
<path d="M492.964 115.139H494.872V114.291H490.097V115.139H492.016V122.144H492.964V115.139Z" fill="white"/>
<path d="M496.795 115.139H499.764V114.291H495.847V122.144H499.764V121.296H496.795V118.612H499.764V117.764H496.795V115.139Z" fill="white"/>
<path d="M502.221 116.387L504.998 122.226L507.798 116.399V122.144H508.746V114.291H507.821L504.998 120.178L502.21 114.291H501.273V122.144H502.221V116.387Z" fill="white"/>
<path d="M518.172 120.331L518.793 122.144H519.854L517.088 114.291H515.959L513.126 122.144H514.108L514.797 120.331H518.172ZM517.879 119.483H515.079L516.501 115.539L517.879 119.483Z" fill="white"/>
<path d="M520.853 122.144H522.681C523.777 122.144 524.646 121.85 525.301 121.237C526.068 120.519 526.486 119.424 526.486 118.094C526.486 115.728 525.12 114.291 522.851 114.291H520.853V122.144ZM521.801 115.127H522.817C524.544 115.127 525.515 116.21 525.515 118.106C525.515 119.271 525.176 120.143 524.499 120.708C523.957 121.155 523.415 121.296 522.14 121.296H521.801V115.127Z" fill="white"/>
<path d="M528.868 116.387L531.645 122.226L534.445 116.399V122.144H535.393V114.291H534.467L531.645 120.178L528.856 114.291H527.919V122.144H528.868V116.387Z" fill="white"/>
<path d="M538.216 114.291H537.268V122.144H538.216V114.291Z" fill="white"/>
<path d="M541.039 116.14L545.092 122.144H545.927V114.291H544.979V120.201L540.96 114.291H540.091V122.144H541.039V116.14Z" fill="white"/>
<path d="M548.745 114.291H547.797V122.144H548.745V114.291Z" fill="white"/>
<path d="M550.111 120.037V120.201C550.111 120.578 550.19 120.908 550.371 121.226C550.766 121.932 551.42 122.285 552.38 122.285C553.791 122.285 554.751 121.367 554.751 120.013C554.751 119.483 554.57 118.989 554.243 118.624C553.938 118.282 553.554 118.07 552.753 117.776C551.985 117.494 551.782 117.399 551.545 117.223C551.274 117.023 551.116 116.693 551.116 116.316C551.116 115.563 551.646 115.033 552.391 115.033C552.877 115.033 553.294 115.245 553.509 115.586C553.633 115.81 553.678 115.998 553.69 116.399H554.638C554.604 115.033 553.735 114.15 552.403 114.15C551.071 114.15 550.156 115.056 550.156 116.387C550.156 116.987 550.359 117.505 550.743 117.87C551.082 118.188 551.375 118.341 552.267 118.659C553.453 119.071 553.791 119.389 553.791 120.072C553.791 120.861 553.193 121.402 552.346 121.402C551.522 121.402 551.059 120.931 551.014 120.037H550.111Z" fill="white"/>
<path d="M558.197 115.139H560.105V114.291H555.329V115.139H557.248V122.144H558.197V115.139Z" fill="white"/>
<path d="M562.074 118.847L564.998 122.144H566.205L563.282 118.883C563.97 118.836 564.309 118.753 564.67 118.553C565.37 118.165 565.754 117.458 565.754 116.575C565.754 115.151 564.783 114.291 563.18 114.291H561.125V122.144H562.074V118.847ZM562.074 118.176V115.139H563.18C564.219 115.139 564.783 115.669 564.783 116.646C564.783 117.635 564.162 118.176 563.022 118.176H562.074Z" fill="white"/>
<path d="M571.895 120.331L572.516 122.144H573.577L570.811 114.291H569.682L566.849 122.144H567.831L568.519 120.331H571.895ZM571.601 119.483H568.802L570.224 115.539L571.601 119.483Z" fill="white"/>
<path d="M576.067 115.139H577.975V114.291H573.2V115.139H575.119V122.144H576.067V115.139Z" fill="white"/>
<path d="M581.907 114.15C579.773 114.15 578.181 115.916 578.181 118.259C578.181 119.248 578.452 120.131 578.971 120.814C579.671 121.732 580.766 122.285 581.884 122.285C582.753 122.285 583.611 121.956 584.289 121.343C585.113 120.613 585.564 119.519 585.564 118.294C585.564 117.117 585.293 116.246 584.684 115.504C583.961 114.644 582.956 114.15 581.907 114.15ZM581.884 115.068C582.55 115.068 583.239 115.374 583.735 115.881C584.322 116.469 584.593 117.235 584.593 118.282C584.593 119.083 584.311 119.931 583.871 120.437C583.363 121.037 582.618 121.379 581.861 121.379C580.303 121.379 579.152 120.048 579.152 118.223C579.152 116.41 580.315 115.068 581.884 115.068Z" fill="white"/>
<path d="M587.948 118.847L590.872 122.144H592.08L589.156 118.883C589.845 118.836 590.184 118.753 590.545 118.553C591.245 118.165 591.629 117.458 591.629 116.575C591.629 115.151 590.658 114.291 589.055 114.291H587V122.144H587.948V118.847ZM587.948 118.176V115.139H589.055C590.093 115.139 590.658 115.669 590.658 116.646C590.658 117.635 590.037 118.176 588.897 118.176H587.948Z" fill="white"/>
<g opacity="0.2">
<path d="M392.056 96.5225H391.406V104.658H392.056V96.5225Z" fill="white"/>
<path d="M394.111 104.658H395.753C398.169 104.658 399.594 103.097 399.594 100.426C399.594 98.0349 398.238 96.5225 396.061 96.5225H394.111V104.658ZM394.761 97.1445H396.026C397.907 97.1445 398.933 98.3032 398.933 100.426C398.933 101.804 398.568 102.792 397.816 103.414C397.223 103.902 396.642 104.036 395.114 104.036H394.761V97.1445Z" fill="white"/>
<path d="M401.785 97.1445H404.954V96.5225H401.135V104.658H404.954V104.036H401.785V100.852H404.954V100.23H401.785V97.1445Z" fill="white"/>
<path d="M407.228 97.8885L411.776 104.658H412.266V96.5225H411.617V103.194L407.114 96.5225H406.579V104.658H407.228V97.8885Z" fill="white"/>
<path d="M416.037 97.1445H418.032V96.5225H413.393V97.1445H415.387V104.658H416.037V97.1445Z" fill="white"/>
<path d="M419.807 96.5225H419.157V104.658H419.807V96.5225Z" fill="white"/>
<path d="M423.584 97.1445H425.579V96.5225H420.94V97.1445H422.934V104.658H423.584V97.1445Z" fill="white"/>
<path d="M429.462 101.084L432.084 96.5225H431.32L429.12 100.352L426.909 96.5225H426.145L428.812 101.084V104.658H429.462V101.084Z" fill="white"/>
</g>
<g opacity="0.2">
<path d="M395.243 84.8298L395.993 86.8901H396.719L393.789 79.0373H393.073L390.051 86.8901H390.708L391.527 84.8298H395.243ZM395.012 84.2176H391.77L393.408 79.9321L395.012 84.2176Z" fill="white"/>
<path d="M402.966 85.1948C402.297 86.0542 401.616 86.4192 400.704 86.4192C398.997 86.4192 397.739 84.9711 397.739 82.9814C397.739 80.9799 398.985 79.5082 400.67 79.5082C401.212 79.5082 401.777 79.6848 402.216 79.9909C402.447 80.1557 402.62 80.3088 402.966 80.6973L403.45 80.297C402.7 79.3434 401.801 78.896 400.67 78.896C398.593 78.896 397.058 80.6267 397.058 82.9696C397.058 84.0645 397.439 85.1477 398.074 85.8894C398.72 86.6311 399.631 87.0314 400.681 87.0314C401.327 87.0314 401.974 86.8666 402.493 86.5487C402.885 86.3132 403.104 86.1131 403.45 85.6304L402.966 85.1948Z" fill="white"/>
<path d="M410.008 85.1948C409.339 86.0542 408.658 86.4192 407.747 86.4192C406.039 86.4192 404.781 84.9711 404.781 82.9814C404.781 80.9799 406.027 79.5082 407.712 79.5082C408.254 79.5082 408.82 79.6848 409.258 79.9909C409.489 80.1557 409.662 80.3088 410.008 80.6973L410.493 80.297C409.743 79.3434 408.843 78.896 407.712 78.896C405.635 78.896 404.101 80.6267 404.101 82.9696C404.101 84.0645 404.481 85.1477 405.116 85.8894C405.762 86.6311 406.674 87.0314 407.723 87.0314C408.37 87.0314 409.016 86.8666 409.535 86.5487C409.927 86.3132 410.146 86.1131 410.493 85.6304L410.008 85.1948Z" fill="white"/>
<path d="M412.499 79.6377H415.707V79.0373H411.842V86.8901H415.707V86.2897H412.499V83.2168H415.707V82.6164H412.499V79.6377Z" fill="white"/>
<path d="M416.64 84.8887V85.077C416.64 85.548 416.824 86.0307 417.147 86.3956C417.517 86.8313 418.07 87.0314 418.82 87.0314C420.17 87.0314 421.116 86.1249 421.116 84.8298C421.116 84.3235 420.943 83.8408 420.643 83.4876C420.343 83.1462 419.974 82.946 419.166 82.6517C418.278 82.3338 418.001 82.2161 417.759 82.0159C417.482 81.7923 417.332 81.4273 417.332 81.0152C417.332 80.1322 417.966 79.4964 418.832 79.4964C419.397 79.4964 419.882 79.7437 420.124 80.144C420.274 80.3912 420.32 80.6031 420.332 81.0623H420.966C420.966 79.7437 420.136 78.896 418.843 78.896C417.563 78.896 416.674 79.779 416.674 81.0505C416.674 81.6392 416.882 82.1455 417.263 82.4987C417.586 82.8048 417.828 82.9225 418.763 83.2404C420.066 83.6642 420.482 84.0527 420.482 84.8298C420.482 85.7834 419.789 86.431 418.763 86.431C418.174 86.431 417.701 86.1837 417.47 85.7834C417.332 85.5362 417.274 85.3125 417.251 84.8887H416.64Z" fill="white"/>
<path d="M422.183 84.8887V85.077C422.183 85.548 422.368 86.0307 422.691 86.3956C423.06 86.8313 423.614 87.0314 424.364 87.0314C425.714 87.0314 426.66 86.1249 426.66 84.8298C426.66 84.3235 426.487 83.8408 426.187 83.4876C425.887 83.1462 425.518 82.946 424.71 82.6517C423.822 82.3338 423.545 82.2161 423.302 82.0159C423.025 81.7923 422.875 81.4273 422.875 81.0152C422.875 80.1322 423.51 79.4964 424.375 79.4964C424.941 79.4964 425.425 79.7437 425.668 80.144C425.818 80.3912 425.864 80.6031 425.875 81.0623H426.51C426.51 79.7437 425.679 78.896 424.387 78.896C423.106 78.896 422.218 79.779 422.218 81.0505C422.218 81.6392 422.426 82.1455 422.806 82.4987C423.129 82.8048 423.372 82.9225 424.306 83.2404C425.61 83.6642 426.025 84.0527 426.025 84.8298C426.025 85.7834 425.333 86.431 424.306 86.431C423.718 86.431 423.245 86.1837 423.014 85.7834C422.875 85.5362 422.818 85.3125 422.795 84.8887H422.183Z" fill="white"/>
</g>
<g opacity="0.2">
<path d="M392.061 118.753L395.482 122.144H396.377L392.945 118.753C393.06 118.765 393.163 118.765 393.209 118.765C393.783 118.765 394.196 118.706 394.506 118.577C395.333 118.223 395.815 117.458 395.815 116.505C395.815 115.151 394.862 114.291 393.37 114.291H391.406V122.144H392.061V118.753ZM392.061 118.235V114.892H393.324C394.529 114.892 395.149 115.445 395.149 116.54C395.149 117.647 394.449 118.235 393.163 118.235H392.061Z" fill="white"/>
<path d="M400.629 114.15C399.699 114.15 398.769 114.55 398.081 115.245C397.334 115.998 396.956 117.011 396.956 118.259C396.956 119.248 397.22 120.143 397.69 120.778C398.379 121.708 399.493 122.285 400.606 122.285C401.444 122.285 402.294 121.956 402.983 121.367C403.809 120.661 404.257 119.577 404.257 118.318C404.257 117.129 403.981 116.222 403.407 115.527C402.684 114.656 401.662 114.15 400.629 114.15ZM400.618 114.762C401.341 114.762 402.122 115.104 402.673 115.657C403.304 116.293 403.591 117.117 403.591 118.271C403.591 119.165 403.27 120.107 402.799 120.661C402.236 121.296 401.421 121.673 400.595 121.673C398.861 121.673 397.621 120.225 397.621 118.212C397.621 116.222 398.896 114.762 400.618 114.762Z" fill="white"/>
<path d="M406.501 121.473V114.291H405.846V122.144H409.267V121.473H406.501Z" fill="white"/>
<path d="M411.265 114.892H414.457V114.291H410.611V122.144H414.457V121.544H411.265V118.471H414.457V117.87H411.265V114.892Z" fill="white"/>
</g>
<g opacity="0.2">
<path d="M392.736 135.105H394.762V134.605H390.051V135.105H392.076V141.149H392.736V135.105Z" fill="white"/>
<path d="M398.625 134.487C397.687 134.487 396.749 134.821 396.055 135.4C395.302 136.028 394.92 136.871 394.92 137.911C394.92 138.736 395.187 139.481 395.661 140.011C396.356 140.786 397.479 141.267 398.601 141.267C399.446 141.267 400.303 140.992 400.998 140.502C401.831 139.913 402.282 139.01 402.282 137.96C402.282 136.97 402.005 136.214 401.426 135.635C400.697 134.909 399.666 134.487 398.625 134.487ZM398.613 134.997C399.342 134.997 400.129 135.282 400.685 135.743C401.322 136.273 401.611 136.96 401.611 137.921C401.611 138.667 401.287 139.452 400.812 139.913C400.245 140.443 399.423 140.757 398.59 140.757C396.842 140.757 395.592 139.55 395.592 137.872C395.592 136.214 396.877 134.997 398.613 134.997Z" fill="white"/>
<path d="M404.545 138.078L407.867 141.149H408.781L405.193 137.892L408.781 134.605H407.971L404.545 137.705V134.605H403.885V141.149H404.545V138.078Z" fill="white"/>
<path d="M410.592 135.105H413.81V134.605H409.933V141.149H413.81V140.649H410.592V138.088H413.81V137.588H410.592V135.105Z" fill="white"/>
<path d="M416.12 135.704L420.739 141.149H421.236V134.605H420.577V139.972L416.004 134.605H415.46V141.149H416.12V135.704Z" fill="white"/>
</g>
<path d="M444.741 98.9371V102.021C444.741 102.407 444.685 102.606 444.516 102.794C444.302 103.024 443.952 103.16 443.592 103.16C442.905 103.16 442.431 102.679 442.431 102V98.9371H441.575V102.021C441.575 102.606 441.744 103.045 442.093 103.359C442.465 103.683 443.006 103.871 443.592 103.871C444.178 103.871 444.707 103.693 445.09 103.369C445.474 103.045 445.609 102.679 445.609 102.021V98.9371H444.741Z" fill="white"/>
<path d="M450.447 100.254C450.401 99.3448 449.737 98.8221 448.632 98.8221C447.539 98.8221 446.807 99.3866 446.807 100.223C446.807 100.955 447.314 101.394 448.441 101.676C449.331 101.885 449.624 102.094 449.624 102.512C449.624 102.941 449.241 103.223 448.655 103.223C448.001 103.223 447.618 102.93 447.562 102.387H446.717C446.807 103.359 447.472 103.871 448.655 103.871C449.759 103.871 450.503 103.306 450.503 102.47C450.503 102.115 450.345 101.77 450.086 101.529C449.838 101.299 449.489 101.143 448.824 100.975C447.889 100.735 447.663 100.578 447.663 100.16C447.663 99.742 448.024 99.4702 448.599 99.4702C449.196 99.4702 449.59 99.7524 449.59 100.202V100.254H450.447Z" fill="white"/>
<path d="M456.645 101.603C456.657 101.488 456.657 101.352 456.657 101.289C456.657 99.8779 455.53 98.8221 454.02 98.8221C452.499 98.8221 451.406 99.8779 451.406 101.362C451.406 102.826 452.51 103.871 454.054 103.871C455.045 103.871 455.935 103.38 456.364 102.575L455.609 102.313C455.304 102.815 454.696 103.139 454.054 103.139C453.49 103.139 452.995 102.909 452.656 102.481C452.442 102.219 452.364 102.01 452.318 101.603H456.645ZM452.33 101.017C452.397 100.63 452.465 100.432 452.623 100.202C452.927 99.7838 453.445 99.5329 454.02 99.5329C454.595 99.5329 455.124 99.7838 455.451 100.191C455.631 100.432 455.71 100.641 455.744 101.017H452.33Z" fill="white"/>
<path d="M457.897 98.9371V103.756H458.753V101.31C458.753 100.756 458.832 100.474 459.057 100.171C459.316 99.8152 459.722 99.6165 460.184 99.6165C460.24 99.6165 460.33 99.6165 460.421 99.627V98.8221H460.218C459.846 98.8221 459.485 98.9266 459.226 99.1148C459.023 99.2611 458.911 99.4075 458.753 99.7524V98.9371H457.897Z" fill="white"/>
<path d="M467.275 102.512C467.275 102.951 467.602 103.15 468.346 103.15C469.811 103.15 470.689 102.23 470.689 100.672C470.689 98.2995 468.684 96.5225 466.002 96.5225C464.763 96.5225 463.557 96.9301 462.678 97.6618C461.698 98.4563 461.213 99.5225 461.213 100.85C461.213 101.937 461.529 102.815 462.171 103.526C463.073 104.509 464.47 105.104 465.901 105.104C466.318 105.104 466.475 105.083 467.23 104.958V104.132C466.532 104.299 466.408 104.32 466.002 104.32C463.681 104.32 462.092 102.899 462.092 100.819C462.092 98.7908 463.76 97.3064 466.047 97.3064C468.233 97.3064 469.844 98.7385 469.844 100.672C469.844 101.812 469.315 102.47 468.38 102.47C468.12 102.47 468.075 102.428 468.075 102.136V98.9371H467.275V99.5225C466.87 99.0625 466.374 98.843 465.754 98.843C464.537 98.843 463.658 99.7524 463.658 101.007C463.658 102.24 464.526 103.129 465.743 103.129C466.363 103.129 466.825 102.899 467.275 102.355V102.512ZM465.856 99.512C466.678 99.512 467.287 100.097 467.287 100.892C467.287 101.78 466.656 102.47 465.856 102.47C465.078 102.47 464.504 101.853 464.504 101.007C464.504 100.129 465.056 99.512 465.856 99.512Z" fill="white"/>
<path d="M476.958 101.603C476.969 101.488 476.969 101.352 476.969 101.289C476.969 99.8779 475.842 98.8221 474.332 98.8221C472.811 98.8221 471.718 99.8779 471.718 101.362C471.718 102.826 472.823 103.871 474.366 103.871C475.358 103.871 476.248 103.38 476.676 102.575L475.921 102.313C475.617 102.815 475.008 103.139 474.366 103.139C473.803 103.139 473.307 102.909 472.969 102.481C472.755 102.219 472.676 102.01 472.631 101.603H476.958ZM472.642 101.017C472.71 100.63 472.777 100.432 472.935 100.202C473.239 99.7838 473.758 99.5329 474.332 99.5329C474.907 99.5329 475.437 99.7838 475.763 100.191C475.944 100.432 476.023 100.641 476.056 101.017H472.642Z" fill="white"/>
<path d="M479.7 102.01L481.03 103.756H482.078L480.208 101.362L482.168 98.9371H481.12L479.7 100.704L478.315 98.9371H477.233L479.182 101.362L477.267 103.756H478.315L479.7 102.01Z" fill="white"/>
<path d="M486.84 99.7315C486.333 99.1044 485.758 98.8221 484.969 98.8221C483.538 98.8221 482.502 99.8883 482.502 101.362C482.502 102.826 483.516 103.871 484.947 103.871C485.736 103.871 486.322 103.547 486.84 102.826V103.756H487.696V98.9371H486.84V99.7315ZM485.093 99.5329C486.13 99.5329 486.851 100.254 486.851 101.299C486.851 102.334 486.051 103.181 485.071 103.181C484.124 103.181 483.403 102.407 483.403 101.383C483.403 100.913 483.561 100.453 483.831 100.108C484.136 99.7106 484.53 99.5329 485.093 99.5329Z" fill="white"/>
<path d="M489.422 98.9371V103.756H490.278V100.871C490.278 100.035 490.729 99.5329 491.484 99.5329C491.867 99.5329 492.182 99.6793 492.329 99.951C492.453 100.16 492.498 100.401 492.498 100.871V103.756H493.354V100.86C493.354 100.003 493.771 99.5329 494.526 99.5329C494.932 99.5329 495.27 99.6897 495.427 99.9406C495.551 100.139 495.574 100.275 495.574 100.86V103.756H496.43V100.672C496.43 99.9092 496.363 99.6375 496.115 99.3343C495.844 98.9998 495.394 98.8221 494.796 98.8221C494.019 98.8221 493.535 99.0834 493.151 99.7002C492.915 99.1044 492.464 98.8221 491.754 98.8221C491.112 98.8221 490.673 99.0521 490.278 99.6061V98.9371H489.422Z" fill="white"/>
<path d="M498.038 98.9371V106.014H498.894V103.003C499.176 103.348 499.333 103.474 499.649 103.62C500.009 103.787 500.381 103.871 500.787 103.871C502.229 103.871 503.232 102.826 503.232 101.31C503.232 99.8465 502.229 98.8221 500.787 98.8221C499.919 98.8221 499.39 99.1044 498.894 99.8152V98.9371H498.038ZM500.64 99.5329C501.102 99.5329 501.564 99.7211 501.869 100.035C502.173 100.348 502.319 100.777 502.319 101.341C502.319 102.439 501.632 103.181 500.607 103.181C499.581 103.181 498.894 102.481 498.894 101.425C498.894 100.296 499.604 99.5329 500.64 99.5329Z" fill="white"/>
<path d="M505.386 103.756V96.7838H504.53V103.756H505.386Z" fill="white"/>
<path d="M511.927 101.603C511.938 101.488 511.938 101.352 511.938 101.289C511.938 99.8779 510.812 98.8221 509.302 98.8221C507.781 98.8221 506.688 99.8779 506.688 101.362C506.688 102.826 507.792 103.871 509.336 103.871C510.327 103.871 511.217 103.38 511.645 102.575L510.89 102.313C510.586 102.815 509.978 103.139 509.336 103.139C508.772 103.139 508.276 102.909 507.938 102.481C507.724 102.219 507.645 102.01 507.6 101.603H511.927ZM507.612 101.017C507.679 100.63 507.747 100.432 507.905 100.202C508.209 99.7838 508.727 99.5329 509.302 99.5329C509.876 99.5329 510.406 99.7838 510.733 100.191C510.913 100.432 510.992 100.641 511.026 101.017H507.612Z" fill="white"/>
<path d="M513.464 102.752C513.126 102.752 512.878 102.982 512.878 103.296C512.878 103.61 513.126 103.84 513.464 103.84C513.791 103.84 514.05 103.61 514.05 103.306C514.05 102.982 513.802 102.752 513.464 102.752Z" fill="white"/>
<path d="M519.148 102.617C518.731 102.982 518.325 103.139 517.818 103.139C516.804 103.139 516.094 102.397 516.094 101.331C516.094 100.286 516.804 99.5538 517.829 99.5538C518.314 99.5538 518.753 99.7211 519.148 100.056L519.7 99.5434C519.159 99.0521 518.551 98.8221 517.807 98.8221C516.286 98.8221 515.215 99.8674 515.215 101.362C515.215 102.826 516.275 103.871 517.762 103.871C518.517 103.871 519.091 103.651 519.677 103.16L519.148 102.617Z" fill="white"/>
<path d="M522.837 98.8221C521.26 98.8221 520.178 99.8465 520.178 101.341C520.178 102.826 521.26 103.871 522.803 103.871C524.291 103.871 525.462 102.773 525.462 101.362C525.462 99.8779 524.37 98.8221 522.837 98.8221ZM522.837 99.5538C523.885 99.5538 524.584 100.275 524.584 101.352C524.584 102.397 523.851 103.139 522.826 103.139C521.767 103.139 521.057 102.418 521.057 101.352C521.057 100.275 521.767 99.5538 522.837 99.5538Z" fill="white"/>
<path d="M526.768 98.9371V103.756H527.624V100.871C527.624 100.035 528.075 99.5329 528.83 99.5329C529.213 99.5329 529.528 99.6793 529.675 99.951C529.799 100.16 529.844 100.401 529.844 100.871V103.756H530.7V100.86C530.7 100.003 531.117 99.5329 531.872 99.5329C532.278 99.5329 532.616 99.6897 532.774 99.9406C532.897 100.139 532.92 100.275 532.92 100.86V103.756H533.776V100.672C533.776 99.9092 533.709 99.6375 533.461 99.3343C533.19 98.9998 532.74 98.8221 532.143 98.8221C531.365 98.8221 530.881 99.0834 530.497 99.7002C530.261 99.1044 529.81 98.8221 529.1 98.8221C528.458 98.8221 528.019 99.0521 527.624 99.6061V98.9371H526.768Z" fill="white"/>
<path d="M443.093 79.885H445.005V79.0373H440.219V79.885H442.142V86.8901H443.093V79.885Z" fill="white"/>
<path d="M448.945 78.896C446.806 78.896 445.211 80.662 445.211 83.0049C445.211 83.9939 445.483 84.8769 446.003 85.5597C446.705 86.4781 447.802 87.0314 448.922 87.0314C449.793 87.0314 450.653 86.7018 451.332 86.0895C452.158 85.3596 452.611 84.2647 452.611 83.0402C452.611 81.8629 452.339 80.9917 451.728 80.2499C451.004 79.3905 449.997 78.896 448.945 78.896ZM448.922 79.8143C449.59 79.8143 450.28 80.1204 450.778 80.6267C451.366 81.2154 451.638 81.9806 451.638 83.0285C451.638 83.829 451.355 84.6767 450.913 85.183C450.404 85.7834 449.658 86.1249 448.899 86.1249C447.338 86.1249 446.184 84.7945 446.184 82.9696C446.184 81.1565 447.349 79.8143 448.922 79.8143Z" fill="white"/>
<path d="M455.022 83.8879H456.187C457.025 83.8879 457.613 83.7113 458.054 83.3463C458.563 82.9107 458.857 82.2161 458.857 81.439C458.857 79.885 457.873 79.0373 456.086 79.0373H454.072V86.8901H455.022V83.8879ZM455.022 83.0402V79.885H455.882C456.334 79.885 456.64 79.9321 456.934 80.038C457.534 80.2499 457.896 80.7915 457.896 81.4626C457.896 82.1337 457.522 82.687 456.945 82.899C456.685 83.0049 456.414 83.0402 456.006 83.0402H455.022Z" fill="white"/>
<path d="M462.965 84.7827V84.9475C462.965 85.3243 463.044 85.6539 463.225 85.9718C463.621 86.6782 464.278 87.0314 465.239 87.0314C466.654 87.0314 467.615 86.1131 467.615 84.7591C467.615 84.2293 467.434 83.7349 467.106 83.3699C466.801 83.0285 466.416 82.8165 465.613 82.5222C464.843 82.2396 464.64 82.1455 464.402 81.9689C464.13 81.7687 463.972 81.439 463.972 81.0623C463.972 80.3088 464.504 79.779 465.251 79.779C465.737 79.779 466.156 79.9909 466.371 80.3324C466.495 80.556 466.54 80.7444 466.552 81.1447H467.502C467.468 79.779 466.597 78.896 465.262 78.896C463.927 78.896 463.01 79.8025 463.01 81.1329C463.01 81.7334 463.214 82.2514 463.599 82.6164C463.938 82.9343 464.232 83.0873 465.126 83.4052C466.314 83.8173 466.654 84.1352 466.654 84.818C466.654 85.6068 466.054 86.1484 465.205 86.1484C464.379 86.1484 463.916 85.6775 463.87 84.7827H462.965Z" fill="white"/>
<path d="M469.881 79.885H472.856V79.0373H468.93V86.8901H472.856V86.0424H469.881V83.3581H472.856V82.5104H469.881V79.885Z" fill="white"/>
<path d="M479.608 85.0417C479.02 85.7834 478.386 86.1249 477.56 86.1249C475.999 86.1249 474.856 84.7945 474.856 82.9696C474.856 81.1329 475.976 79.8025 477.515 79.8025C478.318 79.8025 478.873 80.0851 479.608 80.8739L480.264 80.2382C479.891 79.8143 479.687 79.6259 479.382 79.4258C478.839 79.0844 478.171 78.896 477.492 78.896C475.41 78.896 473.883 80.6149 473.883 82.9696C473.883 84.0645 474.256 85.1359 474.89 85.8776C475.535 86.6311 476.429 87.0314 477.481 87.0314C478.646 87.0314 479.484 86.6311 480.242 85.701L479.608 85.0417Z" fill="white"/>
<path d="M482.401 83.5936L485.332 86.8901H486.542L483.612 83.6289C484.302 83.5818 484.641 83.4994 485.004 83.2992C485.705 82.9107 486.09 82.2043 486.09 81.3213C486.09 79.8967 485.117 79.0373 483.51 79.0373H481.451V86.8901H482.401V83.5936ZM482.401 82.9225V79.885H483.51C484.551 79.885 485.117 80.4148 485.117 81.392C485.117 82.3809 484.494 82.9225 483.352 82.9225H482.401Z" fill="white"/>
<path d="M488.576 79.885H491.551V79.0373H487.625V86.8901H491.551V86.0424H488.576V83.3581H491.551V82.5104H488.576V79.885Z" fill="white"/>
<path d="M495.255 79.885H497.167V79.0373H492.381V79.885H494.304V86.8901H495.255V79.885Z" fill="white"/>
<g opacity="0.2">
<path d="M439.487 140.297C439.496 140.193 439.496 140.071 439.496 140.015C439.496 138.743 438.554 137.792 437.292 137.792C436.02 137.792 435.106 138.743 435.106 140.08C435.106 141.399 436.029 142.34 437.32 142.34C438.149 142.34 438.893 141.898 439.251 141.173L438.62 140.937C438.366 141.389 437.857 141.681 437.32 141.681C436.849 141.681 436.434 141.474 436.152 141.088C435.973 140.853 435.907 140.664 435.869 140.297H439.487ZM435.879 139.77C435.935 139.421 435.992 139.242 436.124 139.035C436.378 138.659 436.811 138.433 437.292 138.433C437.772 138.433 438.215 138.659 438.488 139.026C438.639 139.242 438.705 139.431 438.733 139.77H435.879Z" fill="white"/>
<path d="M441.686 141.116L440.517 137.896H439.754L441.299 142.105L440.395 144.327H441.177L443.768 137.896H442.986L441.686 141.116Z" fill="white"/>
<path d="M446.683 135.956H444.074V136.634H445.892V139.854C445.892 140.674 445.798 141.031 445.496 141.295C445.261 141.493 444.922 141.596 444.46 141.596C444.356 141.596 444.262 141.596 444.074 141.578V142.265C444.206 142.274 444.319 142.274 444.385 142.274C444.941 142.274 445.383 142.208 445.685 142.067C446.354 141.766 446.683 141.182 446.683 140.297V135.956Z" fill="white"/>
<path d="M448.785 135.956H448.069V142.237H448.785V139.694C448.785 139.28 448.851 139.064 449.067 138.819C449.293 138.564 449.586 138.433 449.915 138.433C450.433 138.433 450.725 138.762 450.725 139.355V142.237H451.442V139.318C451.442 138.762 451.338 138.423 451.102 138.188C450.867 137.943 450.471 137.792 450.094 137.792C449.576 137.792 449.18 138.009 448.785 138.499V135.956Z" fill="white"/>
<path d="M453.569 141.493C453.993 142.086 454.464 142.34 455.133 142.34C456.32 142.34 457.159 141.408 457.159 140.08C457.159 138.734 456.311 137.792 455.095 137.792C454.464 137.792 454.002 138.047 453.569 138.64V135.956H452.853V142.237H453.569V141.493ZM455.001 138.433C455.821 138.433 456.405 139.129 456.405 140.099C456.405 141.069 455.83 141.719 454.973 141.719C454.125 141.719 453.56 141.06 453.56 140.071C453.56 139.12 454.172 138.433 455.001 138.433Z" fill="white"/>
<path d="M461.061 138.838V139.515H463.247C463.181 140.062 463.087 140.372 462.842 140.702C462.456 141.257 461.73 141.625 461.033 141.625C459.752 141.625 458.762 140.523 458.762 139.101C458.762 137.661 459.752 136.568 461.052 136.568C461.504 136.568 461.947 136.71 462.295 136.964C462.465 137.077 462.578 137.19 462.823 137.463L463.417 136.983C462.823 136.239 462.003 135.843 461.052 135.843C459.252 135.843 457.952 137.209 457.952 139.111C457.952 140.984 459.262 142.35 461.052 142.35C462.003 142.35 462.814 141.954 463.417 141.201C463.878 140.617 464.067 140.033 464.067 139.195C464.067 139.139 464.067 138.969 464.057 138.838H461.061Z" fill="white"/>
<path d="M468.094 141.21C467.745 141.54 467.406 141.681 466.982 141.681C466.134 141.681 465.54 141.013 465.54 140.052C465.54 139.111 466.134 138.451 466.991 138.451C467.396 138.451 467.764 138.602 468.094 138.903L468.555 138.442C468.103 138 467.594 137.792 466.972 137.792C465.701 137.792 464.806 138.734 464.806 140.08C464.806 141.399 465.691 142.34 466.935 142.34C467.566 142.34 468.047 142.143 468.536 141.7L468.094 141.21Z" fill="white"/>
<path d="M470.176 137.896H469.46V142.237H470.176V137.896ZM469.827 136.21C469.564 136.21 469.366 136.408 469.366 136.672C469.366 136.936 469.564 137.133 469.818 137.133C470.072 137.133 470.28 136.936 470.28 136.681C470.28 136.418 470.082 136.21 469.827 136.21Z" fill="white"/>
<path d="M474.421 135.843C472.64 135.843 471.311 137.256 471.311 139.129C471.311 139.92 471.538 140.627 471.971 141.173C472.555 141.907 473.469 142.35 474.402 142.35C475.127 142.35 475.843 142.086 476.408 141.596C477.096 141.013 477.473 140.137 477.473 139.158C477.473 138.216 477.247 137.519 476.738 136.926C476.135 136.239 475.297 135.843 474.421 135.843ZM474.402 136.578C474.958 136.578 475.532 136.823 475.947 137.227C476.437 137.698 476.663 138.31 476.663 139.148C476.663 139.789 476.427 140.467 476.06 140.871C475.636 141.352 475.014 141.625 474.383 141.625C473.083 141.625 472.122 140.561 472.122 139.101C472.122 137.651 473.092 136.578 474.402 136.578Z" fill="white"/>
<path d="M479.321 137.896H478.605V142.237H479.321V137.896ZM478.973 136.21C478.709 136.21 478.511 136.408 478.511 136.672C478.511 136.936 478.709 137.133 478.963 137.133C479.218 137.133 479.425 136.936 479.425 136.681C479.425 136.418 479.227 136.21 478.973 136.21Z" fill="white"/>
<path d="M482.897 135.956H480.287V136.634H482.106V139.854C482.106 140.674 482.011 141.031 481.71 141.295C481.474 141.493 481.135 141.596 480.674 141.596C480.57 141.596 480.476 141.596 480.287 141.578V142.265C480.419 142.274 480.532 142.274 480.598 142.274C481.154 142.274 481.597 142.208 481.898 142.067C482.567 141.766 482.897 141.182 482.897 140.297V135.956Z" fill="white"/>
<path d="M485.139 135.956H484.348V142.237H485.139V135.956Z" fill="white"/>
<path d="M487.382 135.956H486.59V139.676C486.59 140.655 486.713 141.116 487.099 141.559C487.523 142.067 488.192 142.35 488.927 142.35C489.643 142.35 490.274 142.086 490.698 141.606C491.103 141.154 491.254 140.617 491.254 139.676V135.956H490.444V139.676C490.444 140.514 490.359 140.834 490.02 141.163C489.747 141.446 489.304 141.625 488.908 141.625C488.512 141.625 488.06 141.455 487.796 141.201C487.495 140.9 487.382 140.495 487.382 139.694V135.956Z" fill="white"/>
<path d="M493.168 141.606L495.401 137.896H492.207V138.527H494.223L491.962 142.237H495.165V141.606H493.168Z" fill="white"/>
<path d="M497.109 135.956H496.318V142.237H497.109V135.956Z" fill="white"/>
<path d="M500.322 137.096V142.237H501.066V135.909L498.937 137.303V138.018L500.322 137.096Z" fill="white"/>
<path d="M504.175 137.435L507.558 142.237H508.255V135.956H507.464V140.683L504.11 135.956H503.384V142.237H504.175V137.435Z" fill="white"/>
<path d="M510.465 137.896H509.749V142.237H510.465V137.896ZM510.117 136.21C509.853 136.21 509.655 136.408 509.655 136.672C509.655 136.936 509.853 137.133 510.107 137.133C510.362 137.133 510.569 136.936 510.569 136.681C510.569 136.418 510.371 136.21 510.117 136.21Z" fill="white"/>
<path d="M512.76 135.956H511.968V142.237H512.76V135.956Z" fill="white"/>
<path d="M516.98 139.082C516.943 138.263 516.387 137.792 515.464 137.792C514.55 137.792 513.937 138.301 513.937 139.054C513.937 139.713 514.361 140.109 515.303 140.363C516.048 140.551 516.293 140.74 516.293 141.116C516.293 141.502 515.972 141.757 515.482 141.757C514.936 141.757 514.616 141.493 514.569 141.003H513.862C513.937 141.879 514.493 142.34 515.482 142.34C516.406 142.34 517.028 141.832 517.028 141.079C517.028 140.758 516.896 140.448 516.679 140.231C516.472 140.024 516.18 139.883 515.624 139.732C514.842 139.515 514.653 139.374 514.653 138.998C514.653 138.621 514.955 138.376 515.435 138.376C515.935 138.376 516.264 138.63 516.264 139.035V139.082H516.98Z" fill="white"/>
<path d="M518.988 135.956H518.197V142.237H518.988V135.956Z" fill="white"/>
<path d="M520.486 137.896V142.237H521.202V139.591C521.202 139.233 521.278 139.026 521.485 138.8C521.702 138.555 521.994 138.433 522.314 138.433C522.606 138.433 522.861 138.546 522.993 138.725C523.106 138.875 523.153 139.082 523.153 139.468V142.237H523.869V139.308C523.869 138.715 523.774 138.414 523.501 138.15C523.247 137.924 522.889 137.792 522.493 137.792C521.956 137.792 521.579 138 521.202 138.508V137.896H520.486Z" fill="white"/>
<path d="M526.137 139.6L528.577 142.237H529.586L527.145 139.628C527.72 139.591 528.003 139.525 528.304 139.365C528.888 139.054 529.209 138.489 529.209 137.783C529.209 136.644 528.398 135.956 527.061 135.956H525.346V142.237H526.137V139.6ZM526.137 139.064V136.634H527.061C527.927 136.634 528.398 137.058 528.398 137.839C528.398 138.63 527.88 139.064 526.929 139.064H526.137Z" fill="white"/>
<path d="M533.322 135.956H530.59V139.506C530.995 139.092 531.494 138.866 531.984 138.866C532.813 138.866 533.378 139.403 533.378 140.203C533.378 140.975 532.804 141.559 532.05 141.559C531.701 141.559 531.353 141.436 531.155 141.239C531.051 141.144 530.985 141.031 530.835 140.758L530.156 141.013C530.476 141.841 531.145 142.303 532.031 142.303C533.265 142.303 534.151 141.427 534.151 140.222C534.151 139.045 533.322 138.178 532.219 138.178C531.899 138.178 531.616 138.235 531.296 138.357V136.672H533.322V135.956Z" fill="white"/>
<path d="M538.202 141.21C537.853 141.54 537.514 141.681 537.09 141.681C536.242 141.681 535.649 141.013 535.649 140.052C535.649 139.111 536.242 138.451 537.1 138.451C537.505 138.451 537.872 138.602 538.202 138.903L538.664 138.442C538.211 138 537.703 137.792 537.081 137.792C535.809 137.792 534.914 138.734 534.914 140.08C534.914 141.399 535.8 142.34 537.043 142.34C537.674 142.34 538.155 142.143 538.645 141.7L538.202 141.21Z" fill="white"/>
<path d="M544.034 140.758C543.544 141.352 543.017 141.625 542.329 141.625C541.029 141.625 540.077 140.561 540.077 139.101C540.077 137.632 541.01 136.568 542.291 136.568C542.96 136.568 543.422 136.794 544.034 137.425L544.581 136.917C544.27 136.578 544.1 136.427 543.846 136.267C543.394 135.994 542.838 135.843 542.272 135.843C540.539 135.843 539.267 137.218 539.267 139.101C539.267 139.977 539.578 140.834 540.105 141.427C540.642 142.03 541.387 142.35 542.263 142.35C543.233 142.35 543.931 142.03 544.562 141.286L544.034 140.758Z" fill="white"/>
<path d="M546.36 135.956H545.569V142.237H546.36V135.956Z" fill="white"/>
<path d="M550.647 136.05H549.771L547.971 138.941C547.613 139.515 547.491 139.864 547.491 140.325C547.491 141.465 548.357 142.35 549.479 142.35C550.59 142.35 551.504 141.436 551.504 140.325C551.504 139.261 550.694 138.442 549.648 138.442C549.422 138.442 549.3 138.47 549.036 138.564L550.647 136.05ZM549.516 139.082C550.214 139.082 550.769 139.647 550.769 140.354C550.769 141.069 550.204 141.644 549.497 141.644C548.791 141.644 548.235 141.06 548.235 140.325C548.235 139.628 548.8 139.082 549.516 139.082Z" fill="white"/>
<path d="M553.426 135.956H552.635V142.237H553.426V135.956Z" fill="white"/>
<path d="M555.64 140.297L557.374 142.237H558.269L556.337 140.015L558.278 137.896H557.374L555.64 139.798V135.956H554.924V142.237H555.64V140.297Z" fill="white"/>
<path d="M559.064 137.896V144.271H559.78V141.559C560.016 141.869 560.148 141.982 560.412 142.114C560.713 142.265 561.024 142.34 561.363 142.34C562.569 142.34 563.408 141.399 563.408 140.033C563.408 138.715 562.569 137.792 561.363 137.792C560.638 137.792 560.195 138.047 559.78 138.687V137.896H559.064ZM561.241 138.433C561.627 138.433 562.013 138.602 562.268 138.885C562.522 139.167 562.645 139.553 562.645 140.062C562.645 141.05 562.07 141.719 561.213 141.719C560.355 141.719 559.78 141.088 559.78 140.137C559.78 139.12 560.374 138.433 561.241 138.433Z" fill="white"/>
<path d="M566.396 139.732L568.007 142.237H568.921L566.848 139.035L568.864 135.956H567.941L566.396 138.338L564.86 135.956H563.909L565.934 139.035L563.833 142.237H564.794L566.396 139.732Z" fill="white"/>
<path d="M571.538 140.947L569.851 135.956H569.022L571.142 142.237H571.915L574.1 135.956H573.262L571.538 140.947Z" fill="white"/>
<path d="M579.162 140.758C578.672 141.352 578.144 141.625 577.457 141.625C576.157 141.625 575.205 140.561 575.205 139.101C575.205 137.632 576.138 136.568 577.419 136.568C578.088 136.568 578.55 136.794 579.162 137.425L579.708 136.917C579.398 136.578 579.228 136.427 578.974 136.267C578.521 135.994 577.965 135.843 577.4 135.843C575.667 135.843 574.395 137.218 574.395 139.101C574.395 139.977 574.706 140.834 575.233 141.427C575.77 142.03 576.515 142.35 577.391 142.35C578.361 142.35 579.058 142.03 579.69 141.286L579.162 140.758Z" fill="white"/>
<path d="M582.824 135.956H580.215V136.634H582.033V139.854C582.033 140.674 581.939 141.031 581.637 141.295C581.402 141.493 581.063 141.596 580.601 141.596C580.497 141.596 580.403 141.596 580.215 141.578V142.265C580.347 142.274 580.46 142.274 580.526 142.274C581.082 142.274 581.524 142.208 581.826 142.067C582.495 141.766 582.824 141.182 582.824 140.297V135.956Z" fill="white"/>
<path d="M584.737 142.237H585.613L587.422 139.28C587.733 138.762 587.856 138.395 587.856 137.915C587.856 136.794 587.008 135.937 585.877 135.937C584.737 135.937 583.842 136.823 583.842 137.943C583.842 139.016 584.662 139.845 585.717 139.845C585.934 139.845 586.056 139.817 586.32 139.723L584.737 142.237ZM585.877 136.634C586.565 136.634 587.111 137.199 587.111 137.924C587.111 138.64 586.565 139.186 585.84 139.186C585.133 139.186 584.587 138.621 584.587 137.915C584.587 137.199 585.161 136.634 585.877 136.634Z" fill="white"/>
<path d="M589.288 141.333C589.005 141.333 588.798 141.54 588.798 141.822C588.798 142.105 589.005 142.312 589.288 142.312C589.561 142.312 589.778 142.105 589.778 141.832C589.778 141.54 589.57 141.333 589.288 141.333Z" fill="white"/>
<path d="M595.133 140.297C595.143 140.193 595.143 140.071 595.143 140.015C595.143 138.743 594.201 137.792 592.938 137.792C591.666 137.792 590.752 138.743 590.752 140.08C590.752 141.399 591.676 142.34 592.966 142.34C593.795 142.34 594.54 141.898 594.898 141.173L594.266 140.937C594.012 141.389 593.503 141.681 592.966 141.681C592.495 141.681 592.081 141.474 591.798 141.088C591.619 140.853 591.553 140.664 591.515 140.297H595.133ZM591.525 139.77C591.581 139.421 591.638 139.242 591.77 139.035C592.024 138.659 592.458 138.433 592.938 138.433C593.419 138.433 593.861 138.659 594.135 139.026C594.285 139.242 594.351 139.431 594.38 139.77H591.525Z" fill="white"/>
<path d="M597.332 141.116L596.164 137.896H595.4L596.946 142.105L596.041 144.327H596.823L599.414 137.896H598.632L597.332 141.116Z" fill="white"/>
<path d="M602.33 135.956H599.72V136.634H601.538V139.854C601.538 140.674 601.444 141.031 601.143 141.295C600.907 141.493 600.568 141.596 600.106 141.596C600.003 141.596 599.908 141.596 599.72 141.578V142.265C599.852 142.274 599.965 142.274 600.031 142.274C600.587 142.274 601.03 142.208 601.331 142.067C602 141.766 602.33 141.182 602.33 140.297V135.956Z" fill="white"/>
<path d="M604.412 141.606L606.645 137.896H603.451V138.527H605.467L603.206 142.237H606.409V141.606H604.412Z" fill="white"/>
<path d="M610.747 138.555C610.323 138.028 609.833 137.792 609.192 137.792C608.014 137.792 607.148 138.772 607.148 140.09C607.148 141.408 607.996 142.34 609.192 142.34C609.852 142.34 610.313 142.086 610.747 141.493V142.237H611.463V135.956H610.747V138.555ZM609.343 138.433C610.172 138.433 610.747 139.101 610.747 140.08C610.747 141.022 610.134 141.719 609.296 141.719C608.476 141.719 607.901 141.05 607.901 140.099C607.901 139.111 608.486 138.433 609.343 138.433Z" fill="white"/>
<path d="M617.994 140.787L616.647 135.956H615.902L614.508 140.768L613.076 135.956H612.237L614.159 142.237H614.856L616.251 137.303L617.636 142.237H618.333L620.255 135.956H619.435L617.994 140.787Z" fill="white"/>
<path d="M621.879 135.956H621.087V142.237H621.879V135.956Z" fill="white"/>
<path d="M624.093 137.896H623.377V142.237H624.093V137.896ZM623.744 136.21C623.48 136.21 623.282 136.408 623.282 136.672C623.282 136.936 623.48 137.133 623.735 137.133C623.989 137.133 624.196 136.936 624.196 136.681C624.196 136.418 623.998 136.21 623.744 136.21Z" fill="white"/>
<path d="M628.337 135.843C626.556 135.843 625.228 137.256 625.228 139.129C625.228 139.92 625.454 140.627 625.887 141.173C626.472 141.907 627.385 142.35 628.318 142.35C629.044 142.35 629.76 142.086 630.325 141.596C631.013 141.013 631.39 140.137 631.39 139.158C631.39 138.216 631.163 137.519 630.655 136.926C630.052 136.239 629.213 135.843 628.337 135.843ZM628.318 136.578C628.874 136.578 629.449 136.823 629.863 137.227C630.353 137.698 630.579 138.31 630.579 139.148C630.579 139.789 630.344 140.467 629.976 140.871C629.552 141.352 628.931 141.625 628.299 141.625C626.999 141.625 626.038 140.561 626.038 139.101C626.038 137.651 627.009 136.578 628.318 136.578Z" fill="white"/>
<path d="M633.238 137.896H632.522V142.237H633.238V137.896ZM632.889 136.21C632.626 136.21 632.428 136.408 632.428 136.672C632.428 136.936 632.626 137.133 632.88 137.133C633.134 137.133 633.342 136.936 633.342 136.681C633.342 136.418 633.144 136.21 632.889 136.21Z" fill="white"/>
<path d="M635.532 135.956H634.741V142.237H635.532V135.956Z" fill="white"/>
<path d="M638.415 140.664L639.527 142.237H640.403L638.839 140.08L640.478 137.896H639.602L638.415 139.487L637.256 137.896H636.352L637.982 140.08L636.38 142.237H637.256L638.415 140.664Z" fill="white"/>
<path d="M642.092 137.632L644.41 142.303L646.746 137.642V142.237H647.538V135.956H646.765L644.41 140.664L642.083 135.956H641.301V142.237H642.092V137.632Z" fill="white"/>
<path d="M649.753 137.896H649.037V142.689C649.028 143.301 648.717 143.677 648.208 143.696H648.104V144.374H648.293C648.735 144.374 649.122 144.214 649.386 143.922C649.649 143.64 649.753 143.282 649.753 142.689V137.896ZM649.404 136.21C649.141 136.21 648.943 136.408 648.943 136.672C648.943 136.936 649.141 137.133 649.395 137.133C649.649 137.133 649.857 136.936 649.857 136.681C649.857 136.418 649.659 136.21 649.404 136.21Z" fill="white"/>
<path d="M652.047 137.632L654.365 142.303L656.701 137.642V142.237H657.493V135.956H656.72L654.365 140.664L652.038 135.956H651.256V142.237H652.047V137.632Z" fill="white"/>
<path d="M662.497 137.849C662.497 137.114 662.365 136.738 662.007 136.408C661.658 136.097 661.187 135.937 660.612 135.937C659.972 135.937 659.454 136.145 659.143 136.521C658.86 136.86 658.766 137.246 658.766 138.065V140.137C658.766 141.088 658.851 141.446 659.18 141.794C659.51 142.152 660.019 142.34 660.631 142.34C661.225 142.34 661.724 142.161 662.054 141.813C662.365 141.483 662.497 141.05 662.497 140.344V137.849ZM659.51 138.084C659.51 137.538 659.548 137.322 659.708 137.096C659.887 136.804 660.236 136.644 660.641 136.644C660.952 136.644 661.234 136.747 661.442 136.936C661.677 137.162 661.762 137.406 661.762 137.896V140.297C661.762 140.758 661.705 141.022 661.564 141.229C661.385 141.483 661.027 141.644 660.641 141.644C660.283 141.644 659.944 141.502 659.746 141.276C659.538 141.041 659.51 140.909 659.51 140.184V138.084Z" fill="white"/>
<path d="M664.56 137.435L667.942 142.237H668.639V135.956H667.848V140.683L664.494 135.956H663.769V142.237H664.56V137.435Z" fill="white"/>
<path d="M671.877 136.634H673.47V135.956H669.484V136.634H671.086V142.237H671.877V136.634Z" fill="white"/>
<path d="M676.846 139.468L678.985 135.956H678.043L676.441 138.649L674.821 135.956H673.888L676.055 139.468V142.237H676.846V139.468Z" fill="white"/>
<path d="M681.805 136.728L679.986 139.007L680.297 139.28C680.571 139.12 680.759 139.064 681.051 139.064C681.871 139.064 682.436 139.591 682.436 140.344C682.436 141.079 681.833 141.653 681.07 141.653C680.486 141.653 680.043 141.314 679.873 140.711L679.195 140.834C679.412 141.785 680.118 142.34 681.108 142.34C682.304 142.34 683.19 141.465 683.19 140.288C683.19 139.177 682.417 138.395 681.324 138.395L683.171 136.05H679.61V136.728H681.805Z" fill="white"/>
<path d="M687.166 135.843C685.385 135.843 684.056 137.256 684.056 139.129C684.056 139.92 684.283 140.627 684.716 141.173C685.3 141.907 686.214 142.35 687.147 142.35C687.872 142.35 688.588 142.086 689.153 141.596C689.841 141.013 690.218 140.137 690.218 139.158C690.218 138.216 689.992 137.519 689.483 136.926C688.88 136.239 688.042 135.843 687.166 135.843ZM687.147 136.578C687.703 136.578 688.277 136.823 688.692 137.227C689.182 137.698 689.408 138.31 689.408 139.148C689.408 139.789 689.172 140.467 688.805 140.871C688.381 141.352 687.759 141.625 687.128 141.625C685.828 141.625 684.867 140.561 684.867 139.101C684.867 137.651 685.837 136.578 687.147 136.578Z" fill="white"/>
<path d="M691.416 142.237H692.943C693.857 142.237 694.582 142.001 695.128 141.512C695.769 140.937 696.118 140.062 696.118 138.998C696.118 137.105 694.978 135.956 693.084 135.956H691.416V142.237ZM692.208 136.625H693.056C694.497 136.625 695.307 137.491 695.307 139.007C695.307 139.939 695.025 140.636 694.459 141.088C694.007 141.446 693.555 141.559 692.49 141.559H692.208V136.625Z" fill="white"/>
<path d="M697.964 140.297L699.698 142.237H700.593L698.661 140.015L700.602 137.896H699.698L697.964 139.798V135.956H697.248V142.237H697.964V140.297Z" fill="white"/>
<path d="M706.713 137.896L705.573 141.088L704.593 137.896H703.887L702.888 141.088L701.776 137.896H701.042L702.53 142.237H703.208L704.254 138.941L705.253 142.237H705.903L707.448 137.896H706.713Z" fill="white"/>
<path d="M709.082 135.956H708.29V142.237H709.082V135.956Z" fill="white"/>
<path d="M711.296 137.896H710.58V142.237H711.296V137.896ZM710.947 136.21C710.683 136.21 710.485 136.408 710.485 136.672C710.485 136.936 710.683 137.133 710.938 137.133C711.192 137.133 711.399 136.936 711.399 136.681C711.399 136.418 711.201 136.21 710.947 136.21Z" fill="white"/>
<path d="M440.467 149.195L439.327 152.387L438.347 149.195H437.64L436.642 152.387L435.53 149.195H434.795L436.284 153.536H436.962L438.008 150.24L439.007 153.536H439.657L441.202 149.195H440.467Z" fill="white"/>
<path d="M442.676 149.195H441.959V153.536H442.676V149.195ZM442.327 147.51C442.063 147.51 441.865 147.707 441.865 147.971C441.865 148.235 442.063 148.432 442.317 148.432C442.572 148.432 442.779 148.235 442.779 147.98C442.779 147.717 442.581 147.51 442.327 147.51Z" fill="white"/>
<path d="M444.828 152.792C445.252 153.385 445.723 153.639 446.392 153.639C447.579 153.639 448.418 152.707 448.418 151.38C448.418 150.033 447.57 149.092 446.355 149.092C445.723 149.092 445.262 149.346 444.828 149.939V147.255H444.112V153.536H444.828V152.792ZM446.26 149.732C447.08 149.732 447.664 150.429 447.664 151.398C447.664 152.368 447.09 153.018 446.232 153.018C445.384 153.018 444.819 152.359 444.819 151.37C444.819 150.419 445.431 149.732 446.26 149.732Z" fill="white"/>
<path d="M449.513 149.195V153.536H450.229V150.937C450.229 150.184 450.606 149.732 451.237 149.732C451.558 149.732 451.821 149.864 451.944 150.108C452.048 150.297 452.085 150.513 452.085 150.937V153.536H452.801V150.928C452.801 150.156 453.15 149.732 453.781 149.732C454.12 149.732 454.403 149.873 454.535 150.099C454.638 150.278 454.657 150.4 454.657 150.928V153.536H455.373V150.758C455.373 150.071 455.317 149.826 455.109 149.553C454.883 149.252 454.506 149.092 454.007 149.092C453.357 149.092 452.952 149.327 452.632 149.883C452.434 149.346 452.057 149.092 451.463 149.092C450.926 149.092 450.559 149.299 450.229 149.798V149.195H449.513Z" fill="white"/>
<path d="M457.648 147.933H460.098V147.255H456.857V153.536H457.648V150.711H460.098V150.033H457.648V147.933Z" fill="white"/>
<path d="M461.851 149.826H462.51V149.195H461.851V147.83H461.135V149.195H460.532V149.826H461.135V152.858C461.135 153.338 461.332 153.526 461.841 153.536H462.51V152.914H462.18C461.917 152.914 461.86 152.867 461.851 152.651V149.826Z" fill="white"/>
<path d="M464.242 152.858L467.794 147.255H463.328V147.933H466.484L462.932 153.536H467.426V152.858H464.242Z" fill="white"/>
<path d="M468.246 151.85V151.982C468.246 152.284 468.312 152.547 468.463 152.801C468.793 153.366 469.339 153.649 470.14 153.649C471.318 153.649 472.119 152.914 472.119 151.832C472.119 151.408 471.968 151.012 471.695 150.721C471.44 150.447 471.12 150.278 470.451 150.043C469.81 149.817 469.641 149.741 469.443 149.6C469.217 149.44 469.085 149.176 469.085 148.875C469.085 148.272 469.528 147.849 470.149 147.849C470.555 147.849 470.903 148.018 471.082 148.291C471.186 148.47 471.224 148.621 471.233 148.941H472.024C471.996 147.849 471.271 147.142 470.159 147.142C469.047 147.142 468.284 147.867 468.284 148.931C468.284 149.412 468.454 149.826 468.774 150.118C469.057 150.372 469.302 150.495 470.046 150.749C471.035 151.078 471.318 151.333 471.318 151.879C471.318 152.51 470.818 152.943 470.112 152.943C469.424 152.943 469.038 152.566 469 151.85H468.246Z" fill="white"/>
<path d="M474.08 147.255H473.289V153.536H474.08V147.255Z" fill="white"/>
<path d="M478.367 147.35H477.491L475.691 150.24C475.333 150.815 475.211 151.163 475.211 151.624C475.211 152.764 476.078 153.649 477.199 153.649C478.311 153.649 479.224 152.736 479.224 151.624C479.224 150.56 478.414 149.741 477.368 149.741C477.142 149.741 477.02 149.77 476.756 149.864L478.367 147.35ZM477.237 150.382C477.934 150.382 478.49 150.947 478.49 151.653C478.49 152.368 477.924 152.943 477.218 152.943C476.511 152.943 475.955 152.359 475.955 151.624C475.955 150.928 476.521 150.382 477.237 150.382Z" fill="white"/>
<path d="M481.146 147.255H480.355V153.536H481.146V147.255Z" fill="white"/>
<path d="M483.36 151.596L485.094 153.536H485.989L484.058 151.314L485.998 149.195H485.094L483.36 151.097V147.255H482.644V153.536H483.36V151.596Z" fill="white"/>
<path d="M487.501 153.536V147.255H486.785V153.536H487.501Z" fill="white"/>
<path d="M491.463 149.195V151.973C491.463 152.321 491.415 152.5 491.274 152.67C491.095 152.877 490.803 152.999 490.502 152.999C489.927 152.999 489.531 152.566 489.531 151.954V149.195H488.815V151.973C488.815 152.5 488.956 152.896 489.249 153.178C489.559 153.47 490.012 153.639 490.502 153.639C490.992 153.639 491.434 153.479 491.755 153.188C492.075 152.896 492.188 152.566 492.188 151.973V149.195H491.463Z" fill="white"/>
<path d="M494.226 152.858L497.778 147.255H493.312V147.933H496.469L492.917 153.536H497.411V152.858H494.226Z" fill="white"/>
<path d="M498.589 149.195V153.536H499.305V150.89C499.305 150.532 499.38 150.325 499.588 150.099C499.804 149.854 500.096 149.732 500.417 149.732C500.709 149.732 500.963 149.845 501.095 150.024C501.208 150.174 501.255 150.382 501.255 150.768V153.536H501.971V150.608C501.971 150.014 501.877 149.713 501.604 149.449C501.35 149.223 500.992 149.092 500.596 149.092C500.059 149.092 499.682 149.299 499.305 149.807V149.195H498.589Z" fill="white"/>
<path d="M505.229 152.246L503.543 147.255H502.714L504.833 153.536H505.606L507.792 147.255H506.953L505.229 152.246Z" fill="white"/>
<path d="M509.825 152.415L508.657 149.195H507.894L509.439 153.404L508.534 155.626H509.316L511.907 149.195H511.125L509.825 152.415Z" fill="white"/>
<path d="M515.486 152.51C515.137 152.839 514.798 152.98 514.374 152.98C513.526 152.98 512.933 152.312 512.933 151.351C512.933 150.41 513.526 149.751 514.384 149.751C514.789 149.751 515.156 149.901 515.486 150.203L515.947 149.741C515.495 149.299 514.986 149.092 514.365 149.092C513.093 149.092 512.198 150.033 512.198 151.38C512.198 152.698 513.083 153.639 514.327 153.639C514.958 153.639 515.439 153.442 515.929 152.999L515.486 152.51Z" fill="white"/>
<path d="M516.852 149.195V153.536H517.568V150.937C517.568 150.184 517.945 149.732 518.576 149.732C518.897 149.732 519.16 149.864 519.283 150.108C519.387 150.297 519.424 150.513 519.424 150.937V153.536H520.14V150.928C520.14 150.156 520.489 149.732 521.12 149.732C521.459 149.732 521.742 149.873 521.874 150.099C521.977 150.278 521.996 150.4 521.996 150.928V153.536H522.712V150.758C522.712 150.071 522.656 149.826 522.449 149.553C522.222 149.252 521.846 149.092 521.346 149.092C520.696 149.092 520.291 149.327 519.971 149.883C519.773 149.346 519.396 149.092 518.802 149.092C518.265 149.092 517.898 149.299 517.568 149.798V149.195H516.852Z" fill="white"/>
<path d="M524.912 147.933H527.39V147.255H524.12V153.536H527.39V152.858H524.912V150.711H527.39V150.033H524.912V147.933Z" fill="white"/>
<path d="M529.235 149.195H528.519V153.536H529.235V149.195ZM528.886 147.51C528.622 147.51 528.424 147.707 528.424 147.971C528.424 148.235 528.622 148.432 528.877 148.432C529.131 148.432 529.338 148.235 529.338 147.98C529.338 147.717 529.14 147.51 528.886 147.51Z" fill="white"/>
<path d="M531.529 152.82V147.255H530.737V153.536H533.743V152.82H531.529Z" fill="white"/>
<path d="M538.762 152.058C538.272 152.651 537.745 152.924 537.057 152.924C535.757 152.924 534.805 151.86 534.805 150.4C534.805 148.931 535.738 147.867 537.019 147.867C537.688 147.867 538.15 148.093 538.762 148.724L539.309 148.216C538.998 147.877 538.828 147.726 538.574 147.566C538.122 147.293 537.566 147.142 537 147.142C535.267 147.142 533.995 148.517 533.995 150.4C533.995 151.276 534.306 152.133 534.834 152.726C535.371 153.329 536.115 153.649 536.991 153.649C537.961 153.649 538.659 153.329 539.29 152.585L538.762 152.058Z" fill="white"/>
<path d="M542.425 147.255H539.815V147.933H541.633V151.154C541.633 151.973 541.539 152.331 541.238 152.594C541.002 152.792 540.663 152.896 540.201 152.896C540.098 152.896 540.003 152.896 539.815 152.877V153.564C539.947 153.574 540.06 153.574 540.126 153.574C540.682 153.574 541.125 153.508 541.426 153.366C542.095 153.065 542.425 152.481 542.425 151.596V147.255Z" fill="white"/>
<path d="M543.81 149.195V155.57H544.526V152.858C544.761 153.169 544.893 153.282 545.157 153.414C545.459 153.564 545.77 153.639 546.109 153.639C547.315 153.639 548.153 152.698 548.153 151.333C548.153 150.014 547.315 149.092 546.109 149.092C545.383 149.092 544.94 149.346 544.526 149.986V149.195H543.81ZM545.986 149.732C546.373 149.732 546.759 149.901 547.013 150.184C547.268 150.466 547.39 150.852 547.39 151.361C547.39 152.349 546.815 153.018 545.958 153.018C545.101 153.018 544.526 152.387 544.526 151.436C544.526 150.419 545.119 149.732 545.986 149.732Z" fill="white"/>
<path d="M551.424 150.768L553.563 147.255H552.621L551.019 149.948L549.398 147.255H548.466L550.633 150.768V153.536H551.424V150.768Z" fill="white"/>
<path d="M556.487 151.031L558.098 153.536H559.012L556.939 150.334L558.955 147.255H558.032L556.487 149.638L554.951 147.255H554L556.025 150.334L553.924 153.536H554.885L556.487 151.031Z" fill="white"/>
<path d="M565.487 153.225L564.79 152.472C565.261 151.841 565.468 151.21 565.468 150.372C565.468 148.527 564.149 147.142 562.397 147.142C560.616 147.142 559.297 148.545 559.297 150.429C559.297 151.304 559.551 152.039 560.051 152.594C560.644 153.253 561.511 153.649 562.368 153.649C563.084 153.649 563.659 153.442 564.272 152.971L564.94 153.724L565.487 153.225ZM563.81 151.408L563.273 151.879L563.735 152.397C563.292 152.773 562.905 152.914 562.359 152.914C561.059 152.914 560.107 151.86 560.107 150.391C560.107 149.751 560.286 149.176 560.607 148.762C561.031 148.206 561.7 147.877 562.387 147.877C563.687 147.877 564.648 148.95 564.648 150.41C564.648 150.984 564.535 151.398 564.262 151.898L563.81 151.408Z" fill="white"/>
<path d="M567.334 149.195H566.618V153.536H567.334V149.195ZM566.986 147.51C566.722 147.51 566.524 147.707 566.524 147.971C566.524 148.235 566.722 148.432 566.976 148.432C567.231 148.432 567.438 148.235 567.438 147.98C567.438 147.717 567.24 147.51 566.986 147.51Z" fill="white"/>
<path d="M571.579 147.142C569.798 147.142 568.47 148.555 568.47 150.429C568.47 151.22 568.696 151.926 569.129 152.472C569.713 153.206 570.627 153.649 571.56 153.649C572.285 153.649 573.001 153.385 573.567 152.896C574.254 152.312 574.631 151.436 574.631 150.457C574.631 149.515 574.405 148.818 573.896 148.225C573.293 147.538 572.455 147.142 571.579 147.142ZM571.56 147.877C572.116 147.877 572.69 148.122 573.105 148.527C573.595 148.997 573.821 149.609 573.821 150.447C573.821 151.088 573.585 151.766 573.218 152.171C572.794 152.651 572.172 152.924 571.541 152.924C570.241 152.924 569.28 151.86 569.28 150.4C569.28 148.95 570.25 147.877 571.56 147.877Z" fill="white"/>
<path d="M576.48 149.195H575.764V153.988C575.754 154.6 575.443 154.977 574.934 154.995H574.831V155.673H575.019C575.462 155.673 575.848 155.513 576.112 155.221C576.376 154.939 576.48 154.581 576.48 153.988V149.195ZM576.131 147.51C575.867 147.51 575.669 147.707 575.669 147.971C575.669 148.235 575.867 148.432 576.122 148.432C576.376 148.432 576.583 148.235 576.583 147.98C576.583 147.717 576.385 147.51 576.131 147.51Z" fill="white"/>
<path d="M578.698 147.933H581.176V147.255H577.907V153.536H581.176V152.858H578.698V150.711H581.176V150.033H578.698V147.933Z" fill="white"/>
<path d="M584.084 148.395V153.536H584.829V147.208L582.699 148.602V149.318L584.084 148.395Z" fill="white"/>
<path d="M587.938 148.931L590.255 153.602L592.592 148.941V153.536H593.383V147.255H592.611L590.255 151.963L587.928 147.255H587.146V153.536H587.938V148.931Z" fill="white"/>
<path d="M596.626 147.933H598.218V147.255H594.233V147.933H595.835V153.536H596.626V147.933Z" fill="white"/>
<path d="M601.595 150.768L603.733 147.255H602.791L601.19 149.948L599.569 147.255H598.636L600.803 150.768V153.536H601.595V150.768Z" fill="white"/>
<path d="M605.668 152.415L604.499 149.195H603.736L605.281 153.404L604.377 155.626H605.159L607.75 149.195H606.968L605.668 152.415Z" fill="white"/>
<path d="M609.384 148.931L611.702 153.602L614.038 148.941V153.536H614.83V147.255H614.057L611.702 151.963L609.375 147.255H608.593V153.536H609.384V148.931Z" fill="white"/>
<path d="M617.026 152.905L619.259 149.195H616.065V149.826H618.081L615.82 153.536H619.023V152.905H617.026Z" fill="white"/>
<path d="M620.826 151.596L622.56 153.536H623.455L621.524 151.314L623.464 149.195H622.56L620.826 151.097V147.255H620.11V153.536H620.826V151.596Z" fill="white"/>
<path d="M629.576 149.195L628.436 152.387L627.456 149.195H626.749L625.75 152.387L624.639 149.195H623.904L625.392 153.536H626.071L627.117 150.24L628.115 153.536H628.765L630.31 149.195H629.576Z" fill="white"/>
<path d="M631.944 148.931L634.262 153.602L636.598 148.941V153.536H637.39V147.255H636.617L634.262 151.963L631.935 147.255H631.153V153.536H631.944V148.931Z" fill="white"/>
<path d="M639.605 149.195H638.889V153.988C638.879 154.6 638.568 154.977 638.06 154.995H637.956V155.673H638.144C638.587 155.673 638.973 155.513 639.237 155.221C639.501 154.939 639.605 154.581 639.605 153.988V149.195ZM639.256 147.51C638.992 147.51 638.794 147.707 638.794 147.971C638.794 148.235 638.992 148.432 639.247 148.432C639.501 148.432 639.708 148.235 639.708 147.98C639.708 147.717 639.511 147.51 639.256 147.51Z" fill="white"/>
<path d="M643.18 147.255H640.571V147.933H642.389V151.154C642.389 151.973 642.295 152.331 641.993 152.594C641.758 152.792 641.418 152.896 640.957 152.896C640.853 152.896 640.759 152.896 640.571 152.877V153.564C640.702 153.574 640.816 153.574 640.881 153.574C641.437 153.574 641.88 153.508 642.182 153.366C642.851 153.065 643.18 152.481 643.18 151.596V147.255Z" fill="white"/>
<path d="M645.093 153.536H645.969L647.778 150.579C648.089 150.061 648.212 149.694 648.212 149.214C648.212 148.093 647.364 147.237 646.233 147.237C645.093 147.237 644.198 148.122 644.198 149.242C644.198 150.316 645.018 151.144 646.073 151.144C646.29 151.144 646.412 151.116 646.676 151.022L645.093 153.536ZM646.233 147.933C646.921 147.933 647.467 148.498 647.467 149.223C647.467 149.939 646.921 150.485 646.195 150.485C645.489 150.485 644.942 149.92 644.942 149.214C644.942 148.498 645.517 147.933 646.233 147.933Z" fill="white"/>
<path d="M649.644 152.632C649.361 152.632 649.154 152.839 649.154 153.122C649.154 153.404 649.361 153.611 649.644 153.611C649.917 153.611 650.134 153.404 650.134 153.131C650.134 152.839 649.926 152.632 649.644 152.632Z" fill="white"/>
<path d="M652.455 152.849L654.142 150.504C654.669 149.77 654.858 149.308 654.858 148.781C654.858 147.867 654.142 147.227 653.115 147.227C651.994 147.227 651.362 147.886 651.325 149.082H652.031C652.041 148.753 652.069 148.611 652.144 148.432C652.286 148.103 652.634 147.905 653.058 147.905C653.671 147.905 654.104 148.291 654.104 148.837C654.104 149.214 653.963 149.496 653.332 150.41L651.146 153.536H654.669V152.849H652.455Z" fill="white"/>
<path d="M660.633 152.058C660.143 152.651 659.616 152.924 658.928 152.924C657.628 152.924 656.676 151.86 656.676 150.4C656.676 148.931 657.609 147.867 658.89 147.867C659.559 147.867 660.021 148.093 660.633 148.724L661.18 148.216C660.869 147.877 660.699 147.726 660.445 147.566C659.992 147.293 659.437 147.142 658.871 147.142C657.138 147.142 655.866 148.517 655.866 150.4C655.866 151.276 656.177 152.133 656.704 152.726C657.241 153.329 657.986 153.649 658.862 153.649C659.832 153.649 660.529 153.329 661.161 152.585L660.633 152.058Z" fill="white"/>
<path d="M665.745 152.086L666.264 153.536H667.149L664.841 147.255H663.899L661.534 153.536H662.354L662.928 152.086H665.745ZM665.5 151.408H663.164L664.351 148.254L665.5 151.408Z" fill="white"/>
<path d="M670.705 147.35H669.829L668.03 150.24C667.672 150.815 667.549 151.163 667.549 151.624C667.549 152.764 668.416 153.649 669.537 153.649C670.649 153.649 671.563 152.736 671.563 151.624C671.563 150.56 670.752 149.741 669.707 149.741C669.48 149.741 669.358 149.77 669.094 149.864L670.705 147.35ZM669.575 150.382C670.272 150.382 670.828 150.947 670.828 151.653C670.828 152.368 670.262 152.943 669.556 152.943C668.849 152.943 668.293 152.359 668.293 151.624C668.293 150.928 668.859 150.382 669.575 150.382Z" fill="white"/>
<path d="M675.567 152.51C675.218 152.839 674.879 152.98 674.455 152.98C673.607 152.98 673.014 152.312 673.014 151.351C673.014 150.41 673.607 149.751 674.464 149.751C674.87 149.751 675.237 149.901 675.567 150.203L676.028 149.741C675.576 149.299 675.067 149.092 674.446 149.092C673.174 149.092 672.279 150.033 672.279 151.38C672.279 152.698 673.164 153.639 674.408 153.639C675.039 153.639 675.52 153.442 676.01 152.999L675.567 152.51Z" fill="white"/>
<path d="M679.326 150.127C679.646 150.014 679.778 149.93 679.948 149.741C680.174 149.478 680.297 149.139 680.297 148.781C680.297 147.886 679.581 147.237 678.591 147.237C677.593 147.237 676.858 147.896 676.858 148.79C676.858 149.139 676.971 149.459 677.178 149.713C677.348 149.92 677.489 150.014 677.819 150.127C677.442 150.25 677.282 150.344 677.084 150.551C676.782 150.862 676.613 151.314 676.613 151.813C676.613 152.886 677.414 153.649 678.554 153.649C679.703 153.649 680.523 152.858 680.523 151.747C680.523 151.257 680.362 150.843 680.052 150.532C679.854 150.325 679.684 150.24 679.326 150.127ZM678.591 147.896C679.128 147.896 679.59 148.319 679.59 148.809C679.59 149.318 679.109 149.76 678.572 149.76C678.017 149.76 677.574 149.336 677.574 148.8C677.574 148.272 677.988 147.896 678.591 147.896ZM678.582 150.523C679.232 150.523 679.769 151.078 679.769 151.737C679.769 152.406 679.232 152.952 678.563 152.952C677.894 152.952 677.357 152.406 677.357 151.737C677.357 151.06 677.904 150.523 678.582 150.523Z" fill="white"/>
<path d="M682.341 152.905L684.574 149.195H681.38V149.826H683.396L681.135 153.536H684.338V152.905H682.341Z" fill="white"/>
<path d="M687.564 147.255H684.954V147.933H686.773V151.154C686.773 151.973 686.678 152.331 686.377 152.594C686.141 152.792 685.802 152.896 685.34 152.896C685.237 152.896 685.143 152.896 684.954 152.877V153.564C685.086 153.574 685.199 153.574 685.265 153.574C685.821 153.574 686.264 153.508 686.565 153.366C687.234 153.065 687.564 152.481 687.564 151.596V147.255Z" fill="white"/>
<path d="M689.665 151.596L691.399 153.536H692.294L690.362 151.314L692.303 149.195H691.399L689.665 151.097V147.255H688.949V153.536H689.665V151.596Z" fill="white"/>
<path d="M693.805 152.792C694.229 153.385 694.7 153.639 695.369 153.639C696.556 153.639 697.395 152.707 697.395 151.38C697.395 150.033 696.547 149.092 695.332 149.092C694.7 149.092 694.239 149.346 693.805 149.939V147.255H693.089V153.536H693.805V152.792ZM695.237 149.732C696.057 149.732 696.641 150.429 696.641 151.398C696.641 152.368 696.066 153.018 695.209 153.018C694.361 153.018 693.796 152.359 693.796 151.37C693.796 150.419 694.408 149.732 695.237 149.732Z" fill="white"/>
<path d="M700.261 147.933H701.853V147.255H697.868V147.933H699.47V153.536H700.261V147.933Z" fill="white"/>
<path d="M705.154 148.046L702.931 153.536H703.741L706.228 147.35H702.742V148.046H705.154Z" fill="white"/>
<path d="M708.235 147.255H707.444V153.536H708.235V147.255Z" fill="white"/>
<path d="M710.449 149.195H709.733V153.536H710.449V149.195ZM710.101 147.51C709.837 147.51 709.639 147.707 709.639 147.971C709.639 148.235 709.837 148.432 710.091 148.432C710.346 148.432 710.553 148.235 710.553 147.98C710.553 147.717 710.355 147.51 710.101 147.51Z" fill="white"/>
<path d="M435.455 160.494V166.869H436.171V164.157C436.406 164.468 436.538 164.581 436.802 164.713C437.103 164.863 437.414 164.939 437.753 164.939C438.959 164.939 439.798 163.997 439.798 162.632C439.798 161.314 438.959 160.391 437.753 160.391C437.028 160.391 436.585 160.645 436.171 161.285V160.494H435.455ZM437.631 161.031C438.017 161.031 438.404 161.201 438.658 161.483C438.912 161.765 439.035 162.152 439.035 162.66C439.035 163.649 438.46 164.317 437.603 164.317C436.745 164.317 436.171 163.686 436.171 162.735C436.171 161.718 436.764 161.031 437.631 161.031Z" fill="white"/>
<path d="M441.74 162.199L444.18 164.835H445.189L442.748 162.227C443.323 162.189 443.606 162.123 443.907 161.963C444.491 161.652 444.812 161.088 444.812 160.381C444.812 159.242 444.001 158.555 442.664 158.555H440.949V164.835H441.74V162.199ZM441.74 161.662V159.233H442.664C443.53 159.233 444.001 159.656 444.001 160.438C444.001 161.229 443.483 161.662 442.532 161.662H441.74Z" fill="white"/>
<path d="M446.871 164.835V158.555H446.155V164.835H446.871Z" fill="white"/>
<path d="M448.913 164.204L451.146 160.494H447.952V161.125H449.968L447.707 164.835H450.91V164.204H448.913Z" fill="white"/>
<path d="M454.39 161.427C454.711 161.314 454.843 161.229 455.012 161.04C455.238 160.777 455.361 160.438 455.361 160.08C455.361 159.186 454.645 158.536 453.655 158.536C452.657 158.536 451.922 159.195 451.922 160.089C451.922 160.438 452.035 160.758 452.242 161.012C452.412 161.219 452.553 161.314 452.883 161.427C452.506 161.549 452.346 161.643 452.148 161.85C451.847 162.161 451.677 162.613 451.677 163.112C451.677 164.185 452.478 164.948 453.618 164.948C454.767 164.948 455.587 164.157 455.587 163.046C455.587 162.556 455.427 162.142 455.116 161.831C454.918 161.624 454.748 161.54 454.39 161.427ZM453.655 159.195C454.192 159.195 454.654 159.619 454.654 160.108C454.654 160.617 454.174 161.059 453.637 161.059C453.081 161.059 452.638 160.636 452.638 160.099C452.638 159.572 453.053 159.195 453.655 159.195ZM453.646 161.822C454.296 161.822 454.833 162.378 454.833 163.037C454.833 163.705 454.296 164.251 453.627 164.251C452.958 164.251 452.421 163.705 452.421 163.037C452.421 162.359 452.968 161.822 453.646 161.822Z" fill="white"/>
<path d="M459.921 161.238C459.478 160.636 459.035 160.391 458.376 160.391C457.82 160.391 457.349 160.56 457 160.899C456.567 161.314 456.312 161.982 456.312 162.679C456.312 163.969 457.17 164.939 458.319 164.939C458.997 164.939 459.497 164.647 459.921 164.006V164.92C459.921 165.372 459.808 165.72 459.591 165.956C459.346 166.219 458.913 166.379 458.46 166.379C458.093 166.379 457.688 166.276 457.443 166.125C457.32 166.04 457.226 165.956 457.028 165.748L456.538 166.238C457.009 166.765 457.65 167.029 458.46 167.029C459.12 167.029 459.676 166.831 460.062 166.455C460.458 166.078 460.637 165.588 460.637 164.863V160.494H459.921V161.238ZM458.507 161.05C458.894 161.05 459.299 161.238 459.563 161.53C459.817 161.813 459.902 162.114 459.902 162.679C459.902 163.112 459.779 163.536 459.591 163.752C459.308 164.082 458.903 164.28 458.489 164.28C457.669 164.28 457.066 163.583 457.066 162.651C457.066 161.709 457.66 161.05 458.507 161.05Z" fill="white"/>
<path d="M464.851 158.555H462.119V162.104C462.524 161.69 463.023 161.464 463.513 161.464C464.342 161.464 464.908 162.001 464.908 162.801C464.908 163.573 464.333 164.157 463.579 164.157C463.231 164.157 462.882 164.035 462.684 163.837C462.58 163.743 462.515 163.63 462.364 163.357L461.685 163.611C462.006 164.44 462.675 164.901 463.56 164.901C464.795 164.901 465.68 164.025 465.68 162.82C465.68 161.643 464.851 160.777 463.749 160.777C463.428 160.777 463.146 160.833 462.825 160.956V159.27H464.851V158.555Z" fill="white"/>
<path d="M467.649 158.555H466.858V164.835H467.649V158.555Z" fill="white"/>
<path d="M469.213 158.555V164.835H470.984C471.776 164.835 472.181 164.75 472.548 164.515C472.972 164.242 473.227 163.733 473.227 163.15C473.227 162.641 473.048 162.217 472.708 161.944C472.511 161.794 472.341 161.728 471.992 161.652C472.332 161.521 472.482 161.427 472.633 161.248C472.869 160.984 472.991 160.626 472.991 160.221C472.991 159.157 472.266 158.555 470.984 158.555H469.213ZM470.005 159.204H470.655C471.229 159.204 471.493 159.242 471.719 159.355C472.021 159.496 472.219 159.854 472.219 160.259C472.219 160.607 472.077 160.927 471.832 161.125C471.606 161.304 471.305 161.37 470.805 161.37L470.005 161.379V159.204ZM470.005 162.02H470.994C471.992 162.02 472.435 162.349 472.435 163.103C472.435 163.517 472.285 163.818 471.983 163.988C471.71 164.148 471.455 164.195 470.796 164.195H470.005V162.02Z" fill="white"/>
<path d="M474.402 164.835H475.929C476.842 164.835 477.568 164.6 478.114 164.11C478.755 163.536 479.104 162.66 479.104 161.596C479.104 159.703 477.964 158.555 476.07 158.555H474.402V164.835ZM475.194 159.223H476.042C477.483 159.223 478.293 160.089 478.293 161.605C478.293 162.538 478.011 163.234 477.445 163.686C476.993 164.044 476.541 164.157 475.476 164.157H475.194V159.223Z" fill="white"/>
<path d="M483.023 158.649H482.146L480.347 161.54C479.989 162.114 479.866 162.462 479.866 162.924C479.866 164.063 480.733 164.948 481.854 164.948C482.966 164.948 483.88 164.035 483.88 162.924C483.88 161.86 483.07 161.04 482.024 161.04C481.798 161.04 481.675 161.069 481.412 161.163L483.023 158.649ZM481.892 161.681C482.589 161.681 483.145 162.246 483.145 162.952C483.145 163.668 482.58 164.242 481.873 164.242C481.167 164.242 480.611 163.658 480.611 162.924C480.611 162.227 481.176 161.681 481.892 161.681Z" fill="white"/>
<path d="M488.487 163.385L489.005 164.835H489.891L487.583 158.555H486.64L484.276 164.835H485.095L485.67 163.385H488.487ZM488.242 162.707H485.906L487.093 159.553L488.242 162.707Z" fill="white"/>
<path d="M493.3 161.436V162.114H495.486C495.42 162.66 495.326 162.971 495.081 163.3C494.694 163.856 493.969 164.223 493.272 164.223C491.991 164.223 491.001 163.121 491.001 161.7C491.001 160.259 491.991 159.167 493.291 159.167C493.743 159.167 494.186 159.308 494.534 159.562C494.704 159.675 494.817 159.788 495.062 160.061L495.655 159.581C495.062 158.837 494.242 158.442 493.291 158.442C491.491 158.442 490.191 159.807 490.191 161.709C490.191 163.583 491.501 164.948 493.291 164.948C494.242 164.948 495.052 164.553 495.655 163.799C496.117 163.216 496.306 162.632 496.306 161.794C496.306 161.737 496.306 161.568 496.296 161.436H493.3Z" fill="white"/>
<path d="M498.392 164.148L500.078 161.803C500.606 161.069 500.794 160.607 500.794 160.08C500.794 159.167 500.078 158.526 499.051 158.526C497.93 158.526 497.299 159.186 497.261 160.381H497.968C497.977 160.052 498.005 159.911 498.081 159.732C498.222 159.402 498.571 159.204 498.995 159.204C499.607 159.204 500.04 159.59 500.04 160.137C500.04 160.513 499.899 160.796 499.268 161.709L497.082 164.835H500.606V164.148H498.392Z" fill="white"/>
<path d="M502.961 159.233H505.411V158.555H502.17V164.835H502.961V162.01H505.411V161.332H502.961V159.233Z" fill="white"/>
<path d="M507.015 164.835V158.555H506.299V164.835H507.015Z" fill="white"/>
<path d="M509.309 160.033L512.692 164.835H513.389V158.555H512.597V163.281L509.243 158.555H508.518V164.835H509.309V160.033Z" fill="white"/>
<path d="M517.041 159.327L515.222 161.605L515.533 161.878C515.807 161.718 515.995 161.662 516.287 161.662C517.107 161.662 517.672 162.189 517.672 162.942C517.672 163.677 517.069 164.251 516.306 164.251C515.722 164.251 515.279 163.912 515.109 163.31L514.431 163.432C514.648 164.383 515.354 164.939 516.344 164.939C517.54 164.939 518.426 164.063 518.426 162.886C518.426 161.775 517.653 160.993 516.56 160.993L518.407 158.649H514.846V159.327H517.041Z" fill="white"/>
<path d="M520.31 160.494H519.594V164.835H520.31V160.494ZM519.961 158.809C519.698 158.809 519.5 159.007 519.5 159.27C519.5 159.534 519.698 159.732 519.952 159.732C520.206 159.732 520.414 159.534 520.414 159.28C520.414 159.016 520.216 158.809 519.961 158.809Z" fill="white"/>
<path d="M524.686 163.809C524.338 164.138 523.999 164.28 523.575 164.28C522.727 164.28 522.133 163.611 522.133 162.651C522.133 161.709 522.727 161.05 523.584 161.05C523.989 161.05 524.357 161.201 524.686 161.502L525.148 161.04C524.696 160.598 524.187 160.391 523.565 160.391C522.293 160.391 521.398 161.332 521.398 162.679C521.398 163.997 522.284 164.939 523.528 164.939C524.159 164.939 524.639 164.741 525.129 164.298L524.686 163.809Z" fill="white"/>
<path d="M526.91 160.231L529.228 164.901L531.564 160.24V164.835H532.356V158.555H531.583L529.228 163.263L526.901 158.555H526.119V164.835H526.91V160.231Z" fill="white"/>
<path d="M536.662 158.442C534.882 158.442 533.553 159.854 533.553 161.728C533.553 162.519 533.78 163.225 534.213 163.771C534.797 164.506 535.711 164.948 536.644 164.948C537.369 164.948 538.085 164.684 538.65 164.195C539.338 163.611 539.715 162.735 539.715 161.756C539.715 160.814 539.489 160.118 538.98 159.524C538.377 158.837 537.539 158.442 536.662 158.442ZM536.644 159.176C537.199 159.176 537.774 159.421 538.189 159.826C538.679 160.297 538.905 160.909 538.905 161.747C538.905 162.387 538.669 163.065 538.302 163.47C537.878 163.95 537.256 164.223 536.625 164.223C535.325 164.223 534.364 163.159 534.364 161.7C534.364 160.25 535.334 159.176 536.644 159.176Z" fill="white"/>
<path d="M542.562 159.694V164.835H543.306V158.508L541.177 159.901V160.617L542.562 159.694Z" fill="white"/>
<path d="M546.415 161.935L548.799 164.835H549.807L547.188 161.662L549.807 158.555H548.856L546.415 161.445V158.555H545.624V164.835H546.415V161.935Z" fill="white"/>
<path d="M551.399 158.555H550.608V162.274C550.608 163.253 550.731 163.715 551.117 164.157C551.541 164.666 552.21 164.948 552.945 164.948C553.661 164.948 554.292 164.684 554.716 164.204C555.121 163.752 555.272 163.216 555.272 162.274V158.555H554.461V162.274C554.461 163.112 554.377 163.432 554.037 163.762C553.764 164.044 553.321 164.223 552.926 164.223C552.53 164.223 552.078 164.054 551.814 163.799C551.512 163.498 551.399 163.093 551.399 162.293V158.555Z" fill="white"/>
<path d="M559.857 161.238C559.415 160.636 558.972 160.391 558.312 160.391C557.756 160.391 557.285 160.56 556.937 160.899C556.503 161.314 556.249 161.982 556.249 162.679C556.249 163.969 557.106 164.939 558.256 164.939C558.934 164.939 559.433 164.647 559.857 164.006V164.92C559.857 165.372 559.744 165.72 559.528 165.956C559.283 166.219 558.849 166.379 558.397 166.379C558.03 166.379 557.625 166.276 557.38 166.125C557.257 166.04 557.163 165.956 556.965 165.748L556.475 166.238C556.946 166.765 557.587 167.029 558.397 167.029C559.057 167.029 559.612 166.831 559.999 166.455C560.394 166.078 560.573 165.588 560.573 164.863V160.494H559.857V161.238ZM558.444 161.05C558.83 161.05 559.236 161.238 559.499 161.53C559.754 161.813 559.839 162.114 559.839 162.679C559.839 163.112 559.716 163.536 559.528 163.752C559.245 164.082 558.84 164.28 558.425 164.28C557.606 164.28 557.003 163.583 557.003 162.651C557.003 161.709 557.596 161.05 558.444 161.05Z" fill="white"/>
<path d="M561.302 165.494V166.003H566.013V165.494H561.302Z" fill="white"/>
<path d="M566.729 160.494V164.835H567.445V162.189C567.445 161.831 567.52 161.624 567.727 161.398C567.944 161.153 568.236 161.031 568.556 161.031C568.848 161.031 569.103 161.144 569.235 161.323C569.348 161.474 569.395 161.681 569.395 162.067V164.835H570.111V161.907C570.111 161.314 570.017 161.012 569.743 160.749C569.489 160.523 569.131 160.391 568.735 160.391C568.198 160.391 567.821 160.598 567.445 161.106V160.494H566.729Z" fill="white"/>
<path d="M572.266 158.555H571.475V162.274C571.475 163.253 571.597 163.715 571.984 164.157C572.408 164.666 573.077 164.948 573.811 164.948C574.527 164.948 575.159 164.684 575.583 164.204C575.988 163.752 576.139 163.216 576.139 162.274V158.555H575.328V162.274C575.328 163.112 575.244 163.432 574.904 163.762C574.631 164.044 574.188 164.223 573.793 164.223C573.397 164.223 572.945 164.054 572.681 163.799C572.379 163.498 572.266 163.093 572.266 162.293V158.555Z" fill="white"/>
</g>
<path fill-rule="evenodd" clip-rule="evenodd" d="M793.057 161.605H816.856C818.374 161.603 819.83 160.984 820.904 159.885C821.977 158.785 822.581 157.295 822.583 155.74V140.351C822.581 138.797 821.977 137.306 820.903 136.207C819.83 135.108 818.374 134.49 816.856 134.487H793.057C791.539 134.49 790.083 135.108 789.009 136.207C787.936 137.306 787.332 138.797 787.33 140.351V155.741C787.332 157.296 787.936 158.786 789.009 159.885C790.083 160.985 791.539 161.603 793.057 161.605ZM789.507 136.717C790.449 135.753 791.725 135.211 793.057 135.209H798.398L804.604 141.009V143.026C804.604 143.107 804.589 143.188 804.558 143.262C804.528 143.337 804.483 143.405 804.427 143.462C804.371 143.52 804.305 143.565 804.232 143.596C804.158 143.627 804.08 143.642 804.001 143.642H788.034V140.351C788.036 138.988 788.565 137.681 789.507 136.717ZM799.446 135.209H810.466L804.956 140.358L799.446 135.209ZM811.515 135.209H816.856C818.187 135.211 819.464 135.753 820.405 136.717C821.347 137.681 821.877 138.988 821.878 140.351V143.644H810.3C809.953 143.644 809.621 143.786 809.375 144.037C809.13 144.288 808.992 144.628 808.992 144.983V151.724H800.917V144.366H804.001C804.348 144.366 804.681 144.225 804.927 143.974C805.172 143.723 805.311 143.382 805.311 143.026V141.005L811.515 135.209ZM809.342 152.448C809.344 152.448 809.345 152.448 809.347 152.448C809.348 152.448 809.349 152.448 809.35 152.448H821.878V155.74C821.877 157.103 821.347 158.41 820.405 159.374C819.464 160.338 818.187 160.88 816.856 160.882H811.514L805.307 155.082V152.448H809.342ZM809.7 151.724V144.983C809.7 144.82 809.763 144.663 809.876 144.548C809.989 144.432 810.142 144.367 810.301 144.367H821.878V151.724H809.7ZM800.21 144.366V151.724H788.034V144.366H800.21ZM810.466 160.882H799.444L804.955 155.733L810.466 160.882ZM798.396 160.882H793.057C791.725 160.88 790.449 160.338 789.507 159.374C788.565 158.41 788.036 157.103 788.034 155.74V152.448H804.601V155.083L798.396 160.882Z" fill="url(#paint3_linear_128:61)"/>
<path d="M822.583 148.046H836.143V149.402H822.583V148.046Z" fill="white"/>
<path d="M834.787 78.896H836.143V149.403H834.787V78.896Z" fill="url(#paint4_linear_128:61)"/>
<path d="M817.159 101.946H836.142V103.302H817.159V101.946Z" fill="#242424"/>
<path opacity="0.5" d="M818.515 92.4546H834.786V93.8105H818.515V92.4546Z" fill="white"/>
<path opacity="0.5" d="M822.583 88.3867H834.787V89.7426H822.583V88.3867Z" fill="white"/>
</g>
<path d="M45.337 77.31V78.222C45.337 80.502 46.249 82.839 47.845 84.606C49.669 86.715 52.405 87.684 56.11 87.684C62.779 87.684 67.453 83.295 67.453 77.025C67.453 74.574 66.598 72.237 65.116 70.527C63.634 68.874 61.81 67.905 57.82 66.48C53.431 64.941 52.063 64.371 50.866 63.402C49.498 62.319 48.757 60.552 48.757 58.557C48.757 54.282 51.892 51.204 56.167 51.204C58.96 51.204 61.354 52.401 62.551 54.339C63.292 55.536 63.52 56.562 63.577 58.785H66.712C66.712 52.401 62.608 48.297 56.224 48.297C49.897 48.297 45.508 52.572 45.508 58.728C45.508 61.578 46.534 64.029 48.415 65.739C50.011 67.221 51.208 67.791 55.825 69.33C62.266 71.382 64.318 73.263 64.318 77.025C64.318 81.642 60.898 84.777 55.825 84.777C52.918 84.777 50.581 83.58 49.441 81.642C48.757 80.445 48.472 79.362 48.358 77.31H45.337ZM94.3931 75.087C94.4501 74.289 94.5071 73.605 94.5071 73.263C94.5071 65.967 88.9211 60.324 81.6251 60.324C74.1011 60.324 68.7431 66.024 68.7431 74.004C68.7431 81.87 74.1011 87.456 81.6251 87.456C86.3561 87.456 90.8021 84.834 92.7401 80.901L90.4031 79.647C88.6361 82.725 85.1591 84.777 81.5681 84.777C78.3761 84.777 75.5261 83.238 73.6451 80.559C72.5051 78.906 72.0491 77.595 71.8211 75.087H94.3931ZM71.9351 72.408C72.2201 70.014 72.6191 68.817 73.4741 67.449C75.1271 64.656 78.2051 63.003 81.5681 63.003C84.9311 63.003 88.0091 64.656 89.8331 67.335C90.8021 68.874 91.2011 70.128 91.3721 72.408H71.9351ZM115.269 81.528C113.103 83.751 110.709 84.777 107.745 84.777C102.102 84.777 98.2833 80.331 98.2833 73.776C98.2833 67.392 102.216 63.003 107.973 63.003C110.652 63.003 113.103 63.972 115.269 65.967L117.036 64.029C114.528 61.521 111.621 60.324 107.973 60.324C100.563 60.324 95.3193 65.91 95.3193 73.89C95.3193 81.87 100.392 87.456 107.688 87.456C111.45 87.456 114.243 86.316 117.036 83.58L115.269 81.528ZM134.61 60.78V77.709C134.61 80.217 134.211 81.471 133.185 82.611C131.988 83.922 129.936 84.777 127.941 84.777C123.951 84.777 121.272 81.927 121.272 77.709V60.78H118.422V77.709C118.422 83.58 122.241 87.456 127.998 87.456C130.677 87.456 133.185 86.487 135.009 84.663C136.833 82.896 137.46 81.129 137.46 77.709V60.78H134.61ZM142.347 60.78V87H145.197V73.32C144.912 67.392 148.275 63.117 153.12 63.117H154.089V60.324H152.949C151.011 60.324 149.016 60.951 147.648 62.034C146.622 62.889 146.052 63.63 145.197 65.511V60.78H142.347ZM178.098 75.087C178.155 74.289 178.212 73.605 178.212 73.263C178.212 65.967 172.626 60.324 165.33 60.324C157.806 60.324 152.448 66.024 152.448 74.004C152.448 81.87 157.806 87.456 165.33 87.456C170.061 87.456 174.507 84.834 176.445 80.901L174.108 79.647C172.341 82.725 168.864 84.777 165.273 84.777C162.081 84.777 159.231 83.238 157.35 80.559C156.21 78.906 155.754 77.595 155.526 75.087H178.098ZM155.64 72.408C155.925 70.014 156.324 68.817 157.179 67.449C158.832 64.656 161.91 63.003 165.273 63.003C168.636 63.003 171.714 64.656 173.538 67.335C174.507 68.874 174.906 70.128 175.077 72.408H155.64ZM51.379 92.981H48.13V131H51.379V92.981ZM57.5524 104.78V131H60.4024V114.926C60.4024 112.418 60.9154 111.05 62.5114 109.397C64.0504 107.801 65.9884 107.003 68.2114 107.003C70.1494 107.003 71.8024 107.687 72.6574 108.77C73.4554 109.796 73.7404 111.278 73.7404 114.014V131H76.5904V112.76C76.5904 109.568 76.0204 107.858 74.3674 106.376C72.9424 105.065 70.8904 104.324 68.5534 104.324C65.3614 104.324 62.9104 105.635 60.4024 108.713V104.78H57.5524ZM85.4294 107.459H89.8754V104.78H85.4294V100.163C85.5434 96.686 86.3984 95.774 89.8754 95.375V92.981C89.4194 92.924 89.0774 92.924 88.8494 92.924C87.0824 92.924 85.3724 93.665 84.2324 94.862C83.0924 96.116 82.5794 97.769 82.5794 100.163V104.78H78.6464V107.459H82.5794V131H85.4294V107.459ZM92.4471 104.78V131H95.2971V117.32C95.0121 111.392 98.3751 107.117 103.22 107.117H104.189V104.324H103.049C101.111 104.324 99.1161 104.951 97.7481 106.034C96.7221 106.889 96.1521 107.63 95.2971 109.511V104.78H92.4471ZM124.55 109.625C122.042 106.034 118.85 104.324 114.689 104.324C107.621 104.324 102.605 109.967 102.605 117.89C102.605 125.813 107.678 131.456 114.746 131.456C118.793 131.456 121.928 129.461 124.55 125.186V131H127.4V104.78H124.55V109.625ZM114.917 107.003C120.674 107.003 124.607 111.278 124.607 117.491C124.607 123.704 120.218 128.777 114.746 128.777C109.502 128.777 105.569 124.217 105.569 118.061C105.569 115.211 106.424 112.418 107.906 110.366C109.616 108.029 111.782 107.003 114.917 107.003ZM148.525 111.677C148.297 107.06 145.048 104.324 139.747 104.324C134.56 104.324 130.969 107.231 130.969 111.506C130.969 113.387 131.824 115.268 133.192 116.465C134.503 117.662 136.156 118.403 139.234 119.144C144.022 120.284 145.789 121.709 145.789 124.331C145.789 127.067 143.452 128.891 139.918 128.891C135.985 128.891 133.534 126.953 133.306 123.704H130.399C130.969 128.891 134.104 131.456 139.804 131.456C145.219 131.456 148.753 128.606 148.753 124.331C148.753 122.507 147.955 120.626 146.701 119.372C145.39 118.004 143.68 117.206 140.146 116.351C135.301 115.154 133.933 114.071 133.933 111.335C133.933 108.656 136.156 106.946 139.69 106.946C143.395 106.946 145.561 108.656 145.561 111.677H148.525ZM155.493 107.459H159.768V104.78H155.493V95.945H152.643V104.78H148.653V107.459H152.643V127.409C152.7 129.974 153.783 131 156.69 131H159.768V128.435H157.374C155.835 128.435 155.55 128.207 155.493 126.896V107.459ZM162.125 104.78V131H164.975V117.32C164.69 111.392 168.053 107.117 172.898 107.117H173.867V104.324H172.727C170.789 104.324 168.794 104.951 167.426 106.034C166.4 106.889 165.83 107.63 164.975 109.511V104.78H162.125ZM191.232 104.78V121.709C191.232 124.217 190.833 125.471 189.807 126.611C188.61 127.922 186.558 128.777 184.563 128.777C180.573 128.777 177.894 125.927 177.894 121.709V104.78H175.044V121.709C175.044 127.58 178.863 131.456 184.62 131.456C187.299 131.456 189.807 130.487 191.631 128.663C193.455 126.896 194.082 125.129 194.082 121.709V104.78H191.232ZM216.638 125.528C214.472 127.751 212.078 128.777 209.114 128.777C203.471 128.777 199.652 124.331 199.652 117.776C199.652 111.392 203.585 107.003 209.342 107.003C212.021 107.003 214.472 107.972 216.638 109.967L218.405 108.029C215.897 105.521 212.99 104.324 209.342 104.324C201.932 104.324 196.688 109.91 196.688 117.89C196.688 125.87 201.761 131.456 209.057 131.456C212.819 131.456 215.612 130.316 218.405 127.58L216.638 125.528ZM225.115 107.459H229.39V104.78H225.115V95.945H222.265V104.78H218.275V107.459H222.265V127.409C222.322 129.974 223.405 131 226.312 131H229.39V128.435H226.996C225.457 128.435 225.172 128.207 225.115 126.896V107.459ZM247.247 104.78V121.709C247.247 124.217 246.848 125.471 245.822 126.611C244.625 127.922 242.573 128.777 240.578 128.777C236.588 128.777 233.909 125.927 233.909 121.709V104.78H231.059V121.709C231.059 127.58 234.878 131.456 240.635 131.456C243.314 131.456 245.822 130.487 247.646 128.663C249.47 126.896 250.097 125.129 250.097 121.709V104.78H247.247ZM254.984 104.78V131H257.834V117.32C257.549 111.392 260.912 107.117 265.757 107.117H266.726V104.324H265.586C263.648 104.324 261.653 104.951 260.285 106.034C259.259 106.889 258.689 107.63 257.834 109.511V104.78H254.984ZM290.736 119.087C290.793 118.289 290.85 117.605 290.85 117.263C290.85 109.967 285.264 104.324 277.968 104.324C270.444 104.324 265.086 110.024 265.086 118.004C265.086 125.87 270.444 131.456 277.968 131.456C282.699 131.456 287.145 128.834 289.083 124.901L286.746 123.647C284.979 126.725 281.502 128.777 277.911 128.777C274.719 128.777 271.869 127.238 269.988 124.559C268.848 122.906 268.392 121.595 268.164 119.087H290.736ZM268.278 116.408C268.563 114.014 268.962 112.817 269.817 111.449C271.47 108.656 274.548 107.003 277.911 107.003C281.274 107.003 284.352 108.656 286.176 111.335C287.145 112.874 287.544 114.128 287.715 116.408H268.278ZM69.049 165.025L72.754 175H76.345L61.867 136.981H58.333L43.399 175H46.648L50.695 165.025H69.049ZM67.909 162.061H51.892L59.986 141.313L67.909 162.061ZM95.1501 169.528C92.9841 171.751 90.5901 172.777 87.6261 172.777C81.9831 172.777 78.1641 168.331 78.1641 161.776C78.1641 155.392 82.0971 151.003 87.8541 151.003C90.5331 151.003 92.9841 151.972 95.1501 153.967L96.9171 152.029C94.4091 149.521 91.5021 148.324 87.8541 148.324C80.4441 148.324 75.2001 153.91 75.2001 161.89C75.2001 169.87 80.2731 175.456 87.5691 175.456C91.3311 175.456 94.1241 174.316 96.9171 171.58L95.1501 169.528ZM116.216 169.528C114.05 171.751 111.656 172.777 108.692 172.777C103.049 172.777 99.2296 168.331 99.2296 161.776C99.2296 155.392 103.163 151.003 108.92 151.003C111.599 151.003 114.05 151.972 116.216 153.967L117.983 152.029C115.475 149.521 112.568 148.324 108.92 148.324C101.51 148.324 96.2656 153.91 96.2656 161.89C96.2656 169.87 101.339 175.456 108.635 175.456C112.397 175.456 115.19 174.316 117.983 171.58L116.216 169.528ZM142.925 163.087C142.982 162.289 143.039 161.605 143.039 161.263C143.039 153.967 137.453 148.324 130.157 148.324C122.633 148.324 117.275 154.024 117.275 162.004C117.275 169.87 122.633 175.456 130.157 175.456C134.888 175.456 139.334 172.834 141.272 168.901L138.935 167.647C137.168 170.725 133.691 172.777 130.1 172.777C126.908 172.777 124.058 171.238 122.177 168.559C121.037 166.906 120.581 165.595 120.353 163.087H142.925ZM120.467 160.408C120.752 158.014 121.151 156.817 122.006 155.449C123.659 152.656 126.737 151.003 130.1 151.003C133.463 151.003 136.541 152.656 138.365 155.335C139.334 156.874 139.733 158.128 139.904 160.408H120.467ZM161.414 155.677C161.186 151.06 157.937 148.324 152.636 148.324C147.449 148.324 143.858 151.231 143.858 155.506C143.858 157.387 144.713 159.268 146.081 160.465C147.392 161.662 149.045 162.403 152.123 163.144C156.911 164.284 158.678 165.709 158.678 168.331C158.678 171.067 156.341 172.891 152.807 172.891C148.874 172.891 146.423 170.953 146.195 167.704H143.288C143.858 172.891 146.993 175.456 152.693 175.456C158.108 175.456 161.642 172.606 161.642 168.331C161.642 166.507 160.844 164.626 159.59 163.372C158.279 162.004 156.569 161.206 153.035 160.351C148.19 159.154 146.822 158.071 146.822 155.335C146.822 152.656 149.045 150.946 152.579 150.946C156.284 150.946 158.45 152.656 158.45 155.677H161.414ZM180.866 155.677C180.638 151.06 177.389 148.324 172.088 148.324C166.901 148.324 163.31 151.231 163.31 155.506C163.31 157.387 164.165 159.268 165.533 160.465C166.844 161.662 168.497 162.403 171.575 163.144C176.363 164.284 178.13 165.709 178.13 168.331C178.13 171.067 175.793 172.891 172.259 172.891C168.326 172.891 165.875 170.953 165.647 167.704H162.74C163.31 172.891 166.445 175.456 172.145 175.456C177.56 175.456 181.094 172.606 181.094 168.331C181.094 166.507 180.296 164.626 179.042 163.372C177.731 162.004 176.021 161.206 172.487 160.351C167.642 159.154 166.274 158.071 166.274 155.335C166.274 152.656 168.497 150.946 172.031 150.946C175.736 150.946 177.902 152.656 177.902 155.677H180.866Z" fill="white"/>
<defs>
<filter id="filter0_f_128:61" x="0" y="0" width="877" height="258" filterUnits="userSpaceOnUse" color-interpolation-filters="sRGB">
<feFlood flood-opacity="0" result="BackgroundImageFix"/>
<feBlend mode="normal" in="SourceGraphic" in2="BackgroundImageFix" result="shape"/>
<feGaussianBlur stdDeviation="24.5" result="effect1_foregroundBlur_128:61"/>
</filter>
<filter id="filter1_f_128:61" x="-29" y="-365" width="755" height="700" filterUnits="userSpaceOnUse" color-interpolation-filters="sRGB">
<feFlood flood-opacity="0" result="BackgroundImageFix"/>
<feBlend mode="normal" in="SourceGraphic" in2="BackgroundImageFix" result="shape"/>
<feGaussianBlur stdDeviation="87" result="effect1_foregroundBlur_128:61"/>
</filter>
<linearGradient id="paint0_linear_128:61" x1="469.235" y1="-46.3077" x2="272.421" y2="97.4077" gradientUnits="userSpaceOnUse">
<stop stop-color="#88007A"/>
<stop offset="1" stop-color="#004352"/>
</linearGradient>
<linearGradient id="paint1_linear_128:61" x1="384.164" y1="192.792" x2="484.882" y2="-53.5888" gradientUnits="userSpaceOnUse">
<stop stop-color="white"/>
<stop offset="0.491944" stop-color="#3B3131"/>
<stop offset="1"/>
</linearGradient>
<linearGradient id="paint2_linear_128:61" x1="402.442" y1="-18.3391" x2="545.376" y2="183.276" gradientUnits="userSpaceOnUse">
<stop stop-color="white"/>
<stop offset="1" stop-color="white" stop-opacity="0"/>
</linearGradient>
<linearGradient id="paint3_linear_128:61" x1="814.645" y1="140.547" x2="791.318" y2="188.55" gradientUnits="userSpaceOnUse">
<stop stop-color="white"/>
<stop offset="1" stop-color="white" stop-opacity="0"/>
</linearGradient>
<linearGradient id="paint4_linear_128:61" x1="841.566" y1="156.454" x2="841.892" y2="95.3457" gradientUnits="userSpaceOnUse">
<stop stop-color="white"/>
<stop offset="1" stop-color="white" stop-opacity="0"/>
</linearGradient>
</defs>
</svg>
