<svg width="240" height="240" viewBox="0 0 240 240" fill="none" xmlns="http://www.w3.org/2000/svg">
<path d="M86.4648 186.842L86.4754 186.859L86.4867 186.875C88.5364 189.803 91.1047 191.409 93.7371 191.902C96.3574 192.393 98.9595 191.765 101.055 190.377C105.276 187.58 107.438 181.701 103.878 175.571L103.868 175.552L103.856 175.534C98.2889 166.835 92.7204 159.126 79.9859 141.497C79.3074 140.557 78.6086 139.59 77.8884 138.593L77.8807 138.582C61.4647 116.456 68.9069 88.958 90.0589 74.6177C111.162 60.3105 140.853 67.1457 152.958 85.3036C154.618 87.7933 157.118 88.9275 159.666 89.0804C162.189 89.2318 164.784 88.4287 166.784 87.0293C170.801 84.2168 172.518 78.1354 169.586 73.9471L169.584 73.9442C144.699 38.6593 101.289 42.4385 77.6081 58.7186C69.4325 64.2935 57.773 76.1406 51.9812 92.2647C46.1673 108.451 46.2958 128.878 61.639 151.43C63.813 154.627 65.9053 157.434 68.2506 160.579C69.2693 161.945 70.3356 163.376 71.4772 164.93C75.2559 170.074 79.9015 176.633 86.4648 186.842ZM146.348 177.303L146.354 177.313C149.607 182.802 155.648 183.284 159.921 180.721C162.059 179.438 163.794 177.38 164.561 174.774C165.331 172.157 165.103 169.066 163.452 165.763L163.441 165.742L163.43 165.722C156.47 153.268 139.64 126.558 124.624 107.513C122.629 104.922 120.109 103.701 117.552 103.54C115.021 103.38 112.533 104.261 110.548 105.725C108.565 107.187 107.017 109.281 106.427 111.635C105.83 114.019 106.231 116.619 108.068 118.969C126.885 143.397 134.03 155.848 143.349 172.087C144.32 173.778 145.315 175.511 146.348 177.303ZM126.438 98.9931L126.445 98.9996C133.465 105.479 142.08 117.525 149.801 129.403C156.16 139.186 161.864 148.779 165.516 154.92C166.287 156.217 166.967 157.36 167.542 158.318C169.229 161.194 171.569 162.734 174.069 163.171C176.541 163.604 179.063 162.94 181.132 161.619C185.236 158.998 187.872 153.515 184.616 148.185C172.875 125.449 150.924 96.1864 143.612 87.0465C139.782 82.2592 132.334 77.7715 123.371 76.1843C114.373 74.5909 103.784 75.9076 93.6864 82.8246C83.5327 89.5962 79.3963 99.2965 78.4123 108.293C77.4333 117.244 79.5623 125.595 82.0614 129.824L82.0649 129.83C82.4576 130.484 82.8316 131.109 83.1905 131.708C87.8427 139.477 89.9299 142.963 96.7534 151.492C100.773 156.516 107.109 156.597 111.303 154.001C113.409 152.697 115.045 150.68 115.568 148.197C116.094 145.695 115.459 142.873 113.312 140.04C112.472 138.901 111.559 137.679 110.61 136.41C108.651 133.79 106.539 130.965 104.606 128.235C101.716 124.152 99.3354 120.426 98.476 118.02L98.474 118.014C95.7592 110.549 99.705 103.039 106.042 98.7263C112.379 94.4135 120.686 93.5791 126.438 98.9931ZM172.271 94.1197L172.213 94.1543L172.161 94.1963C171.186 94.9759 169.31 96.7433 168.259 99.1951C167.181 101.71 166.997 104.908 169.4 108.322C172.105 112.503 172.833 113.552 174.466 115.905C175.257 117.045 176.261 118.491 177.805 120.747C180.359 124.48 183.408 125.664 186.138 125.612C188.741 125.562 190.927 124.392 191.988 123.562C193.067 122.894 194.909 121.206 195.942 118.796C197.025 116.269 197.197 112.988 194.805 109.4C190.688 103.225 186.894 97.6945 186.44 97.0339C186.426 97.0136 186.412 96.9927 186.397 96.9715C186.378 96.9444 186.359 96.9169 186.34 96.8895C183.61 93.029 180.563 91.9417 177.862 92.1082C175.356 92.2628 173.307 93.4959 172.366 94.0627C172.333 94.0825 172.301 94.1015 172.271 94.1197ZM1 120.183C1 54.2509 54.2509 1 120.183 1C185.747 1 239 54.2489 239 120.183C239 185.749 185.749 239 120.183 239C54.2489 239 1 185.747 1 120.183ZM119.325 187.912C121.691 191.855 124.745 193.139 127.515 193.192C130.17 193.242 132.44 192.162 133.45 191.562C134.717 190.917 136.696 189.313 137.801 186.954C138.95 184.499 139.108 181.306 136.74 177.737C133.023 171.316 129.622 165.527 129.14 164.707C129.101 164.641 129.065 164.578 129.022 164.505C126.671 160.459 123.72 159.171 121.013 159.183C118.415 159.194 116.224 160.405 115.285 160.969C114.238 161.597 112.353 163.191 111.202 165.542C110.023 167.952 109.636 171.13 111.637 174.732C114.585 180.039 114.929 180.609 117.237 184.44C117.796 185.368 118.471 186.487 119.325 187.912Z" stroke="url(#paint0_linear_191_9)" stroke-width="2"/>
<defs>
<linearGradient id="paint0_linear_191_9" x1="7.78449e-06" y1="41.5" x2="89.812" y2="373.17" gradientUnits="userSpaceOnUse">
<stop stop-color="#8B99DC"/>
<stop offset="1" stop-color="#0A0E12"/>
</linearGradient>
</defs>
</svg>
