<svg width="481" height="120" viewBox="0 0 481 120" fill="none" xmlns="http://www.w3.org/2000/svg">
<style>
    @media (prefers-color-scheme: dark) {
        .inverse { fill: white; }
    }
</style>
<path d="M87.3819 68.4004C91.024 68.4004 93.9765 71.3169 93.9765 74.9147V78.1718C93.9765 96.2164 89.5977 102.748 81.3478 118.389C80.5242 119.895 78.6138 120.444 77.1009 119.611L74.053 117.932C70.8924 116.192 69.7805 112.258 71.3293 109.027C77.0998 96.9906 80.3324 94.745 80.7411 81.1423L80.7872 78.1718V74.9147C80.7872 71.3169 83.7398 68.4004 87.3819 68.4004ZM54.4087 58.6289C54.4087 55.0311 57.3612 52.1145 61.0033 52.1145C64.6454 52.1145 67.598 55.0311 67.598 58.6289V78.1718L67.565 80.6407C67.0665 98.4749 60.853 104.799 49.8188 118.923C48.9803 119.963 47.4435 120.126 46.4006 119.286L43.1604 116.676C40.3528 114.414 39.9646 110.345 41.9957 107.382C49.6229 96.2544 53.937 94.0756 54.3691 80.556L54.4087 78.1718V58.6289ZM61.0033 26.0573C69.7484 26.0573 78.1352 29.4889 84.3189 35.5973C88.9351 40.1573 92.0413 45.9302 93.3193 52.1577C94.043 55.6837 91.024 58.6289 87.3819 58.6289C83.7398 58.6289 80.89 55.634 79.6982 52.2343C78.7276 49.4656 77.1299 46.9211 74.9927 44.8099C71.2825 41.1449 66.2503 39.0859 61.0033 39.0859C55.7563 39.0859 50.7242 41.1449 47.014 44.8099C43.3038 48.4749 41.2194 53.4457 41.2194 58.6289V78.1718C41.2194 92.7312 35.8118 95.5762 26.243 106.214C25.4746 107.037 24.1723 107.079 23.3516 106.307L20.034 103.183C17.4183 100.721 17.3664 96.6509 19.467 93.7467C24.6286 86.6103 27.6156 89.0007 27.9905 80.1456L28.0301 78.1718V58.6289C28.0301 49.9903 31.5041 41.7056 37.6877 35.5973C43.8714 29.4889 52.2583 26.0573 61.0033 26.0573ZM61.0033 6.42606e-05C76.7444 6.42606e-05 91.8407 6.17701 102.971 17.172C114.102 28.1671 120.771 43.0795 120.771 58.6289V78.1718C120.771 89.2331 119.023 89.2313 116.418 99.7845C115.914 101.716 113.908 102.867 111.96 102.342L109.095 101.571C105.604 100.631 103.564 97.0763 104.33 93.5833C105.949 86.1995 106.882 89.5377 107.113 81.8719L107.166 78.1718V58.6289C107.166 50.1659 104.782 41.8699 100.28 34.6693C95.7786 27.4686 89.3374 21.6475 81.6773 17.8573C74.0172 14.0672 65.4404 12.4575 56.9069 13.2085C50.2773 13.792 43.8771 15.7823 38.134 19.0178C35.2855 20.6225 31.638 20.4088 29.3201 18.1175L29.1636 17.9628C26.3874 15.2185 26.63 10.6698 29.9764 8.63871C39.2676 2.99956 50.003 -0.0160519 61.0033 6.42606e-05ZM10.3973 27.9789C12.4528 24.6733 17.0571 24.434 19.835 27.1762L19.986 27.3253C22.3083 29.6176 22.5218 33.2261 20.8932 36.0419C17.1963 42.4338 15.1145 49.6449 14.8672 57.0589L14.8408 58.6289L14.8672 71.6575C14.8672 78.9535 13.5883 82.3859 10.3042 88.7308C9.8633 89.5404 7.86309 90.0262 6.51729 89.921C5.87856 89.8711 5.32495 89.5123 4.77817 89.1783C4.01777 88.7139 2.82968 88.0208 1.67788 87.4811C-0.229196 86.5877 0.00961938 85.5795 0.00954283 84.375C0.00954283 83.4375 1.61858 75 1.61858 73.5597L1.67794 71.6575V58.6289C1.64598 47.7634 4.69056 37.1566 10.3973 27.9789Z" fill="#33C2FF"/>
<path class="inverse" d="M167 94.7969C170.797 94.7969 173.047 92.5 173.047 88.5156V31.8438C173.047 27.8594 170.797 25.5625 167 25.5625C163.25 25.5625 160.953 27.8594 160.953 31.8438V88.5156C160.953 92.5 163.25 94.7969 167 94.7969ZM205.213 94.7969C208.822 94.7969 211.025 92.5469 211.025 88.7031V46.5625H211.447L243.041 91.1875C244.963 93.9062 246.556 94.7969 249.322 94.7969C253.259 94.7969 255.463 92.5938 255.463 88.75V31.6562C255.463 27.8125 253.306 25.5625 249.65 25.5625C246.041 25.5625 243.838 27.8125 243.838 31.6562V73.75H243.416L211.916 29.1719C209.947 26.5 208.306 25.5625 205.634 25.5625C201.744 25.5625 199.353 27.9062 199.353 31.7969V88.7031C199.353 92.5469 201.556 94.7969 205.213 94.7969ZM287.863 94.7969C291.659 94.7969 293.909 92.5 293.909 88.5156V66.3906H317.769C320.956 66.3906 323.066 64.5156 323.066 61.4688C323.066 58.4219 320.956 56.5469 317.769 56.5469H293.909V36.5781H320.206C323.488 36.5781 325.738 34.6094 325.738 31.4688C325.738 28.3281 323.534 26.3594 320.206 26.3594H287.863C284.113 26.3594 281.816 28.7031 281.816 32.6406V88.5156C281.816 92.5 284.113 94.7969 287.863 94.7969ZM354.2 94.9375C357.95 94.9375 360.247 92.5938 360.247 88.6562V68.5469H373.794L385.841 90.5781C387.716 93.9062 389.122 94.9375 391.981 94.9375C395.45 94.9375 398.075 92.5938 398.075 89.4062C398.075 88 397.794 86.9688 396.762 85.2344L386.075 66.4844C393.903 63.4375 398.403 56.2188 398.403 47.4062C398.403 34.4688 389.637 26.3594 375.012 26.3594H354.2C350.45 26.3594 348.153 28.7031 348.153 32.6406V88.6562C348.153 92.5938 350.45 94.9375 354.2 94.9375ZM360.247 59.2656V36.1562H373.653C381.294 36.1562 386.028 40.5625 386.028 47.6875C386.028 55 381.575 59.2656 373.887 59.2656H360.247ZM425.506 94.7969C428.647 94.7969 430.428 93.25 431.553 89.5938L436.006 76.75H461.272L465.725 89.6875C466.803 93.2969 468.631 94.7969 471.913 94.7969C475.428 94.7969 477.959 92.5 477.959 89.2188C477.959 88.1406 477.725 87.0625 477.163 85.5156L457.475 32.0781C455.788 27.5312 453.069 25.5625 448.616 25.5625C444.209 25.5625 441.491 27.625 439.85 32.125L420.209 85.5156C419.647 86.9688 419.413 88.2812 419.413 89.2188C419.413 92.6406 421.803 94.7969 425.506 94.7969ZM438.866 67.1875L448.381 38.3125H448.709L458.319 67.1875H438.866Z" fill="black"/>
</svg>
