<svg width="78" height="25" viewBox="0 0 78 25" fill="none" xmlns="http://www.w3.org/2000/svg">
<path d="M34.4902 4.3084C34.4902 5.49888 33.5259 6.46259 32.3346 6.46259C31.1433 6.46259 30.179 5.49888 30.179 4.3084C30.179 3.17461 31.1433 2.15421 32.3346 2.15421C33.5259 2.15421 34.4902 3.11792 34.4902 4.3084ZM34.1499 8.16328V20.5216H30.576V8.16328H34.1499Z" fill="#0A0A0A"/>
<path d="M47.3106 13.4921V20.4649H43.7368V14.1157C43.7368 12.415 42.8292 11.4513 41.3543 11.4513C40.3899 11.4513 39.3688 12.0182 38.915 12.8685V20.5216H35.3412V8.16328H38.915V9.6372C39.5957 8.56011 40.9004 7.93652 42.2619 7.93652C45.4386 7.87984 47.3106 10.034 47.3106 13.4921Z" fill="#0A0A0A"/>
<path d="M53.3236 8.16328H56.3869V11.508H53.3236V20.4649H49.7498V11.508H47.4807V8.16328H49.7498V7.25625C49.7498 4.08165 51.792 2.2109 54.6851 2.2109C55.3658 2.2109 56.0466 2.38097 56.5004 2.60772L56.3302 5.72564C56.1033 5.66895 55.5927 5.55557 55.1957 5.55557C54.1746 5.55557 53.2669 6.29253 53.2669 7.42632V8.16328H53.3236Z" fill="#0A0A0A"/>
<path d="M65.3499 8.10659L65.123 11.4513C64.6691 11.2812 64.0451 11.1678 63.5346 11.1678C62.7404 11.1678 61.4357 11.8481 60.8684 13.0386V20.5216H57.2946V8.16328H60.8684V9.6372C61.4924 8.56011 62.7971 7.93652 63.8182 7.93652C64.4989 7.87983 65.0095 7.93652 65.3499 8.10659Z" fill="#0A0A0A"/>
<path d="M78.0001 8.16328V20.5216H74.4263V19.0476C73.8023 20.068 72.3274 20.7483 70.7957 20.7483C67.5623 20.7483 65.0096 17.8572 65.0096 14.2857C65.0096 10.7143 67.5623 7.87984 70.7957 7.87984C72.3274 7.87984 73.859 8.56011 74.4263 9.58052V8.10659H78.0001V8.16328ZM74.4263 15.8163V12.8118C73.9157 11.9048 72.7812 11.2245 71.5332 11.2245C69.7746 11.2245 68.4699 12.5284 68.4699 14.2857C68.4699 16.0431 69.8314 17.347 71.5332 17.347C72.8379 17.347 73.9157 16.7234 74.4263 15.8163Z" fill="#0A0A0A"/>
<path d="M12.48 0C5.616 0 0 5.61225 0 12.4717C0 19.3311 5.616 24.9433 12.48 24.9433C19.344 24.9433 24.96 19.3311 24.96 12.4717C24.96 5.61225 19.4007 0 12.48 0ZM10.3244 20.0113C9.87055 20.2948 9.30327 20.1247 9.01964 19.7279C8.79273 19.3311 8.56582 18.9909 8.33891 18.6508C8.112 18.3673 7.94182 18.0272 7.71491 17.7438C7.54473 17.4603 7.37455 17.2903 7.26109 17.0635C7.14764 16.8934 7.03418 16.7234 6.97745 16.6667C6.80727 16.5533 6.80727 16.4966 6.80727 16.4966C6.52364 16.1565 6.24 15.7596 6.01309 15.3628C5.78618 14.966 5.616 14.5692 5.50255 14.1156C5.38909 13.7188 5.27564 13.2653 5.21891 12.8118C5.16218 12.3583 5.16218 11.9048 5.21891 11.5079C5.27564 11.0544 5.33236 10.6576 5.44582 10.2041C5.55927 9.75057 5.72945 9.35374 5.95636 8.95692C6.18327 8.56009 6.41018 8.16327 6.69382 7.82313C6.97745 7.48299 7.31782 7.14286 7.65818 6.80272C7.71491 6.80272 7.71491 6.74603 7.77164 6.74603C7.82836 6.74603 7.82836 6.68934 7.88509 6.68934C7.94182 6.68934 7.94182 6.63265 7.99855 6.63265C8.05527 6.63265 8.05527 6.57596 8.112 6.57596C8.16873 6.57596 8.16873 6.51927 8.22545 6.51927L8.33891 6.46259C8.39564 6.46259 8.39564 6.4059 8.45236 6.4059C8.50909 6.4059 8.50909 6.34921 8.56582 6.34921C8.90618 6.12245 9.30327 5.95238 9.70036 5.78231C10.0975 5.61225 10.4945 5.49887 10.8916 5.44218C11.2887 5.38549 11.6858 5.3288 12.0829 5.3288C12.48 5.3288 12.8771 5.3288 13.2742 5.38549C13.6713 5.44218 14.0684 5.55556 14.4655 5.66893C14.8625 5.78231 15.2029 5.95238 15.6 6.17914C15.9404 6.34921 16.2807 6.63265 16.6211 6.85941C16.9615 7.14286 17.2451 7.4263 17.5287 7.76644C17.5287 7.76644 17.5855 7.87982 17.6989 7.93651C17.6989 7.93651 17.6989 7.9932 17.7556 7.9932C17.9825 8.27664 18.0393 8.56009 17.9258 8.90023C17.8691 9.0703 17.7556 9.24036 17.5855 9.35374C17.1884 9.69388 16.5644 9.63719 16.224 9.18367C16.1105 9.0703 16.0538 9.01361 16.0538 8.95692C15.8836 8.73016 15.6567 8.5034 15.4298 8.33333C15.2029 8.16327 14.976 7.9932 14.6924 7.82313C14.4087 7.70975 14.1818 7.53968 13.8982 7.48299C13.7847 7.4263 13.6145 7.36961 13.5011 7.36961C13.3876 7.36961 13.2175 7.31293 13.0473 7.25624C12.8771 7.25624 12.7636 7.19955 12.5935 7.19955C12.4233 7.19955 12.3098 7.19955 12.1396 7.19955C11.856 7.19955 11.5724 7.25624 11.2887 7.31293C11.0051 7.36961 10.7215 7.4263 10.4378 7.53968C10.1542 7.65306 9.87055 7.76644 9.64364 7.93651L9.18982 8.21996L9.07636 8.33333C8.79273 8.56009 8.56582 8.78685 8.39564 9.0703C8.16873 9.35374 7.99855 9.5805 7.88509 9.92064C7.71491 10.2041 7.60145 10.4875 7.54473 10.8277C7.43127 11.1111 7.37455 11.4512 7.37455 11.7914C7.37455 12.1315 7.37455 12.415 7.37455 12.7551C7.43127 13.0952 7.488 13.3787 7.54473 13.7188C7.65818 14.0023 7.77164 14.3424 7.94182 14.6259C8.112 14.9093 8.28218 15.1927 8.50909 15.4762C8.50909 15.4762 8.56582 15.5329 8.67927 15.6463C8.736 15.7596 8.84945 15.873 9.01964 16.0998C9.18982 16.2698 9.36 16.4966 9.53018 16.78C9.75709 17.0635 9.984 17.4036 10.1542 17.6871C10.3811 18.0839 10.6647 18.424 10.8916 18.8209C10.9484 19.161 10.7782 19.7279 10.3244 20.0113ZM13.9549 20.3515C13.4444 20.6349 12.8771 20.4649 12.5935 20.0113C12.3098 19.5011 12.0262 18.9909 11.6858 18.4807C11.4022 18.0272 11.5724 17.4603 12.0262 17.1769C12.48 16.8934 13.0473 17.0635 13.3309 17.517C13.6713 18.0272 13.9549 18.5941 14.2953 19.161C14.5789 19.5011 14.4087 20.068 13.9549 20.3515ZM16.6211 18.9342C16.1105 19.2177 15.5433 19.0476 15.2596 18.5941C14.9193 18.0272 14.2953 16.9501 13.9549 16.3832C13.5578 15.7596 13.1607 15.1361 12.7636 14.5692C12.3098 13.9456 11.856 13.2653 11.3455 12.6417C11.0051 12.2449 11.0618 11.6213 11.5156 11.2812C11.9127 10.941 12.5367 10.9977 12.8771 11.4512C13.3876 12.0748 13.8982 12.7551 14.352 13.4354C14.8058 14.059 15.2029 14.6825 15.6 15.3061C15.9971 15.873 16.6211 17.0068 16.9615 17.5737C17.1884 18.0839 17.0749 18.6508 16.6211 18.9342ZM18.9469 17.0635C18.4364 17.3469 17.8691 17.1769 17.5855 16.7234C17.2451 16.1565 16.9047 15.5896 16.5644 15.0227C16.2807 14.5125 15.9404 14.059 15.6567 13.6054C15.3731 13.2086 15.1462 12.8118 14.8625 12.4717C14.6356 12.1882 14.4087 11.8481 14.2385 11.6213C14.0684 11.3946 13.8982 11.2245 13.7847 11.0544C13.6713 10.941 13.6145 10.8277 13.6145 10.8277C13.5011 10.7143 13.4444 10.6009 13.3309 10.5442C13.2175 10.4875 13.104 10.3742 12.9905 10.3175C12.8771 10.2608 12.7636 10.2041 12.6502 10.2041C12.5367 10.1474 12.4233 10.1474 12.2531 10.1474C12.1396 10.1474 11.9695 10.1474 11.856 10.1474C11.7425 10.1474 11.5724 10.2041 11.4589 10.2041C11.3455 10.2608 11.232 10.3175 11.1185 10.3741C11.0051 10.4308 10.8916 10.5442 10.7782 10.6009C10.6647 10.7143 10.5513 10.771 10.4945 10.8844C10.4378 10.9977 10.3244 11.1111 10.2676 11.2245C10.2109 11.3379 10.1542 11.4512 10.1542 11.5646C10.0975 11.678 10.0975 11.7914 10.0975 11.9615C10.0975 12.0748 10.0975 12.2449 10.0975 12.3583C10.0975 12.4717 10.1542 12.6417 10.1542 12.7551C10.2109 12.8685 10.2676 12.9819 10.3244 13.0952C10.3811 13.2086 10.4945 13.322 10.5513 13.4354C10.5513 13.4354 10.608 13.4921 10.7215 13.6621C10.8349 13.7755 10.9484 13.9456 11.1185 14.1723C11.2887 14.4558 11.5156 14.7392 11.7425 15.0227C12.0262 15.4762 11.9695 16.0431 11.5156 16.3832C11.0618 16.6667 10.4945 16.61 10.1542 16.1565C9.984 15.873 9.75709 15.6463 9.58691 15.3628C9.41673 15.1361 9.30327 14.966 9.18982 14.8526C9.13309 14.7392 9.07636 14.6825 9.07636 14.6825C8.90618 14.4558 8.736 14.2857 8.62255 14.0023C8.50909 13.7755 8.39564 13.5488 8.33891 13.2653C8.28218 13.0385 8.22545 12.7551 8.16873 12.5283C8.16873 12.3016 8.112 12.0181 8.16873 11.7914C8.16873 11.5646 8.22545 11.2812 8.28218 11.0544C8.33891 10.8277 8.45236 10.5442 8.56582 10.3741C8.67927 10.1474 8.84945 9.92064 8.96291 9.69388C9.13309 9.46712 9.30327 9.29705 9.53018 9.12698C9.75709 8.95692 9.92727 8.78685 10.2109 8.67347C10.4378 8.56009 10.6647 8.44671 10.9484 8.39002C11.1753 8.33333 11.4589 8.27664 11.6858 8.21996C11.9127 8.21996 12.1964 8.16327 12.4233 8.21996C12.6502 8.21996 12.9338 8.27664 13.1607 8.33333C13.3876 8.39002 13.6713 8.5034 13.8415 8.61678C14.0684 8.73016 14.2953 8.90023 14.5222 9.01361C14.7491 9.18367 14.9193 9.35374 15.0895 9.5805C15.0895 9.5805 15.2029 9.69388 15.3164 9.86395C15.4298 10.034 15.6 10.2041 15.7702 10.4875C15.9971 10.771 16.224 11.0544 16.4509 11.3946C16.7345 11.7914 17.0182 12.1882 17.3018 12.585C17.6422 13.0952 17.9258 13.5488 18.2662 14.059C18.6065 14.6259 18.9469 15.1927 19.2873 15.8163C19.5142 16.2132 19.4007 16.78 18.9469 17.0635ZM20.0247 13.0952C19.5709 13.3787 19.0036 13.2653 18.72 12.8118C18.4364 12.3583 18.1527 11.9048 17.8124 11.5079C17.5287 11.0544 17.6422 10.4875 18.0393 10.1474C18.4931 9.86395 19.0604 9.97732 19.4007 10.3741C19.6844 10.8277 20.0247 11.2812 20.3084 11.7347C20.6487 12.1882 20.4785 12.8118 20.0247 13.0952Z" fill="#0A0A0A"/>
</svg>
