<svg width="112" height="35" viewBox="0 0 112 35" fill="none" xmlns="http://www.w3.org/2000/svg">
<style>
    @media (prefers-color-scheme: dark) {
      .inverse { fill: white; }
    }
</style>
<path class="inverse" d="M47.3313 5.6468C47.3313 7.29825 46.0018 8.63006 44.3532 8.63006C42.7045 8.63006 41.375 7.29825 41.375 5.6468C41.375 4.04863 42.7045 2.71682 44.3532 2.71682C46.0018 2.66355 47.3313 4.04863 47.3313 5.6468ZM46.8527 10.9208V27.9147H41.96V10.9208H46.8527Z" fill="black"/>
<path class="inverse" d="M66.6894 18.3257V27.968H61.7967V19.1248C61.7967 16.7808 60.5203 15.3957 58.4994 15.3957C57.1699 15.3957 55.7872 16.1415 55.0958 17.3135V27.8615H50.2031V10.9208H55.0958V12.9452C56.0531 11.5068 57.8081 10.6012 59.7226 10.6012C64.0835 10.6012 66.6894 13.5312 66.6894 18.3257Z" fill="black"/>
<path class="inverse" d="M76.0489 10.9208H80.2503V15.5555H76.0489V27.9147H71.1563V15.5555H68.0186V10.9208H71.1563V9.69556C71.1563 5.27395 73.9749 2.77014 77.9103 2.77014C78.8144 2.77014 79.7716 2.98323 80.4098 3.30287L80.1439 7.61793C79.8248 7.51139 79.0803 7.35157 78.6017 7.35157C77.1658 7.35157 75.9958 8.41702 75.9958 9.96192V10.9208H76.0489Z" fill="black"/>
<path class="inverse" d="M93.8117 10.9208L93.5458 15.5023C92.9076 15.2359 92.0567 15.1294 91.3654 15.1294C90.2486 15.1294 88.4936 16.035 87.6427 17.6864V27.968H82.75V10.9208H87.6427V12.9452C88.4936 11.5068 90.3017 10.6012 91.7376 10.6012C92.5885 10.6012 93.2799 10.7077 93.8117 10.9208Z" fill="black"/>
<path class="inverse" d="M112 10.9208V27.9147H107.107V25.8903C106.256 27.2754 104.235 28.2343 102.108 28.2343C97.694 28.2343 94.1841 24.2921 94.1841 19.3911C94.1841 14.49 97.694 10.5479 102.108 10.5479C104.235 10.5479 106.309 11.5068 107.107 12.8918V10.8675H112V10.9208ZM107.107 21.522V17.3667C106.363 16.1415 104.874 15.1826 103.172 15.1826C100.779 15.1826 98.9704 16.9938 98.9704 19.3911C98.9704 21.7883 100.779 23.5996 103.172 23.5996C104.874 23.6529 106.363 22.7472 107.107 21.522Z" fill="black"/>
<path class="inverse" d="M17.4967 0C7.81766 0 0 7.83105 0 17.5266C0 27.169 7.81766 35 17.4967 35C27.1225 35 34.9402 27.169 34.9402 17.5266C34.9402 7.83105 27.1225 0 17.4967 0ZM12.7104 27.169C10.7958 24.1857 9.9981 23.3333 9.09402 22.0015C4.67996 15.5023 9.04084 10.2816 11.3808 8.68341C14.7844 6.33942 21.0066 5.8067 24.5698 10.8676C24.9421 11.4003 24.7293 12.1994 24.1975 12.5723C23.6657 12.9452 22.8148 12.9985 22.3894 12.3592C20.5812 9.64231 16.1671 8.63014 13.0294 10.761C9.89174 12.8919 8.77493 16.9939 11.2213 20.2968C13.2953 23.1735 14.1462 24.3455 14.9972 25.6773C15.9544 27.3288 13.8272 28.7671 12.7104 27.169ZM19.358 27.8082C19.0921 27.968 18.1349 28.3942 17.4967 27.3288C16.8585 26.2633 16.9117 26.3699 16.3799 25.411C15.8481 24.4521 16.5926 23.7595 16.8585 23.5997C17.1244 23.4399 18.0285 22.9604 18.6667 24.0792C18.6667 24.0792 19.1985 24.9848 19.7835 25.997C20.4217 26.9559 19.6771 27.6484 19.358 27.8082ZM21.4321 25.7839C19.8367 23.0137 18.8794 21.2024 15.8481 17.2603C14.8908 16.035 16.9649 14.3836 18.0285 15.7686C20.2089 18.5388 22.6553 22.4277 23.6657 24.239C24.5698 26.0502 22.283 27.2222 21.4321 25.7839ZM24.5166 23.0137C23.5594 21.4155 20.5812 16.2481 18.5071 14.3303C16.699 12.6256 13.3485 14.9163 14.1994 17.2603C14.4653 18.0061 15.6353 19.4977 16.3799 20.5099C17.5499 22.0548 15.2631 23.3333 14.1994 22.0015C13.1358 20.6697 12.8699 20.1903 12.0722 18.8585C11.3808 17.6865 10.849 14.1172 13.7208 12.1994C16.5926 10.2283 19.7303 11.4536 20.7939 12.7854C21.8575 14.1172 25.0484 18.379 26.7502 21.6819C27.6011 23.067 25.4207 24.5586 24.5166 23.0137ZM27.867 17.8995C27.6011 18.1126 26.6971 18.5388 26.0057 17.5266C25.3143 16.5145 25.3675 16.621 24.7825 15.7154C24.1443 14.8097 24.8889 14.0639 25.1548 13.8508C25.4207 13.691 26.2716 13.1583 27.0161 14.2237C27.0161 14.2237 27.6011 15.0761 28.2393 16.035C28.8775 16.9939 28.133 17.7397 27.867 17.8995Z" fill="black"/>
</svg>
