<svg width="126" height="35" viewBox="0 0 126 35" fill="none" xmlns="http://www.w3.org/2000/svg">
<style>
    @media (prefers-color-scheme: dark) {
        .inverse { fill: white; }
    }
</style>
<path class="inverse" d="M51.1133 8.69531C52.4844 8.69531 53.5391 7.60547 53.5391 6.30469C53.5391 4.96875 52.4844 3.89648 51.1133 3.89648C49.7422 3.89648 48.6699 4.96875 48.6699 6.30469C48.6699 7.60547 49.7422 8.69531 51.1133 8.69531ZM48.916 30H53.293V11.3672H48.916V30ZM57.0195 30H61.3965V19.1895C61.3965 16.5 62.9961 14.6719 65.5098 14.6719C68.0059 14.6719 69.2363 16.166 69.2363 18.8203V30H73.6133V17.9414C73.6133 13.6172 71.2754 10.9805 67.1797 10.9805C64.3496 10.9805 62.4512 12.2812 61.4844 14.2852H61.3965V11.3672H57.0195V30ZM78.3418 30H82.7188V14.7422H86.375V11.3672H82.6309V9.71484C82.6309 8.20312 83.4219 7.41211 85.127 7.41211C85.6016 7.41211 86.0938 7.44727 86.4453 7.5V4.44141C85.9004 4.33594 84.9688 4.26562 84.1074 4.26562C80.0645 4.26562 78.3418 5.95312 78.3418 9.5918V11.3672H75.793V14.7422H78.3418V30ZM89.2578 30H93.6348V19.1895C93.6348 16.4297 95.1289 14.8652 97.6074 14.8652C98.3457 14.8652 99.0137 14.9707 99.3828 15.1113V11.1562C99.0488 11.0684 98.5391 10.9805 97.9941 10.9805C95.8496 10.9805 94.3027 12.334 93.7227 14.584H93.6348V11.3672H89.2578V30ZM106.713 30.3164C109.174 30.3164 111.248 29.0859 112.32 27.1348H112.426V30H116.803V17.1855C116.803 13.4414 113.797 10.9805 109.139 10.9805C104.41 10.9805 101.545 13.459 101.281 16.7637L101.264 16.9746H105.324L105.359 16.8164C105.641 15.4453 106.906 14.4785 108.98 14.4785C111.195 14.4785 112.426 15.6211 112.426 17.502V18.7852L107.557 19.084C103.039 19.3652 100.473 21.3516 100.473 24.6562V24.6914C100.473 28.0137 102.986 30.3164 106.713 30.3164ZM104.832 24.5156V24.498C104.832 23.0215 106.01 22.0898 108.172 21.9492L112.426 21.6855V23.0918C112.426 25.3066 110.527 26.9766 108.014 26.9766C106.098 26.9766 104.832 26.0449 104.832 24.5156Z" fill="#101315"/>
<path d="M25.3237 19.9501C26.3792 19.9501 27.2349 20.8008 27.2349 21.8501V22.8001C27.2349 28.0631 25.9658 29.9683 23.575 34.5302C23.3363 34.9692 22.7827 35.1295 22.3442 34.8865L21.4609 34.3969C20.545 33.8892 20.2227 32.7418 20.6716 31.7995C22.3439 28.2889 23.2807 27.6339 23.3992 23.6665L23.4125 22.8001V21.8501C23.4125 20.8008 24.2682 19.9501 25.3237 19.9501ZM15.7679 17.1001C15.7679 16.0507 16.6236 15.2001 17.6791 15.2001C18.7346 15.2001 19.5902 16.0507 19.5902 17.1001V22.8001L19.5807 23.5202C19.4362 28.7218 17.6355 30.5664 14.4377 34.686C14.1947 34.9893 13.7494 35.0369 13.4471 34.7918L12.5081 34.0305C11.6944 33.3709 11.5819 32.1841 12.1706 31.3198C14.381 28.0742 15.6312 27.4387 15.7564 23.4955L15.7679 22.8001V17.1001ZM17.6791 7.60005C20.2134 7.60005 22.644 8.60094 24.436 10.3825C25.7738 11.7125 26.674 13.3963 27.0444 15.2127C27.2541 16.2411 26.3792 17.1001 25.3237 17.1001C24.2682 17.1001 23.4423 16.2266 23.0969 15.235C22.8157 14.4275 22.3526 13.6853 21.7332 13.0696C20.658 12.0006 19.1997 11.4001 17.6791 11.4001C16.1585 11.4001 14.7001 12.0006 13.6249 13.0696C12.5496 14.1385 11.9456 15.5883 11.9456 17.1001V22.8001C11.9456 27.0466 10.3784 27.8764 7.60534 30.9791C7.38268 31.2193 7.00525 31.2314 6.76742 31.0061L5.80597 30.0951C5.04792 29.3769 5.03286 28.1898 5.64163 27.3428C7.1375 25.2613 8.00314 25.9585 8.1118 23.3758L8.12327 22.8001V17.1001C8.12327 14.5805 9.13004 12.1641 10.9221 10.3825C12.7142 8.60094 15.1447 7.60005 17.6791 7.60005ZM17.6791 1.87427e-05C22.2409 1.87427e-05 26.6159 1.80163 29.8416 5.00851C33.0673 8.21539 35 12.5649 35 17.1001V22.8001C35 26.0263 34.4934 26.0258 33.7385 29.1038C33.5924 29.6671 33.0111 30.0028 32.4465 29.8498L31.6162 29.6248C30.6046 29.3507 30.0133 28.3139 30.2353 27.2951C30.7046 25.1415 30.975 26.1152 31.0419 23.8793L31.0572 22.8001V17.1001C31.0572 14.6317 30.3662 12.212 29.0617 10.1119C27.7571 8.01168 25.8904 6.31386 23.6705 5.20839C21.4505 4.10293 18.965 3.63345 16.4919 3.85249C14.5706 4.02265 12.7158 4.60316 11.0514 5.54685C10.2259 6.01489 9.16884 5.95257 8.49711 5.28428L8.45176 5.23916C7.64718 4.43872 7.71749 3.11201 8.6873 2.51962C11.3799 0.874871 14.4911 -0.0046818 17.6791 1.87427e-05ZM3.0132 8.1605C3.60887 7.19638 4.94324 7.12659 5.74829 7.92639L5.79205 7.96987C6.46506 8.63848 6.52694 9.69094 6.05496 10.5122C4.98358 12.3765 4.38025 14.4798 4.30859 16.6422L4.30095 17.1001L4.30859 20.9001C4.30859 23.0281 3.93796 24.0292 2.9862 25.8798C2.92535 25.9923 2.76201 26.0833 2.56548 26.1445C1.95197 26.3355 1.35813 25.9705 0.790856 25.6687C0.69089 25.6155 0.588085 25.5633 0.486259 25.5153C-0.0664222 25.2547 0.00278774 24.9607 0.00276556 24.6094C0.00276556 24.3359 0.469074 21.875 0.469074 21.4549L0.486274 20.9001V17.1001C0.477012 13.931 1.35935 10.8373 3.0132 8.1605Z" fill="#33C2FF"/>
</svg>
