<svg width="38" height="15" viewBox="0 0 38 15" fill="none" xmlns="http://www.w3.org/2000/svg">
<path d="M4.02519 2.41514C4.02519 3.27566 3.33543 3.96963 2.48013 3.96963C1.62482 3.96963 0.935059 3.27566 0.935059 2.41514C0.935059 1.58238 1.62482 0.888409 2.48013 0.888409C3.33543 0.860651 4.02519 1.58238 4.02519 2.41514ZM3.77688 5.16326V14.0183H1.23855V5.16326H3.77688Z" fill="white"/>
<path d="M14.0672 9.02157V14.0459H11.5289V9.43795C11.5289 8.21657 10.8667 7.49484 9.81827 7.49484C9.12851 7.49484 8.41116 7.88346 8.05248 8.49415V13.9904H5.51416V5.1631H8.05248V6.21794C8.54911 5.46845 9.4596 4.99655 10.4529 4.99655C12.7153 4.99655 14.0672 6.52328 14.0672 9.02157Z" fill="white"/>
<path d="M18.9245 5.16304H21.1041V7.57805H18.9245V14.0181H16.3861V7.57805H14.7583V5.16304H16.3861V4.52459C16.3861 2.22062 17.8484 0.915955 19.8901 0.915955C20.3592 0.915955 20.8558 1.02699 21.1869 1.19354L21.0489 3.442C20.8834 3.38648 20.4971 3.30321 20.2488 3.30321C19.5039 3.30321 18.8969 3.85838 18.8969 4.66339V5.16304H18.9245Z" fill="white"/>
<path d="M28.1392 5.1631L28.0012 7.55036C27.6702 7.41156 27.2287 7.35605 26.87 7.35605C26.2906 7.35605 25.3802 7.82794 24.9387 8.68847V14.0459H22.4004V5.1631H24.9387V6.21794C25.3802 5.46845 26.3182 4.99655 27.0632 4.99655C27.5046 4.99655 27.8633 5.05207 28.1392 5.1631Z" fill="white"/>
<path d="M37.5748 5.16349V14.0185H35.0365V12.9637C34.5951 13.6854 33.5466 14.1851 32.443 14.1851C30.153 14.1851 28.332 12.1309 28.332 9.57713C28.332 7.02333 30.153 4.96918 32.443 4.96918C33.5466 4.96918 34.6227 5.46884 35.0365 6.19056V5.13573H37.5748V5.16349ZM35.0365 10.6875V8.5223C34.6502 7.88385 33.8777 7.38419 32.9948 7.38419C31.7532 7.38419 30.8152 8.32799 30.8152 9.57713C30.8152 10.8263 31.7532 11.7701 32.9948 11.7701C33.8777 11.7978 34.6502 11.3259 35.0365 10.6875Z" fill="white"/>
</svg>
