<svg width="10" height="14" viewBox="0 0 10 14" fill="none" xmlns="http://www.w3.org/2000/svg">
<g opacity="0.45">
<path d="M3.33333 0.875C3.33333 0.391751 3.70643 0 4.16667 0H5.83333C6.29357 0 6.66667 0.391751 6.66667 0.875C6.66667 1.35825 6.29357 1.75 5.83333 1.75H4.16667C3.70643 1.75 3.33333 1.35825 3.33333 0.875Z" fill="white"/>
<path d="M1.66667 0.875C0.746192 0.875 0 1.6585 0 2.625V12.25C0 13.2165 0.746192 14 1.66667 14H8.33333C9.25381 14 10 13.2165 10 12.25V2.625C10 1.6585 9.25381 0.875 8.33333 0.875C8.33333 2.32475 7.21405 3.5 5.83333 3.5H4.16667C2.78595 3.5 1.66667 2.32475 1.66667 0.875Z" fill="white"/>
</g>
</svg>
