<svg width="14" height="14" viewBox="0 0 14 14" fill="none" xmlns="http://www.w3.org/2000/svg">
<path d="M5 1V2.33333M9 1V2.33333M5 11.6667V13M9 11.6667V13M2.33333 5H1M2.33333 9H1M13 5H11.6667M13 9H11.6667M3.66667 11.6667H10.3333C11.0697 11.6667 11.6667 11.0697 11.6667 10.3333V3.66667C11.6667 2.93029 11.0697 2.33333 10.3333 2.33333H3.66667C2.93029 2.33333 2.33333 2.93029 2.33333 3.66667V10.3333C2.33333 11.0697 2.93029 11.6667 3.66667 11.6667ZM5 5H9V9H5V5Z" stroke="#F9EFFF" stroke-linecap="round" stroke-linejoin="round"/>
</svg>
