<svg width="200" height="200" viewBox="0 0 200 200" fill="none" xmlns="http://www.w3.org/2000/svg">
<path fill-rule="evenodd" clip-rule="evenodd" d="M100 200C155.228 200 200 155.228 200 100C200 44.7715 155.228 0 100 0C44.7715 0 0 44.7715 0 100C0 155.228 44.7715 200 100 200ZM52.0549 125.723C53.856 128.372 55.5834 130.689 57.5323 133.303C61.1828 138.199 65.6103 144.137 72.755 155.251C79.1477 164.384 91.3243 156.164 85.8448 146.728C81.2185 139.499 76.5923 133.094 65.9663 118.384L64.2314 115.982C50.2284 97.1082 56.6211 73.6683 74.5815 61.4917C92.5419 49.3152 117.808 55.099 128.158 70.6241C130.594 74.2771 135.464 73.9727 138.508 71.8418C141.553 69.7109 142.77 65.1447 140.639 62.1006C120.244 33.1812 84.6272 36.2254 65.1447 49.6196C51.7504 58.752 26.7885 88.5846 52.0549 125.723ZM100.152 156.164C103.805 162.253 109.285 159.817 110.807 158.904C112.633 157.991 116.895 154.034 113.242 148.554C109.894 142.77 106.849 137.595 106.849 137.595C103.196 131.203 98.0214 133.942 96.4993 134.855C94.9772 135.769 90.7154 139.726 93.7596 145.206C96.2093 149.615 96.4905 150.082 98.4105 153.269C98.8765 154.042 99.4389 154.976 100.152 156.164ZM120.181 142.991C112.408 129.447 106.431 119.033 90.7154 98.6302C85.236 91.6287 97.1081 82.1919 103.196 90.1066C115.677 105.936 129.68 128.158 135.464 138.508C140.639 148.859 127.55 155.556 122.679 147.336C121.819 145.845 120.991 144.403 120.182 142.994L120.181 142.991ZM138.648 128.678L138.649 128.678C139.291 129.759 139.857 130.711 140.335 131.507C145.51 140.335 157.991 131.811 153.12 123.897C143.379 105.023 125.114 80.6698 119.026 73.0595C112.938 65.4491 94.9772 58.4476 78.5389 69.7109C62.1005 80.6698 65.1447 101.066 69.102 107.763C69.4299 108.309 69.7421 108.831 70.0415 109.33C73.9104 115.792 75.6275 118.659 81.2786 125.723C87.3669 133.333 100.457 126.027 93.7596 117.199C93.0656 116.258 92.3071 115.243 91.5169 114.186C87.454 108.753 82.5528 102.198 81.2786 98.6302C76.408 85.236 95.5861 72.1462 105.936 81.8875C116.773 91.8904 131.921 117.364 138.648 128.677L138.648 128.678L138.648 128.678ZM159.513 102.283C157.991 103.501 152.816 105.936 148.859 100.152C147.566 98.2632 146.728 97.056 146.069 96.1066L146.068 96.1058C144.71 94.1489 144.112 93.2865 141.857 89.8022C138.204 84.6272 142.379 80.2335 143.988 79.1477C145.597 78.062 150.381 75.1904 154.642 81.2786C154.642 81.2786 157.991 86.1493 161.644 91.6287C165.297 97.1082 161.035 101.37 159.513 102.283Z" fill="#151616"/>
</svg>
