<svg width="22" height="21" viewBox="0 0 22 21" fill="none" xmlns="http://www.w3.org/2000/svg">
<path d="M11.1527 0C5.33535 0 0.636719 4.69863 0.636719 10.516C0.636719 16.3014 5.33535 21 11.1527 21C16.9381 21 21.6367 16.3014 21.6367 10.516C21.6367 4.69863 16.9381 0 11.1527 0ZM8.27599 16.3014C7.1253 14.5114 6.64585 14 6.10247 13.2009C3.4495 9.30137 6.07051 6.16895 7.4769 5.21005C9.52256 3.80365 13.2623 3.48402 15.4038 6.52055C15.6276 6.84018 15.4997 7.31963 15.1801 7.54338C14.8605 7.76712 14.349 7.79909 14.0933 7.41553C13.0066 5.78539 10.3536 5.17808 8.46777 6.45662C6.58192 7.73516 5.91069 10.1963 7.38101 12.1781C8.62759 13.9041 9.139 14.6073 9.65042 15.4064C10.2258 16.3973 8.94722 17.2603 8.27599 16.3014ZM12.2714 16.6849C12.1116 16.7808 11.5363 17.0365 11.1527 16.3973C10.7691 15.758 10.8011 15.8219 10.4815 15.2466C10.1618 14.6712 10.6093 14.2557 10.7691 14.1598C10.929 14.0639 11.4723 13.7763 11.8559 14.4475C11.8559 14.4475 12.1755 14.9909 12.5271 15.5982C12.9107 16.1735 12.4632 16.589 12.2714 16.6849ZM13.518 15.4703C12.5591 13.8082 11.9838 12.7215 10.1618 10.3562C9.58649 9.62101 10.8331 8.63014 11.4723 9.46119C12.7828 11.1233 14.2532 13.4566 14.8605 14.5434C15.4038 15.6301 14.0294 16.3333 13.518 15.4703ZM15.3719 13.8082C14.7965 12.8493 13.0066 9.74886 11.76 8.59817C10.6732 7.57534 8.65955 8.94977 9.17097 10.3562C9.33078 10.8037 10.034 11.6986 10.4815 12.3059C11.1847 13.2329 9.81024 14 9.17097 13.2009C8.5317 12.4018 8.37188 12.1142 7.89243 11.3151C7.4769 10.6119 7.15727 8.47032 8.88329 7.31963C10.6093 6.13699 12.4952 6.87215 13.1344 7.67123C13.7737 8.47032 15.6915 11.0274 16.7143 13.0091C17.2258 13.8402 15.9153 14.7352 15.3719 13.8082ZM17.3856 10.7397C17.2258 10.8676 16.6824 11.1233 16.2669 10.516C15.8513 9.90868 15.8833 9.9726 15.5317 9.42922C15.1481 8.88584 15.5956 8.43836 15.7554 8.3105C15.9153 8.21461 16.4267 7.89498 16.8742 8.53425C16.8742 8.53425 17.2258 9.04566 17.6093 9.621C17.9929 10.1963 17.5454 10.6438 17.3856 10.7397Z" fill="url(#paint0_linear_402_1098)"/>
<defs>
<linearGradient id="paint0_linear_402_1098" x1="11.1367" y1="0" x2="11.1367" y2="28.7778" gradientUnits="userSpaceOnUse">
<stop stop-color="white"/>
<stop offset="1" stop-color="#F9ECFC"/>
</linearGradient>
</defs>
</svg>
