<svg xmlns="http://www.w3.org/2000/svg" width="28" height="10" fill="#007bbf" xmlns:v="https://vecta.io/nano"><path d="M3.399 2.284A3.4 3.4 0 0 0 0 5.683a3.4 3.4 0 0 0 3.399 3.399 3.4 3.4 0 0 0 3.399-3.399 3.4 3.4 0 0 0-3.399-3.399zm0 5.102c-.939 0-1.703-.764-1.703-1.703S2.46 3.98 3.399 3.98s1.703.764 1.703 1.703-.764 1.703-1.703 1.703zm5.974-.561a.3.3 0 0 1 .514-.209l2.264 2.358c.02.02.041.054.122.081a.45.45 0 0 0 .149.014h1.534c.277 0 .358-.318.23-.48l-2.541-2.602-.135-.135c-.29-.345-.257-.48.074-.831l2.014-2.25c.128-.162.047-.473-.236-.473H11.97c-.054 0-.095 0-.135.014-.081.027-.115.054-.135.081L9.886 4.338c-.189.203-.527.068-.527-.209V.27c0-.196-.162-.27-.291-.27H7.933c-.196 0-.291.128-.291.243v8.555c0 .196.162.25.297.25h1.135c.176 0 .291-.128.291-.257v-.088-1.879h.007zm9.271 1.933l-.122-1.135a.27.27 0 0 0-.318-.237 1.73 1.73 0 0 1-.264.02c-.905 0-1.642-.71-1.696-1.608v-.095-1.392a.32.32 0 0 1 .318-.331h1.52c.108 0 .27-.095.27-.291V2.615c0-.209-.135-.318-.257-.318h-1.534c-.176 0-.318-.128-.324-.304V.27c0-.108-.081-.27-.291-.27h-1.129c-.142 0-.277.088-.277.264v5.534c.047 1.838 1.554 3.304 3.399 3.304a3.32 3.32 0 0 0 .453-.034c.162-.02.27-.155.25-.311zm8.19-1.426c-.96 0-1.108-.345-1.108-1.635V2.581c0-.108-.081-.291-.297-.291h-1.135c-.142 0-.297.115-.297.291v.142c-.493-.284-1.068-.446-1.676-.446a3.4 3.4 0 0 0-3.399 3.399 3.4 3.4 0 0 0 3.399 3.399c.845 0 1.615-.311 2.21-.818.318.487.831.811 1.635.818.135 0 .865.027.865-.318v-1.21c0-.101-.081-.216-.196-.216zm-4.507.054c-.939 0-1.703-.764-1.703-1.703s.764-1.703 1.703-1.703 1.703.764 1.703 1.703c-.007.939-.77 1.703-1.703 1.703z"/></svg>