<svg width="10" height="13" viewBox="0 0 10 13" fill="none" xmlns="http://www.w3.org/2000/svg">
<path opacity="0.45" fill-rule="evenodd" clip-rule="evenodd" d="M1.66667 0C0.746192 0 0 0.727538 0 1.625V11.375C0 12.2725 0.746192 13 1.66667 13H8.33333C9.25381 13 10 12.2725 10 11.375V4.39905C10 3.96807 9.82441 3.55475 9.51184 3.25L6.66667 0.475951C6.35411 0.171205 5.93018 0 5.48816 0H1.66667ZM5.83333 4.875C5.83333 4.42627 5.46024 4.0625 5 4.0625C4.53976 4.0625 4.16667 4.42627 4.16667 4.875V7.78845L3.08926 6.73798C2.76382 6.42067 2.23618 6.42067 1.91074 6.73798C1.58531 7.05528 1.58531 7.56972 1.91074 7.88702L4.41074 10.3245C4.73618 10.6418 5.26382 10.6418 5.58926 10.3245L8.08926 7.88702C8.41469 7.56972 8.41469 7.05528 8.08926 6.73798C7.76382 6.42067 7.23618 6.42067 6.91074 6.73798L5.83333 7.78845V4.875Z" fill="white"/>
</svg>
