<svg width="30" height="30" viewBox="0 0 30 30" fill="none" xmlns="http://www.w3.org/2000/svg">
<g clip-path="url(#clip0_425_1108)">
<g filter="url(#filter0_d_425_1108)">
<path fill-rule="evenodd" clip-rule="evenodd" d="M13.6312 0.366772C14.4782 -0.122257 15.5218 -0.122258 16.3688 0.366772L15.6698 1.57742L16.3688 0.366772L26.6312 6.29175C27.4782 6.78078 28 7.68455 28 8.66261V20.5126C28 21.4906 27.4782 22.3944 26.6312 22.8834L16.3688 28.8084C15.5218 29.2974 14.4782 29.2974 13.6312 28.8084L3.36882 22.8834C2.52179 22.3944 2 21.4906 2 20.5126V8.66261C2 7.68455 2.52179 6.78078 3.36881 6.29175L13.6312 0.366772ZM15 2.80489L4.79588 8.69624V20.4789L15 26.3703L25.2041 20.4789V8.69624L15 2.80489Z" fill="url(#paint0_linear_425_1108)"/>
</g>
<g filter="url(#filter1_d_425_1108)">
<path fill-rule="evenodd" clip-rule="evenodd" d="M14.9998 11.9662C13.5522 11.9662 12.3786 13.1397 12.3786 14.5873C12.3786 16.0349 13.5522 17.2084 14.9998 17.2084C16.4474 17.2084 17.6209 16.0349 17.6209 14.5873C17.6209 13.1397 16.4474 11.9662 14.9998 11.9662ZM9.58276 14.5873C9.58276 11.5956 12.008 9.17029 14.9998 9.17029C17.9915 9.17029 20.4168 11.5956 20.4168 14.5873C20.4168 17.579 17.9915 20.0043 14.9998 20.0043C12.008 20.0043 9.58276 17.579 9.58276 14.5873Z" fill="url(#paint1_linear_425_1108)"/>
</g>
</g>
<defs>
<filter id="filter0_d_425_1108" x="-42" y="-11" width="92" height="95.1752" filterUnits="userSpaceOnUse" color-interpolation-filters="sRGB">
<feFlood flood-opacity="0" result="BackgroundImageFix"/>
<feColorMatrix in="SourceAlpha" type="matrix" values="0 0 0 0 0 0 0 0 0 0 0 0 0 0 0 0 0 0 127 0" result="hardAlpha"/>
<feOffset dx="-11" dy="22"/>
<feGaussianBlur stdDeviation="16.5"/>
<feComposite in2="hardAlpha" operator="out"/>
<feColorMatrix type="matrix" values="0 0 0 0 0.026875 0 0 0 0 0.0384375 0 0 0 0 0.05 0 0 0 0.13 0"/>
<feBlend mode="normal" in2="BackgroundImageFix" result="effect1_dropShadow_425_1108"/>
<feBlend mode="normal" in="SourceGraphic" in2="effect1_dropShadow_425_1108" result="shape"/>
</filter>
<filter id="filter1_d_425_1108" x="-34.4172" y="-1.82971" width="76.834" height="76.834" filterUnits="userSpaceOnUse" color-interpolation-filters="sRGB">
<feFlood flood-opacity="0" result="BackgroundImageFix"/>
<feColorMatrix in="SourceAlpha" type="matrix" values="0 0 0 0 0 0 0 0 0 0 0 0 0 0 0 0 0 0 127 0" result="hardAlpha"/>
<feOffset dx="-11" dy="22"/>
<feGaussianBlur stdDeviation="16.5"/>
<feComposite in2="hardAlpha" operator="out"/>
<feColorMatrix type="matrix" values="0 0 0 0 0.026875 0 0 0 0 0.0384375 0 0 0 0 0.05 0 0 0 0.13 0"/>
<feBlend mode="normal" in2="BackgroundImageFix" result="effect1_dropShadow_425_1108"/>
<feBlend mode="normal" in="SourceGraphic" in2="effect1_dropShadow_425_1108" result="shape"/>
</filter>
<linearGradient id="paint0_linear_425_1108" x1="2" y1="-7.65647" x2="33.9252" y2="6.15942" gradientUnits="userSpaceOnUse">
<stop stop-color="#8B99DC"/>
<stop offset="1" stop-color="#EDD1FE"/>
</linearGradient>
<linearGradient id="paint1_linear_425_1108" x1="9.58276" y1="6.32711" x2="22.3633" y2="12.5334" gradientUnits="userSpaceOnUse">
<stop stop-color="#8B99DC"/>
<stop offset="1" stop-color="#EDD1FE"/>
</linearGradient>
<clipPath id="clip0_425_1108">
<rect width="30" height="30" fill="white"/>
</clipPath>
</defs>
</svg>
