<svg width="12" height="14" viewBox="0 0 12 14" fill="none" xmlns="http://www.w3.org/2000/svg">
<g clip-path="url(#clip0_329_1165)">
<g filter="url(#filter0_d_329_1165)">
<path fill-rule="evenodd" clip-rule="evenodd" d="M5.36824 0.16928C5.75917 -0.0564261 6.24082 -0.0564269 6.63176 0.169279L6.30916 0.728041L6.63176 0.16928L11.3682 2.90389C11.7592 3.12959 12 3.54671 12 3.99813V9.46734C12 9.91875 11.7592 10.3359 11.3682 10.5616L6.63176 13.2962C6.24083 13.5219 5.75917 13.5219 5.36824 13.2962L0.631761 10.5616C0.240826 10.3359 0 9.91875 0 9.46734V3.99813C0 3.54672 0.240825 3.12959 0.63176 2.90389L5.36824 0.16928ZM6 1.29456L1.2904 4.01365V9.45182L6 12.1709L10.7096 9.45182V4.01365L6 1.29456Z" fill="#F9EFFF"/>
<path fill-rule="evenodd" clip-rule="evenodd" d="M5.99994 5.52295C5.33182 5.52295 4.79019 6.06457 4.79019 6.7327C4.79019 7.40083 5.33182 7.94246 5.99994 7.94246C6.66807 7.94246 7.2097 7.40083 7.2097 6.7327C7.2097 6.06457 6.66807 5.52295 5.99994 5.52295ZM3.49979 6.7327C3.49979 5.3519 4.61915 4.23254 5.99994 4.23254C7.38074 4.23254 8.5001 5.3519 8.5001 6.7327C8.5001 8.1135 7.38074 9.23286 5.99994 9.23286C4.61915 9.23286 3.49979 8.1135 3.49979 6.7327Z" fill="#F9EFFF"/>
</g>
</g>
<defs>
<filter id="filter0_d_329_1165" x="-4" y="0" width="20" height="21.4655" filterUnits="userSpaceOnUse" color-interpolation-filters="sRGB">
<feFlood flood-opacity="0" result="BackgroundImageFix"/>
<feColorMatrix in="SourceAlpha" type="matrix" values="0 0 0 0 0 0 0 0 0 0 0 0 0 0 0 0 0 0 127 0" result="hardAlpha"/>
<feOffset dy="4"/>
<feGaussianBlur stdDeviation="2"/>
<feComposite in2="hardAlpha" operator="out"/>
<feColorMatrix type="matrix" values="0 0 0 0 0 0 0 0 0 0 0 0 0 0 0 0 0 0 0.25 0"/>
<feBlend mode="normal" in2="BackgroundImageFix" result="effect1_dropShadow_329_1165"/>
<feBlend mode="normal" in="SourceGraphic" in2="effect1_dropShadow_329_1165" result="shape"/>
</filter>
<clipPath id="clip0_329_1165">
<rect width="12" height="14" fill="white"/>
</clipPath>
</defs>
</svg>
