<svg width="23" height="22" viewBox="0 0 23 22" fill="none" xmlns="http://www.w3.org/2000/svg">
<g clip-path="url(#clip0_528_1090)">
<g filter="url(#filter0_d_528_1090)">
<path fill-rule="evenodd" clip-rule="evenodd" d="M8 4C8 2.89543 8.89543 2 10 2C11.1046 2 12 2.89543 12 4C12 5.10457 11.1046 6 10 6C8.89543 6 8 5.10457 8 4ZM13.874 3C13.4299 1.27477 11.8638 0 10 0C7.79086 0 6 1.79086 6 4C6 6.20914 7.79086 8 10 8C11.8638 8 13.4299 6.72523 13.874 5H22C22.5523 5 23 4.55228 23 4C23 3.44772 22.5523 3 22 3H13.874ZM17 9C15.8954 9 15 9.89543 15 11C15 12.1046 15.8954 13 17 13C18.1046 13 19 12.1046 19 11C19 9.89543 18.1046 9 17 9ZM13 11C13 8.79086 14.7909 7 17 7C18.8666 7 20.4346 8.27853 20.8759 10.0076C20.9166 10.0026 20.958 10 21 10H22C22.5523 10 23 10.4477 23 11C23 11.5523 22.5523 12 22 12H21C20.958 12 20.9166 11.9974 20.8759 11.9924C20.4346 13.7215 18.8666 15 17 15C14.7909 15 13 13.2091 13 11ZM4 18C4 16.8954 4.89543 16 6 16C7.10457 16 8 16.8954 8 18C8 19.1046 7.10457 20 6 20C4.89543 20 4 19.1046 4 18ZM2.12602 19C2.57006 20.7252 4.13616 22 6 22C8.20914 22 10 20.2091 10 18C10 15.7909 8.20914 14 6 14C4.13616 14 2.57006 15.2748 2.12602 17H1C0.447715 17 0 17.4477 0 18C0 18.5523 0.447715 19 1 19H2.12602ZM13 18C13 17.4477 13.4477 17 14 17H22C22.5523 17 23 17.4477 23 18C23 18.5523 22.5523 19 22 19H14C13.4477 19 13 18.5523 13 18ZM1 10C0.447715 10 0 10.4477 0 11C0 11.5523 0.447715 12 1 12H9C9.55229 12 10 11.5523 10 11C10 10.4477 9.55229 10 9 10H1ZM0 4C0 3.44772 0.447715 3 1 3H2C2.55228 3 3 3.44772 3 4C3 4.55228 2.55228 5 2 5H1C0.447715 5 0 4.55228 0 4Z" fill="url(#paint0_linear_528_1090)"/>
</g>
</g>
<defs>
<filter id="filter0_d_528_1090" x="-44" y="-11" width="89" height="88" filterUnits="userSpaceOnUse" color-interpolation-filters="sRGB">
<feFlood flood-opacity="0" result="BackgroundImageFix"/>
<feColorMatrix in="SourceAlpha" type="matrix" values="0 0 0 0 0 0 0 0 0 0 0 0 0 0 0 0 0 0 127 0" result="hardAlpha"/>
<feOffset dx="-11" dy="22"/>
<feGaussianBlur stdDeviation="16.5"/>
<feComposite in2="hardAlpha" operator="out"/>
<feColorMatrix type="matrix" values="0 0 0 0 0.026875 0 0 0 0 0.0384375 0 0 0 0 0.05 0 0 0 0.13 0"/>
<feBlend mode="normal" in2="BackgroundImageFix" result="effect1_dropShadow_528_1090"/>
<feBlend mode="normal" in="SourceGraphic" in2="effect1_dropShadow_528_1090" result="shape"/>
</filter>
<linearGradient id="paint0_linear_528_1090" x1="8.02096e-07" y1="-5.77348" x2="26.6594" y2="7.76098" gradientUnits="userSpaceOnUse">
<stop stop-color="#8B99DC"/>
<stop offset="1" stop-color="#EDD1FE"/>
</linearGradient>
<clipPath id="clip0_528_1090">
<rect width="23" height="22" fill="white"/>
</clipPath>
</defs>
</svg>
