<svg width="18" height="18" viewBox="0 0 18 18" fill="none" xmlns="http://www.w3.org/2000/svg">
<g clip-path="url(#clip0_172_4055)">
<path d="M11 15L18 15" stroke="white" stroke-linecap="round" stroke-linejoin="round"/>
<path d="M0 15H2" stroke="white" stroke-linecap="round" stroke-linejoin="round"/>
<path d="M4.5 17.5C5.88071 17.5 7 16.3807 7 15C7 13.6193 5.88071 12.5 4.5 12.5C3.11929 12.5 2 13.6193 2 15C2 16.3807 3.11929 17.5 4.5 17.5Z" stroke="white" stroke-linecap="round" stroke-linejoin="round"/>
<path d="M17 9H18" stroke="white" stroke-linecap="round" stroke-linejoin="round"/>
<path d="M0 9H7" stroke="white" stroke-linecap="round" stroke-linejoin="round"/>
<path d="M13.5 11.5C14.8807 11.5 16 10.3807 16 9C16 7.61929 14.8807 6.5 13.5 6.5C12.1193 6.5 11 7.61929 11 9C11 10.3807 12.1193 11.5 13.5 11.5Z" stroke="white" stroke-linecap="round" stroke-linejoin="round"/>
<path d="M10 3H18" stroke="white" stroke-linecap="round" stroke-linejoin="round"/>
<path d="M0 3H1" stroke="white" stroke-linecap="round" stroke-linejoin="round"/>
<path d="M7.5 5.5C8.88071 5.5 10 4.38071 10 3C10 1.61929 8.88071 0.5 7.5 0.5C6.11929 0.5 5 1.61929 5 3C5 4.38071 6.11929 5.5 7.5 5.5Z" stroke="white" stroke-linecap="round" stroke-linejoin="round"/>
</g>
<defs>
<clipPath id="clip0_172_4055">
<rect width="18" height="17" fill="white" transform="translate(0 0.5)"/>
</clipPath>
</defs>
</svg>
