<svg width="24" height="22" viewBox="0 0 24 22" fill="none" xmlns="http://www.w3.org/2000/svg">
<g filter="url(#filter0_d_2_887)">
<path fill-rule="evenodd" clip-rule="evenodd" d="M9.84007 1.01948C10.6047 -0.339826 12.5618 -0.339826 13.3264 1.01948L18.9067 10.94C19.6566 12.2732 18.6932 13.9205 17.1635 13.9205H6.00291C4.47326 13.9205 3.50983 12.2732 4.25976 10.94L9.84007 1.01948ZM12.5831 10.9207C12.5831 11.4729 12.1354 11.9207 11.5831 11.9207C11.0308 11.9207 10.5831 11.4729 10.5831 10.9207C10.5831 10.3684 11.0308 9.92065 11.5831 9.92065C12.1354 9.92065 12.5831 10.3684 12.5831 10.9207ZM11.5831 2.92065C11.0308 2.92065 10.5831 3.36837 10.5831 3.92065V6.92065C10.5831 7.47294 11.0308 7.92065 11.5831 7.92065C12.1354 7.92065 12.5831 7.47294 12.5831 6.92065V3.92065C12.5831 3.36837 12.1354 2.92065 11.5831 2.92065Z" fill="url(#paint0_linear_2_887)"/>
</g>
<defs>
<filter id="filter0_d_2_887" x="0" y="0" width="23.1665" height="21.9207" filterUnits="userSpaceOnUse" color-interpolation-filters="sRGB">
<feFlood flood-opacity="0" result="BackgroundImageFix"/>
<feColorMatrix in="SourceAlpha" type="matrix" values="0 0 0 0 0 0 0 0 0 0 0 0 0 0 0 0 0 0 127 0" result="hardAlpha"/>
<feOffset dy="4"/>
<feGaussianBlur stdDeviation="2"/>
<feComposite in2="hardAlpha" operator="out"/>
<feColorMatrix type="matrix" values="0 0 0 0 0 0 0 0 0 0 0 0 0 0 0 0 0 0 0.25 0"/>
<feBlend mode="normal" in2="BackgroundImageFix" result="effect1_dropShadow_2_887"/>
<feBlend mode="normal" in="SourceGraphic" in2="effect1_dropShadow_2_887" result="shape"/>
</filter>
<linearGradient id="paint0_linear_2_887" x1="-163" y1="-84.5" x2="-182.253" y2="-16.1662" gradientUnits="userSpaceOnUse">
<stop stop-color="#CB56FF"/>
<stop offset="1" stop-color="#4EB2F4"/>
</linearGradient>
</defs>
</svg>
