<svg width="14" height="14" viewBox="0 0 14 14" fill="none" xmlns="http://www.w3.org/2000/svg">
<path d="M9 3.66667C9.73638 3.66667 10.3333 4.26362 10.3333 5M13 5C13 7.20914 11.2091 9 9 9C8.59589 9 8.20577 8.94007 7.83805 8.82862L6.33333 10.3333H5V11.6667H3.66667V13H1.66667C1.29848 13 1 12.7015 1 12.3333V10.6095C1 10.4327 1.07024 10.2631 1.19526 10.1381L5.17138 6.16195C5.05993 5.79423 5 5.40412 5 5C5 2.79086 6.79086 1 9 1C11.2091 1 13 2.79086 13 5Z" stroke="white" stroke-linecap="round" stroke-linejoin="round"/>
</svg>
