<svg width="64" height="55" viewBox="0 0 64 55" fill="none" xmlns="http://www.w3.org/2000/svg">
<g filter="url(#filter0_d_47_425)">
<rect x="4.5" y="0.5" width="55" height="46" rx="2.5" fill="black" fill-opacity="0.21" stroke="url(#paint0_linear_47_425)"/>
<g opacity="0.4">
<path d="M22.035 19.0059C22.035 19.5726 21.5808 20.0296 21.0175 20.0296C20.4542 20.0296 20 19.5726 20 19.0059C20 18.4575 20.4542 18.0005 21.0175 18.0005C21.5808 17.9822 22.035 18.4575 22.035 19.0059ZM21.8715 20.8157V26.6472H20.1999V20.8157H21.8715Z" fill="white"/>
<path d="M28.6482 23.3567V26.6655H26.9766V23.6309C26.9766 22.8266 26.5405 22.3513 25.8501 22.3513C25.3958 22.3513 24.9234 22.6072 24.6872 23.0094V26.6289H23.0156V20.8157H24.6872V21.5104C25.0143 21.0168 25.6139 20.7061 26.268 20.7061C27.7579 20.7061 28.6482 21.7115 28.6482 23.3567Z" fill="white"/>
<path d="M31.8466 20.8157H33.282V22.4061H31.8466V26.6472H30.175V22.4061H29.103V20.8157H30.175V20.3953C30.175 18.878 31.138 18.0188 32.4826 18.0188C32.7915 18.0188 33.1185 18.0919 33.3366 18.2016L33.2457 19.6823C33.1367 19.6458 32.8823 19.5909 32.7188 19.5909C32.2282 19.5909 31.8285 19.9565 31.8285 20.4867V20.8157H31.8466Z" fill="white"/>
<path d="M37.9155 20.8157L37.8247 22.3879C37.6066 22.2965 37.3159 22.2599 37.0797 22.2599C36.6981 22.2599 36.0985 22.5707 35.8078 23.1374V26.6655H34.1362V20.8157H35.8078V21.5104C36.0985 21.0168 36.7163 20.7061 37.2069 20.7061C37.4976 20.7061 37.7338 20.7426 37.9155 20.8157Z" fill="white"/>
<path d="M44.1293 20.816V26.6474H42.4577V25.9528C42.167 26.4281 41.4765 26.7571 40.7498 26.7571C39.2417 26.7571 38.0425 25.4043 38.0425 23.7225C38.0425 22.0407 39.2417 20.688 40.7498 20.688C41.4765 20.688 42.1852 21.017 42.4577 21.4923V20.7977H44.1293V20.816ZM42.4577 24.4538V23.0279C42.2033 22.6074 41.6946 22.2784 41.1131 22.2784C40.2955 22.2784 39.6777 22.8999 39.6777 23.7225C39.6777 24.5452 40.2955 25.1667 41.1131 25.1667C41.6946 25.185 42.2033 24.8742 42.4577 24.4538Z" fill="white"/>
</g>
</g>
<defs>
<filter id="filter0_d_47_425" x="0" y="0" width="64" height="55" filterUnits="userSpaceOnUse" color-interpolation-filters="sRGB">
<feFlood flood-opacity="0" result="BackgroundImageFix"/>
<feColorMatrix in="SourceAlpha" type="matrix" values="0 0 0 0 0 0 0 0 0 0 0 0 0 0 0 0 0 0 127 0" result="hardAlpha"/>
<feOffset dy="4"/>
<feGaussianBlur stdDeviation="2"/>
<feComposite in2="hardAlpha" operator="out"/>
<feColorMatrix type="matrix" values="0 0 0 0 0 0 0 0 0 0 0 0 0 0 0 0 0 0 0.25 0"/>
<feBlend mode="normal" in2="BackgroundImageFix" result="effect1_dropShadow_47_425"/>
<feBlend mode="normal" in="SourceGraphic" in2="effect1_dropShadow_47_425" result="shape"/>
</filter>
<linearGradient id="paint0_linear_47_425" x1="48.7018" y1="47" x2="22.3473" y2="2.82827" gradientUnits="userSpaceOnUse">
<stop offset="0.0625" stop-color="#2F2F2F"/>
<stop offset="0.671875" stop-color="#2F2F2F"/>
<stop offset="1" stop-color="white" stop-opacity="0.38"/>
</linearGradient>
</defs>
</svg>
