<svg width="24" height="24" viewBox="0 0 24 24" fill="none" xmlns="http://www.w3.org/2000/svg">
<path d="M10 9C10.5523 9 11 8.55228 11 8C11 7.44772 10.5523 7 10 7V9ZM5 8H4C4 8.55228 4.44772 9 5 9V8ZM6 3C6 2.44772 5.55228 2 5 2C4.44772 2 4 2.44772 4 3H6ZM10 7H5V9H10V7ZM6 8V3H4V8H6Z" fill="#E440FF"/>
<path d="M5.29053 16.3571C6.22236 17.792 7.58966 18.8904 9.19169 19.4909C10.7937 20.0915 12.5461 20.1627 14.1916 19.6939C15.837 19.2252 17.2889 18.2413 18.3339 16.8867C19.379 15.5321 19.9623 13.8781 19.9981 12.1675C20.034 10.457 19.5205 8.78004 18.533 7.38284C17.5456 5.98564 16.1362 4.94181 14.5118 4.4046C12.8874 3.86738 11.1336 3.86509 9.50784 4.39805C7.88206 4.93101 6.46997 5.97114 5.47887 7.36575" stroke="#E440FF" stroke-width="2" stroke-linecap="round" stroke-linejoin="round"/>
</svg>
