<svg xmlns="http://www.w3.org/2000/svg" width="90" height="19" fill="none" xmlns:v="https://vecta.io/nano"><path d="M32.867 9.036l-.881-.005a1.83 1.83 0 0 0-.27-.669 1.82 1.82 0 0 0-.466-.485 1.99 1.99 0 0 0-.606-.302c-.222-.067-.454-.102-.696-.103-.44-.002-.84.107-1.198.327s-.641.547-.854.979-.318.963-.321 1.593.098 1.162.304 1.596.489.764.843.988.755.338 1.195.34c.242.001.474-.031.697-.096s.426-.162.609-.292a1.87 1.87 0 0 0 .471-.484c.131-.193.223-.415.277-.666l.881.005c-.068.371-.191.703-.367.996s-.396.541-.657.746a2.86 2.86 0 0 1-.88.46 3.27 3.27 0 0 1-1.034.154c-.62-.003-1.171-.158-1.652-.463s-.859-.738-1.133-1.299-.409-1.224-.405-1.991.146-1.429.426-1.986.662-.986 1.147-1.287 1.037-.449 1.657-.446a3.27 3.27 0 0 1 1.032.165 2.82 2.82 0 0 1 .875.473 2.68 2.68 0 0 1 .649.749c.174.292.293.625.357 1zm7.552 1.404c-.004.767-.146 1.429-.426 1.986s-.662.986-1.147 1.287-1.037.449-1.657.446-1.171-.158-1.652-.463-.859-.738-1.133-1.299-.409-1.224-.405-1.991.146-1.429.426-1.986.662-.986 1.147-1.287 1.037-.449 1.657-.446 1.171.158 1.652.463.859.738 1.133 1.299.409 1.224.405 1.991zm-.852-.005c.003-.63-.099-1.162-.308-1.596s-.487-.764-.843-.988a2.2 2.2 0 0 0-1.191-.34 2.22 2.22 0 0 0-1.199.327c-.356.221-.641.547-.854.979s-.318.963-.321 1.593.098 1.162.304 1.596.49.764.843.988a2.22 2.22 0 0 0 1.195.34 2.2 2.2 0 0 0 1.195-.327c.359-.221.643-.547.854-.979s.321-.963.325-1.593zm8.119-3.593l-.038 7.273-.852-.004-3.933-5.731h-.071l-.03 5.71-.881-.005.039-7.273.852.005 3.947 5.745h.071l.03-5.724.866.005zm7.529.04l-.038 7.273-.852-.005-3.933-5.731h-.071l-.03 5.71-.881-.005.038-7.273.852.005 3.947 5.745h.071l.03-5.724.867.005zm1.724 7.282l.038-7.273 4.389.023-.004.781-3.508-.019-.013 2.457 3.281.017-.004.781-3.281-.017-.013 2.472 3.565.019-.004.781-4.446-.024zm11.855-4.937l-.881-.005a1.83 1.83 0 0 0-.27-.669 1.82 1.82 0 0 0-.466-.485 1.99 1.99 0 0 0-.606-.302c-.222-.067-.454-.102-.695-.103-.44-.002-.84.107-1.198.327s-.641.547-.854.979-.318.963-.321 1.593.098 1.162.304 1.596.49.764.843.988.755.338 1.195.34c.242.001.474-.031.697-.096s.426-.162.609-.292.342-.293.471-.484a1.87 1.87 0 0 0 .277-.666l.881.005a2.93 2.93 0 0 1-.368.996c-.177.293-.396.541-.657.746a2.86 2.86 0 0 1-.88.461 3.27 3.27 0 0 1-1.034.154c-.62-.003-1.171-.158-1.652-.463s-.859-.738-1.133-1.299-.409-1.224-.405-1.991.146-1.429.426-1.986.662-.986 1.147-1.287 1.037-.449 1.657-.446a3.27 3.27 0 0 1 1.033.165 2.82 2.82 0 0 1 .875.473 2.68 2.68 0 0 1 .649.749c.174.292.293.625.357 1zm1.033-1.486l.004-.781 5.455.029-.004.781-2.287-.012-.034 6.491-.881-.005.034-6.491-2.287-.012zm6.779 6.528l.038-7.273 4.389.023-.004.781-3.508-.019-.013 2.457 3.281.017-.004.781-3.281-.017-.013 2.472 3.565.019-.004.781-4.446-.024zm8.221.043l-2.244-.012.038-7.273 2.344.012c.706.004 1.308.153 1.809.446a2.86 2.86 0 0 1 1.148 1.253c.265.541.395 1.188.391 1.941s-.142 1.409-.415 1.955-.668.96-1.186 1.251-1.146.431-1.884.427zm-1.359-.789l1.307.007c.601.003 1.1-.11 1.497-.34s.693-.559.889-.986.296-.937.299-1.529-.09-1.093-.28-1.518a2.12 2.12 0 0 0-.854-.985c-.38-.232-.854-.349-1.422-.352l-1.406-.007-.03 5.71z" fill="#76e8b1"/><g transform="rotate(0.303 .096 .486)" opacity=".2"><rect x=".096" y=".486" width="18" height="18" rx="9" fill="#434343"/><rect x=".096" y=".486" width="18" height="18" rx="9" fill="#61c454"/></g><g transform="rotate(0.303 4.096 4.508)"><rect x="4.096" y="4.508" width="10" height="10" rx="5" fill="#434343"/><rect x="4.096" y="4.508" width="10" height="10" rx="5" fill="#61c454"/></g></svg>