<svg width="24" height="42" viewBox="0 0 24 42" fill="none" xmlns="http://www.w3.org/2000/svg">
<path fill-rule="evenodd" clip-rule="evenodd" d="M4.94994 4.83707C6.81783 3.02178 9.35361 2 12 2C14.6464 2 17.1822 3.02178 19.0501 4.83707C20.9176 6.652 21.9647 9.11121 21.9647 11.6731C21.9647 16.112 19.4146 20.1496 16.7269 23.1534C15.396 24.6409 14.0623 25.84 13.0611 26.6671C12.6382 27.0165 12.2759 27.2984 12 27.5064C11.7241 27.2984 11.3618 27.0165 10.9389 26.6671C9.93768 25.84 8.60405 24.6409 7.27311 23.1534C4.58545 20.1496 2.03534 16.112 2.03534 11.6731C2.03534 9.11121 3.08242 6.652 4.94994 4.83707ZM11.4201 29.5718C11.4205 29.572 11.4207 29.5722 12 28.75C12.5793 29.5722 12.5796 29.572 12.5799 29.5718C12.2314 29.8088 11.7686 29.8088 11.4201 29.5718ZM11.4201 29.5718L12 28.75L12.5799 29.5718L12.5833 29.5695L12.5912 29.564L12.6188 29.5449C12.6423 29.5286 12.676 29.5051 12.7191 29.4745C12.8052 29.4134 12.9292 29.3241 13.0856 29.208C13.3983 28.9757 13.8411 28.6356 14.3709 28.198C15.4289 27.324 16.8408 26.055 18.2555 24.474C21.059 21.3408 24 16.8399 24 11.6731C24 8.5736 22.733 5.60332 20.4813 3.41507C18.23 1.22718 15.179 0 12 0C8.82102 0 5.76999 1.22718 3.51871 3.41507C1.26705 5.60332 0 8.5736 0 11.6731C0 16.8399 2.94106 21.3408 5.74457 24.474C7.15922 26.055 8.57117 27.324 9.62916 28.198C10.1589 28.6356 10.6018 28.9757 10.9145 29.208C11.0709 29.3241 11.1948 29.4134 11.281 29.4745C11.324 29.5051 11.3577 29.5286 11.3812 29.5449L11.4088 29.564L11.4168 29.5695L11.4201 29.5718ZM9.87991 10.25C9.87991 9.09937 10.8291 8.16663 12.0001 8.16663C13.171 8.16663 14.1202 9.09937 14.1202 10.25C14.1202 11.4006 13.171 12.3333 12.0001 12.3333C10.8291 12.3333 9.87991 11.4006 9.87991 10.25ZM12.0001 6.16663C9.70504 6.16663 7.84457 7.9948 7.84457 10.25C7.84457 12.5051 9.70504 14.3333 12.0001 14.3333C14.2951 14.3333 16.1555 12.5051 16.1555 10.25C16.1555 7.9948 14.2951 6.16663 12.0001 6.16663Z" fill="url(#paint0_linear_48_3)"/>
<path fill-rule="evenodd" clip-rule="evenodd" d="M7.07067 32C4.2868 32 2 34.2221 2 37C2 39.7779 4.2868 42 7.07067 42H9.10601C9.6583 42 10.106 41.5523 10.106 41C10.106 40.4477 9.6583 40 9.10601 40H7.07067C5.3582 40 4 38.6404 4 37C4 35.3596 5.3582 34 7.07067 34H9.10601C9.6583 34 10.106 33.5523 10.106 33C10.106 32.4477 9.6583 32 9.10601 32H7.07067ZM14.212 33C14.212 32.4477 14.6597 32 15.212 32H17.2474C20.0312 32 22.318 34.2221 22.318 37C22.318 39.7779 20.0312 42 17.2474 42H15.212C14.6597 42 14.212 41.5523 14.212 41C14.212 40.4477 14.6597 40 15.212 40H17.2474C18.9598 40 20.318 38.6404 20.318 37C20.318 35.3596 18.9598 34 17.2474 34H15.212C14.6597 34 14.212 33.5523 14.212 33ZM7.08834 37C7.08834 36.4477 7.53606 36 8.08834 36H16.2297C16.782 36 17.2297 36.4477 17.2297 37C17.2297 37.5523 16.782 38 16.2297 38H8.08834C7.53606 38 7.08834 37.5523 7.08834 37Z" fill="url(#paint1_linear_48_3)"/>
<defs>
<linearGradient id="paint0_linear_48_3" x1="8.17887e-07" y1="-7.80721" x2="30.3331" y2="4.07601" gradientUnits="userSpaceOnUse">
<stop stop-color="#8B99DC"/>
<stop offset="1" stop-color="#EDD1FE"/>
</linearGradient>
<linearGradient id="paint1_linear_48_3" x1="2" y1="29.3757" x2="17.0092" y2="44.1847" gradientUnits="userSpaceOnUse">
<stop stop-color="#8B99DC"/>
<stop offset="1" stop-color="#EDD1FE"/>
</linearGradient>
</defs>
</svg>
