<svg width="28" height="28" viewBox="0 0 28 28" fill="none" xmlns="http://www.w3.org/2000/svg">
<g clip-path="url(#clip0_607_1219)">
<g filter="url(#filter0_d_607_1219)">
<path fill-rule="evenodd" clip-rule="evenodd" d="M9.66667 0C10.219 0 10.6667 0.447715 10.6667 1V2.88889H17.3333V1C17.3333 0.447715 17.781 0 18.3333 0C18.8856 0 19.3333 0.447715 19.3333 1V2.88889H21.2222C23.37 2.88889 25.1111 4.63 25.1111 6.77778V8.66667H27C27.5523 8.66667 28 9.11438 28 9.66667C28 10.219 27.5523 10.6667 27 10.6667H25.1111V17.3333H27C27.5523 17.3333 28 17.781 28 18.3333C28 18.8856 27.5523 19.3333 27 19.3333H25.1111V21.2222C25.1111 23.37 23.37 25.1111 21.2222 25.1111H19.3333V27C19.3333 27.5523 18.8856 28 18.3333 28C17.781 28 17.3333 27.5523 17.3333 27V25.1111H10.6667V27C10.6667 27.5523 10.219 28 9.66667 28C9.11438 28 8.66667 27.5523 8.66667 27V25.1111H6.77778C4.63 25.1111 2.88889 23.37 2.88889 21.2222V19.3333H1C0.447715 19.3333 0 18.8856 0 18.3333C0 17.781 0.447715 17.3333 1 17.3333H2.88889V10.6667H1C0.447715 10.6667 0 10.219 0 9.66667C0 9.11438 0.447715 8.66667 1 8.66667H2.88889V6.77778C2.88889 4.63 4.63 2.88889 6.77778 2.88889H8.66667V1C8.66667 0.447715 9.11438 0 9.66667 0ZM6.77778 4.88889C5.73457 4.88889 4.88889 5.73457 4.88889 6.77778V21.2222C4.88889 22.2654 5.73457 23.1111 6.77778 23.1111H21.2222C22.2654 23.1111 23.1111 22.2654 23.1111 21.2222V6.77778C23.1111 5.73457 22.2654 4.88889 21.2222 4.88889H6.77778ZM8.66667 9.66667C8.66667 9.11438 9.11438 8.66667 9.66667 8.66667H18.3333C18.8856 8.66667 19.3333 9.11438 19.3333 9.66667V18.3333C19.3333 18.8856 18.8856 19.3333 18.3333 19.3333H9.66667C9.11438 19.3333 8.66667 18.8856 8.66667 18.3333V9.66667ZM10.6667 10.6667V17.3333H17.3333V10.6667H10.6667Z" fill="url(#paint0_linear_607_1219)"/>
</g>
</g>
<defs>
<filter id="filter0_d_607_1219" x="-44" y="-11" width="94" height="94" filterUnits="userSpaceOnUse" color-interpolation-filters="sRGB">
<feFlood flood-opacity="0" result="BackgroundImageFix"/>
<feColorMatrix in="SourceAlpha" type="matrix" values="0 0 0 0 0 0 0 0 0 0 0 0 0 0 0 0 0 0 127 0" result="hardAlpha"/>
<feOffset dx="-11" dy="22"/>
<feGaussianBlur stdDeviation="16.5"/>
<feComposite in2="hardAlpha" operator="out"/>
<feColorMatrix type="matrix" values="0 0 0 0 0.026875 0 0 0 0 0.0384375 0 0 0 0 0.05 0 0 0 0.13 0"/>
<feBlend mode="normal" in2="BackgroundImageFix" result="effect1_dropShadow_607_1219"/>
<feBlend mode="normal" in="SourceGraphic" in2="effect1_dropShadow_607_1219" result="shape"/>
</filter>
<linearGradient id="paint0_linear_607_1219" x1="9.76465e-07" y1="-7.34807" x2="33.0307" y2="8.6919" gradientUnits="userSpaceOnUse">
<stop stop-color="#8B99DC"/>
<stop offset="1" stop-color="#EDD1FE"/>
</linearGradient>
<clipPath id="clip0_607_1219">
<rect width="28" height="28" fill="white"/>
</clipPath>
</defs>
</svg>
