<svg width="16" height="16" viewBox="0 0 16 16" fill="none" xmlns="http://www.w3.org/2000/svg">
<path d="M5.66667 1V2.55556M10.3333 1V2.55556M5.66667 13.4444V15M10.3333 13.4444V15M2.55556 5.66667H1M2.55556 10.3333H1M15 5.66667H13.4444M15 10.3333H13.4444M4.11111 13.4444H11.8889C12.748 13.4444 13.4444 12.748 13.4444 11.8889V4.11111C13.4444 3.252 12.748 2.55556 11.8889 2.55556H4.11111C3.252 2.55556 2.55556 3.252 2.55556 4.11111V11.8889C2.55556 12.748 3.252 13.4444 4.11111 13.4444ZM5.66667 5.66667H10.3333V10.3333H5.66667V5.66667Z" stroke="#F4E2FF" stroke-linecap="round"/>
</svg>
