<svg width="20" height="19" viewBox="0 0 20 19" fill="none" xmlns="http://www.w3.org/2000/svg">
<path d="M9.99938 18.4212L13.6839 7.08777H6.32019L9.99938 18.4212Z" fill="#E24329"/>
<path d="M1.1594 7.08777L0.0373811 10.531C-0.0641521 10.8437 0.0454964 11.1888 0.313487 11.3837L9.99936 18.4212L1.1594 7.08777Z" fill="#FCA326"/>
<path d="M1.15942 7.08749H6.3202L4.09915 0.261904C3.98547 -0.0873013 3.49007 -0.0873013 3.3723 0.261904L1.15942 7.08749Z" fill="#E24329"/>
<path d="M18.8446 7.08777L19.9626 10.531C20.0641 10.8437 19.9545 11.1888 19.6865 11.3837L9.99933 18.4212L18.8446 7.08777Z" fill="#FCA326"/>
<path d="M18.8447 7.08749H13.6839L15.9009 0.261904C16.0145 -0.0873013 16.5099 -0.0873013 16.6277 0.261904L18.8447 7.08749Z" fill="#E24329"/>
<path d="M9.99933 18.4212L13.6838 7.08777H18.8446L9.99933 18.4212Z" fill="#FC6D26"/>
<path d="M9.99938 18.4212L1.15942 7.08777H6.3202L9.99938 18.4212Z" fill="#FC6D26"/>
</svg>
