<svg width="44" height="32" viewBox="0 0 44 32" fill="none" xmlns="http://www.w3.org/2000/svg">
<path fill-rule="evenodd" clip-rule="evenodd" d="M13.9553 0.127269C14.2978 -0.0424231 14.7022 -0.0424231 15.0447 0.127269L18.3677 1.77336C18.9633 2.06845 19.2023 2.78131 18.9015 3.36558C18.6006 3.94985 17.8739 4.18428 17.2782 3.88919L14.5 2.51295L11.7218 3.88919C11.1261 4.18428 10.3994 3.94985 10.0985 3.36558C9.79766 2.78131 10.0367 2.06845 10.6323 1.77336L13.9553 0.127269ZM5.60983 5.58916C5.91068 6.17343 5.67167 6.88629 5.07599 7.18137L3.88866 7.76955L5.07599 8.35772C5.67167 8.65281 5.91068 9.36567 5.60983 9.94994C5.30898 10.5342 4.5822 10.7686 3.98651 10.4736L2.41667 9.69589V11.8848C2.41667 12.5393 1.87568 13.07 1.20833 13.07C0.540989 13.07 0 12.5393 0 11.8848V7.76955C0 7.32235 0.256628 6.91323 0.663597 6.71163L3.98651 5.06554C4.5822 4.77045 5.30898 5.00489 5.60983 5.58916ZM10.0985 12.1735C10.3994 11.5892 11.1261 11.3548 11.7218 11.6499L14.5 13.0261L15.3767 12.5025C15.9724 12.2074 16.6992 12.4419 17 13.0261C17.3008 13.6104 17.0618 14.3233 16.4662 14.6184L15.7083 15.0831V18.4691C15.7083 19.1237 15.1673 19.6543 14.5 19.6543C13.8327 19.6543 13.2917 19.1237 13.2917 18.4691V15.0831L10.6323 13.7657C10.0367 13.4706 9.79766 12.7578 10.0985 12.1735ZM1.20833 18.93C1.87568 18.93 2.41667 19.4607 2.41667 20.1152V23.5013L5.07599 24.8186C5.67167 25.1137 5.91068 25.8266 5.60983 26.4108C5.30898 26.9951 4.5822 27.2295 3.98651 26.9345L0.663597 25.2884C0.256628 25.0868 0 24.6776 0 24.2305V20.1152C0 19.4607 0.540989 18.93 1.20833 18.93ZM14.5 25.5144C15.1673 25.5144 15.7083 26.045 15.7083 26.6996V28.8885L17.2782 28.1108C17.8739 27.8157 18.6006 28.0502 18.9015 28.6344C19.2023 29.2187 18.9633 29.9316 18.3677 30.2266L15.0447 31.8727C14.7022 32.0424 14.2978 32.0424 13.9553 31.8727L10.6323 30.2266C10.0367 29.9316 9.79766 29.2187 10.0985 28.6344C10.3994 28.0502 11.1261 27.8157 11.7218 28.1108L13.2917 28.8885V26.6996C13.2917 26.045 13.8327 25.5144 14.5 25.5144Z" fill="url(#paint0_linear_50_4)"/>
<path fill-rule="evenodd" clip-rule="evenodd" d="M24.864 6.83707C26.6995 5.02178 29.1912 4 31.7917 4C34.3921 4 36.8839 5.02178 38.7193 6.83707C40.5544 8.652 41.5833 11.1112 41.5833 13.6731C41.5833 18.112 39.0775 22.1496 36.4365 25.1534C35.1287 26.6409 33.8182 27.84 32.8344 28.6671C32.4188 29.0165 32.0628 29.2984 31.7917 29.5064C31.5206 29.2984 31.1646 29.0165 30.749 28.6671C29.7651 27.84 28.4547 26.6409 27.1468 25.1534C24.5058 22.1496 22 18.112 22 13.6731C22 11.1112 23.0289 8.652 24.864 6.83707ZM31.2219 31.5718C31.2222 31.572 31.2225 31.5722 31.7917 30.75C32.3609 31.5722 32.3612 31.572 32.3615 31.5718C32.019 31.8088 31.5643 31.8088 31.2219 31.5718ZM31.2219 31.5718L31.7917 30.75L32.3615 31.5718L32.3648 31.5695L32.3726 31.564L32.3997 31.5449C32.4228 31.5286 32.4559 31.5051 32.4982 31.4745C32.5829 31.4134 32.7047 31.3241 32.8584 31.208C33.1656 30.9757 33.6008 30.6356 34.1214 30.198C35.161 29.324 36.5484 28.055 37.9385 26.474C40.6933 23.3408 43.5833 18.8399 43.5833 13.6731C43.5833 10.5736 42.3383 7.60332 40.1257 5.41507C37.9135 3.22718 34.9155 2 31.7917 2C28.6679 2 25.6698 3.22718 23.4576 5.41507C21.245 7.60332 20 10.5736 20 13.6731C20 18.8399 22.89 23.3408 25.6448 26.474C27.0349 28.055 28.4224 29.324 29.462 30.198C29.9825 30.6356 30.4177 30.9757 30.725 31.208C30.8786 31.3241 31.0005 31.4134 31.0851 31.4745C31.1274 31.5051 31.1605 31.5286 31.1836 31.5449L31.2107 31.564L31.2185 31.5695L31.2219 31.5718ZM29.7084 12.25C29.7084 11.0994 30.6411 10.1666 31.7917 10.1666C32.9423 10.1666 33.875 11.0994 33.875 12.25C33.875 13.4006 32.9423 14.3333 31.7917 14.3333C30.6411 14.3333 29.7084 13.4006 29.7084 12.25ZM31.7917 8.16663C29.5365 8.16663 27.7084 9.9948 27.7084 12.25C27.7084 14.5051 29.5365 16.3333 31.7917 16.3333C34.0469 16.3333 35.875 14.5051 35.875 12.25C35.875 9.9948 34.0469 8.16663 31.7917 8.16663Z" fill="url(#paint1_linear_50_4)"/>
<defs>
<linearGradient id="paint0_linear_50_4" x1="1.01134e-06" y1="-8.39779" x2="35.4181" y2="7.18911" gradientUnits="userSpaceOnUse">
<stop stop-color="#8B99DC"/>
<stop offset="1" stop-color="#EDD1FE"/>
</linearGradient>
<linearGradient id="paint1_linear_50_4" x1="20" y1="-5.80721" x2="49.9436" y2="5.71974" gradientUnits="userSpaceOnUse">
<stop stop-color="#8B99DC"/>
<stop offset="1" stop-color="#EDD1FE"/>
</linearGradient>
</defs>
</svg>
