<svg width="16" height="13" viewBox="0 0 16 13" fill="none" xmlns="http://www.w3.org/2000/svg">
<path d="M11.5 12H15V10.625C15 10.1964 14.864 9.77839 14.6109 9.42918C14.3578 9.07997 14.0003 8.81687 13.5879 8.67645C13.1756 8.53604 12.7289 8.52529 12.3101 8.6457C11.8912 8.76611 11.521 9.01169 11.2508 9.34831L11.5 12ZM11.5 12H4.5H11.5ZM11.5 12V10.625C11.5 10.174 11.4118 9.74294 11.2508 9.34831L11.5 12ZM4.5 12H1V10.625C1.00003 10.1964 1.13603 9.77839 1.3891 9.42918C1.64217 9.07997 1.99973 8.81687 2.41208 8.67645C2.82442 8.53604 3.27106 8.52529 3.68992 8.6457C4.10877 8.76611 4.47902 9.01169 4.7492 9.34831L4.5 12ZM4.5 12V10.625C4.5 10.174 4.5882 9.74294 4.7492 9.34831L4.5 12ZM4.7492 9.34831C5.00915 8.71028 5.45777 8.16338 6.0372 7.77815C6.61663 7.39291 7.30029 7.18702 8 7.18702C8.69971 7.18702 9.38337 7.39291 9.9628 7.77815C10.5422 8.16338 10.9909 8.71028 11.2508 9.34831H4.7492ZM10.1 3.0625C10.1 3.60951 9.87875 4.13411 9.48492 4.52091C9.0911 4.9077 8.55695 5.125 8 5.125C7.44305 5.125 6.9089 4.9077 6.51508 4.52091C6.12125 4.13411 5.9 3.60951 5.9 3.0625C5.9 2.51549 6.12125 1.99089 6.51508 1.60409C6.9089 1.2173 7.44305 1 8 1C8.55695 1 9.0911 1.2173 9.48492 1.60409C9.87875 1.99089 10.1 2.51549 10.1 3.0625V3.0625ZM14.3 5.125C14.3 5.48967 14.1525 5.83941 13.8899 6.09727C13.6274 6.35513 13.2713 6.5 12.9 6.5C12.5287 6.5 12.1726 6.35513 11.9101 6.09727C11.6475 5.83941 11.5 5.48967 11.5 5.125C11.5 4.76033 11.6475 4.41059 11.9101 4.15273C12.1726 3.89487 12.5287 3.75 12.9 3.75C13.2713 3.75 13.6274 3.89487 13.8899 4.15273C14.1525 4.41059 14.3 4.76033 14.3 5.125ZM4.5 5.125C4.5 5.48967 4.3525 5.83941 4.08995 6.09727C3.8274 6.35513 3.4713 6.5 3.1 6.5C2.7287 6.5 2.3726 6.35513 2.11005 6.09727C1.8475 5.83941 1.7 5.48967 1.7 5.125C1.7 4.76033 1.8475 4.41059 2.11005 4.15273C2.3726 3.89487 2.7287 3.75 3.1 3.75C3.4713 3.75 3.8274 3.89487 4.08995 4.15273C4.3525 4.41059 4.5 4.76033 4.5 5.125Z" stroke="white" stroke-linecap="round" stroke-linejoin="round"/>
</svg>
