<svg width="44" height="44" viewBox="0 0 44 44" fill="none" xmlns="http://www.w3.org/2000/svg">
<path d="M22.0335 0C9.84475 0 0 9.84475 0 22.0335C0 34.1553 9.84475 44 22.0335 44C34.1553 44 44 34.1553 44 22.0335C44 9.84475 34.1553 0 22.0335 0ZM16.0061 34.1553C13.5951 30.4049 12.5906 29.3333 11.4521 27.6591C5.89346 19.4886 11.3851 12.9254 14.3318 10.9163C18.618 7.96956 26.4536 7.29985 30.9406 13.6621C31.4094 14.3318 31.1416 15.3364 30.4718 15.8052C29.8021 16.274 28.7306 16.3409 28.1948 15.5373C25.9178 12.1218 20.3592 10.8493 16.4079 13.5282C12.4566 16.207 11.0502 21.3638 14.1309 25.516C16.7428 29.1324 17.8143 30.6058 18.8858 32.2801C20.0913 34.3562 17.4125 36.1644 16.0061 34.1553ZM24.3775 34.9589C24.0426 35.1598 22.8371 35.6956 22.0335 34.3562C21.2298 33.0167 21.2968 33.1507 20.6271 31.9452C19.9574 30.7397 20.895 29.8691 21.2298 29.6682C21.5647 29.4673 22.7032 28.8645 23.5068 30.2709C23.5068 30.2709 24.1766 31.4094 24.9132 32.6819C25.7169 33.8874 24.7793 34.758 24.3775 34.9589ZM26.9893 32.414C24.9802 28.9315 23.7747 26.6545 19.9574 21.6986C18.7519 20.1583 21.3638 18.0822 22.7032 19.8234C25.449 23.3059 28.5297 28.1948 29.8021 30.4718C30.9406 32.7489 28.0609 34.2222 26.9893 32.414ZM30.8737 28.9315C29.6682 26.9224 25.9178 20.4262 23.3059 18.0152C21.0289 15.8721 16.8097 18.7519 17.8813 21.6986C18.2161 22.6362 19.6895 24.5114 20.6271 25.7839C22.1005 27.726 19.2207 29.3333 17.8813 27.6591C16.5419 25.9848 16.207 25.382 15.2024 23.7078C14.3318 22.2344 13.6621 17.7473 17.2785 15.3364C20.895 12.8584 24.8463 14.3988 26.1857 16.0731C27.5251 17.7473 31.5434 23.105 33.6865 27.2572C34.758 28.9985 32.0122 30.8737 30.8737 28.9315ZM35.0928 22.5023C34.758 22.7702 33.6195 23.3059 32.7489 22.0335C31.8782 20.761 31.9452 20.895 31.2085 19.7565C30.4049 18.618 31.3425 17.6804 31.6773 17.4125C32.0122 17.2116 33.0837 16.5419 34.0213 17.8813C34.0213 17.8813 34.758 18.9528 35.5616 20.1583C36.3653 21.3638 35.4277 22.3014 35.0928 22.5023Z" fill="url(#paint0_linear_508_1103)"/>
<defs>
<linearGradient id="paint0_linear_508_1103" x1="1.53445e-06" y1="-11.547" x2="51.9053" y2="13.6587" gradientUnits="userSpaceOnUse">
<stop stop-color="#8B99DC"/>
<stop offset="1" stop-color="#EDD1FE"/>
</linearGradient>
</defs>
</svg>
