<svg width="24" height="24" viewBox="0 0 24 24" fill="none" xmlns="http://www.w3.org/2000/svg">
<path d="M9.66667 5V6.55556M14.3333 5V6.55556M9.66667 17.4444V19M14.3333 17.4444V19M6.55556 9.66667H5M6.55556 14.3333H5M19 9.66667H17.4444M19 14.3333H17.4444M8.11111 17.4444H15.8889C16.748 17.4444 17.4444 16.748 17.4444 15.8889V8.11111C17.4444 7.252 16.748 6.55556 15.8889 6.55556H8.11111C7.252 6.55556 6.55556 7.252 6.55556 8.11111V15.8889C6.55556 16.748 7.252 17.4444 8.11111 17.4444ZM9.66667 9.66667H14.3333V14.3333H9.66667V9.66667Z" stroke="white" stroke-linecap="round"/>
<rect x="0.5" y="0.5" width="23" height="23" rx="3.5" stroke="white"/>
</svg>
