<svg width="30" height="11" viewBox="0 0 30 11" fill="none" xmlns="http://www.w3.org/2000/svg">
<path d="M2.49977 1.23568C2.49977 1.9318 1.94179 2.49319 1.24989 2.49319C0.557984 2.49319 0 1.9318 0 1.23568C0 0.562015 0.557984 0.000627084 1.24989 0.000627084C1.94179 -0.0218284 2.49977 0.562015 2.49977 1.23568ZM2.2989 3.45878V10.6221H0.245513V3.45878H2.2989Z" fill="white"/>
<path d="M10.6233 6.57996V10.6444H8.56997V6.9168C8.56997 5.92875 8.0343 5.34491 7.18617 5.34491C6.62818 5.34491 6.04788 5.65929 5.75773 6.15331V10.5995H3.70435V3.45865H5.75773V4.31196C6.15948 3.70566 6.89602 3.32391 7.69951 3.32391C9.5297 3.32391 10.6233 4.55897 10.6233 6.57996Z" fill="white"/>
<path d="M14.5524 3.45858H16.3156V5.41221H14.5524V10.6219H12.499V5.41221H11.1822V3.45858H12.499V2.9421C12.499 1.0783 13.6819 0.0228882 15.3336 0.0228882C15.713 0.0228882 16.1147 0.11271 16.3826 0.247443L16.271 2.06634C16.1371 2.02143 15.8246 1.95406 15.6237 1.95406C15.0211 1.95406 14.5301 2.40317 14.5301 3.05438V3.45858H14.5524Z" fill="white"/>
<path d="M22.0071 3.45865L21.8955 5.38982C21.6277 5.27754 21.2706 5.23263 20.9804 5.23263C20.5117 5.23263 19.7752 5.61438 19.4181 6.3105V10.6444H17.3647V3.45865H19.4181V4.31196C19.7752 3.70566 20.534 3.32391 21.1367 3.32391C21.4938 3.32391 21.7839 3.36882 22.0071 3.45865Z" fill="white"/>
<path d="M29.64 3.45895V10.6223H27.5867V9.76894C27.2296 10.3528 26.3814 10.757 25.4886 10.757C23.6361 10.757 22.1631 9.09528 22.1631 7.02937C22.1631 4.96347 23.6361 3.30176 25.4886 3.30176C26.3814 3.30176 27.2519 3.70596 27.5867 4.2898V3.43649H29.64V3.45895ZM27.5867 7.92759V6.17606C27.2742 5.65959 26.6492 5.25539 25.935 5.25539C24.9307 5.25539 24.1718 6.01887 24.1718 7.02937C24.1718 8.03987 24.9307 8.80336 25.935 8.80336C26.6492 8.82581 27.2742 8.44407 27.5867 7.92759Z" fill="white"/>
</svg>
