<svg xmlns="http://www.w3.org/2000/svg" width="33" height="33" fill="none" xmlns:v="https://vecta.io/nano"><path d="M16.525 0A16.51 16.51 0 0 0 0 16.525C0 25.616 7.384 33 16.525 33 25.616 33 33 25.616 33 16.525 33 7.384 25.616 0 16.525 0zm-4.52 25.616C10.196 22.804 9.443 22 8.589 20.744c-4.169-6.128-.05-11.05 2.16-12.557 3.215-2.21 9.091-2.712 12.457 2.059.352.502.151 1.256-.352 1.607s-1.306.402-1.708-.201c-1.708-2.562-5.877-3.516-8.84-1.507s-4.018 5.877-1.708 8.991l3.566 5.073c.904 1.557-1.105 2.913-2.16 1.406zm6.279.603c-.251.151-1.155.552-1.758-.452s-.552-.904-1.055-1.808.201-1.557.452-1.708 1.105-.603 1.708.452l1.055 1.808c.603.904-.1 1.557-.402 1.708zm1.959-1.909c-1.507-2.612-2.411-4.32-5.274-8.036-.904-1.155 1.055-2.712 2.059-1.406 2.059 2.612 4.37 6.279 5.324 7.986.854 1.708-1.306 2.813-2.11 1.457zm2.913-2.612c-.904-1.507-3.717-6.379-5.676-8.187-1.708-1.607-4.872.553-4.069 2.763.251.703 1.356 2.11 2.059 3.064 1.105 1.457-1.055 2.662-2.059 1.406s-1.256-1.708-2.009-2.963c-.653-1.105-1.155-4.47 1.557-6.278 2.712-1.858 5.676-.703 6.68.553s4.018 5.274 5.626 8.388c.804 1.306-1.256 2.712-2.11 1.256zm3.164-4.822c-.251.201-1.105.603-1.758-.352s-.603-.854-1.155-1.708c-.603-.854.101-1.557.352-1.758.251-.151 1.055-.653 1.758.352l1.155 1.708c.603.904-.1 1.607-.352 1.758z" fill="#fff"/></svg>