<!-- <svg width="30" height="11" viewBox="0 0 30 11" fill="none" xmlns="http://www.w3.org/2000/svg">
<path d="M2.49977 1.23568C2.49977 1.9318 1.94179 2.49319 1.24989 2.49319C0.557984 2.49319 0 1.9318 0 1.23568C0 0.562015 0.557984 0.000627084 1.24989 0.000627084C1.94179 -0.0218284 2.49977 0.562015 2.49977 1.23568ZM2.2989 3.45878V10.6221H0.245513V3.45878H2.2989Z" fill="white"/>
<path d="M10.6233 6.57996V10.6444H8.56997V6.9168C8.56997 5.92875 8.0343 5.34491 7.18617 5.34491C6.62818 5.34491 6.04788 5.65929 5.75773 6.15331V10.5995H3.70435V3.45865H5.75773V4.31196C6.15948 3.70566 6.89602 3.32391 7.69951 3.32391C9.5297 3.32391 10.6233 4.55897 10.6233 6.57996Z" fill="white"/>
<path d="M14.5524 3.45858H16.3156V5.41221H14.5524V10.6219H12.499V5.41221H11.1822V3.45858H12.499V2.9421C12.499 1.0783 13.6819 0.0228882 15.3336 0.0228882C15.713 0.0228882 16.1147 0.11271 16.3826 0.247443L16.271 2.06634C16.1371 2.02143 15.8246 1.95406 15.6237 1.95406C15.0211 1.95406 14.5301 2.40317 14.5301 3.05438V3.45858H14.5524Z" fill="white"/>
<path d="M22.0071 3.45865L21.8955 5.38982C21.6277 5.27754 21.2706 5.23263 20.9804 5.23263C20.5117 5.23263 19.7752 5.61438 19.4181 6.3105V10.6444H17.3647V3.45865H19.4181V4.31196C19.7752 3.70566 20.534 3.32391 21.1367 3.32391C21.4938 3.32391 21.7839 3.36882 22.0071 3.45865Z" fill="white"/>
<path d="M29.64 3.45895V10.6223H27.5867V9.76894C27.2296 10.3528 26.3814 10.757 25.4886 10.757C23.6361 10.757 22.1631 9.09528 22.1631 7.02937C22.1631 4.96347 23.6361 3.30176 25.4886 3.30176C26.3814 3.30176 27.2519 3.70596 27.5867 4.2898V3.43649H29.64V3.45895ZM27.5867 7.92759V6.17606C27.2742 5.65959 26.6492 5.25539 25.935 5.25539C24.9307 5.25539 24.1718 6.01887 24.1718 7.02937C24.1718 8.03987 24.9307 8.80336 25.935 8.80336C26.6492 8.82581 27.2742 8.44407 27.5867 7.92759Z" fill="white"/>
</svg> -->

<svg width="82" height="27" viewBox="0 0 82 27" xmlns="http://www.w3.org/2000/svg">

<style>
    path {
      fill: black;
    }
    @media (prefers-color-scheme: dark) {
      path {
        fill: white;
      }
    }
  </style>
<path fill-rule="evenodd" clip-rule="evenodd" d="M13.0002 1C20.1798 1 26 6.82038 26 14C26 21.1798 20.1798 27 13.0002 27C5.82038 27 0 21.1798 0 14C0 6.82038 5.82038 1 13.0002 1ZM13.9082 18.8649C13.4344 18.0705 12.7564 18.4073 12.5556 18.527C12.3393 18.6561 11.7711 19.1745 12.1956 19.8863C12.6201 20.598 12.569 20.5122 13.0358 21.295C13.5027 22.0777 14.1991 21.782 14.4115 21.6554C14.6241 21.5285 15.189 21.0123 14.7494 20.2746C14.3467 19.5998 13.9767 18.9797 13.9166 18.8791L13.9082 18.8649ZM18.2715 9.10151C15.6153 5.30633 11.0081 5.72993 8.45713 7.46204C6.72783 8.63634 3.48835 12.527 6.76676 17.3578C6.81545 17.4296 6.86369 17.4995 6.91184 17.5682L6.96959 17.6502C7.05622 17.7726 7.143 17.8922 7.23197 18.0134L7.29164 18.0944C7.80194 18.786 8.39756 19.5571 9.45247 21.1807C10.3 22.3625 11.8719 21.2973 11.108 20.1313C11.0981 20.1163 11.0883 20.1013 11.0785 20.0863L10.9903 19.952C10.9609 19.9074 10.9315 19.8627 10.902 19.8181L10.8428 19.7286C10.2781 18.8766 9.6489 17.9668 8.3016 16.1187C6.51066 13.6622 7.33092 10.6112 9.66647 9.0263C12.002 7.44126 15.2859 8.20745 16.6428 10.2069C16.9606 10.6751 17.5991 10.6492 18.0008 10.3769C18.4024 10.1042 18.5481 9.49676 18.2715 9.10151ZM13.3787 12.7288C12.5741 11.6979 11.0343 12.9039 11.7567 13.8299C14.02 16.732 14.7413 18.0967 15.9311 20.1431C16.5629 21.23 18.2812 20.3525 17.564 19.035C16.8294 17.6856 14.9939 14.7982 13.3787 12.7288ZM15.4715 10.4509C14.6627 9.4684 12.3458 8.55813 10.1968 10.0167C8.04779 11.4749 8.44726 14.1245 8.96387 14.9772C9.56519 15.9695 9.77409 16.3317 10.5538 17.32C11.3449 18.3229 13.0453 17.3777 12.1857 16.2126C11.6455 15.4806 10.7705 14.3609 10.5674 13.8078C9.92715 12.0611 12.4381 10.3658 13.784 11.6252C15.3266 13.069 17.5355 16.895 18.2367 18.0883C18.906 19.2266 20.5324 18.136 19.9087 17.0438C18.6184 14.6235 16.2803 11.4332 15.4715 10.4509ZM20.0798 11.5544C19.5603 10.7889 18.9032 11.1648 18.7098 11.2962C18.5012 11.4374 17.9645 11.9882 18.4299 12.6739C18.8951 13.3597 18.8391 13.277 19.3509 14.0312C19.8628 14.7852 20.5407 14.4495 20.7454 14.3105C20.95 14.1716 21.4839 13.6233 21.0016 12.9125C20.5194 12.2018 20.0798 11.5544 20.0798 11.5544Z"/>
<path d="M32.2 10.216V22H35.584V10.216H32.2ZM31.816 6.544C31.816 7.672 32.752 8.608 33.88 8.608C35.008 8.608 35.944 7.672 35.944 6.544C35.944 5.44 35.008 4.504 33.88 4.504C32.752 4.504 31.816 5.44 31.816 6.544ZM41.3731 10.216H37.9891V22H41.3731V14.68C41.8531 13.864 42.7891 13.336 43.7251 13.336C45.1171 13.336 46.0051 14.272 46.0051 15.904V22H49.3891V15.328C49.3891 12.016 47.5651 9.976 44.5891 9.976C43.2691 9.976 42.0211 10.6 41.3731 11.608V10.216ZM52.5016 9.352V10.216H50.3176V13.432H52.5016V22H55.8856V13.432H58.7896V10.216H55.8856V9.52C55.8856 8.44 56.7256 7.72 57.7096 7.72C58.0456 7.72 58.5256 7.816 58.7656 7.888L58.9336 4.912C58.5016 4.696 57.8296 4.552 57.2056 4.552C54.4456 4.552 52.5016 6.304 52.5016 9.352ZM60.5359 22H63.9199V14.872C64.4959 13.72 65.7199 13.096 66.4879 13.096C66.9679 13.096 67.5439 13.192 67.9999 13.36L68.1919 10.192C67.8319 10.048 67.3519 9.976 66.7519 9.976C65.7679 9.976 64.4959 10.6 63.9199 11.608V10.216H60.5359V22ZM80.806 10.216H77.422V11.608C76.846 10.648 75.43 9.976 73.942 9.976C70.87 9.976 68.446 12.688 68.446 16.096C68.446 19.504 70.87 22.24 73.942 22.24C75.43 22.24 76.846 21.568 77.422 20.608V22H80.806V10.216ZM71.758 16.096C71.758 14.416 73.03 13.168 74.686 13.168C75.862 13.168 76.918 13.816 77.422 14.68V17.56C76.918 18.4 75.862 19.024 74.686 19.024C73.03 19.024 71.758 17.776 71.758 16.096Z"/>
</svg>
