<svg width="750" height="750" viewBox="0 0 750 750" fill="none" xmlns="http://www.w3.org/2000/svg">
<path fill-rule="evenodd" clip-rule="evenodd" d="M375.005 0C582.109 0 750 167.896 750 375C750 582.109 582.109 750 375.005 750C167.896 750 0 582.109 0 375C0 167.896 167.896 0 375.005 0ZM401.197 515.332C387.529 492.418 367.973 502.132 362.181 505.587C355.942 509.311 339.551 524.264 351.796 544.796C364.041 565.328 362.567 562.853 376.031 585.432C389.501 608.011 409.59 599.481 415.718 595.828C421.85 592.169 438.144 577.278 425.463 555.999C413.846 536.532 403.174 518.646 401.442 515.743L401.197 515.332ZM527.064 233.697C450.44 124.221 317.541 136.44 243.956 186.405C194.072 220.279 100.626 332.509 195.195 471.861C196.599 473.93 197.991 475.946 199.38 477.93L201.046 480.295C203.545 483.824 206.048 487.275 208.615 490.77L210.336 493.108C225.056 513.058 242.237 535.301 272.667 582.135C297.116 616.227 342.457 585.498 320.422 551.863C320.138 551.43 319.855 550.998 319.572 550.566L317.028 546.693C316.18 545.405 315.332 544.118 314.48 542.829L312.772 540.247C296.484 515.671 278.333 489.427 239.469 436.117C187.807 365.255 211.469 277.245 278.84 231.528C346.212 185.806 440.939 207.907 480.082 265.585C489.247 279.089 507.665 278.342 519.255 270.488C530.839 262.622 535.041 245.099 527.064 233.697ZM385.924 338.332C362.715 308.594 318.298 343.382 339.135 370.092C404.423 453.809 425.229 493.175 459.55 552.204C477.775 583.557 527.343 558.245 506.654 520.24C485.462 481.316 432.515 398.026 385.924 338.332ZM446.294 272.622C422.963 244.281 356.13 218.023 294.139 260.097C232.148 302.161 243.671 378.592 258.573 403.188C275.919 431.814 281.945 442.26 304.438 470.768C327.256 499.699 376.306 472.435 351.511 438.825C335.929 417.709 310.687 385.411 304.829 369.457C286.36 319.07 358.792 270.167 397.615 306.495C442.113 348.143 505.831 458.508 526.058 492.931C545.365 525.768 592.281 494.308 574.29 462.802C537.068 392.986 469.625 300.957 446.294 272.622ZM579.224 304.453C564.24 282.372 545.284 293.214 539.705 297.004C533.689 301.079 518.208 316.967 531.632 336.747C545.05 356.531 543.434 354.143 558.199 375.899C572.964 397.65 592.52 387.966 598.424 383.958C604.328 379.949 619.728 364.132 605.817 343.631C591.905 323.13 579.224 304.453 579.224 304.453Z" fill="#0B0B09"/>
</svg>
