<svg width="42" height="41" viewBox="0 0 42 41" fill="none" xmlns="http://www.w3.org/2000/svg">
<path d="M38.1297 9.01885C37.8931 8.26173 37.3252 7.64656 36.6154 7.268L22.1827 0.359236C21.8042 0.169955 21.3783 0.122635 20.9997 0.122635C20.6211 0.122635 20.1953 0.122635 19.8167 0.217276L5.384 7.17336C4.6742 7.5046 4.15367 8.11977 3.96439 8.92421L0.41537 24.4926C0.273409 25.297 0.46269 26.1015 0.935893 26.764L10.9205 39.1146C11.4883 39.6824 12.2928 40.061 13.0972 40.1083H28.9968C29.8486 40.2029 30.653 39.8244 31.1736 39.1146L41.1582 26.764C41.6314 26.1015 41.8206 25.297 41.726 24.4926L38.1297 9.01885V9.01885Z" fill="#326DE6"/>
<path d="M35.9056 23.8774C35.8583 23.8774 35.811 23.8774 35.811 23.8301C35.811 23.7828 35.7163 23.7828 35.6217 23.7828C35.4324 23.7355 35.2431 23.7355 35.0538 23.7355C34.9592 23.7355 34.8645 23.7355 34.7699 23.6882H34.7226C34.2021 23.6408 33.6342 23.5462 33.1137 23.4042C32.9717 23.3569 32.8298 23.2149 32.7825 23.073C32.8298 23.073 32.7825 23.073 32.7825 23.073L32.4039 22.9783C32.5932 21.6061 32.4985 20.1864 32.2146 18.8142C31.8834 17.4419 31.3155 16.1169 30.5584 14.9339L30.8423 14.65V14.6027C30.8423 14.4607 30.8896 14.2714 30.9843 14.1768C31.4102 13.7982 31.836 13.5143 32.3092 13.2304C32.4039 13.183 32.4985 13.1357 32.5932 13.0884C32.7824 12.9938 32.9244 12.8991 33.1137 12.8045C33.161 12.7572 33.2083 12.7572 33.2557 12.7098C33.303 12.6625 33.2557 12.6625 33.2557 12.6152C33.6815 12.284 33.7762 11.7161 33.4449 11.2902C33.303 11.1009 33.0191 10.959 32.7825 10.959C32.5458 10.959 32.3092 11.0536 32.12 11.1956L32.0726 11.2429C32.0253 11.2902 31.978 11.3375 31.9307 11.3375C31.7887 11.4795 31.6468 11.6215 31.5521 11.7634C31.5048 11.8581 31.4102 11.9054 31.3628 11.9527C31.0316 12.3313 30.6057 12.7098 30.1798 12.9938C30.0852 13.0411 29.9906 13.0884 29.8959 13.0884C29.8486 13.0884 29.754 13.0884 29.7066 13.0411H29.6593L29.2807 13.2777C28.9022 12.8991 28.4763 12.5206 28.0977 12.142C26.3469 10.7697 24.1702 9.91794 21.9461 9.68134L21.8988 9.30278V9.3501C21.7568 9.25546 21.7095 9.11349 21.6622 8.97153C21.6622 8.45101 21.6622 7.93049 21.7568 7.36264V7.31532C21.7568 7.22068 21.8041 7.12604 21.8041 7.0314C21.8515 6.84212 21.8515 6.65284 21.8988 6.46356V6.17964C21.9461 5.70643 21.5675 5.23323 21.0943 5.18591C20.8104 5.13859 20.5265 5.28055 20.2899 5.51715C20.1006 5.70643 20.006 5.94303 20.006 6.17964V6.41624C20.006 6.60552 20.0533 6.7948 20.1006 6.98408C20.1479 7.07872 20.1479 7.17336 20.1479 7.268V7.31532C20.2426 7.83585 20.2426 8.35637 20.2426 8.92421C20.1952 9.06617 20.1479 9.20813 20.006 9.30278V9.39742L19.9586 9.77598C19.4381 9.8233 18.9176 9.91794 18.3498 10.0126C16.1257 10.4858 14.0909 11.6688 12.5294 13.325L12.2454 13.1357H12.1981C12.1508 13.1357 12.1035 13.183 12.0088 13.183C11.9142 13.183 11.8196 13.1357 11.7249 13.0884C11.299 12.7572 10.8731 12.3786 10.5419 12C10.4946 11.9054 10.3999 11.8581 10.3526 11.8108C10.2107 11.6688 10.116 11.5268 9.97406 11.3849C9.92674 11.3375 9.87942 11.3375 9.8321 11.2902C9.78478 11.2429 9.78478 11.2429 9.78478 11.2429C9.5955 11.1009 9.3589 11.0063 9.1223 11.0063C8.83837 11.0063 8.60177 11.1009 8.45981 11.3375C8.17589 11.7634 8.27053 12.3313 8.64909 12.6625C8.69641 12.6625 8.69641 12.7098 8.69641 12.7098C8.69641 12.7098 8.79105 12.8045 8.83837 12.8045C8.98033 12.8991 9.16962 12.9938 9.3589 13.0884C9.45354 13.1357 9.54818 13.183 9.64282 13.2304C10.116 13.5143 10.5892 13.7982 10.9678 14.1768C11.0624 14.2714 11.1571 14.4607 11.1097 14.6027V14.5553L11.3937 14.8393C11.3463 14.9339 11.299 14.9812 11.2517 15.0759C9.78478 17.3945 9.16962 20.1391 9.5955 22.8364L9.21694 22.931C9.21694 22.9783 9.16962 22.9783 9.16962 22.9783C9.1223 23.1203 8.98033 23.2149 8.83837 23.3096C8.31785 23.4515 7.79733 23.5462 7.22948 23.5935C7.13484 23.5935 7.0402 23.5935 6.94556 23.6408C6.75628 23.6408 6.567 23.6882 6.37772 23.6882C6.3304 23.6882 6.28308 23.7355 6.18844 23.7355C6.14112 23.7355 6.14112 23.7355 6.0938 23.7828C5.57327 23.8774 5.24203 24.3506 5.33667 24.8712C5.43131 25.297 5.85719 25.581 6.28308 25.5336C6.37772 25.5336 6.42504 25.5336 6.51968 25.4863C6.567 25.4863 6.567 25.4863 6.567 25.439C6.567 25.3917 6.70896 25.439 6.75628 25.439C6.94556 25.3917 7.13484 25.297 7.2768 25.2497C7.37144 25.2024 7.46608 25.1551 7.56073 25.1551H7.60805C8.12857 24.9658 8.60177 24.8238 9.16962 24.7292H9.21694C9.3589 24.7292 9.50086 24.7765 9.5955 24.8712C9.64282 24.8712 9.64282 24.9185 9.64282 24.9185L10.0687 24.8712C10.7785 27.0479 12.1035 28.988 13.949 30.4076C14.3748 30.7389 14.7534 31.0228 15.2266 31.2594L14.99 31.5906C14.99 31.638 15.0373 31.638 15.0373 31.638C15.132 31.7799 15.132 31.9692 15.0847 32.1112C14.8954 32.5844 14.6115 33.0576 14.3275 33.4835V33.5308C14.2802 33.6254 14.2329 33.6727 14.1382 33.7674C14.0436 33.862 13.949 34.0513 13.807 34.2406C13.7597 34.2879 13.7597 34.3352 13.7124 34.3825C13.7124 34.3825 13.7124 34.4299 13.665 34.4299C13.4284 34.9031 13.6177 35.4709 14.0436 35.7075C14.1382 35.7548 14.2802 35.8022 14.3749 35.8022C14.7534 35.8022 15.0847 35.5655 15.2739 35.2343C15.2739 35.2343 15.2739 35.187 15.3213 35.187C15.3213 35.1397 15.3686 35.0923 15.4159 35.045C15.4632 34.8557 15.5579 34.7138 15.6052 34.5245L15.6998 34.2406C15.8418 33.7201 16.0784 33.2469 16.315 32.7737C16.4096 32.6317 16.5516 32.537 16.6935 32.4897C16.7409 32.4897 16.7409 32.4897 16.7409 32.4424L16.9301 32.0638C18.2551 32.5844 19.6274 32.821 21.047 32.821C21.8988 32.821 22.7505 32.7263 23.6023 32.4897C24.1228 32.3951 24.6434 32.2058 25.1166 32.0638L25.3058 32.3951C25.3532 32.3951 25.3532 32.3951 25.3532 32.4424C25.4951 32.4897 25.6371 32.5844 25.7317 32.7263C25.9683 33.1995 26.2049 33.6727 26.3469 34.1933V34.2406L26.4415 34.5245C26.4888 34.7138 26.5362 34.9031 26.6308 35.045C26.6781 35.0923 26.6781 35.1397 26.7255 35.187C26.7255 35.187 26.7255 35.2343 26.7728 35.2343C26.9621 35.5655 27.2933 35.8022 27.6719 35.8022C27.8138 35.8022 27.9085 35.7548 28.0504 35.7075C28.2397 35.6129 28.429 35.4236 28.4763 35.187C28.5236 34.9504 28.5236 34.7138 28.429 34.4772C28.429 34.4299 28.3817 34.4299 28.3817 34.4299C28.3817 34.3825 28.3343 34.3352 28.287 34.2879C28.1924 34.0986 28.0977 33.9567 27.9558 33.8147C27.9085 33.7201 27.8611 33.6727 27.7665 33.5781V33.4835C27.4353 33.0576 27.1987 32.5844 27.0094 32.1112C26.9621 31.9692 26.9621 31.7799 27.0567 31.638C27.0567 31.5906 27.104 31.5906 27.104 31.5906L26.9621 31.2121C29.3754 29.7451 31.2209 27.4738 32.0726 24.7765L32.4512 24.8238C32.4985 24.8238 32.4985 24.7765 32.4985 24.7765C32.5932 24.6819 32.7351 24.6346 32.8771 24.6346H32.9244C33.4449 24.7292 33.9655 24.8712 34.4387 25.0604H34.486C34.5806 25.1078 34.6753 25.1551 34.7699 25.1551C34.9592 25.2497 35.1011 25.3444 35.2904 25.3917C35.3377 25.3917 35.3851 25.439 35.4797 25.439C35.527 25.439 35.527 25.439 35.5743 25.4863C35.669 25.5336 35.7163 25.5336 35.811 25.5336C36.2368 25.5336 36.6154 25.2497 36.7574 24.8712C36.71 24.3506 36.3315 23.9721 35.9056 23.8774V23.8774ZM22.23 22.4105L20.9524 23.0257L19.6747 22.4105L19.3435 21.0382L20.2426 19.9025H21.6622L22.5613 21.0382L22.23 22.4105V22.4105ZM29.9432 19.3347C30.1798 20.3284 30.2272 21.3221 30.1325 22.3159L25.6371 21.0382C25.2112 20.9436 24.9746 20.5177 25.0692 20.0918C25.1166 19.9498 25.1639 19.8552 25.2585 19.7606L28.8075 16.5428C29.3281 17.3945 29.7066 18.341 29.9432 19.3347V19.3347ZM27.3879 14.7919L23.5077 17.5365C23.1764 17.7258 22.7032 17.6785 22.4666 17.3472C22.372 17.2526 22.3247 17.1579 22.3247 17.016L22.0407 12.2366C24.1228 12.4732 25.9683 13.3723 27.3879 14.7919V14.7919ZM18.823 12.3786L19.7694 12.1893L19.5328 16.9213C19.5328 17.3472 19.1542 17.6785 18.7283 17.6785C18.5864 17.6785 18.4917 17.6312 18.3498 17.5838L14.4222 14.7919C15.6525 13.6089 17.1667 12.7572 18.823 12.3786ZM13.0499 16.5428L16.5516 19.6659C16.8828 19.9498 16.9301 20.423 16.6462 20.7543C16.5516 20.8963 16.4569 20.9436 16.2677 20.9909L11.6776 22.3159C11.5356 20.3284 12.0088 18.2936 13.0499 16.5428V16.5428ZM12.2454 24.5399L16.9301 23.7355C17.3087 23.7355 17.6873 23.9721 17.7346 24.3506C17.7819 24.4926 17.7819 24.6819 17.6873 24.8238L15.8891 29.1773C14.2329 28.0889 12.9079 26.4327 12.2454 24.5399V24.5399ZM22.9871 30.4076C22.3247 30.5496 21.6622 30.6442 20.9524 30.6442C19.9586 30.6442 18.9176 30.455 17.9712 30.171L20.2899 25.9595C20.5265 25.6756 20.9051 25.581 21.2363 25.7702C21.3783 25.8649 21.4729 25.9595 21.6149 26.1015L23.8862 30.2184C23.6023 30.2657 23.3184 30.313 22.9871 30.4076V30.4076ZM28.7602 26.2908C28.0504 27.4265 27.0567 28.4202 25.921 29.13L24.0755 24.6819C23.9809 24.3033 24.1702 23.9248 24.5014 23.7828C24.6434 23.7355 24.7853 23.6882 24.9273 23.6882L29.6593 24.4926C29.4227 25.1551 29.1388 25.7702 28.7602 26.2908Z" fill="white"/>
</svg>
