<svg width="328" height="120" viewBox="0 0 328 120" fill="none" xmlns="http://www.w3.org/2000/svg">
<path fill-rule="evenodd" clip-rule="evenodd" d="M55.0007 5C85.3761 5 110 29.6247 110 60C110 90.3761 85.3761 115 55.0007 115C24.6247 115 0 90.3761 0 60C0 29.6247 24.6247 5 55.0007 5ZM58.8422 80.5821C56.8376 77.2213 53.9694 78.6461 53.1199 79.1528C52.2048 79.699 49.8008 81.8921 51.5967 84.9034C53.3926 87.9147 53.1765 87.5518 55.1513 90.8634C57.1268 94.175 60.0732 92.9238 60.9719 92.3881C61.8714 91.8515 64.2612 89.6674 62.4012 86.5465C60.6975 83.6913 59.1322 81.0681 58.8781 80.6423L58.8422 80.5821ZM77.3027 39.2756C66.0645 23.2191 46.5727 25.0112 35.7801 32.3394C28.4639 37.3076 14.7584 53.768 28.6286 74.2062C28.8346 74.5098 29.0387 74.8054 29.2424 75.0963L29.4867 75.4433C29.8533 75.9609 30.2204 76.467 30.5968 76.9796L30.8492 77.3225C33.0082 80.2485 35.5281 83.5109 39.9912 90.3798C43.577 95.38 50.2271 90.8731 46.9952 85.94C46.9536 85.8764 46.912 85.813 46.8705 85.7497L46.4974 85.1816C46.3731 84.9927 46.2486 84.8039 46.1237 84.6149L45.8732 84.2362C43.4843 80.6317 40.8222 76.7826 35.1221 68.9639C27.5451 58.5707 31.0154 45.6626 40.8966 38.9574C50.7778 32.2515 64.671 35.493 70.412 43.9524C71.7563 45.9331 74.4576 45.8236 76.1573 44.6715C77.8564 43.518 78.4726 40.9478 77.3027 39.2756ZM56.6022 54.622C53.1981 50.2604 46.6837 55.3627 49.7397 59.2802C59.3154 71.5586 62.3669 77.3323 67.4007 85.9899C70.0736 90.5884 77.3437 86.8759 74.3093 81.3019C71.2011 75.593 63.4355 63.3772 56.6022 54.622ZM65.4565 44.9845C62.0346 40.8278 52.2324 36.9767 43.1404 43.1476C34.0483 49.317 35.7384 60.5269 37.924 64.1343C40.4681 68.3327 41.3519 69.8648 44.6508 74.046C47.9975 78.2891 55.1915 74.2905 51.555 69.361C49.2695 66.264 45.5674 61.5269 44.7082 59.187C41.9995 51.797 52.6229 44.6246 58.3168 49.9527C64.8432 56.0609 74.1886 72.2479 77.1552 77.2965C79.9869 82.1127 86.8679 77.4985 84.2292 72.8776C78.77 62.638 68.8784 49.1404 65.4565 44.9845ZM84.9528 49.6531C82.7552 46.4145 79.9749 48.0047 79.1567 48.5606C78.2744 49.1583 76.0038 51.4885 77.9726 54.3895C79.9407 57.2912 79.7037 56.941 81.8692 60.1319C84.0347 63.322 86.9029 61.9017 87.7688 61.3138C88.6348 60.7258 90.8934 58.4061 88.8531 55.3992C86.8128 52.3924 84.9528 49.6531 84.9528 49.6531Z" fill="#0B0B09"/>
<path d="M152.225 32.9847C152.225 37.4274 148.555 41.0974 144.113 41.0974C139.67 41.0974 136 37.4274 136 32.9847C136 28.6709 139.67 25.0008 144.113 25.0008C148.555 24.9364 152.225 28.6065 152.225 32.9847ZM150.809 47.3429V93.5079H137.545V47.3429H150.809Z" fill="black"/>
<path d="M204.893 67.367V93.5079H191.63V69.6206C191.63 63.2463 188.153 59.5763 182.68 59.5763C179.01 59.5763 175.34 61.6367 173.473 64.856V93.5723H160.209V47.3429H173.473V52.8157C175.984 48.8882 180.877 46.4411 186.093 46.4411C197.746 46.3771 204.893 54.4254 204.893 67.367Z" fill="black"/>
<path d="M230.262 47.3429H241.658V59.9626H230.262V93.5079H216.998V59.9626H208.435V47.3429H216.998V43.9304C216.998 31.9546 224.596 25.1296 235.412 25.1296C237.859 25.1296 240.499 25.7091 242.173 26.5461L241.529 38.2C240.563 37.9425 238.696 37.5562 237.408 37.5562C233.545 37.5562 230.262 40.3892 230.262 44.6387V47.3429Z" fill="black"/>
<path d="M278.487 47.2785L277.714 59.7051C275.911 59.0612 273.658 58.6749 271.791 58.6749C268.765 58.6749 264 61.1216 261.746 65.6286V93.5723H248.483V47.3429H261.746V52.8157C264 48.8882 268.958 46.4415 272.821 46.4415C275.203 46.3771 277.07 46.699 278.487 47.2785Z" fill="black"/>
<path d="M328 47.3429V93.5079H314.736V88.035C312.483 91.7694 306.946 94.4093 301.087 94.4093C289.046 94.4093 279.517 83.6568 279.517 70.3288C279.517 57.0008 289.046 46.3771 301.087 46.3771C306.817 46.3771 312.483 49.0169 314.736 52.7513V47.2785H328V47.3429ZM314.736 76.1236V64.856C312.74 61.4435 308.62 58.9324 303.984 58.9324C297.481 58.9324 292.523 63.8258 292.523 70.3932C292.523 76.9606 297.481 81.8539 303.984 81.8539C308.62 81.8539 312.74 79.4073 314.736 76.1236Z" fill="black"/>
</svg>
