<svg width="18" height="7" viewBox="0 0 18 7" fill="none" xmlns="http://www.w3.org/2000/svg">
<path d="M2.29091 1.87598C1.04203 1.87598 0.03125 2.88676 0.03125 4.13563C0.03125 5.38451 1.04203 6.39529 2.29091 6.39529C3.53978 6.39529 4.55056 5.38451 4.55056 4.13563C4.55056 2.88676 3.53978 1.87598 2.29091 1.87598ZM2.29091 5.26771C1.66647 5.26771 1.15883 4.76007 1.15883 4.13563C1.15883 3.5112 1.66647 3.00356 2.29091 3.00356C2.91535 3.00356 3.42298 3.5112 3.42298 4.13563C3.42298 4.76007 2.91535 5.26771 2.29091 5.26771Z" fill="white"/>
<path d="M6.26247 4.89471C6.26247 4.71501 6.4781 4.62966 6.60389 4.75544C7.16993 5.33047 8.10434 6.31878 8.10883 6.32328C8.12231 6.33675 8.13579 6.35922 8.18969 6.37719C8.21216 6.38617 8.2481 6.38617 8.28853 6.38617H9.30829C9.49248 6.38617 9.54639 6.17503 9.46103 6.06721L7.7719 4.33765L7.68206 4.24781C7.48889 4.0187 7.51135 3.92885 7.73147 3.69525L9.0702 2.19929C9.15555 2.09147 9.10164 1.88482 8.91296 1.88482H7.98754C7.9516 1.88482 7.92465 1.88482 7.89769 1.89381C7.84378 1.91178 7.82132 1.92975 7.80784 1.94772C7.80335 1.95221 7.06211 2.75185 6.60389 3.24152C6.4781 3.37629 6.25349 3.28644 6.25349 3.10225V0.537116C6.25349 0.406838 6.14567 0.357422 6.06031 0.357422H5.3056C5.17532 0.357422 5.11243 0.442777 5.11243 0.519147V6.20648C5.11243 6.33675 5.22024 6.37269 5.31009 6.37269H6.06481C6.18161 6.37269 6.25798 6.28734 6.25798 6.20198V6.14358V4.89471H6.26247Z" fill="white"/>
<path d="M12.4256 6.17952L12.3447 5.42481C12.3357 5.32148 12.2369 5.2496 12.1336 5.26757C12.0752 5.27656 12.0168 5.28105 11.9584 5.28105C11.3564 5.28105 10.8667 4.80935 10.8308 4.21187C10.8308 4.1939 10.8308 4.17144 10.8308 4.14897V3.22355C10.8308 3.10225 10.9207 3.00342 11.0419 3.00342H12.0527C12.1246 3.00342 12.2324 2.94053 12.2324 2.81025V2.09597C12.2324 1.9567 12.1426 1.88482 12.0617 1.88482H11.0419C10.9251 1.88482 10.8308 1.79947 10.8263 1.68267V0.537116C10.8263 0.465239 10.7724 0.357422 10.6331 0.357422H9.88292C9.78858 0.357422 9.69873 0.415823 9.69873 0.532624C9.69873 0.532624 9.69873 4.1939 9.69873 4.21187C9.73018 5.43379 10.732 6.40863 11.9584 6.40863C12.0617 6.40863 12.1605 6.39965 12.2594 6.38617C12.3672 6.37269 12.4391 6.28285 12.4256 6.17952Z" fill="white"/>
<path d="M17.8703 5.2315C17.2324 5.2315 17.1335 5.00239 17.1335 4.14435C17.1335 4.13986 17.1335 4.13986 17.1335 4.13537V2.07337C17.1335 2.00149 17.0796 1.8802 16.9359 1.8802H16.1812C16.0868 1.8802 15.9835 1.95657 15.9835 2.07337V2.16771C15.6556 1.97903 15.2737 1.87122 14.8694 1.87122C13.6205 1.87122 12.6097 2.882 12.6097 4.13087C12.6097 5.37975 13.6205 6.39053 14.8694 6.39053C15.4309 6.39053 15.9431 6.18388 16.3384 5.84696C16.5495 6.17041 16.891 6.38604 17.4256 6.39053C17.5154 6.39053 18.0006 6.4085 18.0006 6.17939V5.37526C18.0006 5.30787 17.9467 5.2315 17.8703 5.2315ZM14.8739 5.26744C14.2495 5.26744 13.7418 4.7598 13.7418 4.13537C13.7418 3.51093 14.2495 3.00329 14.8739 3.00329C15.4983 3.00329 16.006 3.51093 16.006 4.13537C16.0015 4.7598 15.4938 5.26744 14.8739 5.26744Z" fill="white"/>
</svg>
