<svg width="24" height="24" viewBox="0 0 24 24" fill="none" xmlns="http://www.w3.org/2000/svg">
<path d="M15.5353 4.92894L12.7069 2.10051C12.3164 1.70999 11.6832 1.70999 11.2927 2.10051L8.46428 4.92894C8.07376 5.31946 8.07376 5.95263 8.46428 6.34315L11.2927 9.17158C11.6832 9.5621 12.3164 9.5621 12.7069 9.17158L15.5353 6.34315C15.9259 5.95263 15.9259 5.31946 15.5353 4.92894Z" stroke="#F4E2FF" stroke-width="2" stroke-linecap="round" stroke-linejoin="round"/>
<path d="M9.17158 11.293L6.34315 8.46452C5.95263 8.074 5.31946 8.074 4.92894 8.46452L2.10051 11.293C1.70999 11.6835 1.70999 12.3166 2.10051 12.7072L4.92894 15.5356C5.31946 15.9261 5.95263 15.9261 6.34315 15.5356L9.17158 12.7072C9.5621 12.3166 9.5621 11.6835 9.17158 11.293Z" stroke="#F4E2FF" stroke-width="2" stroke-linecap="round" stroke-linejoin="round"/>
<path d="M21.8991 11.293L19.0707 8.46452C18.6802 8.074 18.047 8.074 17.6565 8.46452L14.828 11.293C14.4375 11.6835 14.4375 12.3166 14.828 12.7072L17.6565 15.5356C18.047 15.9261 18.6802 15.9261 19.0707 15.5356L21.8991 12.7072C22.2896 12.3166 22.2896 11.6835 21.8991 11.293Z" stroke="#F4E2FF" stroke-width="2" stroke-linecap="round" stroke-linejoin="round"/>
<path d="M15.5353 17.657L12.7069 14.8285C12.3164 14.438 11.6832 14.438 11.2927 14.8285L8.46428 17.657C8.07376 18.0475 8.07376 18.6807 8.46428 19.0712L11.2927 21.8996C11.6832 22.2901 12.3164 22.2901 12.7069 21.8996L15.5353 19.0712C15.9259 18.6807 15.9259 18.0475 15.5353 17.657Z" stroke="#F4E2FF" stroke-width="2" stroke-linecap="round" stroke-linejoin="round"/>
</svg>
