<svg width="16" height="16" viewBox="0 0 16 16" fill="none" xmlns="http://www.w3.org/2000/svg">
<path d="M10.4282 3.14372L8.48561 1.20116C8.2174 0.932947 7.78254 0.932947 7.51433 1.20116L5.57176 3.14372C5.30355 3.41193 5.30355 3.84679 5.57176 4.115L7.51433 6.05757C7.78254 6.32578 8.2174 6.32578 8.48561 6.05757L10.4282 4.115C10.6964 3.84679 10.6964 3.41193 10.4282 3.14372Z" stroke="white" stroke-linecap="round"/>
<path d="M6.05757 7.51469L4.115 5.57213C3.84679 5.30392 3.41193 5.30392 3.14372 5.57213L1.20116 7.51469C0.932947 7.78291 0.932947 8.21776 1.20116 8.48598L3.14372 10.4285C3.41193 10.6968 3.84679 10.6968 4.115 10.4285L6.05757 8.48598C6.32578 8.21776 6.32578 7.78291 6.05757 7.51469Z" stroke="white" stroke-linecap="round"/>
<path d="M14.7988 7.51469L12.8562 5.57213C12.588 5.30392 12.1531 5.30392 11.8849 5.57213L9.94237 7.51469C9.67416 7.78291 9.67416 8.21776 9.94237 8.48598L11.8849 10.4285C12.1531 10.6968 12.588 10.6968 12.8562 10.4285L14.7988 8.48598C15.067 8.21776 15.067 7.78291 14.7988 7.51469Z" stroke="white" stroke-linecap="round"/>
<path d="M10.4282 11.8853L8.48561 9.94277C8.2174 9.67455 7.78254 9.67455 7.51433 9.94277L5.57176 11.8853C5.30355 12.1535 5.30355 12.5884 5.57176 12.8566L7.51433 14.7992C7.78254 15.0674 8.2174 15.0674 8.48561 14.7992L10.4282 12.8566C10.6964 12.5884 10.6964 12.1535 10.4282 11.8853Z" stroke="white" stroke-linecap="round"/>
</svg>
