<svg width="28" height="24" viewBox="0 0 28 24" fill="none" xmlns="http://www.w3.org/2000/svg">
<path fill-rule="evenodd" clip-rule="evenodd" d="M14.6129 2C9.27414 2 4.94623 6.32791 4.94623 11.6667C4.94623 17.0054 9.27414 21.3333 14.6129 21.3333C19.9516 21.3333 24.2796 17.0054 24.2796 11.6667C24.2796 6.32791 19.9516 2 14.6129 2ZM2.94623 11.6667C2.94623 5.22334 8.16957 0 14.6129 0C21.0562 0 26.2796 5.22334 26.2796 11.6667C26.2796 18.11 21.0562 23.3333 14.6129 23.3333C8.16957 23.3333 2.94623 18.11 2.94623 11.6667Z" fill="white"/>
<path fill-rule="evenodd" clip-rule="evenodd" d="M24.5186 4.05786C23.7539 3.90296 22.7143 3.91096 21.4418 4.11982C20.8968 4.20928 20.3825 3.83999 20.2931 3.295C20.2036 2.75001 20.5729 2.23569 21.1179 2.14623C22.5252 1.91523 23.8281 1.87738 24.9156 2.09767C26.001 2.31755 26.9945 2.82478 27.5493 3.78563C28.118 4.77072 28.0435 5.91573 27.6668 6.9905C27.2887 8.06931 26.566 9.20919 25.6145 10.3425C23.7058 12.6159 20.7295 15.0361 17.1482 17.1038C13.5669 19.1715 9.98279 20.5388 7.05965 21.0552C5.60239 21.3126 4.25387 21.3685 3.13056 21.1565C2.01145 20.9453 0.982562 20.4374 0.41382 19.4523C-0.235404 18.3278 -0.0488015 17.0012 0.478449 15.783C1.01379 14.5461 1.97582 13.227 3.22345 11.9211C3.60497 11.5218 4.23797 11.5073 4.6373 11.8888C5.03663 12.2703 5.05108 12.9033 4.66957 13.3027C3.5123 14.514 2.72078 15.6373 2.31391 16.5774C1.89895 17.5362 1.95468 18.1211 2.14587 18.4523C2.31351 18.7427 2.69699 19.0394 3.50144 19.1912C4.30167 19.3422 5.3879 19.3195 6.71177 19.0856C9.35089 18.6195 12.7146 17.3542 16.1482 15.3717C19.5819 13.3893 22.3595 11.109 24.0828 9.05649C24.9472 8.0269 25.51 7.09757 25.7794 6.32903C26.0501 5.55646 25.9849 5.07599 25.8172 4.78563C25.6536 4.50217 25.2853 4.21318 24.5186 4.05786Z" fill="white"/>
</svg>
