<svg width="16" height="16" viewBox="0 0 16 16" fill="none" xmlns="http://www.w3.org/2000/svg">
<path d="M9.625 6.55556L8 7.27778M8 7.27778L6.375 6.55556M8 7.27778V9.08333M14.5 4.38889L12.875 5.11111M14.5 4.38889L12.875 3.66667M14.5 4.38889V6.19444M9.625 2.22222L8 1.5L6.375 2.22222M1.5 4.38889L3.125 3.66667M1.5 4.38889L3.125 5.11111M1.5 4.38889V6.19444M8 14.5L6.375 13.7778M8 14.5L9.625 13.7778M8 14.5V12.6944M3.125 12.3333L1.5 11.6111V9.80556M12.875 12.3333L14.5 11.6111V9.80556" stroke="white" stroke-linecap="round"/>
</svg>
