<svg width="6" height="7" viewBox="0 0 6 7" fill="none" xmlns="http://www.w3.org/2000/svg">
<path d="M4.14286 2.11111C4.14286 2.4058 4.02245 2.68841 3.80812 2.89679C3.59379 3.10516 3.3031 3.22222 3 3.22222C2.6969 3.22222 2.40621 3.10516 2.19188 2.89679C1.97755 2.68841 1.85714 2.4058 1.85714 2.11111C1.85714 1.81643 1.97755 1.53381 2.19188 1.32544C2.40621 1.11706 2.6969 1 3 1C3.3031 1 3.59379 1.11706 3.80812 1.32544C4.02245 1.53381 4.14286 1.81643 4.14286 2.11111V2.11111ZM3 4.05556C2.46957 4.05556 1.96086 4.26042 1.58579 4.62507C1.21071 4.98972 1 5.4843 1 6H5C5 5.4843 4.78929 4.98972 4.41421 4.62507C4.03914 4.26042 3.53043 4.05556 3 4.05556V4.05556Z" stroke="white" stroke-width="0.35" stroke-linecap="round" stroke-linejoin="round"/>
</svg>
