<svg width="261" height="121" viewBox="0 0 261 121" fill="none" xmlns="http://www.w3.org/2000/svg">
<path d="M53.5763 57.9732C51.8451 58.51 48.5191 59.9962 49.064 61.6468C49.7451 63.71 56.5561 58.0739 56.1304 57.4197C55.7047 56.7655 53.1506 59.7848 54.0871 61.6468C55.0236 63.5087 67.624 56.9668 73.3282 48.6635C79.0324 40.3602 72.9877 45.7951 67.3686 54.35C61.7495 62.9048 63.1117 66.1255 74.3499 54.35C85.588 42.5744 83.8853 41.3164 75.6269 51.4816C67.3686 61.6468 74.6053 63.3074 81.246 62.9048C87.8868 62.5023 96.06 58.728 95.8897 54.8532" stroke="black" stroke-width="1.5"/>
<path d="M1 76.4498C18.2674 57.6427 50.3571 23.7646 40.5764 38.7093C28.3506 57.3902 34.9046 49.5645 53.3064 29.3689C71.7082 9.17336 78.2622 5.00802 53.3064 44.8942C28.3506 84.7805 31.7536 125.803 59.8604 118.482" stroke="black" stroke-width="1.5"/>
<path d="M55.7026 55.1442C66.3286 54.4155 88.5731 52.5021 92.5432 50.6787" stroke="black" stroke-width="1.5"/>
<path d="M112.847 43.5136C108.437 51.0025 100.5 65.7784 104.028 64.9706C108.437 63.9609 128.721 29.251 119.398 48.941C110.075 68.6309 88.406 116.72 133.508 62.6987C178.61 8.67755 170.799 -11.3911 147.618 8.55133" stroke="black" stroke-width="1.5"/>
<path d="M141.105 59.2539C146.779 52.2892 142.24 56.3934 143.123 60.0001C144.005 63.6069 150.435 56.8909 155.731 46.4439C161.026 35.9968 148.544 55.6472 149.049 60.0001C149.553 64.3531 163.926 42.9615 161.152 44.7027C158.379 46.4439 154.47 60.8707 157.37 61.7413C160.27 62.6119 163.8 57.6371 163.926 55.7716C164.052 53.906 160.522 60.4976 163.044 61.1195C165.565 61.7413 176.66 58.259 172.374 55.7716C168.087 53.2842 167.33 62.2388 171.239 61.1195C175.147 60.0001 182.334 52.9111 178.299 57.7615C174.265 62.6119 187.251 51.543 186.116 55.7716C184.982 60.0001 192.547 56.8909 192.925 55.7716C193.303 54.6522 186.369 57.0153 192.925 57.7615C199.481 58.5077 208.433 59.627 194.816 61.1195C181.199 62.6119 191.538 55.7716 222.68 55.7716C247.593 55.7716 257.941 57.0982 260 57.7615" stroke="black" stroke-width="1.5"/>
<path d="M169.015 46.6173C164.803 50.092 166.172 51.5036 167.857 50.2006C169.205 49.1582 167.436 46.364 166.383 45.0972" stroke="black" stroke-width="1.5"/>
<path d="M146.511 46.0564C147.568 51.4132 149.46 50.8794 149.114 48.778C148.837 47.0968 145.538 47.3258 143.923 47.6505" stroke="black" stroke-width="1.5"/>
</svg>
