<svg width="115" height="39" viewBox="0 0 89 30" fill="none" xmlns="http://www.w3.org/2000/svg">
<path d="M3.71826 5.838C3.71826 6.87344 2.88829 7.70847 1.85913 7.70847C0.829968 7.70847 0 6.87344 0 5.838C0 4.83596 0.829968 4.00093 1.85913 4.00093C2.88829 3.96753 3.71826 4.83596 3.71826 5.838ZM3.41947 9.14472V19.7997H0.365185V9.14472H3.41947Z" fill="#0A0E12"/>
<path d="M15.8023 13.7874V19.833H12.7481V14.2884C12.7481 12.8188 11.9513 11.9503 10.6897 11.9503C9.85977 11.9503 8.9966 12.4179 8.56502 13.1528V19.7662H5.51074V9.14462H8.56502V10.4139C9.1626 9.51203 10.2582 8.94421 11.4533 8.94421C14.1756 8.94421 15.8023 10.7813 15.8023 13.7874Z" fill="#0A0E12"/>
<path d="M21.6456 9.14505H24.2683V12.051H21.6456V19.8H18.5913V12.051H16.6326V9.14505H18.5913V8.37682C18.5913 5.60452 20.3508 4.03467 22.8075 4.03467C23.3719 4.03467 23.9695 4.16827 24.3679 4.36868L24.2019 7.07418C24.0027 7.00737 23.5379 6.90717 23.2391 6.90717C22.3427 6.90717 21.6124 7.57519 21.6124 8.54383V9.14505H21.6456Z" fill="#0A0E12"/>
<path d="M32.7344 9.14462L32.5684 12.0171C32.17 11.8501 31.6389 11.7833 31.2073 11.7833C30.5101 11.7833 29.4146 12.3511 28.8834 13.3866V19.833H25.8291V9.14462H28.8834V10.4139C29.4146 9.51203 30.5433 8.94421 31.4397 8.94421C31.9709 8.94421 32.4024 9.01102 32.7344 9.14462Z" fill="#0A0E12"/>
<path d="M44.0881 9.14445V19.7994H41.0338V18.5302C40.5027 19.3986 39.2411 19.9998 37.9132 19.9998C35.1577 19.9998 32.9666 17.5282 32.9666 14.4552C32.9666 11.3823 35.1577 8.91064 37.9132 8.91064C39.2411 8.91064 40.5359 9.51187 41.0338 10.3803V9.11105H44.0881V9.14445ZM41.0338 15.7913V13.186C40.5691 12.4178 39.6395 11.8165 38.5771 11.8165C37.0832 11.8165 35.9544 12.9522 35.9544 14.4552C35.9544 15.9583 37.0832 17.0939 38.5771 17.0939C39.6395 17.1273 40.5691 16.5595 41.0338 15.7913Z" fill="#0A0E12"/>
<path opacity="0.5" d="M51.059 17.953C52.14 19.494 53.336 20.184 54.969 20.184C57.798 20.184 59.822 17.93 59.822 14.756C59.822 11.467 57.867 9.236 54.946 9.236C53.359 9.236 52.14 9.949 51.059 11.513V4.659H49.909V20H51.059V17.953ZM54.9 10.317C57.085 10.317 58.626 12.18 58.626 14.802C58.626 17.378 57.108 19.103 54.831 19.103C52.531 19.103 51.036 17.355 51.036 14.664C51.036 12.111 52.623 10.317 54.9 10.317ZM63.1717 20V4.659H62.0217V20H63.1717ZM70.6191 9.236C69.2391 9.236 67.9051 9.742 66.9391 10.662C65.9041 11.628 65.3981 12.939 65.3981 14.664C65.3981 16.136 65.8121 17.47 66.5481 18.344C67.5141 19.494 69.0091 20.184 70.5501 20.184C73.4941 20.184 75.7941 17.792 75.7941 14.71C75.7941 13.215 75.4261 12.088 74.6211 11.099C73.6321 9.903 72.2061 9.236 70.6191 9.236ZM70.6191 10.317C71.6311 10.317 72.6891 10.754 73.4021 11.444C74.2071 12.226 74.5981 13.284 74.5981 14.71C74.5981 17.263 72.9191 19.103 70.5961 19.103C68.2041 19.103 66.5941 17.332 66.5941 14.733C66.5941 12.088 68.2041 10.317 70.6191 10.317ZM85.8936 11.49C84.7436 9.88 83.6166 9.236 81.9606 9.236C80.6266 9.236 79.5456 9.627 78.7406 10.432C77.6826 11.421 77.0616 13.054 77.0616 14.733C77.0616 17.838 79.1546 20.184 81.8916 20.184C82.8346 20.184 83.8236 19.862 84.5366 19.333C85.0426 18.942 85.3416 18.574 85.8936 17.677V20.506C85.8936 21.725 85.6406 22.553 85.0886 23.151C84.4216 23.841 83.2716 24.278 82.0756 24.278C81.1326 24.278 80.0746 24.002 79.4996 23.634C79.2006 23.45 78.9706 23.243 78.4876 22.714L77.6136 23.565C78.6026 24.784 80.0976 25.405 82.0066 25.405C85.1576 25.405 87.0436 23.565 87.0436 20.506V9.42H85.8936V11.49ZM82.1216 10.317C83.2026 10.317 84.3066 10.846 85.0196 11.674C85.6406 12.433 85.8476 13.169 85.8476 14.641C85.8476 15.837 85.5026 17.056 84.9966 17.677C84.2146 18.574 83.1336 19.103 82.0526 19.103C79.8676 19.103 78.2576 17.217 78.2576 14.664C78.2576 12.111 79.8446 10.317 82.1216 10.317Z" fill="#0A0E12"/>
</svg>
